<?xml version="1.0" standalone="no"?>
<!DOCTYPE svg PUBLIC "-//W3C//DTD SVG 1.1//EN" "http://www.w3.org/Graphics/SVG/1.1/DTD/svg11.dtd" >
<svg>
<metadata>
Created by FontForge 20110222 at Wed Apr 17 07:28:51 2013
 By Orthosie Webmaster
Font software Copyright 1990 Adobe Systems Incorporated. Typeface designs Copyright 1990, 2011 The Monotype Corporation. All rights reserved.
</metadata>
<defs>
<font id="AmasisMTW1GBold" horiz-adv-x="333" >
  <font-face 
    font-family="AmasisMTW1GBold"
    font-weight="700"
    font-stretch="normal"
    units-per-em="1000"
    panose-1="2 4 8 4 5 0 5 2 3 4"
    ascent="722"
    descent="-278"
    x-height="490"
    cap-height="694"
    bbox="-167 -350 1166 960"
    underline-thickness="50"
    underline-position="-75"
    unicode-range="U+000D-FB04"
  />
<missing-glyph horiz-adv-x="500" 
d="M12 0v665h475v-665h-475zM88 618l162 -243l161 243h-323zM60 575v-484l161 242zM440 575l-162 -242l162 -243v485zM411 48l-161 242l-162 -242h323z" />
    <glyph glyph-name="IJ" unicode="IJ" horiz-adv-x="909" 
d="M43 694h289v-89h-22q-17 0 -26 -2.5t-13.5 -10.5t-5 -15t-0.5 -25v-415q0 -30 7 -39t38 -9h22v-89h-289v89h22q32 0 39 9t7 39v422q0 28 -8 37t-38 9h-22v89zM411 181h104q0 -22 1 -34t6.5 -28.5t19.5 -24.5t36 -8q46 0 60.5 29.5t14.5 85.5v358q0 28 -8 37t-35 9h-31v89
h296v-89h-25q-28 0 -35.5 -9t-7.5 -37v-334q0 -40 -4.5 -72t-19 -66t-39 -56.5t-67.5 -37t-101 -14.5q-52 0 -86 8.5t-79 27.5v166z" />
    <glyph glyph-name="ij" unicode="ij" horiz-adv-x="621" 
d="M234 498v-355q0 -45 7 -53t48 -8v-82h-264v82h25q27 0 32.5 10t5.5 53v179q0 28 -0.5 39t-3.5 21.5t-8.5 12.5t-17.5 2q-13 0 -36 -1v81zM147 715q48 0 69.5 -21.5t21.5 -50.5q0 -38 -27.5 -56.5t-61.5 -18.5q-36 0 -64.5 17t-28.5 57q0 27 20.5 50t70.5 23zM550 498
v-484q0 -49 -7.5 -87t-26.5 -75.5t-59.5 -58t-99.5 -20.5q-65 0 -125 20v126h82q0 -18 1 -28t10.5 -21t27.5 -11q16 0 26 6.5t13.5 23.5t4.5 31t1 45v359q0 52 -5 63.5t-30 11.5h-27v80zM464 715q47 0 68.5 -21.5t21.5 -50.5q0 -38 -27.5 -56.5t-61.5 -18.5q-35 0 -63.5 17
t-28.5 57q0 27 20.5 50t70.5 23z" />
    <glyph glyph-name="napostrophe" unicode="&#x22;n" horiz-adv-x="615" 
d="M282 82v-82h-251v82q40 0 47.5 7.5t7.5 50.5v178q0 64 -9 73q-8 7 -53 4v82l199 16q9 -30 9 -70h2q47 81 146 81q113 0 147 -91q12 -31 12 -110v-160q0 -45 7 -53t48 -8v-82h-259v82q37 0 43.5 8.5t6.5 54.5v131q0 27 -1.5 43t-7.5 34.5t-20 27.5t-37 9q-86 0 -86 -135
v-110q0 -46 6.5 -54.5t42.5 -8.5zM-162 378v71q37 18 55.5 41t23.5 61q-29 5 -46.5 22t-22 31.5t-4.5 28.5q0 35 24.5 58.5t57.5 23.5q39 0 66 -32t27 -84q0 -21 -6.5 -46t-23.5 -59t-56 -65t-95 -51z" />
    <glyph glyph-name="f_f" unicode="ff" horiz-adv-x="677" 
d="M462 680q53 35 132 35q72 0 126 -27v-121h-82q0 34 -9 46.5t-32 12.5t-40 -17q-15 -17 -15 -81v-38h95v-101h-95v-246q0 -46 7 -53q8 -8 41 -8h19v-82h-264v82h11q28 0 33 9q6 11 6 54v244h-160v-246q0 -42 6 -51.5t35 -9.5h14v-82h-268v82h28q28 0 33 9q6 11 6 54v244
h-65v101h65v31q0 94 61 143q62 51 160 51q87 0 152 -35zM235 490h160v46q0 46 -17 67t-59 21q-34 0 -59 -22q-25 -21 -25 -87v-25z" />
    <glyph glyph-name="fi" unicode="fi" horiz-adv-x="615" 
d="M510 672v-112h-112q0 12 -1.5 19.5t-7 20t-21 19.5t-39.5 7q-27 0 -46 -9.5t-28.5 -22t-14.5 -34t-5.5 -34.5t-0.5 -36h302v-366q0 -24 6.5 -33t31.5 -9h17v-82h-251v82h14q22 0 29.5 8t7.5 35v213q0 33 -6.5 42t-38.5 9h-112v-265q0 -30 9 -36t41 -6v-82h-262v82h22
q28 0 36 8t8 37v262h-66v101h66q0 89 24 131q54 94 210 94q99 0 188 -43z" />
    <glyph glyph-name="fl" unicode="fl" horiz-adv-x="625" 
d="M544 715v-591q0 -26 6.5 -34t34.5 -8h15v-82h-255v82q36 0 45 6.5t9 35.5v265h-163v-265q0 -29 9 -35.5t45 -6.5v-82h-265v82h24q22 0 31 7.5t9 28.5v271h-64v101h64v32.5t3.5 39t11 44t22.5 40t36.5 36.5t56 23.5t78.5 9.5q59 0 111 -21zM236 490h163v44q0 90 -78 90
q-85 0 -85 -111v-23z" />
    <glyph glyph-name="f_f_i" unicode="ffi" horiz-adv-x="927" 
d="M473 675q68 40 162 40q100 0 185 -43v-112h-112q0 34 -16 50t-53 16q-51 0 -73 -31t-22 -96v-9h302v-366q0 -25 7 -33.5t31 -8.5h17v-82h-251v82h14q23 0 30.5 9t7.5 34v213q0 34 -7.5 42.5t-38.5 8.5h-112v-265q0 -29 8.5 -35.5t41.5 -6.5v-82h-246v82q33 0 41 7.5
t8 37.5v262h-159v-246q0 -41 6 -51t34 -10h14v-82h-267v82h28q29 0 33 9q5 12 5 54v244h-65v101h65v31q0 92 61 143t164 51q90 0 157 -40zM238 490h159v46q0 46 -18 67.5t-59 21.5q-32 0 -57 -22q-25 -21 -25 -88v-25z" />
    <glyph glyph-name="f_f_l" unicode="ffl" horiz-adv-x="927" 
d="M465 681q64 34 135 34q62 0 113 -21l135 21v-591q0 -27 7 -34.5t34 -7.5h15v-82h-255v82q34 0 44 5q10 6 10 37v265h-163v-265q0 -28 9 -35t45 -7v-82h-250v82h10q24 0 32 8t8 35v264h-160v-246q0 -41 6 -51t34 -10h15v-82h-268v82h28q29 0 33 9q5 12 5 54v244h-65v101
h65v31q0 92 60 143t168 51q89 0 150 -34zM234 490h160v47q0 46 -18.5 67t-59.5 21q-32 0 -57 -21t-25 -88v-26zM540 490h163v44q0 49 -18.5 69t-62.5 20q-32 0 -58 -21q-24 -21 -24 -89v-23z" />
    <glyph glyph-name=".notdef" horiz-adv-x="500" 
d="M12 0v665h475v-665h-475zM88 618l162 -243l161 243h-323zM60 575v-484l161 242zM440 575l-162 -242l162 -243v485zM411 48l-161 242l-162 -242h323z" />
    <glyph glyph-name=".null" horiz-adv-x="0" 
 />
    <glyph glyph-name="nonmarkingreturn" 
 />
    <glyph glyph-name="CR" unicode="&#xd;" horiz-adv-x="281" 
 />
    <glyph glyph-name="space" unicode=" " horiz-adv-x="281" 
 />
    <glyph glyph-name="exclam" unicode="!" horiz-adv-x="313" 
d="M157 147q33 0 57 -24t24 -58t-24 -58t-57 -24q-34 0 -58 24t-24 58q0 35 24 58.5t58 23.5zM83 715h149v-79l-14 -426h-120l-15 426v79z" />
    <glyph glyph-name="quotedbl" unicode="&#x22;" horiz-adv-x="479" 
d="M304 404l-26 150q-7 45 -7 53q0 29 23 52t56 23q35 0 56.5 -24.5t21.5 -53.5q0 -4 -0.5 -11t-0.5 -9l-5 -26l-23 -154h-95zM84 404l-26 150q-7 45 -7 53q0 29 23 52t56 23q35 0 56.5 -24.5t21.5 -53.5q0 -4 -0.5 -11t-0.5 -9l-5 -26l-23 -154h-95z" />
    <glyph glyph-name="numbersign" unicode="#" horiz-adv-x="667" 
d="M36 505h147l40 183h106l-41 -183h161l39 183h105l-39 -183h77v-105h-97l-28 -135h125v-105h-145l-40 -181h-105l40 181h-163l-38 -181h-105l38 181h-77v105h99l28 135h-127v105zM429 400h-161l-28 -134h161z" />
    <glyph glyph-name="dollar" unicode="$" horiz-adv-x="531" 
d="M467 618v-162h-109v31q0 36 -8 52q-7 15 -28.5 25t-45.5 10q-37 0 -60.5 -19.5t-23.5 -53.5q0 -35 26.5 -57t119.5 -73q38 -20 59.5 -34t47 -38t37.5 -54t12 -69q0 -49 -22 -92t-61 -69q-38 -26 -106 -33v-93h-100v93q-76 7 -156 36v183h113v-33q0 -98 95 -98
q43 0 68.5 23t25.5 60q0 41 -27 65t-102 64q-78 41 -122.5 87.5t-44.5 114.5q0 94 84 145q31 18 86 27v47h100v-47q75 -10 132 -33z" />
    <glyph glyph-name="percent" unicode="%" horiz-adv-x="844" 
d="M606 167q0 -70 14 -98.5t42 -28.5q18 0 29.5 10.5t16 31.5t6 39.5t1.5 45.5t-1.5 45t-6 39t-16 32t-29.5 11q-28 0 -42 -29t-14 -98zM156 -21l421 736h111l-421 -736h-111zM130 526q0 -69 14 -97.5t42 -28.5q18 0 29.5 10.5t16 31.5t6 39t1.5 45t-1.5 45.5t-6 39.5
t-16 31.5t-29.5 10.5q-28 0 -42 -29t-14 -98zM187 715q87 0 122 -46.5t35 -133.5q0 -196 -159 -196q-77 0 -119 41t-42 140q0 195 163 195zM663 356q88 0 122.5 -48t34.5 -133q0 -196 -159 -196q-77 0 -119 41.5t-42 140.5q0 195 163 195z" />
    <glyph glyph-name="ampersand" unicode="&#x26;" horiz-adv-x="750" 
d="M523 389h186v-83h-26q-26 0 -38.5 -10t-23.5 -40q-30 -76 -54 -119q50 -51 95 -51q18 0 47 9v-95q-45 -18 -89 -18t-74 14.5t-64 46.5q-80 -61 -195 -61q-61 0 -107 16.5t-70.5 39t-39.5 53t-19 53t-4 44.5q0 128 154 209q-62 85 -62 145q0 65 48.5 110t140.5 45
q46 0 80.5 -12t52.5 -28.5t29 -38t13.5 -36.5t2.5 -28q0 -28 -10 -54t-22 -43t-34.5 -35t-34.5 -26t-34 -21l118 -150q34 60 34 164zM312 449q17 11 27 18t25 20.5t22 30.5t7 37q0 30 -20 47.5t-48 17.5q-31 0 -48.5 -19.5t-17.5 -43.5q0 -44 53 -108zM409 126l-147 185
q-77 -56 -77 -114q0 -40 30.5 -76t86.5 -36q52 0 107 41z" />
    <glyph glyph-name="quotesingle" unicode="'" horiz-adv-x="240" 
d="M74 404l-26 150q-7 45 -7 53q0 29 23 52t56 23q35 0 56.5 -24.5t21.5 -53.5q0 -4 -0.5 -11t-0.5 -9l-5 -26l-23 -154h-95z" />
    <glyph glyph-name="parenleft" unicode="(" horiz-adv-x="365" 
d="M210 715h121q-57 -104 -87.5 -201t-37 -152t-6.5 -122q0 -246 131 -473h-121q-30 44 -52.5 83.5t-50.5 101.5t-43 136t-15 153q0 81 15.5 156.5t45 138.5t49.5 98t51 81z" />
    <glyph glyph-name="parenright" unicode=")" horiz-adv-x="365" 
d="M155 -233h-121q57 104 87.5 201t37 152t6.5 122q0 246 -131 473h121q30 -44 52.5 -83.5t50.5 -101.5t43 -136t15 -153q0 -81 -15.5 -156.5t-45 -138.5t-49.5 -98t-51 -81z" />
    <glyph glyph-name="asterisk" unicode="*" horiz-adv-x="542" 
d="M214 715h113v-36l-7 -126l119 44l35 11l34 -106l-34 -12l-124 -31l79 -98l21 -32l-93 -65l-21 30l-65 107l-72 -107l-21 -30l-91 68l26 34l76 93l-121 33l-34 10l36 106l35 -11l117 -44l-8 126v36z" />
    <glyph glyph-name="plus" unicode="+" horiz-adv-x="667" 
d="M59 393h214v215h121v-215h214v-121h-214v-213h-121v213h-214v121z" />
    <glyph glyph-name="comma" unicode="," horiz-adv-x="313" 
d="M68 -187v71q68 28 79 102q-29 5 -46.5 22t-22 31.5t-4.5 28.5q0 35 24.5 58.5t58.5 23.5q42 0 67 -33.5t25 -82.5q0 -22 -6.5 -46.5t-23 -58.5t-56 -65t-95.5 -51z" />
    <glyph glyph-name="hyphen" unicode="-" horiz-adv-x="365" 
d="M32 312h301v-135h-301v135z" />
    <glyph glyph-name="period" unicode="." horiz-adv-x="313" 
d="M157 148q34 0 58 -24t24 -58t-24 -58.5t-58 -24.5q-35 0 -59 24.5t-24 58.5t24 58t59 24z" />
    <glyph glyph-name="slash" unicode="/" horiz-adv-x="615" 
d="M425 694h132l-368 -714h-131z" />
    <glyph glyph-name="zero" unicode="0" horiz-adv-x="562" 
d="M44 328q0 354 247 354q69 0 116.5 -27.5t71 -78t32.5 -105t9 -125.5q0 -361 -241 -361q-125 0 -180 87t-55 256zM188 330q0 -126 21.5 -184t72.5 -58q33 0 52.5 20t31 77.5t11.5 158.5q0 54 -3.5 92.5t-13 72.5t-28 51t-47.5 17q-50 0 -73.5 -57t-23.5 -190z" />
    <glyph glyph-name="one" unicode="1" horiz-adv-x="562" 
d="M284 682h81v-560q0 -25 8.5 -33t38.5 -8h40v-81h-316v81h49q20 0 29 6t11 14t2 25v321q0 31 -7 41t-38 7l-58 -6v81q15 2 30.5 7t41 16.5t49 34.5t39.5 54z" />
    <glyph glyph-name="two" unicode="2" horiz-adv-x="562" 
d="M73 451v151q104 80 212 80q103 0 153.5 -51.5t50.5 -125.5q0 -82 -56.5 -170t-213.5 -217v-2h136q30 0 38 8t8 34v34h109v-192h-457v113q149 131 221 218t72 167q0 33 -20 58.5t-60 25.5q-81 0 -81 -94v-37h-112z" />
    <glyph glyph-name="three" unicode="3" horiz-adv-x="562" 
d="M80 471v149q92 62 202 62q104 0 153 -48.5t49 -121.5q0 -110 -106 -151v-2q117 -36 117 -163q0 -25 -5 -50.5t-20.5 -55.5t-40.5 -52.5t-68 -37.5t-99 -15q-102 0 -200 50v165h114v-41q0 -12 1.5 -21t8 -23.5t23.5 -22.5t44 -8q52 0 76 32t24 72q0 107 -131 109v105
q31 1 56.5 7.5t47 29.5t21.5 60q0 42 -22.5 65t-58.5 23q-80 0 -80 -89v-27h-106z" />
    <glyph glyph-name="four" unicode="4" horiz-adv-x="562" 
d="M318 682h126v-404h80v-109h-80v-47q0 -24 7.5 -32.5t38.5 -8.5h27v-81h-290v81h45q27 0 35 7t8 34v47h-277v131zM316 510l-170 -232h172v232h-2z" />
    <glyph glyph-name="five" unicode="5" horiz-adv-x="562" 
d="M101 666h373v-114h-266l-6 -128q50 25 103 25q93 0 143 -60t50 -156q0 -64 -25.5 -125t-83.5 -94q-50 -29 -129 -29q-109 0 -188 54v161h115v-39q0 -16 1.5 -25.5t7 -24t20 -22t38.5 -7.5q41 0 65 26t30 54t6 60q0 64 -25 96.5t-65 32.5q-46 0 -72 -41l-110 3z" />
    <glyph glyph-name="six" unicode="6" horiz-adv-x="562" 
d="M502 638v-143h-113q0 20 -0.5 29.5t-4 24t-10 21.5t-19.5 12t-32 5q-114 0 -130 -201q63 54 139 54q86 0 140 -54t54 -156q0 -42 -11.5 -82t-36.5 -78.5t-73.5 -61.5t-114.5 -23q-245 0 -245 312q0 178 73 282q72 103 212 103q91 0 172 -44zM389 218q0 63 -27 94.5
t-69 31.5q-46 0 -72.5 -33.5t-26.5 -97.5q0 -20 4 -41t14 -43.5t30.5 -36.5t48.5 -14q34 0 56 17.5t30 46.5t10 44.5t2 31.5z" />
    <glyph glyph-name="seven" unicode="7" horiz-adv-x="562" 
d="M69 666h448v-120q-17 -17 -89 -149q-55 -106 -85 -202t-36 -205h-133q8 265 211 554h-166q-16 0 -23 -1.5t-12 -11t-5 -29.5v-49h-110v213z" />
    <glyph glyph-name="eight" unicode="8" horiz-adv-x="562" 
d="M412 354q18 -9 30 -16.5t32.5 -26t31.5 -49.5t11 -71q0 -34 -9.5 -66t-33 -65.5t-72.5 -54t-118 -20.5q-123 0 -183 60q-54 54 -54 142q0 120 105 167q-89 46 -89 142q0 31 10 60.5t33 59t69 48t110 18.5q106 0 161 -49t55 -128q0 -100 -89 -151zM196 493
q-1 -45 23 -70.5t63 -25.5q29 0 48 12.5t26.5 32t9.5 31.5t2 23t-2.5 23t-10 29.5t-26.5 28.5t-47 11q-41 0 -63.5 -27t-22.5 -68zM379 194q0 44 -24 75.5t-71 31.5q-46 0 -72.5 -31t-26.5 -82q0 -56 30 -82t69 -26q48 0 71.5 32.5t23.5 81.5z" />
    <glyph glyph-name="nine" unicode="9" horiz-adv-x="562" 
d="M61 29v143h113q0 -25 1 -37t7 -27.5t20 -21.5t38 -6q114 0 130 201q-63 -54 -139 -54q-86 0 -140 54.5t-54 155.5q0 42 11.5 82t36.5 78.5t73.5 61.5t114.5 23q244 0 244 -313q0 -178 -72 -282q-71 -102 -215 -102q-90 0 -169 44zM174 449q0 -63 27.5 -94.5t68.5 -31.5
t70 31.5t29 101.5q0 54 -23.5 93.5t-73.5 39.5q-34 0 -56 -17.5t-30 -46.5t-10 -44.5t-2 -31.5z" />
    <glyph glyph-name="colon" unicode=":" horiz-adv-x="313" 
d="M157 148q34 0 58 -24t24 -58t-24 -58.5t-58 -24.5q-35 0 -59 24.5t-24 58.5t24 58t59 24zM157 507q34 0 58 -24t24 -58t-24 -58.5t-58 -24.5q-35 0 -59 24t-24 59q0 34 24 58t59 24z" />
    <glyph glyph-name="semicolon" unicode=";" horiz-adv-x="313" 
d="M68 -187v71q68 28 79 102q-29 5 -46.5 22t-22 31.5t-4.5 28.5q0 35 24.5 58.5t58.5 23.5q42 0 67 -33.5t25 -82.5q0 -22 -6.5 -46.5t-23 -58.5t-56 -65t-95.5 -51zM157 507q34 0 58 -24t24 -58t-24 -58.5t-58 -24.5q-35 0 -59 24t-24 59q0 34 24 58t59 24z" />
    <glyph glyph-name="less" unicode="&#x3c;" horiz-adv-x="667" 
d="M608 50l-549 228v109l549 228v-130l-383 -152l383 -152v-131z" />
    <glyph glyph-name="equal" unicode="=" horiz-adv-x="667" 
d="M59 511h549v-121h-549v121zM59 276h549v-121h-549v121z" />
    <glyph glyph-name="greater" unicode="&#x3e;" horiz-adv-x="667" 
d="M59 615l549 -227v-109l-549 -229v131l383 152l-383 152v130z" />
    <glyph glyph-name="question" unicode="?" horiz-adv-x="479" 
d="M213 386l43 54q43 53 43 105q0 28 -20 51.5t-59 23.5q-77 0 -77 -96v-26h-111v151q87 66 208 66q59 0 102 -16.5t64 -44t30 -53.5t9 -53q0 -33 -13.5 -65t-27.5 -50.5t-40 -46.5q-45 -49 -67.5 -86t-27.5 -92h-121q5 103 65 178zM214 148q34 0 58 -24.5t24 -58.5t-24 -58
t-58 -24t-58 24t-24 58t24 58.5t58 24.5z" />
    <glyph glyph-name="at" unicode="@" horiz-adv-x="979" 
d="M871 9h100q-57 -116 -173 -167.5t-258 -51.5q-58 0 -114 8t-122.5 29t-124.5 66.5t-95 110.5q-58 101 -58 230q0 76 20 147.5t61.5 134.5t100 110t142 74.5t181.5 27.5q191 0 303 -107t112 -266q0 -91 -40.5 -172t-115 -132t-164.5 -51q-46 0 -65.5 14.5t-26.5 41.5
q-56 -56 -134 -56q-80 0 -133 56t-53 153q0 51 17 105.5t48.5 103t83.5 80t114 31.5q89 0 130 -66l12 54h128l-73 -350q-7 -33 -7 -43q0 -24 19 -24q45 0 108.5 76t63.5 183q0 130 -93 207t-238 77q-98 0 -177 -33t-128.5 -90t-76 -130t-26.5 -156q0 -173 120 -273
q103 -85 294 -85q249 0 338 133zM340 210q0 -50 20.5 -85.5t66.5 -35.5q41 0 73 27.5t48 68.5t24 77.5t8 64.5q0 11 -2.5 25t-10 37t-28 37.5t-50.5 14.5q-40 0 -70.5 -25.5t-46.5 -64t-24 -75t-8 -66.5z" />
    <glyph glyph-name="A" unicode="A" horiz-adv-x="708" 
d="M278 702h156l187 -545q16 -45 27.5 -56.5t35.5 -11.5h16v-89h-288v89h29q11 0 17 0.5t11.5 5.5t5.5 15q0 4 -9 35l-18 55h-215l-20 -56q-7 -28 -7 -31q0 -24 38 -24h23v-89h-259v89q35 0 48.5 9.5t26.5 47.5zM340 546l-83 -243h168l-83 243h-2z" />
    <glyph glyph-name="B" unicode="B" horiz-adv-x="667" 
d="M41 605v89h312q230 0 230 -175q0 -105 -93 -150q135 -35 135 -169q0 -64 -33.5 -116.5t-104.5 -73.5q-36 -10 -126 -10h-320v89h21q30 0 38 8.5t8 38.5v424q0 13 -1 19t-5 13.5t-13.5 10t-26.5 2.5h-21zM252 588v-177h73q109 0 109 92q0 85 -104 85h-78zM252 306v-200h96
q23 0 40.5 3t37 12.5t30 31.5t10.5 55q0 28 -11 48t-24.5 29t-35.5 14.5t-33.5 6t-29.5 0.5h-80z" />
    <glyph glyph-name="C" unicode="C" horiz-adv-x="688" 
d="M638 660v-201h-129v34q0 55 -12 78q-10 19 -39.5 31.5t-63.5 12.5q-67 0 -112 -38.5t-62 -93t-17 -121.5q0 -100 36 -160q18 -29 42 -49.5t49.5 -29.5t44.5 -12.5t37 -3.5q118 0 223 76v-129q-108 -75 -246 -75q-81 0 -143.5 25t-99.5 63.5t-60.5 89t-31.5 96t-8 90.5
q0 52 10 101t36 99t65.5 87.5t103 61t143.5 23.5q124 0 234 -55z" />
    <glyph glyph-name="D" unicode="D" horiz-adv-x="750" 
d="M41 694h319q147 0 228 -62q119 -95 119 -281q0 -152 -82.5 -251.5t-240.5 -99.5h-343v89h19q32 0 40 8.5t8 37.5v422q0 29 -7.5 38.5t-36.5 9.5h-23v89zM335 584h-77v-477h86q199 0 199 237q0 76 -18.5 127t-52 74t-65 31t-72.5 8z" />
    <glyph glyph-name="E" unicode="E" horiz-adv-x="625" 
d="M42 694h531v-182h-114v35q0 25 -10.5 32t-38.5 7h-149v-175h114q13 0 16.5 3.5t3.5 18.5v31h109v-220h-109v36q0 22 -20 22h-114v-195h162q32 0 40 9t8 35v41h114v-192h-543v89h25q28 0 34.5 9t6.5 37v426q0 17 -1.5 24.5t-11 13.5t-28.5 6h-25v89z" />
    <glyph glyph-name="F" unicode="F" horiz-adv-x="604" 
d="M42 694h537v-182h-114v31q0 26 -9.5 34t-37.5 8h-156v-174h100q14 0 18 5t4 16v33h108v-219h-108v33q0 13 -4 18.5t-18 5.5h-100v-169q0 -19 2 -26.5t12.5 -13t34.5 -5.5h30v-89h-299v89h20q31 0 39 9.5t8 38.5v419q0 31 -9 40t-38 9h-20v89z" />
    <glyph glyph-name="G" unicode="G" horiz-adv-x="750" 
d="M524 463v37q0 43 -11 63q-14 25 -44.5 36.5t-62.5 11.5q-95 0 -145 -72.5t-50 -187.5q0 -114 49 -184.5t150 -70.5q41 0 94 19v101q0 12 -1 18.5t-5 13t-13 9t-24 2.5h-27v89h284v-89h-28q-23 0 -32 -8.5t-9 -32.5v-179q-122 -60 -244 -60q-94 0 -152 23t-102 67
q-102 101 -102 272q0 54 11 104.5t38.5 100.5t68 86.5t104.5 59.5t144 23q133 0 237 -54v-198h-128z" />
    <glyph glyph-name="H" unicode="H" horiz-adv-x="771" 
d="M40 694h290v-89h-24q-28 0 -36.5 -9.5t-8.5 -35.5v-133h248v133q0 17 -2 25t-12.5 14t-31.5 6h-22v89h290v-89h-21q-30 0 -38.5 -8t-8.5 -37v-427q0 -27 8.5 -35.5t38.5 -8.5h21v-89h-290v89h22q30 0 38 8.5t8 35.5v178h-248v-182q0 -13 1.5 -20t12 -13.5t31.5 -6.5h24
v-89h-290v89h24q16 0 25.5 2.5t13.5 10t4.5 14t0.5 21.5v420q0 28 -7.5 38t-36.5 10h-24v89z" />
    <glyph glyph-name="I" unicode="I" horiz-adv-x="375" 
d="M43 694h289v-89h-22q-17 0 -26 -2.5t-13.5 -10.5t-5 -15t-0.5 -25v-415q0 -30 7 -39t38 -9h22v-89h-289v89h22q32 0 39 9t7 39v422q0 28 -8 37t-38 9h-22v89z" />
    <glyph glyph-name="J" unicode="J" horiz-adv-x="531" 
d="M33 181h104q0 -22 1 -34t6.5 -28.5t19.5 -24.5t36 -8q46 0 60.5 29.5t14.5 85.5v358q0 28 -8 37t-35 9h-31v89h296v-89h-25q-28 0 -35.5 -9t-7.5 -37v-334q0 -40 -4.5 -72t-19 -66t-39 -56.5t-67.5 -37t-101 -14.5q-52 0 -86 8.5t-79 27.5v166z" />
    <glyph glyph-name="K" unicode="K" horiz-adv-x="708" 
d="M43 694h285v-89h-16q-33 0 -42 -8t-9 -40v-177l154 170q22 24 22 36q0 19 -39 19v89h279v-89q-37 0 -56.5 -11.5t-41.5 -36.5l-170 -192l195 -219q24 -26 46 -39.5t33.5 -15.5t28.5 -2v-89h-328v89h22q27 0 27 17q0 13 -21 37l-151 175v-182q0 -19 1.5 -27t10.5 -14
t28 -6h16v-89h-274v89h26q27 0 34.5 8.5t7.5 33.5v426q0 18 -1.5 26t-11 15t-29.5 7h-26v89z" />
    <glyph glyph-name="L" unicode="L" horiz-adv-x="594" 
d="M40 694h297v-89h-30q-32 0 -39 -9.5t-7 -37.5v-451h150q28 0 35.5 9t7.5 33v55h115v-204h-529v89h24q16 0 25.5 2.5t13 10t4.5 13.5t1 19v424q0 15 -1 21.5t-5 13.5t-14 9.5t-27 2.5h-21v89z" />
    <glyph glyph-name="M" unicode="M" horiz-adv-x="958" 
d="M40 694h310l117 -392q10 -25 10 -38h2q62 219 131 430h307v-89h-16q-37 0 -44 -9t-7 -46v-409q0 -34 7 -43t41 -9h19v-89h-281v89h18q33 0 40 9.5t7 42.5v464h-2l-172 -564h-120l-166 564h-2v-468q0 -33 9 -40.5t40 -7.5h16v-89h-264v89h18q35 0 42.5 9.5t7.5 42.5v415
q0 30 -8.5 39.5t-41.5 9.5h-18v89z" />
    <glyph glyph-name="N" unicode="N" horiz-adv-x="750" 
d="M42 694h254l228 -452h2v315q0 28 -8 38t-40 10h-17v89h257v-89h-25q-30 0 -36.5 -9.5t-6.5 -38.5v-557h-153l-261 503h-2v-368q0 -14 1 -20.5t5 -13.5t13.5 -9.5t26.5 -2.5h21v-89h-259v89h22q22 0 32 5.5t11.5 13.5t1.5 27v424q0 14 -1 20t-5 13.5t-13.5 10t-25.5 2.5
h-22v89z" />
    <glyph glyph-name="O" unicode="O" horiz-adv-x="781" 
d="M46 340q0 171 93.5 273t257.5 102q165 0 252 -98t87 -258q0 -166 -90.5 -273t-256.5 -107q-165 0 -254 101.5t-89 259.5zM206 343q0 -50 8.5 -92.5t28.5 -80.5t57.5 -59.5t90.5 -21.5q54 0 91.5 23.5t56.5 65t27 85t8 94.5q0 19 -1 34.5t-5.5 49t-16.5 58.5t-30.5 51
t-51.5 40.5t-76 14.5q-93 0 -140 -71t-47 -191z" />
    <glyph glyph-name="P" unicode="P" horiz-adv-x="625" 
d="M41 605v89h302q86 0 130 -17q38 -14 63.5 -39t36 -54.5t14 -50t3.5 -40.5q0 -60 -26 -107.5t-76 -73.5q-46 -24 -129 -24h-103v-158q0 -25 8 -33t38 -8h30v-89h-291v89h24q29 0 36.5 9.5t7.5 36.5v422q0 15 -0.5 21.5t-4.5 14t-13.5 10t-25.5 2.5h-24zM256 592v-202h68
q62 0 91.5 24.5t29.5 79.5q0 98 -116 98h-73z" />
    <glyph glyph-name="Q" unicode="Q" horiz-adv-x="792" 
d="M719 -63v-93q-54 -3 -72 -3q-207 0 -342 118q-16 14 -40 44q-30 11 -49 20t-52 36.5t-58 66.5q-55 85 -55 217q0 167 94 269.5t258 102.5q166 0 252 -99.5t86 -256.5q0 -190 -110 -293q-54 -50 -140 -71q74 -61 228 -58zM399 605q-95 0 -141.5 -71t-46.5 -191
q0 -48 8.5 -89.5t27.5 -80.5t57.5 -61.5t92.5 -22.5q96 0 142 79q41 71 41 189q0 15 -0.5 27t-4 39.5t-9.5 49t-19.5 47.5t-32 43.5t-48.5 29.5t-67 12z" />
    <glyph glyph-name="R" unicode="R" horiz-adv-x="677" 
d="M42 605v89h308q81 0 127 -18q35 -14 59.5 -38t35 -52t14.5 -49t4 -42q0 -114 -97 -172l95 -178q17 -33 35 -44.5t46 -11.5h20v-89h-201l-138 288h-97v-159q0 -24 8 -32t36 -8h23v-89h-278v89h23q16 0 25.5 2.5t13.5 9t4.5 12.5t0.5 20v424q0 19 -1.5 27t-11.5 14.5
t-31 6.5h-23zM253 591v-202h72q120 0 120 103q0 99 -116 99h-76z" />
    <glyph glyph-name="S" unicode="S" horiz-adv-x="573" 
d="M506 673v-177h-119v34q0 17 -2 28.5t-9 29t-27 27t-51 9.5q-29 0 -49 -9t-28.5 -23.5t-12 -26t-3.5 -22.5q0 -22 10.5 -40.5t37 -36.5t48 -29.5t64.5 -32.5q91 -44 130.5 -93t39.5 -120q0 -64 -30.5 -112t-70.5 -67q-66 -33 -172 -33q-104 0 -211 41v199h124v-36
q0 -106 102 -106q48 0 76 24.5t28 66.5q0 43 -26.5 67t-107.5 68q-43 23 -69.5 40t-58.5 45t-47.5 62.5t-15.5 75.5q0 17 3.5 36t18 48t38.5 51t70.5 38t108.5 16q112 0 211 -42z" />
    <glyph glyph-name="T" unicode="T" horiz-adv-x="698" 
d="M27 694h644v-206h-114v56q0 28 -6.5 35t-37.5 7h-87v-450q0 -29 7.5 -38t40.5 -9h26v-89h-303v89h31q31 0 37.5 9t6.5 38v450h-86q-31 0 -38 -6.5t-7 -38.5v-53h-114v206z" />
    <glyph glyph-name="U" unicode="U" horiz-adv-x="750" 
d="M30 694h290v-89h-25q-30 0 -36.5 -10t-6.5 -42v-300q0 -23 1.5 -40t9 -40.5t21 -38.5t39.5 -26t63 -11q38 0 65 12.5t40 27.5t20 40.5t8 38.5t1 34v303q0 22 -1.5 30.5t-11 15t-30.5 6.5h-24v89h267v-89h-24q-29 0 -35.5 -9t-6.5 -38v-305q0 -40 -5 -74t-21.5 -72.5
t-45 -65t-79.5 -44.5t-120 -18q-146 0 -216 66t-70 200v313q0 18 -1.5 26t-11.5 14.5t-30 6.5h-24v89z" />
    <glyph glyph-name="V" unicode="V" horiz-adv-x="708" 
d="M8 694h292v-89h-27q-35 0 -35 -21q0 -8 8 -34l120 -365h2l121 358q8 24 8 35q0 27 -36 27h-23v89h263v-89h-17q-18 0 -29.5 -8.5t-16.5 -18.5t-12 -31l-198 -554h-151l-191 547q-15 41 -25 53t-34 12h-19v89z" />
    <glyph glyph-name="W" unicode="W" horiz-adv-x="990" 
d="M9 694h291v-89h-34q-32 0 -32 -23q0 -11 4 -27l79 -345h2l117 484h147l109 -484h2l83 332q6 20 6 37q0 16 -10.5 21t-34.5 5h-17v89h260v-89q-33 1 -49 -12t-29 -58l-153 -542h-147l-108 459h-2l-113 -459h-149l-140 530q-14 54 -26 68t-39 14h-17v89z" />
    <glyph glyph-name="X" unicode="X" horiz-adv-x="708" 
d="M41 694h287v-89h-14q-23 0 -23 -15q0 -8 17 -34l58 -88l59 82q19 24 19 39q0 16 -19 16h-16v89h261v-89q-50 0 -72 -27q-14 -16 -28 -34l-133 -178l142 -209q22 -32 42 -47.5t30.5 -18t30.5 -2.5v-89h-294v89h16q24 0 24 17q0 10 -19 39l-65 98l-70 -98q-1 0 -3 -4
l-7 -10q-12 -15 -12 -25q0 -17 25 -17h17v-89h-268v89h15q25 0 38.5 8.5t37.5 35.5l10 12l147 200l-135 199q-26 38 -44.5 50t-53.5 11v89z" />
    <glyph glyph-name="Y" unicode="Y" horiz-adv-x="698" 
d="M11 694h295v-89h-24q-25 0 -25 -18q0 -13 9 -22q1 -1 2.5 -4t2.5 -4l93 -151l94 144q17 23 17 37q0 18 -35 18h-19v89h266v-89q-20 0 -28.5 -2t-20.5 -13t-29 -37l-184 -278v-143q0 -27 8.5 -35t39.5 -8h24v-89h-298v89h26q31 0 38.5 8t7.5 35v143l-186 287
q-13 20 -26 30t-21.5 11.5t-26.5 1.5v89z" />
    <glyph glyph-name="Z" unicode="Z" horiz-adv-x="646" 
d="M57 694h534v-110l-365 -476h214q35 0 43.5 9t8.5 39v52h114v-208h-564v108l364 476h-186q-31 0 -40.5 -7.5t-9.5 -35.5v-50h-113v203z" />
    <glyph glyph-name="bracketleft" unicode="[" horiz-adv-x="354" 
d="M69 694h249v-97h-116v-709h116v-98h-249v904z" />
    <glyph glyph-name="backslash" unicode="\" horiz-adv-x="615" 
d="M58 694h132l367 -714h-131z" />
    <glyph glyph-name="bracketright" unicode="]" horiz-adv-x="354" 
d="M285 -210h-249v97h116v709h-116v98h249v-904z" />
    <glyph glyph-name="asciicircum" unicode="^" horiz-adv-x="583" 
d="M56 304l183 390h109l179 -390h-139l-96 239l-96 -239h-140z" />
    <glyph glyph-name="underscore" unicode="_" horiz-adv-x="500" 
d="M-6 -125v50h512v-50h-512z" />
    <glyph glyph-name="grave" unicode="`" 
d="M6 690h153l60 -129h-101z" />
    <glyph glyph-name="a" unicode="a" horiz-adv-x="563" 
d="M80 328v118q92 58 206 58q63 0 104.5 -15.5t60.5 -43.5t25.5 -54.5t6.5 -60.5v-178q0 -32 6.5 -45.5t23.5 -13.5q11 0 35 9v-86q-63 -30 -120 -30q-63 0 -82 58q-70 -58 -147 -58q-69 0 -114 33t-45 107q0 36 13.5 65t36.5 46t41.5 26t38.5 15q77 23 98 28l70 16
q0 20 -2 33t-8.5 29.5t-23 25t-42.5 8.5q-20 0 -33.5 -4.5t-20.5 -10.5t-10.5 -18.5t-4 -20t-0.5 -23.5v-13h-113zM338 190v55q-84 -23 -119.5 -43.5t-35.5 -62.5q0 -27 17.5 -46t47.5 -19q23 0 44 13q46 27 46 103z" />
    <glyph glyph-name="b" unicode="b" horiz-adv-x="594" 
d="M0 697l213 18v-283h2q49 72 142 72q46 0 82 -17.5t56.5 -43.5t33.5 -60.5t17.5 -63.5t4.5 -57q0 -44 -11 -88.5t-34.5 -88.5t-69.5 -71.5t-108 -27.5q-76 0 -140 57l-30 -57h-92v579q0 30 -7 41t-30 11h-29v80zM303 389q-23 0 -40.5 -9t-27.5 -25.5t-16.5 -32.5t-9 -36.5
t-3 -30t-0.5 -21.5q0 -23 3.5 -44t13 -44.5t29.5 -38t49 -14.5q93 0 93 153q0 143 -91 143z" />
    <glyph glyph-name="c" unicode="c" horiz-adv-x="510" 
d="M467 464v-170h-112v46q0 14 -1 22.5t-6.5 21.5t-19.5 20t-36 7q-32 0 -54.5 -16t-33.5 -41t-15.5 -47.5t-4.5 -42.5q0 -71 32.5 -115.5t97.5 -44.5q73 0 149 49v-113q-85 -57 -186 -57q-70 0 -119.5 26.5t-73 68.5t-33 79.5t-9.5 73.5q0 138 74.5 207t180.5 69
q88 0 170 -43z" />
    <glyph glyph-name="d" unicode="d" horiz-adv-x="604" 
d="M525 715v-571q0 -37 10 -45.5t51 -4.5v-81l-195 -13q-8 32 -10 67h-2q-45 -81 -143 -81q-48 0 -84.5 18t-57 44.5t-33.5 62t-17 64t-4 57.5q0 121 58.5 198t152.5 77q76 0 126 -53v102q0 37 -5.5 49t-31.5 12h-28v80zM197 250q0 -14 0.5 -25.5t5.5 -36t13.5 -41.5
t27 -30.5t44.5 -13.5q35 0 65.5 33.5t30.5 116.5q0 79 -28 112.5t-67 33.5q-47 0 -69.5 -42.5t-22.5 -106.5z" />
    <glyph glyph-name="e" unicode="e" horiz-adv-x="531" 
d="M496 224h-307q2 -49 33.5 -86.5t95.5 -37.5q71 0 166 57v-118q-101 -56 -207 -56q-57 0 -101 18t-69.5 44.5t-41.5 62.5t-21.5 66.5t-5.5 61.5q0 52 14.5 99t43 86t76.5 62.5t109 23.5q45 0 80.5 -13t57.5 -30.5t37.5 -47t23 -51.5t11.5 -55.5t4.5 -47.5t0.5 -38z
M190 312h169q-1 30 -9 51.5t-17.5 31.5t-22.5 16t-19 6.5t-12 0.5q-37 0 -61.5 -30.5t-27.5 -75.5z" />
    <glyph glyph-name="f" unicode="f" horiz-adv-x="344" 
d="M240 386v-243q0 -43 6.5 -52t41.5 -9h20v-82h-283v82h26q28 0 33.5 10t5.5 53v241h-65v104h65v30q0 90 47 142.5t145 52.5q67 0 136 -26v-122h-82q0 19 -1.5 29t-11 20t-28.5 10t-31.5 -9t-17 -26.5t-5.5 -29.5t-1 -32v-39h95v-104h-95z" />
    <glyph glyph-name="g" unicode="g" horiz-adv-x="543" 
d="M522 490v-90h-76q25 -42 25 -89q0 -88 -76 -135q-43 -26 -126 -30q-21 -1 -31.5 -2t-25 -4.5t-21 -10t-6.5 -17.5q0 -31 75 -31q16 -2 56 -2q103 -2 156 -33t53 -103q0 -36 -13 -65t-32 -47t-48 -31t-52 -19t-54.5 -9.5t-45.5 -4t-33 -0.5q-247 0 -247 119q0 84 117 104
v2q-69 20 -69 76q0 68 98 98v2q-107 39 -107 153q0 78 54.5 132t163.5 54q56 0 100 -17h165zM257 435q-26 0 -43 -14t-23.5 -37t-8 -36.5t-1.5 -26.5q0 -38 17.5 -69t56.5 -31q30 0 53 24t23 83q0 107 -74 107zM267 -43q-129 0 -129 -51q0 -55 128 -55q30 0 56.5 4t50 18
t23.5 37q0 47 -129 47z" />
    <glyph glyph-name="h" unicode="h" horiz-adv-x="604" 
d="M585 82v-82h-258v82q36 0 42.5 8.5t6.5 54.5v133q0 22 -0.5 33t-4 29t-9.5 27t-19 16t-32 7q-86 0 -86 -133v-112q0 -46 6.5 -54.5t42.5 -8.5v-82h-258v82q43 0 52 7.5t9 48.5v418q0 37 -5.5 49t-31.5 12h-28v80l213 18v-290h2q4 10 12 20.5t23.5 25t44.5 24t65 9.5
q112 0 146 -92q12 -32 12 -113v-156q0 -45 7 -53t48 -8z" />
    <glyph glyph-name="i" unicode="i" horiz-adv-x="313" 
d="M234 498v-355q0 -45 7 -53t48 -8v-82h-264v82h25q27 0 32.5 10t5.5 53v179q0 28 -0.5 39t-3.5 21.5t-8.5 12.5t-17.5 2q-13 0 -36 -1v81zM147 715q48 0 69.5 -21.5t21.5 -50.5q0 -38 -27.5 -56.5t-61.5 -18.5q-36 0 -64.5 17t-28.5 57q0 27 20.5 50t70.5 23z" />
    <glyph glyph-name="j" unicode="j" horiz-adv-x="313" 
d="M242 498v-484q0 -49 -7.5 -87t-26.5 -75.5t-59.5 -58t-99.5 -20.5q-65 0 -125 20v126h82q0 -18 1 -28t10.5 -21t27.5 -11q16 0 26 6.5t13.5 23.5t4.5 31t1 45v359q0 52 -5 63.5t-30 11.5h-27v80zM156 715q47 0 68.5 -21.5t21.5 -50.5q0 -38 -27.5 -56.5t-61.5 -18.5
q-35 0 -63.5 17t-28.5 57q0 27 20.5 50t70.5 23z" />
    <glyph glyph-name="k" unicode="k" horiz-adv-x="592" 
d="M229 715v-440l95 87q21 18 21 30q0 11 -8.5 13.5t-30.5 2.5v82h262v-82q-22 0 -34.5 -6t-39.5 -29l-115 -101l121 -142l4 -5q23 -27 40 -35.5t43 -7.5v-82h-289v82q23 0 31 2t8 12q0 6 -10 19l-98 110v-225h-207v82h15q28 0 34.5 8t6.5 37v436q0 30 -6.5 41.5t-30.5 11.5
h-28v80z" />
    <glyph glyph-name="l" unicode="l" horiz-adv-x="313" 
d="M234 715v-572q0 -45 7 -53t49 -8v-82h-262v82h20q28 0 33.5 10t5.5 53v412q0 37 -5.5 49t-31.5 12h-28v80z" />
    <glyph glyph-name="m" unicode="m" horiz-adv-x="917" 
d="M26 474l200 19q4 -20 9 -68q17 23 30.5 37t45 28t71.5 14q108 0 141 -93q23 43 66 68t93 25q43 0 81 -18.5t54 -50.5q22 -40 22 -113v-197q0 -14 0.5 -20t4.5 -12.5t12.5 -8.5t24.5 -2h14v-82h-258v82h19q14 0 21 5.5t8 11t1 16.5v169q0 22 -1.5 35.5t-7 32t-19.5 28
t-36 9.5q-46 0 -67 -36.5t-21 -91.5v-136q0 -26 5 -34.5t27 -8.5h18v-82h-246v82h14q24 0 29 6.5t6 30.5v171q0 16 -0.5 25.5t-4 26t-9.5 25.5t-19 16t-32 7q-55 0 -78 -58q-9 -24 -9 -80v-123q0 -19 1 -26.5t8 -14t22 -6.5h19v-82h-254v82h14q30 0 36.5 8.5t6.5 34.5v230
q0 14 -1.5 21t-8.5 13t-22 6h-30v79z" />
    <glyph glyph-name="n" unicode="n" horiz-adv-x="615" 
d="M282 82v-82h-251v82q40 0 47.5 7.5t7.5 50.5v178q0 64 -9 73q-8 7 -53 4v82l199 16q9 -30 9 -70h2q47 81 146 81q113 0 147 -91q12 -31 12 -110v-160q0 -45 7 -53t48 -8v-82h-259v82q37 0 43.5 8.5t6.5 54.5v131q0 27 -1.5 43t-7.5 34.5t-20 27.5t-37 9q-86 0 -86 -135
v-110q0 -46 6.5 -54.5t42.5 -8.5z" />
    <glyph glyph-name="o" unicode="o" horiz-adv-x="583" 
d="M543 262q0 -54 -14 -101.5t-43 -88t-81 -64t-122 -23.5q-60 0 -105.5 19t-71 46t-41 63.5t-20.5 65.5t-5 57q0 36 6.5 71t24.5 72.5t45.5 65.5t73 46t104.5 18q124 0 186.5 -69.5t62.5 -177.5zM394 254q0 12 -0.5 21.5t-3 30t-9.5 36.5t-17.5 32.5t-29 25.5t-42.5 9
q-34 0 -56.5 -19t-32 -49.5t-12.5 -53t-3 -45.5q0 -11 0.5 -23.5t6.5 -38.5t16 -45t31.5 -34t50.5 -15q101 0 101 168z" />
    <glyph glyph-name="p" unicode="p" horiz-adv-x="604" 
d="M224 40v-122q0 -30 8 -38t38 -8h21v-82h-272v82h14q28 0 36 8t8 42v400q0 42 -2 54.5t-10 16.5q-11 6 -49 3v80l199 14q8 -35 8 -68h2q14 22 26 36t44.5 30t73.5 16q65 0 110 -36.5t64 -90t19 -118.5q0 -33 -6 -68t-21.5 -72.5t-38.5 -66.5t-60.5 -47.5t-84.5 -18.5
q-67 0 -127 54zM217 243v-13q0 -65 25 -102.5t71 -37.5q26 0 45 14t27.5 31.5t13.5 42.5t5.5 37t0.5 25q0 14 -0.5 25.5t-5.5 36t-13.5 41t-27 30t-44.5 13.5q-36 0 -59 -25.5t-30.5 -55t-7.5 -62.5z" />
    <glyph glyph-name="q" unicode="q" horiz-adv-x="594" 
d="M435 504h92v-586q0 -28 7 -37t35 -9h15v-82h-272v82h22q28 0 36.5 8t8.5 37v140h-2q-51 -71 -139 -71q-50 0 -87.5 20.5t-57.5 48.5t-32 65.5t-15 63t-3 48.5q0 121 61.5 196.5t160.5 75.5q76 0 140 -57zM199 246q0 -12 0.5 -23.5t5.5 -36t13.5 -41.5t27.5 -31t45 -14
q8 0 16.5 1.5t23.5 10t26.5 23.5t20.5 45.5t9 71.5q0 80 -28.5 112.5t-65.5 32.5q-42 0 -68 -36.5t-26 -114.5z" />
    <glyph glyph-name="r" unicode="r" horiz-adv-x="417" 
d="M22 478l193 14q9 -41 10 -84h2q6 12 14.5 23.5t24.5 28.5t40 27.5t52 10.5q25 0 61 -14v-152h-91q0 12 -1 18t-6.5 12.5t-16.5 6.5q-10 0 -21.5 -6.5t-25.5 -22.5t-22.5 -51.5t-8.5 -85.5v-84q0 -22 7 -29.5t33 -7.5h26v-82h-266v82h15q27 0 35 8t8 35v231q0 24 -6 32.5
t-25 8.5h-31v81z" />
    <glyph glyph-name="s" unicode="s" horiz-adv-x="479" 
d="M418 473v-131h-112v20q0 12 -1 19.5t-6.5 20t-19 19t-35.5 6.5q-61 0 -61 -46q0 -21 16.5 -34t54.5 -28q105 -42 147.5 -76.5t42.5 -99.5q0 -44 -20.5 -78.5t-52.5 -52.5q-49 -29 -136 -29q-103 0 -190 35v142h114q0 -23 1 -34.5t7 -26.5t21 -21.5t39 -6.5q37 0 52 16.5
t15 37.5q0 23 -19.5 37.5t-74.5 37.5q-84 34 -118.5 71.5t-34.5 85.5q0 22 7 43.5t26 48t61 42.5t103 16q93 0 174 -34z" />
    <glyph glyph-name="t" unicode="t" horiz-adv-x="375" 
d="M135 643h90v-153h118v-104h-118v-202q0 -16 1 -26t5 -24t14.5 -21t27.5 -7q21 0 73 19v-102q-66 -34 -140 -34q-37 0 -64 12t-39.5 26.5t-19.5 39t-8 37.5t-1 33v249h-60v86q106 34 121 171z" />
    <glyph glyph-name="u" unicode="u" horiz-adv-x="604" 
d="M13 479l213 19v-301q0 -18 1.5 -29.5t6.5 -29.5t19.5 -27.5t37.5 -9.5q87 0 87 131v115q0 37 -9 45q-8 6 -54 6v81l210 19v-360q0 -24 4.5 -34t22.5 -10h35v-80l-199 -16q-9 35 -9 70h-2q-48 -82 -148 -82q-16 0 -32 3t-38.5 11t-42.5 27t-31 47q-13 34 -13 92v173
q0 39 -4 47q-3 5 -6 7t-14 3.5t-35 1.5v81z" />
    <glyph glyph-name="v" unicode="v" horiz-adv-x="583" 
d="M577 490v-82q-14 -1 -21 -3t-15.5 -12t-17.5 -31l-4 -6l-163 -367h-122l-160 362q-11 25 -23.5 38t-20.5 15.5t-24 3.5v82h270v-82q-17 -1 -23.5 -1.5t-13.5 -5.5t-7 -14q0 -6 11 -31l70 -176l66 166q0 2 2 4q10 25 10 36q0 22 -41 22v82h227z" />
    <glyph glyph-name="w" unicode="w" horiz-adv-x="844" 
d="M6 490h262v-82q-15 0 -22 -0.5t-14 -6t-7 -15.5q0 -6 4 -20q3 -6 3 -9l56 -167h2l90 300h125l91 -300h2l50 158q0 3 3 9q0 1 2 7t3 11.5t1 9.5q0 11 -6.5 16t-13.5 6t-20 1v82h221v-82q-24 0 -34.5 -10t-21.5 -41l-142 -363h-124l-89 270h-2l-90 -270h-123l-137 350
q-16 40 -30 52t-39 12v82z" />
    <glyph glyph-name="x" unicode="x" horiz-adv-x="594" 
d="M31 490h258v-82q-19 -3 -19 -12q0 -3 4 -11q1 -1 3.5 -5t3.5 -6l33 -54l38 47q0 1 5 6q14 17 14 24q0 11 -19 11v82h217v-82q-20 -2 -31 -6.5t-27 -21.5l-13 -13l-103 -108l103 -132q16 -21 30.5 -31t22.5 -11.5t24 -2.5v-82h-258v82q16 3 16 12t-9 20l-40 59l-47 -59
q-10 -12 -10 -19q0 -13 15 -13v-82h-223v82q23 0 34 8q19 11 38 33l113 120l-94 116q-17 21 -32 32t-23.5 13.5t-23.5 3.5v82z" />
    <glyph glyph-name="y" unicode="y" horiz-adv-x="583" 
d="M5 490h270v-82q-44 0 -44 -20q0 -3 7 -24l3 -6l2 -5l69 -170l66 162q0 1 4 10q8 18 8 32q0 21 -41 21v82h227v-82q-22 0 -32.5 -9t-24.5 -41l-201 -453q-32 -72 -73.5 -102t-102.5 -30q-46 0 -110 24v133h86q0 -16 1 -24.5t8.5 -17.5t21.5 -9q21 0 39.5 27t40.5 94
l-156 348l-2 4q-1 4 -2 5q-17 34 -28.5 42.5t-35.5 8.5v82z" />
    <glyph glyph-name="z" unicode="z" horiz-adv-x="531" 
d="M42 328v162h448v-99l-277 -290h125q34 0 41 9t6 39v19h114v-168h-468v105l277 286h-115q-25 0 -34 -6.5t-9 -30.5v-26h-108z" />
    <glyph glyph-name="braceleft" unicode="{" horiz-adv-x="385" 
d="M29 186v113q66 3 86.5 40t20.5 127q0 39 0.5 57.5t4 48t11 43.5t22 32.5t36 26.5t53.5 14t74 6h26v-112q-63 0 -81.5 -11.5t-18.5 -57.5q0 -98 -10 -150t-27 -75t-54 -46q55 -31 73 -84t18 -187q0 -45 20.5 -56.5t79.5 -11.5v-113h-26q-55 0 -93 10t-59 25t-32 44.5
t-14 57t-3 73.5q0 42 -1 62.5t-6 48.5t-16.5 40.5t-32 22.5t-51.5 12z" />
    <glyph glyph-name="bar" unicode="|" horiz-adv-x="615" 
d="M246 694h122v-831h-122v831z" />
    <glyph glyph-name="braceright" unicode="}" horiz-adv-x="385" 
d="M356 298v-113q-66 -3 -86.5 -40t-20.5 -127q0 -39 -0.5 -57.5t-4 -48t-11 -43.5t-22 -32.5t-36 -26.5t-53.5 -14t-74 -6h-26v112q63 0 81.5 11.5t18.5 57.5q0 98 10 150t27 75t54 46q-55 31 -73 84t-18 187q0 45 -20.5 56.5t-79.5 11.5v113h26q55 0 93 -10t59 -25
t32 -44.5t14 -57t3 -73.5q0 -42 1 -62.5t6 -48.5t16.5 -40.5t32 -22.5t51.5 -12z" />
    <glyph glyph-name="asciitilde" unicode="~" horiz-adv-x="656" 
d="M54 257v125q81 69 160 69q47 0 132 -41q75 -36 111 -36q61 0 145 73v-124q-82 -70 -156 -70q-28 0 -56.5 9t-86.5 37q-65 32 -99 32q-72 0 -150 -74z" />
    <glyph glyph-name="uni00A0" unicode="&#xa0;" horiz-adv-x="281" 
 />
    <glyph glyph-name="exclamdown" unicode="&#xa1;" horiz-adv-x="313" 
d="M156 343q-33 0 -57 24t-24 58t24 58t57 24q34 0 58 -24t24 -58q0 -35 -24 -58.5t-58 -23.5zM230 -225h-149v79l14 426h120l15 -426v-79z" />
    <glyph glyph-name="cent" unicode="&#xa2;" horiz-adv-x="510" 
d="M226 590v132h93v-124q75 -4 148 -42v-170h-112v47q0 13 -1 21.5t-6.5 21.5t-19.5 20t-36 7q-32 0 -54.5 -16t-33.5 -41t-15.5 -47t-4.5 -42q0 -71 32.5 -116t97.5 -45q71 0 149 50v-114q-72 -45 -144 -53v-122h-93v124q-86 11 -135 81t-49 162q0 100 46 172t138 94z" />
    <glyph glyph-name="sterling" unicode="&#xa3;" horiz-adv-x="542" 
d="M490 639v-159h-107v16q0 16 -0.5 25t-4.5 24t-11 23t-22 14.5t-36 6.5q-40 0 -60 -23t-20 -54q0 -36 32 -127h180v-102h-160q2 -108 -62 -163l2 -2q38 9 51 9q27 0 67 -11q56 -16 81 -16q40 0 93 25v-109q-59 -31 -114 -31q-35 0 -93 18q-68 20 -100 20q-61 0 -179 -38
v107q15 8 24 12.5t29.5 20t32.5 31t22.5 41.5t10.5 55q0 10 -3 31h-87v102h62q-26 69 -26 123q0 73 61 123.5t158 50.5q99 0 179 -43z" />
    <glyph glyph-name="currency" unicode="&#xa4;" horiz-adv-x="698" 
d="M468 530l66 67l78 -80l-65 -66q33 -57 33 -120t-33 -117l65 -65l-78 -79l-66 65q-56 -34 -121 -34q-60 0 -117 33l-64 -64l-81 79l66 65q-33 55 -33 117q0 57 33 120l-66 66l79 80l66 -67q59 33 120 33q57 0 118 -33zM469 332q0 50 -35.5 85t-84.5 35t-84.5 -35
t-35.5 -85q0 -49 35 -84t85 -35t85 35t35 84z" />
    <glyph glyph-name="yen" unicode="&#xa5;" horiz-adv-x="667" 
d="M525 443h106v-87h-164l-61 -92v-9h225v-88h-225v-41q0 -25 8.5 -33t38.5 -8h22v-85h-285v85h25q29 0 36.5 8t7.5 33v41h-223v88h223v9l-60 92h-163v87h106l-59 91q0 2 -3 5q-12 20 -24.5 29.5t-21 11t-25.5 1.5v85h284v-85h-24q-24 0 -24 -17q0 -8 14 -30l91 -145l88 139
q16 21 16 36q0 17 -33 17h-18v85h255v-85q-19 0 -27.5 -2t-20 -12.5t-27.5 -35.5z" />
    <glyph glyph-name="brokenbar" unicode="&#xa6;" horiz-adv-x="615" 
d="M246 221h122v-358h-122v358zM246 694h122v-358h-122v358z" />
    <glyph glyph-name="section" unicode="&#xa7;" horiz-adv-x="531" 
d="M440 685v-140h-104v14q0 12 -0.5 19.5t-3.5 20.5t-8.5 20.5t-17.5 13.5t-29 6q-28 0 -43 -15.5t-15 -36.5q0 -28 21.5 -53.5t85.5 -75.5q90 -70 129.5 -120.5t39.5 -111.5q0 -116 -134 -173q47 -47 63 -77t16 -67q0 -58 -46 -100t-139 -42q-85 0 -166 32v140h105v-27
q0 -14 1 -22t6 -21t17.5 -19.5t32.5 -6.5q31 0 45.5 16t14.5 38q0 40 -71 97q-118 95 -161 148t-43 116q0 13 3 27t13.5 42.5t42 55.5t78.5 45q-82 72 -82 142q0 19 6.5 39.5t23.5 46.5t57 42.5t98 16.5q79 0 164 -30zM243 364l-12 10q-69 -37 -69 -96q0 -37 29.5 -71.5
t97.5 -90.5l11 -9q68 40 68 96q0 35 -26 67t-99 94z" />
    <glyph glyph-name="dieresis" unicode="&#xa8;" 
d="M277 687q26 0 44 -18t18 -45q0 -26 -18 -44t-44 -18t-44.5 18t-18.5 44q0 27 18.5 45t44.5 18zM57 687q26 0 44 -18t18 -45q0 -26 -18 -44t-44 -18t-44.5 18t-18.5 44q0 27 18.5 45t44.5 18z" />
    <glyph glyph-name="copyright" unicode="&#xa9;" horiz-adv-x="802" 
d="M775 356q0 -155 -110 -264.5t-264 -109.5q-155 0 -264.5 110t-109.5 264q0 155 109.5 264.5t264.5 109.5q154 0 264 -109t110 -265zM701 356q0 126 -88 213.5t-212 87.5t-212 -88t-88 -213q0 -124 88 -212t212 -88t212 87.5t88 212.5zM490 305l89 -25q-41 -134 -176 -134
q-86 0 -140 57t-54 151q0 93 53.5 151.5t142.5 58.5q64 0 110.5 -33t61.5 -94l-87 -16q-19 73 -87 73q-32 0 -53.5 -15.5t-29.5 -40.5t-11 -43t-3 -37q0 -141 93 -141q67 0 91 88z" />
    <glyph glyph-name="ordfeminine" unicode="&#xaa;" horiz-adv-x="365" 
d="M48 604v74q62 37 138 37q75 0 103 -29t28 -77v-105q0 -20 2 -26t12 -6q7 0 28 9v-59q-45 -19 -83 -19q-40 0 -55 30q-44 -30 -92 -30q-24 0 -45.5 5t-41.5 25.5t-20 54.5q0 43 34.5 68.5t116.5 41.5l40 8q0 14 -1.5 23t-11 19t-28.5 10t-28.5 -9t-11 -18t-1.5 -27h-83z
M213 526v28q-8 -4 -15 -4q-40 -10 -56.5 -21.5t-16.5 -32.5q0 -14 9 -24.5t27 -10.5q52 0 52 65z" />
    <glyph glyph-name="guillemotleft" unicode="&#xab;" horiz-adv-x="563" 
d="M289 47h-129l-134 198l134 198h131l-123 -198zM532 47h-129l-134 198l134 198h131l-123 -198z" />
    <glyph glyph-name="logicalnot" unicode="&#xac;" horiz-adv-x="667" 
d="M59 511h549v-355h-121v234h-428v121z" />
    <glyph glyph-name="uni00AD" unicode="&#xad;" horiz-adv-x="365" 
d="M32 312h301v-135h-301v135z" />
    <glyph glyph-name="registered" unicode="&#xae;" horiz-adv-x="802" 
d="M775 356q0 -156 -110 -265t-264 -109q-155 0 -264.5 110t-109.5 264q0 155 109.5 264.5t264.5 109.5q154 0 264 -109t110 -265zM703 356q0 125 -88.5 213t-212.5 88q-125 0 -213 -88t-88 -213q0 -124 88 -212t213 -88q124 0 212.5 87.5t88.5 212.5zM232 156v398h129
q27 0 42 -0.5t42 -3.5t42.5 -10t33 -19t25.5 -32t8 -47q0 -88 -107 -111v-2q15 -5 23.5 -10.5t23.5 -24.5t34 -54q4 -8 26 -44l23 -40h-108l-17 32q-45 87 -67.5 109t-62.5 19v-160h-90zM322 488v-104h38q21 0 35.5 1.5t31 6t25 16t8.5 28.5q0 18 -9 29.5t-27 16t-30.5 5.5
t-32.5 1h-39z" />
    <glyph glyph-name="macron" unicode="&#xaf;" 
d="M-11 666h355v-86h-355v86z" />
    <glyph glyph-name="degree" unicode="&#xb0;" horiz-adv-x="396" 
d="M198 590q-31 0 -53 -22t-22 -53t22 -53t53 -22t53 22t22 53t-22 53t-53 22zM198 682q69 0 118 -49t49 -118t-49 -118t-118 -49t-118 49t-49 118t49 118t118 49z" />
    <glyph glyph-name="plusminus" unicode="&#xb1;" horiz-adv-x="667" 
d="M59 484h214v214h121v-214h214v-121h-214v-214h-121v214h-214v121zM59 89h549v-121h-549v121z" />
    <glyph glyph-name="twosuperior" unicode="&#xb2;" 
d="M116 591h-78v81q61 43 130 43q59 0 93 -25.5t34 -66.5q0 -45 -33 -88q-34 -44 -121 -108h69q15 0 18 3t3 15v21h76v-105h-281v62q95 71 134 114.5t39 81.5q0 39 -42 39q-41 0 -41 -45v-22z" />
    <glyph glyph-name="threesuperior" unicode="&#xb3;" 
d="M117 602h-75v80q57 33 124 33q61 0 93.5 -24.5t32.5 -65.5q0 -51 -57 -77q63 -24 63 -84q0 -48 -37 -79t-105 -31q-69 0 -124 27v89h78v-25q0 -35 38 -35q55 0 55 50q0 27 -16.5 39.5t-61.5 13.5v60q75 1 75 46q0 42 -42 42q-41 0 -41 -42v-17z" />
    <glyph glyph-name="acute" unicode="&#xb4;" 
d="M153 690h153l-112 -129h-101z" />
    <glyph glyph-name="uni00B5" unicode="&#xb5;" horiz-adv-x="602" 
d="M217 3v-194h-147v681h147v-293q0 -96 72 -96q38 0 62.5 30.5t24.5 91.5v267h147v-346q0 -50 36 -50q20 0 36 9v-91q-44 -27 -99 -27q-43 0 -68 18.5t-38 59.5h-2q-33 -78 -111 -78q-34 0 -60 18z" />
    <glyph glyph-name="paragraph" unicode="&#xb6;" horiz-adv-x="604" 
d="M337 -198h-119v511q-60 5 -101.5 28t-59.5 56.5t-24.5 60t-6.5 52.5q0 50 19.5 97t59.5 71q29 18 58 26t51.5 9.5t72.5 1.5h291v-120h-55v-793h-116v793h-70v-793z" />
    <glyph glyph-name="periodcentered" unicode="&#xb7;" horiz-adv-x="313" 
d="M157 416q34 0 58 -24.5t24 -58.5t-24 -58t-58 -24t-58.5 24t-24.5 58q0 35 24 59t59 24z" />
    <glyph glyph-name="cedilla" unicode="&#xb8;" 
d="M141 9h76l-14 -53q40 -4 60 -25.5t20 -52.5q0 -48 -36.5 -73.5t-97.5 -25.5q-48 0 -101 16v66q53 -15 95 -15q52 0 52 30q0 31 -51 31q-11 0 -31 -2z" />
    <glyph glyph-name="onesuperior" unicode="&#xb9;" 
d="M164 715h58v-288q0 -13 3 -15.5t19 -2.5h29v-48h-198v48h35q13 0 16 3t3 17v164q0 9 -0.5 12.5t-3.5 6t-9 2.5h-8l-40 -4v48q68 8 96 57z" />
    <glyph glyph-name="ordmasculine" unicode="&#xba;" horiz-adv-x="385" 
d="M359 565q0 -69 -42 -117t-130 -48q-46 0 -79.5 14.5t-50 38.5t-24 48.5t-7.5 50.5q0 65 40 114t128 49q76 0 120.5 -39t44.5 -111zM252 561q0 89 -59 89q-61 0 -61 -95q0 -8 1.5 -18.5t6.5 -28.5t18.5 -30t34.5 -12q59 0 59 95z" />
    <glyph glyph-name="guillemotright" unicode="&#xbb;" horiz-adv-x="563" 
d="M274 443h129l134 -198l-134 -198h-131l123 198zM31 443h129l134 -198l-134 -198h-131l123 198z" />
    <glyph glyph-name="onequarter" unicode="&#xbc;" horiz-adv-x="865" 
d="M174 715h58v-288q0 -13 3 -15.5t19 -2.5h29v-48h-198v48h35q13 0 16 3t3 17v164q0 9 -0.5 12.5t-3.5 6t-9 2.5h-8l-40 -4v48q68 8 96 57zM587 715h111l-421 -736h-111zM518 157l169 197h83v-206h46v-62h-46v-21q0 -12 3 -15t18 -3h22v-47h-184v47h33q13 0 16.5 3t3.5 15
v21h-164v71zM684 249l-87 -101h87v101z" />
    <glyph glyph-name="onehalf" unicode="&#xbd;" horiz-adv-x="865" 
d="M174 715h58v-288q0 -13 3 -15.5t19 -2.5h29v-48h-198v48h35q13 0 16 3t3 17v164q0 9 -0.5 12.5t-3.5 6t-9 2.5h-8l-40 -4v48q68 8 96 57zM587 715h111l-421 -736h-111zM637 230h-78v81q61 43 130 43q59 0 93 -26t34 -67q0 -45 -33 -88q-34 -44 -121 -108h69q15 0 18 3
t3 16v20h76v-104h-281v62q95 71 134 114.5t39 80.5q0 40 -42 40q-41 0 -41 -45v-22z" />
    <glyph glyph-name="threequarters" unicode="&#xbe;" horiz-adv-x="865" 
d="M587 715h111l-421 -736h-111zM518 157l169 197h83v-206h46v-62h-46v-21q0 -12 3 -15t18 -3h22v-47h-184v47h33q13 0 16.5 3t3.5 15v21h-164v71zM684 249l-87 -101h87v101zM137 602h-75v80q57 33 124 33q61 0 93.5 -24.5t32.5 -65.5q0 -51 -57 -77q63 -24 63 -84
q0 -48 -37 -79t-105 -31t-124 27v89h78v-25q0 -35 38 -35q55 0 55 50q0 27 -16.5 39.5t-61.5 13.5v60q75 1 75 46q0 42 -42 42q-41 0 -41 -42v-17z" />
    <glyph glyph-name="questiondown" unicode="&#xbf;" horiz-adv-x="479" 
d="M266 104l-43 -54q-43 -53 -43 -105q0 -28 20 -51.5t59 -23.5q77 0 77 96v26h111v-151q-87 -66 -208 -66q-59 0 -102 16.5t-64 44t-30 53.5t-9 53q0 33 13.5 65t27.5 50.5t40 46.5q45 49 67.5 86t27.5 92h121q-5 -103 -65 -178zM265 342q-34 0 -58 24.5t-24 58.5t24 58
t58 24t58 -24t24 -58t-24 -58.5t-58 -24.5z" />
    <glyph glyph-name="Agrave" unicode="&#xc0;" horiz-adv-x="708" 
d="M278 702h156l187 -545q16 -45 27.5 -56.5t35.5 -11.5h16v-89h-288v89h29q11 0 17 0.5t11.5 5.5t5.5 15q0 4 -9 35l-18 55h-215l-20 -56q-7 -28 -7 -31q0 -24 38 -24h23v-89h-259v89q35 0 48.5 9.5t26.5 47.5zM340 546l-83 -243h168l-83 243h-2zM224 880h153l60 -129h-101
z" />
    <glyph glyph-name="Aacute" unicode="&#xc1;" horiz-adv-x="708" 
d="M278 702h156l187 -545q16 -45 27.5 -56.5t35.5 -11.5h16v-89h-288v89h29q11 0 17 0.5t11.5 5.5t5.5 15q0 4 -9 35l-18 55h-215l-20 -56q-7 -28 -7 -31q0 -24 38 -24h23v-89h-259v89q35 0 48.5 9.5t26.5 47.5zM340 546l-83 -243h168l-83 243h-2zM341 880h153l-112 -129
h-101z" />
    <glyph glyph-name="Acircumflex" unicode="&#xc2;" horiz-adv-x="708" 
d="M278 702h156l187 -545q16 -45 27.5 -56.5t35.5 -11.5h16v-89h-288v89h29q11 0 17 0.5t11.5 5.5t5.5 15q0 4 -9 35l-18 55h-215l-20 -56q-7 -28 -7 -31q0 -24 38 -24h23v-89h-259v89q35 0 48.5 9.5t26.5 47.5zM340 546l-83 -243h168l-83 243h-2zM301 751h-114l94 130h146
l95 -130h-116l-53 70z" />
    <glyph glyph-name="Atilde" unicode="&#xc3;" horiz-adv-x="708" 
d="M278 702h156l187 -545q16 -45 27.5 -56.5t35.5 -11.5h16v-89h-288v89h29q11 0 17 0.5t11.5 5.5t5.5 15q0 4 -9 35l-18 55h-215l-20 -56q-7 -28 -7 -31q0 -24 38 -24h23v-89h-259v89q35 0 48.5 9.5t26.5 47.5zM340 546l-83 -243h168l-83 243h-2zM454 875h80
q0 -61 -31 -92.5t-71 -31.5t-82 20q-49 20 -64 20q-28 0 -31 -40h-80q1 61 28 92.5t72 31.5q36 0 117 -32q17 -7 31 -7q27 0 31 39z" />
    <glyph glyph-name="Adieresis" unicode="&#xc4;" horiz-adv-x="708" 
d="M278 702h156l187 -545q16 -45 27.5 -56.5t35.5 -11.5h16v-89h-288v89h29q11 0 17 0.5t11.5 5.5t5.5 15q0 4 -9 35l-18 55h-215l-20 -56q-7 -28 -7 -31q0 -24 38 -24h23v-89h-259v89q35 0 48.5 9.5t26.5 47.5zM340 546l-83 -243h168l-83 243h-2zM465 877q26 0 44 -18
t18 -45q0 -26 -18 -44t-44 -18t-44.5 18t-18.5 44q0 27 18.5 45t44.5 18zM245 877q26 0 44 -18t18 -45q0 -26 -18 -44t-44 -18t-44.5 18t-18.5 44q0 27 18.5 45t44.5 18z" />
    <glyph glyph-name="Aring" unicode="&#xc5;" horiz-adv-x="708" 
d="M278 702h156l187 -545q16 -45 27.5 -56.5t35.5 -11.5h16v-89h-288v89h29q11 0 17 0.5t11.5 5.5t5.5 15q0 4 -9 35l-18 55h-215l-20 -56q-7 -28 -7 -31q0 -24 38 -24h23v-89h-259v89q35 0 48.5 9.5t26.5 47.5zM340 546l-83 -243h168l-83 243h-2zM355 953q41 0 70.5 -29.5
t29.5 -71.5t-29.5 -71.5t-70.5 -29.5t-71 29.5t-30 71.5t29.5 71.5t71.5 29.5zM354 901q-20 0 -34 -14.5t-14 -34.5t14 -34.5t34 -14.5t34.5 14.5t14.5 34.5t-14.5 34.5t-34.5 14.5z" />
    <glyph glyph-name="AE" unicode="&#xc6;" horiz-adv-x="979" 
d="M612 410h108q17 0 21.5 3t4.5 19v31h108v-220h-108v30q0 17 -4 22.5t-22 5.5h-108v-194h164q29 0 37.5 9.5t8.5 32.5v42h113v-191h-539v89h28q28 0 34.5 10t6.5 39v68h-208l-39 -68q-12 -21 -12 -32q0 -17 34 -17h17v-89h-257v89q30 0 44.5 7t31.5 37l225 403
q18 30 18 46q0 8 -4 13t-14 7t-17.5 2.5t-23.5 0.5v89h663v-182h-113v29q0 25 -7.5 34.5t-36.5 9.5h-154v-175zM463 599l-162 -289h164v289h-2z" />
    <glyph glyph-name="Ccedilla" unicode="&#xc7;" horiz-adv-x="688" 
d="M391 -21l-6 -21q83 -10 83 -80q0 -51 -39.5 -74.5t-86.5 -23.5q-58 0 -110 18v67q61 -19 94 -19q53 0 53 30q0 17 -14.5 25t-31.5 8q-12 0 -33 -3l21 79q-75 10 -130.5 47t-86 89.5t-44.5 108t-14 113.5q0 52 10 101t36 99t65.5 87.5t103 61t143.5 23.5q124 0 234 -55
v-201h-129v34q0 55 -12 78q-10 19 -39.5 31.5t-63.5 12.5q-67 0 -112 -38.5t-62 -93t-17 -121.5q0 -100 36 -160q18 -29 42 -49.5t49.5 -29.5t44.5 -12.5t37 -3.5q118 0 223 76v-129q-109 -75 -244 -75z" />
    <glyph glyph-name="Egrave" unicode="&#xc8;" horiz-adv-x="625" 
d="M42 694h531v-182h-114v35q0 25 -10.5 32t-38.5 7h-149v-175h114q13 0 16.5 3.5t3.5 18.5v31h109v-220h-109v36q0 22 -20 22h-114v-195h162q32 0 40 9t8 35v41h114v-192h-543v89h25q28 0 34.5 9t6.5 37v426q0 17 -1.5 24.5t-11 13.5t-28.5 6h-25v89zM192 880h153l60 -129
h-101z" />
    <glyph glyph-name="Eacute" unicode="&#xc9;" horiz-adv-x="625" 
d="M42 694h531v-182h-114v35q0 25 -10.5 32t-38.5 7h-149v-175h114q13 0 16.5 3.5t3.5 18.5v31h109v-220h-109v36q0 22 -20 22h-114v-195h162q32 0 40 9t8 35v41h114v-192h-543v89h25q28 0 34.5 9t6.5 37v426q0 17 -1.5 24.5t-11 13.5t-28.5 6h-25v89zM299 880h153
l-112 -129h-101z" />
    <glyph glyph-name="Ecircumflex" unicode="&#xca;" horiz-adv-x="625" 
d="M42 694h531v-182h-114v35q0 25 -10.5 32t-38.5 7h-149v-175h114q13 0 16.5 3.5t3.5 18.5v31h109v-220h-109v36q0 22 -20 22h-114v-195h162q32 0 40 9t8 35v41h114v-192h-543v89h25q28 0 34.5 9t6.5 37v426q0 17 -1.5 24.5t-11 13.5t-28.5 6h-25v89zM259 751h-114l94 130
h146l95 -130h-116l-53 70z" />
    <glyph glyph-name="Edieresis" unicode="&#xcb;" horiz-adv-x="625" 
d="M42 694h531v-182h-114v35q0 25 -10.5 32t-38.5 7h-149v-175h114q13 0 16.5 3.5t3.5 18.5v31h109v-220h-109v36q0 22 -20 22h-114v-195h162q32 0 40 9t8 35v41h114v-192h-543v89h25q28 0 34.5 9t6.5 37v426q0 17 -1.5 24.5t-11 13.5t-28.5 6h-25v89zM423 877q26 0 44 -18
t18 -45q0 -26 -18 -44t-44 -18t-44.5 18t-18.5 44q0 27 18.5 45t44.5 18zM203 877q26 0 44 -18t18 -45q0 -26 -18 -44t-44 -18t-44.5 18t-18.5 44q0 27 18.5 45t44.5 18z" />
    <glyph glyph-name="Igrave" unicode="&#xcc;" horiz-adv-x="375" 
d="M43 694h289v-89h-22q-17 0 -26 -2.5t-13.5 -10.5t-5 -15t-0.5 -25v-415q0 -30 7 -39t38 -9h22v-89h-289v89h22q32 0 39 9t7 39v422q0 28 -8 37t-38 9h-22v89zM67 880h153l60 -129h-101z" />
    <glyph glyph-name="Iacute" unicode="&#xcd;" horiz-adv-x="375" 
d="M43 694h289v-89h-22q-17 0 -26 -2.5t-13.5 -10.5t-5 -15t-0.5 -25v-415q0 -30 7 -39t38 -9h22v-89h-289v89h22q32 0 39 9t7 39v422q0 28 -8 37t-38 9h-22v89zM154 880h153l-112 -129h-101z" />
    <glyph glyph-name="Icircumflex" unicode="&#xce;" horiz-adv-x="375" 
d="M43 694h289v-89h-22q-17 0 -26 -2.5t-13.5 -10.5t-5 -15t-0.5 -25v-415q0 -30 7 -39t38 -9h22v-89h-289v89h22q32 0 39 9t7 39v422q0 28 -8 37t-38 9h-22v89zM134 751h-114l94 130h146l95 -130h-116l-53 70z" />
    <glyph glyph-name="Idieresis" unicode="&#xcf;" horiz-adv-x="375" 
d="M43 694h289v-89h-22q-17 0 -26 -2.5t-13.5 -10.5t-5 -15t-0.5 -25v-415q0 -30 7 -39t38 -9h22v-89h-289v89h22q32 0 39 9t7 39v422q0 28 -8 37t-38 9h-22v89zM298 877q26 0 44 -18t18 -45q0 -26 -18 -44t-44 -18t-44.5 18t-18.5 44q0 27 18.5 45t44.5 18zM78 877
q26 0 44 -18t18 -45q0 -26 -18 -44t-44 -18t-44.5 18t-18.5 44q0 27 18.5 45t44.5 18z" />
    <glyph glyph-name="Eth" unicode="&#xd0;" horiz-adv-x="750" 
d="M108 292h-72v107h72v158q0 29 -7.5 38.5t-36.5 9.5h-23v89h319q147 0 228 -62q119 -95 119 -281q0 -152 -82.5 -251.5t-240.5 -99.5h-343v89h19q32 0 40 8.5t8 37.5v157zM400 292h-142v-185h86q199 0 199 237q0 76 -18.5 127t-52 74t-65 31t-72.5 8h-77v-185h142v-107z
" />
    <glyph glyph-name="Ntilde" unicode="&#xd1;" horiz-adv-x="750" 
d="M42 694h254l228 -452h2v315q0 28 -8 38t-40 10h-17v89h257v-89h-25q-30 0 -36.5 -9.5t-6.5 -38.5v-557h-153l-261 503h-2v-368q0 -14 1 -20.5t5 -13.5t13.5 -9.5t26.5 -2.5h21v-89h-259v89h22q22 0 32 5.5t11.5 13.5t1.5 27v424q0 14 -1 20t-5 13.5t-13.5 10t-25.5 2.5
h-22v89zM475 875h80q0 -61 -31 -92.5t-71 -31.5q-39 0 -82 20q-49 20 -64 20q-28 0 -31 -40h-80q1 61 28 92.5t72 31.5q36 0 117 -32q18 -7 31 -7q27 0 31 39z" />
    <glyph glyph-name="Ograve" unicode="&#xd2;" horiz-adv-x="781" 
d="M46 340q0 171 93.5 273t257.5 102q165 0 252 -98t87 -258q0 -166 -90.5 -273t-256.5 -107q-165 0 -254 101.5t-89 259.5zM206 343q0 -50 8.5 -92.5t28.5 -80.5t57.5 -59.5t90.5 -21.5q54 0 91.5 23.5t56.5 65t27 85t8 94.5q0 19 -1 34.5t-5.5 49t-16.5 58.5t-30.5 51
t-51.5 40.5t-76 14.5q-93 0 -140 -71t-47 -191zM270 880h153l60 -129h-101z" />
    <glyph glyph-name="Oacute" unicode="&#xd3;" horiz-adv-x="781" 
d="M46 340q0 171 93.5 273t257.5 102q165 0 252 -98t87 -258q0 -166 -90.5 -273t-256.5 -107q-165 0 -254 101.5t-89 259.5zM206 343q0 -50 8.5 -92.5t28.5 -80.5t57.5 -59.5t90.5 -21.5q54 0 91.5 23.5t56.5 65t27 85t8 94.5q0 19 -1 34.5t-5.5 49t-16.5 58.5t-30.5 51
t-51.5 40.5t-76 14.5q-93 0 -140 -71t-47 -191zM377 880h153l-112 -129h-101z" />
    <glyph glyph-name="Ocircumflex" unicode="&#xd4;" horiz-adv-x="781" 
d="M46 340q0 171 93.5 273t257.5 102q165 0 252 -98t87 -258q0 -166 -90.5 -273t-256.5 -107q-165 0 -254 101.5t-89 259.5zM206 343q0 -50 8.5 -92.5t28.5 -80.5t57.5 -59.5t90.5 -21.5q54 0 91.5 23.5t56.5 65t27 85t8 94.5q0 19 -1 34.5t-5.5 49t-16.5 58.5t-30.5 51
t-51.5 40.5t-76 14.5q-93 0 -140 -71t-47 -191zM337 751h-114l94 130h146l95 -130h-116l-53 70z" />
    <glyph glyph-name="Otilde" unicode="&#xd5;" horiz-adv-x="781" 
d="M46 340q0 171 93.5 273t257.5 102q165 0 252 -98t87 -258q0 -166 -90.5 -273t-256.5 -107q-165 0 -254 101.5t-89 259.5zM206 343q0 -50 8.5 -92.5t28.5 -80.5t57.5 -59.5t90.5 -21.5q54 0 91.5 23.5t56.5 65t27 85t8 94.5q0 19 -1 34.5t-5.5 49t-16.5 58.5t-30.5 51
t-51.5 40.5t-76 14.5q-93 0 -140 -71t-47 -191zM490 875h80q0 -61 -31 -92.5t-71 -31.5t-82 20q-49 20 -64 20q-28 0 -31 -40h-80q1 61 28 92.5t72 31.5q36 0 117 -32q18 -7 31 -7q27 0 31 39z" />
    <glyph glyph-name="Odieresis" unicode="&#xd6;" horiz-adv-x="781" 
d="M46 340q0 171 93.5 273t257.5 102q165 0 252 -98t87 -258q0 -166 -90.5 -273t-256.5 -107q-165 0 -254 101.5t-89 259.5zM206 343q0 -50 8.5 -92.5t28.5 -80.5t57.5 -59.5t90.5 -21.5q54 0 91.5 23.5t56.5 65t27 85t8 94.5q0 19 -1 34.5t-5.5 49t-16.5 58.5t-30.5 51
t-51.5 40.5t-76 14.5q-93 0 -140 -71t-47 -191zM501 877q26 0 44 -18t18 -45q0 -26 -18 -44t-44 -18t-44.5 18t-18.5 44q0 27 18.5 45t44.5 18zM281 877q26 0 44 -18t18 -45q0 -26 -18 -44t-44 -18t-44.5 18t-18.5 44q0 27 18.5 45t44.5 18z" />
    <glyph glyph-name="multiply" unicode="&#xd7;" horiz-adv-x="667" 
d="M72 508l85 85l176 -176l177 176l85 -85l-176 -177l175 -174l-85 -85l-175 174l-175 -174l-85 85l174 174z" />
    <glyph glyph-name="Oslash" unicode="&#xd8;" horiz-adv-x="781" 
d="M180 41l-77 -85l-76 71l81 88q-62 87 -62 229q0 163 92 267t258 104q125 0 209 -59l73 80l77 -71l-78 -85q59 -88 59 -222q0 -165 -90.5 -272t-256.5 -107q-126 0 -209 62zM564 458l-296 -322q46 -47 124 -47q44 0 77.5 17t53 43.5t31.5 63.5t16 70.5t4 71.5
q0 60 -10 103zM218 235l296 322q-47 48 -122 48q-91 0 -138.5 -70t-47.5 -192q0 -66 12 -108z" />
    <glyph glyph-name="Ugrave" unicode="&#xd9;" horiz-adv-x="750" 
d="M30 694h290v-89h-25q-30 0 -36.5 -10t-6.5 -42v-300q0 -23 1.5 -40t9 -40.5t21 -38.5t39.5 -26t63 -11q38 0 65 12.5t40 27.5t20 40.5t8 38.5t1 34v303q0 22 -1.5 30.5t-11 15t-30.5 6.5h-24v89h267v-89h-24q-29 0 -35.5 -9t-6.5 -38v-305q0 -40 -5 -74t-21.5 -72.5
t-45 -65t-79.5 -44.5t-120 -18q-146 0 -216 66t-70 200v313q0 18 -1.5 26t-11.5 14.5t-30 6.5h-24v89zM215 880h153l60 -129h-101z" />
    <glyph glyph-name="Uacute" unicode="&#xda;" horiz-adv-x="750" 
d="M30 694h290v-89h-25q-30 0 -36.5 -10t-6.5 -42v-300q0 -23 1.5 -40t9 -40.5t21 -38.5t39.5 -26t63 -11q38 0 65 12.5t40 27.5t20 40.5t8 38.5t1 34v303q0 22 -1.5 30.5t-11 15t-30.5 6.5h-24v89h267v-89h-24q-29 0 -35.5 -9t-6.5 -38v-305q0 -40 -5 -74t-21.5 -72.5
t-45 -65t-79.5 -44.5t-120 -18q-146 0 -216 66t-70 200v313q0 18 -1.5 26t-11.5 14.5t-30 6.5h-24v89zM362 880h153l-112 -129h-101z" />
    <glyph glyph-name="Ucircumflex" unicode="&#xdb;" horiz-adv-x="750" 
d="M30 694h290v-89h-25q-30 0 -36.5 -10t-6.5 -42v-300q0 -23 1.5 -40t9 -40.5t21 -38.5t39.5 -26t63 -11q38 0 65 12.5t40 27.5t20 40.5t8 38.5t1 34v303q0 22 -1.5 30.5t-11 15t-30.5 6.5h-24v89h267v-89h-24q-29 0 -35.5 -9t-6.5 -38v-305q0 -40 -5 -74t-21.5 -72.5
t-45 -65t-79.5 -44.5t-120 -18q-146 0 -216 66t-70 200v313q0 18 -1.5 26t-11.5 14.5t-30 6.5h-24v89zM322 751h-114l94 130h146l95 -130h-116l-53 70z" />
    <glyph glyph-name="Udieresis" unicode="&#xdc;" horiz-adv-x="750" 
d="M30 694h290v-89h-25q-30 0 -36.5 -10t-6.5 -42v-300q0 -23 1.5 -40t9 -40.5t21 -38.5t39.5 -26t63 -11q38 0 65 12.5t40 27.5t20 40.5t8 38.5t1 34v303q0 22 -1.5 30.5t-11 15t-30.5 6.5h-24v89h267v-89h-24q-29 0 -35.5 -9t-6.5 -38v-305q0 -40 -5 -74t-21.5 -72.5
t-45 -65t-79.5 -44.5t-120 -18q-146 0 -216 66t-70 200v313q0 18 -1.5 26t-11.5 14.5t-30 6.5h-24v89zM486 877q26 0 44 -18t18 -45q0 -26 -18 -44t-44 -18t-44.5 18t-18.5 44q0 27 18.5 45t44.5 18zM266 877q26 0 44 -18t18 -45q0 -26 -18 -44t-44 -18t-44.5 18t-18.5 44
q0 27 18.5 45t44.5 18z" />
    <glyph glyph-name="Yacute" unicode="&#xdd;" horiz-adv-x="698" 
d="M11 694h295v-89h-24q-25 0 -25 -18q0 -13 9 -22q1 -1 2.5 -4t2.5 -4l93 -151l94 144q17 23 17 37q0 18 -35 18h-19v89h266v-89q-20 0 -28.5 -2t-20.5 -13t-29 -37l-184 -278v-143q0 -27 8.5 -35t39.5 -8h24v-89h-298v89h26q31 0 38.5 8t7.5 35v143l-186 287
q-13 20 -26 30t-21.5 11.5t-26.5 1.5v89zM336 880h153l-112 -129h-101z" />
    <glyph glyph-name="Thorn" unicode="&#xde;" horiz-adv-x="625" 
d="M256 546h87q85 0 130 -16q38 -14 63.5 -39t36 -53.5t14 -48.5t3.5 -40q0 -59 -26 -105.5t-76 -71.5q-46 -24 -129 -24h-103v-23q0 -24 8 -32t38 -8h30v-85h-291v89h24q29 0 36.5 9.5t7.5 36.5v422q0 15 -0.5 21.5t-4.5 14t-13.5 10t-25.5 2.5h-24v89h291v-85h-30
q-29 0 -37.5 -7.5t-8.5 -31.5v-24zM256 448v-202h68q62 0 91.5 24.5t29.5 79.5q0 98 -116 98h-73z" />
    <glyph glyph-name="germandbls" unicode="&#xdf;" horiz-adv-x="604" 
d="M296 331v105q12 0 19.5 1t21.5 6t23 14t16 27t7 43q0 89 -76 89q-23 0 -38.5 -8.5t-23.5 -19.5t-12 -30t-4.5 -30.5t-0.5 -30.5v-497h-214v82h26q24 0 32 8t8 38v370q0 217 234 217q12 0 22.5 -0.5t34.5 -3.5t42.5 -9t41.5 -19t38.5 -30.5t26 -45.5t10.5 -63
q0 -112 -105 -153v-2q140 -26 140 -178q0 -35 -8.5 -68.5t-29.5 -69.5t-63.5 -58t-102.5 -22q-42 0 -82 14v110q33 -20 59 -20q24 0 40 13.5t22 36t7.5 36t1.5 26.5q0 42 -9.5 68t-28 37t-34.5 14t-41 3z" />
    <glyph glyph-name="agrave" unicode="&#xe0;" horiz-adv-x="563" 
d="M80 328v118q92 58 206 58q63 0 104.5 -15.5t60.5 -43.5t25.5 -54.5t6.5 -60.5v-178q0 -32 6.5 -45.5t23.5 -13.5q11 0 35 9v-86q-63 -30 -120 -30q-63 0 -82 58q-70 -58 -147 -58q-69 0 -114 33t-45 107q0 36 13.5 65t36.5 46t41.5 26t38.5 15q77 23 98 28l70 16
q0 20 -2 33t-8.5 29.5t-23 25t-42.5 8.5q-20 0 -33.5 -4.5t-20.5 -10.5t-10.5 -18.5t-4 -20t-0.5 -23.5v-13h-113zM338 190v55q-84 -23 -119.5 -43.5t-35.5 -62.5q0 -27 17.5 -46t47.5 -19q23 0 44 13q46 27 46 103zM121 690h153l60 -129h-101z" />
    <glyph glyph-name="aacute" unicode="&#xe1;" horiz-adv-x="563" 
d="M80 328v118q92 58 206 58q63 0 104.5 -15.5t60.5 -43.5t25.5 -54.5t6.5 -60.5v-178q0 -32 6.5 -45.5t23.5 -13.5q11 0 35 9v-86q-63 -30 -120 -30q-63 0 -82 58q-70 -58 -147 -58q-69 0 -114 33t-45 107q0 36 13.5 65t36.5 46t41.5 26t38.5 15q77 23 98 28l70 16
q0 20 -2 33t-8.5 29.5t-23 25t-42.5 8.5q-20 0 -33.5 -4.5t-20.5 -10.5t-10.5 -18.5t-4 -20t-0.5 -23.5v-13h-113zM338 190v55q-84 -23 -119.5 -43.5t-35.5 -62.5q0 -27 17.5 -46t47.5 -19q23 0 44 13q46 27 46 103zM283 690h153l-112 -129h-101z" />
    <glyph glyph-name="acircumflex" unicode="&#xe2;" horiz-adv-x="563" 
d="M80 328v118q92 58 206 58q63 0 104.5 -15.5t60.5 -43.5t25.5 -54.5t6.5 -60.5v-178q0 -32 6.5 -45.5t23.5 -13.5q11 0 35 9v-86q-63 -30 -120 -30q-63 0 -82 58q-70 -58 -147 -58q-69 0 -114 33t-45 107q0 36 13.5 65t36.5 46t41.5 26t38.5 15q77 23 98 28l70 16
q0 20 -2 33t-8.5 29.5t-23 25t-42.5 8.5q-20 0 -33.5 -4.5t-20.5 -10.5t-10.5 -18.5t-4 -20t-0.5 -23.5v-13h-113zM338 190v55q-84 -23 -119.5 -43.5t-35.5 -62.5q0 -27 17.5 -46t47.5 -19q23 0 44 13q46 27 46 103zM221 561h-114l94 130h146l95 -130h-116l-53 70z" />
    <glyph glyph-name="atilde" unicode="&#xe3;" horiz-adv-x="563" 
d="M80 328v118q92 58 206 58q63 0 104.5 -15.5t60.5 -43.5t25.5 -54.5t6.5 -60.5v-178q0 -32 6.5 -45.5t23.5 -13.5q11 0 35 9v-86q-63 -30 -120 -30q-63 0 -82 58q-70 -58 -147 -58q-69 0 -114 33t-45 107q0 36 13.5 65t36.5 46t41.5 26t38.5 15q77 23 98 28l70 16
q0 20 -2 33t-8.5 29.5t-23 25t-42.5 8.5q-20 0 -33.5 -4.5t-20.5 -10.5t-10.5 -18.5t-4 -20t-0.5 -23.5v-13h-113zM338 190v55q-84 -23 -119.5 -43.5t-35.5 -62.5q0 -27 17.5 -46t47.5 -19q23 0 44 13q46 27 46 103zM381 685h80q0 -61 -31 -92.5t-71 -31.5q-39 0 -82 20
q-49 20 -64 20q-28 0 -31 -40h-80q1 61 28 92.5t72 31.5q36 0 117 -32q17 -7 31 -7q27 0 31 39z" />
    <glyph glyph-name="adieresis" unicode="&#xe4;" horiz-adv-x="563" 
d="M80 328v118q92 58 206 58q63 0 104.5 -15.5t60.5 -43.5t25.5 -54.5t6.5 -60.5v-178q0 -32 6.5 -45.5t23.5 -13.5q11 0 35 9v-86q-63 -30 -120 -30q-63 0 -82 58q-70 -58 -147 -58q-69 0 -114 33t-45 107q0 36 13.5 65t36.5 46t41.5 26t38.5 15q77 23 98 28l70 16
q0 20 -2 33t-8.5 29.5t-23 25t-42.5 8.5q-20 0 -33.5 -4.5t-20.5 -10.5t-10.5 -18.5t-4 -20t-0.5 -23.5v-13h-113zM338 190v55q-84 -23 -119.5 -43.5t-35.5 -62.5q0 -27 17.5 -46t47.5 -19q23 0 44 13q46 27 46 103zM385 687q26 0 44 -18t18 -45q0 -26 -18 -44t-44 -18
t-44.5 18t-18.5 44q0 27 18.5 45t44.5 18zM165 687q26 0 44 -18t18 -45q0 -26 -18 -44t-44 -18t-44.5 18t-18.5 44q0 27 18.5 45t44.5 18z" />
    <glyph glyph-name="aring" unicode="&#xe5;" horiz-adv-x="563" 
d="M80 328v118q92 58 206 58q63 0 104.5 -15.5t60.5 -43.5t25.5 -54.5t6.5 -60.5v-178q0 -32 6.5 -45.5t23.5 -13.5q11 0 35 9v-86q-63 -30 -120 -30q-63 0 -82 58q-70 -58 -147 -58q-69 0 -114 33t-45 107q0 36 13.5 65t36.5 46t41.5 26t38.5 15q77 23 98 28l70 16
q0 20 -2 33t-8.5 29.5t-23 25t-42.5 8.5q-20 0 -33.5 -4.5t-20.5 -10.5t-10.5 -18.5t-4 -20t-0.5 -23.5v-13h-113zM338 190v55q-84 -23 -119.5 -43.5t-35.5 -62.5q0 -27 17.5 -46t47.5 -19q23 0 44 13q46 27 46 103zM282 763q41 0 70.5 -29.5t29.5 -71.5t-29.5 -71.5
t-70.5 -29.5t-71 29.5t-30 71.5t29.5 71.5t71.5 29.5zM281 711q-20 0 -34 -14.5t-14 -34.5t14 -34.5t34 -14.5t34.5 14.5t14.5 34.5t-14.5 34.5t-34.5 14.5z" />
    <glyph glyph-name="ae" unicode="&#xe6;" horiz-adv-x="802" 
d="M75 328v119q85 57 203 57q98 0 142 -48q55 48 142 48q213 0 209 -280h-306q3 -57 38.5 -89.5t88.5 -32.5q44 0 93 18q7 3 38.5 19.5t35.5 18.5v-117q-27 -16 -47.5 -25.5t-64 -19.5t-95.5 -10q-62 0 -103.5 17t-73.5 61q-62 -78 -181 -78q-159 0 -159 138q0 78 53.5 116
t182.5 67q4 1 9.5 2t9.5 2t5 1l39 11q0 52 -19 73.5t-56 21.5q-26 0 -41.5 -5.5t-21.5 -18.5t-7.5 -23t-1.5 -29v-14h-112zM334 189v56q-86 -19 -121.5 -44t-35.5 -62q0 -12 4 -25t20 -26.5t41 -13.5q11 0 22.5 3t29.5 13t29 35.5t11 63.5zM464 312h171q-8 104 -82 104
q-20 0 -35.5 -8.5t-24 -18.5t-15.5 -28t-9 -26t-5 -23z" />
    <glyph glyph-name="ccedilla" unicode="&#xe7;" horiz-adv-x="510" 
d="M300 -16l-6 -26q82 -10 82 -80q0 -50 -39.5 -74t-86.5 -24q-58 0 -109 18v67q61 -19 93 -19q53 0 53 30q0 17 -14.5 25t-31.5 8q-12 0 -33 -3l22 81q-56 8 -95.5 37t-58 67.5t-26.5 73t-8 66.5q0 138 74.5 207t180.5 69q88 0 170 -43v-170h-112v46q0 14 -1 22.5
t-6.5 21.5t-19.5 20t-36 7q-32 0 -54.5 -16t-33.5 -41t-15.5 -47.5t-4.5 -42.5q0 -71 32.5 -115.5t97.5 -44.5q73 0 149 49v-113q-72 -49 -163 -56z" />
    <glyph glyph-name="egrave" unicode="&#xe8;" horiz-adv-x="531" 
d="M496 224h-307q2 -49 33.5 -86.5t95.5 -37.5q71 0 166 57v-118q-101 -56 -207 -56q-57 0 -101 18t-69.5 44.5t-41.5 62.5t-21.5 66.5t-5.5 61.5q0 52 14.5 99t43 86t76.5 62.5t109 23.5q45 0 80.5 -13t57.5 -30.5t37.5 -47t23 -51.5t11.5 -55.5t4.5 -47.5t0.5 -38z
M190 312h169q-1 30 -9 51.5t-17.5 31.5t-22.5 16t-19 6.5t-12 0.5q-37 0 -61.5 -30.5t-27.5 -75.5zM145 690h153l60 -129h-101z" />
    <glyph glyph-name="eacute" unicode="&#xe9;" horiz-adv-x="531" 
d="M496 224h-307q2 -49 33.5 -86.5t95.5 -37.5q71 0 166 57v-118q-101 -56 -207 -56q-57 0 -101 18t-69.5 44.5t-41.5 62.5t-21.5 66.5t-5.5 61.5q0 52 14.5 99t43 86t76.5 62.5t109 23.5q45 0 80.5 -13t57.5 -30.5t37.5 -47t23 -51.5t11.5 -55.5t4.5 -47.5t0.5 -38z
M190 312h169q-1 30 -9 51.5t-17.5 31.5t-22.5 16t-19 6.5t-12 0.5q-37 0 -61.5 -30.5t-27.5 -75.5zM222 690h153l-112 -129h-101z" />
    <glyph glyph-name="ecircumflex" unicode="&#xea;" horiz-adv-x="531" 
d="M496 224h-307q2 -49 33.5 -86.5t95.5 -37.5q71 0 166 57v-118q-101 -56 -207 -56q-57 0 -101 18t-69.5 44.5t-41.5 62.5t-21.5 66.5t-5.5 61.5q0 52 14.5 99t43 86t76.5 62.5t109 23.5q45 0 80.5 -13t57.5 -30.5t37.5 -47t23 -51.5t11.5 -55.5t4.5 -47.5t0.5 -38z
M190 312h169q-1 30 -9 51.5t-17.5 31.5t-22.5 16t-19 6.5t-12 0.5q-37 0 -61.5 -30.5t-27.5 -75.5zM212 561h-114l94 130h146l95 -130h-116l-53 70z" />
    <glyph glyph-name="edieresis" unicode="&#xeb;" horiz-adv-x="531" 
d="M496 224h-307q2 -49 33.5 -86.5t95.5 -37.5q71 0 166 57v-118q-101 -56 -207 -56q-57 0 -101 18t-69.5 44.5t-41.5 62.5t-21.5 66.5t-5.5 61.5q0 52 14.5 99t43 86t76.5 62.5t109 23.5q45 0 80.5 -13t57.5 -30.5t37.5 -47t23 -51.5t11.5 -55.5t4.5 -47.5t0.5 -38z
M190 312h169q-1 30 -9 51.5t-17.5 31.5t-22.5 16t-19 6.5t-12 0.5q-37 0 -61.5 -30.5t-27.5 -75.5zM376 687q26 0 44 -18t18 -45q0 -26 -18 -44t-44 -18t-44.5 18t-18.5 44q0 27 18.5 45t44.5 18zM156 687q26 0 44 -18t18 -45q0 -26 -18 -44t-44 -18t-44.5 18t-18.5 44
q0 27 18.5 45t44.5 18z" />
    <glyph glyph-name="igrave" unicode="&#xec;" horiz-adv-x="313" 
d="M234 498v-355q0 -45 7 -53t48 -8v-82h-264v82h25q27 0 32.5 10t5.5 53v179q0 28 -0.5 39t-3.5 21.5t-8.5 12.5t-17.5 2q-13 0 -36 -1v81zM36 690h153l60 -129h-101z" />
    <glyph glyph-name="iacute" unicode="&#xed;" horiz-adv-x="313" 
d="M234 498v-355q0 -45 7 -53t48 -8v-82h-264v82h25q27 0 32.5 10t5.5 53v179q0 28 -0.5 39t-3.5 21.5t-8.5 12.5t-17.5 2q-13 0 -36 -1v81zM113 690h153l-112 -129h-101z" />
    <glyph glyph-name="icircumflex" unicode="&#xee;" horiz-adv-x="313" 
d="M234 498v-355q0 -45 7 -53t48 -8v-82h-264v82h25q27 0 32.5 10t5.5 53v179q0 28 -0.5 39t-3.5 21.5t-8.5 12.5t-17.5 2q-13 0 -36 -1v81zM103 561h-114l94 130h146l95 -130h-116l-53 70z" />
    <glyph glyph-name="idieresis" unicode="&#xef;" horiz-adv-x="313" 
d="M234 498v-355q0 -45 7 -53t48 -8v-82h-264v82h25q27 0 32.5 10t5.5 53v179q0 28 -0.5 39t-3.5 21.5t-8.5 12.5t-17.5 2q-13 0 -36 -1v81zM267 687q26 0 44 -18t18 -45q0 -26 -18 -44t-44 -18t-44.5 18t-18.5 44q0 27 18.5 45t44.5 18zM47 687q26 0 44 -18t18 -45
q0 -26 -18 -44t-44 -18t-44.5 18t-18.5 44q0 27 18.5 45t44.5 18z" />
    <glyph glyph-name="eth" unicode="&#xf0;" horiz-adv-x="594" 
d="M294 660l89 60l48 -69l-64 -42q82 -68 130 -158t48 -190q0 -128 -67 -203q-68 -76 -196 -76q-58 0 -102.5 17t-69.5 42t-41 58t-21.5 61t-5.5 55q0 112 61 176.5t166 64.5q42 0 83 -16q-27 54 -82 105l-94 -62l-46 67l74 50q-25 18 -57 36l51 77q40 -16 96 -53zM190 222
q0 -76 31 -108t71 -32q47 0 75 38t28 108q0 20 -3 39.5t-12 44.5t-31 40t-54 15q-44 0 -74.5 -35t-30.5 -110z" />
    <glyph glyph-name="ntilde" unicode="&#xf1;" horiz-adv-x="615" 
d="M282 82v-82h-251v82q40 0 47.5 7.5t7.5 50.5v178q0 64 -9 73q-8 7 -53 4v82l199 16q9 -30 9 -70h2q47 81 146 81q113 0 147 -91q12 -31 12 -110v-160q0 -45 7 -53t48 -8v-82h-259v82q37 0 43.5 8.5t6.5 54.5v131q0 27 -1.5 43t-7.5 34.5t-20 27.5t-37 9q-86 0 -86 -135
v-110q0 -46 6.5 -54.5t42.5 -8.5zM371 685h80q0 -61 -31 -92.5t-71 -31.5q-39 0 -82 20q-49 20 -64 20q-28 0 -31 -40h-80q1 61 28 92.5t72 31.5q36 0 117 -32q17 -7 31 -7q27 0 31 39z" />
    <glyph glyph-name="ograve" unicode="&#xf2;" horiz-adv-x="583" 
d="M543 262q0 -54 -14 -101.5t-43 -88t-81 -64t-122 -23.5q-60 0 -105.5 19t-71 46t-41 63.5t-20.5 65.5t-5 57q0 36 6.5 71t24.5 72.5t45.5 65.5t73 46t104.5 18q124 0 186.5 -69.5t62.5 -177.5zM394 254q0 12 -0.5 21.5t-3 30t-9.5 36.5t-17.5 32.5t-29 25.5t-42.5 9
q-34 0 -56.5 -19t-32 -49.5t-12.5 -53t-3 -45.5q0 -11 0.5 -23.5t6.5 -38.5t16 -45t31.5 -34t50.5 -15q101 0 101 168zM171 690h153l60 -129h-101z" />
    <glyph glyph-name="oacute" unicode="&#xf3;" horiz-adv-x="583" 
d="M543 262q0 -54 -14 -101.5t-43 -88t-81 -64t-122 -23.5q-60 0 -105.5 19t-71 46t-41 63.5t-20.5 65.5t-5 57q0 36 6.5 71t24.5 72.5t45.5 65.5t73 46t104.5 18q124 0 186.5 -69.5t62.5 -177.5zM394 254q0 12 -0.5 21.5t-3 30t-9.5 36.5t-17.5 32.5t-29 25.5t-42.5 9
q-34 0 -56.5 -19t-32 -49.5t-12.5 -53t-3 -45.5q0 -11 0.5 -23.5t6.5 -38.5t16 -45t31.5 -34t50.5 -15q101 0 101 168zM278 690h153l-112 -129h-101z" />
    <glyph glyph-name="ocircumflex" unicode="&#xf4;" horiz-adv-x="583" 
d="M543 262q0 -54 -14 -101.5t-43 -88t-81 -64t-122 -23.5q-60 0 -105.5 19t-71 46t-41 63.5t-20.5 65.5t-5 57q0 36 6.5 71t24.5 72.5t45.5 65.5t73 46t104.5 18q124 0 186.5 -69.5t62.5 -177.5zM394 254q0 12 -0.5 21.5t-3 30t-9.5 36.5t-17.5 32.5t-29 25.5t-42.5 9
q-34 0 -56.5 -19t-32 -49.5t-12.5 -53t-3 -45.5q0 -11 0.5 -23.5t6.5 -38.5t16 -45t31.5 -34t50.5 -15q101 0 101 168zM238 561h-114l94 130h146l95 -130h-116l-53 70z" />
    <glyph glyph-name="otilde" unicode="&#xf5;" horiz-adv-x="583" 
d="M543 262q0 -54 -14 -101.5t-43 -88t-81 -64t-122 -23.5q-60 0 -105.5 19t-71 46t-41 63.5t-20.5 65.5t-5 57q0 36 6.5 71t24.5 72.5t45.5 65.5t73 46t104.5 18q124 0 186.5 -69.5t62.5 -177.5zM394 254q0 12 -0.5 21.5t-3 30t-9.5 36.5t-17.5 32.5t-29 25.5t-42.5 9
q-34 0 -56.5 -19t-32 -49.5t-12.5 -53t-3 -45.5q0 -11 0.5 -23.5t6.5 -38.5t16 -45t31.5 -34t50.5 -15q101 0 101 168zM391 685h80q0 -61 -31 -92.5t-71 -31.5q-39 0 -82 20q-49 20 -64 20q-28 0 -31 -40h-80q1 61 28 92.5t72 31.5q36 0 117 -32q17 -7 31 -7q27 0 31 39z
" />
    <glyph glyph-name="odieresis" unicode="&#xf6;" horiz-adv-x="583" 
d="M543 262q0 -54 -14 -101.5t-43 -88t-81 -64t-122 -23.5q-60 0 -105.5 19t-71 46t-41 63.5t-20.5 65.5t-5 57q0 36 6.5 71t24.5 72.5t45.5 65.5t73 46t104.5 18q124 0 186.5 -69.5t62.5 -177.5zM394 254q0 12 -0.5 21.5t-3 30t-9.5 36.5t-17.5 32.5t-29 25.5t-42.5 9
q-34 0 -56.5 -19t-32 -49.5t-12.5 -53t-3 -45.5q0 -11 0.5 -23.5t6.5 -38.5t16 -45t31.5 -34t50.5 -15q101 0 101 168zM402 687q26 0 44 -18t18 -45q0 -26 -18 -44t-44 -18t-44.5 18t-18.5 44q0 27 18.5 45t44.5 18zM182 687q26 0 44 -18t18 -45q0 -26 -18 -44t-44 -18
t-44.5 18t-18.5 44q0 27 18.5 45t44.5 18z" />
    <glyph glyph-name="divide" unicode="&#xf7;" horiz-adv-x="667" 
d="M403 130q0 -29 -21 -50t-50 -21q-30 0 -50.5 21t-20.5 50t20.5 50t50.5 21q29 0 50 -21t21 -50zM403 536q0 -29 -21 -50t-50 -21q-30 0 -50.5 21t-20.5 50t20.5 50t50.5 21q29 0 50 -21t21 -50zM59 390h549v-114h-549v114z" />
    <glyph glyph-name="oslash" unicode="&#xf8;" horiz-adv-x="583" 
d="M149 15l-56 -62l-70 64l58 65q-41 66 -41 152q0 35 6.5 69.5t24 72.5t44.5 66t73.5 46.5t106.5 18.5q78 0 139 -34l56 62l70 -63l-57 -64q40 -63 40 -153q0 -47 -12.5 -91.5t-40 -86.5t-80.5 -68t-126 -26q-86 0 -135 32zM392 289l-163 -180q25 -25 64 -25q101 0 101 168
q0 23 -2 37zM191 199l165 183q-26 25 -64 25q-34 0 -57 -20t-32 -51.5t-12 -52.5t-3 -39t3 -45z" />
    <glyph glyph-name="ugrave" unicode="&#xf9;" horiz-adv-x="604" 
d="M13 479l213 19v-301q0 -18 1.5 -29.5t6.5 -29.5t19.5 -27.5t37.5 -9.5q87 0 87 131v115q0 37 -9 45q-8 6 -54 6v81l210 19v-360q0 -24 4.5 -34t22.5 -10h35v-80l-199 -16q-9 35 -9 70h-2q-48 -82 -148 -82q-16 0 -32 3t-38.5 11t-42.5 27t-31 47q-13 34 -13 92v173
q0 39 -4 47q-3 5 -6 7t-14 3.5t-35 1.5v81zM182 690h153l60 -129h-101z" />
    <glyph glyph-name="uacute" unicode="&#xfa;" horiz-adv-x="604" 
d="M13 479l213 19v-301q0 -18 1.5 -29.5t6.5 -29.5t19.5 -27.5t37.5 -9.5q87 0 87 131v115q0 37 -9 45q-8 6 -54 6v81l210 19v-360q0 -24 4.5 -34t22.5 -10h35v-80l-199 -16q-9 35 -9 70h-2q-48 -82 -148 -82q-16 0 -32 3t-38.5 11t-42.5 27t-31 47q-13 34 -13 92v173
q0 39 -4 47q-3 5 -6 7t-14 3.5t-35 1.5v81zM289 690h153l-112 -129h-101z" />
    <glyph glyph-name="ucircumflex" unicode="&#xfb;" horiz-adv-x="604" 
d="M13 479l213 19v-301q0 -18 1.5 -29.5t6.5 -29.5t19.5 -27.5t37.5 -9.5q87 0 87 131v115q0 37 -9 45q-8 6 -54 6v81l210 19v-360q0 -24 4.5 -34t22.5 -10h35v-80l-199 -16q-9 35 -9 70h-2q-48 -82 -148 -82q-16 0 -32 3t-38.5 11t-42.5 27t-31 47q-13 34 -13 92v173
q0 39 -4 47q-3 5 -6 7t-14 3.5t-35 1.5v81zM249 561h-114l94 130h146l95 -130h-116l-53 70z" />
    <glyph glyph-name="udieresis" unicode="&#xfc;" horiz-adv-x="604" 
d="M13 479l213 19v-301q0 -18 1.5 -29.5t6.5 -29.5t19.5 -27.5t37.5 -9.5q87 0 87 131v115q0 37 -9 45q-8 6 -54 6v81l210 19v-360q0 -24 4.5 -34t22.5 -10h35v-80l-199 -16q-9 35 -9 70h-2q-48 -82 -148 -82q-16 0 -32 3t-38.5 11t-42.5 27t-31 47q-13 34 -13 92v173
q0 39 -4 47q-3 5 -6 7t-14 3.5t-35 1.5v81zM413 687q26 0 44 -18t18 -45q0 -26 -18 -44t-44 -18t-44.5 18t-18.5 44q0 27 18.5 45t44.5 18zM193 687q26 0 44 -18t18 -45q0 -26 -18 -44t-44 -18t-44.5 18t-18.5 44q0 27 18.5 45t44.5 18z" />
    <glyph glyph-name="yacute" unicode="&#xfd;" horiz-adv-x="583" 
d="M5 490h270v-82q-44 0 -44 -20q0 -3 7 -24l3 -6l2 -5l69 -170l66 162q0 1 4 10q8 18 8 32q0 21 -41 21v82h227v-82q-22 0 -32.5 -9t-24.5 -41l-201 -453q-32 -72 -73.5 -102t-102.5 -30q-46 0 -110 24v133h86q0 -16 1 -24.5t8.5 -17.5t21.5 -9q21 0 39.5 27t40.5 94
l-156 348l-2 4q-1 4 -2 5q-17 34 -28.5 42.5t-35.5 8.5v82zM278 690h153l-112 -129h-101z" />
    <glyph glyph-name="thorn" unicode="&#xfe;" horiz-adv-x="604" 
d="M77 -78v634q0 37 -5.5 49t-31.5 12h-28v80l212 18v-293h2q49 82 143 82q65 0 110 -36.5t64 -90t19 -118.5q0 -33 -6 -68t-21.5 -72.5t-38.5 -66.5t-60.5 -47.5t-84.5 -18.5q-67 0 -127 54v-122q0 -30 8 -38t38 -8h21v-82h-272v82h14q28 0 36 8t8 42zM217 243v-13
q0 -65 25 -102.5t71 -37.5q26 0 45 14t27.5 31.5t13.5 42.5t5.5 37t0.5 25q0 14 -0.5 25.5t-5.5 36t-13.5 41t-27 30t-44.5 13.5q-36 0 -59 -25.5t-30.5 -55t-7.5 -62.5z" />
    <glyph glyph-name="ydieresis" unicode="&#xff;" horiz-adv-x="583" 
d="M5 490h270v-82q-44 0 -44 -20q0 -3 7 -24l3 -6l2 -5l69 -170l66 162q0 1 4 10q8 18 8 32q0 21 -41 21v82h227v-82q-22 0 -32.5 -9t-24.5 -41l-201 -453q-32 -72 -73.5 -102t-102.5 -30q-46 0 -110 24v133h86q0 -16 1 -24.5t8.5 -17.5t21.5 -9q21 0 39.5 27t40.5 94
l-156 348l-2 4q-1 4 -2 5q-17 34 -28.5 42.5t-35.5 8.5v82zM402 687q26 0 44 -18t18 -45q0 -26 -18 -44t-44 -18t-44.5 18t-18.5 44q0 27 18.5 45t44.5 18zM182 687q26 0 44 -18t18 -45q0 -26 -18 -44t-44 -18t-44.5 18t-18.5 44q0 27 18.5 45t44.5 18z" />
    <glyph glyph-name="Amacron" unicode="&#x100;" horiz-adv-x="708" 
d="M278 702h156l187 -545q16 -45 27.5 -56.5t35.5 -11.5h16v-89h-288v89h29q11 0 17 0.5t11.5 5.5t5.5 15q0 4 -9 35l-18 55h-215l-20 -56q-7 -28 -7 -31q0 -24 38 -24h23v-89h-259v89q35 0 48.5 9.5t26.5 47.5zM340 546l-83 -243h168l-83 243h-2zM174 856h355v-86h-355v86z
" />
    <glyph glyph-name="amacron" unicode="&#x101;" horiz-adv-x="563" 
d="M80 328v118q92 58 206 58q63 0 104.5 -15.5t60.5 -43.5t25.5 -54.5t6.5 -60.5v-178q0 -32 6.5 -45.5t23.5 -13.5q11 0 35 9v-86q-63 -30 -120 -30q-63 0 -82 58q-70 -58 -147 -58q-69 0 -114 33t-45 107q0 36 13.5 65t36.5 46t41.5 26t38.5 15q77 23 98 28l70 16
q0 20 -2 33t-8.5 29.5t-23 25t-42.5 8.5q-20 0 -33.5 -4.5t-20.5 -10.5t-10.5 -18.5t-4 -20t-0.5 -23.5v-13h-113zM338 190v55q-84 -23 -119.5 -43.5t-35.5 -62.5q0 -27 17.5 -46t47.5 -19q23 0 44 13q46 27 46 103zM104 666h355v-86h-355v86z" />
    <glyph glyph-name="Abreve" unicode="&#x102;" horiz-adv-x="708" 
d="M278 702h156l187 -545q16 -45 27.5 -56.5t35.5 -11.5h16v-89h-288v89h29q11 0 17 0.5t11.5 5.5t5.5 15q0 4 -9 35l-18 55h-215l-20 -56q-7 -28 -7 -31q0 -24 38 -24h23v-89h-259v89q35 0 48.5 9.5t26.5 47.5zM340 546l-83 -243h168l-83 243h-2zM200 880h95q1 -10 3 -16
t7 -17t17 -17t30 -6q25 0 39.5 15.5t17.5 40.5h94q-17 -129 -154 -129q-70 0 -106.5 36.5t-42.5 92.5z" />
    <glyph glyph-name="abreve" unicode="&#x103;" horiz-adv-x="563" 
d="M80 328v118q92 58 206 58q63 0 104.5 -15.5t60.5 -43.5t25.5 -54.5t6.5 -60.5v-178q0 -32 6.5 -45.5t23.5 -13.5q11 0 35 9v-86q-63 -30 -120 -30q-63 0 -82 58q-70 -58 -147 -58q-69 0 -114 33t-45 107q0 36 13.5 65t36.5 46t41.5 26t38.5 15q77 23 98 28l70 16
q0 20 -2 33t-8.5 29.5t-23 25t-42.5 8.5q-20 0 -33.5 -4.5t-20.5 -10.5t-10.5 -18.5t-4 -20t-0.5 -23.5v-13h-113zM338 190v55q-84 -23 -119.5 -43.5t-35.5 -62.5q0 -27 17.5 -46t47.5 -19q23 0 44 13q46 27 46 103zM140 690h95q1 -10 3 -16t7 -17t17 -17t30 -6
q25 0 39.5 15.5t17.5 40.5h94q-17 -129 -154 -129q-70 0 -106.5 36.5t-42.5 92.5z" />
    <glyph glyph-name="Aogonek" unicode="&#x104;" horiz-adv-x="708" 
d="M278 702h156l187 -545q16 -45 27.5 -56.5t35.5 -11.5h16v-89h-42q-58 -44 -58 -81q0 -25 17 -35.5t38 -10.5q15 0 45 7v-64q-42 -11 -72 -11q-53 0 -83 27.5t-30 64.5q0 55 59 103h-162v89h29q11 0 17 0.5t11.5 5.5t5.5 15q0 17 -9 35l-18 55h-215l-20 -56q-7 -28 -7 -31
q0 -24 38 -24h23v-89h-259v89q35 0 48.5 9.5t26.5 47.5zM340 546l-83 -243h168l-83 243h-2z" />
    <glyph glyph-name="aogonek" unicode="&#x105;" horiz-adv-x="563" 
d="M80 328v118q92 58 206 58q63 0 104.5 -15.5t60.5 -43.5t25.5 -54.5t6.5 -60.5v-178q0 -32 6.5 -45.5t23.5 -13.5q11 0 35 9v-86l-19 -8q-68 -51 -68 -89q0 -25 17 -35.5t38 -10.5q15 0 45 7v-64q-42 -11 -72 -11q-53 0 -83 27.5t-30 64.5q0 46 43 89q-55 4 -73 58
q-70 -58 -147 -58q-69 0 -114 33t-45 107q0 36 13.5 65t36.5 46t41.5 26t38.5 15q77 23 98 28l70 16q0 20 -2 33t-8.5 29.5t-23 25t-42.5 8.5q-20 0 -33.5 -4.5t-20.5 -10.5t-10.5 -18.5t-4 -20t-0.5 -23.5v-13h-113zM338 190v55q-84 -23 -119.5 -43.5t-35.5 -62.5
q0 -27 17.5 -46t47.5 -19q23 0 44 13q46 27 46 103z" />
    <glyph glyph-name="Cacute" unicode="&#x106;" horiz-adv-x="688" 
d="M638 660v-201h-129v34q0 55 -12 78q-10 19 -39.5 31.5t-63.5 12.5q-67 0 -112 -38.5t-62 -93t-17 -121.5q0 -100 36 -160q18 -29 42 -49.5t49.5 -29.5t44.5 -12.5t37 -3.5q118 0 223 76v-129q-108 -75 -246 -75q-81 0 -143.5 25t-99.5 63.5t-60.5 89t-31.5 96t-8 90.5
q0 52 10 101t36 99t65.5 87.5t103 61t143.5 23.5q124 0 234 -55zM395 880h153l-112 -129h-101z" />
    <glyph glyph-name="cacute" unicode="&#x107;" horiz-adv-x="510" 
d="M467 464v-170h-112v46q0 14 -1 22.5t-6.5 21.5t-19.5 20t-36 7q-32 0 -54.5 -16t-33.5 -41t-15.5 -47.5t-4.5 -42.5q0 -71 32.5 -115.5t97.5 -44.5q73 0 149 49v-113q-85 -57 -186 -57q-70 0 -119.5 26.5t-73 68.5t-33 79.5t-9.5 73.5q0 138 74.5 207t180.5 69
q88 0 170 -43zM296 690h153l-112 -129h-101z" />
    <glyph glyph-name="Ccircumflex" unicode="&#x108;" horiz-adv-x="688" 
d="M638 660v-201h-129v34q0 55 -12 78q-10 19 -39.5 31.5t-63.5 12.5q-67 0 -112 -38.5t-62 -93t-17 -121.5q0 -100 36 -160q18 -29 42 -49.5t49.5 -29.5t44.5 -12.5t37 -3.5q118 0 223 76v-129q-108 -75 -246 -75q-81 0 -143.5 25t-99.5 63.5t-60.5 89t-31.5 96t-8 90.5
q0 52 10 101t36 99t65.5 87.5t103 61t143.5 23.5q124 0 234 -55zM352 751h-114l94 130h146l95 -130h-116l-53 70z" />
    <glyph glyph-name="ccircumflex" unicode="&#x109;" horiz-adv-x="510" 
d="M467 464v-170h-112v46q0 14 -1 22.5t-6.5 21.5t-19.5 20t-36 7q-32 0 -54.5 -16t-33.5 -41t-15.5 -47.5t-4.5 -42.5q0 -71 32.5 -115.5t97.5 -44.5q73 0 149 49v-113q-85 -57 -186 -57q-70 0 -119.5 26.5t-73 68.5t-33 79.5t-9.5 73.5q0 138 74.5 207t180.5 69
q88 0 170 -43zM244 561h-114l94 130h146l95 -130h-116l-53 70z" />
    <glyph glyph-name="Cdotaccent" unicode="&#x10a;" horiz-adv-x="688" 
d="M638 660v-201h-129v34q0 55 -12 78q-10 19 -39.5 31.5t-63.5 12.5q-67 0 -112 -38.5t-62 -93t-17 -121.5q0 -100 36 -160q18 -29 42 -49.5t49.5 -29.5t44.5 -12.5t37 -3.5q118 0 223 76v-129q-108 -75 -246 -75q-81 0 -143.5 25t-99.5 63.5t-60.5 89t-31.5 96t-8 90.5
q0 52 10 101t36 99t65.5 87.5t103 61t143.5 23.5q124 0 234 -55zM403 877q26 0 44.5 -18.5t18.5 -44.5q0 -25 -18 -43.5t-45 -18.5q-25 0 -43.5 18t-18.5 44q0 27 18.5 45t43.5 18z" />
    <glyph glyph-name="cdotaccent" unicode="&#x10b;" horiz-adv-x="510" 
d="M467 464v-170h-112v46q0 14 -1 22.5t-6.5 21.5t-19.5 20t-36 7q-32 0 -54.5 -16t-33.5 -41t-15.5 -47.5t-4.5 -42.5q0 -71 32.5 -115.5t97.5 -44.5q73 0 149 49v-113q-85 -57 -186 -57q-70 0 -119.5 26.5t-73 68.5t-33 79.5t-9.5 73.5q0 138 74.5 207t180.5 69
q88 0 170 -43zM299 687q26 0 44.5 -18.5t18.5 -44.5q0 -25 -18 -43.5t-45 -18.5q-25 0 -43.5 18t-18.5 44q0 27 18.5 45t43.5 18z" />
    <glyph glyph-name="Ccaron" unicode="&#x10c;" horiz-adv-x="688" 
d="M638 660v-201h-129v34q0 55 -12 78q-10 19 -39.5 31.5t-63.5 12.5q-67 0 -112 -38.5t-62 -93t-17 -121.5q0 -100 36 -160q18 -29 42 -49.5t49.5 -29.5t44.5 -12.5t37 -3.5q118 0 223 76v-129q-108 -75 -246 -75q-81 0 -143.5 25t-99.5 63.5t-60.5 89t-31.5 96t-8 90.5
q0 52 10 101t36 99t65.5 87.5t103 61t143.5 23.5q124 0 234 -55zM455 881h114l-94 -130h-146l-95 130h116l53 -70z" />
    <glyph glyph-name="ccaron" unicode="&#x10d;" horiz-adv-x="510" 
d="M467 464v-170h-112v46q0 14 -1 22.5t-6.5 21.5t-19.5 20t-36 7q-32 0 -54.5 -16t-33.5 -41t-15.5 -47.5t-4.5 -42.5q0 -71 32.5 -115.5t97.5 -44.5q73 0 149 49v-113q-85 -57 -186 -57q-70 0 -119.5 26.5t-73 68.5t-33 79.5t-9.5 73.5q0 138 74.5 207t180.5 69
q88 0 170 -43zM351 691h114l-94 -130h-146l-95 130h116l53 -70z" />
    <glyph glyph-name="Dcaron" unicode="&#x10e;" horiz-adv-x="750" 
d="M41 694h319q147 0 228 -62q119 -95 119 -281q0 -152 -82.5 -251.5t-240.5 -99.5h-343v89h19q32 0 40 8.5t8 37.5v422q0 29 -7.5 38.5t-36.5 9.5h-23v89zM335 584h-77v-477h86q199 0 199 237q0 76 -18.5 127t-52 74t-65 31t-72.5 8zM349 881h114l-94 -130h-146l-95 130
h116l53 -70z" />
    <glyph glyph-name="dcaron" unicode="&#x10f;" horiz-adv-x="604" 
d="M567 412v64q33 16 50 37t21 55q-37 7 -51 29.5t-14 44.5q0 31 22 52t51 21q36 0 60 -28.5t24 -75.5q0 -19 -6 -41.5t-21 -53t-50.5 -58.5t-85.5 -46zM525 715v-571q0 -37 10 -45.5t51 -4.5v-81l-195 -13q-8 32 -10 67h-2q-45 -81 -143 -81q-48 0 -84.5 18t-57 44.5
t-33.5 62t-17 64t-4 57.5q0 121 58.5 198t152.5 77q76 0 126 -53v102q0 37 -5.5 49t-31.5 12h-28v80zM197 250q0 -14 0.5 -25.5t5.5 -36t13.5 -41.5t27 -30.5t44.5 -13.5q35 0 65.5 33.5t30.5 116.5q0 79 -28 112.5t-67 33.5q-47 0 -69.5 -42.5t-22.5 -106.5z" />
    <glyph glyph-name="Dcroat" unicode="&#x110;" horiz-adv-x="750" 
d="M108 292h-72v107h72v158q0 29 -7.5 38.5t-36.5 9.5h-23v89h319q147 0 228 -62q119 -95 119 -281q0 -152 -82.5 -251.5t-240.5 -99.5h-343v89h19q32 0 40 8.5t8 37.5v157zM400 292h-142v-185h86q199 0 199 237q0 76 -18.5 127t-52 74t-65 31t-72.5 8h-77v-185h142v-107z
" />
    <glyph glyph-name="dcroat" unicode="&#x111;" horiz-adv-x="604" 
d="M235 584h141q-1 18 -8.5 25.5t-27.5 7.5h-28v80l213 18v-131h61v-55h-61v-385q0 -37 10 -45.5t51 -4.5v-81l-195 -13q-8 32 -10 67h-2q-45 -81 -143 -81q-48 0 -84.5 18t-57 44.5t-33.5 62t-17 64t-4 57.5q0 121 58.5 198t152.5 77q76 0 126 -53v75h-142v55zM197 250
q0 -14 0.5 -25.5t5.5 -36t13.5 -41.5t27 -30.5t44.5 -13.5q35 0 65.5 33.5t30.5 116.5q0 79 -28 112.5t-67 33.5q-47 0 -69.5 -42.5t-22.5 -106.5z" />
    <glyph glyph-name="Emacron" unicode="&#x112;" horiz-adv-x="625" 
d="M42 694h531v-182h-114v35q0 25 -10.5 32t-38.5 7h-149v-175h114q13 0 16.5 3.5t3.5 18.5v31h109v-220h-109v36q0 22 -20 22h-114v-195h162q32 0 40 9t8 35v41h114v-192h-543v89h25q28 0 34.5 9t6.5 37v426q0 17 -1.5 24.5t-11 13.5t-28.5 6h-25v89zM135 856h355v-86h-355
v86z" />
    <glyph glyph-name="emacron" unicode="&#x113;" horiz-adv-x="531" 
d="M496 224h-307q2 -49 33.5 -86.5t95.5 -37.5q71 0 166 57v-118q-101 -56 -207 -56q-57 0 -101 18t-69.5 44.5t-41.5 62.5t-21.5 66.5t-5.5 61.5q0 52 14.5 99t43 86t76.5 62.5t109 23.5q45 0 80.5 -13t57.5 -30.5t37.5 -47t23 -51.5t11.5 -55.5t4.5 -47.5t0.5 -38z
M190 312h169q-1 30 -9 51.5t-17.5 31.5t-22.5 16t-19 6.5t-12 0.5q-37 0 -61.5 -30.5t-27.5 -75.5zM108 666h355v-86h-355v86z" />
    <glyph glyph-name="Ebreve" unicode="&#x114;" horiz-adv-x="625" 
d="M42 694h531v-182h-114v35q0 25 -10.5 32t-38.5 7h-149v-175h114q13 0 16.5 3.5t3.5 18.5v31h109v-220h-109v36q0 22 -20 22h-114v-195h162q32 0 40 9t8 35v41h114v-192h-543v89h25q28 0 34.5 9t6.5 37v426q0 17 -1.5 24.5t-11 13.5t-28.5 6h-25v89zM161 880h95
q1 -10 3 -16t7 -17t17 -17t30 -6q25 0 39.5 15.5t17.5 40.5h94q-17 -129 -154 -129q-70 0 -106.5 36.5t-42.5 92.5z" />
    <glyph glyph-name="ebreve" unicode="&#x115;" horiz-adv-x="531" 
d="M496 224h-307q2 -49 33.5 -86.5t95.5 -37.5q71 0 166 57v-118q-101 -56 -207 -56q-57 0 -101 18t-69.5 44.5t-41.5 62.5t-21.5 66.5t-5.5 61.5q0 52 14.5 99t43 86t76.5 62.5t109 23.5q45 0 80.5 -13t57.5 -30.5t37.5 -47t23 -51.5t11.5 -55.5t4.5 -47.5t0.5 -38z
M190 312h169q-1 30 -9 51.5t-17.5 31.5t-22.5 16t-19 6.5t-12 0.5q-37 0 -61.5 -30.5t-27.5 -75.5zM132 690h95q1 -10 3 -16t7 -17t17 -17t30 -6q25 0 39.5 15.5t17.5 40.5h94q-17 -129 -154 -129q-70 0 -106.5 36.5t-42.5 92.5z" />
    <glyph glyph-name="Edotaccent" unicode="&#x116;" horiz-adv-x="625" 
d="M42 694h531v-182h-114v35q0 25 -10.5 32t-38.5 7h-149v-175h114q13 0 16.5 3.5t3.5 18.5v31h109v-220h-109v36q0 22 -20 22h-114v-195h162q32 0 40 9t8 35v41h114v-192h-543v89h25q28 0 34.5 9t6.5 37v426q0 17 -1.5 24.5t-11 13.5t-28.5 6h-25v89zM319 877
q26 0 44.5 -18.5t18.5 -44.5q0 -25 -18 -43.5t-45 -18.5q-25 0 -43.5 18t-18.5 44q0 27 18.5 45t43.5 18z" />
    <glyph glyph-name="edotaccent" unicode="&#x117;" horiz-adv-x="531" 
d="M496 224h-307q2 -49 33.5 -86.5t95.5 -37.5q71 0 166 57v-118q-101 -56 -207 -56q-57 0 -101 18t-69.5 44.5t-41.5 62.5t-21.5 66.5t-5.5 61.5q0 52 14.5 99t43 86t76.5 62.5t109 23.5q45 0 80.5 -13t57.5 -30.5t37.5 -47t23 -51.5t11.5 -55.5t4.5 -47.5t0.5 -38z
M190 312h169q-1 30 -9 51.5t-17.5 31.5t-22.5 16t-19 6.5t-12 0.5q-37 0 -61.5 -30.5t-27.5 -75.5zM279 687q26 0 44.5 -18.5t18.5 -44.5q0 -25 -18 -43.5t-45 -18.5q-25 0 -43.5 18t-18.5 44q0 27 18.5 45t43.5 18z" />
    <glyph glyph-name="Eogonek" unicode="&#x118;" horiz-adv-x="625" 
d="M42 694h531v-182h-114v35q0 25 -10.5 32t-38.5 7h-149v-175h114q13 0 16.5 3.5t3.5 18.5v31h109v-220h-109v36q0 22 -20 22h-114v-195h162q32 0 40 9t8 35v41h114v-192h-42q-58 -44 -58 -81q0 -25 17 -35.5t38 -10.5q15 0 45 7v-64q-42 -11 -72 -11q-53 0 -83 27.5
t-30 64.5q0 55 59 103h-417v89h25q28 0 34.5 9t6.5 37v426q0 17 -1.5 24.5t-11 13.5t-28.5 6h-25v89z" />
    <glyph glyph-name="eogonek" unicode="&#x119;" horiz-adv-x="531" 
d="M496 224h-307q2 -49 33.5 -86.5t95.5 -37.5q71 0 166 57v-118q-38 -21 -64 -31q-69 -49 -69 -89q0 -25 17 -35.5t38 -10.5q15 0 45 7v-64q-42 -11 -72 -11q-53 0 -83 27.5t-30 64.5q0 48 41 87q-4 0 -14.5 -0.5t-15.5 -0.5q-57 0 -101 18t-69.5 44.5t-41.5 62.5
t-21.5 66.5t-5.5 61.5q0 52 14.5 99t43 86t76.5 62.5t109 23.5q45 0 80.5 -13t57.5 -30.5t37.5 -47t23 -51.5t11.5 -55.5t4.5 -47.5t0.5 -38zM190 312h169q-1 30 -9 51.5t-17.5 31.5t-22.5 16t-19 6.5t-12 0.5q-37 0 -61.5 -30.5t-27.5 -75.5z" />
    <glyph glyph-name="Ecaron" unicode="&#x11a;" horiz-adv-x="625" 
d="M42 694h531v-182h-114v35q0 25 -10.5 32t-38.5 7h-149v-175h114q13 0 16.5 3.5t3.5 18.5v31h109v-220h-109v36q0 22 -20 22h-114v-195h162q32 0 40 9t8 35v41h114v-192h-543v89h25q28 0 34.5 9t6.5 37v426q0 17 -1.5 24.5t-11 13.5t-28.5 6h-25v89zM366 881h114l-94 -130
h-146l-95 130h116l53 -70z" />
    <glyph glyph-name="ecaron" unicode="&#x11b;" horiz-adv-x="531" 
d="M496 224h-307q2 -49 33.5 -86.5t95.5 -37.5q71 0 166 57v-118q-101 -56 -207 -56q-57 0 -101 18t-69.5 44.5t-41.5 62.5t-21.5 66.5t-5.5 61.5q0 52 14.5 99t43 86t76.5 62.5t109 23.5q45 0 80.5 -13t57.5 -30.5t37.5 -47t23 -51.5t11.5 -55.5t4.5 -47.5t0.5 -38z
M190 312h169q-1 30 -9 51.5t-17.5 31.5t-22.5 16t-19 6.5t-12 0.5q-37 0 -61.5 -30.5t-27.5 -75.5zM331 691h114l-94 -130h-146l-95 130h116l53 -70z" />
    <glyph glyph-name="Gcircumflex" unicode="&#x11c;" horiz-adv-x="750" 
d="M524 463v37q0 43 -11 63q-14 25 -44.5 36.5t-62.5 11.5q-95 0 -145 -72.5t-50 -187.5q0 -114 49 -184.5t150 -70.5q41 0 94 19v101q0 12 -1 18.5t-5 13t-13 9t-24 2.5h-27v89h284v-89h-28q-23 0 -32 -8.5t-9 -32.5v-179q-122 -60 -244 -60q-94 0 -152 23t-102 67
q-102 101 -102 272q0 54 11 104.5t38.5 100.5t68 86.5t104.5 59.5t144 23q133 0 237 -54v-198h-128zM362 751h-114l94 130h146l95 -130h-116l-53 70z" />
    <glyph glyph-name="gcircumflex" unicode="&#x11d;" horiz-adv-x="543" 
d="M522 490v-90h-76q25 -42 25 -89q0 -88 -76 -135q-43 -26 -126 -30q-21 -1 -31.5 -2t-25 -4.5t-21 -10t-6.5 -17.5q0 -31 75 -31q16 -2 56 -2q103 -2 156 -33t53 -103q0 -36 -13 -65t-32 -47t-48 -31t-52 -19t-54.5 -9.5t-45.5 -4t-33 -0.5q-247 0 -247 119q0 84 117 104
v2q-69 20 -69 76q0 68 98 98v2q-107 39 -107 153q0 78 54.5 132t163.5 54q56 0 100 -17h165zM257 435q-26 0 -43 -14t-23.5 -37t-8 -36.5t-1.5 -26.5q0 -38 17.5 -69t56.5 -31q30 0 53 24t23 83q0 107 -74 107zM267 -43q-129 0 -129 -51q0 -55 128 -55q30 0 56.5 4t50 18
t23.5 37q0 47 -129 47zM208 561h-114l94 130h146l95 -130h-116l-53 70z" />
    <glyph glyph-name="Gbreve" unicode="&#x11e;" horiz-adv-x="750" 
d="M524 463v37q0 43 -11 63q-14 25 -44.5 36.5t-62.5 11.5q-95 0 -145 -72.5t-50 -187.5q0 -114 49 -184.5t150 -70.5q41 0 94 19v101q0 12 -1 18.5t-5 13t-13 9t-24 2.5h-27v89h284v-89h-28q-23 0 -32 -8.5t-9 -32.5v-179q-122 -60 -244 -60q-94 0 -152 23t-102 67
q-102 101 -102 272q0 54 11 104.5t38.5 100.5t68 86.5t104.5 59.5t144 23q133 0 237 -54v-198h-128zM266 880h95q1 -10 3 -16t7 -17t17 -17t30 -6q25 0 39.5 15.5t17.5 40.5h94q-17 -129 -154 -129q-70 0 -106.5 36.5t-42.5 92.5z" />
    <glyph glyph-name="gbreve" unicode="&#x11f;" horiz-adv-x="543" 
d="M522 490v-90h-76q25 -42 25 -89q0 -88 -76 -135q-43 -26 -126 -30q-21 -1 -31.5 -2t-25 -4.5t-21 -10t-6.5 -17.5q0 -31 75 -31q16 -2 56 -2q103 -2 156 -33t53 -103q0 -36 -13 -65t-32 -47t-48 -31t-52 -19t-54.5 -9.5t-45.5 -4t-33 -0.5q-247 0 -247 119q0 84 117 104
v2q-69 20 -69 76q0 68 98 98v2q-107 39 -107 153q0 78 54.5 132t163.5 54q56 0 100 -17h165zM257 435q-26 0 -43 -14t-23.5 -37t-8 -36.5t-1.5 -26.5q0 -38 17.5 -69t56.5 -31q30 0 53 24t23 83q0 107 -74 107zM267 -43q-129 0 -129 -51q0 -55 128 -55q30 0 56.5 4t50 18
t23.5 37q0 47 -129 47zM110 690h95q1 -10 3 -16t7 -17t17 -17t30 -6q25 0 39.5 15.5t17.5 40.5h94q-17 -129 -154 -129q-70 0 -106.5 36.5t-42.5 92.5z" />
    <glyph glyph-name="Gdotaccent" unicode="&#x120;" horiz-adv-x="750" 
d="M524 463v37q0 43 -11 63q-14 25 -44.5 36.5t-62.5 11.5q-95 0 -145 -72.5t-50 -187.5q0 -114 49 -184.5t150 -70.5q41 0 94 19v101q0 12 -1 18.5t-5 13t-13 9t-24 2.5h-27v89h284v-89h-28q-23 0 -32 -8.5t-9 -32.5v-179q-122 -60 -244 -60q-94 0 -152 23t-102 67
q-102 101 -102 272q0 54 11 104.5t38.5 100.5t68 86.5t104.5 59.5t144 23q133 0 237 -54v-198h-128zM415 877q26 0 44.5 -18.5t18.5 -44.5q0 -25 -18 -43.5t-45 -18.5q-25 0 -43.5 18t-18.5 44q0 27 18.5 45t43.5 18z" />
    <glyph glyph-name="gdotaccent" unicode="&#x121;" horiz-adv-x="543" 
d="M522 490v-90h-76q25 -42 25 -89q0 -88 -76 -135q-43 -26 -126 -30q-21 -1 -31.5 -2t-25 -4.5t-21 -10t-6.5 -17.5q0 -31 75 -31q16 -2 56 -2q103 -2 156 -33t53 -103q0 -36 -13 -65t-32 -47t-48 -31t-52 -19t-54.5 -9.5t-45.5 -4t-33 -0.5q-247 0 -247 119q0 84 117 104
v2q-69 20 -69 76q0 68 98 98v2q-107 39 -107 153q0 78 54.5 132t163.5 54q56 0 100 -17h165zM257 435q-26 0 -43 -14t-23.5 -37t-8 -36.5t-1.5 -26.5q0 -38 17.5 -69t56.5 -31q30 0 53 24t23 83q0 107 -74 107zM267 -43q-129 0 -129 -51q0 -55 128 -55q30 0 56.5 4t50 18
t23.5 37q0 47 -129 47zM261 687q26 0 44.5 -18.5t18.5 -44.5q0 -25 -18 -43.5t-45 -18.5q-25 0 -43.5 18t-18.5 44q0 27 18.5 45t43.5 18z" />
    <glyph glyph-name="Gcommaaccent" unicode="&#x122;" horiz-adv-x="750" 
d="M524 463v37q0 43 -11 63q-14 25 -44.5 36.5t-62.5 11.5q-95 0 -145 -72.5t-50 -187.5q0 -114 49 -184.5t150 -70.5q41 0 94 19v101q0 12 -1 18.5t-5 13t-13 9t-24 2.5h-27v89h284v-89h-28q-23 0 -32 -8.5t-9 -32.5v-179q-122 -60 -244 -60q-94 0 -152 23t-102 67
q-102 101 -102 272q0 54 11 104.5t38.5 100.5t68 86.5t104.5 59.5t144 23q133 0 237 -54v-198h-128zM343 -233v42q31 2 44.5 15t14.5 27q-22 1 -35.5 11.5t-16.5 20t-3 18.5q0 21 18 35t42 14q30 0 48 -20.5t18 -49.5q0 -37 -29.5 -70.5t-100.5 -42.5z" />
    <glyph glyph-name="gcommaaccent" unicode="&#x123;" horiz-adv-x="543" 
d="M326 806v-57q-15 -6 -24 -10t-22 -18.5t-17 -34.5q24 -4 38 -18.5t17 -26t3 -21.5q0 -28 -19.5 -47t-44.5 -19q-32 0 -54 26t-22 67q0 16 5.5 34t19 41t44.5 45.5t76 38.5zM522 490v-90h-76q25 -42 25 -89q0 -88 -76 -135q-43 -26 -126 -30q-21 -1 -31.5 -2t-25 -4.5
t-21 -10t-6.5 -17.5q0 -31 75 -31q16 -2 56 -2q103 -2 156 -33t53 -103q0 -36 -13 -65t-32 -47t-48 -31t-52 -19t-54.5 -9.5t-45.5 -4t-33 -0.5q-247 0 -247 119q0 84 117 104v2q-69 20 -69 76q0 68 98 98v2q-107 39 -107 153q0 78 54.5 132t163.5 54q56 0 100 -17h165z
M257 435q-26 0 -43 -14t-23.5 -37t-8 -36.5t-1.5 -26.5q0 -38 17.5 -69t56.5 -31q30 0 53 24t23 83q0 107 -74 107zM267 -43q-129 0 -129 -51q0 -55 128 -55q30 0 56.5 4t50 18t23.5 37q0 47 -129 47z" />
    <glyph glyph-name="Hcircumflex" unicode="&#x124;" horiz-adv-x="771" 
d="M40 694h290v-89h-24q-28 0 -36.5 -9.5t-8.5 -35.5v-133h248v133q0 17 -2 25t-12.5 14t-31.5 6h-22v89h290v-89h-21q-30 0 -38.5 -8t-8.5 -37v-427q0 -27 8.5 -35.5t38.5 -8.5h21v-89h-290v89h22q30 0 38 8.5t8 35.5v178h-248v-182q0 -13 1.5 -20t12 -13.5t31.5 -6.5h24
v-89h-290v89h24q16 0 25.5 2.5t13.5 10t4.5 14t0.5 21.5v420q0 28 -7.5 38t-36.5 10h-24v89zM332 751h-114l94 130h146l95 -130h-116l-53 70z" />
    <glyph glyph-name="hcircumflex" unicode="&#x125;" horiz-adv-x="604" 
d="M585 82v-82h-258v82q36 0 42.5 8.5t6.5 54.5v133q0 22 -0.5 33t-4 29t-9.5 27t-19 16t-32 7q-86 0 -86 -133v-112q0 -46 6.5 -54.5t42.5 -8.5v-82h-258v82q43 0 52 7.5t9 48.5v418q0 37 -5.5 49t-31.5 12h-28v80l213 18v-290h2q4 10 12 20.5t23.5 25t44.5 24t65 9.5
q112 0 146 -92q12 -32 12 -113v-156q0 -45 7 -53t48 -8zM249 763h-114l94 130h146l95 -130h-116l-53 70z" />
    <glyph glyph-name="Hbar" unicode="&#x126;" horiz-adv-x="771" 
d="M40 535h68v22q0 28 -7.5 38t-36.5 10h-24v89h290v-89h-24q-28 0 -36.5 -9.5t-8.5 -35.5v-25h248v25q0 17 -2 25t-12.5 14t-31.5 6h-22v89h290v-89h-21q-30 0 -38.5 -8t-8.5 -37v-25h68v-66h-68v-336q0 -27 8.5 -35.5t38.5 -8.5h21v-89h-290v89h22q30 0 38 8.5t8 35.5v178
h-248v-182q0 -13 1.5 -20t12 -13.5t31.5 -6.5h24v-89h-290v89h24q16 0 25.5 2.5t13.5 10t4.5 14t0.5 21.5v332h-68v66zM261 427h248v42h-248v-42z" />
    <glyph glyph-name="hbar" unicode="&#x127;" horiz-adv-x="604" 
d="M327 82q32 0 40.5 6t8.5 33v119q0 22 -0.5 33t-4 29t-9.5 27t-19 16t-32 7q-86 0 -86 -133v-74q0 -46 6.5 -54.5t42.5 -8.5v-82h-258v82q43 0 52 7.5t9 48.5v357h-59v82h59q-1 22 -8 31t-29 9h-28v80l213 18v-138h116v-82h-116v-108h2q4 10 12 20.5t23.5 25t44.5 24
t65 9.5q112 0 146 -92q12 -32 12 -113v-141q0 -27 9 -32.5t46 -5.5v-82h-258v82z" />
    <glyph glyph-name="Itilde" unicode="&#x128;" horiz-adv-x="375" 
d="M43 694h289v-89h-22q-17 0 -26 -2.5t-13.5 -10.5t-5 -15t-0.5 -25v-415q0 -30 7 -39t38 -9h22v-89h-289v89h22q32 0 39 9t7 39v422q0 28 -8 37t-38 9h-22v89zM287 875h80q0 -61 -31 -92.5t-71 -31.5q-39 0 -82 20q-49 20 -64 20q-28 0 -31 -40h-80q1 61 28 92.5t72 31.5
q36 0 117 -32q17 -7 31 -7q27 0 31 39z" />
    <glyph glyph-name="itilde" unicode="&#x129;" horiz-adv-x="313" 
d="M234 498v-355q0 -45 7 -53t48 -8v-82h-264v82h25q27 0 32.5 10t5.5 53v179q0 28 -0.5 39t-3.5 21.5t-8.5 12.5t-17.5 2q-13 0 -36 -1v81zM256 685h80q0 -61 -31 -92.5t-71 -31.5t-82 20q-49 20 -64 20q-28 0 -31 -40h-80q1 61 28 92.5t72 31.5q36 0 117 -32q17 -7 31 -7
q27 0 31 39z" />
    <glyph glyph-name="Imacron" unicode="&#x12a;" horiz-adv-x="375" 
d="M43 694h289v-89h-22q-17 0 -26 -2.5t-13.5 -10.5t-5 -15t-0.5 -25v-415q0 -30 7 -39t38 -9h22v-89h-289v89h22q32 0 39 9t7 39v422q0 28 -8 37t-38 9h-22v89zM10 856h355v-86h-355v86z" />
    <glyph glyph-name="imacron" unicode="&#x12b;" horiz-adv-x="313" 
d="M234 498v-355q0 -45 7 -53t48 -8v-82h-264v82h25q27 0 32.5 10t5.5 53v179q0 28 -0.5 39t-3.5 21.5t-8.5 12.5t-17.5 2q-13 0 -36 -1v81zM-21 666h355v-86h-355v86z" />
    <glyph glyph-name="Ibreve" unicode="&#x12c;" horiz-adv-x="375" 
d="M43 694h289v-89h-22q-17 0 -26 -2.5t-13.5 -10.5t-5 -15t-0.5 -25v-415q0 -30 7 -39t38 -9h22v-89h-289v89h22q32 0 39 9t7 39v422q0 28 -8 37t-38 9h-22v89zM36 880h95q1 -10 3 -16t7 -17t17 -17t30 -6q25 0 39.5 15.5t17.5 40.5h94q-17 -129 -154 -129
q-70 0 -106.5 36.5t-42.5 92.5z" />
    <glyph glyph-name="ibreve" unicode="&#x12d;" horiz-adv-x="313" 
d="M234 498v-355q0 -45 7 -53t48 -8v-82h-264v82h25q27 0 32.5 10t5.5 53v179q0 28 -0.5 39t-3.5 21.5t-8.5 12.5t-17.5 2q-13 0 -36 -1v81zM5 690h95q1 -10 3 -16t7 -17t17 -17t30 -6q25 0 39.5 15.5t17.5 40.5h94q-17 -129 -154 -129q-70 0 -106.5 36.5t-42.5 92.5z" />
    <glyph glyph-name="Iogonek" unicode="&#x12e;" horiz-adv-x="375" 
d="M43 694h289v-89h-22q-17 0 -26 -2.5t-13.5 -10.5t-5 -15t-0.5 -25v-415q0 -30 7 -39t38 -9h22v-89h-94q-58 -44 -58 -81q0 -25 17 -35.5t38 -10.5q15 0 45 7v-64q-42 -11 -72 -11q-53 0 -83 27.5t-30 64.5q0 55 59 103h-111v89h22q32 0 39 9t7 39v422q0 28 -8 37t-38 9
h-22v89z" />
    <glyph glyph-name="iogonek" unicode="&#x12f;" horiz-adv-x="313" 
d="M234 498v-355q0 -45 7 -53t48 -8v-82h-82q-58 -44 -58 -81q0 -25 17 -35.5t38 -10.5q15 0 45 7v-64q-42 -11 -72 -11q-53 0 -83 27.5t-30 64.5q0 55 59 103h-98v82h25q27 0 32.5 10t5.5 53v179q0 28 -0.5 39t-3.5 21.5t-8.5 12.5t-17.5 2q-13 0 -36 -1v81zM147 715
q48 0 69.5 -21.5t21.5 -50.5q0 -38 -27.5 -56.5t-61.5 -18.5q-36 0 -64.5 17t-28.5 57q0 27 20.5 50t70.5 23z" />
    <glyph glyph-name="Idotaccent" unicode="&#x130;" horiz-adv-x="375" 
d="M43 694h289v-89h-22q-17 0 -26 -2.5t-13.5 -10.5t-5 -15t-0.5 -25v-415q0 -30 7 -39t38 -9h22v-89h-289v89h22q32 0 39 9t7 39v422q0 28 -8 37t-38 9h-22v89zM187 877q26 0 44.5 -18.5t18.5 -44.5q0 -25 -18 -43.5t-45 -18.5q-25 0 -43.5 18t-18.5 44q0 27 18.5 45
t43.5 18z" />
    <glyph glyph-name="dotlessi" unicode="&#x131;" horiz-adv-x="313" 
d="M234 498v-355q0 -45 7 -53t48 -8v-82h-264v82h25q27 0 32.5 10t5.5 53v179q0 28 -0.5 39t-3.5 21.5t-8.5 12.5t-17.5 2q-13 0 -36 -1v81z" />
    <glyph glyph-name="Jcircumflex" unicode="&#x134;" horiz-adv-x="531" 
d="M33 181h104q0 -22 1 -34t6.5 -28.5t19.5 -24.5t36 -8q46 0 60.5 29.5t14.5 85.5v358q0 28 -8 37t-35 9h-31v89h296v-89h-25q-28 0 -35.5 -9t-7.5 -37v-334q0 -40 -4.5 -72t-19 -66t-39 -56.5t-67.5 -37t-101 -14.5q-52 0 -86 8.5t-79 27.5v166zM294 751h-114l94 130h146
l95 -130h-116l-53 70z" />
    <glyph glyph-name="jcircumflex" unicode="&#x135;" horiz-adv-x="313" 
d="M242 498v-484q0 -49 -7.5 -87t-26.5 -75.5t-59.5 -58t-99.5 -20.5q-65 0 -125 20v126h82q0 -18 1 -28t10.5 -21t27.5 -11q16 0 26 6.5t13.5 23.5t4.5 31t1 45v359q0 52 -5 63.5t-30 11.5h-27v80zM103 561h-114l94 130h146l95 -130h-116l-53 70z" />
    <glyph glyph-name="Kcommaaccent" unicode="&#x136;" horiz-adv-x="708" 
d="M43 694h285v-89h-16q-33 0 -42 -8t-9 -40v-177l154 170q22 24 22 36q0 19 -39 19v89h279v-89q-37 0 -56.5 -11.5t-41.5 -36.5l-170 -192l195 -219q24 -26 46 -39.5t33.5 -15.5t28.5 -2v-89h-328v89h22q27 0 27 17q0 13 -21 37l-151 175v-182q0 -19 1.5 -27t10.5 -14
t28 -6h16v-89h-274v89h26q27 0 34.5 8.5t7.5 33.5v426q0 18 -1.5 26t-11 15t-29.5 7h-26v89zM289 -233v42q31 2 44.5 15t14.5 27q-22 1 -35.5 11.5t-16.5 20t-3 18.5q0 21 18 35t42 14q30 0 48 -20.5t18 -49.5q0 -37 -29.5 -70.5t-100.5 -42.5z" />
    <glyph glyph-name="kcommaaccent" unicode="&#x137;" horiz-adv-x="592" 
d="M229 715v-440l95 87q21 18 21 30q0 11 -8.5 13.5t-30.5 2.5v82h262v-82q-22 0 -34.5 -6t-39.5 -29l-115 -101l121 -142l4 -5q23 -27 40 -35.5t43 -7.5v-82h-289v82q23 0 31 2t8 12q0 6 -10 19l-98 110v-225h-207v82h15q28 0 34.5 8t6.5 37v436q0 30 -6.5 41.5t-30.5 11.5
h-28v80zM235 -233v42q31 2 44.5 15t14.5 27q-22 1 -35.5 11.5t-16.5 20t-3 18.5q0 21 18 35t42 14q30 0 48 -20.5t18 -49.5q0 -37 -29.5 -70.5t-100.5 -42.5z" />
    <glyph glyph-name="kgreenlandic" unicode="&#x138;" horiz-adv-x="592" 
d="M229 490v-215l95 87q21 18 21 30q0 11 -8.5 13.5t-30.5 2.5v82h262v-82q-22 0 -34.5 -6t-39.5 -29l-115 -101l121 -142l4 -5q23 -27 40 -35.5t43 -7.5v-82h-289v82q23 0 31 2t8 12q0 6 -10 19l-98 110v-225h-207v82h15q28 0 34.5 8t6.5 37v220q0 30 -6.5 41.5t-30.5 11.5
h-19v90h207z" />
    <glyph glyph-name="Lacute" unicode="&#x139;" horiz-adv-x="594" 
d="M40 694h297v-89h-30q-32 0 -39 -9.5t-7 -37.5v-451h150q28 0 35.5 9t7.5 33v55h115v-204h-529v89h24q16 0 25.5 2.5t13 10t4.5 13.5t1 19v424q0 15 -1 21.5t-5 13.5t-14 9.5t-27 2.5h-21v89zM196 880h153l-112 -129h-101z" />
    <glyph glyph-name="lacute" unicode="&#x13a;" horiz-adv-x="313" 
d="M234 715v-572q0 -45 7 -53t49 -8v-82h-262v82h20q28 0 33.5 10t5.5 53v412q0 37 -5.5 49t-31.5 12h-28v80zM145 901h153l-112 -129h-101z" />
    <glyph glyph-name="Lcommaaccent" unicode="&#x13b;" horiz-adv-x="594" 
d="M40 694h297v-89h-30q-32 0 -39 -9.5t-7 -37.5v-451h150q28 0 35.5 9t7.5 33v55h115v-204h-529v89h24q16 0 25.5 2.5t13 10t4.5 13.5t1 19v424q0 15 -1 21.5t-5 13.5t-14 9.5t-27 2.5h-21v89zM232 -233v42q31 2 44.5 15t14.5 27q-22 1 -35.5 11.5t-16.5 20t-3 18.5
q0 21 18 35t42 14q30 0 48 -20.5t18 -49.5q0 -37 -29.5 -70.5t-100.5 -42.5z" />
    <glyph glyph-name="lcommaaccent" unicode="&#x13c;" horiz-adv-x="313" 
d="M234 715v-572q0 -45 7 -53t49 -8v-82h-262v82h20q28 0 33.5 10t5.5 53v412q0 37 -5.5 49t-31.5 12h-28v80zM92 -233v42q31 2 44.5 15t14.5 27q-22 1 -35.5 11.5t-16.5 20t-3 18.5q0 21 18 35t42 14q30 0 48 -20.5t18 -49.5q0 -37 -29.5 -70.5t-100.5 -42.5z" />
    <glyph glyph-name="Lcaron" unicode="&#x13d;" horiz-adv-x="594" 
d="M386 412v64q33 16 50 37t21 55q-37 7 -51 29.5t-14 44.5q0 31 22 52t51 21q36 0 60 -28.5t24 -75.5q0 -19 -6 -41.5t-21 -53t-50.5 -58.5t-85.5 -46zM40 694h297v-89h-30q-32 0 -39 -9.5t-7 -37.5v-451h150q28 0 35.5 9t7.5 33v55h115v-204h-529v89h24q16 0 25.5 2.5
t13 10t4.5 13.5t1 19v424q0 15 -1 21.5t-5 13.5t-14 9.5t-27 2.5h-21v89z" />
    <glyph glyph-name="lcaron" unicode="&#x13e;" horiz-adv-x="313" 
d="M276 412v64q33 16 50 37t21 55q-37 7 -51 29.5t-14 44.5q0 31 22 52t51 21q36 0 60 -28.5t24 -75.5q0 -19 -6 -41.5t-21 -53t-50.5 -58.5t-85.5 -46zM234 715v-572q0 -45 7 -53t49 -8v-82h-262v82h20q28 0 33.5 10t5.5 53v412q0 37 -5.5 49t-31.5 12h-28v80z" />
    <glyph glyph-name="Ldot" unicode="&#x13f;" horiz-adv-x="594" 
d="M40 694h297v-89h-30q-32 0 -39 -9.5t-7 -37.5v-451h150q28 0 35.5 9t7.5 33v55h115v-204h-529v89h24q16 0 25.5 2.5t13 10t4.5 13.5t1 19v424q0 15 -1 21.5t-5 13.5t-14 9.5t-27 2.5h-21v89zM411 476q34 0 58 -24.5t24 -58.5t-24 -58t-58 -24t-58.5 24t-24.5 58
q0 35 24 59t59 24z" />
    <glyph glyph-name="ldot" unicode="&#x140;" horiz-adv-x="429" 
d="M234 715v-572q0 -45 7 -53t49 -8v-82h-262v82h20q28 0 33.5 10t5.5 53v412q0 37 -5.5 49t-31.5 12h-28v80zM365 457q34 0 58 -24.5t24 -58.5t-24 -58t-58 -24t-58.5 24t-24.5 58t24 58.5t59 24.5z" />
    <glyph glyph-name="Lslash" unicode="&#x141;" horiz-adv-x="594" 
d="M261 450l143 91v-114l-143 -91v-229h150q28 0 35.5 9t7.5 33v55h115v-204h-529v89h24q16 0 25.5 2.5t13 10t4.5 13.5t1 19v103l-68 -44v114l68 44v207q0 15 -1 21.5t-5 13.5t-14 9.5t-27 2.5h-21v89h297v-89h-30q-32 0 -39 -9.5t-7 -37.5v-108z" />
    <glyph glyph-name="lslash" unicode="&#x142;" horiz-adv-x="313" 
d="M234 715v-216l75 62v-116l-75 -62v-240q0 -45 7 -53t49 -8v-82h-262v82h20q28 0 33.5 10t5.5 53v115l-77 -67v116l77 67v181q0 37 -5.5 49t-31.5 12h-28v80z" />
    <glyph glyph-name="Nacute" unicode="&#x143;" horiz-adv-x="750" 
d="M42 694h254l228 -452h2v315q0 28 -8 38t-40 10h-17v89h257v-89h-25q-30 0 -36.5 -9.5t-6.5 -38.5v-557h-153l-261 503h-2v-368q0 -14 1 -20.5t5 -13.5t13.5 -9.5t26.5 -2.5h21v-89h-259v89h22q22 0 32 5.5t11.5 13.5t1.5 27v424q0 14 -1 20t-5 13.5t-13.5 10t-25.5 2.5
h-22v89zM374 880h153l-112 -129h-101z" />
    <glyph glyph-name="nacute" unicode="&#x144;" horiz-adv-x="615" 
d="M282 82v-82h-251v82q40 0 47.5 7.5t7.5 50.5v178q0 64 -9 73q-8 7 -53 4v82l199 16q9 -30 9 -70h2q47 81 146 81q113 0 147 -91q12 -31 12 -110v-160q0 -45 7 -53t48 -8v-82h-259v82q37 0 43.5 8.5t6.5 54.5v131q0 27 -1.5 43t-7.5 34.5t-20 27.5t-37 9q-86 0 -86 -135
v-110q0 -46 6.5 -54.5t42.5 -8.5zM296 690h153l-112 -129h-101z" />
    <glyph glyph-name="Ncommaaccent" unicode="&#x145;" horiz-adv-x="750" 
d="M42 694h254l228 -452h2v315q0 28 -8 38t-40 10h-17v89h257v-89h-25q-30 0 -36.5 -9.5t-6.5 -38.5v-557h-153l-261 503h-2v-368q0 -14 1 -20.5t5 -13.5t13.5 -9.5t26.5 -2.5h21v-89h-259v89h22q22 0 32 5.5t11.5 13.5t1.5 27v424q0 14 -1 20t-5 13.5t-13.5 10t-25.5 2.5
h-22v89zM310 -233v42q31 2 44.5 15t14.5 27q-22 1 -35.5 11.5t-16.5 20t-3 18.5q0 21 18 35t42 14q30 0 48 -20.5t18 -49.5q0 -37 -29.5 -70.5t-100.5 -42.5z" />
    <glyph glyph-name="ncommaaccent" unicode="&#x146;" horiz-adv-x="615" 
d="M282 82v-82h-251v82q40 0 47.5 7.5t7.5 50.5v178q0 64 -9 73q-8 7 -53 4v82l199 16q9 -30 9 -70h2q47 81 146 81q113 0 147 -91q12 -31 12 -110v-160q0 -45 7 -53t48 -8v-82h-259v82q37 0 43.5 8.5t6.5 54.5v131q0 27 -1.5 43t-7.5 34.5t-20 27.5t-37 9q-86 0 -86 -135
v-110q0 -46 6.5 -54.5t42.5 -8.5zM243 -233v42q31 2 44.5 15t14.5 27q-22 1 -35.5 11.5t-16.5 20t-3 18.5q0 21 18 35t42 14q30 0 48 -20.5t18 -49.5q0 -37 -29.5 -70.5t-100.5 -42.5z" />
    <glyph glyph-name="Ncaron" unicode="&#x147;" horiz-adv-x="750" 
d="M42 694h254l228 -452h2v315q0 28 -8 38t-40 10h-17v89h257v-89h-25q-30 0 -36.5 -9.5t-6.5 -38.5v-557h-153l-261 503h-2v-368q0 -14 1 -20.5t5 -13.5t13.5 -9.5t26.5 -2.5h21v-89h-259v89h22q22 0 32 5.5t11.5 13.5t1.5 27v424q0 14 -1 20t-5 13.5t-13.5 10t-25.5 2.5
h-22v89zM429 881h114l-94 -130h-146l-95 130h116l53 -70z" />
    <glyph glyph-name="ncaron" unicode="&#x148;" horiz-adv-x="615" 
d="M282 82v-82h-251v82q40 0 47.5 7.5t7.5 50.5v178q0 64 -9 73q-8 7 -53 4v82l199 16q9 -30 9 -70h2q47 81 146 81q113 0 147 -91q12 -31 12 -110v-160q0 -45 7 -53t48 -8v-82h-259v82q37 0 43.5 8.5t6.5 54.5v131q0 27 -1.5 43t-7.5 34.5t-20 27.5t-37 9q-86 0 -86 -135
v-110q0 -46 6.5 -54.5t42.5 -8.5zM361 691h114l-94 -130h-146l-95 130h116l53 -70z" />
    <glyph glyph-name="Eng" unicode="&#x14a;" horiz-adv-x="750" 
d="M329 -25h84q0 -22 1 -34t5 -28.5t15.5 -24.5t29.5 -8q38 0 49.5 19t11.5 69v32l-289 503h-2v-368q0 -14 1 -20.5t5 -13.5t13.5 -9.5t26.5 -2.5h21v-89h-259v89h22q22 0 32 5.5t11.5 13.5t1.5 27v424q0 14 -1 20t-5 13.5t-13.5 10t-25.5 2.5h-22v89h254l230 -405v268
q0 28 -8 38t-40 10h-17v89h257v-89h-25q-30 0 -36.5 -9.5t-6.5 -38.5l-1 -557q0 -48 -7.5 -85t-26.5 -71t-58 -52.5t-95 -18.5q-42 0 -69.5 8.5t-63.5 27.5v166z" />
    <glyph glyph-name="eng" unicode="&#x14b;" horiz-adv-x="615" 
d="M282 82v-82h-251v82q40 0 47.5 7.5t7.5 50.5v178q0 64 -9 73q-8 7 -53 4v82l199 16q9 -30 9 -70h2q47 81 146 81q113 0 147 -91q12 -31 12 -110v-289q0 -241 -196 -241q-65 0 -125 20v126h82q0 -18 1 -28t10.5 -21t27.5 -11q16 0 26 6.5t13.5 23.5t4.5 31t1 45v350
q0 75 -65 75q-86 0 -86 -135v-110q0 -46 6.5 -54.5t42.5 -8.5z" />
    <glyph glyph-name="Omacron" unicode="&#x14c;" horiz-adv-x="781" 
d="M46 340q0 171 93.5 273t257.5 102q165 0 252 -98t87 -258q0 -166 -90.5 -273t-256.5 -107q-165 0 -254 101.5t-89 259.5zM206 343q0 -50 8.5 -92.5t28.5 -80.5t57.5 -59.5t90.5 -21.5q54 0 91.5 23.5t56.5 65t27 85t8 94.5q0 19 -1 34.5t-5.5 49t-16.5 58.5t-30.5 51
t-51.5 40.5t-76 14.5q-93 0 -140 -71t-47 -191zM213 856h355v-86h-355v86z" />
    <glyph glyph-name="omacron" unicode="&#x14d;" horiz-adv-x="583" 
d="M543 262q0 -54 -14 -101.5t-43 -88t-81 -64t-122 -23.5q-60 0 -105.5 19t-71 46t-41 63.5t-20.5 65.5t-5 57q0 36 6.5 71t24.5 72.5t45.5 65.5t73 46t104.5 18q124 0 186.5 -69.5t62.5 -177.5zM394 254q0 12 -0.5 21.5t-3 30t-9.5 36.5t-17.5 32.5t-29 25.5t-42.5 9
q-34 0 -56.5 -19t-32 -49.5t-12.5 -53t-3 -45.5q0 -11 0.5 -23.5t6.5 -38.5t16 -45t31.5 -34t50.5 -15q101 0 101 168zM114 666h355v-86h-355v86z" />
    <glyph glyph-name="Obreve" unicode="&#x14e;" horiz-adv-x="781" 
d="M46 340q0 171 93.5 273t257.5 102q165 0 252 -98t87 -258q0 -166 -90.5 -273t-256.5 -107q-165 0 -254 101.5t-89 259.5zM206 343q0 -50 8.5 -92.5t28.5 -80.5t57.5 -59.5t90.5 -21.5q54 0 91.5 23.5t56.5 65t27 85t8 94.5q0 19 -1 34.5t-5.5 49t-16.5 58.5t-30.5 51
t-51.5 40.5t-76 14.5q-93 0 -140 -71t-47 -191zM249 880h95q1 -10 3 -16t7 -17t17 -17t30 -6q25 0 39.5 15.5t17.5 40.5h94q-17 -129 -154 -129q-70 0 -106.5 36.5t-42.5 92.5z" />
    <glyph glyph-name="obreve" unicode="&#x14f;" horiz-adv-x="583" 
d="M543 262q0 -54 -14 -101.5t-43 -88t-81 -64t-122 -23.5q-60 0 -105.5 19t-71 46t-41 63.5t-20.5 65.5t-5 57q0 36 6.5 71t24.5 72.5t45.5 65.5t73 46t104.5 18q124 0 186.5 -69.5t62.5 -177.5zM394 254q0 12 -0.5 21.5t-3 30t-9.5 36.5t-17.5 32.5t-29 25.5t-42.5 9
q-34 0 -56.5 -19t-32 -49.5t-12.5 -53t-3 -45.5q0 -11 0.5 -23.5t6.5 -38.5t16 -45t31.5 -34t50.5 -15q101 0 101 168zM145 690h95q1 -10 3 -16t7 -17t17 -17t30 -6q25 0 39.5 15.5t17.5 40.5h94q-17 -129 -154 -129q-70 0 -106.5 36.5t-42.5 92.5z" />
    <glyph glyph-name="Ohungarumlaut" unicode="&#x150;" horiz-adv-x="781" 
d="M46 340q0 171 93.5 273t257.5 102q165 0 252 -98t87 -258q0 -166 -90.5 -273t-256.5 -107q-165 0 -254 101.5t-89 259.5zM206 343q0 -50 8.5 -92.5t28.5 -80.5t57.5 -59.5t90.5 -21.5q54 0 91.5 23.5t56.5 65t27 85t8 94.5q0 19 -1 34.5t-5.5 49t-16.5 58.5t-30.5 51
t-51.5 40.5t-76 14.5q-93 0 -140 -71t-47 -191zM292 880h153l-112 -129h-101zM486 880h153l-112 -129h-101z" />
    <glyph glyph-name="ohungarumlaut" unicode="&#x151;" horiz-adv-x="583" 
d="M543 262q0 -54 -14 -101.5t-43 -88t-81 -64t-122 -23.5q-60 0 -105.5 19t-71 46t-41 63.5t-20.5 65.5t-5 57q0 36 6.5 71t24.5 72.5t45.5 65.5t73 46t104.5 18q124 0 186.5 -69.5t62.5 -177.5zM394 254q0 12 -0.5 21.5t-3 30t-9.5 36.5t-17.5 32.5t-29 25.5t-42.5 9
q-34 0 -56.5 -19t-32 -49.5t-12.5 -53t-3 -45.5q0 -11 0.5 -23.5t6.5 -38.5t16 -45t31.5 -34t50.5 -15q101 0 101 168zM193 690h153l-112 -129h-101zM387 690h153l-112 -129h-101z" />
    <glyph glyph-name="OE" unicode="&#x152;" horiz-adv-x="1031" 
d="M663 410h108q17 0 21.5 3t4.5 19v31h109v-220h-109v30q0 17 -4 22.5t-22 5.5h-108v-195h160q16 0 22.5 0.5t14.5 4.5t10.5 13t2.5 24v43h114v-191h-408q-13 0 -81 -2q-51 -3 -79 -3q-189 0 -279 95q-91 98 -91 253q0 38 7 77t23.5 83t49.5 83.5t79 65.5q86 45 218 45
q76 0 92 -2l78 -1h379v-181h-114v28q0 14 -0.5 20t-4.5 12.5t-13 9t-25 2.5h-155v-175zM515 152v393q0 16 -1.5 23t-8 15.5t-22.5 11.5t-44 3q-80 0 -127 -27q-33 -19 -55.5 -50t-32 -66t-13 -61t-3.5 -51q0 -155 100 -218q47 -29 141 -29q24 0 38 3t20 12t7 16.5t1 24.5z
" />
    <glyph glyph-name="oe" unicode="&#x153;" horiz-adv-x="865" 
d="M829 223h-306q6 -56 40.5 -90t85.5 -34q87 0 167 58v-117q-89 -54 -200 -54q-115 0 -167 71q-17 -19 -30.5 -31t-52.5 -26t-89 -14q-60 0 -105.5 19t-70 46.5t-39.5 64t-19.5 65t-4.5 56.5q0 113 66 190t189 77q49 0 88 -15.5t51 -26.5t28 -29q59 71 150 71q46 0 82 -12
t58.5 -29.5t39 -45.5t24 -50.5t11.5 -54.5t4 -48v-41zM522 312h170q-5 103 -80 103q-10 0 -21 -3.5t-26.5 -12.5t-27 -31.5t-15.5 -55.5zM186 243q0 -159 104 -159q101 0 101 166q0 156 -101 156q-34 0 -57 -19t-32 -49.5t-12 -52t-3 -42.5z" />
    <glyph glyph-name="Racute" unicode="&#x154;" horiz-adv-x="677" 
d="M42 605v89h308q81 0 127 -18q35 -14 59.5 -38t35 -52t14.5 -49t4 -42q0 -114 -97 -172l95 -178q17 -33 35 -44.5t46 -11.5h20v-89h-201l-138 288h-97v-159q0 -24 8 -32t36 -8h23v-89h-278v89h23q16 0 25.5 2.5t13.5 9t4.5 12.5t0.5 20v424q0 19 -1.5 27t-11.5 14.5
t-31 6.5h-23zM253 591v-202h72q120 0 120 103q0 99 -116 99h-76zM287 880h153l-112 -129h-101z" />
    <glyph glyph-name="racute" unicode="&#x155;" horiz-adv-x="417" 
d="M22 478l193 14q9 -41 10 -84h2q6 12 14.5 23.5t24.5 28.5t40 27.5t52 10.5q25 0 61 -14v-152h-91q0 12 -1 18t-6.5 12.5t-16.5 6.5q-10 0 -21.5 -6.5t-25.5 -22.5t-22.5 -51.5t-8.5 -85.5v-84q0 -22 7 -29.5t33 -7.5h26v-82h-266v82h15q27 0 35 8t8 35v231q0 24 -6 32.5
t-25 8.5h-31v81zM197 690h153l-112 -129h-101z" />
    <glyph glyph-name="Rcommaaccent" unicode="&#x156;" horiz-adv-x="677" 
d="M42 605v89h308q81 0 127 -18q35 -14 59.5 -38t35 -52t14.5 -49t4 -42q0 -114 -97 -172l95 -178q17 -33 35 -44.5t46 -11.5h20v-89h-201l-138 288h-97v-159q0 -24 8 -32t36 -8h23v-89h-278v89h23q16 0 25.5 2.5t13.5 9t4.5 12.5t0.5 20v424q0 19 -1.5 27t-11.5 14.5
t-31 6.5h-23zM253 591v-202h72q120 0 120 103q0 99 -116 99h-76zM274 -233v42q31 2 44.5 15t14.5 27q-22 1 -35.5 11.5t-16.5 20t-3 18.5q0 21 18 35t42 14q30 0 48 -20.5t18 -49.5q0 -37 -29.5 -70.5t-100.5 -42.5z" />
    <glyph glyph-name="rcommaaccent" unicode="&#x157;" horiz-adv-x="417" 
d="M22 478l193 14q9 -41 10 -84h2q6 12 14.5 23.5t24.5 28.5t40 27.5t52 10.5q25 0 61 -14v-152h-91q0 12 -1 18t-6.5 12.5t-16.5 6.5q-10 0 -21.5 -6.5t-25.5 -22.5t-22.5 -51.5t-8.5 -85.5v-84q0 -22 7 -29.5t33 -7.5h26v-82h-266v82h15q27 0 35 8t8 35v231q0 24 -6 32.5
t-25 8.5h-31v81zM114 -233v42q31 2 44.5 15t14.5 27q-22 1 -35.5 11.5t-16.5 20t-3 18.5q0 21 18 35t42 14q30 0 48 -20.5t18 -49.5q0 -37 -29.5 -70.5t-100.5 -42.5z" />
    <glyph glyph-name="Rcaron" unicode="&#x158;" horiz-adv-x="677" 
d="M42 605v89h308q81 0 127 -18q35 -14 59.5 -38t35 -52t14.5 -49t4 -42q0 -114 -97 -172l95 -178q17 -33 35 -44.5t46 -11.5h20v-89h-201l-138 288h-97v-159q0 -24 8 -32t36 -8h23v-89h-278v89h23q16 0 25.5 2.5t13.5 9t4.5 12.5t0.5 20v424q0 19 -1.5 27t-11.5 14.5
t-31 6.5h-23zM253 591v-202h72q120 0 120 103q0 99 -116 99h-76zM333 881h114l-94 -130h-146l-95 130h116l53 -70z" />
    <glyph glyph-name="rcaron" unicode="&#x159;" horiz-adv-x="417" 
d="M22 478l193 14q9 -41 10 -84h2q6 12 14.5 23.5t24.5 28.5t40 27.5t52 10.5q25 0 61 -14v-152h-91q0 12 -1 18t-6.5 12.5t-16.5 6.5q-10 0 -21.5 -6.5t-25.5 -22.5t-22.5 -51.5t-8.5 -85.5v-84q0 -22 7 -29.5t33 -7.5h26v-82h-266v82h15q27 0 35 8t8 35v231q0 24 -6 32.5
t-25 8.5h-31v81zM262 691h114l-94 -130h-146l-95 130h116l53 -70z" />
    <glyph glyph-name="Sacute" unicode="&#x15a;" horiz-adv-x="573" 
d="M506 673v-177h-119v34q0 17 -2 28.5t-9 29t-27 27t-51 9.5q-29 0 -49 -9t-28.5 -23.5t-12 -26t-3.5 -22.5q0 -22 10.5 -40.5t37 -36.5t48 -29.5t64.5 -32.5q91 -44 130.5 -93t39.5 -120q0 -64 -30.5 -112t-70.5 -67q-66 -33 -172 -33q-104 0 -211 41v199h124v-36
q0 -106 102 -106q48 0 76 24.5t28 66.5q0 43 -26.5 67t-107.5 68q-43 23 -69.5 40t-58.5 45t-47.5 62.5t-15.5 75.5q0 17 3.5 36t18 48t38.5 51t70.5 38t108.5 16q112 0 211 -42zM275 880h153l-112 -129h-101z" />
    <glyph glyph-name="sacute" unicode="&#x15b;" horiz-adv-x="479" 
d="M418 473v-131h-112v20q0 12 -1 19.5t-6.5 20t-19 19t-35.5 6.5q-61 0 -61 -46q0 -21 16.5 -34t54.5 -28q105 -42 147.5 -76.5t42.5 -99.5q0 -44 -20.5 -78.5t-52.5 -52.5q-49 -29 -136 -29q-103 0 -190 35v142h114q0 -23 1 -34.5t7 -26.5t21 -21.5t39 -6.5q37 0 52 16.5
t15 37.5q0 23 -19.5 37.5t-74.5 37.5q-84 34 -118.5 71.5t-34.5 85.5q0 22 7 43.5t26 48t61 42.5t103 16q93 0 174 -34zM228 690h153l-112 -129h-101z" />
    <glyph glyph-name="Scircumflex" unicode="&#x15c;" horiz-adv-x="573" 
d="M506 673v-177h-119v34q0 17 -2 28.5t-9 29t-27 27t-51 9.5q-29 0 -49 -9t-28.5 -23.5t-12 -26t-3.5 -22.5q0 -22 10.5 -40.5t37 -36.5t48 -29.5t64.5 -32.5q91 -44 130.5 -93t39.5 -120q0 -64 -30.5 -112t-70.5 -67q-66 -33 -172 -33q-104 0 -211 41v199h124v-36
q0 -106 102 -106q48 0 76 24.5t28 66.5q0 43 -26.5 67t-107.5 68q-43 23 -69.5 40t-58.5 45t-47.5 62.5t-15.5 75.5q0 17 3.5 36t18 48t38.5 51t70.5 38t108.5 16q112 0 211 -42zM243 751h-114l94 130h146l95 -130h-116l-53 70z" />
    <glyph glyph-name="scircumflex" unicode="&#x15d;" horiz-adv-x="479" 
d="M418 473v-131h-112v20q0 12 -1 19.5t-6.5 20t-19 19t-35.5 6.5q-61 0 -61 -46q0 -21 16.5 -34t54.5 -28q105 -42 147.5 -76.5t42.5 -99.5q0 -44 -20.5 -78.5t-52.5 -52.5q-49 -29 -136 -29q-103 0 -190 35v142h114q0 -23 1 -34.5t7 -26.5t21 -21.5t39 -6.5q37 0 52 16.5
t15 37.5q0 23 -19.5 37.5t-74.5 37.5q-84 34 -118.5 71.5t-34.5 85.5q0 22 7 43.5t26 48t61 42.5t103 16q93 0 174 -34zM186 561h-114l94 130h146l95 -130h-116l-53 70z" />
    <glyph glyph-name="Scedilla" unicode="&#x15e;" horiz-adv-x="573" 
d="M506 673v-177h-119v34q0 17 -2 28.5t-9 29t-27 27t-51 9.5q-29 0 -49 -9t-28.5 -23.5t-12 -26t-3.5 -22.5q0 -22 10.5 -40.5t37 -36.5t48 -29.5t64.5 -32.5q91 -44 130.5 -93t39.5 -120q0 -64 -30.5 -112t-70.5 -67q-53 -25 -132 -32l-6 -24q40 -4 60 -25.5t20 -52.5
q0 -48 -36.5 -73.5t-97.5 -25.5q-48 0 -101 16v66q53 -15 95 -15q52 0 52 30q0 31 -51 31q-11 0 -31 -2l20 75q-87 5 -175 40v199h124v-36q0 -106 102 -106q48 0 76 24.5t28 66.5q0 43 -26.5 67t-107.5 68q-43 23 -69.5 40t-58.5 45t-47.5 62.5t-15.5 75.5q0 17 3.5 36
t18 48t38.5 51t70.5 38t108.5 16q112 0 211 -42z" />
    <glyph glyph-name="scedilla" unicode="&#x15f;" horiz-adv-x="479" 
d="M418 473v-131h-112v20q0 12 -1 19.5t-6.5 20t-19 19t-35.5 6.5q-61 0 -61 -46q0 -21 16.5 -34t54.5 -28q105 -42 147.5 -76.5t42.5 -99.5q0 -44 -20.5 -78.5t-52.5 -52.5q-39 -23 -101 -28l-7 -28q40 -4 60 -25.5t20 -52.5q0 -48 -36.5 -73.5t-97.5 -25.5q-48 0 -101 16
v66q53 -15 95 -15q52 0 52 30q0 31 -51 31q-11 0 -31 -2l21 80q-80 5 -149 33v142h114q0 -23 1 -34.5t7 -26.5t21 -21.5t39 -6.5q37 0 52 16.5t15 37.5q0 23 -19.5 37.5t-74.5 37.5q-84 34 -118.5 71.5t-34.5 85.5q0 22 7 43.5t26 48t61 42.5t103 16q93 0 174 -34z" />
    <glyph glyph-name="Scaron" unicode="&#x160;" horiz-adv-x="573" 
d="M506 673v-177h-119v34q0 17 -2 28.5t-9 29t-27 27t-51 9.5q-29 0 -49 -9t-28.5 -23.5t-12 -26t-3.5 -22.5q0 -22 10.5 -40.5t37 -36.5t48 -29.5t64.5 -32.5q91 -44 130.5 -93t39.5 -120q0 -64 -30.5 -112t-70.5 -67q-66 -33 -172 -33q-104 0 -211 41v199h124v-36
q0 -106 102 -106q48 0 76 24.5t28 66.5q0 43 -26.5 67t-107.5 68q-43 23 -69.5 40t-58.5 45t-47.5 62.5t-15.5 75.5q0 17 3.5 36t18 48t38.5 51t70.5 38t108.5 16q112 0 211 -42zM340 881h114l-94 -130h-146l-95 130h116l53 -70z" />
    <glyph glyph-name="scaron" unicode="&#x161;" horiz-adv-x="479" 
d="M418 473v-131h-112v20q0 12 -1 19.5t-6.5 20t-19 19t-35.5 6.5q-61 0 -61 -46q0 -21 16.5 -34t54.5 -28q105 -42 147.5 -76.5t42.5 -99.5q0 -44 -20.5 -78.5t-52.5 -52.5q-49 -29 -136 -29q-103 0 -190 35v142h114q0 -23 1 -34.5t7 -26.5t21 -21.5t39 -6.5q37 0 52 16.5
t15 37.5q0 23 -19.5 37.5t-74.5 37.5q-84 34 -118.5 71.5t-34.5 85.5q0 22 7 43.5t26 48t61 42.5t103 16q93 0 174 -34zM293 691h114l-94 -130h-146l-95 130h116l53 -70z" />
    <glyph glyph-name="Tcommaaccent" unicode="&#x162;" horiz-adv-x="698" 
d="M27 694h644v-206h-114v56q0 28 -6.5 35t-37.5 7h-87v-450q0 -29 7.5 -38t40.5 -9h26v-89h-303v89h31q31 0 37.5 9t6.5 38v450h-86q-31 0 -38 -6.5t-7 -38.5v-53h-114v206zM284 -233v42q31 2 44.5 15t14.5 27q-22 1 -35.5 11.5t-16.5 20t-3 18.5q0 21 18 35t42 14
q30 0 48 -20.5t18 -49.5q0 -37 -29.5 -70.5t-100.5 -42.5z" />
    <glyph glyph-name="tcommaaccent" unicode="&#x163;" horiz-adv-x="375" 
d="M135 643h90v-153h118v-104h-118v-202q0 -16 1 -26t5 -24t14.5 -21t27.5 -7q21 0 73 19v-102q-66 -34 -140 -34q-37 0 -64 12t-39.5 26.5t-19.5 39t-8 37.5t-1 33v249h-60v86q106 34 121 171zM135 -233v42q31 2 44.5 15t14.5 27q-22 1 -35.5 11.5t-16.5 20t-3 18.5
q0 21 18 35t42 14q30 0 48 -20.5t18 -49.5q0 -37 -29.5 -70.5t-100.5 -42.5z" />
    <glyph glyph-name="Tcaron" unicode="&#x164;" horiz-adv-x="698" 
d="M27 694h644v-206h-114v56q0 28 -6.5 35t-37.5 7h-87v-450q0 -29 7.5 -38t40.5 -9h26v-89h-303v89h31q31 0 37.5 9t6.5 38v450h-86q-31 0 -38 -6.5t-7 -38.5v-53h-114v206zM403 881h114l-94 -130h-146l-95 130h116l53 -70z" />
    <glyph glyph-name="tcaron" unicode="&#x165;" horiz-adv-x="375" 
d="M135 643h90v-153h118v-104h-118v-202q0 -16 1 -26t5 -24t14.5 -21t27.5 -7q21 0 73 19v-102q-66 -34 -140 -34q-37 0 -64 12t-39.5 26.5t-19.5 39t-8 37.5t-1 33v249h-60v86q106 34 121 171zM264 512v57q15 6 24 10t22 18.5t17 34.5q-24 4 -38 18.5t-17 26t-3 21.5
q0 28 19.5 47t44.5 19q32 0 54 -26t22 -67q0 -16 -5.5 -34t-19 -41t-44.5 -45.5t-76 -38.5z" />
    <glyph glyph-name="Tbar" unicode="&#x166;" horiz-adv-x="698" 
d="M141 412h131v174h-86q-31 0 -38 -6.5t-7 -38.5v-53h-114v206h644v-206h-114v56q0 28 -6.5 35t-37.5 7h-87v-174h131v-86h-131v-190q0 -29 7.5 -38t40.5 -9h26v-89h-303v89h31q31 0 37.5 9t6.5 38v190h-131v86z" />
    <glyph glyph-name="tbar" unicode="&#x167;" horiz-adv-x="375" 
d="M14 321h60v65h-60v86q106 34 121 171h90v-153h118v-104h-118v-65h118v-86h-118v-51q0 -16 1 -26t5 -24t14.5 -21t27.5 -7q21 0 73 19v-102q-66 -34 -140 -34q-37 0 -64 12t-39.5 26.5t-19.5 39t-8 37.5t-1 33v98h-60v86z" />
    <glyph glyph-name="Utilde" unicode="&#x168;" horiz-adv-x="750" 
d="M30 694h290v-89h-25q-30 0 -36.5 -10t-6.5 -42v-300q0 -23 1.5 -40t9 -40.5t21 -38.5t39.5 -26t63 -11q38 0 65 12.5t40 27.5t20 40.5t8 38.5t1 34v303q0 22 -1.5 30.5t-11 15t-30.5 6.5h-24v89h267v-89h-24q-29 0 -35.5 -9t-6.5 -38v-305q0 -40 -5 -74t-21.5 -72.5
t-45 -65t-79.5 -44.5t-120 -18q-146 0 -216 66t-70 200v313q0 18 -1.5 26t-11.5 14.5t-30 6.5h-24v89zM475 875h80q0 -61 -31 -92.5t-71 -31.5q-39 0 -82 20q-49 20 -64 20q-28 0 -31 -40h-80q1 61 28 92.5t72 31.5q36 0 117 -32q18 -7 31 -7q27 0 31 39z" />
    <glyph glyph-name="utilde" unicode="&#x169;" horiz-adv-x="604" 
d="M13 479l213 19v-301q0 -18 1.5 -29.5t6.5 -29.5t19.5 -27.5t37.5 -9.5q87 0 87 131v115q0 37 -9 45q-8 6 -54 6v81l210 19v-360q0 -24 4.5 -34t22.5 -10h35v-80l-199 -16q-9 35 -9 70h-2q-48 -82 -148 -82q-16 0 -32 3t-38.5 11t-42.5 27t-31 47q-13 34 -13 92v173
q0 39 -4 47q-3 5 -6 7t-14 3.5t-35 1.5v81zM402 685h80q0 -61 -31 -92.5t-71 -31.5t-82 20q-49 20 -64 20q-28 0 -31 -40h-80q1 61 28 92.5t72 31.5q36 0 117 -32q18 -7 31 -7q27 0 31 39z" />
    <glyph glyph-name="Umacron" unicode="&#x16a;" horiz-adv-x="750" 
d="M30 694h290v-89h-25q-30 0 -36.5 -10t-6.5 -42v-300q0 -23 1.5 -40t9 -40.5t21 -38.5t39.5 -26t63 -11q38 0 65 12.5t40 27.5t20 40.5t8 38.5t1 34v303q0 22 -1.5 30.5t-11 15t-30.5 6.5h-24v89h267v-89h-24q-29 0 -35.5 -9t-6.5 -38v-305q0 -40 -5 -74t-21.5 -72.5
t-45 -65t-79.5 -44.5t-120 -18q-146 0 -216 66t-70 200v313q0 18 -1.5 26t-11.5 14.5t-30 6.5h-24v89zM198 856h355v-86h-355v86z" />
    <glyph glyph-name="umacron" unicode="&#x16b;" horiz-adv-x="604" 
d="M13 479l213 19v-301q0 -18 1.5 -29.5t6.5 -29.5t19.5 -27.5t37.5 -9.5q87 0 87 131v115q0 37 -9 45q-8 6 -54 6v81l210 19v-360q0 -24 4.5 -34t22.5 -10h35v-80l-199 -16q-9 35 -9 70h-2q-48 -82 -148 -82q-16 0 -32 3t-38.5 11t-42.5 27t-31 47q-13 34 -13 92v173
q0 39 -4 47q-3 5 -6 7t-14 3.5t-35 1.5v81zM125 666h355v-86h-355v86z" />
    <glyph glyph-name="Ubreve" unicode="&#x16c;" horiz-adv-x="750" 
d="M30 694h290v-89h-25q-30 0 -36.5 -10t-6.5 -42v-300q0 -23 1.5 -40t9 -40.5t21 -38.5t39.5 -26t63 -11q38 0 65 12.5t40 27.5t20 40.5t8 38.5t1 34v303q0 22 -1.5 30.5t-11 15t-30.5 6.5h-24v89h267v-89h-24q-29 0 -35.5 -9t-6.5 -38v-305q0 -40 -5 -74t-21.5 -72.5
t-45 -65t-79.5 -44.5t-120 -18q-146 0 -216 66t-70 200v313q0 18 -1.5 26t-11.5 14.5t-30 6.5h-24v89zM237 880h95q1 -10 3 -16t7 -17t17 -17t30 -6q25 0 39.5 15.5t17.5 40.5h94q-17 -129 -154 -129q-70 0 -106.5 36.5t-42.5 92.5z" />
    <glyph glyph-name="ubreve" unicode="&#x16d;" horiz-adv-x="604" 
d="M13 479l213 19v-301q0 -18 1.5 -29.5t6.5 -29.5t19.5 -27.5t37.5 -9.5q87 0 87 131v115q0 37 -9 45q-8 6 -54 6v81l210 19v-360q0 -24 4.5 -34t22.5 -10h35v-80l-199 -16q-9 35 -9 70h-2q-48 -82 -148 -82q-16 0 -32 3t-38.5 11t-42.5 27t-31 47q-13 34 -13 92v173
q0 39 -4 47q-3 5 -6 7t-14 3.5t-35 1.5v81zM151 690h95q1 -10 3 -16t7 -17t17 -17t30 -6q25 0 39.5 15.5t17.5 40.5h94q-17 -129 -154 -129q-70 0 -106.5 36.5t-42.5 92.5z" />
    <glyph glyph-name="Uring" unicode="&#x16e;" horiz-adv-x="750" 
d="M30 694h290v-89h-25q-30 0 -36.5 -10t-6.5 -42v-300q0 -23 1.5 -40t9 -40.5t21 -38.5t39.5 -26t63 -11q38 0 65 12.5t40 27.5t20 40.5t8 38.5t1 34v303q0 22 -1.5 30.5t-11 15t-30.5 6.5h-24v89h267v-89h-24q-29 0 -35.5 -9t-6.5 -38v-305q0 -40 -5 -74t-21.5 -72.5
t-45 -65t-79.5 -44.5t-120 -18q-146 0 -216 66t-70 200v313q0 18 -1.5 26t-11.5 14.5t-30 6.5h-24v89zM388 953q41 0 70.5 -29.5t29.5 -71.5t-29.5 -71.5t-70.5 -29.5t-71 29.5t-30 71.5t29.5 71.5t71.5 29.5zM387 901q-20 0 -34 -14.5t-14 -34.5t14 -34.5t34 -14.5
t34.5 14.5t14.5 34.5t-14.5 34.5t-34.5 14.5z" />
    <glyph glyph-name="uring" unicode="&#x16f;" horiz-adv-x="604" 
d="M13 479l213 19v-301q0 -18 1.5 -29.5t6.5 -29.5t19.5 -27.5t37.5 -9.5q87 0 87 131v115q0 37 -9 45q-8 6 -54 6v81l210 19v-360q0 -24 4.5 -34t22.5 -10h35v-80l-199 -16q-9 35 -9 70h-2q-48 -82 -148 -82q-16 0 -32 3t-38.5 11t-42.5 27t-31 47q-13 34 -13 92v173
q0 39 -4 47q-3 5 -6 7t-14 3.5t-35 1.5v81zM303 763q41 0 70.5 -29.5t29.5 -71.5t-29.5 -71.5t-70.5 -29.5t-71 29.5t-30 71.5t29.5 71.5t71.5 29.5zM302 711q-20 0 -34 -14.5t-14 -34.5t14 -34.5t34 -14.5t34.5 14.5t14.5 34.5t-14.5 34.5t-34.5 14.5z" />
    <glyph glyph-name="Uhungarumlaut" unicode="&#x170;" horiz-adv-x="750" 
d="M30 694h290v-89h-25q-30 0 -36.5 -10t-6.5 -42v-300q0 -23 1.5 -40t9 -40.5t21 -38.5t39.5 -26t63 -11q38 0 65 12.5t40 27.5t20 40.5t8 38.5t1 34v303q0 22 -1.5 30.5t-11 15t-30.5 6.5h-24v89h267v-89h-24q-29 0 -35.5 -9t-6.5 -38v-305q0 -40 -5 -74t-21.5 -72.5
t-45 -65t-79.5 -44.5t-120 -18q-146 0 -216 66t-70 200v313q0 18 -1.5 26t-11.5 14.5t-30 6.5h-24v89zM282 880h153l-112 -129h-101zM476 880h153l-112 -129h-101z" />
    <glyph glyph-name="uhungarumlaut" unicode="&#x171;" horiz-adv-x="604" 
d="M13 479l213 19v-301q0 -18 1.5 -29.5t6.5 -29.5t19.5 -27.5t37.5 -9.5q87 0 87 131v115q0 37 -9 45q-8 6 -54 6v81l210 19v-360q0 -24 4.5 -34t22.5 -10h35v-80l-199 -16q-9 35 -9 70h-2q-48 -82 -148 -82q-16 0 -32 3t-38.5 11t-42.5 27t-31 47q-13 34 -13 92v173
q0 39 -4 47q-3 5 -6 7t-14 3.5t-35 1.5v81zM194 690h153l-112 -129h-101zM388 690h153l-112 -129h-101z" />
    <glyph glyph-name="Uogonek" unicode="&#x172;" horiz-adv-x="750" 
d="M30 694h290v-89h-25q-30 0 -36.5 -10t-6.5 -42v-300q0 -23 1.5 -40t9 -40.5t21 -38.5t39.5 -26t63 -11q38 0 65 12.5t40 27.5t20 40.5t8 38.5t1 34v303q0 22 -1.5 30.5t-11 15t-30.5 6.5h-24v89h267v-89h-24q-29 0 -35.5 -9t-6.5 -38v-305q0 -185 -120 -244
q-20 -15 -30.5 -23.5t-25 -28.5t-14.5 -38q0 -25 17 -35.5t38 -10.5q15 0 45 7v-64q-42 -11 -72 -11q-53 0 -83 27.5t-30 64.5q0 44 37 83q-5 0 -16 -0.5t-17 -0.5q-146 0 -216 66t-70 200v313q0 18 -1.5 26t-11.5 14.5t-30 6.5h-24v89z" />
    <glyph glyph-name="uogonek" unicode="&#x173;" horiz-adv-x="604" 
d="M13 479l213 19v-301q0 -18 1.5 -29.5t6.5 -29.5t19.5 -27.5t37.5 -9.5q87 0 87 131v115q0 37 -9 45q-8 6 -54 6v81l210 19v-360q0 -24 4.5 -34t22.5 -10h35v-80l-55 -5q-20 -15 -30.5 -23.5t-25 -28.5t-14.5 -38q0 -25 17 -35.5t38 -10.5q15 0 45 7v-64q-42 -11 -72 -11
q-53 0 -83 27.5t-30 64.5q0 55 61 105l-50 -4q-9 35 -9 70h-2q-48 -82 -148 -82q-16 0 -32 3t-38.5 11t-42.5 27t-31 47q-13 34 -13 92v173q0 39 -4 47q-3 5 -6 7t-14 3.5t-35 1.5v81z" />
    <glyph glyph-name="Wcircumflex" unicode="&#x174;" horiz-adv-x="990" 
d="M9 694h291v-89h-34q-32 0 -32 -23q0 -11 4 -27l79 -345h2l117 484h147l109 -484h2l83 332q6 20 6 37q0 16 -10.5 21t-34.5 5h-17v89h260v-89q-33 1 -49 -12t-29 -58l-153 -542h-147l-108 459h-2l-113 -459h-149l-140 530q-14 54 -26 68t-39 14h-17v89zM457 751h-114
l94 130h146l95 -130h-116l-53 70z" />
    <glyph glyph-name="wcircumflex" unicode="&#x175;" horiz-adv-x="844" 
d="M6 490h262v-82q-15 0 -22 -0.5t-14 -6t-7 -15.5q0 -6 4 -20q3 -6 3 -9l56 -167h2l90 300h125l91 -300h2l50 158q0 3 3 9q0 1 2 7t3 11.5t1 9.5q0 11 -6.5 16t-13.5 6t-20 1v82h221v-82q-24 0 -34.5 -10t-21.5 -41l-142 -363h-124l-89 270h-2l-90 -270h-123l-137 350
q-16 40 -30 52t-39 12v82zM389 561h-114l94 130h146l95 -130h-116l-53 70z" />
    <glyph glyph-name="Ycircumflex" unicode="&#x176;" horiz-adv-x="698" 
d="M11 694h295v-89h-24q-25 0 -25 -18q0 -13 9 -22q1 -1 2.5 -4t2.5 -4l93 -151l94 144q17 23 17 37q0 18 -35 18h-19v89h266v-89q-20 0 -28.5 -2t-20.5 -13t-29 -37l-184 -278v-143q0 -27 8.5 -35t39.5 -8h24v-89h-298v89h26q31 0 38.5 8t7.5 35v143l-186 287
q-13 20 -26 30t-21.5 11.5t-26.5 1.5v89zM311 751h-114l94 130h146l95 -130h-116l-53 70z" />
    <glyph glyph-name="ycircumflex" unicode="&#x177;" horiz-adv-x="583" 
d="M5 490h270v-82q-44 0 -44 -20q0 -3 7 -24l3 -6l2 -5l69 -170l66 162q0 1 4 10q8 18 8 32q0 21 -41 21v82h227v-82q-22 0 -32.5 -9t-24.5 -41l-201 -453q-32 -72 -73.5 -102t-102.5 -30q-46 0 -110 24v133h86q0 -16 1 -24.5t8.5 -17.5t21.5 -9q21 0 39.5 27t40.5 94
l-156 348l-2 4q-1 4 -2 5q-17 34 -28.5 42.5t-35.5 8.5v82zM257 561h-114l94 130h146l95 -130h-116l-53 70z" />
    <glyph glyph-name="Ydieresis" unicode="&#x178;" horiz-adv-x="698" 
d="M11 694h295v-89h-24q-25 0 -25 -18q0 -13 9 -22q1 -1 2.5 -4t2.5 -4l93 -151l94 144q17 23 17 37q0 18 -35 18h-19v89h266v-89q-20 0 -28.5 -2t-20.5 -13t-29 -37l-184 -278v-143q0 -27 8.5 -35t39.5 -8h24v-89h-298v89h26q31 0 38.5 8t7.5 35v143l-186 287
q-13 20 -26 30t-21.5 11.5t-26.5 1.5v89zM460 877q26 0 44 -18t18 -45q0 -26 -18 -44t-44 -18t-44.5 18t-18.5 44q0 27 18.5 45t44.5 18zM240 877q26 0 44 -18t18 -45q0 -26 -18 -44t-44 -18t-44.5 18t-18.5 44q0 27 18.5 45t44.5 18z" />
    <glyph glyph-name="Zacute" unicode="&#x179;" horiz-adv-x="646" 
d="M57 694h534v-110l-365 -476h214q35 0 43.5 9t8.5 39v52h114v-208h-564v108l364 476h-186q-31 0 -40.5 -7.5t-9.5 -35.5v-50h-113v203zM332 880h153l-112 -129h-101z" />
    <glyph glyph-name="zacute" unicode="&#x17a;" horiz-adv-x="531" 
d="M42 328v162h448v-99l-277 -290h125q34 0 41 9t6 39v19h114v-168h-468v105l277 286h-115q-25 0 -34 -6.5t-9 -30.5v-26h-108zM266 690h153l-112 -129h-101z" />
    <glyph glyph-name="Zdotaccent" unicode="&#x17b;" horiz-adv-x="646" 
d="M57 694h534v-110l-365 -476h214q35 0 43.5 9t8.5 39v52h114v-208h-564v108l364 476h-186q-31 0 -40.5 -7.5t-9.5 -35.5v-50h-113v203zM323 877q26 0 44.5 -18.5t18.5 -44.5q0 -25 -18 -43.5t-45 -18.5q-25 0 -43.5 18t-18.5 44q0 27 18.5 45t43.5 18z" />
    <glyph glyph-name="zdotaccent" unicode="&#x17c;" horiz-adv-x="531" 
d="M42 328v162h448v-99l-277 -290h125q34 0 41 9t6 39v19h114v-168h-468v105l277 286h-115q-25 0 -34 -6.5t-9 -30.5v-26h-108zM275 687q26 0 44.5 -18.5t18.5 -44.5q0 -25 -18 -43.5t-45 -18.5q-25 0 -43.5 18t-18.5 44q0 27 18.5 45t43.5 18z" />
    <glyph glyph-name="Zcaron" unicode="&#x17d;" horiz-adv-x="646" 
d="M57 694h534v-110l-365 -476h214q35 0 43.5 9t8.5 39v52h114v-208h-564v108l364 476h-186q-31 0 -40.5 -7.5t-9.5 -35.5v-50h-113v203zM377 881h114l-94 -130h-146l-95 130h116l53 -70z" />
    <glyph glyph-name="zcaron" unicode="&#x17e;" horiz-adv-x="531" 
d="M42 328v162h448v-99l-277 -290h125q34 0 41 9t6 39v19h114v-168h-468v105l277 286h-115q-25 0 -34 -6.5t-9 -30.5v-26h-108zM319 691h114l-94 -130h-146l-95 130h116l53 -70z" />
    <glyph glyph-name="florin" unicode="&#x192;" horiz-adv-x="562" 
d="M568 689l-21 -114h-74q2 12 2 25q0 17 -10 25t-23 8q-62 0 -75 -153h86l-17 -101h-76l-32 -317q-29 -295 -230 -295q-48 0 -100 21l16 114l68 -2q-3 -46 25 -46q26 0 40 28q18 37 28 133l33 364h-81l17 101h73q3 24 7 41t13 48t25 53.5t39.5 45.5t60 35t82.5 12
q63 0 124 -26z" />
    <glyph glyph-name="Aringacute" unicode="&#x1fa;" horiz-adv-x="708" 
d="M356 801q41 0 70.5 -29.5t29.5 -71.5q0 -34 -22 -63l187 -480q16 -42 28.5 -55t34.5 -13h16v-89h-288v89h29q11 0 17 0.5t11.5 5.5t5.5 15t-9 35l-20 55h-213l-20 -56q-7 -16 -7 -31q0 -24 38 -24h23v-89h-259v89q34 0 46.5 9.5t28.5 47.5l194 490q-22 27 -22 64
q0 42 29.5 71.5t71.5 29.5zM357 960h153l-112 -129h-101zM340 503l-70 -200h139l-67 200h-2zM355 749q-20 0 -34 -14.5t-14 -34.5t14 -34.5t34 -14.5t34.5 14.5t14.5 34.5t-14.5 34.5t-34.5 14.5z" />
    <glyph glyph-name="aringacute" unicode="&#x1fb;" horiz-adv-x="563" 
d="M80 328v118q92 58 206 58q63 0 104.5 -15.5t60.5 -43.5t25.5 -54.5t6.5 -60.5v-178q0 -32 6.5 -45.5t23.5 -13.5q11 0 35 9v-86q-63 -30 -120 -30q-63 0 -82 58q-70 -58 -147 -58q-69 0 -114 33t-45 107q0 36 13.5 65t36.5 46t41.5 26t38.5 15q77 23 98 28l70 16
q0 20 -2 33t-8.5 29.5t-23 25t-42.5 8.5q-20 0 -33.5 -4.5t-20.5 -10.5t-10.5 -18.5t-4 -20t-0.5 -23.5v-13h-113zM338 190v55q-84 -23 -119.5 -43.5t-35.5 -62.5q0 -27 17.5 -46t47.5 -19q23 0 44 13q46 27 46 103zM255 929h153l-112 -129h-101zM269 763q41 0 70.5 -29.5
t29.5 -71.5t-29.5 -71.5t-70.5 -29.5t-71 29.5t-30 71.5t29.5 71.5t71.5 29.5zM268 711q-20 0 -34 -14.5t-14 -34.5t14 -34.5t34 -14.5t34.5 14.5t14.5 34.5t-14.5 34.5t-34.5 14.5z" />
    <glyph glyph-name="AEacute" unicode="&#x1fc;" horiz-adv-x="979" 
d="M612 410h108q17 0 21.5 3t4.5 19v31h108v-220h-108v30q0 17 -4 22.5t-22 5.5h-108v-194h164q29 0 37.5 9.5t8.5 32.5v42h113v-191h-539v89h28q28 0 34.5 10t6.5 39v68h-208l-39 -68q-12 -21 -12 -32q0 -17 34 -17h17v-89h-257v89q30 0 44.5 7t31.5 37l225 403
q18 30 18 46q0 8 -4 13t-14 7t-17.5 2.5t-23.5 0.5v89h663v-182h-113v29q0 25 -7.5 34.5t-36.5 9.5h-154v-175zM463 599l-162 -289h164v289h-2zM588 880h153l-112 -129h-101z" />
    <glyph glyph-name="aeacute" unicode="&#x1fd;" horiz-adv-x="802" 
d="M75 328v119q85 57 203 57q98 0 142 -48q55 48 142 48q213 0 209 -280h-306q3 -57 38.5 -89.5t88.5 -32.5q44 0 93 18q7 3 38.5 19.5t35.5 18.5v-117q-27 -16 -47.5 -25.5t-64 -19.5t-95.5 -10q-62 0 -103.5 17t-73.5 61q-62 -78 -181 -78q-159 0 -159 138q0 78 53.5 116
t182.5 67q4 1 9.5 2t9.5 2t5 1l39 11q0 52 -19 73.5t-56 21.5q-26 0 -41.5 -5.5t-21.5 -18.5t-7.5 -23t-1.5 -29v-14h-112zM334 189v56q-86 -19 -121.5 -44t-35.5 -62q0 -12 4 -25t20 -26.5t41 -13.5q11 0 22.5 3t29.5 13t29 35.5t11 63.5zM464 312h171q-8 104 -82 104
q-20 0 -35.5 -8.5t-24 -18.5t-15.5 -28t-9 -26t-5 -23zM390 690h153l-112 -129h-101z" />
    <glyph glyph-name="Oslashacute" unicode="&#x1fe;" horiz-adv-x="781" 
d="M180 41l-77 -85l-76 71l81 88q-62 87 -62 229q0 163 92 267t258 104q125 0 209 -59l73 80l77 -71l-78 -85q59 -88 59 -222q0 -165 -90.5 -272t-256.5 -107q-126 0 -209 62zM564 458l-296 -322q46 -47 124 -47q44 0 77.5 17t53 43.5t31.5 63.5t16 70.5t4 71.5
q0 60 -10 103zM218 235l296 322q-47 48 -122 48q-91 0 -138.5 -70t-47.5 -192q0 -66 12 -108zM377 880h153l-112 -129h-101z" />
    <glyph glyph-name="oslashacute" unicode="&#x1ff;" horiz-adv-x="583" 
d="M149 15l-56 -62l-70 64l58 65q-41 66 -41 152q0 35 6.5 69.5t24 72.5t44.5 66t73.5 46.5t106.5 18.5q78 0 139 -34l56 62l70 -63l-57 -64q40 -63 40 -153q0 -47 -12.5 -91.5t-40 -86.5t-80.5 -68t-126 -26q-86 0 -135 32zM392 289l-163 -180q25 -25 64 -25q101 0 101 168
q0 23 -2 37zM191 199l165 183q-26 25 -64 25q-34 0 -57 -20t-32 -51.5t-12 -52.5t-3 -39t3 -45zM278 690h153l-112 -129h-101z" />
    <glyph glyph-name="Scommaaccent" unicode="&#x218;" horiz-adv-x="573" 
d="M506 673v-177h-119v34q0 17 -2 28.5t-9 29t-27 27t-51 9.5q-29 0 -49 -9t-28.5 -23.5t-12 -26t-3.5 -22.5q0 -22 10.5 -40.5t37 -36.5t48 -29.5t64.5 -32.5q91 -44 130.5 -93t39.5 -120q0 -64 -30.5 -112t-70.5 -67q-66 -33 -172 -33q-104 0 -211 41v199h124v-36
q0 -106 102 -106q48 0 76 24.5t28 66.5q0 43 -26.5 67t-107.5 68q-43 23 -69.5 40t-58.5 45t-47.5 62.5t-15.5 75.5q0 17 3.5 36t18 48t38.5 51t70.5 38t108.5 16q112 0 211 -42zM214 -233v42q31 2 44.5 15t14.5 27q-22 1 -35.5 11.5t-16.5 20t-3 18.5q0 21 18 35t42 14
q30 0 48 -20.5t18 -49.5q0 -37 -29.5 -70.5t-100.5 -42.5z" />
    <glyph glyph-name="scommaaccent" unicode="&#x219;" horiz-adv-x="479" 
d="M418 473v-131h-112v20q0 12 -1 19.5t-6.5 20t-19 19t-35.5 6.5q-61 0 -61 -46q0 -21 16.5 -34t54.5 -28q105 -42 147.5 -76.5t42.5 -99.5q0 -44 -20.5 -78.5t-52.5 -52.5q-49 -29 -136 -29q-103 0 -190 35v142h114q0 -23 1 -34.5t7 -26.5t21 -21.5t39 -6.5q37 0 52 16.5
t15 37.5q0 23 -19.5 37.5t-74.5 37.5q-84 34 -118.5 71.5t-34.5 85.5q0 22 7 43.5t26 48t61 42.5t103 16q93 0 174 -34zM175 -233v42q31 2 44.5 15t14.5 27q-22 1 -35.5 11.5t-16.5 20t-3 18.5q0 21 18 35t42 14q30 0 48 -20.5t18 -49.5q0 -37 -29.5 -70.5t-100.5 -42.5z
" />
    <glyph glyph-name="uni021A" unicode="&#x21a;" horiz-adv-x="698" 
d="M27 694h644v-206h-114v56q0 28 -6.5 35t-37.5 7h-87v-450q0 -29 7.5 -38t40.5 -9h26v-89h-303v89h31q31 0 37.5 9t6.5 38v450h-86q-31 0 -38 -6.5t-7 -38.5v-53h-114v206zM284 -233v42q31 2 44.5 15t14.5 27q-22 1 -35.5 11.5t-16.5 20t-3 18.5q0 21 18 35t42 14
q30 0 48 -20.5t18 -49.5q0 -37 -29.5 -70.5t-100.5 -42.5z" />
    <glyph glyph-name="uni021B" unicode="&#x21b;" horiz-adv-x="375" 
d="M135 643h90v-153h118v-104h-118v-202q0 -16 1 -26t5 -24t14.5 -21t27.5 -7q21 0 73 19v-102q-66 -34 -140 -34q-37 0 -64 12t-39.5 26.5t-19.5 39t-8 37.5t-1 33v249h-60v86q106 34 121 171zM135 -233v42q31 2 44.5 15t14.5 27q-22 1 -35.5 11.5t-16.5 20t-3 18.5
q0 21 18 35t42 14q30 0 48 -20.5t18 -49.5q0 -37 -29.5 -70.5t-100.5 -42.5z" />
    <glyph glyph-name="dotlessj" unicode="&#x237;" horiz-adv-x="313" 
d="M242 498v-484q0 -49 -7.5 -87t-26.5 -75.5t-59.5 -58t-99.5 -20.5q-65 0 -125 20v126h82q0 -18 1 -28t10.5 -21t27.5 -11q16 0 26 6.5t13.5 23.5t4.5 31t1 45v359q0 52 -5 63.5t-30 11.5h-27v80z" />
    <glyph glyph-name="circumflex" unicode="&#x2c6;" 
d="M113 561h-114l94 130h146l95 -130h-116l-53 70z" />
    <glyph glyph-name="caron" unicode="&#x2c7;" 
d="M220 691h114l-94 -130h-146l-95 130h116l53 -70z" />
    <glyph glyph-name="uni02C9" unicode="&#x2c9;" 
d="M-11 666h355v-86h-355v86z" />
    <glyph glyph-name="breve" unicode="&#x2d8;" 
d="M15 690h95q1 -10 3 -16t7 -17t17 -17t30 -6q25 0 39.5 15.5t17.5 40.5h94q-17 -129 -154 -129q-70 0 -106.5 36.5t-42.5 92.5z" />
    <glyph glyph-name="dotaccent" unicode="&#x2d9;" 
d="M166 687q26 0 44.5 -18.5t18.5 -44.5q0 -25 -18 -43.5t-45 -18.5q-26 0 -44 18t-18 44q0 27 18.5 45t43.5 18z" />
    <glyph glyph-name="ring" unicode="&#x2da;" 
d="M167 763q41 0 70.5 -29.5t29.5 -71.5t-29.5 -71.5t-70.5 -29.5t-71 29.5t-30 71.5t29.5 71.5t71.5 29.5zM166 711q-20 0 -34 -14.5t-14 -34.5t14 -34.5t34 -14.5t34.5 14.5t14.5 34.5t-14.5 34.5t-34.5 14.5z" />
    <glyph glyph-name="ogonek" unicode="&#x2db;" 
d="M131 9h85q-20 -15 -30.5 -23.5t-25 -28.5t-14.5 -38q0 -25 17 -35.5t38 -10.5q15 0 45 7v-64q-42 -11 -72 -11q-53 0 -83 27.5t-30 64.5q0 25 13 48.5t24.5 35t32.5 28.5z" />
    <glyph glyph-name="tilde" unicode="&#x2dc;" 
d="M266 685h80q0 -61 -31 -92.5t-71 -31.5q-39 0 -82 20q-49 20 -64 20q-28 0 -31 -40h-80q1 61 28 92.5t72 31.5q36 0 117 -32q17 -7 31 -7q27 0 31 39z" />
    <glyph glyph-name="hungarumlaut" unicode="&#x2dd;" 
d="M77 690h153l-112 -129h-101zM271 690h153l-112 -129h-101z" />
    <glyph glyph-name="uni0374" unicode="&#x374;" horiz-adv-x="300" 
d="M119 715h143l-108 -204h-91z" />
    <glyph glyph-name="uni0375" unicode="&#x375;" horiz-adv-x="300" 
d="M159 -233h-143l108 204h91z" />
    <glyph glyph-name="uni037E" unicode="&#x37e;" horiz-adv-x="313" 
d="M68 -187v71q68 28 79 102q-29 5 -46.5 22t-22 31.5t-4.5 28.5q0 35 24.5 58.5t58.5 23.5q42 0 67 -33.5t25 -82.5q0 -22 -6.5 -46.5t-23 -58.5t-56 -65t-95.5 -51zM157 507q34 0 58 -24t24 -58t-24 -58.5t-58 -24.5q-35 0 -59 24t-24 59q0 34 24 58t59 24z" />
    <glyph glyph-name="tonos" unicode="&#x384;" 
d="M134 715h143l-92 -164h-91z" />
    <glyph glyph-name="dieresistonos" unicode="&#x385;" 
d="M327 687q26 0 44 -18t18 -45q0 -26 -18 -44t-44 -18t-44.5 18t-18.5 44q0 27 18.5 45t44.5 18zM7 687q26 0 44 -18t18 -45q0 -26 -18 -44t-44 -18t-44.5 18t-18.5 44q0 27 18.5 45t44.5 18zM151 766h133l-92 -164h-81z" />
    <glyph glyph-name="Alphatonos" unicode="&#x386;" horiz-adv-x="708" 
d="M278 702h156l187 -545q16 -45 27.5 -56.5t35.5 -11.5h16v-89h-288v89h29q11 0 17 0.5t11.5 5.5t5.5 15q0 4 -9 35l-18 55h-215l-20 -56q-7 -28 -7 -31q0 -24 38 -24h23v-89h-259v89q35 0 48.5 9.5t26.5 47.5zM340 546l-83 -243h168l-83 243h-2zM50 715h143l-92 -164h-91z
" />
    <glyph glyph-name="anoteleia" unicode="&#x387;" horiz-adv-x="313" 
d="M157 416q34 0 58 -24.5t24 -58.5t-24 -58t-58 -24t-58.5 24t-24.5 58q0 35 24 59t59 24z" />
    <glyph glyph-name="Epsilontonos" unicode="&#x388;" horiz-adv-x="765" 
d="M182 694h531v-182h-114v35q0 25 -10.5 32t-38.5 7h-149v-175h114q13 0 16.5 3.5t3.5 18.5v31h109v-220h-109v36q0 22 -20 22h-114v-195h162q32 0 40 9t8 35v41h114v-192h-543v89h25q28 0 34.5 9t6.5 37v426q0 17 -1.5 24.5t-11 13.5t-28.5 6h-25v89zM22 715h143l-92 -164
h-91z" />
    <glyph glyph-name="Etatonos" unicode="&#x389;" horiz-adv-x="911" 
d="M180 694h290v-89h-24q-28 0 -36.5 -9.5t-8.5 -35.5v-133h248v133q0 17 -2 25t-12.5 14t-31.5 6h-22v89h290v-89h-21q-30 0 -38.5 -8t-8.5 -37v-427q0 -27 8.5 -35.5t38.5 -8.5h21v-89h-290v89h22q30 0 38 8.5t8 35.5v178h-248v-182q0 -13 1.5 -20t12 -13.5t31.5 -6.5h24
v-89h-290v89h24q16 0 25.5 2.5t13.5 10t4.5 14t0.5 21.5v420q0 28 -7.5 38t-36.5 10h-24v89zM22 715h143l-92 -164h-91z" />
    <glyph glyph-name="Iotatonos" unicode="&#x38a;" horiz-adv-x="515" 
d="M183 694h289v-89h-22q-17 0 -26 -2.5t-13.5 -10.5t-5 -15t-0.5 -25v-415q0 -30 7 -39t38 -9h22v-89h-289v89h22q32 0 39 9t7 39v422q0 28 -8 37t-38 9h-22v89zM22 715h143l-92 -164h-91z" />
    <glyph glyph-name="Omicrontonos" unicode="&#x38c;" horiz-adv-x="825" 
d="M90 340q0 171 93.5 273t257.5 102q165 0 252 -98t87 -258q0 -166 -90.5 -273t-256.5 -107q-165 0 -254 101.5t-89 259.5zM250 343q0 -50 8.5 -92.5t28.5 -80.5t57.5 -59.5t90.5 -21.5q54 0 91.5 23.5t56.5 65t27 85t8 94.5q0 19 -1 34.5t-5.5 49t-16.5 58.5t-30.5 51
t-51.5 40.5t-76 14.5q-93 0 -140 -71t-47 -191zM22 715h143l-92 -164h-91z" />
    <glyph glyph-name="Upsilontonos" unicode="&#x38e;" horiz-adv-x="873" 
d="M186 694h295v-89h-24q-25 0 -25 -18q0 -13 9 -22q1 -1 2.5 -4t2.5 -4l93 -151l94 144q17 23 17 37q0 18 -35 18h-19v89h266v-89q-20 0 -28.5 -2t-20.5 -13t-29 -37l-184 -278v-143q0 -27 8.5 -35t39.5 -8h24v-89h-298v89h26q31 0 38.5 8t7.5 35v143l-186 287
q-13 20 -26 30t-21.5 11.5t-26.5 1.5v89zM22 715h143l-92 -164h-91z" />
    <glyph glyph-name="Omegatonos" unicode="&#x38f;" horiz-adv-x="841" 
d="M801 0h-326l-2 144q110 97 110 254q0 99 -40 153t-113 54q-72 0 -118 -58t-46 -154q0 -155 109 -249v-144h-326v174h114v-19q0 -31 7 -39t34 -8h65v4q-65 49 -114.5 127.5t-49.5 172.5q0 126 85 214t240 88q150 0 232.5 -85t82.5 -209q0 -101 -49 -179t-115 -129v-4h65
q28 0 34.5 8.5t6.5 44.5v13h114v-174zM22 715h143l-92 -164h-91z" />
    <glyph glyph-name="iotadieresistonos" unicode="&#x390;" horiz-adv-x="330" 
d="M14 477l209 16v-344q0 -29 9.5 -42t35.5 -13q17 0 37 10v-85q-45 -34 -109 -34q-61 0 -90.5 30t-29.5 101v223q0 34 -6.5 46t-26.5 12q-9 0 -29 -2v82zM313 687q26 0 44 -18t18 -45q0 -26 -18 -44t-44 -18t-44.5 18t-18.5 44q0 27 18.5 45t44.5 18zM-7 687q26 0 44 -18
t18 -45q0 -26 -18 -44t-44 -18t-44.5 18t-18.5 44q0 27 18.5 45t44.5 18zM137 766h133l-92 -164h-81z" />
    <glyph glyph-name="Alpha" unicode="&#x391;" horiz-adv-x="708" 
d="M278 702h156l187 -545q16 -45 27.5 -56.5t35.5 -11.5h16v-89h-288v89h29q11 0 17 0.5t11.5 5.5t5.5 15q0 4 -9 35l-18 55h-215l-20 -56q-7 -28 -7 -31q0 -24 38 -24h23v-89h-259v89q35 0 48.5 9.5t26.5 47.5zM340 546l-83 -243h168l-83 243h-2z" />
    <glyph glyph-name="Beta" unicode="&#x392;" horiz-adv-x="667" 
d="M41 605v89h312q230 0 230 -175q0 -105 -93 -150q135 -35 135 -169q0 -64 -33.5 -116.5t-104.5 -73.5q-36 -10 -126 -10h-320v89h21q30 0 38 8.5t8 38.5v424q0 13 -1 19t-5 13.5t-13.5 10t-26.5 2.5h-21zM252 588v-177h73q109 0 109 92q0 85 -104 85h-78zM252 306v-200h96
q23 0 40.5 3t37 12.5t30 31.5t10.5 55q0 28 -11 48t-24.5 29t-35.5 14.5t-33.5 6t-29.5 0.5h-80z" />
    <glyph glyph-name="Gamma" unicode="&#x393;" horiz-adv-x="594" 
d="M337 0h-297v89h21q17 0 27 2.5t14 9.5t5 13.5t1 21.5v424q0 13 -1 19t-4.5 13.5t-13 10t-25.5 2.5h-24v89h529v-204h-115v55q0 24 -7.5 33t-35.5 9h-150v-451q0 -15 1 -21.5t5 -14t13.5 -9.5t26.5 -2h30v-89z" />
    <glyph glyph-name="Delta" unicode="&#x394;" horiz-adv-x="670" 
d="M645 0h-620v60l211 640h203l206 -640v-60zM474 117l-126 405q-12 49 -15 64h-5q-4 -23 -14 -61l-126 -408h286z" />
    <glyph glyph-name="Epsilon" unicode="&#x395;" horiz-adv-x="625" 
d="M42 694h531v-182h-114v35q0 25 -10.5 32t-38.5 7h-149v-175h114q13 0 16.5 3.5t3.5 18.5v31h109v-220h-109v36q0 22 -20 22h-114v-195h162q32 0 40 9t8 35v41h114v-192h-543v89h25q28 0 34.5 9t6.5 37v426q0 17 -1.5 24.5t-11 13.5t-28.5 6h-25v89z" />
    <glyph glyph-name="Zeta" unicode="&#x396;" horiz-adv-x="646" 
d="M57 694h534v-110l-365 -476h214q35 0 43.5 9t8.5 39v52h114v-208h-564v108l364 476h-186q-31 0 -40.5 -7.5t-9.5 -35.5v-50h-113v203z" />
    <glyph glyph-name="Eta" unicode="&#x397;" horiz-adv-x="771" 
d="M40 694h290v-89h-24q-28 0 -36.5 -9.5t-8.5 -35.5v-133h248v133q0 17 -2 25t-12.5 14t-31.5 6h-22v89h290v-89h-21q-30 0 -38.5 -8t-8.5 -37v-427q0 -27 8.5 -35.5t38.5 -8.5h21v-89h-290v89h22q30 0 38 8.5t8 35.5v178h-248v-182q0 -13 1.5 -20t12 -13.5t31.5 -6.5h24
v-89h-290v89h24q16 0 25.5 2.5t13.5 10t4.5 14t0.5 21.5v420q0 28 -7.5 38t-36.5 10h-24v89z" />
    <glyph glyph-name="Theta" unicode="&#x398;" horiz-adv-x="781" 
d="M280 420h221v-135h-221v135zM46 340q0 171 93.5 273t257.5 102q165 0 252 -98t87 -258q0 -166 -90.5 -273t-256.5 -107q-165 0 -254 101.5t-89 259.5zM206 343q0 -50 8.5 -92.5t28.5 -80.5t57.5 -59.5t90.5 -21.5q54 0 91.5 23.5t56.5 65t27 85t8 94.5q0 19 -1 34.5
t-5.5 49t-16.5 58.5t-30.5 51t-51.5 40.5t-76 14.5q-93 0 -140 -71t-47 -191z" />
    <glyph glyph-name="Iota" unicode="&#x399;" horiz-adv-x="375" 
d="M43 694h289v-89h-22q-17 0 -26 -2.5t-13.5 -10.5t-5 -15t-0.5 -25v-415q0 -30 7 -39t38 -9h22v-89h-289v89h22q32 0 39 9t7 39v422q0 28 -8 37t-38 9h-22v89z" />
    <glyph glyph-name="Kappa" unicode="&#x39a;" horiz-adv-x="708" 
d="M43 694h285v-89h-16q-33 0 -42 -8t-9 -40v-177l154 170q22 24 22 36q0 19 -39 19v89h279v-89q-37 0 -56.5 -11.5t-41.5 -36.5l-170 -192l195 -219q24 -26 46 -39.5t33.5 -15.5t28.5 -2v-89h-328v89h22q27 0 27 17q0 13 -21 37l-151 175v-182q0 -19 1.5 -27t10.5 -14
t28 -6h16v-89h-274v89h26q27 0 34.5 8.5t7.5 33.5v426q0 18 -1.5 26t-11 15t-29.5 7h-26v89z" />
    <glyph glyph-name="Lambda" unicode="&#x39b;" horiz-adv-x="708" 
d="M701 0h-292v89h27q35 0 35 21q0 8 -8 34l-120 365h-2l-121 -358q-8 -24 -8 -35q0 -27 36 -27h23v-89h-263v89h17q18 0 29.5 8.5t16.5 18.5t12 31l198 554h151l191 -547q15 -41 25 -53t34 -12h19v-89z" />
    <glyph glyph-name="Mu" unicode="&#x39c;" horiz-adv-x="958" 
d="M40 694h310l117 -392q10 -25 10 -38h2q62 219 131 430h307v-89h-16q-37 0 -44 -9t-7 -46v-409q0 -34 7 -43t41 -9h19v-89h-281v89h18q33 0 40 9.5t7 42.5v464h-2l-172 -564h-120l-166 564h-2v-468q0 -33 9 -40.5t40 -7.5h16v-89h-264v89h18q35 0 42.5 9.5t7.5 42.5v415
q0 30 -8.5 39.5t-41.5 9.5h-18v89z" />
    <glyph glyph-name="Nu" unicode="&#x39d;" horiz-adv-x="750" 
d="M42 694h254l228 -452h2v315q0 28 -8 38t-40 10h-17v89h257v-89h-25q-30 0 -36.5 -9.5t-6.5 -38.5v-557h-153l-261 503h-2v-368q0 -14 1 -20.5t5 -13.5t13.5 -9.5t26.5 -2.5h21v-89h-259v89h22q22 0 32 5.5t11.5 13.5t1.5 27v424q0 14 -1 20t-5 13.5t-13.5 10t-25.5 2.5
h-22v89z" />
    <glyph glyph-name="Xi" unicode="&#x39e;" horiz-adv-x="645" 
d="M605 0h-565v192h114v-31q0 -26 8 -35t40 -9h241q32 0 40 9t8 35v31h114v-192zM411 318h-177q-20 0 -20 -22v-26h-103v183h103v-14q0 -15 4 -18.5t16 -3.5h177q13 0 16.5 3.5t3.5 18.5v14h103v-183h-103v26q0 22 -20 22zM430 591h-215q-28 0 -38.5 -7t-10.5 -32v-21h-114
v163h541v-163h-114v21q0 25 -10.5 32t-38.5 7z" />
    <glyph glyph-name="Omicron" unicode="&#x39f;" horiz-adv-x="781" 
d="M46 340q0 171 93.5 273t257.5 102q165 0 252 -98t87 -258q0 -166 -90.5 -273t-256.5 -107q-165 0 -254 101.5t-89 259.5zM206 343q0 -50 8.5 -92.5t28.5 -80.5t57.5 -59.5t90.5 -21.5q54 0 91.5 23.5t56.5 65t27 85t8 94.5q0 19 -1 34.5t-5.5 49t-16.5 58.5t-30.5 51
t-51.5 40.5t-76 14.5q-93 0 -140 -71t-47 -191z" />
    <glyph glyph-name="Pi" unicode="&#x3a0;" horiz-adv-x="751" 
d="M40 694h671v-89h-21q-30 0 -38.5 -8t-8.5 -37v-427q0 -27 8.5 -35.5t38.5 -8.5h21v-89h-280v89h19q26 0 32.5 8.5t6.5 35.5v445h-228v-449q0 -13 1.5 -20t10 -13.5t26.5 -6.5h21v-89h-280v89h24q16 0 25.5 2.5t13.5 10t4.5 14t0.5 21.5v420q0 28 -7.5 38t-36.5 10h-24v89
z" />
    <glyph glyph-name="Rho" unicode="&#x3a1;" horiz-adv-x="625" 
d="M41 605v89h302q86 0 130 -17q38 -14 63.5 -39t36 -54.5t14 -50t3.5 -40.5q0 -60 -26 -107.5t-76 -73.5q-46 -24 -129 -24h-103v-158q0 -25 8 -33t38 -8h30v-89h-291v89h24q29 0 36.5 9.5t7.5 36.5v422q0 15 -0.5 21.5t-4.5 14t-13.5 10t-25.5 2.5h-24zM256 592v-202h68
q62 0 91.5 24.5t29.5 79.5q0 98 -116 98h-73z" />
    <glyph glyph-name="Sigma" unicode="&#x3a3;" horiz-adv-x="649" 
d="M405 346l-201 -209h239q35 0 43.5 9t8.5 39v52h114v-237h-567v128l206 219l-199 237v110h550v-203h-113v50q0 28 -9.5 35.5t-40.5 7.5h-189l158 -189v-49z" />
    <glyph glyph-name="Tau" unicode="&#x3a4;" horiz-adv-x="698" 
d="M27 694h644v-206h-114v56q0 28 -6.5 35t-37.5 7h-87v-450q0 -29 7.5 -38t40.5 -9h26v-89h-303v89h31q31 0 37.5 9t6.5 38v450h-86q-31 0 -38 -6.5t-7 -38.5v-53h-114v206z" />
    <glyph glyph-name="Upsilon" unicode="&#x3a5;" horiz-adv-x="698" 
d="M11 694h295v-89h-24q-25 0 -25 -18q0 -13 9 -22q1 -1 2.5 -4t2.5 -4l93 -151l94 144q17 23 17 37q0 18 -35 18h-19v89h266v-89q-20 0 -28.5 -2t-20.5 -13t-29 -37l-184 -278v-143q0 -27 8.5 -35t39.5 -8h24v-89h-298v89h26q31 0 38.5 8t7.5 35v143l-186 287
q-13 20 -26 30t-21.5 11.5t-26.5 1.5v89z" />
    <glyph glyph-name="Phi" unicode="&#x3a6;" horiz-adv-x="776" 
d="M736 359q0 -82 -67 -143t-209 -74v-5q0 -30 7 -39t38 -9h22v-89h-279v89h22q32 0 39 9t7 39v4q-127 9 -201.5 60.5t-74.5 138.5q0 93 70.5 147t205.5 64v8q0 28 -8 37t-38 9h-22v89h279v-89h-22q-17 0 -26 -2.5t-13.5 -10.5t-5 -15t-0.5 -25q138 -9 207 -61.5t69 -131.5z
M190 341q0 -90 126 -106v224q-126 -15 -126 -118zM587 352q0 38 -30.5 68t-96.5 39v-224q72 11 99.5 45t27.5 72z" />
    <glyph glyph-name="Chi" unicode="&#x3a7;" horiz-adv-x="708" 
d="M41 694h287v-89h-14q-23 0 -23 -15q0 -8 17 -34l58 -88l59 82q19 24 19 39q0 16 -19 16h-16v89h261v-89q-50 0 -72 -27q-14 -16 -28 -34l-133 -178l142 -209q22 -32 42 -47.5t30.5 -18t30.5 -2.5v-89h-294v89h16q24 0 24 17q0 10 -19 39l-65 98l-70 -98q-1 0 -3 -4
l-7 -10q-12 -15 -12 -25q0 -17 25 -17h17v-89h-268v89h15q25 0 38.5 8.5t37.5 35.5l10 12l147 200l-135 199q-26 38 -44.5 50t-53.5 11v89z" />
    <glyph glyph-name="Psi" unicode="&#x3a8;" horiz-adv-x="929" 
d="M852 552v-110q0 -117 -75.5 -185.5t-234.5 -74.5v-45q0 -32 7 -40t43 -8h17v-89h-289v89h20q34 0 41 8t7 40v45q-310 14 -310 238v139q0 29 -6 37.5t-30 8.5h-12v89h249v-89h-11q-25 0 -30.5 -9.5t-5.5 -43.5v-110q0 -146 156 -151v268q0 29 -6 37.5t-30 8.5h-12v89h249
v-89h-15q-22 0 -27 -9.5t-5 -43.5v-261q156 4 156 154v106q0 34 -6 44t-30 10h-12v89h249v-89h-11q-25 0 -30.5 -9.5t-5.5 -43.5z" />
    <glyph glyph-name="Omega" unicode="&#x3a9;" horiz-adv-x="812" 
d="M782 0h-326l-2 144q110 97 110 254q0 99 -40 153t-113 54q-72 0 -118 -58t-46 -154q0 -155 109 -249v-144h-326v174h114v-19q0 -31 7 -39t34 -8h65v4q-65 49 -114.5 127.5t-49.5 172.5q0 126 85 214t240 88q150 0 232.5 -85t82.5 -209q0 -101 -49 -179t-115 -129v-4h65
q28 0 34.5 8.5t6.5 44.5v13h114v-174z" />
    <glyph glyph-name="Iotadieresis" unicode="&#x3aa;" horiz-adv-x="375" 
d="M43 694h289v-89h-22q-17 0 -26 -2.5t-13.5 -10.5t-5 -15t-0.5 -25v-415q0 -30 7 -39t38 -9h22v-89h-289v89h22q32 0 39 9t7 39v422q0 28 -8 37t-38 9h-22v89zM298 877q26 0 44 -18t18 -45q0 -26 -18 -44t-44 -18t-44.5 18t-18.5 44q0 27 18.5 45t44.5 18zM78 877
q26 0 44 -18t18 -45q0 -26 -18 -44t-44 -18t-44.5 18t-18.5 44q0 27 18.5 45t44.5 18z" />
    <glyph glyph-name="Upsilondieresis" unicode="&#x3ab;" horiz-adv-x="698" 
d="M11 694h295v-89h-24q-25 0 -25 -18q0 -13 9 -22q1 -1 2.5 -4t2.5 -4l93 -151l94 144q17 23 17 37q0 18 -35 18h-19v89h266v-89q-20 0 -28.5 -2t-20.5 -13t-29 -37l-184 -278v-143q0 -27 8.5 -35t39.5 -8h24v-89h-298v89h26q31 0 38.5 8t7.5 35v143l-186 287
q-13 20 -26 30t-21.5 11.5t-26.5 1.5v89zM460 877q26 0 44 -18t18 -45q0 -26 -18 -44t-44 -18t-44.5 18t-18.5 44q0 27 18.5 45t44.5 18zM240 877q26 0 44 -18t18 -45q0 -26 -18 -44t-44 -18t-44.5 18t-18.5 44q0 27 18.5 45t44.5 18z" />
    <glyph glyph-name="alphatonos" unicode="&#x3ac;" horiz-adv-x="636" 
d="M414 431h3q13 33 31 58h161q-64 -106 -80 -146q-21 -55 -21 -113q0 -138 55 -138q25 0 37 12v-86q-54 -33 -96 -33q-78 0 -107 85h-2q-56 -85 -157 -85q-87 0 -142.5 69t-55.5 180q0 121 65 195.5t168 74.5q92 0 141 -73zM279 417q-41 0 -66 -44t-25 -132
q0 -76 24 -115.5t60 -39.5q50 0 74 52.5t24 119.5q0 88 -23 123.5t-68 35.5zM286 715h143l-92 -164h-91z" />
    <glyph glyph-name="epsilontonos" unicode="&#x3ad;" horiz-adv-x="518" 
d="M485 147v-109q-101 -54 -217 -54q-106 0 -162.5 37t-56.5 103q0 51 39 87.5t99 45.5v1q-55 9 -88.5 35.5t-33.5 71.5q0 60 54 101t158 41q107 0 190 -40v-115h-113v8q0 23 -18 40.5t-53 17.5q-34 0 -52 -17t-18 -37q0 -38 33.5 -49.5t110.5 -11.5v-86q-79 0 -119.5 -14
t-40.5 -53q0 -56 95 -56q81 0 193 53zM269 715h143l-92 -164h-91z" />
    <glyph glyph-name="etatonos" unicode="&#x3ae;" horiz-adv-x="599" 
d="M220 413q32 45 67.5 68t88.5 23q79 0 118 -45.5t39 -122.5v-527h-154v484q0 49 -15 73t-51 24q-44 0 -65 -32t-21 -80v-278h-147v342q0 53 -45 53q-21 0 -37 -10v85q50 34 109 34q50 0 78 -25t35 -66zM302 715h143l-92 -164h-91z" />
    <glyph glyph-name="iotatonos" unicode="&#x3af;" horiz-adv-x="330" 
d="M14 477l209 16v-344q0 -29 9.5 -42t35.5 -13q17 0 37 10v-85q-45 -34 -109 -34q-61 0 -90.5 30t-29.5 101v223q0 34 -6.5 46t-26.5 12q-9 0 -29 -2v82zM134 715h143l-92 -164h-91z" />
    <glyph glyph-name="upsilondieresistonos" unicode="&#x3b0;" horiz-adv-x="583" 
d="M307 479l188 19q48 -102 48 -219q0 -135 -69 -213t-194 -78q-208 0 -208 189v162q0 44 -7.5 51.5t-51.5 6.5v82l213 19v-301q0 -62 17 -85.5t57 -23.5q95 0 95 177q0 73 -12 100q-9 21 -24 27t-52 5v82zM448 687q26 0 44 -18t18 -45q0 -26 -18 -44t-44 -18t-44.5 18
t-18.5 44q0 27 18.5 45t44.5 18zM128 687q26 0 44 -18t18 -45q0 -26 -18 -44t-44 -18t-44.5 18t-18.5 44q0 27 18.5 45t44.5 18zM272 766h133l-92 -164h-81z" />
    <glyph glyph-name="alpha" unicode="&#x3b1;" horiz-adv-x="636" 
d="M414 431h3q13 33 31 58h161q-64 -106 -80 -146q-21 -55 -21 -113q0 -138 55 -138q25 0 37 12v-86q-54 -33 -96 -33q-78 0 -107 85h-2q-56 -85 -157 -85q-87 0 -142.5 69t-55.5 180q0 121 65 195.5t168 74.5q92 0 141 -73zM279 417q-41 0 -66 -44t-25 -132
q0 -76 24 -115.5t60 -39.5q50 0 74 52.5t24 119.5q0 88 -23 123.5t-68 35.5z" />
    <glyph glyph-name="beta" unicode="&#x3b2;" horiz-adv-x="577" 
d="M60 -191v680q0 100 53.5 163t167.5 63q111 0 168 -50.5t57 -130.5q0 -53 -33 -90t-88 -54v-2q79 -9 116 -57.5t37 -120.5q0 -101 -58 -163t-145 -62q-86 0 -127 63v-239h-148zM206 485v-257q0 -70 26.5 -102.5t64.5 -32.5q46 0 69 35t23 80q0 124 -138 124v100
q49 3 77.5 23.5t28.5 74.5q0 40 -19 62.5t-53 22.5q-79 0 -79 -130z" />
    <glyph glyph-name="gamma" unicode="&#x3b3;" horiz-adv-x="563" 
d="M7 490h175q31 -41 75 -152t56 -182q30 41 59.5 116t29.5 114q0 22 -44 22v82h179q0 -214 -192 -501l10 -180h-170l19 191q-6 71 -37 158.5t-56.5 136.5t-46.5 84q-19 26 -57 29v82z" />
    <glyph glyph-name="delta" unicode="&#x3b4;" horiz-adv-x="583" 
d="M294 352q-48 0 -77 -35.5t-29 -97.5q0 -60 29 -96.5t75 -36.5t74 36t28 97q0 58 -26.5 95.5t-73.5 37.5zM339 466q49 -20 79.5 -37.5t62 -46t47 -70t15.5 -97.5q0 -100 -67 -165t-190 -65q-119 0 -182.5 65t-63.5 162q0 83 40.5 133t110.5 67q-118 44 -118 145
q0 70 57.5 114t159.5 44q22 0 42 -1.5t39.5 -6t32.5 -7t31.5 -9.5t24.5 -9.5t24 -10.5t19 -8v-143l-114 2q-2 93 -88 93q-36 0 -57 -17t-21 -40q0 -28 23 -44t93 -48z" />
    <glyph glyph-name="epsilon" unicode="&#x3b5;" horiz-adv-x="518" 
d="M485 147v-109q-101 -54 -217 -54q-106 0 -162.5 37t-56.5 103q0 51 39 87.5t99 45.5v1q-55 9 -88.5 35.5t-33.5 71.5q0 60 54 101t158 41q107 0 190 -40v-115h-113v8q0 23 -18 40.5t-53 17.5q-34 0 -52 -17t-18 -37q0 -38 33.5 -49.5t110.5 -11.5v-86q-79 0 -119.5 -14
t-40.5 -53q0 -56 95 -56q81 0 193 53z" />
    <glyph glyph-name="zeta" unicode="&#x3b6;" horiz-adv-x="449" 
d="M63 694h373v-83q-248 -242 -248 -395q0 -39 21 -58.5t61 -27.5q166 -33 166 -141q0 -44 -26.5 -81.5t-78.5 -86.5h-146q101 93 101 134q0 19 -12 30.5t-40 17.5q-192 39 -192 199q0 97 68.5 204.5t149.5 183.5h-197v104z" />
    <glyph glyph-name="eta" unicode="&#x3b7;" horiz-adv-x="599" 
d="M220 413q32 45 67.5 68t88.5 23q79 0 118 -45.5t39 -122.5v-527h-154v484q0 49 -15 73t-51 24q-44 0 -65 -32t-21 -80v-278h-147v342q0 53 -45 53q-21 0 -37 -10v85q50 34 109 34q50 0 78 -25t35 -66z" />
    <glyph glyph-name="theta" unicode="&#x3b8;" horiz-adv-x="568" 
d="M528 371q0 -82 -11 -146t-37.5 -121t-78 -88t-125.5 -31q-84 0 -138 48t-76 123.5t-22 178.5q0 83 13 149.5t41 119.5t77 82t115 29q84 0 139.5 -45.5t79 -120.5t23.5 -178zM285 86q93 0 93 223h-190q0 -36 3.5 -70.5t13 -71t30 -59t50.5 -22.5zM284 615q-48 0 -70 -57.5
t-23 -144.5h186q0 87 -21.5 144.5t-71.5 57.5z" />
    <glyph glyph-name="iota" unicode="&#x3b9;" horiz-adv-x="330" 
d="M14 477l209 16v-344q0 -29 9.5 -42t35.5 -13q17 0 37 10v-85q-45 -34 -109 -34q-61 0 -90.5 30t-29.5 101v223q0 34 -6.5 46t-26.5 12q-9 0 -29 -2v82z" />
    <glyph glyph-name="kappa" unicode="&#x3ba;" horiz-adv-x="584" 
d="M363 272l106 -142q17 -23 28 -31.5t27 -8.5q11 0 34 7v-81q-45 -25 -92 -25q-42 0 -74.5 18t-66.5 66l-98 141v-216h-151v339q0 37 -5.5 47.5t-27.5 10.5l-29 -2v82l213 16v-195l158 192h156v-81q-46 1 -82 -36z" />
    <glyph glyph-name="lambda" unicode="&#x3bb;" horiz-adv-x="567" 
d="M311 283l-130 -284l-178 1l256 472l-18 65q-15 51 -22 64.5t-22 13.5q-12 0 -17.5 -9.5t-5.5 -20.5v-24h-107v125q54 29 128 29q68 0 104 -36.5t62 -131.5l116 -404q15 -54 49 -54q22 0 38 8v-81q-45 -25 -82 -25q-45 0 -74.5 23.5t-45.5 82.5z" />
    <glyph glyph-name="mu" unicode="&#x3bc;" horiz-adv-x="602" 
d="M217 3v-194h-147v681h147v-293q0 -96 72 -96q38 0 62.5 30.5t24.5 91.5v267h147v-346q0 -50 36 -50q20 0 36 9v-91q-44 -27 -99 -27q-43 0 -68 18.5t-38 59.5h-2q-33 -78 -111 -78q-34 0 -60 18z" />
    <glyph glyph-name="nu" unicode="&#x3bd;" horiz-adv-x="567" 
d="M189 490l117 -324q29 36 51.5 98.5t22.5 104.5q0 21 -9 29.5t-41 9.5v82h170q14 -46 14 -97q0 -97 -60 -207.5t-136 -196.5h-103l-143 371q-10 28 -25 37t-41 11v82h183z" />
    <glyph glyph-name="xi" unicode="&#x3be;" horiz-adv-x="449" 
d="M190 202q0 -20 7.5 -33.5t23.5 -22t30 -12.5t38 -10q6 -1 9 -2q142 -34 142 -133q0 -44 -26.5 -81.5t-78.5 -86.5h-146q101 93 101 134q0 20 -12 31.5t-40 16.5q-90 16 -143 59.5t-53 115.5q0 66 48 112t151 58v1q-82 4 -120.5 33.5t-38.5 74.5q0 96 158 141
q-53 -7 -113 -7l-76 -1v104h373v-98q-194 -33 -194 -131q0 -38 37.5 -52.5t126.5 -13.5v-100q-204 0 -204 -97z" />
    <glyph glyph-name="omicron" unicode="&#x3bf;" horiz-adv-x="583" 
d="M543 262q0 -54 -14 -101.5t-43 -88t-81 -64t-122 -23.5q-60 0 -105.5 19t-71 46t-41 63.5t-20.5 65.5t-5 57q0 36 6.5 71t24.5 72.5t45.5 65.5t73 46t104.5 18q124 0 186.5 -69.5t62.5 -177.5zM394 254q0 12 -0.5 21.5t-3 30t-9.5 36.5t-17.5 32.5t-29 25.5t-42.5 9
q-34 0 -56.5 -19t-32 -49.5t-12.5 -53t-3 -45.5q0 -11 0.5 -23.5t6.5 -38.5t16 -45t31.5 -34t50.5 -15q101 0 101 168z" />
    <glyph glyph-name="pi" unicode="&#x3c0;" horiz-adv-x="640" 
d="M604 119v-97q-49 -34 -122 -34q-125 0 -125 150v225h-119v-363h-126v362q-73 -5 -117 -39v126q44 41 162 41h447v-127h-112v-184q0 -40 11 -56.5t38 -16.5q12 0 24 2.5t24 6t15 4.5z" />
    <glyph glyph-name="rho" unicode="&#x3c1;" horiz-adv-x="577" 
d="M207 -191h-147v427q0 123 61.5 195.5t173.5 72.5q120 0 185 -69.5t65 -194.5q0 -118 -54.5 -186t-150.5 -68q-46 0 -75 14t-58 40v-231zM298 404q-48 0 -73 -43.5t-25 -117.5t26.5 -115.5t74.5 -41.5q45 0 70 40t25 114q0 164 -98 164z" />
    <glyph glyph-name="sigma1" unicode="&#x3c2;" horiz-adv-x="504" 
d="M42 231q0 131 69 203.5t180 72.5q86 0 166 -43v-170h-112v46q0 71 -59 71q-48 0 -75 -47.5t-27 -99.5q0 -67 27 -96t91 -43q164 -37 164 -136q0 -81 -89 -168h-162q2 2 14 13t15.5 14t14.5 13.5t15 16t12.5 15t12.5 16t8.5 15t6.5 16.5t2 15q0 35 -66 48q-36 7 -68 20.5
t-66 38.5t-54 68.5t-20 100.5z" />
    <glyph glyph-name="sigma" unicode="&#x3c3;" horiz-adv-x="631" 
d="M300 490h315v-117h-137q30 -22 47.5 -62t17.5 -88q0 -43 -14 -83t-42 -76t-78.5 -57.5t-117.5 -21.5q-123 0 -187 67t-64 175q0 116 64.5 189.5t195.5 73.5zM301 373q-54 0 -83.5 -39t-29.5 -105q0 -69 31.5 -106t74.5 -37q49 0 75 44t26 107q0 60 -22.5 98t-71.5 38z
" />
    <glyph glyph-name="tau" unicode="&#x3c4;" horiz-adv-x="444" 
d="M408 363h-150v-178q0 -43 11 -61t40 -18q20 0 77 19v-102q-60 -34 -143 -34q-120 0 -120 149v225h-13q-78 0 -128 -39v124q40 42 176 42h250v-127z" />
    <glyph glyph-name="upsilon" unicode="&#x3c5;" horiz-adv-x="583" 
d="M307 479l188 19q48 -102 48 -219q0 -135 -69 -213t-194 -78q-208 0 -208 189v162q0 44 -7.5 51.5t-51.5 6.5v82l213 19v-301q0 -62 17 -85.5t57 -23.5q95 0 95 177q0 73 -12 100q-9 21 -24 27t-52 5v82z" />
    <glyph glyph-name="phi" unicode="&#x3c6;" horiz-adv-x="764" 
d="M308 -191v179q-121 5 -194.5 71.5t-73.5 176.5q0 118 75.5 188.5t192.5 79.5v163h148v-163q129 -6 198.5 -72t69.5 -170q0 -115 -69.5 -189t-198.5 -84v-180h-148zM188 250q0 -72 32.5 -111t87.5 -44v305q-55 -6 -87.5 -47.5t-32.5 -102.5zM576 254q0 64 -32.5 102.5
t-87.5 43.5v-305q55 5 87.5 48t32.5 111z" />
    <glyph glyph-name="chi" unicode="&#x3c7;" horiz-adv-x="499" 
d="M497 490l-185 -302l89 -198q21 -48 62 -48q7 0 25 6v-91q-2 -1 -14.5 -6.5t-20.5 -9t-22 -6.5t-27 -3q-46 0 -69.5 24t-50.5 91l-48 119l-101 -220h-172l208 349l-66 147q-23 53 -58 53q-20 0 -41 -7v82q39 34 94 34q48 0 70 -24t45 -90l28 -80l81 180h173z" />
    <glyph glyph-name="psi" unicode="&#x3c8;" horiz-adv-x="813" 
d="M770 279q0 -137 -69 -213t-211 -77v-180h-148v179q-271 10 -271 248v119q0 14 -1.5 21t-8.5 13t-22 6h-30v79l200 19q9 -43 9 -79v-164q0 -155 124 -165v582h148v-582q68 0 105 42t37 141q0 61 -13 93q-14 35 -65 34v79l168 25q48 -117 48 -220z" />
    <glyph glyph-name="omega" unicode="&#x3c9;" horiz-adv-x="794" 
d="M320 386h154v-170q0 -53 17 -83t46 -30q70 0 70 123q0 56 -18 135.5t-50 128.5h131q85 -101 85 -262q0 -120 -55 -179.5t-140 -59.5q-122 0 -163 113q-41 -113 -163 -113q-88 0 -141.5 61.5t-53.5 177.5q0 161 85 262h131q-32 -49 -50 -128.5t-18 -135.5q0 -123 70 -123
q29 0 46 30t17 83v170z" />
    <glyph glyph-name="iotadieresis" unicode="&#x3ca;" horiz-adv-x="330" 
d="M14 477l209 16v-344q0 -29 9.5 -42t35.5 -13q17 0 37 10v-85q-45 -34 -109 -34q-61 0 -90.5 30t-29.5 101v223q0 34 -6.5 46t-26.5 12q-9 0 -29 -2v82zM247 687q26 0 44 -18t18 -45q0 -26 -18 -44t-44 -18t-44.5 18t-18.5 44q0 27 18.5 45t44.5 18zM27 687q26 0 44 -18
t18 -45q0 -26 -18 -44t-44 -18t-44.5 18t-18.5 44q0 27 18.5 45t44.5 18z" />
    <glyph glyph-name="upsilondieresis" unicode="&#x3cb;" horiz-adv-x="583" 
d="M307 479l188 19q48 -102 48 -219q0 -135 -69 -213t-194 -78q-208 0 -208 189v162q0 44 -7.5 51.5t-51.5 6.5v82l213 19v-301q0 -62 17 -85.5t57 -23.5q95 0 95 177q0 73 -12 100q-9 21 -24 27t-52 5v82zM384 687q26 0 44 -18t18 -45q0 -26 -18 -44t-44 -18t-44.5 18
t-18.5 44q0 27 18.5 45t44.5 18zM164 687q26 0 44 -18t18 -45q0 -26 -18 -44t-44 -18t-44.5 18t-18.5 44q0 27 18.5 45t44.5 18z" />
    <glyph glyph-name="omicrontonos" unicode="&#x3cc;" horiz-adv-x="583" 
d="M543 262q0 -54 -14 -101.5t-43 -88t-81 -64t-122 -23.5q-60 0 -105.5 19t-71 46t-41 63.5t-20.5 65.5t-5 57q0 36 6.5 71t24.5 72.5t45.5 65.5t73 46t104.5 18q124 0 186.5 -69.5t62.5 -177.5zM394 254q0 12 -0.5 21.5t-3 30t-9.5 36.5t-17.5 32.5t-29 25.5t-42.5 9
q-34 0 -56.5 -19t-32 -49.5t-12.5 -53t-3 -45.5q0 -11 0.5 -23.5t6.5 -38.5t16 -45t31.5 -34t50.5 -15q101 0 101 168zM279 715h143l-92 -164h-91z" />
    <glyph glyph-name="upsilontonos" unicode="&#x3cd;" horiz-adv-x="583" 
d="M307 479l188 19q48 -102 48 -219q0 -135 -69 -213t-194 -78q-208 0 -208 189v162q0 44 -7.5 51.5t-51.5 6.5v82l213 19v-301q0 -62 17 -85.5t57 -23.5q95 0 95 177q0 73 -12 100q-9 21 -24 27t-52 5v82zM263 715h143l-92 -164h-91z" />
    <glyph glyph-name="omegatonos" unicode="&#x3ce;" horiz-adv-x="794" 
d="M320 386h154v-170q0 -53 17 -83t46 -30q70 0 70 123q0 56 -18 135.5t-50 128.5h131q85 -101 85 -262q0 -120 -55 -179.5t-140 -59.5q-122 0 -163 113q-41 -113 -163 -113q-88 0 -141.5 61.5t-53.5 177.5q0 161 85 262h131q-32 -49 -50 -128.5t-18 -135.5q0 -123 70 -123
q29 0 46 30t17 83v170zM378 715h143l-92 -164h-91z" />
    <glyph glyph-name="uni0400" unicode="&#x400;" horiz-adv-x="625" 
d="M42 694h531v-182h-114v35q0 25 -10.5 32t-38.5 7h-149v-175h114q13 0 16.5 3.5t3.5 18.5v31h109v-220h-109v36q0 22 -20 22h-114v-195h162q32 0 40 9t8 35v41h114v-192h-543v89h25q28 0 34.5 9t6.5 37v426q0 17 -1.5 24.5t-11 13.5t-28.5 6h-25v89zM192 880h153l60 -129
h-101z" />
    <glyph glyph-name="c.Io" unicode="&#x401;" horiz-adv-x="625" 
d="M42 694h531v-182h-114v35q0 25 -10.5 32t-38.5 7h-149v-175h114q13 0 16.5 3.5t3.5 18.5v31h109v-220h-109v36q0 22 -20 22h-114v-195h162q32 0 40 9t8 35v41h114v-192h-543v89h25q28 0 34.5 9t6.5 37v426q0 17 -1.5 24.5t-11 13.5t-28.5 6h-25v89zM423 877q26 0 44 -18
t18 -45q0 -26 -18 -44t-44 -18t-44.5 18t-18.5 44q0 27 18.5 45t44.5 18zM203 877q26 0 44 -18t18 -45q0 -26 -18 -44t-44 -18t-44.5 18t-18.5 44q0 27 18.5 45t44.5 18z" />
    <glyph glyph-name="c.Dje" unicode="&#x402;" horiz-adv-x="848" 
d="M27 694h644v-206h-114v58q0 13 -0.5 18.5t-4.5 11.5t-13.5 8t-25.5 2h-87v-206q71 40 154 40q106 0 168 -55.5t62 -168.5q0 -88 -46 -149t-137 -61q-49 0 -71 8v97q15 -4 30 -4q28 0 42.5 29.5t14.5 74.5q0 119 -106 119q-61 0 -112 -40l1 -134q0 -31 7.5 -39t44.5 -8h22
v-89h-303v89h29q32 0 39 9t7 38v450h-86q-31 0 -38 -8.5t-7 -40.5v-49h-114v206z" />
    <glyph glyph-name="c.Gje" unicode="&#x403;" horiz-adv-x="594" 
d="M337 0h-297v89h21q17 0 27 2.5t14 9.5t5 13.5t1 21.5v424q0 13 -1 19t-4.5 13.5t-13 10t-25.5 2.5h-24v89h529v-204h-115v55q0 24 -7.5 33t-35.5 9h-150v-451q0 -15 1 -21.5t5 -14t13.5 -9.5t26.5 -2h30v-89zM291 880h153l-112 -129h-101z" />
    <glyph glyph-name="c.IeUkr" unicode="&#x404;" horiz-adv-x="688" 
d="M638 660v-201h-129v34q0 55 -12 78q-10 19 -39.5 31.5t-63.5 12.5q-86 0 -132 -56.5t-56 -144.5h260v-117h-259q9 -58 32 -95q18 -29 42 -49.5t49.5 -29.5t44.5 -12.5t37 -3.5q118 0 223 76v-129q-108 -75 -246 -75q-81 0 -143.5 25t-99.5 63.5t-60.5 89t-31.5 96
t-8 90.5q0 52 10 101t36 99t65.5 87.5t103 61t143.5 23.5q124 0 234 -55z" />
    <glyph glyph-name="c.Dze" unicode="&#x405;" horiz-adv-x="573" 
d="M506 673v-177h-119v34q0 17 -2 28.5t-9 29t-27 27t-51 9.5q-29 0 -49 -9t-28.5 -23.5t-12 -26t-3.5 -22.5q0 -22 10.5 -40.5t37 -36.5t48 -29.5t64.5 -32.5q91 -44 130.5 -93t39.5 -120q0 -64 -30.5 -112t-70.5 -67q-66 -33 -172 -33q-104 0 -211 41v199h124v-36
q0 -106 102 -106q48 0 76 24.5t28 66.5q0 43 -26.5 67t-107.5 68q-43 23 -69.5 40t-58.5 45t-47.5 62.5t-15.5 75.5q0 17 3.5 36t18 48t38.5 51t70.5 38t108.5 16q112 0 211 -42z" />
    <glyph glyph-name="c.IUkr" unicode="&#x406;" horiz-adv-x="375" 
d="M43 694h289v-89h-22q-17 0 -26 -2.5t-13.5 -10.5t-5 -15t-0.5 -25v-415q0 -30 7 -39t38 -9h22v-89h-289v89h22q32 0 39 9t7 39v422q0 28 -8 37t-38 9h-22v89z" />
    <glyph glyph-name="c.Yi" unicode="&#x407;" horiz-adv-x="375" 
d="M43 694h289v-89h-22q-17 0 -26 -2.5t-13.5 -10.5t-5 -15t-0.5 -25v-415q0 -30 7 -39t38 -9h22v-89h-289v89h22q32 0 39 9t7 39v422q0 28 -8 37t-38 9h-22v89zM298 877q26 0 44 -18t18 -45q0 -26 -18 -44t-44 -18t-44.5 18t-18.5 44q0 27 18.5 45t44.5 18zM78 877
q26 0 44 -18t18 -45q0 -26 -18 -44t-44 -18t-44.5 18t-18.5 44q0 27 18.5 45t44.5 18z" />
    <glyph glyph-name="c.Je" unicode="&#x408;" horiz-adv-x="531" 
d="M33 181h104q0 -22 1 -34t6.5 -28.5t19.5 -24.5t36 -8q46 0 60.5 29.5t14.5 85.5v358q0 28 -8 37t-35 9h-31v89h296v-89h-25q-28 0 -35.5 -9t-7.5 -37v-334q0 -40 -4.5 -72t-19 -66t-39 -56.5t-67.5 -37t-101 -14.5q-52 0 -86 8.5t-79 27.5v166z" />
    <glyph glyph-name="c.Lje" unicode="&#x409;" horiz-adv-x="1109" 
d="M709 427h108q135 0 196 -52t61 -160q0 -103 -71.5 -159t-180.5 -56h-335v89h22q32 0 39 9t7 39v441h-158q-16 -288 -46 -415q-25 -102 -67.5 -142.5t-120.5 -40.5q-82 0 -130 25v176h104v-30q0 -55 24 -55q25 0 44 73q20 81 32 213t12 177q0 28 -8 37t-35 9h-31v89h601
v-89h-22q-32 0 -38.5 -10t-6.5 -43v-125zM709 322v-215h92q48 0 79.5 27t31.5 78q0 110 -130 110h-73z" />
    <glyph glyph-name="c.Nje" unicode="&#x40a;" horiz-adv-x="1043" 
d="M757 0h-336v89h22q32 0 39 9t7 39v174h-228v-182q0 -13 1.5 -20t12 -13.5t31.5 -6.5h24v-89h-290v89h24q16 0 25.5 2.5t13.5 10t4.5 14t0.5 21.5v420q0 28 -7.5 38t-36.5 10h-24v89h290v-89h-24q-28 0 -36.5 -9.5t-8.5 -35.5v-133h228v133q0 17 -2 25t-12.5 14t-31.5 6
h-22v89h289v-89h-22q-32 0 -38.5 -10t-6.5 -43v-125h108q135 0 196 -52t61 -160q0 -104 -71 -159.5t-180 -55.5zM643 322v-215h92q48 0 79.5 27t31.5 78q0 110 -130 110h-73z" />
    <glyph glyph-name="c.Tshe" unicode="&#x40b;" horiz-adv-x="883" 
d="M797 202v-65q0 -30 7 -39t38 -9h22v-89h-289v89h22q32 0 39 9t7 39v63q0 56 -22 82t-73 26q-72 0 -122 -44v-128q0 -31 7.5 -39t44.5 -8h22v-89h-303v89h29q32 0 39 9t7 38v450h-86q-31 0 -38 -8.5t-7 -40.5v-49h-114v206h644v-206h-114v58q0 13 -0.5 18.5t-4.5 11.5
t-13.5 8t-25.5 2h-87v-213q26 18 72 31.5t95 13.5q106 0 155 -54t49 -162z" />
    <glyph glyph-name="c.Kje" unicode="&#x40c;" horiz-adv-x="674" 
d="M43 694h289v-89h-22q-27 0 -36 -7.5t-9 -27.5v-144h9q32 0 46 12t36 51l61 112q15 28 23 40t26.5 32t43.5 28.5t58 8.5q59 0 95 -16v-91q-15 6 -38 6q-48 0 -77 -59l-49 -102q-19 -32 -50 -55t-55 -25v-1q71 -13 122 -104l74 -128q15 -27 32.5 -36.5t50.5 -9.5h5v-89h-87
q-65 0 -95.5 18.5t-64.5 79.5l-90 164q-17 29 -29.5 38.5t-43.5 9.5h-3v-173q0 -30 7 -39t38 -9h22v-89h-289v89h22q32 0 39 9t7 39v422q0 28 -8 37t-38 9h-22v89zM346 880h153l-112 -129h-101z" />
    <glyph glyph-name="uni040D" unicode="&#x40d;" horiz-adv-x="771" 
d="M261 560v-260l248 259v1q0 17 -2 25t-12.5 14t-31.5 6h-22v89h290v-89h-21q-30 0 -38.5 -8t-8.5 -37v-427q0 -27 8.5 -35.5t38.5 -8.5h21v-89h-290v89h22q30 0 38 8.5t8 35.5v270l-248 -261v-13q0 -13 1.5 -20t12 -13.5t31.5 -6.5h24v-89h-290v89h24q16 0 25.5 2.5
t13.5 10t4.5 14t0.5 21.5v420q0 28 -7.5 38t-36.5 10h-24v89h290v-89h-24q-28 0 -36.5 -9.5t-8.5 -35.5zM232 880h153l60 -129h-101z" />
    <glyph glyph-name="c.Yushort" unicode="&#x40e;" horiz-adv-x="708" 
d="M293 127l-203 417q-2 3 -7.5 15t-7.5 15.5t-7.5 11.5t-10.5 10.5t-13 5.5t-17 3h-19v89h292v-89h-27q-35 0 -35 -21q0 -14 12 -38l126 -272h2l111 264q8 18 8 38q0 29 -36 29h-23v89h263v-89h-17q-16 0 -27 -9t-15 -17.5t-14 -30.5l-170 -381q-22 -49 -37.5 -76.5
t-42.5 -56.5t-64.5 -42t-89.5 -13q-76 0 -164 30v172h104v-22q0 -73 60 -73q49 0 69 41zM136 889h143q6 -56 67 -56q62 0 68 56h143q-17 -129 -212 -129q-192 0 -209 129z" />
    <glyph glyph-name="c.Dzhe" unicode="&#x40f;" horiz-adv-x="751" 
d="M40 694h290v-89h-24q-28 0 -36.5 -9.5t-8.5 -35.5v-453h228v453q0 17 -2 25t-12.5 14t-31.5 6h-22v89h290v-89h-21q-30 0 -38.5 -8t-8.5 -37v-427q0 -27 8.5 -35.5t38.5 -8.5h21v-89h-243q-19 0 -26 -9t-7 -38v-103h-118v103q0 27 -6 37t-22 10h-249v89h24q16 0 25.5 2.5
t13.5 10t4.5 14t0.5 21.5v420q0 28 -7.5 38t-36.5 10h-24v89z" />
    <glyph glyph-name="c.A" unicode="&#x410;" horiz-adv-x="708" 
d="M278 702h156l187 -545q16 -45 27.5 -56.5t35.5 -11.5h16v-89h-288v89h29q11 0 17 0.5t11.5 5.5t5.5 15q0 4 -9 35l-18 55h-215l-20 -56q-7 -28 -7 -31q0 -24 38 -24h23v-89h-259v89q35 0 48.5 9.5t26.5 47.5zM340 546l-83 -243h168l-83 243h-2z" />
    <glyph glyph-name="c.Be" unicode="&#x411;" horiz-adv-x="661" 
d="M375 0h-335v89h21q17 0 27 2.5t14 9.5t5 13.5t1 21.5v424q0 13 -1 19t-4.5 13.5t-13 10t-25.5 2.5h-24v89h530v-204h-115v55q0 24 -7.5 33t-35.5 9h-151v-160h108q135 0 196 -52t61 -160q0 -104 -71 -159.5t-180 -55.5zM261 322v-215h92q48 0 79.5 27.5t31.5 78.5
q0 109 -130 109h-73z" />
    <glyph glyph-name="c.Ve" unicode="&#x412;" horiz-adv-x="667" 
d="M41 605v89h312q230 0 230 -175q0 -105 -93 -150q135 -35 135 -169q0 -64 -33.5 -116.5t-104.5 -73.5q-36 -10 -126 -10h-320v89h21q30 0 38 8.5t8 38.5v424q0 13 -1 19t-5 13.5t-13.5 10t-26.5 2.5h-21zM252 588v-177h73q109 0 109 92q0 85 -104 85h-78zM252 306v-200h96
q23 0 40.5 3t37 12.5t30 31.5t10.5 55q0 28 -11 48t-24.5 29t-35.5 14.5t-33.5 6t-29.5 0.5h-80z" />
    <glyph glyph-name="c.Ghe" unicode="&#x413;" horiz-adv-x="594" 
d="M337 0h-297v89h21q17 0 27 2.5t14 9.5t5 13.5t1 21.5v424q0 13 -1 19t-4.5 13.5t-13 10t-25.5 2.5h-24v89h529v-204h-115v55q0 24 -7.5 33t-35.5 9h-150v-451q0 -15 1 -21.5t5 -14t13.5 -9.5t26.5 -2h30v-89z" />
    <glyph glyph-name="c.De" unicode="&#x414;" horiz-adv-x="765" 
d="M548 0h-331q-57 0 -69 -16.5t-12 -78.5v-57h-118v259h22q31 0 47 9t31 29q42 69 70.5 192.5t28.5 221.5q0 28 -8 37t-35 9h-31v89h581v-89h-22q-30 0 -37.5 -9t-7.5 -44v-398q0 -30 7 -38.5t38 -8.5h44v-259h-118v58q0 61 -11.5 77.5t-68.5 16.5zM344 587
q-4 -152 -32 -280.5t-69 -199.5h260v480h-159z" />
    <glyph glyph-name="c.Ie" unicode="&#x415;" horiz-adv-x="625" 
d="M42 694h531v-182h-114v35q0 25 -10.5 32t-38.5 7h-149v-175h114q13 0 16.5 3.5t3.5 18.5v31h109v-220h-109v36q0 22 -20 22h-114v-195h162q32 0 40 9t8 35v41h114v-192h-543v89h25q28 0 34.5 9t6.5 37v426q0 17 -1.5 24.5t-11 13.5t-28.5 6h-25v89z" />
    <glyph glyph-name="c.Zhe" unicode="&#x416;" horiz-adv-x="962" 
d="M409 426v133q0 28 -7.5 37t-37.5 9h-22v89h278v-89h-22q-27 0 -36 -7.5t-9 -27.5v-144h19q32 0 46 12t36 51l61 112q60 109 153 109q47 0 83 -16v-91q-14 6 -38 6q-48 0 -77 -59l-46 -96q-16 -32 -49.5 -58t-58.5 -28v-1q71 -13 122 -104l74 -128q15 -27 32.5 -36.5
t50.5 -9.5h5v-89h-77q-65 0 -95.5 18.5t-64.5 79.5l-90 164q-17 29 -29.5 38.5t-43.5 9.5h-13v-173q0 -30 7 -39t38 -9h22v-89h-279v89h22q32 0 39 9t7 39v173h-13q-31 0 -43.5 -9.5t-29.5 -38.5l-90 -164q-34 -61 -64.5 -79.5t-95.5 -18.5h-77v89h5q33 0 50.5 9.5
t32.5 36.5l74 128q51 91 122 104v1q-25 2 -58.5 28t-49.5 58l-46 96q-29 59 -77 59q-25 0 -38 -6v91q36 16 83 16q93 0 153 -109l61 -112q22 -39 36 -51t46 -12h19z" />
    <glyph glyph-name="c.Ze" unicode="&#x417;" horiz-adv-x="574" 
d="M64 506v153q36 17 57.5 26t66 19t91.5 10q120 0 182 -48.5t62 -126.5q0 -70 -49 -114t-129 -58v-2q85 -9 136.5 -55.5t51.5 -117.5q0 -94 -63.5 -153.5t-198.5 -59.5q-127 0 -218 52v169h124v-19q0 -44 27.5 -68t71.5 -24q45 0 70 30t25 78q0 60 -47.5 84.5t-159.5 24.5
v110q112 1 154.5 26t42.5 81q0 39 -22 60t-62 21q-39 0 -66.5 -19t-27.5 -59v-20h-119z" />
    <glyph glyph-name="c.I" unicode="&#x418;" horiz-adv-x="771" 
d="M261 560v-260l248 259v1q0 17 -2 25t-12.5 14t-31.5 6h-22v89h290v-89h-21q-30 0 -38.5 -8t-8.5 -37v-427q0 -27 8.5 -35.5t38.5 -8.5h21v-89h-290v89h22q30 0 38 8.5t8 35.5v270l-248 -261v-13q0 -13 1.5 -20t12 -13.5t31.5 -6.5h24v-89h-290v89h24q16 0 25.5 2.5
t13.5 10t4.5 14t0.5 21.5v420q0 28 -7.5 38t-36.5 10h-24v89h290v-89h-24q-28 0 -36.5 -9.5t-8.5 -35.5z" />
    <glyph glyph-name="c.Ishort" unicode="&#x419;" horiz-adv-x="771" 
d="M261 560v-260l248 259v1q0 17 -2 25t-12.5 14t-31.5 6h-22v89h290v-89h-21q-30 0 -38.5 -8t-8.5 -37v-427q0 -27 8.5 -35.5t38.5 -8.5h21v-89h-290v89h22q30 0 38 8.5t8 35.5v270l-248 -261v-13q0 -13 1.5 -20t12 -13.5t31.5 -6.5h24v-89h-290v89h24q16 0 25.5 2.5
t13.5 10t4.5 14t0.5 21.5v420q0 28 -7.5 38t-36.5 10h-24v89h290v-89h-24q-28 0 -36.5 -9.5t-8.5 -35.5zM164 880h143q6 -56 67 -56q62 0 68 56h143q-17 -129 -212 -129q-192 0 -209 129z" />
    <glyph glyph-name="c.Ka" unicode="&#x41a;" horiz-adv-x="674" 
d="M43 694h289v-89h-22q-27 0 -36 -7.5t-9 -27.5v-144h9q32 0 46 12t36 51l61 112q15 28 23 40t26.5 32t43.5 28.5t58 8.5q59 0 95 -16v-91q-15 6 -38 6q-48 0 -77 -59l-49 -102q-19 -32 -50 -55t-55 -25v-1q71 -13 122 -104l74 -128q15 -27 32.5 -36.5t50.5 -9.5h5v-89h-87
q-65 0 -95.5 18.5t-64.5 79.5l-90 164q-17 29 -29.5 38.5t-43.5 9.5h-3v-173q0 -30 7 -39t38 -9h22v-89h-289v89h22q32 0 39 9t7 39v422q0 28 -8 37t-38 9h-22v89z" />
    <glyph glyph-name="c.El" unicode="&#x41b;" horiz-adv-x="800" 
d="M539 587h-158q-11 -261 -66 -429q-33 -100 -78.5 -139t-125.5 -39q-64 0 -114 25v176h104v-30q0 -55 23 -55q28 0 53 58q30 70 49 171.5t23 156t4 77.5q0 28 -8 37t-35 9h-31v89h581v-89h-22q-32 0 -38.5 -10t-6.5 -43v-415q0 -30 7 -39t38 -9h22v-89h-289v89h22
q32 0 39 9t7 39v450z" />
    <glyph glyph-name="c.Em" unicode="&#x41c;" horiz-adv-x="958" 
d="M40 694h310l117 -392q10 -25 10 -38h2q62 219 131 430h307v-89h-16q-37 0 -44 -9t-7 -46v-409q0 -34 7 -43t41 -9h19v-89h-281v89h18q33 0 40 9.5t7 42.5v464h-2l-172 -564h-120l-166 564h-2v-468q0 -33 9 -40.5t40 -7.5h16v-89h-264v89h18q35 0 42.5 9.5t7.5 42.5v415
q0 30 -8.5 39.5t-41.5 9.5h-18v89z" />
    <glyph glyph-name="c.En" unicode="&#x41d;" horiz-adv-x="771" 
d="M40 694h290v-89h-24q-28 0 -36.5 -9.5t-8.5 -35.5v-133h248v133q0 17 -2 25t-12.5 14t-31.5 6h-22v89h290v-89h-21q-30 0 -38.5 -8t-8.5 -37v-427q0 -27 8.5 -35.5t38.5 -8.5h21v-89h-290v89h22q30 0 38 8.5t8 35.5v178h-248v-182q0 -13 1.5 -20t12 -13.5t31.5 -6.5h24
v-89h-290v89h24q16 0 25.5 2.5t13.5 10t4.5 14t0.5 21.5v420q0 28 -7.5 38t-36.5 10h-24v89z" />
    <glyph glyph-name="c.O" unicode="&#x41e;" horiz-adv-x="781" 
d="M46 340q0 171 93.5 273t257.5 102q165 0 252 -98t87 -258q0 -166 -90.5 -273t-256.5 -107q-165 0 -254 101.5t-89 259.5zM206 343q0 -50 8.5 -92.5t28.5 -80.5t57.5 -59.5t90.5 -21.5q54 0 91.5 23.5t56.5 65t27 85t8 94.5q0 19 -1 34.5t-5.5 49t-16.5 58.5t-30.5 51
t-51.5 40.5t-76 14.5q-93 0 -140 -71t-47 -191z" />
    <glyph glyph-name="c.Pe" unicode="&#x41f;" horiz-adv-x="751" 
d="M711 0h-290v89h24q28 0 36.5 9.5t8.5 35.5v453h-228v-453q0 -17 2 -25t12.5 -14t31.5 -6h22v-89h-290v89h21q30 0 38.5 8t8.5 37v427q0 27 -8.5 35.5t-38.5 8.5h-21v89h671v-89h-24q-16 0 -25.5 -2.5t-13.5 -10t-4.5 -14t-0.5 -21.5v-420q0 -28 7.5 -38t36.5 -10h24v-89z
" />
    <glyph glyph-name="c.Er" unicode="&#x420;" horiz-adv-x="625" 
d="M41 605v89h302q86 0 130 -17q38 -14 63.5 -39t36 -54.5t14 -50t3.5 -40.5q0 -60 -26 -107.5t-76 -73.5q-46 -24 -129 -24h-103v-158q0 -25 8 -33t38 -8h30v-89h-291v89h24q29 0 36.5 9.5t7.5 36.5v422q0 15 -0.5 21.5t-4.5 14t-13.5 10t-25.5 2.5h-24zM256 592v-202h68
q62 0 91.5 24.5t29.5 79.5q0 98 -116 98h-73z" />
    <glyph glyph-name="c.Es" unicode="&#x421;" horiz-adv-x="688" 
d="M638 660v-201h-129v34q0 55 -12 78q-10 19 -39.5 31.5t-63.5 12.5q-67 0 -112 -38.5t-62 -93t-17 -121.5q0 -100 36 -160q18 -29 42 -49.5t49.5 -29.5t44.5 -12.5t37 -3.5q118 0 223 76v-129q-108 -75 -246 -75q-81 0 -143.5 25t-99.5 63.5t-60.5 89t-31.5 96t-8 90.5
q0 52 10 101t36 99t65.5 87.5t103 61t143.5 23.5q124 0 234 -55z" />
    <glyph glyph-name="c.Te" unicode="&#x422;" horiz-adv-x="698" 
d="M27 694h644v-206h-114v56q0 28 -6.5 35t-37.5 7h-87v-450q0 -29 7.5 -38t40.5 -9h26v-89h-303v89h31q31 0 37.5 9t6.5 38v450h-86q-31 0 -38 -6.5t-7 -38.5v-53h-114v206z" />
    <glyph glyph-name="c.U" unicode="&#x423;" horiz-adv-x="708" 
d="M293 127l-203 417q-2 3 -7.5 15t-7.5 15.5t-7.5 11.5t-10.5 10.5t-13 5.5t-17 3h-19v89h292v-89h-27q-35 0 -35 -21q0 -14 12 -38l126 -272h2l111 264q8 18 8 38q0 29 -36 29h-23v89h263v-89h-17q-16 0 -27 -9t-15 -17.5t-14 -30.5l-170 -381q-22 -49 -37.5 -76.5
t-42.5 -56.5t-64.5 -42t-89.5 -13q-76 0 -164 30v172h104v-22q0 -73 60 -73q49 0 69 41z" />
    <glyph glyph-name="c.Ef" unicode="&#x424;" horiz-adv-x="816" 
d="M776 354q0 -40 -12 -72.5t-41.5 -63.5t-89.5 -51t-148 -25v-5q0 -30 7 -39t38 -9h22v-89h-289v89h22q32 0 39 9t7 39v4q-133 6 -212 58t-79 141q0 196 291 213v6q0 28 -8 37t-38 9h-22v89h289v-89h-22q-17 0 -26 -2t-13.5 -10t-5 -15.5t-0.5 -24.5q142 -8 216.5 -61.5
t74.5 -137.5zM190 341q0 -93 141 -106v224q-78 -11 -109.5 -38.5t-31.5 -79.5zM627 351q0 96 -142 108v-224q48 5 79 18t43.5 32t16 33.5t3.5 32.5z" />
    <glyph glyph-name="c.Ha" unicode="&#x425;" horiz-adv-x="708" 
d="M41 694h287v-89h-14q-23 0 -23 -15q0 -8 17 -34l58 -88l59 82q19 24 19 39q0 16 -19 16h-16v89h261v-89q-50 0 -72 -27q-14 -16 -28 -34l-133 -178l142 -209q22 -32 42 -47.5t30.5 -18t30.5 -2.5v-89h-294v89h16q24 0 24 17q0 10 -19 39l-65 98l-70 -98q-1 0 -3 -4
l-7 -10q-12 -15 -12 -25q0 -17 25 -17h17v-89h-268v89h15q25 0 38.5 8.5t37.5 35.5l10 12l147 200l-135 199q-26 38 -44.5 50t-53.5 11v89z" />
    <glyph glyph-name="c.Tse" unicode="&#x426;" horiz-adv-x="751" 
d="M534 0h-494v89h24q16 0 25.5 2.5t13.5 10t4.5 14t0.5 21.5v420q0 28 -7.5 38t-36.5 10h-24v89h290v-89h-24q-28 0 -36.5 -9.5t-8.5 -35.5v-453h228v453q0 17 -2 25t-12.5 14t-31.5 6h-22v89h290v-89h-21q-30 0 -38.5 -8t-8.5 -37v-424q0 -30 7 -38.5t38 -8.5h44v-241
h-118v58q0 61 -11.5 77.5t-68.5 16.5z" />
    <glyph glyph-name="c.Che" unicode="&#x427;" horiz-adv-x="739" 
d="M415 694h284v-89h-22q-17 0 -26 -2.5t-13.5 -10.5t-5 -15t-0.5 -25v-415q0 -30 7 -39t38 -9h22v-89h-289v89h22q32 0 39 9t7 39v168q-73 -51 -170 -51q-117 0 -165.5 57.5t-48.5 177.5v68q0 30 -7 39t-38 9h-22v89h284v-89h-17q-32 0 -39 -9t-7 -39v-69q0 -124 99 -124
q75 0 131 53v142q0 28 -8 37t-38 9h-17v89z" />
    <glyph glyph-name="c.Sha" unicode="&#x428;" horiz-adv-x="1033" 
d="M40 694h285v-89h-19q-28 0 -36.5 -9.5t-8.5 -35.5v-453h178v453q0 17 -2 25t-12.5 14t-31.5 6h-17v89h280v-89h-16q-30 0 -38.5 -8t-8.5 -37v-453h178v453q0 17 -2 25t-12.5 14t-31.5 6h-17v89h285v-89h-21q-30 0 -38.5 -8t-8.5 -37v-427q0 -27 8.5 -35.5t38.5 -8.5h21
v-89h-953v89h24q16 0 25.5 2.5t13.5 10t4.5 14t0.5 21.5v420q0 28 -7.5 38t-36.5 10h-24v89z" />
    <glyph glyph-name="c.Shcha" unicode="&#x429;" horiz-adv-x="1033" 
d="M816 0h-776v89h24q16 0 25.5 2.5t13.5 10t4.5 14t0.5 21.5v420q0 28 -7.5 38t-36.5 10h-24v89h285v-89h-19q-28 0 -36.5 -9.5t-8.5 -35.5v-453h178v453q0 17 -2 25t-12.5 14t-31.5 6h-17v89h280v-89h-16q-30 0 -38.5 -8t-8.5 -37v-453h178v453q0 17 -2 25t-12.5 14
t-31.5 6h-17v89h285v-89h-21q-30 0 -38.5 -8t-8.5 -37v-424q0 -30 7 -38.5t38 -8.5h44v-241h-118v58q0 61 -11.5 77.5t-68.5 16.5z" />
    <glyph glyph-name="c.Hard" unicode="&#x42a;" horiz-adv-x="846" 
d="M446 560v-133h108q135 0 196 -52t61 -160q0 -104 -71 -159.5t-180 -55.5h-343v89h30q32 0 39 9.5t7 37.5v451h-110q-28 0 -35.5 -9t-7.5 -33v-55h-115v204h489v-89h-24q-16 0 -25.5 -2.5t-13 -10t-4.5 -13.5t-1 -19zM446 322v-215h92q48 0 79.5 27.5t31.5 78.5
q0 109 -130 109h-73z" />
    <glyph glyph-name="c.Yeru" unicode="&#x42b;" horiz-adv-x="1011" 
d="M111 136v423q0 28 -8 37t-38 9h-22v89h289v-89h-24q-16 0 -25.5 -2.5t-13 -10t-4.5 -13.5t-1 -19v-133h108q135 0 196 -52t61 -160q0 -104 -71 -159.5t-180 -55.5h-343v89h30q32 0 39 9.5t7 37.5zM264 322v-215h92q48 0 79.5 27.5t31.5 78.5q0 109 -130 109h-73zM682 694
h289v-89h-22q-17 0 -26 -2.5t-13.5 -10.5t-5 -15t-0.5 -25v-415q0 -30 7 -39t38 -9h22v-89h-289v89h22q32 0 39 9t7 39v422q0 28 -8 37t-38 9h-22v89z" />
    <glyph glyph-name="c.Soft" unicode="&#x42c;" horiz-adv-x="664" 
d="M111 136v423q0 28 -8 37t-38 9h-22v89h289v-89h-24q-16 0 -25.5 -2.5t-13 -10t-4.5 -13.5t-1 -19v-133h108q135 0 196 -52t61 -160q0 -104 -71 -159.5t-180 -55.5h-343v89h30q32 0 39 9.5t7 37.5zM264 322v-215h92q48 0 79.5 27.5t31.5 78.5q0 109 -130 109h-73z" />
    <glyph glyph-name="c.E" unicode="&#x42d;" horiz-adv-x="688" 
d="M183 297v117h300q-6 99 -49.5 150t-132.5 51q-34 0 -63.5 -12.5t-39.5 -31.5q-12 -23 -12 -78v-24h-129v191q110 55 253 55q78 0 137.5 -21.5t95.5 -56t59 -83t31.5 -97.5t8.5 -105q0 -39 -8.5 -83.5t-33 -97.5t-61.5 -94.5t-101.5 -69.5t-145.5 -28q-134 0 -242 75v129
q105 -76 223 -76q177 0 206 190h-296z" />
    <glyph glyph-name="c.Yu" unicode="&#x42e;" horiz-adv-x="1059" 
d="M40 694h290v-89h-24q-28 0 -36.5 -9.5t-8.5 -35.5v-133h129q21 134 103 211t211 77q151 0 230.5 -98t79.5 -258q0 -166 -83 -273t-234 -107q-144 0 -224.5 92.5t-87.5 239.5h-124v-182q0 -13 1.5 -20t12 -13.5t31.5 -6.5h24v-89h-290v89h24q16 0 25.5 2.5t13.5 10t4.5 14
t0.5 21.5v420q0 28 -7.5 38t-36.5 10h-24v89zM544 343q0 -50 7.5 -92.5t24 -80.5t48 -59.5t75.5 -21.5q45 0 76.5 24t47.5 65t22.5 84.5t6.5 94.5q0 19 -1 34.5t-4.5 49t-13.5 58.5t-25.5 51t-43 40.5t-63.5 14.5q-78 0 -117.5 -71t-39.5 -191z" />
    <glyph glyph-name="c.Ya" unicode="&#x42f;" horiz-adv-x="677" 
d="M424 389v202h-76q-116 0 -116 -99q0 -103 120 -103h72zM228 315v1q-67 14 -106.5 58.5t-39.5 120.5q0 20 4.5 41.5t16 49t37 52t60.5 38.5q46 18 127 18h308v-89h-23q-21 0 -31 -6.5t-11.5 -14.5t-1.5 -27v-424q0 -14 0.5 -20t4.5 -12.5t13.5 -9t25.5 -2.5h23v-89h-278
v89h23q28 0 36 8t8 32v159h-46q-41 0 -59.5 -16t-34.5 -55l-54 -130q-23 -56 -54.5 -71.5t-103.5 -15.5h-84v89h15q26 0 44.5 9.5t26 19.5t15.5 27l38 80q34 71 101 90z" />
    <glyph glyph-name="c.a" unicode="&#x430;" horiz-adv-x="563" 
d="M80 328v118q92 58 206 58q63 0 104.5 -15.5t60.5 -43.5t25.5 -54.5t6.5 -60.5v-178q0 -32 6.5 -45.5t23.5 -13.5q11 0 35 9v-86q-63 -30 -120 -30q-63 0 -82 58q-70 -58 -147 -58q-69 0 -114 33t-45 107q0 36 13.5 65t36.5 46t41.5 26t38.5 15q77 23 98 28l70 16
q0 20 -2 33t-8.5 29.5t-23 25t-42.5 8.5q-20 0 -33.5 -4.5t-20.5 -10.5t-10.5 -18.5t-4 -20t-0.5 -23.5v-13h-113zM338 190v55q-84 -23 -119.5 -43.5t-35.5 -62.5q0 -27 17.5 -46t47.5 -19q23 0 44 13q46 27 46 103z" />
    <glyph glyph-name="c.be" unicode="&#x431;" horiz-adv-x="603" 
d="M307 549q-84 -13 -118.5 -57.5t-40.5 -125.5h4q23 61 72.5 97.5t117.5 36.5q64 0 109.5 -22t68.5 -59.5t33 -75.5t10 -81q0 -57 -14 -105t-43 -87.5t-80.5 -62t-120.5 -22.5q-133 0 -196.5 85.5t-63.5 235.5q0 168 67.5 253.5t213.5 110.5q144 32 176 51v-119
q-34 -28 -195 -53zM321 400q-40 0 -67 -26t-36.5 -59.5t-9.5 -72.5q0 -79 30 -117.5t75 -38.5q49 0 75 43t26 125q0 146 -93 146z" />
    <glyph glyph-name="c.ve" unicode="&#x432;" horiz-adv-x="549" 
d="M25 490h267q103 0 154 -29.5t51 -96.5q0 -33 -25 -61.5t-70 -38.5q60 -7 92.5 -37t32.5 -79q0 -148 -223 -148h-279v82h25q25 0 31.5 8t6.5 35v223q0 23 -0.5 30.5t-4 16.5t-11.5 11t-23 2h-24v82zM228 403v-107h42q43 0 61.5 12.5t18.5 42.5t-20 41t-57 11h-45zM227 213
v-126h52q54 0 75.5 15.5t21.5 48.5t-22 47.5t-74 14.5h-53z" />
    <glyph glyph-name="c.ghe" unicode="&#x433;" horiz-adv-x="495" 
d="M30 490h435v-183h-108v47q0 23 -8 30t-35 7h-75v-246q0 -42 6.5 -52.5t31.5 -10.5h25v-82h-272v82h25q24 0 31 10t7 53v200q0 44 -7 53.5t-39 9.5h-17v82z" />
    <glyph glyph-name="c.de" unicode="&#x434;" horiz-adv-x="657" 
d="M92 490h520v-82h-26q-26 0 -31.5 -12t-5.5 -60v-191q0 -37 6.5 -50t27.5 -13h51v-222h-108v55q0 54 -8.5 69.5t-49.5 15.5h-297q-41 0 -49.5 -15.5t-8.5 -69.5v-55h-108v222h27q40 0 63 42q29 51 44.5 132t15.5 125q0 9 -1.5 14t-10.5 9t-26 4h-25v82zM403 386h-115
q-15 -199 -69 -282h184v282z" />
    <glyph glyph-name="c.ie" unicode="&#x435;" horiz-adv-x="531" 
d="M496 224h-307q2 -49 33.5 -86.5t95.5 -37.5q71 0 166 57v-118q-101 -56 -207 -56q-57 0 -101 18t-69.5 44.5t-41.5 62.5t-21.5 66.5t-5.5 61.5q0 52 14.5 99t43 86t76.5 62.5t109 23.5q45 0 80.5 -13t57.5 -30.5t37.5 -47t23 -51.5t11.5 -55.5t4.5 -47.5t0.5 -38z
M190 312h169q-1 30 -9 51.5t-17.5 31.5t-22.5 16t-19 6.5t-12 0.5q-37 0 -61.5 -30.5t-27.5 -75.5z" />
    <glyph glyph-name="c.zhe" unicode="&#x436;" horiz-adv-x="918" 
d="M882 82h8v-82q-44 -8 -74 -8q-84 0 -129 60l-80 107q-25 34 -37 43.5t-33 9.5h-9v-67q0 -43 7.5 -53t34.5 -10h9v-82h-240v82h9q26 0 34 10t8 53v67h-9q-21 0 -33 -9.5t-37 -43.5l-80 -107q-45 -60 -129 -60q-30 0 -74 8v82h8q26 0 41.5 8.5t34.5 33.5l61 81q29 39 94 50
v7q-54 6 -80 39l-53 70q-32 41 -66 41q-11 0 -21 -4v82q26 8 55 8q50 0 82.5 -18t63.5 -59l59 -79q36 -48 73 -48h10v51q0 43 -7.5 53t-34.5 10h-9v82h240v-82h-9q-27 0 -34.5 -10t-7.5 -53v-51h10q37 0 73 48l59 79q30 40 63.5 58.5t82.5 18.5q28 0 55 -8v-82q-10 4 -21 4
q-34 0 -66 -41l-53 -70q-26 -33 -80 -39v-7q65 -11 94 -50l61 -81q31 -42 76 -42z" />
    <glyph glyph-name="c.ze" unicode="&#x437;" horiz-adv-x="504" 
d="M59 352v115q83 40 190 40q110 0 161 -36.5t51 -93.5q0 -45 -33.5 -77t-97.5 -41v-1q65 -5 106 -36t41 -80q0 -68 -58 -113t-161 -45q-22 0 -41.5 1t-36.5 2.5t-31 3t-27 4.5t-21.5 4.5t-19 5l-15 5t-13.5 5t-10 3.5v142h118v-20q0 -67 81 -67q41 0 64 22t23 53
q0 17 -4.5 29t-16.5 19.5t-22.5 12t-33.5 6t-37.5 2t-45.5 0.5v86q30 0 44 0.5t35 2t29.5 5t18.5 10.5t13.5 17.5t3.5 25.5q0 21 -19 37.5t-51 16.5t-51.5 -16t-19.5 -37v-13h-113z" />
    <glyph glyph-name="c.i" unicode="&#x438;" horiz-adv-x="628" 
d="M397 144v106l-166 -119q1 -31 8 -40t30 -9h15v-82h-252v82h19q22 0 28 11.5t6 51.5v200q0 41 -7 52t-31 11h-15v82h252v-82h-15q-24 0 -31 -10t-7 -53v-99l166 120q-2 28 -8.5 35t-29.5 7h-15v82h252v-82h-21q-20 0 -26 -12t-6 -50v-201q0 -38 6.5 -50.5t25.5 -12.5h21
v-82h-252v82h15q24 0 31 10t7 52z" />
    <glyph glyph-name="c.ishort" unicode="&#x439;" horiz-adv-x="628" 
d="M397 144v106l-166 -119q1 -31 8 -40t30 -9h15v-82h-252v82h19q22 0 28 11.5t6 51.5v200q0 41 -7 52t-31 11h-15v82h252v-82h-15q-24 0 -31 -10t-7 -53v-99l166 120q-2 28 -8.5 35t-29.5 7h-15v82h252v-82h-21q-20 0 -26 -12t-6 -50v-201q0 -38 6.5 -50.5t25.5 -12.5h21
v-82h-252v82h15q24 0 31 10t7 52zM104 690h143q6 -56 67 -56q62 0 68 56h143q-17 -129 -212 -129q-192 0 -209 129z" />
    <glyph glyph-name="c.ka" unicode="&#x43a;" horiz-adv-x="586" 
d="M85 145v200q0 43 -7.5 53t-34.5 10h-16v82h247v-82h-9q-27 0 -34.5 -10t-7.5 -53v-51h10q37 0 73 48l59 79q30 40 63.5 58.5t82.5 18.5q28 0 55 -8v-82q-10 4 -21 4q-34 0 -66 -41l-44 -58q-35 -45 -89 -51v-7q65 -11 94 -50l61 -81q31 -42 76 -42h8v-82q-44 -8 -74 -8
q-84 0 -129 60l-80 107q-25 34 -37 43.5t-33 9.5h-9v-67q0 -43 7.5 -53t34.5 -10h9v-82h-246v82h10q30 0 38.5 10t8.5 53z" />
    <glyph glyph-name="c.el" unicode="&#x43b;" horiz-adv-x="697" 
d="M283 100q-58 -116 -165 -116q-71 0 -113 14v141h82q0 -58 24 -58q30 0 54 57q53 127 53 243q0 9 -1.5 14t-10.5 9t-26 4h-25v82h520v-82h-26q-26 0 -31.5 -12t-5.5 -60v-191q0 -38 6.5 -50.5t27.5 -12.5h19v-82h-258v82h21q24 0 31 10t7 53v241h-115
q-11 -109 -25.5 -169.5t-42.5 -116.5z" />
    <glyph glyph-name="c.em" unicode="&#x43c;" horiz-adv-x="730" 
d="M32 490h253l89 -312l93 312h231v-82h-21q-20 0 -26 -12t-6 -51v-200q0 -38 6 -50.5t26 -12.5h21v-82h-234v82h21q20 0 26 11.5t6 51.5v253h-7l-119 -398h-69l-119 398h-5v-253q0 -43 7 -53t31 -10h15v-82h-219v82h19q22 0 28 11.5t6 50.5v201q0 40 -7 51.5t-31 11.5h-15
v82z" />
    <glyph glyph-name="c.en" unicode="&#x43d;" horiz-adv-x="628" 
d="M32 490h252v-82h-15q-24 0 -31 -10t-7 -53v-43h166v43q0 43 -7 53t-31 10h-15v82h252v-82h-21q-20 0 -26 -12t-6 -51v-200q0 -38 6 -50.5t26 -12.5h21v-82h-252v82h15q24 0 31 10t7 53v64h-166v-64q0 -43 7 -53t31 -10h15v-82h-252v82h19q22 0 28 11.5t6 51.5v200
q0 41 -7 52t-31 11h-15v82z" />
    <glyph glyph-name="c.o" unicode="&#x43e;" horiz-adv-x="583" 
d="M543 262q0 -54 -14 -101.5t-43 -88t-81 -64t-122 -23.5q-60 0 -105.5 19t-71 46t-41 63.5t-20.5 65.5t-5 57q0 36 6.5 71t24.5 72.5t45.5 65.5t73 46t104.5 18q124 0 186.5 -69.5t62.5 -177.5zM394 254q0 12 -0.5 21.5t-3 30t-9.5 36.5t-17.5 32.5t-29 25.5t-42.5 9
q-34 0 -56.5 -19t-32 -49.5t-12.5 -53t-3 -45.5q0 -11 0.5 -23.5t6.5 -38.5t16 -45t31.5 -34t50.5 -15q101 0 101 168z" />
    <glyph glyph-name="c.pe" unicode="&#x43f;" horiz-adv-x="608" 
d="M32 490h544v-82h-21q-20 0 -26 -12t-6 -51v-200q0 -38 6 -50.5t26 -12.5h21v-82h-247v82h10q24 0 31 10t7 53v252h-146v-252q0 -43 7 -53t31 -10h10v-82h-247v82h19q22 0 28 11.5t6 51.5v200q0 41 -7 52t-31 11h-15v82z" />
    <glyph glyph-name="c.er" unicode="&#x440;" horiz-adv-x="604" 
d="M224 40v-122q0 -30 8 -38t38 -8h21v-82h-272v82h14q28 0 36 8t8 42v400q0 42 -2 54.5t-10 16.5q-11 6 -49 3v80l199 14q8 -35 8 -68h2q14 22 26 36t44.5 30t73.5 16q65 0 110 -36.5t64 -90t19 -118.5q0 -33 -6 -68t-21.5 -72.5t-38.5 -66.5t-60.5 -47.5t-84.5 -18.5
q-67 0 -127 54zM217 243v-13q0 -65 25 -102.5t71 -37.5q26 0 45 14t27.5 31.5t13.5 42.5t5.5 37t0.5 25q0 14 -0.5 25.5t-5.5 36t-13.5 41t-27 30t-44.5 13.5q-36 0 -59 -25.5t-30.5 -55t-7.5 -62.5z" />
    <glyph glyph-name="c.es" unicode="&#x441;" horiz-adv-x="510" 
d="M467 464v-170h-112v46q0 14 -1 22.5t-6.5 21.5t-19.5 20t-36 7q-32 0 -54.5 -16t-33.5 -41t-15.5 -47.5t-4.5 -42.5q0 -71 32.5 -115.5t97.5 -44.5q73 0 149 49v-113q-85 -57 -186 -57q-70 0 -119.5 26.5t-73 68.5t-33 79.5t-9.5 73.5q0 138 74.5 207t180.5 69
q88 0 170 -43z" />
    <glyph glyph-name="c.te" unicode="&#x442;" horiz-adv-x="550" 
d="M385 397h-41v-252q0 -42 6.5 -52.5t31.5 -10.5h19v-82h-252v82h19q25 0 31.5 11t6.5 52v252h-42q-21 0 -30 -6t-9 -28v-40h-98v167h496v-167h-99v40q0 20 -8.5 27t-30.5 7z" />
    <glyph glyph-name="c.u" unicode="&#x443;" horiz-adv-x="583" 
d="M5 490h270v-82q-44 0 -44 -20q0 -3 7 -24l3 -6l2 -5l69 -170l66 162q0 1 4 10q8 18 8 32q0 21 -41 21v82h227v-82q-22 0 -32.5 -9t-24.5 -41l-201 -453q-32 -72 -73.5 -102t-102.5 -30q-46 0 -110 24v133h86q0 -16 1 -24.5t8.5 -17.5t21.5 -9q21 0 39.5 27t40.5 94
l-156 348l-2 4q-1 4 -2 5q-17 34 -28.5 42.5t-35.5 8.5v82z" />
    <glyph glyph-name="c.ef" unicode="&#x444;" horiz-adv-x="732" 
d="M434 715v-207q115 -4 186.5 -67t71.5 -189q0 -121 -70 -189.5t-188 -77.5v-52q0 -45 8 -53t51 -8v-82h-255v82h20q28 0 33.5 10t5.5 53v50q-46 1 -87 13.5t-81.5 39t-64.5 79t-24 124.5q0 117 72.5 189.5t184.5 77.5v49q0 37 -5.5 49t-31.5 12h-28v80zM548 254
q0 68 -29.5 108.5t-84.5 45.5v-322q114 14 114 168zM183 247q0 -143 114 -161v322q-53 -6 -83.5 -48t-30.5 -113z" />
    <glyph glyph-name="c.ha" unicode="&#x445;" horiz-adv-x="594" 
d="M31 490h258v-82q-19 -3 -19 -12q0 -3 4 -11q1 -1 3.5 -5t3.5 -6l33 -54l38 47q0 1 5 6q14 17 14 24q0 11 -19 11v82h217v-82q-20 -2 -31 -6.5t-27 -21.5l-13 -13l-103 -108l103 -132q16 -21 30.5 -31t22.5 -11.5t24 -2.5v-82h-258v82q16 3 16 12t-9 20l-40 59l-47 -59
q-10 -12 -10 -19q0 -13 15 -13v-82h-223v82q23 0 34 8q19 11 38 33l113 120l-94 116q-17 21 -32 32t-23.5 13.5t-23.5 3.5v82z" />
    <glyph glyph-name="c.tse" unicode="&#x446;" horiz-adv-x="631" 
d="M442 0h-410v82h21q20 0 26 12t6 51v200q0 38 -6 50.5t-26 12.5h-21v82h247v-82h-10q-24 0 -31 -10t-7 -53v-252h146v252q0 43 -7 53t-31 10h-10v82h247v-82h-19q-22 0 -28 -11.5t-6 -51.5v-200q0 -37 6.5 -50t27.5 -13h51v-222h-108v55q0 54 -8.5 69.5t-49.5 15.5z" />
    <glyph glyph-name="c.che" unicode="&#x447;" horiz-adv-x="608" 
d="M32 490h247v-82h-19q-18 0 -23.5 -12t-5.5 -51v-32q0 -32 14.5 -47.5t47.5 -15.5q40 0 84 33v62q0 42 -5.5 52.5t-28.5 10.5h-19v82h247v-82h-10q-25 0 -31.5 -10t-6.5 -53v-200q0 -38 6 -50.5t26 -12.5h21v-82h-252v82h15q24 0 31 11t7 52v40q-62 -41 -136 -41
q-156 0 -156 158v43q0 41 -6.5 52t-27.5 11h-19v82z" />
    <glyph glyph-name="c.sha" unicode="&#x448;" horiz-adv-x="900" 
d="M868 0h-836v82h21q20 0 26 12t6 51v200q0 38 -6 50.5t-26 12.5h-21v82h247v-82h-10q-24 0 -31 -10t-7 -53v-252h146v252q0 43 -7 53t-31 10h-10v82h242v-82h-14q-22 0 -28 -11.5t-6 -51.5v-252h146v252q0 43 -7 53t-31 10h-10v82h247v-82h-19q-22 0 -28 -11.5t-6 -51.5
v-200q0 -41 7 -52t31 -11h15v-82z" />
    <glyph glyph-name="c.shcha" unicode="&#x449;" horiz-adv-x="923" 
d="M734 0h-702v82h21q20 0 26 12t6 51v200q0 38 -6 50.5t-26 12.5h-21v82h247v-82h-10q-24 0 -31 -10t-7 -53v-252h146v252q0 43 -7 53t-31 10h-10v82h242v-82h-14q-22 0 -28 -11.5t-6 -51.5v-252h146v252q0 43 -7 53t-31 10h-10v82h247v-82h-19q-22 0 -28 -11.5t-6 -51.5
v-200q0 -37 6.5 -50t27.5 -13h51v-222h-108v55q0 54 -8.5 69.5t-49.5 15.5z" />
    <glyph glyph-name="c.hard" unicode="&#x44a;" horiz-adv-x="720" 
d="M481 0h-288v82h25q25 0 31.5 10.5t6.5 52.5v246h-75q-27 0 -35 -7t-8 -30v-47h-108v183h442v-82h-28q-26 0 -34 -12t-8 -51v-43h75q221 0 221 -151q0 -75 -59.5 -113t-157.5 -38zM464 209h-62v-116h51q90 0 90 60q0 56 -79 56z" />
    <glyph glyph-name="c.yeru" unicode="&#x44b;" horiz-adv-x="867" 
d="M636 145v200q0 42 -6.5 52.5t-31.5 10.5h-25v82h272v-82h-25q-24 0 -31 -10t-7 -53v-200q0 -43 7 -53t31 -10h25v-82h-272v82h25q25 0 31.5 10.5t6.5 52.5zM231 345v-43h75q221 0 221 -151q0 -75 -59.5 -113t-157.5 -38h-288v82h25q23 0 30.5 12t7.5 51v200q0 41 -7 52
t-31 11h-25v82h279v-82h-28q-26 0 -34 -12t-8 -51zM293 209h-62v-116h51q90 0 90 60q0 56 -79 56z" />
    <glyph glyph-name="c.soft" unicode="&#x44c;" horiz-adv-x="549" 
d="M231 345v-43h75q221 0 221 -151q0 -75 -59.5 -113t-157.5 -38h-288v82h25q23 0 30.5 12t7.5 51v200q0 41 -7 52t-31 11h-25v82h279v-82h-28q-26 0 -34 -12t-8 -51zM293 209h-62v-116h51q90 0 90 60q0 56 -79 56z" />
    <glyph glyph-name="c.e" unicode="&#x44d;" horiz-adv-x="510" 
d="M179 208v93h147q-11 110 -89 110q-39 0 -59.5 -19t-20.5 -48v-20h-112v131q99 52 188 52q110 0 173.5 -60t63.5 -191q0 -116 -67.5 -194.5t-183.5 -78.5q-112 0 -180 46v113q74 -48 163 -48q103 0 123 114h-146z" />
    <glyph glyph-name="c.yu" unicode="&#x44e;" horiz-adv-x="818" 
d="M778 262q0 -54 -13 -101.5t-39.5 -88t-74.5 -64t-112 -23.5q-62 0 -107 22t-68.5 58.5t-34 71.5t-13.5 72h-85v-64q0 -43 7 -53t31 -10h15v-82h-252v82h19q22 0 28 11.5t6 51.5v200q0 41 -7 52t-31 11h-15v82h252v-82h-15q-24 0 -31 -10t-7 -53v-43h89q15 88 69.5 147.5
t159.5 59.5q114 0 171.5 -69.5t57.5 -177.5zM629 254q0 155 -82 155q-27 0 -45.5 -19t-26 -49.5t-10 -53t-2.5 -45.5q0 -15 2 -33t8.5 -50t26 -52.5t48.5 -20.5q81 0 81 168z" />
    <glyph glyph-name="c.ya" unicode="&#x44f;" horiz-adv-x="586" 
d="M347 280v117h-55q-74 0 -74 -60q0 -31 18 -44t55 -13h56zM202 223v1q-60 7 -96.5 39.5t-36.5 77.5q0 149 205 149h282v-82h-26q-23 0 -30 -11.5t-7 -51.5v-200q0 -42 6.5 -52.5t31.5 -10.5h25v-82h-267v82h20q26 0 32.5 13.5t5.5 48.5v43h-23q-21 0 -35 -6.5t-20 -14
t-16 -25.5l-39 -77q-17 -33 -42 -48.5t-75 -15.5h-97v82h18q37 0 57 31l28 48q29 50 99 62z" />
    <glyph glyph-name="uni0450" unicode="&#x450;" horiz-adv-x="531" 
d="M496 224h-307q2 -49 33.5 -86.5t95.5 -37.5q71 0 166 57v-118q-101 -56 -207 -56q-57 0 -101 18t-69.5 44.5t-41.5 62.5t-21.5 66.5t-5.5 61.5q0 52 14.5 99t43 86t76.5 62.5t109 23.5q45 0 80.5 -13t57.5 -30.5t37.5 -47t23 -51.5t11.5 -55.5t4.5 -47.5t0.5 -38z
M190 312h169q-1 30 -9 51.5t-17.5 31.5t-22.5 16t-19 6.5t-12 0.5q-37 0 -61.5 -30.5t-27.5 -75.5zM145 690h153l60 -129h-101z" />
    <glyph glyph-name="c.io" unicode="&#x451;" horiz-adv-x="531" 
d="M496 224h-307q2 -49 33.5 -86.5t95.5 -37.5q71 0 166 57v-118q-101 -56 -207 -56q-57 0 -101 18t-69.5 44.5t-41.5 62.5t-21.5 66.5t-5.5 61.5q0 52 14.5 99t43 86t76.5 62.5t109 23.5q45 0 80.5 -13t57.5 -30.5t37.5 -47t23 -51.5t11.5 -55.5t4.5 -47.5t0.5 -38z
M190 312h169q-1 30 -9 51.5t-17.5 31.5t-22.5 16t-19 6.5t-12 0.5q-37 0 -61.5 -30.5t-27.5 -75.5zM388 687q26 0 44 -18t18 -45q0 -26 -18 -44t-44 -18t-44.5 18t-18.5 44q0 27 18.5 45t44.5 18zM168 687q26 0 44 -18t18 -45q0 -26 -18 -44t-44 -18t-44.5 18t-18.5 44
q0 27 18.5 45t44.5 18z" />
    <glyph glyph-name="c.dje" unicode="&#x452;" horiz-adv-x="604" 
d="M18 495v82h59q-1 22 -8 31t-29 9h-28v80l213 18v-138h116v-82h-116v-108h2q4 10 12 20.5t23.5 25t44.5 24t65 9.5q112 0 146 -92q12 -32 12 -113v-247q0 -38 -4 -69.5t-17 -64.5t-33.5 -55.5t-56.5 -37t-84 -14.5q-65 0 -125 20v126h82q0 -18 1 -28t10.5 -21t27.5 -11
q16 0 26 6.5t13.5 23.5t4.5 31t1 45v275q0 22 -0.5 33t-4 29t-9.5 27t-19 16t-32 7q-86 0 -86 -133v-74q0 -46 6.5 -54.5t42.5 -8.5v-82h-258v82q43 0 52 7.5t9 48.5v357h-59z" />
    <glyph glyph-name="c.gje" unicode="&#x453;" horiz-adv-x="495" 
d="M30 490h435v-183h-108v47q0 23 -8 30t-35 7h-75v-246q0 -42 6.5 -52.5t31.5 -10.5h25v-82h-272v82h25q24 0 31 10t7 53v200q0 44 -7 53.5t-39 9.5h-17v82zM248 690h153l-112 -129h-101z" />
    <glyph glyph-name="c.ieUkr" unicode="&#x454;" horiz-adv-x="510" 
d="M333 301v-93h-146q16 -114 127 -114q73 0 149 49v-113q-70 -47 -186 -47q-67 0 -116.5 25.5t-73.5 66t-34.5 79t-10.5 77.5q0 138 74.5 207t180.5 69q88 0 170 -43v-140h-112v16q0 14 -1 22.5t-6.5 21.5t-19.5 20t-36 7q-45 0 -70 -32t-34 -78h145z" />
    <glyph glyph-name="c.dze" unicode="&#x455;" horiz-adv-x="479" 
d="M418 473v-131h-112v20q0 12 -1 19.5t-6.5 20t-19 19t-35.5 6.5q-61 0 -61 -46q0 -21 16.5 -34t54.5 -28q105 -42 147.5 -76.5t42.5 -99.5q0 -44 -20.5 -78.5t-52.5 -52.5q-49 -29 -136 -29q-103 0 -190 35v142h114q0 -23 1 -34.5t7 -26.5t21 -21.5t39 -6.5q37 0 52 16.5
t15 37.5q0 23 -19.5 37.5t-74.5 37.5q-84 34 -118.5 71.5t-34.5 85.5q0 22 7 43.5t26 48t61 42.5t103 16q93 0 174 -34z" />
    <glyph glyph-name="c.iUkr" unicode="&#x456;" horiz-adv-x="313" 
d="M234 498v-355q0 -45 7 -53t48 -8v-82h-264v82h25q27 0 32.5 10t5.5 53v179q0 28 -0.5 39t-3.5 21.5t-8.5 12.5t-17.5 2q-13 0 -36 -1v81zM147 715q48 0 69.5 -21.5t21.5 -50.5q0 -38 -27.5 -56.5t-61.5 -18.5q-36 0 -64.5 17t-28.5 57q0 27 20.5 50t70.5 23z" />
    <glyph glyph-name="c.yi" unicode="&#x457;" horiz-adv-x="313" 
d="M234 498v-355q0 -45 7 -53t48 -8v-82h-264v82h25q27 0 32.5 10t5.5 53v179q0 28 -0.5 39t-3.5 21.5t-8.5 12.5t-17.5 2q-13 0 -36 -1v81zM267 687q26 0 44 -18t18 -45q0 -26 -18 -44t-44 -18t-44.5 18t-18.5 44q0 27 18.5 45t44.5 18zM47 687q26 0 44 -18t18 -45
q0 -26 -18 -44t-44 -18t-44.5 18t-18.5 44q0 27 18.5 45t44.5 18z" />
    <glyph glyph-name="c.je" unicode="&#x458;" horiz-adv-x="313" 
d="M242 498v-484q0 -49 -7.5 -87t-26.5 -75.5t-59.5 -58t-99.5 -20.5q-65 0 -125 20v126h82q0 -18 1 -28t10.5 -21t27.5 -11q16 0 26 6.5t13.5 23.5t4.5 31t1 45v359q0 52 -5 63.5t-30 11.5h-27v80zM156 715q47 0 68.5 -21.5t21.5 -50.5q0 -38 -27.5 -56.5t-61.5 -18.5
q-35 0 -63.5 17t-28.5 57q0 27 20.5 50t70.5 23z" />
    <glyph glyph-name="c.lje" unicode="&#x459;" horiz-adv-x="930" 
d="M466 386h-115q-11 -109 -25.5 -169.5t-42.5 -116.5q-58 -116 -165 -116q-71 0 -113 14v141h82q0 -58 24 -58q30 0 54 57q53 127 53 243q0 9 -1.5 14t-10.5 9t-26 4h-25v82h520v-82h-26q-25 0 -31 -11.5t-6 -51.5v-43h75q221 0 221 -151q0 -75 -59.5 -113t-157.5 -38h-284
v82h25q22 0 28 11.5t6 51.5v241zM674 209h-62v-116h51q90 0 90 60q0 56 -79 56z" />
    <glyph glyph-name="c.nje" unicode="&#x45a;" horiz-adv-x="861" 
d="M622 0h-278v82h15q24 0 31 10t7 53v64h-166v-64q0 -43 7 -53t31 -10h15v-82h-252v82h19q22 0 28 11.5t6 51.5v200q0 41 -7 52t-31 11h-15v82h252v-82h-15q-24 0 -31 -10t-7 -53v-43h166v43q0 43 -7 53t-31 10h-15v82h259v-82h-18q-26 0 -34 -12t-8 -51v-43h75
q221 0 221 -151q0 -75 -59.5 -113t-157.5 -38zM605 209h-62v-116h51q90 0 90 60q0 56 -79 56z" />
    <glyph glyph-name="c.tshe" unicode="&#x45b;" horiz-adv-x="604" 
d="M327 82q32 0 40.5 6t8.5 33v119q0 22 -0.5 33t-4 29t-9.5 27t-19 16t-32 7q-86 0 -86 -133v-74q0 -46 6.5 -54.5t42.5 -8.5v-82h-258v82q43 0 52 7.5t9 48.5v357h-59v82h59q-1 22 -8 31t-29 9h-28v80l213 18v-138h116v-82h-116v-108h2q4 10 12 20.5t23.5 25t44.5 24
t65 9.5q112 0 146 -92q12 -32 12 -113v-141q0 -27 9 -32.5t46 -5.5v-82h-258v82z" />
    <glyph glyph-name="c.kje" unicode="&#x45c;" horiz-adv-x="586" 
d="M85 145v200q0 43 -7.5 53t-34.5 10h-16v82h247v-82h-9q-27 0 -34.5 -10t-7.5 -53v-51h10q37 0 73 48l59 79q30 40 63.5 58.5t82.5 18.5q28 0 55 -8v-82q-10 4 -21 4q-34 0 -66 -41l-44 -58q-35 -45 -89 -51v-7q65 -11 94 -50l61 -81q31 -42 76 -42h8v-82q-44 -8 -74 -8
q-84 0 -129 60l-80 107q-25 34 -37 43.5t-33 9.5h-9v-67q0 -43 7.5 -53t34.5 -10h9v-82h-246v82h10q30 0 38.5 10t8.5 53zM297 690h153l-112 -129h-101z" />
    <glyph glyph-name="uni045D" unicode="&#x45d;" horiz-adv-x="628" 
d="M397 144v106l-166 -119q1 -31 8 -40t30 -9h15v-82h-252v82h19q22 0 28 11.5t6 51.5v200q0 41 -7 52t-31 11h-15v82h252v-82h-15q-24 0 -31 -10t-7 -53v-99l166 120q-2 28 -8.5 35t-29.5 7h-15v82h252v-82h-21q-20 0 -26 -12t-6 -50v-201q0 -38 6.5 -50.5t25.5 -12.5h21
v-82h-252v82h15q24 0 31 10t7 52zM173 690h153l60 -129h-101z" />
    <glyph glyph-name="c.yushort" unicode="&#x45e;" horiz-adv-x="583" 
d="M5 490h270v-82q-44 0 -44 -20q0 -3 7 -24l3 -6l2 -5l69 -170l66 162q0 1 4 10q8 18 8 32q0 21 -41 21v82h227v-82q-22 0 -32.5 -9t-24.5 -41l-201 -453q-32 -72 -73.5 -102t-102.5 -30q-46 0 -110 24v133h86q0 -16 1 -24.5t8.5 -17.5t21.5 -9q21 0 39.5 27t40.5 94
l-156 348l-2 4q-1 4 -2 5q-17 34 -28.5 42.5t-35.5 8.5v82zM94 690h143q6 -56 67 -56q62 0 68 56h143q-17 -129 -212 -129q-192 0 -209 129z" />
    <glyph glyph-name="c.dzhe" unicode="&#x45f;" horiz-adv-x="608" 
d="M576 0h-186q-20 0 -27 -11.5t-7 -41.5v-87h-108v87q0 31 -6.5 42t-27.5 11h-182v82h21q20 0 26 12t6 51v200q0 38 -6 50.5t-26 12.5h-21v82h247v-82h-10q-24 0 -31 -10t-7 -53v-252h146v252q0 43 -7 53t-31 10h-10v82h247v-82h-19q-22 0 -28 -11.5t-6 -51.5v-200
q0 -41 7 -52t31 -11h15v-82z" />
    <glyph glyph-name="afii10146" unicode="&#x462;" horiz-adv-x="826" 
d="M27 694h644v-206h-114v56q0 28 -6.5 35t-37.5 7h-87v-159h108q135 0 196 -52t61 -160q0 -104 -71 -159.5t-180 -55.5h-343v89h30q32 0 39 9.5t7 37.5v450h-87q-31 0 -38 -6.5t-7 -38.5v-53h-114v206zM426 322v-215h92q48 0 79.5 27.5t31.5 78.5q0 109 -130 109h-73z" />
    <glyph glyph-name="afii10194" unicode="&#x463;" horiz-adv-x="549" 
d="M22 397v93h63v80q0 41 -7 52t-31 11h-25v82h279v-82h-28q-26 0 -34 -12t-8 -51v-80h124v-93h-124v-95h75q221 0 221 -151q0 -75 -59.5 -113t-157.5 -38h-288v82h25q23 0 30.5 12t7.5 51v252h-63zM293 209h-62v-116h51q90 0 90 60q0 56 -79 56z" />
    <glyph glyph-name="afii10147" unicode="&#x472;" horiz-adv-x="781" 
d="M46 340q0 171 93.5 273t257.5 102q165 0 252 -98t87 -258q0 -166 -90.5 -273t-256.5 -107q-165 0 -254 101.5t-89 259.5zM391 89q150 0 177 187q-39 -21 -75 -21q-46 0 -89.5 19.5t-80.5 39.5t-65 20q-20 0 -52 -6q1 -48 10.5 -88.5t30 -75.5t57 -55t87.5 -20zM393 605
q-75 0 -120.5 -47.5t-60.5 -130.5q40 19 71 19q57 0 130 -39.5t104 -39.5q30 0 57 6q-1 26 -3.5 49.5t-14 59.5t-29.5 61t-52.5 43.5t-81.5 18.5z" />
    <glyph glyph-name="afii10195" unicode="&#x473;" horiz-adv-x="583" 
d="M543 262q0 -54 -14 -101.5t-43 -88t-81 -64t-122 -23.5q-60 0 -105.5 19t-71 46t-41 63.5t-20.5 65.5t-5 57q0 36 6.5 71t24.5 72.5t45.5 65.5t73 46t104.5 18q124 0 186.5 -69.5t62.5 -177.5zM341 193q-29 0 -63.5 17t-50.5 17q-19 0 -38 -8q1 -21 6 -40t15.5 -42
t31.5 -37t51 -14q88 0 99 133q-23 -26 -51 -26zM350 277q18 0 43 9q-2 30 -10 54.5t-31.5 46.5t-59.5 22q-83 0 -101 -119q22 20 47 20q28 0 61.5 -16.5t50.5 -16.5z" />
    <glyph glyph-name="afii10148" unicode="&#x474;" horiz-adv-x="796" 
d="M428 -7h-151l-191 547q-14 41 -24.5 53t-34.5 12h-19v89h292v-89h-27q-35 0 -35 -21q0 -8 8 -34l120 -365h2l138 408q23 66 62 94t100 28q74 0 128 -29v-135h-109v24q0 30 -19 30q-14 0 -22 -12t-21 -49z" />
    <glyph glyph-name="afii10196" unicode="&#x475;" horiz-adv-x="680" 
d="M501 323l-145 -334h-122l-160 362q-11 25 -23.5 38t-20.5 15.5t-24 3.5v82h270v-82q-17 -1 -23.5 -1.5t-13.5 -5.5t-7 -14q0 -6 11 -31l70 -176l66 166q35 88 71.5 121t101.5 33q74 0 128 -29v-125h-107v24q0 30 -18 30q-14 0 -23.5 -14.5t-30.5 -62.5z" />
    <glyph glyph-name="c.GheUkr" unicode="&#x490;" horiz-adv-x="609" 
d="M337 0h-297v89h21q17 0 27 2.5t14 9.5t5 13.5t1 21.5v424q0 13 -1 19t-4.5 13.5t-13 10t-25.5 2.5h-24v89h342q48 0 58.5 17t10.5 77v58h118v-259h-308v-451q0 -15 1 -21.5t5 -14t13.5 -9.5t26.5 -2h30v-89z" />
    <glyph glyph-name="c.gheUkr" unicode="&#x491;" horiz-adv-x="495" 
d="M30 490h277q35 0 42.5 16.5t7.5 68.5v55h108v-239h-226v-246q0 -42 6.5 -52.5t31.5 -10.5h25v-82h-272v82h25q24 0 31 10t7 53v200q0 44 -7 53.5t-39 9.5h-17v82z" />
    <glyph glyph-name="Wgrave" unicode="&#x1e80;" horiz-adv-x="990" 
d="M9 694h291v-89h-34q-32 0 -32 -23q0 -11 4 -27l79 -345h2l117 484h147l109 -484h2l83 332q6 20 6 37q0 16 -10.5 21t-34.5 5h-17v89h260v-89q-33 1 -49 -12t-29 -58l-153 -542h-147l-108 459h-2l-113 -459h-149l-140 530q-14 54 -26 68t-39 14h-17v89zM364 880h153
l60 -129h-101z" />
    <glyph glyph-name="wgrave" unicode="&#x1e81;" horiz-adv-x="844" 
d="M6 490h262v-82q-15 0 -22 -0.5t-14 -6t-7 -15.5q0 -6 4 -20q3 -6 3 -9l56 -167h2l90 300h125l91 -300h2l50 158q0 3 3 9q0 1 2 7t3 11.5t1 9.5q0 11 -6.5 16t-13.5 6t-20 1v82h221v-82q-24 0 -34.5 -10t-21.5 -41l-142 -363h-124l-89 270h-2l-90 -270h-123l-137 350
q-16 40 -30 52t-39 12v82zM287 690h153l60 -129h-101z" />
    <glyph glyph-name="Wacute" unicode="&#x1e82;" horiz-adv-x="990" 
d="M9 694h291v-89h-34q-32 0 -32 -23q0 -11 4 -27l79 -345h2l117 484h147l109 -484h2l83 332q6 20 6 37q0 16 -10.5 21t-34.5 5h-17v89h260v-89q-33 1 -49 -12t-29 -58l-153 -542h-147l-108 459h-2l-113 -459h-149l-140 530q-14 54 -26 68t-39 14h-17v89zM494 880h153
l-112 -129h-101z" />
    <glyph glyph-name="wacute" unicode="&#x1e83;" horiz-adv-x="844" 
d="M6 490h262v-82q-15 0 -22 -0.5t-14 -6t-7 -15.5q0 -6 4 -20q3 -6 3 -9l56 -167h2l90 300h125l91 -300h2l50 158q0 3 3 9q0 1 2 7t3 11.5t1 9.5q0 11 -6.5 16t-13.5 6t-20 1v82h221v-82q-24 0 -34.5 -10t-21.5 -41l-142 -363h-124l-89 270h-2l-90 -270h-123l-137 350
q-16 40 -30 52t-39 12v82zM421 690h153l-112 -129h-101z" />
    <glyph glyph-name="Wdieresis" unicode="&#x1e84;" horiz-adv-x="990" 
d="M9 694h291v-89h-34q-32 0 -32 -23q0 -11 4 -27l79 -345h2l117 484h147l109 -484h2l83 332q6 20 6 37q0 16 -10.5 21t-34.5 5h-17v89h260v-89q-33 1 -49 -12t-29 -58l-153 -542h-147l-108 459h-2l-113 -459h-149l-140 530q-14 54 -26 68t-39 14h-17v89zM624 877
q26 0 44 -18t18 -45q0 -26 -18 -44t-44 -18t-44.5 18t-18.5 44q0 27 18.5 45t44.5 18zM404 877q26 0 44 -18t18 -45q0 -26 -18 -44t-44 -18t-44.5 18t-18.5 44q0 27 18.5 45t44.5 18z" />
    <glyph glyph-name="wdieresis" unicode="&#x1e85;" horiz-adv-x="844" 
d="M6 490h262v-82q-15 0 -22 -0.5t-14 -6t-7 -15.5q0 -6 4 -20q3 -6 3 -9l56 -167h2l90 300h125l91 -300h2l50 158q0 3 3 9q0 1 2 7t3 11.5t1 9.5q0 11 -6.5 16t-13.5 6t-20 1v82h221v-82q-24 0 -34.5 -10t-21.5 -41l-142 -363h-124l-89 270h-2l-90 -270h-123l-137 350
q-16 40 -30 52t-39 12v82zM555 687q26 0 44 -18t18 -45q0 -26 -18 -44t-44 -18t-44.5 18t-18.5 44q0 27 18.5 45t44.5 18zM335 687q26 0 44 -18t18 -45q0 -26 -18 -44t-44 -18t-44.5 18t-18.5 44q0 27 18.5 45t44.5 18z" />
    </font>
</defs>
</svg>
