<?xml version="1.0" encoding="utf-8"?>
<!-- Generator: Adobe Illustrator 16.0.0, SVG Export Plug-In . SVG Version: 6.00 Build 0)  -->
<!DOCTYPE svg PUBLIC "-//W3C//DTD SVG 1.1//EN" "http://www.w3.org/Graphics/SVG/1.1/DTD/svg11.dtd">
<svg version="1.1" id="Layer_1" xmlns="http://www.w3.org/2000/svg" xmlns:xlink="http://www.w3.org/1999/xlink" x="0px" y="0px"
	 width="241.378px" height="200.853px" viewBox="0 0 241.378 200.853" enable-background="new 0 0 241.378 200.853"
	 xml:space="preserve">
<g>
	<defs>
		<rect id="SVGID_1_" width="241.378" height="200.853"/>
	</defs>
	<clipPath id="SVGID_2_">
		<use xlink:href="#SVGID_1_"  overflow="visible"/>
	</clipPath>
	<path clip-path="url(#SVGID_2_)" fill="#3B4552" d="M157.063,59.743c14.514,13.188,29.202,26.198,43.37,39.757
		c0.888,0.848,1.839,1.593,2.843,2.232l8.109,7.414l4.607,4.707c10.99,11.226,6.471,27.75-5.32,32.861
		c4.82,12.843-5.518,25.241-18.455,24.493c-1.393,10.759-11.695,17.913-22.665,15.303c-2.946,13.441-18.937,18.33-31.394,10.807
		l-1.881-1.135c2.588-3.309,4.217-7.107,4.918-11.032c3.463,2.091,6.112,4.048,10.25,3.717c2.862-0.228,5.516-1.69,6.315-4.55
		c0.342-1.225,0.354-2.714-0.063-4.451l-15.547-12.434c-2.576-2.058-2.996-5.815-0.938-8.391c2.056-2.575,5.814-2.995,8.39-0.938
		l17.024,13.615c4.134,3.307,8.345,4.751,11.66,1.848c0.771-0.678,1.367-1.546,1.723-2.521c0.596-1.631,1.197-4.196-0.566-5.573
		l-20.209-15.795c-2.602-2.032-3.064-5.789-1.031-8.392c2.031-2.601,5.789-3.062,8.391-1.03l21.087,16.482
		c0.163,0.126,0.317,0.26,0.461,0.398c6.983,6.388,18.134-2.751,6.976-11.858l-22.228-16.646c-2.64-1.979-3.175-5.727-1.194-8.366
		c1.98-2.641,5.727-3.176,8.367-1.195l22.107,16.555c2.205,1.323,5.047-0.08,6.613-2.278c2.389-3.356,2.037-7.673-1.322-11.105
		l-4.625-4.723l-58.942-53.554c-1.388-1.263-0.425-3.574,1.45-3.477c3.652,0.188,7.312-0.041,10.762-0.649
		C156.438,59.781,156.757,59.749,157.063,59.743 M26.987,109.807c-6.162-7.893-6.934-18.734-8.484-29.094l-7.485-7.193
		C5.243,67.13-0.07,62.762,0.001,53.702c0.037-4.691,1.748-9.381,5.168-13.086L36.405,6.755c6.867-7.443,18.289-8.587,26.344-2.394
		c4.746,3.649,6.869,5.847,13.242,8.279c1.912,0.729,3.547,1.249,4.072,1.178c9.342-1.277,19.434-5.501,30.149-5.272
		c-4.246,2.77-20.36,15.419-20.735,15.597c-2.689,0.632-5.304,1.189-7.82,1.533c-5.76,0.787-16.182-4.127-20.164-7.189l-6.057-4.658
		c-3.103-2.385-7.515-1.894-10.218,1.036l-31.237,33.86c-2.662,2.885-2.703,7.268-0.121,10.123c2.811,3.107,4.828,5.564,7.941,8.514
		c3.303,3.131,7.954,7.534,8.561,11.57c1.104,7.336,1.855,17.702,5.791,23.161C31.94,104.214,29.946,106.377,26.987,109.807"/>
	<path clip-path="url(#SVGID_2_)" fill-rule="evenodd" clip-rule="evenodd" fill="#2B78C2" d="M126.349,169.043
		c-5.098-4.396-12.336-4.81-17.834-1.528c-0.344,0.206-0.754,0.191-1.084-0.04s-0.484-0.611-0.41-1.005
		c0.986-5.194-0.739-10.772-5.01-14.456c-5.096-4.397-12.334-4.81-17.832-1.529c-0.346,0.206-0.756,0.191-1.084-0.039
		c-0.33-0.23-0.486-0.61-0.41-1.006c0.986-5.193-0.74-10.772-5.01-14.456c-4.219-3.638-9.902-4.549-14.851-2.896
		c-0.383,0.128-0.782,0.024-1.055-0.273c-0.274-0.298-0.34-0.705-0.178-1.076c2.609-5.977,1.176-13.237-4.006-17.707
		c-6.363-5.487-16.058-4.77-21.545,1.591l-4.394,5.094c-5.487,6.359-4.772,16.058,1.59,21.545c3.894,3.357,9.035,4.393,13.695,3.23
		c0.422-0.104,0.844,0.062,1.08,0.426c0.236,0.362,0.219,0.815-0.049,1.157c-4.926,6.358-4.058,15.612,2.1,20.924
		c6.049,5.217,15.109,4.827,20.703-0.69c0.305-0.302,0.746-0.376,1.133-0.191c0.386,0.187,0.605,0.575,0.562,1.002
		c-0.48,4.798,1.297,9.754,5.203,13.123c6.049,5.218,15.11,4.828,20.703-0.689c0.305-0.302,0.747-0.376,1.133-0.19
		c0.387,0.186,0.608,0.574,0.565,1.002c-0.481,4.796,1.295,9.753,5.201,13.123c6.361,5.487,16.057,4.771,21.545-1.59l1.129-1.309
		C133.425,184.226,132.71,174.53,126.349,169.043 M167.345,53.925c12.787,12.236,27.18,26.077,40.004,38.351
		c1.844,1.763,4.172,2.506,6.697,2.134s4.541-1.755,5.797-3.976c3.129-5.532,5.285-11.713,6.451-18.553
		c0.52-3.058,1.766-5.549,3.9-7.801l7.046-7.435c5.417-5.713,5.543-14.619,0.211-20.41L208.612,4.903
		c-5.385-5.85-14.329-6.575-20.516-1.582l-6.779,5.467c-3.278,2.644-7.061,3.726-11.241,3.214
		c-7.108-0.869-14.218-1.739-21.328-2.608c-13.448-1.646-25.599,1.647-36.376,9.859C98.156,30.085,83.915,40.885,69.967,52.059
		c-13.914,11.148,3.52,26.296,20.037,16.085l30.93-19.123c4.34-2.683,9.287-3.023,13.953-0.96c5.875,2.597,13.322,3.015,19.483,1.93
		C159.229,49.135,163.781,50.516,167.345,53.925"/>
</g>
</svg>
