<?xml version="1.0" encoding="utf-8"?>
<!-- Generator: Adobe Illustrator 16.0.0, SVG Export Plug-In . SVG Version: 6.00 Build 0)  -->
<!DOCTYPE svg PUBLIC "-//W3C//DTD SVG 1.1//EN" "http://www.w3.org/Graphics/SVG/1.1/DTD/svg11.dtd">
<svg version="1.1" id="Layer_1" xmlns="http://www.w3.org/2000/svg" xmlns:xlink="http://www.w3.org/1999/xlink" x="0px" y="0px"
	 width="257.036px" height="256.235px" viewBox="0 0 257.036 256.235" enable-background="new 0 0 257.036 256.235"
	 xml:space="preserve">
<g>
	<defs>
		<rect id="SVGID_1_" width="257.036" height="256.235"/>
	</defs>
	<clipPath id="SVGID_2_">
		<use xlink:href="#SVGID_1_"  overflow="visible"/>
	</clipPath>
	<path clip-path="url(#SVGID_2_)" fill="#3B4552" d="M104.573,181.018c0.452,4.354,5.065,7.232,9.611,7.232h28.666
		c4.565,0,9.174-2.909,9.627-7.287c0.904-8.725,4.781-16.324,12.473-20.531c24.31-13.297,39.405-38.906,39.405-66.597
		C204.354,51.95,170.403,18,128.519,18c-41.885,0-75.836,33.95-75.836,75.835c0,27.695,15.1,53.304,39.415,66.598
		C99.807,164.648,103.664,172.273,104.573,181.018 M146.162,246.235c-1.354,5.733-6.504,10-12.651,10h-10
		c-6.147,0-11.297-4.267-12.651-10h-5.174c-10.405,0-19.156-8.549-19.156-18.999l0.117-45.741c0.004-2.307-1.102-4.204-3.129-5.312
		c-30.086-16.451-48.836-48.055-48.836-82.348C34.682,42.013,76.696,0,128.519,0c51.821,0,93.836,42.013,93.836,93.835
		c0,34.289-18.745,65.893-48.827,82.347c-2.027,1.107-3.13,3.007-3.126,5.313l0.125,45.74c0,10.455-8.773,18.999-19.177,18.999
		H146.162z"/>
	<path clip-path="url(#SVGID_2_)" fill="#2B78C2" d="M220.053,152.684c-2.859-1.657-3.836-5.318-2.18-8.179
		c1.657-2.861,5.318-3.837,8.18-2.18l11.569,6.679c2.859,1.656,3.836,5.319,2.179,8.18c-1.656,2.86-5.318,3.836-8.179,2.181
		L220.053,152.684z M226.053,43.525c-2.861,1.656-6.522,0.68-8.18-2.18c-1.656-2.86-0.68-6.523,2.18-8.18l11.569-6.679
		c2.86-1.657,6.522-0.681,8.179,2.18c1.657,2.861,0.681,6.523-2.179,8.18L226.053,43.525z M237.677,98.925c-3.312,0-6-2.686-6-6
		s2.688-6,6-6h13.359c3.313,0,6,2.686,6,6s-2.687,6-6,6H237.677z M36.983,33.165c2.861,1.657,3.837,5.32,2.18,8.18
		c-1.656,2.86-5.319,3.836-8.18,2.18l-11.568-6.679c-2.861-1.657-3.837-5.319-2.18-8.18c1.656-2.861,5.319-3.837,8.18-2.18
		L36.983,33.165z M30.983,142.326c2.861-1.657,6.524-0.682,8.18,2.18c1.657,2.86,0.681,6.521-2.18,8.179l-11.568,6.681
		c-2.861,1.655-6.524,0.68-8.18-2.181c-1.657-2.86-0.681-6.523,2.18-8.18L30.983,142.326z M19.359,86.925c3.313,0,6,2.686,6,6
		s-2.687,6-6,6H6c-3.313,0-6-2.686-6-6s2.687-6,6-6H19.359z"/>
	<path clip-path="url(#SVGID_2_)" fill="#2B78C2" d="M83.386,66.25c-0.919-3.171,0.907-6.487,4.078-7.406
		c3.171-0.919,6.487,0.907,7.406,4.078l3.427,11.738c4.09-1.61,8.338-2.881,12.678-3.799c0.08-0.017,0.16-0.032,0.24-0.046
		c3.714-0.775,7.493-1.303,11.296-1.574v-9.078c0-3.313,2.687-6,6.001-6c3.313,0,6,2.687,6,6v9.078
		c3.876,0.277,7.729,0.82,11.512,1.62l0.023,0.005l0.001-0.005c4.339,0.918,8.587,2.189,12.678,3.799l3.426-11.738
		c0.919-3.171,4.235-4.997,7.406-4.078c3.171,0.919,4.997,4.235,4.079,7.406l-21.991,75.332c-0.919,3.171-4.234,4.997-7.405,4.078
		c-3.172-0.919-4.997-4.235-4.078-7.406l15.196-52.06c-3.733-1.536-7.69-2.746-11.796-3.614l0.001-0.005
		c-2.946-0.623-5.974-1.061-9.052-1.308v14.596c0,3.314-2.687,6-6,6c-3.314,0-6.001-2.686-6.001-6V81.267
		c-3.005,0.241-5.961,0.665-8.842,1.264c-0.07,0.017-0.14,0.033-0.21,0.049c-4.104,0.868-8.061,2.078-11.795,3.614l15.197,52.06
		c0.918,3.171-0.908,6.487-4.079,7.406s-6.487-0.907-7.406-4.078L83.386,66.25z"/>
</g>
</svg>
