<?xml version="1.0" encoding="utf-8"?>
<!-- Generator: Adobe Illustrator 16.0.0, SVG Export Plug-In . SVG Version: 6.00 Build 0)  -->
<!DOCTYPE svg PUBLIC "-//W3C//DTD SVG 1.1//EN" "http://www.w3.org/Graphics/SVG/1.1/DTD/svg11.dtd">
<svg version="1.1" id="Layer_1" xmlns="http://www.w3.org/2000/svg" xmlns:xlink="http://www.w3.org/1999/xlink" x="0px" y="0px"
	 width="256.001px" height="256.04px" viewBox="0 0 256.001 256.04" enable-background="new 0 0 256.001 256.04"
	 xml:space="preserve">
<g>
	<defs>
		<rect id="SVGID_1_" width="256.001" height="256.04"/>
	</defs>
	<clipPath id="SVGID_2_">
		<use xlink:href="#SVGID_1_"  overflow="visible"/>
	</clipPath>
	<path clip-path="url(#SVGID_2_)" fill-rule="evenodd" clip-rule="evenodd" fill="#3B4552" d="M190.979,46.262
		c-20.108-16.024-45.58-25.605-73.286-25.605c-32.499,0-61.922,13.175-83.221,34.471C13.174,76.427,0,105.852,0,138.349
		s13.174,61.921,34.471,83.219c21.299,21.298,50.722,34.473,83.22,34.473c32.496,0,61.921-13.175,83.22-34.473
		c21.296-21.298,34.472-50.722,34.472-83.219c0-27.688-9.566-53.146-25.569-73.248l-17.186,17.184
		c11.708,15.626,18.646,35.035,18.645,56.064c0.001,25.842-10.475,49.239-27.407,66.173c-16.934,16.935-40.331,27.408-66.174,27.408
		c-25.844,0-49.24-10.474-66.174-27.408c-16.933-16.934-27.407-40.33-27.407-66.173s10.474-49.24,27.407-66.175
		c16.934-16.932,40.332-27.407,66.175-27.407c21.047,0,40.471,6.949,56.104,18.677L190.979,46.262z M158.773,78.468
		c-11.684-8.032-25.835-12.736-41.081-12.736c-20.052,0.001-38.207,8.13-51.347,21.27c-13.14,13.14-21.27,31.297-21.27,51.347
		c0,20.051,8.13,38.206,21.27,51.346c13.14,13.141,31.295,21.271,51.347,21.27c20.048,0.001,38.206-8.129,51.345-21.27
		c13.141-13.14,21.271-31.295,21.271-51.346c0-15.228-4.69-29.364-12.704-41.039l-17.492,17.492
		c3.878,6.972,6.086,15.001,6.086,23.547c0,13.396-5.429,25.524-14.205,34.3c-8.775,8.776-20.905,14.205-34.301,14.205
		c-13.396,0-25.524-5.429-34.3-14.205c-8.777-8.775-14.206-20.903-14.206-34.3c0-13.396,5.429-25.525,14.206-34.301
		c8.776-8.777,20.904-14.206,34.3-14.206c8.564,0,16.609,2.22,23.592,6.114L158.773,78.468z M117.691,165.433
		c14.958,0,27.084-12.126,27.084-27.084c0-2.506-0.34-4.932-0.977-7.234c-5.546,5.547-11.181,11.181-16.67,16.67
		c-5.212,5.213-13.662,5.213-18.874,0c-5.211-5.212-5.211-13.661,0-18.873c5.554-5.554,11.168-11.094,16.729-16.655
		c-2.32-0.647-4.765-0.993-7.291-0.993c-14.959,0-27.085,12.126-27.085,27.085C90.607,153.307,102.733,165.433,117.691,165.433"/>
	<path clip-path="url(#SVGID_2_)" fill-rule="evenodd" clip-rule="evenodd" fill="#2B78C2" d="M121.317,141.973l86.492-85.887
		l24.147-0.118c0.664-0.003,1.241-0.236,1.702-0.712l21.682-22.368c1.51-1.558,0.244-3.851-1.911-3.851l-19.151,0.009l1.623-1.624
		c4.766-4.764-2.48-12.009-7.245-7.244l-1.632,1.362l-0.021-19.225c-0.002-2.156-2.406-3.089-3.906-1.562l-21.368,21.76
		c-0.463,0.472-0.706,1.04-0.706,1.703v23.985c-28.852,28.844-58.108,57.674-86.957,86.522
		C109.298,139.49,116.548,146.741,121.317,141.973"/>
</g>
</svg>
