<?xml version="1.0" encoding="utf-8"?>
<!-- Generator: Adobe Illustrator 16.0.0, SVG Export Plug-In . SVG Version: 6.00 Build 0)  -->
<!DOCTYPE svg PUBLIC "-//W3C//DTD SVG 1.1//EN" "http://www.w3.org/Graphics/SVG/1.1/DTD/svg11.dtd">
<svg version="1.1" id="Layer_1" xmlns="http://www.w3.org/2000/svg" xmlns:xlink="http://www.w3.org/1999/xlink" x="0px" y="0px"
	 width="162.223px" height="125.242px" viewBox="0 0 162.223 125.242" enable-background="new 0 0 162.223 125.242"
	 xml:space="preserve">
<g>
	<defs>
		<rect id="SVGID_1_" width="162.223" height="125.242"/>
	</defs>
	<clipPath id="SVGID_2_">
		<use xlink:href="#SVGID_1_"  overflow="visible"/>
	</clipPath>
	<path clip-path="url(#SVGID_2_)" fill="#3B4552" d="M0.174,85.75l6.976,0.146c0.338-1.849,0.86-3.631,1.543-5.329l-5.959-3.608
		l4.598-7.592l5.961,3.61c0.6-0.704,1.234-1.377,1.9-2.017c0.668-0.639,1.368-1.247,2.096-1.818l-3.359-6.112l7.8-4.284l3.358,6.106
		c1.721-0.612,3.519-1.056,5.377-1.316l0.144-6.965l8.881,0.174l-0.144,6.977c1.849,0.338,3.631,0.859,5.328,1.544l3.609-5.961
		l7.592,4.598l-3.609,5.962c0.703,0.6,1.375,1.232,2.015,1.899c0.641,0.667,1.246,1.367,1.817,2.096l6.113-3.359l4.283,7.801
		l-6.105,3.358c0.609,1.721,1.054,3.521,1.314,5.377l6.967,0.145l-0.174,8.881l-6.977-0.145c-0.339,1.848-0.861,3.63-1.544,5.328
		l5.96,3.607l-4.599,7.593l-5.961-3.609c-0.598,0.704-1.232,1.376-1.898,2.015c-0.668,0.641-1.37,1.248-2.098,1.819l3.359,6.111
		l-7.801,4.283l-3.357-6.105c-1.721,0.609-3.52,1.056-5.377,1.315l-0.144,6.966l-8.881-0.174l0.146-6.978
		c-1.847-0.339-3.631-0.86-5.33-1.544l-3.607,5.962l-7.592-4.599l3.609-5.963c-0.703-0.601-1.375-1.233-2.015-1.899
		c-0.641-0.668-1.246-1.367-1.817-2.096l-6.113,3.359l-4.283-7.802l6.105-3.357c-0.609-1.721-1.056-3.52-1.314-5.375L0,94.631
		L0.174,85.75z M33.998,106.698c4.357,0.09,8.342-1.595,11.258-4.392c2.924-2.803,4.779-6.714,4.869-11.062
		c0.092-4.358-1.594-8.343-4.391-11.259c-2.802-2.924-6.713-4.779-11.062-4.869c-4.358-0.091-8.342,1.594-11.258,4.391
		c-2.924,2.803-4.779,6.714-4.869,11.062c-0.092,4.358,1.594,8.343,4.39,11.259C25.738,104.752,29.648,106.607,33.998,106.698"/>
	<path clip-path="url(#SVGID_2_)" fill="#2B78C2" d="M141.576,91.417l-7.361-7.98c-2.449,1.66-5.107,3.064-7.949,4.165l2.385,10.601
		l-11.562,2.601l-2.385-10.6c-3.037,0.225-6.043,0.094-8.965-0.356l-3.232,10.367l-11.332-3.528l3.234-10.379
		c-1.342-0.654-2.648-1.379-3.91-2.177c-1.268-0.803-2.49-1.677-3.662-2.617l-7.997,7.375l-8.033-8.731l7.979-7.359
		c-1.662-2.448-3.067-5.11-4.164-7.95l-10.6,2.386L61.419,55.67l10.6-2.385c-0.225-3.038-0.094-6.043,0.357-8.966l-10.367-3.232
		l3.528-11.332l10.378,3.235c0.655-1.343,1.379-2.648,2.178-3.91c0.803-1.269,1.676-2.492,2.617-3.662l-7.375-7.997l8.731-8.034
		l7.359,7.981c2.448-1.661,5.109-3.065,7.948-4.165L94.99,2.601L106.553,0l2.385,10.6c3.037-0.223,6.043-0.094,8.967,0.357
		l3.232-10.367l11.332,3.528l-3.236,10.38c1.344,0.652,2.648,1.379,3.91,2.177c1.27,0.802,2.49,1.676,3.664,2.616l7.996-7.374
		l8.033,8.73l-7.979,7.36c1.66,2.449,3.062,5.109,4.162,7.949l10.604-2.386l2.6,11.563l-10.6,2.386
		c0.223,3.038,0.094,6.042-0.357,8.966l10.367,3.233l-3.527,11.332l-10.381-3.235c-0.652,1.343-1.379,2.648-2.176,3.909
		c-0.803,1.269-1.676,2.491-2.615,3.663l7.373,7.996L141.576,91.417z M117.979,77.767c7.555-1.698,13.705-6.3,17.539-12.357
		c3.84-6.073,5.369-13.611,3.668-21.165c-1.699-7.554-6.299-13.705-12.357-17.538c-6.072-3.841-13.611-5.369-21.166-3.669
		c-7.553,1.699-13.705,6.3-17.538,12.358c-3.841,6.073-5.368,13.612-3.667,21.165c1.697,7.554,6.299,13.706,12.357,17.539
		C102.887,77.939,110.426,79.467,117.979,77.767"/>
	<path clip-path="url(#SVGID_2_)" fill="#2B78C2" d="M38.501,37.746h0.004c0.125,0,0.25,0.006,0.373,0.017
		c2.114-0.034,4.041-0.88,5.465-2.246c1.481-1.42,2.424-3.388,2.492-5.575h-0.015v-0.003v-0.002c0-0.127,0.006-0.251,0.017-0.375
		c-0.033-2.113-0.881-4.04-2.246-5.465c-1.42-1.479-3.389-2.423-5.576-2.49v0.013h-0.002c-0.125,0-0.252-0.005-0.375-0.016
		c-2.113,0.033-4.039,0.879-5.465,2.246c-1.498,1.435-2.449,3.438-2.494,5.658c-0.047,2.23,0.816,4.27,2.244,5.76
		c1.42,1.48,3.391,2.425,5.578,2.492V37.746z M19.557,25.136l3.449,0.072l0.078,0.002l0.301,0.006l-0.324-0.196l-2.945-1.784
		l4.291-7.085l2.945,1.783l0.094,0.056l0.215,0.13l-0.174-0.317l-1.662-3.021l7.283-3.999l1.66,3.018l0.076,0.141l0.096,0.17
		l0.006-0.355l0.072-3.437l8.287,0.161l-0.072,3.45v0.014l-0.006,0.365l0.195-0.324l1.785-2.946l7.084,4.291l-1.783,2.944
		l-0.015,0.027l-0.172,0.283l0.318-0.175l0.123-0.067l2.897-1.593l4,7.283l-3.018,1.658l-0.311,0.172l0.354,0.008l1.111,0.022
		l2.327,0.049l-0.161,8.289l-3.423-0.072l-0.028-0.001l-0.377-0.007l0.322,0.196l2.948,1.784l-4.293,7.085l-2.756-1.669
		l-0.078-0.048l-0.11-0.065l-0.023-0.016l-0.287-0.172l0.176,0.318l0.23,0.419l1.43,2.601l-7.283,3.999l-1.659-3.017l-0.017-0.032
		l-0.155-0.279l-0.007,0.355L42.5,49.046l-8.289-0.162l0.073-3.448v-0.032l0.007-0.348l-0.197,0.325l-1.783,2.946l-7.084-4.292
		l1.781-2.945l0.041-0.066l0.147-0.243l-0.319,0.175l-3.019,1.66l-4-7.282l3.017-1.66l0.311-0.17l-0.356-0.008l-3.433-0.072
		L19.557,25.136z"/>
</g>
</svg>
