<?xml version="1.0" encoding="utf-8"?>
<!-- Generator: Adobe Illustrator 16.0.0, SVG Export Plug-In . SVG Version: 6.00 Build 0)  -->
<!DOCTYPE svg PUBLIC "-//W3C//DTD SVG 1.1//EN" "http://www.w3.org/Graphics/SVG/1.1/DTD/svg11.dtd">
<svg version="1.1" id="Layer_1" xmlns="http://www.w3.org/2000/svg" xmlns:xlink="http://www.w3.org/1999/xlink" x="0px" y="0px"
	 width="256px" height="246.006px" viewBox="0 0 256 246.006" enable-background="new 0 0 256 246.006" xml:space="preserve">
<g>
	<defs>
		<rect id="SVGID_1_" width="256" height="246.006"/>
	</defs>
	<clipPath id="SVGID_2_">
		<use xlink:href="#SVGID_1_"  overflow="visible"/>
	</clipPath>
	<path clip-path="url(#SVGID_2_)" fill="#2B78C2" d="M219.984,111.001H207.99v25.985c0,4.971-4.031,9-9,9H99.961v28.011
		c0,4.948-4.017,8.965-8.965,8.965H37.991c-4.947,0-8.965-4.014-8.965-8.965l0.001-28.977L0,144.999v-18
		c9.001,0.019,28.99,0.037,37.992,0.057c4.951,0,8.965,4.015,8.965,8.965l-0.001,29.012h35.075l-0.035-28.046c0-4.97,4.03-9,9-9
		h98.994v-25.985c0-4.971,4.03-9,9-9h20.994V81.006L256,102.002l-36.016,20.995V111.001z"/>
	<path clip-path="url(#SVGID_2_)" fill="#3B4552" d="M219.992,18h-61.988v86.025l21.02-0.003v11.954l-33.021,0.004V18h-26.015
		l-0.015,27.976h-11.953L108.036,18H51.962l0.003,27.976H40.013L40.009,18H18v52.01l56.019,0.002l0.001-37.986h11.953l-0.001,37.986
		l34,0.001l0.001,45.962l-48.97,0.004v37.01h-12v-48.963l49.017-0.003V81.966L18,81.963v33.057H0V9c0-4.971,4.029-9,9-9h219.992
		c4.971,0,9,4.029,9,9v68.613l-17.994-10.489l-0.002-21.121h-25.992v35.996h-12.001V34.002h37.991L219.992,18z M53,205.997h-6
		v-12.001h64.007v-35.989h12v47.99h-37.01v22.009h60.006v-34.007h36v-24.021l-35.912,0.006V158.03l47.913-0.009v47.978h-36v22.007
		h61.988l0.007-91.127l17.993-10.489v110.616c0,4.972-4.029,9-9,9H9c-4.971,0-9-4.028-9-9v-79.964h18v70.964h55.995v-22.009H53z"/>
</g>
</svg>
