<?xml version="1.0" standalone="no"?>
<!DOCTYPE svg PUBLIC "-//W3C//DTD SVG 1.1//EN" "http://www.w3.org/Graphics/SVG/1.1/DTD/svg11.dtd" >
<svg>
<metadata>
Created by FontForge 20110222 at Wed Apr 17 07:26:50 2013
 By Orthosie Webmaster
Font software Copyright 1990 Adobe Systems Incorporated. Typeface designs Copyright 1990, 2011 The Monotype Corporation. All rights reserved.
</metadata>
<defs>
<font id="AmasisMTW1GRegular" horiz-adv-x="333" >
  <font-face 
    font-family="AmasisMTW1GRegular"
    font-weight="400"
    font-stretch="normal"
    units-per-em="1000"
    panose-1="2 4 5 4 5 0 5 2 3 4"
    ascent="722"
    descent="-278"
    x-height="474"
    cap-height="686"
    bbox="-152 -335 1043 921"
    underline-thickness="50"
    underline-position="-75"
    unicode-range="U+000D-FB04"
  />
<missing-glyph horiz-adv-x="500" 
d="M12 0v665h475v-665h-475zM88 618l162 -243l161 243h-323zM60 575v-484l161 242zM440 575l-162 -242l162 -243v485zM411 48l-161 242l-162 -242h323z" />
    <glyph glyph-name="IJ" unicode="IJ" horiz-adv-x="775" 
d="M56 686h221v-51h-17q-36 0 -43 -9.5t-7 -47.5v-470q0 -40 7 -49.5t43 -9.5h17v-49h-221v49h20q34 0 40.5 9t6.5 45v483q0 31 -7 40t-40 9h-20v51zM517 686h226v-50h-24q-31 0 -37.5 -9.5t-6.5 -39.5v-387q0 -106 -51.5 -162t-153.5 -56q-74 0 -142 34v133h64v-31
q0 -78 86 -78q31 0 53 11t33 25.5t17 40.5t7 43.5t1 45.5v385q0 18 -1.5 25.5t-11.5 13.5t-32 6h-27v50z" />
    <glyph glyph-name="ij" unicode="ij" horiz-adv-x="462" 
d="M19 467l146 13v-390q0 -30 4.5 -37.5t28.5 -7.5h23v-45h-193v45h23q23 0 29.5 7.5t6.5 41.5v275q0 36 -6.5 44t-36.5 8h-25v46zM118 697q22 0 38 -15.5t16 -38.5t-15.5 -38.5t-38.5 -15.5q-22 0 -38 15.5t-16 38.5q0 22 16 38t38 16zM245 467l149 13v-490
q0 -32 -2.5 -57.5t-11 -56t-23.5 -50.5t-43.5 -34t-66.5 -14q-52 0 -90 15v95h53q0 -18 1.5 -29t12.5 -22.5t31 -11.5q37 0 47.5 31.5t10.5 117.5v406q0 24 -6.5 33t-29.5 9l-10 -1h-22v46zM348 696q22 0 38 -16t16 -38q0 -23 -16 -39t-38 -16t-38 16t-16 39q0 22 16 38
t38 16z" />
    <glyph glyph-name="napostrophe" unicode="&#x22;n" horiz-adv-x="542" 
d="M19 462l136 13q5 -17 6 -31l3 -38q9 14 17 23t26 24.5t45 23.5t61 8q43 0 73.5 -14.5t45 -32.5t22.5 -47t9 -44t1 -38v-226q0 -26 5 -32t32 -6h19v-45h-194v45h16q29 0 34.5 7.5t5.5 45.5v204q0 22 -2 37t-10 36.5t-28.5 33t-52.5 11.5q-33 0 -63.5 -16.5t-45.5 -49.5
q-16 -34 -16 -95v-169q0 -31 6 -38t32 -7h20v-45h-193v45h19q27 0 32.5 9t5.5 39v277q0 30 -4 39t-23 9q-23 0 -40 -1v45zM-52 469v39q37 19 51 38t19 49q-35 -1 -49 18t-14 38q0 22 15.5 37.5t37.5 15.5q31 0 48 -24.5t17 -59.5q0 -13 -3 -27t-13.5 -39t-38.5 -48t-70 -37z
" />
    <glyph glyph-name="f_f" unicode="ff" horiz-adv-x="583" 
d="M21 474h64v54q0 85 44.5 130.5t118.5 45.5q51 0 105 -27v-91h-58v19q0 29 -12.5 42t-40.5 13q-41 0 -58.5 -32t-17.5 -114v-40h225v54q0 85 44.5 130.5t118.5 45.5q51 0 105 -27v-91h-57v19q0 55 -54 55q-41 0 -58.5 -32t-17.5 -114v-40h100v-57h-100v-321q0 -37 5 -45
q6 -6 39 -6h22v-45h-211v45h21q27 0 35 9t8 42v321h-225v-321q0 -37 5 -45q6 -6 38 -6h17v-45h-205v45h21q27 0 35 9t8 42v321h-64v57z" />
    <glyph glyph-name="fi" unicode="fi" horiz-adv-x="531" 
d="M22 474h63v18q0 26 1.5 44t12 53t29.5 57t59.5 40t97.5 18q81 0 142 -38v-99h-63v19q0 14 -1.5 22.5t-8 21t-24.5 19t-47 6.5q-116 0 -116 -157v-24h281v-390q0 -24 5.5 -31.5t26.5 -7.5h23v-45h-194v45h18q14 0 20 0.5t12.5 4.5t8.5 13t2 25v275q0 37 -6.5 45.5
t-39.5 8.5h-157v-333q0 -27 5 -33t31 -6h25v-45h-206v45h23q27 0 33.5 8t6.5 41v323h-63v57z" />
    <glyph glyph-name="fl" unicode="fl" horiz-adv-x="552" 
d="M25 474h63v28q0 80 29 124q54 78 166 78q48 0 99 -18l82 18v-618q0 -25 6 -33t31 -8h18v-45h-194v45h23q25 0 31.5 8.5t6.5 32.5v330h-216v-330q0 -27 5.5 -34t34.5 -7h21v-45h-206v45h24q19 0 29 6t10 28v337h-63v58zM170 499v-25h216v82q0 17 -2 29t-10 30.5t-30 28.5
t-56 10q-28 0 -49.5 -8t-33.5 -23t-20 -29.5t-11 -35.5t-3.5 -32t-0.5 -27z" />
    <glyph glyph-name="f_f_i" unicode="ffi" horiz-adv-x="844" 
d="M24 474h64v54q0 85 44.5 130.5t117.5 45.5q54 0 106 -27v-91h-58v19q0 55 -53 55q-41 0 -59 -32t-18 -114v-40h226v18q0 80 21 121q48 91 179 91q81 0 142 -38v-99h-62v19q0 48 -28 58q-28 11 -54 11q-36 0 -63 -18q-28 -18 -40.5 -48.5t-12.5 -89.5v-25h281v-390
q0 -26 6 -32.5t27 -6.5h22v-45h-194v45h19q26 0 34 8t8 35v275q0 38 -7 45q-6 9 -39 9h-157v-333q0 -27 5.5 -33t30.5 -6h26v-45h-207v45h23q27 0 33.5 8t6.5 41v323h-226v-321q0 -38 6 -45q6 -6 38 -6h18v-45h-206v45h20q28 0 36 9t8 42v321h-64v57z" />
    <glyph glyph-name="f_f_l" unicode="ffl" horiz-adv-x="854" 
d="M22 474h64v54q0 85 45 130.5t118 45.5q51 0 105 -27v-91h-57v19q0 55 -53 55q-42 0 -59.5 -32t-17.5 -114v-40h226v28q0 107 56 154q55 48 141 48q48 0 96 -18l83 18v-618q0 -25 6.5 -33t30.5 -8h18v-45h-194v45h22q24 0 31 8t7 33v331h-215v-331q0 -27 6.5 -34t33.5 -7
h21v-45h-206v45h24q22 0 30.5 7t8.5 27v338h-226v-321q0 -35 6 -43t32 -8h24v-45h-207v45h21q28 0 35.5 9t7.5 42v321h-64v57zM475 499v-25h215v101q0 41 -29 60t-71 19q-47 0 -82 -32q-33 -32 -33 -123z" />
    <glyph glyph-name=".notdef" horiz-adv-x="500" 
d="M12 0v665h475v-665h-475zM88 618l162 -243l161 243h-323zM60 575v-484l161 242zM440 575l-162 -242l162 -243v485zM411 48l-161 242l-162 -242h323z" />
    <glyph glyph-name=".null" horiz-adv-x="0" 
 />
    <glyph glyph-name="nonmarkingreturn" 
 />
    <glyph glyph-name="CR" unicode="&#xd;" horiz-adv-x="260" 
 />
    <glyph glyph-name="space" unicode=" " horiz-adv-x="260" 
 />
    <glyph glyph-name="exclam" unicode="!" horiz-adv-x="240" 
d="M79 689h82v-59l-9 -461h-63l-10 461v59zM120 93q22 0 38 -15.5t16 -38.5t-16 -38.5t-38 -15.5t-38 16t-16 38t16 38t38 16z" />
    <glyph glyph-name="quotedbl" unicode="&#x22;" horiz-adv-x="354" 
d="M147 585l-22 -166h-56l-20 152q0 5 -2 15q-2 20 -2 33q0 20 13.5 36.5t40.5 16.5q24 0 37.5 -16.5t13.5 -42.5q0 -10 -3 -28zM306 585l-22 -166h-56l-20 152q0 5 -2 15q-2 20 -2 33q0 20 13.5 36.5t40.5 16.5q24 0 37.5 -16.5t13.5 -42.5q0 -10 -3 -28z" />
    <glyph glyph-name="numbersign" unicode="#" horiz-adv-x="667" 
d="M42 482h156l42 194h70l-42 -194h195l41 194h70l-41 -194h92v-70h-106l-35 -171h141v-70h-155l-41 -193h-70l42 193h-197l-40 -193h-71l41 193h-92v70h107l35 171h-142v70zM254 412l-36 -170h196l36 170h-196z" />
    <glyph glyph-name="dollar" unicode="$" horiz-adv-x="490" 
d="M222 692h57v-43q73 -7 145 -38v-131h-60v15q0 49 -16 68t-69 29v-233q91 -39 130 -84.5t39 -108.5q0 -79 -52 -129.5t-122 -53.5v-89h-56v89q-80 2 -175 36v152h66q0 -4 0.5 -26.5t1.5 -26.5q3 -19 10.5 -32.5t31.5 -28t65 -19.5v263q-40 21 -61.5 34.5t-49 36.5
t-40 51.5t-12.5 63.5q0 24 7.5 47.5t25 48.5t52.5 43t82 23v43zM222 389v204q-30 -5 -50 -18.5t-26.5 -30.5t-8.5 -25.5t-2 -17.5q0 -23 8 -41.5t23.5 -32t26.5 -21t29 -17.5zM274 272v-230q40 9 63 33t27 41.5t4 34.5q0 33 -17.5 59t-33 36.5t-43.5 25.5z" />
    <glyph glyph-name="percent" unicode="%" horiz-adv-x="813" 
d="M158 665q-71 0 -71 -148q0 -145 70 -145q29 0 45 22.5t20.5 52.5t4.5 76q0 142 -69 142zM592 704h59l-431 -722h-60zM656 314q-71 0 -71 -148q0 -146 70 -146q22 0 36.5 12t21.5 35t9.5 47t2.5 58q0 142 -69 142zM159 704q132 0 132 -181q0 -190 -136 -190
q-43 0 -71.5 18t-40.5 50t-15.5 58t-3.5 59q0 186 135 186zM657 353q132 0 132 -181q0 -190 -136 -190q-131 0 -131 185q0 186 135 186z" />
    <glyph glyph-name="ampersand" unicode="&#x26;" horiz-adv-x="708" 
d="M315 374l157 -197q20 32 30 69t10 52q0 30 -44 30h-18v46h212v-46h-27q-25 0 -36 -11t-19 -40q-26 -99 -64 -154q38 -45 61.5 -60t59.5 -15q14 0 25 4v-56q-35 -14 -64 -14q-31 0 -58.5 14t-41 26.5t-34.5 36.5q-80 -77 -192 -77q-100 0 -160.5 55.5t-60.5 142.5
q0 42 15 76.5t44 60.5t47 38t49 29l-8 11q-32 43 -47 75t-15 69q0 60 44.5 101.5t120.5 41.5q47 0 80.5 -14.5t49 -37.5t21.5 -43t6 -40q0 -34 -12.5 -62t-38.5 -50t-43.5 -33t-48.5 -28zM269 430l8 -11q25 14 38.5 23t32 25.5t27 36t8.5 43.5q0 36 -24.5 59t-60.5 23
q-42 0 -63 -23.5t-21 -51.5q0 -48 55 -124zM422 110l-177 224q-109 -66 -109 -147q0 -52 40 -95t101 -43q81 0 145 61z" />
    <glyph glyph-name="quotesingle" unicode="'" horiz-adv-x="188" 
d="M143 585l-22 -166h-56l-20 152q0 5 -2 15q-2 20 -2 33q0 20 13.5 36.5t40.5 16.5q24 0 37.5 -16.5t13.5 -42.5q0 -10 -3 -28z" />
    <glyph glyph-name="parenleft" unicode="(" horiz-adv-x="302" 
d="M200 704h72q-47 -79 -77 -153.5t-41 -137.5t-13.5 -95.5t-2.5 -76.5q0 -43 2.5 -76t13.5 -96.5t41 -137.5t77 -152h-72q-20 28 -41 64.5t-47.5 96t-43.5 137.5t-17 158q0 245 149 469z" />
    <glyph glyph-name="parenright" unicode=")" horiz-adv-x="302" 
d="M30 704h72q20 -28 41 -64.5t47.5 -96t43.5 -137.5t17 -158q0 -246 -149 -469h-72q47 79 77 153.5t41 137.5t13.5 95.5t2.5 76.5q0 43 -2.5 76t-13.5 96.5t-41 137.5t-77 152z" />
    <glyph glyph-name="asterisk" unicode="*" horiz-adv-x="479" 
d="M52 592l30 -10l129 -50l-7 140v32h69v-32l-8 -138l131 48l31 10l21 -65l-30 -9l-134 -36l85 -110l19 -28l-55 -39l-19 28l-74 115l-77 -115l-20 -26l-55 40l19 27l89 108l-135 35l-30 10z" />
    <glyph glyph-name="plus" unicode="+" horiz-adv-x="667" 
d="M294 593h77v-229h230v-77h-230v-228h-77v228h-228v77h228v229z" />
    <glyph glyph-name="comma" unicode="," horiz-adv-x="240" 
d="M58 -135v39q37 19 51 38t19 49q-35 -1 -49 18t-14 38q0 22 15.5 37.5t37.5 15.5q31 0 48 -24.5t17 -59.5q0 -13 -3 -27t-13.5 -39t-38.5 -48t-70 -37z" />
    <glyph glyph-name="hyphen" unicode="-" horiz-adv-x="323" 
d="M31 273h261v-77h-261v77z" />
    <glyph glyph-name="period" unicode="." horiz-adv-x="240" 
d="M120 93q22 0 38 -15.5t16 -38.5t-16 -38.5t-38 -15.5t-38 16t-16 38t16 38t38 16z" />
    <glyph glyph-name="slash" unicode="/" horiz-adv-x="552" 
d="M408 686h82l-340 -686h-82z" />
    <glyph glyph-name="zero" unicode="0" horiz-adv-x="520" 
d="M262 672q59 0 100.5 -25.5t64 -73t32 -104.5t9.5 -131q0 -352 -212 -352q-39 0 -71 13t-52.5 33t-36 50.5t-23.5 59t-13 65.5t-6 63.5t-1 58.5q0 25 0.5 44.5t5 57t12 66.5t23 64t37 57.5t55.5 38t76 15.5zM261 611q-69 0 -97 -74.5t-28 -209.5q0 -43 2 -76t9 -73.5
t20 -67t36.5 -45t56.5 -18.5t56.5 17.5t36 43.5t19.5 68t9 77.5t2 84.5q0 31 -0.5 50.5t-3.5 57t-11 62t-21 50.5t-35 39.5t-51 13.5z" />
    <glyph glyph-name="one" unicode="1" horiz-adv-x="520" 
d="M276 672h44v-581q0 -23 7.5 -32.5t37.5 -9.5h45v-49h-262v49h56q18 0 26.5 6.5t10 13.5t1.5 22v403q0 14 -1 21t-6 14t-16 7l-23 -1l-61 -5v44q100 12 141 98z" />
    <glyph glyph-name="two" unicode="2" horiz-adv-x="520" 
d="M78 482v116q82 74 181 74q47 0 83 -16t55 -42t28.5 -54t9.5 -56q0 -109 -121 -258q-93 -113 -154 -174h177q38 0 47.5 7t9.5 33v42h62v-154h-395v61l12 13q144 149 212 246t68 180q0 42 -26.5 77.5t-84.5 35.5q-42 0 -72.5 -22t-30.5 -77v-32h-61z" />
    <glyph glyph-name="three" unicode="3" horiz-adv-x="520" 
d="M86 495v122q26 17 45.5 27t52.5 19t69 9q50 0 87.5 -15.5t56.5 -40.5t28 -51.5t9 -53.5q0 -47 -25.5 -90.5t-80.5 -64.5v-2q64 -20 90.5 -66.5t26.5 -95.5q0 -33 -10.5 -66.5t-33.5 -66t-67 -53t-104 -20.5q-88 0 -162 46v133h64v-40q0 -78 101 -78q64 0 98 40.5t34 96.5
q0 34 -12 59t-26.5 38t-42.5 21t-43.5 10t-46.5 5v66q162 4 162 121q0 13 -3 27.5t-12.5 35.5t-34 35t-59.5 14q-58 0 -88 -39q-13 -17 -13 -52v-30h-60z" />
    <glyph glyph-name="four" unicode="4" horiz-adv-x="520" 
d="M331 672h68v-443h78v-61h-78v-69q0 -16 1 -23t5 -14.5t14 -10t28 -2.5h23v-49h-232v49h42q30 0 38.5 7t8.5 35v77h-279v77zM325 555l-214 -326h216v326h-2z" />
    <glyph glyph-name="five" unicode="5" horiz-adv-x="520" 
d="M109 659h321v-70h-257l-9 -174q44 29 101 29q49 0 86.5 -19.5t58.5 -51.5t31 -68t10 -75q0 -22 -3.5 -47t-17 -62t-35.5 -65.5t-64.5 -49t-98.5 -20.5q-86 0 -153 49v136h67v-32q0 -21 1.5 -32.5t8.5 -29t25 -25.5t47 -8q41 0 70.5 17.5t44 46t20.5 57t6 58.5
q0 79 -35.5 119.5t-86.5 40.5q-59 0 -94 -48h-60z" />
    <glyph glyph-name="six" unicode="6" horiz-adv-x="520" 
d="M141 365l2 -2q63 71 146 71q75 0 130.5 -53t55.5 -163q0 -41 -11 -80t-34.5 -74t-66.5 -56.5t-100 -21.5q-211 0 -211 299q0 27 2 54.5t8.5 67.5t17 74.5t30.5 70.5t46.5 61.5t66.5 42t89 16.5q78 0 141 -36v-121h-63v15q0 19 -1.5 30t-8.5 26.5t-25.5 23t-47.5 7.5
q-45 0 -78 -23.5t-50.5 -63.5t-26 -79.5t-11.5 -85.5zM269 369q-55 0 -92.5 -41t-37.5 -118q0 -87 39.5 -127.5t87.5 -40.5q15 0 32 5t41 20t39.5 52t15.5 92q0 73 -32.5 115.5t-92.5 42.5z" />
    <glyph glyph-name="seven" unicode="7" horiz-adv-x="520" 
d="M75 659h395v-71q-12 -16 -29.5 -42t-59 -104t-70.5 -156q-52 -141 -56 -293h-74q1 85 22.5 176t49 158.5t60.5 130t51.5 90t27.5 39.5h-222q-14 0 -19.5 -1t-9.5 -7.5t-4 -21.5v-52h-62v154z" />
    <glyph glyph-name="eight" unicode="8" horiz-adv-x="520" 
d="M159 348q-91 49 -91 145q0 74 51.5 126.5t145.5 52.5q90 0 138.5 -50t48.5 -123q0 -100 -90 -151q107 -51 107 -161q0 -34 -11.5 -68t-34.5 -64.5t-65 -49.5t-97 -19q-52 0 -91.5 15.5t-61 37.5t-35 50.5t-17.5 50.5t-4 43q0 113 107 165zM260 613q-50 0 -81.5 -32
t-31.5 -83q0 -36 12 -62t30.5 -38t36.5 -17.5t35 -5.5q47 0 79.5 31t32.5 90q0 52 -30.5 84.5t-82.5 32.5zM261 313q-57 0 -91.5 -38t-34.5 -93q0 -64 36 -100t92 -36q57 0 90 37.5t33 95.5q0 59 -33 96.5t-92 37.5z" />
    <glyph glyph-name="nine" unicode="9" horiz-adv-x="520" 
d="M74 143h63v-14q0 -19 1.5 -30t8.5 -26.5t25.5 -23t47.5 -7.5q45 0 78 23t50.5 63t26 79.5t11.5 85.5l-2 2q-64 -70 -146 -70q-75 0 -130.5 52.5t-55.5 162.5q0 33 6.5 64.5t22.5 62t39.5 53.5t60.5 37.5t83 14.5q211 0 211 -299q0 -27 -2 -54.5t-8.5 -67.5t-17 -74.5
t-30.5 -70.5t-46.5 -61.5t-66.5 -42t-89 -16.5q-76 0 -141 37v120zM261 617q-15 0 -32 -5t-41 -20t-39.5 -52.5t-15.5 -92.5q0 -73 32.5 -115.5t92.5 -42.5q55 0 92.5 41t37.5 119q0 87 -39.5 127.5t-87.5 40.5z" />
    <glyph glyph-name="colon" unicode=":" horiz-adv-x="240" 
d="M120 488q22 0 38 -16t16 -38t-16 -38t-38 -16t-38 16t-16 38t16 38t38 16zM120 93q22 0 38 -15.5t16 -38.5t-16 -38.5t-38 -15.5t-38 16t-16 38t16 38t38 16z" />
    <glyph glyph-name="semicolon" unicode=";" horiz-adv-x="240" 
d="M58 -135v39q37 19 51 38t19 49q-35 -1 -49 18t-14 38q0 22 15.5 37.5t37.5 15.5q31 0 48 -24.5t17 -59.5q0 -13 -3 -27t-13.5 -39t-38.5 -48t-70 -37zM120 488q22 0 38 -16t16 -38t-16 -38t-38 -16t-38 16t-16 38t16 38t38 16z" />
    <glyph glyph-name="less" unicode="&#x3c;" horiz-adv-x="667" 
d="M66 361l535 224v-83l-431 -176l431 -176v-83l-535 224v70z" />
    <glyph glyph-name="equal" unicode="=" horiz-adv-x="667" 
d="M66 481h535v-77h-535v77zM66 250h535v-77h-535v77z" />
    <glyph glyph-name="greater" unicode="&#x3e;" horiz-adv-x="667" 
d="M66 585l535 -225v-69l-535 -224v83l431 175l-431 176v84z" />
    <glyph glyph-name="question" unicode="?" horiz-adv-x="427" 
d="M32 519v126q81 59 174 59q98 0 142.5 -49.5t44.5 -114.5q0 -34 -12.5 -65t-27 -51.5t-50.5 -64.5q-47 -57 -65 -98t-21 -99h-64q-1 110 65 200l49 63q44 61 44 119q0 41 -27.5 72t-82.5 31q-67 0 -94 -47q-11 -18 -11 -59v-22h-64zM186 93q22 0 38 -15.5t16 -38.5
t-16 -38.5t-38 -15.5t-38 16t-16 38t16 38t38 16z" />
    <glyph glyph-name="at" unicode="@" horiz-adv-x="1010" 
d="M657 515h89l-71 -328q-16 -73 -16 -80q0 -11 6.5 -20t23.5 -9q23 0 54.5 19t63 52t53.5 87t22 116q0 141 -103.5 224.5t-249.5 83.5q-120 0 -213.5 -58.5t-141.5 -155t-48 -212.5q0 -72 24.5 -143.5t73.5 -118.5q118 -112 327 -112q76 0 137.5 15t103 42.5t61 46
t42.5 45.5h84q-16 -27 -25 -40t-32 -37t-53 -46q-133 -96 -321 -96q-129 0 -227 37t-155 100t-85.5 139.5t-28.5 163.5q0 66 15.5 132t52.5 133t90.5 118.5t137 83.5t185.5 32q105 0 188.5 -34t133 -90t75 -121t25.5 -134q0 -139 -92.5 -244.5t-200.5 -105.5q-31 0 -51 7
t-28.5 21t-11 24t-4.5 28q-75 -80 -150 -80q-76 0 -126.5 64.5t-50.5 154.5q0 68 31 138.5t91 121t131 50.5q40 0 73.5 -18t46 -32.5t29.5 -38.5zM500 456q-50 0 -90 -41t-59.5 -96.5t-19.5 -108.5q0 -63 30 -100.5t71 -37.5q73 0 127 74.5t54 173.5q0 59 -31 97.5t-82 38.5
z" />
    <glyph glyph-name="A" unicode="A" horiz-adv-x="677" 
d="M298 695h82l204 -581q15 -44 27.5 -54.5t37.5 -10.5h19v-49h-225v49h26q14 0 21.5 1t13 6.5t5.5 15.5q0 9 -11 42l-37 106h-263l-39 -110q-9 -18 -9 -36q0 -25 41 -25h28v-49h-210v49h18q25 0 37.5 10.5t24.5 43.5zM328 591l-109 -311h220l-109 311h-2z" />
    <glyph glyph-name="B" unicode="B" horiz-adv-x="614" 
d="M41 687l247 -1q100 0 145 -17q101 -39 101 -153q0 -107 -95 -148v-2q140 -30 140 -171q0 -65 -32 -110.5t-81 -66.5q-43 -18 -135 -18l-290 1v49h24q32 0 38.5 9.5t6.5 43.5v488q0 19 -1.5 27t-11.5 13.5t-32 5.5h-24v50zM196 625v-239h95q158 0 158 125q0 114 -143 114
h-110zM196 326v-266h142q151 0 151 129q0 39 -14 66.5t-31 41t-46 20.5t-45 8t-42 1h-115z" />
    <glyph glyph-name="C" unicode="C" horiz-adv-x="667" 
d="M615 648v-155h-72q-2 81 -12 98q-12 19 -54.5 34.5t-92.5 15.5q-111 0 -176 -80.5t-65 -215.5q0 -75 22 -133t58 -91t76.5 -49.5t83.5 -16.5q49 0 112.5 19t119.5 68v-84q-96 -76 -242 -76q-149 0 -235 101t-86 255q0 99 37 181t115 133.5t184 51.5q131 0 227 -56z" />
    <glyph glyph-name="D" unicode="D" horiz-adv-x="729" 
d="M45 686h293q123 0 190 -36q68 -36 109.5 -113t41.5 -190q0 -120 -44.5 -196t-103.5 -112q-66 -39 -170 -39h-316v49h23q31 0 37.5 9.5t6.5 44.5v484q0 30 -6.5 39.5t-37.5 9.5h-23v50zM198 623v-563h139q92 2 133 26q116 67 116 257q0 58 -11.5 103.5t-28 74.5t-43 49.5
t-48 30.5t-52 15.5t-45 6t-37.5 0.5h-123z" />
    <glyph glyph-name="E" unicode="E" horiz-adv-x="604" 
d="M48 686h502v-154h-64v50q0 29 -10 34.5t-52 7.5h-223v-241h176q31 0 39 8.5t8 35.5v23h57v-197h-57v31q0 26 -10.5 32.5t-41.5 6.5h-171v-262h253q30 0 37 9.5t7 38.5v43h63v-152h-513v49h24q30 0 36.5 9.5t6.5 38.5v496q0 25 -7.5 34t-35.5 9h-24v50z" />
    <glyph glyph-name="F" unicode="F" horiz-adv-x="583" 
d="M48 686h507v-153h-63v40q0 33 -8 41.5t-48 8.5h-234v-237h163q32 0 40 8.5t8 38.5v18h56v-196h-56v26q0 27 -9 35t-45 8h-157v-225q0 -31 7 -40.5t40 -9.5h29v-49h-230v49h21q33 0 40 11t7 48v479q0 31 -8 40t-42 9h-18v50z" />
    <glyph glyph-name="G" unicode="G" horiz-adv-x="708" 
d="M617 650v-157h-71v34q0 50 -14 68q-14 17 -51.5 32t-89.5 15q-65 0 -114.5 -25.5t-78 -68.5t-43 -94.5t-14.5 -108.5q0 -135 68 -215.5t179 -80.5q66 0 143 34v139q0 35 -7 44.5t-40 9.5h-26v50h229v-50h-27q-30 0 -36.5 -10t-6.5 -44v-173q-57 -33 -110 -50t-124 -17
q-88 0 -155.5 32.5t-105 85.5t-56 113.5t-18.5 125.5q0 156 92.5 260.5t257.5 104.5q121 0 219 -54z" />
    <glyph glyph-name="H" unicode="H" horiz-adv-x="750" 
d="M45 686h221v-50h-21q-32 0 -39 -10t-7 -37v-192h353v192q0 30 -7.5 38.5t-41.5 8.5h-19v50h221v-50h-23q-31 0 -37.5 -9.5t-6.5 -43.5v-486q0 -29 7 -38.5t37 -9.5h23v-49h-221v49h19q33 0 41 8t8 40v237h-353v-237q0 -19 1.5 -27t12 -14.5t32.5 -6.5h21v-49h-221v49h25
q30 0 36.5 9.5t6.5 38.5v492q0 28 -7 37.5t-40 9.5h-21v50z" />
    <glyph glyph-name="I" unicode="I" 
d="M56 686h221v-51h-17q-36 0 -43 -9.5t-7 -47.5v-470q0 -40 7 -49.5t43 -9.5h17v-49h-221v49h20q34 0 40.5 9t6.5 45v483q0 31 -7 40t-40 9h-20v51z" />
    <glyph glyph-name="J" unicode="J" horiz-adv-x="479" 
d="M221 686h226v-50h-24q-31 0 -37.5 -9.5t-6.5 -39.5v-387q0 -106 -51.5 -162t-153.5 -56q-74 0 -142 34v133h64v-31q0 -78 86 -78q31 0 53 11t33 25.5t17 40.5t7 43.5t1 45.5v385q0 18 -1.5 25.5t-11.5 13.5t-32 6h-27v50z" />
    <glyph glyph-name="K" unicode="K" horiz-adv-x="671" 
d="M45 686h221v-50h-20q-33 0 -40 -9t-7 -40v-222l222 226q18 18 18 29q0 16 -38 16v50h220v-50q-41 0 -64 -9.5t-53 -39.5l-215 -222l246 -253q28 -29 51.5 -43.5t35.5 -16.5t34 -3v-49h-249v49h20q26 0 26 17q0 11 -15 27l-239 249v-237q0 -36 7 -46t40 -10h20v-49h-221
v49h25q43 0 43 30v508q0 19 -2 27.5t-11.5 15t-29.5 6.5h-25v50z" />
    <glyph glyph-name="L" unicode="L" horiz-adv-x="573" 
d="M48 686h230v-50h-26q-36 0 -43 -8.5t-7 -44.5v-523h237q25 0 33.5 8t8.5 39v55h65v-162h-498v49h21q33 0 40 9.5t7 41.5v491q0 26 -7.5 35.5t-39.5 9.5h-21v50z" />
    <glyph glyph-name="M" unicode="M" horiz-adv-x="885" 
d="M47 686h199l196 -590h2l197 590h197v-50h-20q-33 0 -40 -9.5t-7 -41.5v-489q0 -29 7 -38t40 -9h20v-49h-216v49h19q35 0 41.5 9.5t6.5 48.5v529h-2l-212 -636h-82l-212 633h-2v-537q0 -14 1 -21t5 -14t13.5 -9.5t26.5 -2.5h21v-49h-199v49h22q32 0 39 10t7 42v484
q0 23 -2 31.5t-11.5 14t-32.5 5.5h-22v50z" />
    <glyph glyph-name="N" unicode="N" horiz-adv-x="719" 
d="M45 686h197l310 -556h2v455q0 32 -7.5 41.5t-43.5 9.5h-17v50h204v-50h-22q-32 0 -39 -9.5t-7 -41.5v-594h-89l-350 628h-2v-519q0 -32 7 -41.5t40 -9.5h20v-49h-203v49h24q30 0 36.5 10.5t6.5 45.5v487q0 14 -1 20.5t-5 13.5t-13.5 8.5t-26.5 1.5h-21v50z" />
    <glyph glyph-name="O" unicode="O" horiz-adv-x="760" 
d="M382 704q81 0 144.5 -29t103 -79.5t59.5 -114t20 -135.5q0 -162 -92.5 -263t-240.5 -101q-143 0 -234 96t-91 257q0 169 91.5 269t239.5 100zM381 638q-69 0 -118.5 -28t-73.5 -74.5t-34.5 -94t-10.5 -99.5q0 -60 13 -111t39.5 -93t74 -66t110.5 -24q109 0 171.5 80
t62.5 225q0 144 -66 214.5t-168 70.5z" />
    <glyph glyph-name="P" unicode="P" horiz-adv-x="594" 
d="M43 686h279q19 0 31.5 -0.5t38 -4t44 -10t41 -20.5t36.5 -33.5t24 -50t10 -69.5q0 -70 -30 -110.5t-64 -56.5q-20 -10 -62 -16.5t-69 -6.5h-125v-216q0 -27 9 -35t46 -8h21v-49h-230v49h17q36 0 43.5 9.5t7.5 40.5v491q0 15 -1 21.5t-5.5 13.5t-15 9t-29.5 2h-17v50z
M197 625v-258h98q167 0 167 127q0 131 -149 131h-116z" />
    <glyph glyph-name="Q" unicode="Q" horiz-adv-x="760" 
d="M676 -86v-54q-23 -3 -59 -3q-205 0 -325 134q-121 33 -181 124.5t-60 222.5q0 162 89.5 264t241.5 102q81 0 144.5 -29t103 -79.5t59.5 -114t20 -135.5q0 -141 -73 -240.5t-206 -119.5q25 -25 56.5 -40.5t69.5 -21.5t60.5 -7.5t59.5 -2.5zM381 638q-69 0 -118.5 -28
t-73.5 -74.5t-34.5 -94t-10.5 -99.5q0 -142 60 -215q64 -79 177 -79q109 0 171.5 80t62.5 225q0 144 -66 214.5t-168 70.5z" />
    <glyph glyph-name="R" unicode="R" horiz-adv-x="644" 
d="M43 686h281q19 0 33 -1t44 -5.5t52 -16.5t45 -31t35.5 -52.5t12.5 -77.5q0 -94 -65 -149q-25 -20 -69 -35l116 -205q19 -34 41 -49t57 -15h23v-49h-154l-171 308h-128v-213q0 -27 7.5 -36.5t39.5 -9.5h20v-49h-220v49h19q34 0 41 9.5t7 46.5v484q0 16 -1 22.5t-5 13.5
t-14 9t-28 2h-19v50zM196 626v-259h100q165 0 165 129q0 130 -152 130h-113z" />
    <glyph glyph-name="S" unicode="S" horiz-adv-x="531" 
d="M464 661v-151h-67v26q0 59 -17 74q-35 35 -109 35q-66 0 -94.5 -33t-28.5 -70q0 -22 8.5 -40.5t19 -31.5t36 -29.5t43.5 -26t57 -29.5q36 -18 54 -27.5t45.5 -29t41 -38t24.5 -47.5t11 -63q0 -29 -9.5 -59t-32 -63.5t-70.5 -54.5t-115 -21q-126 0 -215 40v172h72v-38
q0 -50 20 -72q37 -43 121 -43q60 0 100.5 32.5t40.5 88.5q0 54 -32 84t-107 68q-41 21 -61.5 32t-52 32.5t-47 40.5t-27.5 47.5t-12 61.5q0 67 54 121.5t162 54.5q101 0 187 -43z" />
    <glyph glyph-name="T" unicode="T" horiz-adv-x="646" 
d="M24 686h598v-165h-64v62q0 14 -1 20t-5 12.5t-14 8.5t-28 2h-144v-523q0 -35 7.5 -44.5t43.5 -9.5h21v-49h-230v49h28q30 0 37 9t7 40v528h-140q-36 0 -44 -9t-8 -44v-52h-64v165z" />
    <glyph glyph-name="U" unicode="U" horiz-adv-x="719" 
d="M30 686h224v-50h-24q-31 0 -37.5 -10t-6.5 -46v-334q0 -28 2 -48.5t12 -51t28 -50.5t53.5 -34.5t85.5 -14.5q51 0 87.5 15.5t54 35t27 50t11 47.5t1.5 41v344q0 36 -6.5 46t-38.5 10h-22v50h208v-50h-25q-16 0 -24.5 -2t-12 -10t-4 -14t-0.5 -23v-346q0 -259 -259 -259
q-266 0 -266 254v351q0 21 -2 29.5t-13 14t-35 5.5h-18v50z" />
    <glyph glyph-name="V" unicode="V" horiz-adv-x="677" 
d="M9 686h230v-50h-23q-14 0 -21 -0.5t-14 -6t-7 -15.5q0 -12 9 -36l164 -468h2l163 458q10 29 10 40q0 28 -44 28h-22v50h212v-50h-20q-39 0 -53 -41l-216 -604h-81l-205 580q-16 45 -26.5 55t-37.5 10h-20v50z" />
    <glyph glyph-name="W" unicode="W" horiz-adv-x="958" 
d="M9 686h224v-50h-30q-35 0 -35 -22q0 -5 1 -12t3 -14.5t2 -8.5l123 -454h2l148 561h81l146 -561h2l120 441q8 28 8 43q0 13 -8 19t-15.5 7t-21.5 1h-21v50h211v-50h-14q-28 0 -43.5 -12.5t-25.5 -48.5l-160 -584h-82l-145 561h-2l-148 -561h-84l-152 575q-12 45 -25 57.5
t-41 12.5h-18v50z" />
    <glyph glyph-name="X" unicode="X" horiz-adv-x="667" 
d="M36 686h234v-50h-13q-35 0 -35 -21q0 -5 4.5 -14.5t9.5 -17.5l4 -8l102 -156l103 148q24 35 24 52t-29 17h-21v50h215v-50q-25 0 -37.5 -2.5t-33 -19.5t-45.5 -53l-139 -200l150 -229q20 -30 34.5 -47.5t29 -25t24.5 -9t28 -1.5v-49h-235v49h20q31 0 31 16q0 10 -16 37
l-118 182l-129 -185q-16 -25 -16 -33q0 -17 31 -17h21v-49h-212v49h14q18 0 28.5 2.5t29.5 20t44 52.5l151 220l-146 223q-17 26 -30 40.5t-27 20.5t-23 7t-27 1v50z" />
    <glyph glyph-name="Y" unicode="Y" horiz-adv-x="656" 
d="M7 686h229v-50h-20q-36 0 -36 -18q0 -7 17 -35l141 -238l144 228q21 33 21 44q0 13 -9.5 16t-29.5 3h-28v50h213v-50q-19 0 -28 -1t-21.5 -8.5t-22.5 -23.5q-4 -4 -9 -14l-199 -314v-176q0 -33 7.5 -41.5t45.5 -8.5h19v-49h-229v49h24q33 0 40 10t7 40v171l-189 313
q-19 32 -33.5 42.5t-38.5 10.5h-15v50z" />
    <glyph glyph-name="Z" unicode="Z" horiz-adv-x="626" 
d="M57 686h503v-64l-414 -558h311q38 0 46 9t8 47v55h63v-175h-531v64l414 558h-268q-48 0 -58.5 -6.5t-10.5 -42.5v-56h-63v169z" />
    <glyph glyph-name="bracketleft" unicode="[" horiz-adv-x="292" 
d="M67 686h191v-55h-119v-785h119v-56h-191v896z" />
    <glyph glyph-name="backslash" unicode="\" horiz-adv-x="552" 
d="M65 686h82l340 -686h-82z" />
    <glyph glyph-name="bracketright" unicode="]" horiz-adv-x="292" 
d="M34 686h191v-896h-191v55h119v785h-119v56z" />
    <glyph glyph-name="asciicircum" unicode="^" horiz-adv-x="469" 
d="M198 686h71l169 -391h-80l-125 292l-122 -292h-80z" />
    <glyph glyph-name="underscore" unicode="_" horiz-adv-x="500" 
d="M-6 -75h512v-50h-512v50z" />
    <glyph glyph-name="grave" unicode="`" 
d="M57 671h97l65 -129h-55z" />
    <glyph glyph-name="a" unicode="a" horiz-adv-x="490" 
d="M79 336v100q73 52 167 52q105 0 146 -64q18 -30 18 -115v-196q0 -37 6 -50.5t19 -13.5q19 0 43 14v-49q-3 -3 -6 -3q-46 -23 -78 -23q-19 0 -31.5 7.5t-19 23t-8 22.5t-3.5 22q-18 -22 -30.5 -34t-44 -26.5t-70.5 -14.5q-22 0 -44 5t-47 18.5t-40.5 42t-15.5 69.5
q0 26 7.5 47.5t17 37t32.5 30t40.5 23t56 20t62.5 17.5l76 19q0 20 -0.5 32t-5.5 31t-14.5 29.5t-28 19t-45.5 8.5q-96 0 -96 -80v-21h-63zM332 265l-8 -2q-46 -13 -64 -18t-49 -15.5t-42 -18t-25.5 -20t-19 -26.5t-4.5 -33q0 -39 25 -60.5t59 -21.5q56 0 97 39
q31 31 31 106v70z" />
    <glyph glyph-name="b" unicode="b" horiz-adv-x="536" 
d="M0 689l149 15v-294h2q3 6 11.5 16.5t25.5 25.5t45.5 25.5t62.5 10.5q43 0 78 -15t57 -39.5t36.5 -56.5t20.5 -64t6 -64q0 -110 -56 -185.5t-151 -75.5q-81 0 -139 64l-30 -64h-48v616q0 28 -7.5 35t-35.5 7h-27v43zM279 424q-40 0 -68.5 -18.5t-42.5 -49.5t-19.5 -62
t-5.5 -66q0 -89 41 -132t96 -43q59 0 94 50.5t35 135.5t-34 135t-96 50z" />
    <glyph glyph-name="c" unicode="c" horiz-adv-x="479" 
d="M432 445v-139h-67v43q0 36 -17.5 58.5t-71.5 22.5q-66 0 -106 -50t-40 -140q0 -50 13 -87t30 -55t40 -28.5t35.5 -12.5t24.5 -2q75 0 159 66v-73q-77 -63 -173 -63q-55 0 -97.5 21t-66.5 57t-36 78t-12 88q0 128 70 192t163 64q79 0 152 -40z" />
    <glyph glyph-name="d" unicode="d" horiz-adv-x="560" 
d="M316 689l149 15v-601q0 -21 1.5 -29.5t9 -14t25.5 -5.5q11 0 31 2v-44l-138 -12q-6 30 -7 70h-2q-47 -82 -146 -82q-55 0 -95.5 23t-61.5 60t-30.5 76t-9.5 80q0 107 55 184t157 77q84 0 130 -64h2v181q0 19 -1.5 26t-10 11.5t-27.5 4.5h-31v42zM256 424
q-34 0 -59.5 -15.5t-38 -37t-20.5 -50t-9.5 -47t-1.5 -36.5q0 -97 41 -145q35 -40 91 -40q58 0 95.5 48t37.5 141q0 87 -35.5 134.5t-100.5 47.5z" />
    <glyph glyph-name="e" unicode="e" horiz-adv-x="499" 
d="M454 244h-327q1 -88 38 -139.5t112 -51.5q82 0 166 75v-73q-78 -70 -181 -70q-108 0 -163.5 70.5t-55.5 173.5q0 116 60 187.5t159 71.5q107 0 157 -80q35 -56 35 -164zM132 299h240q-4 61 -32 98t-83 37q-9 0 -17.5 -1t-27 -8t-32.5 -20t-28 -40.5t-20 -65.5z" />
    <glyph glyph-name="f" unicode="f" horiz-adv-x="281" 
d="M23 474h64v54q0 53 16.5 90.5t44 54.5t52 24t50.5 7q48 0 105 -27v-91h-58v20q0 54 -53 54q-21 0 -36 -9.5t-22.5 -22t-11.5 -34.5t-5 -38.5t-1 -41.5v-40h100v-58h-100v-320q0 -37 5.5 -44t37.5 -7h23v-45h-211v45h21q30 0 36.5 10t6.5 41v320h-64v58z" />
    <glyph glyph-name="g" unicode="g" horiz-adv-x="523" 
d="M342 474h151v-59h-88q34 -45 34 -107q0 -58 -31 -105t-95 -61q-24 -5 -101 -9q-26 -1 -42.5 -12.5t-16.5 -26.5q0 -30 95 -36q112 -5 147 -10.5t60 -27.5q36 -31 36 -81q0 -75 -67 -119q-61 -41 -179 -41q-217 0 -217 116q0 87 109 111v2q-18 7 -28.5 13t-20.5 19t-10 31
q0 26 18.5 45.5t34.5 26t32 10.5v2q-48 18 -74 59.5t-26 95.5q0 32 10 62t31.5 57t60.5 43t90 16q47 0 87 -14zM252 440q-36 0 -60.5 -16t-34 -40.5t-12.5 -40.5t-3 -29q0 -39 11 -66t29.5 -40t36.5 -18.5t37 -5.5q45 0 75 31.5t30 93.5q0 65 -31 98t-78 33zM99 -90
q0 -25 17.5 -42t45.5 -24t48.5 -9.5t41.5 -2.5q88 0 125.5 26t37.5 60q0 21 -13.5 35.5t-38.5 21t-49.5 8.5t-58.5 2q-156 0 -156 -75z" />
    <glyph glyph-name="h" unicode="h" horiz-adv-x="533" 
d="M10 688l148 16v-296h2q46 76 145 76q36 0 63.5 -9t43.5 -26.5t26 -34t13.5 -40.5t4.5 -36t1 -31v-224q0 -26 5 -32t32 -6h19v-45h-195v45h16q30 0 35.5 7.5t5.5 45.5v202q0 22 -2 36.5t-9.5 36.5t-28 34t-52.5 12q-35 0 -60.5 -15t-37.5 -33.5t-18.5 -45.5t-7.5 -40
t-1 -28v-168q0 -30 5.5 -37t31.5 -7h19v-45h-192v45h20q25 0 31 8.5t6 39.5v507q0 32 -6.5 38t-37.5 6h-25v44z" />
    <glyph glyph-name="i" unicode="i" horiz-adv-x="250" 
d="M19 467l146 13v-390q0 -30 4.5 -37.5t28.5 -7.5h23v-45h-193v45h23q23 0 29.5 7.5t6.5 41.5v275q0 36 -6.5 44t-36.5 8h-25v46zM118 697q22 0 38 -15.5t16 -38.5t-15.5 -38.5t-38.5 -15.5q-22 0 -38 15.5t-16 38.5q0 22 16 38t38 16z" />
    <glyph glyph-name="j" unicode="j" horiz-adv-x="239" 
d="M22 467l149 13v-490q0 -32 -2.5 -57.5t-11 -56t-23.5 -50.5t-43.5 -34t-66.5 -14q-52 0 -90 15v95h53q0 -18 1.5 -29t12.5 -22.5t31 -11.5q37 0 47.5 31.5t10.5 117.5v406q0 24 -6.5 33t-29.5 9l-10 -1h-22v46zM125 696q23 0 38.5 -16t15.5 -38q0 -23 -16 -39t-38 -16
t-38 16t-16 39q0 22 16 38t38 16z" />
    <glyph glyph-name="k" unicode="k" horiz-adv-x="519" 
d="M10 689l148 15v-434l146 117q21 16 21 28q0 9 -8.5 11t-29.5 2v46h200v-46q-28 1 -42.5 -5.5t-41.5 -29.5l-160 -123l178 -180q28 -28 46.5 -36t41.5 -9v-45h-201v45q31 0 31 13q0 11 -21 32l-160 159v-159q0 -30 5 -37.5t30 -7.5h22v-45h-192v45h18q27 0 32.5 8.5
t5.5 42.5v509q0 30 -6.5 35.5t-34.5 5.5h-28v43z" />
    <glyph glyph-name="l" unicode="l" horiz-adv-x="244" 
d="M10 688l150 16v-611q0 -33 5.5 -40.5t34.5 -7.5h16v-45h-196v45h15q30 0 37.5 7t7.5 41v505q0 35 -9 41t-61 5v44z" />
    <glyph glyph-name="m" unicode="m" horiz-adv-x="833" 
d="M17 461l136 13q10 -30 10 -70h2q44 81 145 81q107 0 141 -91q51 88 153 88q44 0 75 -14.5t46 -32t23 -46t9 -43.5t1 -37v-218q0 -33 5 -39.5t32 -6.5h17v-45h-194v45h19q28 0 34.5 9.5t6.5 45.5v191q0 27 -2 43.5t-10 39t-28 34t-52 11.5q-40 0 -69.5 -20t-42.5 -50
t-13 -87v-171q0 -32 5.5 -39t33.5 -7h15v-45h-192v45q42 0 50 7.5t8 47.5v191q0 20 -0.5 32.5t-5.5 33t-14 32.5t-27.5 21.5t-44.5 9.5q-48 0 -77.5 -25.5t-38.5 -57t-9 -69.5v-177q0 -30 4.5 -38t29.5 -8h21v-45h-193v45h21q18 0 26.5 6.5t9.5 14.5t1 29v276q0 33 -7 40
t-39 7h-21v43z" />
    <glyph glyph-name="n" unicode="n" horiz-adv-x="542" 
d="M19 462l136 13q5 -17 6 -31l3 -38q9 14 17 23t26 24.5t45 23.5t61 8q43 0 73.5 -14.5t45 -32.5t22.5 -47t9 -44t1 -38v-226q0 -26 5 -32t32 -6h19v-45h-194v45h16q29 0 34.5 7.5t5.5 45.5v204q0 22 -2 37t-10 36.5t-28.5 33t-52.5 11.5q-33 0 -63.5 -16.5t-45.5 -49.5
q-16 -34 -16 -95v-169q0 -31 6 -38t32 -7h20v-45h-193v45h19q27 0 32.5 9t5.5 39v277q0 30 -4 39t-23 9q-23 0 -40 -1v45z" />
    <glyph glyph-name="o" unicode="o" horiz-adv-x="542" 
d="M278 485q103 0 162.5 -63.5t59.5 -178.5q0 -95 -47 -165q-63 -93 -189 -93q-61 0 -106.5 22t-69.5 59t-35 77t-11 85q0 106 59.5 181.5t176.5 75.5zM272 427q-72 0 -109.5 -55t-37.5 -139q0 -48 14 -89.5t48.5 -71t84.5 -29.5q80 0 119 74q25 48 25 121q0 58 -14.5 98
t-38.5 58.5t-45.5 25.5t-45.5 7z" />
    <glyph glyph-name="p" unicode="p" horiz-adv-x="542" 
d="M11 461l136 13q6 -37 6 -70h2q15 21 28 35t45.5 30t73.5 16q94 0 146 -68.5t52 -168.5q0 -46 -12 -90.5t-36 -84t-66 -64t-96 -24.5q-37 0 -66.5 12t-41 22t-28.5 29v-164q0 -35 5.5 -41.5t33.5 -6.5h26v-46h-201v46h18q29 0 34.5 7.5t5.5 43.5v482q0 33 -6 40.5t-34 7.5
h-25v44zM283 420q-61 0 -98.5 -51.5t-37.5 -133.5q0 -57 15 -97t39 -58t44.5 -25t40.5 -7q38 0 65 18.5t40 48.5t18.5 59t5.5 60q0 35 -6.5 66t-20.5 59t-41 44.5t-64 16.5z" />
    <glyph glyph-name="q" unicode="q" horiz-adv-x="531" 
d="M419 485h47v-596q0 -29 1 -36t8 -12q8 -5 49 -5v-46h-202v46h19q36 0 42.5 8t6.5 50v171h-2q-51 -80 -149 -80q-66 0 -112 38.5t-64.5 91t-18.5 112.5q0 104 54.5 181t154.5 77q82 0 137 -61zM259 422q-64 0 -97.5 -54.5t-33.5 -132.5q0 -86 36 -136.5t96 -50.5
q48 0 85 35q50 48 50 159q0 76 -32.5 128t-103.5 52z" />
    <glyph glyph-name="r" unicode="r" horiz-adv-x="362" 
d="M22 460l132 14q9 -52 9 -87h2q50 93 137 93q26 0 50 -12v-99h-55v14q0 32 -29 32q-36 0 -70 -53.5t-34 -151.5v-131q0 -22 8 -28t26 -6h28v-45h-195v45h15q27 0 34.5 9t7.5 36v283q0 28 -6.5 35.5t-32.5 7.5h-27v44z" />
    <glyph glyph-name="s" unicode="s" horiz-adv-x="420" 
d="M41 151h65v-38q0 -16 3 -27t11.5 -23.5t29 -19.5t52.5 -7q28 0 48 8t29.5 17.5t15 22.5t6 19t0.5 12q0 48 -81 86l-48 22q-31 14 -45 21.5t-37 24.5t-33 38t-10 49q0 52 41 91t123 39q81 0 145 -30v-124h-60v35q0 13 -2 21.5t-9 21.5t-27 20.5t-51 7.5q-44 0 -64.5 -20
t-20.5 -48q0 -31 23.5 -49t87.5 -46q37 -16 55.5 -25.5t44 -27.5t36.5 -41.5t11 -53.5q0 -19 -6.5 -39.5t-23.5 -45.5t-55.5 -41t-93.5 -16q-82 0 -160 31v135z" />
    <glyph glyph-name="t" unicode="t" horiz-adv-x="313" 
d="M113 603h47v-129h126v-58h-126v-287q0 -78 50 -78q29 0 84 29v-58q-62 -34 -109 -34q-30 0 -51.5 10t-32 22t-16 32t-6 31t-0.5 28v305h-60v41q28 10 47 26.5t28 40.5t12.5 38.5t6.5 40.5z" />
    <glyph glyph-name="u" unicode="u" horiz-adv-x="531" 
d="M8 470l149 10v-302q0 -20 0.5 -31.5t5 -30.5t13.5 -30t27 -19.5t43 -8.5q62 0 95.5 39.5t33.5 110.5v177q0 30 -10 35.5t-59 4.5v45l147 10v-376q0 -19 1 -26.5t6.5 -13.5t18.5 -6h40v-43l-135 -15q-9 37 -9 73h-2q-45 -85 -147 -85q-151 0 -151 172v225q0 30 -9.5 35.5
t-57.5 4.5v45z" />
    <glyph glyph-name="v" unicode="v" horiz-adv-x="510" 
d="M3 474h205v-46q-33 0 -43 -2.5t-10 -14.5q0 -6 6 -24l109 -280l105 277q5 12 5 24q0 13 -9 16t-42 4v46h178v-46q-33 0 -42 -8.5t-29 -57.5l-148 -371h-57l-154 382q-15 36 -27.5 44.5t-46.5 10.5v46z" />
    <glyph glyph-name="w" unicode="w" horiz-adv-x="740" 
d="M2 474h204v-46h-18q-35 0 -35 -20q0 -6 10 -38l80 -262h2l105 366h64l112 -366h2l76 266q6 23 6 30q0 24 -34 24h-17v46h178v-46q-33 0 -44.5 -9t-23.5 -49l-123 -379h-60l-113 361h-2l-107 -361h-58l-123 361q-18 51 -32.5 63.5t-48.5 12.5v46z" />
    <glyph glyph-name="x" unicode="x" horiz-adv-x="510" 
d="M26 474h201v-46h-21q-24 0 -24 -13q0 -9 19 -35l62 -87l72 92q18 23 18 30q0 13 -41 13v46h176v-46q-27 1 -44 -9t-41 -39l-108 -132l102 -140q25 -35 43.5 -48.5t53.5 -14.5v-45h-199v45h17q26 0 26 13q0 5 -19 32l-71 99l-83 -103q-17 -20 -17 -28q0 -13 26 -13h14v-45
h-172v45q18 1 27.5 3.5t25 13.5t33.5 34l113 139l-97 135q-27 37 -45 47t-47 11v46z" />
    <glyph glyph-name="y" unicode="y" horiz-adv-x="510" 
d="M3 474h205v-46h-24q-29 0 -29 -18q0 -11 7 -26l107 -284l97 260q12 36 12 48q0 20 -32 20h-18v46h179v-46q-32 0 -42 -7.5t-24 -43.5l-176 -450q-32 -82 -65 -115.5t-92 -33.5q-41 0 -81 18v94h56v-16q0 -42 34 -42q30 0 50 32q36 59 57 136l-141 360q-19 47 -32.5 57.5
t-47.5 10.5v46z" />
    <glyph glyph-name="z" unicode="z" horiz-adv-x="438" 
d="M34 474h371v-56l-286 -362h188q30 0 37 5.5t7 30.5v49h63v-141h-390v56l286 362h-175q-25 0 -31.5 -5t-6.5 -30v-41h-63v132z" />
    <glyph glyph-name="braceleft" unicode="{" 
d="M278 686h26v-73h-14q-48 0 -64 -17.5t-16 -79.5q0 -54 -0.5 -77.5t-3 -58.5t-8.5 -50.5t-17 -35.5t-27.5 -32t-41.5 -24q57 -24 77.5 -72.5t20.5 -137.5q0 -117 11 -141t69 -24h14v-73h-26q-25 0 -40 1.5t-38 11.5t-37 29q-22 29 -27 66.5t-5 120.5q0 32 -1 46.5
t-3.5 40.5t-8.5 38.5t-16.5 27t-27.5 21t-40 7.5v76q23 1 40 7t27.5 21t16.5 27.5t8.5 38t3.5 40t1 46.5q0 60 1 86t8.5 54t22.5 48q14 19 37 29t38 11.5t40 1.5z" />
    <glyph glyph-name="bar" unicode="|" horiz-adv-x="542" 
d="M232 686h78v-925h-78v925z" />
    <glyph glyph-name="braceright" unicode="}" 
d="M29 686h26q25 0 40 -1.5t38 -11.5t37 -29q22 -29 27 -66.5t5 -120.5q0 -32 1 -46.5t3.5 -40.5t8.5 -38.5t16.5 -27t27.5 -21t40 -7.5v-76q-23 -1 -40 -7t-27.5 -21t-16.5 -27.5t-8.5 -38t-3.5 -40t-1 -46.5q0 -60 -1 -86t-8.5 -54t-22.5 -48q-14 -19 -37 -29t-38 -11.5
t-40 -1.5h-26v73h14q48 0 64 17.5t16 79.5q0 54 0.5 77.5t3 58.5t8.5 50.5t17 35.5t27.5 32t41.5 24q-57 24 -77.5 72.5t-20.5 137.5q0 117 -11 141t-69 24h-14v73z" />
    <glyph glyph-name="asciitilde" unicode="~" horiz-adv-x="656" 
d="M62 284v82q76 63 148 63q45 0 142 -46q64 -32 100 -32q64 0 142 70v-83q-75 -64 -142 -64q-31 0 -61 10t-91 39q-61 30 -94 30q-66 0 -144 -69z" />
    <glyph glyph-name="uni00A0" unicode="&#xa0;" horiz-adv-x="260" 
 />
    <glyph glyph-name="exclamdown" unicode="&#xa1;" horiz-adv-x="240" 
d="M88 304h63l10 -461v-59h-82v59zM120 488q22 0 38 -16t16 -38t-16 -38t-38 -16t-38 16t-16 38t16 38t38 16z" />
    <glyph glyph-name="cent" unicode="&#xa2;" horiz-adv-x="479" 
d="M230 692h58v-115q77 -1 146 -39v-140h-67v43q0 42 -17 59t-62 22v-375q65 2 146 67v-74q-65 -53 -146 -61v-116h-58v116q-54 8 -92.5 35.5t-56.5 65.5t-25 72t-7 69q0 37 7 70.5t25 71.5t56 67t93 42v120zM230 155v359q-42 -14 -70 -60.5t-28 -121.5q0 -139 98 -177z" />
    <glyph glyph-name="sterling" unicode="&#xa3;" horiz-adv-x="490" 
d="M75 360h64q-35 80 -35 143q0 69 51 119t141 50q80 0 150 -35v-131h-60q0 26 -2.5 41t-11 34.5t-29 28.5t-53.5 9q-52 0 -80.5 -32t-28.5 -72q0 -46 37 -155h176v-61h-160q8 -32 8 -67q0 -43 -16.5 -78.5t-61.5 -75.5l2 -2q28 11 57 11q26 0 68 -13q59 -19 89 -19
q35 0 82 29v-66q-46 -30 -91 -30q-33 0 -97 19q-59 17 -89 17q-40 0 -147 -38v65q20 11 31.5 18t32 24.5t32.5 35.5t21.5 46.5t9.5 61.5q0 25 -8 62h-82v61z" />
    <glyph glyph-name="currency" unicode="&#xa4;" horiz-adv-x="688" 
d="M151 570l63 -63q64 42 130 42q63 0 130 -42l63 63l51 -52l-63 -63q42 -60 42 -130q0 -67 -42 -129l63 -62l-51 -52l-63 62q-63 -42 -129 -42q-69 0 -131 42l-62 -62l-52 52l62 62q-41 63 -41 130q0 66 41 130l-62 62zM194 326q0 -62 44 -106.5t106 -44.5t106 44.5
t44 106.5t-44 106t-106 44t-106 -44t-44 -106z" />
    <glyph glyph-name="yen" unicode="&#xa5;" horiz-adv-x="630" 
d="M7 659h219v-48h-19q-34 0 -34 -17q0 -7 16 -34l136 -228l138 218q20 32 20 43q0 12 -9 15t-28 3h-27v48h204v-48q-33 0 -45.5 -7.5t-31.5 -37.5l-127 -201h141v-54h-175l-30 -47v-48h205v-53h-205v-68q0 -31 7 -39t43 -8h19v-48h-221v48h23q32 0 39 9.5t7 37.5v68h-206
v53h206v44l-31 51h-175v54h142l-117 195q-19 31 -33 41t-37 10h-14v48z" />
    <glyph glyph-name="brokenbar" unicode="&#xa6;" horiz-adv-x="542" 
d="M232 163h78v-402h-78v402zM232 686h78v-402h-78v402z" />
    <glyph glyph-name="section" unicode="&#xa7;" horiz-adv-x="469" 
d="M381 673v-125h-61v23q0 83 -74 83q-35 0 -57 -19t-22 -49q0 -27 13.5 -50t30 -39t60.5 -54q55 -45 82.5 -71t53 -68t25.5 -84q0 -50 -34 -96.5t-103 -76.5q27 -25 41.5 -41t28.5 -44t14 -57q0 -49 -39 -87.5t-119 -38.5q-75 0 -134 26v124h62v-33q0 -36 7 -46
q22 -29 66 -29q43 0 61.5 22t18.5 48q0 34 -19.5 58t-95.5 92q-46 40 -67 60t-44 48t-31 53t-8 56q0 63 42.5 106t97.5 63q-31 31 -45.5 48t-27 42.5t-12.5 53.5q0 59 45 94.5t112 35.5q56 0 132 -28zM244 93l11 -10q99 49 99 127q0 44 -27.5 77.5t-101.5 94.5l-3 2
q-2 2 -4.5 4t-2.5 3q-100 -42 -100 -124q0 -31 19.5 -63t41.5 -52.5t68 -58.5z" />
    <glyph glyph-name="dieresis" unicode="&#xa8;" 
d="M73 630q18 0 31 -12.5t13 -31.5q0 -18 -13 -31t-31 -13t-31 12.5t-13 31.5t13 31.5t31 12.5zM260 630q18 0 31 -12.5t13 -31.5q0 -18 -13 -31t-31 -13t-31 12.5t-13 31.5t13 31.5t31 12.5z" />
    <glyph glyph-name="copyright" unicode="&#xa9;" horiz-adv-x="792" 
d="M567 451l-58 -14q-29 75 -111 75q-65 0 -96.5 -46t-31.5 -109q0 -74 34.5 -112.5t88.5 -38.5q13 0 27.5 3t34 12t36 29.5t23.5 49.5l60 -18q-16 -65 -65.5 -99.5t-111.5 -34.5q-86 0 -140 56.5t-54 154.5q0 96 52.5 151.5t144.5 55.5q60 0 105 -28.5t62 -86.5zM27 360
q0 153 108.5 260.5t260.5 107.5t260 -107.5t108 -260.5t-107.5 -261t-260.5 -108t-261 108t-108 261zM396 667q-127 0 -217 -89.5t-90 -217.5t90 -218t217 -90t217 90t90 218t-90 217.5t-217 89.5z" />
    <glyph glyph-name="ordfeminine" unicode="&#xaa;" horiz-adv-x="344" 
d="M60 608v63q50 33 113 33q70 0 97 -38q14 -18 14 -70v-117q0 -24 1.5 -29t9.5 -5q11 0 32 12v-37q-36 -17 -58 -17q-37 0 -45 36q-36 -36 -90 -36q-13 0 -26.5 2.5t-31.5 10.5t-29.5 26t-11.5 44q0 48 41 71t146 45q0 19 -2.5 31t-15.5 23.5t-38 11.5q-54 0 -54 -44v-16
h-52zM222 528v36q-72 -17 -98 -30.5t-26 -42.5q0 -22 14.5 -33.5t33.5 -11.5q39 0 57.5 22.5t18.5 59.5z" />
    <glyph glyph-name="guillemotleft" unicode="&#xab;" horiz-adv-x="469" 
d="M363 427h75l-120 -189l120 -193h-75l-129 193zM160 427h75l-120 -189l120 -193h-75l-129 193z" />
    <glyph glyph-name="logicalnot" unicode="&#xac;" horiz-adv-x="667" 
d="M66 481h535v-308h-77v231h-458v77z" />
    <glyph glyph-name="uni00AD" unicode="&#xad;" horiz-adv-x="323" 
d="M31 273h261v-77h-261v77z" />
    <glyph glyph-name="registered" unicode="&#xae;" horiz-adv-x="792" 
d="M234 552h137q98 0 131 -28q38 -31 38 -79q0 -39 -28.5 -73.5t-84.5 -37.5v-2q20 -7 39 -26t53 -73l48 -77h-78l-35 62q-37 66 -58.5 86t-59.5 20h-38v-168h-64v396zM298 498v-119h78q96 0 96 60q0 17 -7.5 29t-16.5 17.5t-25 8.5t-25.5 3.5t-26.5 0.5h-73zM27 360
q0 153 108.5 260.5t260.5 107.5t260 -107.5t108 -260.5t-107.5 -261t-260.5 -108t-261 108t-108 261zM396 667q-127 0 -217 -89.5t-90 -217.5t90 -218t217 -90t217 90t90 218t-90 217.5t-217 89.5z" />
    <glyph glyph-name="macron" unicode="&#xaf;" 
d="M19 596h295v-54h-295v54z" />
    <glyph glyph-name="degree" unicode="&#xb0;" horiz-adv-x="396" 
d="M198 620q-44 0 -74.5 -31t-30.5 -74t30.5 -74t74.5 -31t74.5 31t30.5 74t-30.5 74t-74.5 31zM198 672q65 0 111 -46t46 -111t-46 -111t-111 -46t-111 46t-46 111t46 111t111 46z" />
    <glyph glyph-name="plusminus" unicode="&#xb1;" horiz-adv-x="667" 
d="M294 677h77v-230h230v-77h-230v-228h-77v228h-228v77h228v230zM66 77h535v-77h-535v77z" />
    <glyph glyph-name="twosuperior" unicode="&#xb2;" horiz-adv-x="313" 
d="M38 597v65q53 43 118 43q56 0 85 -28.5t29 -64.5q0 -45 -37 -93.5t-123 -128.5h93q21 0 25.5 2.5t4.5 15.5v25h49v-93h-254v37q7 4 10 9q95 85 132.5 135t37.5 88q0 11 -4 22.5t-19 23t-40 11.5q-57 0 -57 -49v-20h-50z" />
    <glyph glyph-name="threesuperior" unicode="&#xb3;" horiz-adv-x="313" 
d="M45 603v69q58 33 107 33q62 0 90.5 -28t28.5 -63q0 -54 -64 -83v-2q35 -5 52.5 -26.5t17.5 -52.5q0 -50 -35 -83.5t-102 -33.5q-56 0 -107 27v75h51v-18q0 -11 1 -17t6 -13.5t18.5 -11t34.5 -3.5q32 0 51.5 19t19.5 50q0 18 -6 30.5t-13.5 19t-24 10.5t-27.5 5l-33 3v41
q27 1 44 3t36 16.5t19 41.5q0 22 -13.5 39.5t-47.5 17.5q-20 0 -32 -4.5t-17 -15.5t-6 -19.5t-1 -25.5h-48z" />
    <glyph glyph-name="acute" unicode="&#xb4;" 
d="M179 671h97l-107 -129h-55z" />
    <glyph glyph-name="uni00B5" unicode="&#xb5;" horiz-adv-x="538" 
d="M157 38v-229h-82v665h82v-274q0 -64 25 -100.5t72 -36.5q56 0 86.5 40t30.5 111v260h82v-366q0 -57 40 -57q21 0 39 9v-61q-28 -14 -65 -14q-40 0 -66.5 23.5t-29.5 64.5h-2q-25 -48 -54 -66.5t-70 -18.5q-59 0 -88 50z" />
    <glyph glyph-name="paragraph" unicode="&#xb6;" horiz-adv-x="594" 
d="M258 716h309v-80h-70v-835h-83v835h-109v-835h-80v510q-97 6 -147.5 62.5t-50.5 136.5q0 60 27.5 110t80.5 73t123 23z" />
    <glyph glyph-name="periodcentered" unicode="&#xb7;" horiz-adv-x="240" 
d="M120 398q22 0 38 -16t16 -38t-16 -38t-38 -16t-38 16t-16 38t16 38t38 16z" />
    <glyph glyph-name="cedilla" unicode="&#xb8;" 
d="M148 10h55l-16 -50q41 -2 60 -24.5t19 -47.5q0 -31 -26 -57t-88 -26q-40 0 -86 13v46q41 -12 78 -12q57 0 57 36q0 18 -16 26.5t-36 8.5q-13 0 -25 -1z" />
    <glyph glyph-name="onesuperior" unicode="&#xb9;" horiz-adv-x="313" 
d="M78 624v30q36 4 52.5 13.5t35.5 36.5h34v-297q0 -25 4 -30.5t27 -5.5h21v-31h-166v31h22q22 0 27 4.5t5 27.5v185q0 25 -2.5 31t-14.5 6h-19z" />
    <glyph glyph-name="ordmasculine" unicode="&#xba;" horiz-adv-x="375" 
d="M35 548q0 64 39.5 110t117.5 46q67 0 107.5 -39t40.5 -109q0 -58 -38 -106.5t-119 -48.5q-77 0 -112.5 43.5t-35.5 103.5zM188 663q-45 0 -66.5 -33t-21.5 -80q0 -43 21.5 -75.5t66.5 -32.5q38 0 62.5 27.5t24.5 84.5q0 46 -20.5 77.5t-66.5 31.5z" />
    <glyph glyph-name="guillemotright" unicode="&#xbb;" horiz-adv-x="469" 
d="M31 427h75l129 -193l-129 -189h-75l120 189zM234 427h75l129 -193l-129 -189h-75l120 189z" />
    <glyph glyph-name="onequarter" unicode="&#xbc;" horiz-adv-x="813" 
d="M605 704h59l-431 -722h-60zM88 624v30q36 4 52.5 13.5t35.5 36.5h34v-297q0 -25 4 -30.5t27 -5.5h21v-31h-166v31h22q22 0 27 4.5t5 27.5v185q0 25 -2.5 31t-14.5 6h-19zM666 364h52v-236h47v-39h-47v-36q0 -16 3 -19.5t20 -3.5h20v-30h-141v30h21q8 0 11.5 0.5t6.5 2
t4 5.5t1 11v40h-174v45zM662 289l-121 -158h123v158h-2z" />
    <glyph glyph-name="onehalf" unicode="&#xbd;" horiz-adv-x="813" 
d="M593 704h59l-431 -722h-60zM88 624v30q36 4 52.5 13.5t35.5 36.5h34v-297q0 -25 4 -30.5t27 -5.5h21v-31h-166v31h22q22 0 27 4.5t5 27.5v185q0 25 -2.5 31t-14.5 6h-19zM528 257v65q53 43 118 43q56 0 85 -28.5t29 -64.5q0 -45 -37 -93.5t-123 -128.5h93q21 0 25.5 2.5
t4.5 15.5v25h49v-93h-254v37q7 4 10 9q95 85 132.5 135t37.5 88q0 11 -4 22.5t-19 23t-40 11.5q-57 0 -57 -49v-20h-50z" />
    <glyph glyph-name="threequarters" unicode="&#xbe;" horiz-adv-x="813" 
d="M54 603v69q55 33 107 33q55 0 87.5 -26t32.5 -65q0 -56 -64 -84q69 -12 69 -80q0 -52 -36.5 -84.5t-99.5 -32.5q-64 0 -107 27v76h51v-19q0 -26 11.5 -35.5t47.5 -9.5q32 0 52 19.5t20 49.5q0 29 -18 47q-18 20 -87 21v41q100 0 100 61q0 56 -61 56q-56 0 -56 -51v-13
h-49zM593 704h60l-432 -722h-60zM666 364h52v-236h47v-39h-47v-36q0 -16 3 -19t20 -3h21v-31h-143v31h22q16 0 19.5 2.5t3.5 16.5v39h-174v45zM664 290l-123 -159h123v159z" />
    <glyph glyph-name="questiondown" unicode="&#xbf;" horiz-adv-x="427" 
d="M210 311h64q1 -110 -65 -200l-49 -63q-44 -61 -44 -119q0 -41 27.5 -72t82.5 -31q67 0 94 47q11 18 11 59v22h64v-126q-81 -59 -174 -59q-98 0 -142.5 49.5t-44.5 114.5q0 34 12.5 65t27 51.5t50.5 64.5q47 57 65 98t21 99zM241 488q22 0 38 -16t16 -38t-16 -38t-38 -16
q-23 0 -38.5 16t-15.5 38t15.5 38t38.5 16z" />
    <glyph glyph-name="Agrave" unicode="&#xc0;" horiz-adv-x="677" 
d="M298 695h82l204 -581q15 -44 27.5 -54.5t37.5 -10.5h19v-49h-225v49h26q14 0 21.5 1t13 6.5t5.5 15.5q0 9 -11 42l-37 106h-263l-39 -110q-9 -18 -9 -36q0 -25 41 -25h28v-49h-210v49h18q25 0 37.5 10.5t24.5 43.5zM328 591l-109 -311h220l-109 311h-2zM229 870h97
l65 -129h-55z" />
    <glyph glyph-name="Aacute" unicode="&#xc1;" horiz-adv-x="677" 
d="M298 695h82l204 -581q15 -44 27.5 -54.5t37.5 -10.5h19v-49h-225v49h26q14 0 21.5 1t13 6.5t5.5 15.5q0 9 -11 42l-37 106h-263l-39 -110q-9 -18 -9 -36q0 -25 41 -25h28v-49h-210v49h18q25 0 37.5 10.5t24.5 43.5zM328 591l-109 -311h220l-109 311h-2zM351 870h97
l-107 -129h-55z" />
    <glyph glyph-name="Acircumflex" unicode="&#xc2;" horiz-adv-x="677" 
d="M298 695h82l204 -581q15 -44 27.5 -54.5t37.5 -10.5h19v-49h-225v49h26q14 0 21.5 1t13 6.5t5.5 15.5q0 9 -11 42l-37 106h-263l-39 -110q-9 -18 -9 -36q0 -25 41 -25h28v-49h-210v49h18q25 0 37.5 10.5t24.5 43.5zM328 591l-109 -311h220l-109 311h-2zM299 870h80
l95 -129h-70l-67 88l-67 -88h-67z" />
    <glyph glyph-name="Atilde" unicode="&#xc3;" horiz-adv-x="677" 
d="M298 695h82l204 -581q15 -44 27.5 -54.5t37.5 -10.5h19v-49h-225v49h26q14 0 21.5 1t13 6.5t5.5 15.5q0 9 -11 42l-37 106h-263l-39 -110q-9 -18 -9 -36q0 -25 41 -25h28v-49h-210v49h18q25 0 37.5 10.5t24.5 43.5zM328 591l-109 -311h220l-109 311h-2zM244 741h-55
q8 94 92 94q29 0 62 -17q42 -22 56 -22q29 0 35 39h54q-1 -43 -25.5 -69t-57.5 -26q-29 0 -70 19l-33 15q-15 6 -24 6q-27 0 -34 -39z" />
    <glyph glyph-name="Adieresis" unicode="&#xc4;" horiz-adv-x="677" 
d="M298 695h82l204 -581q15 -44 27.5 -54.5t37.5 -10.5h19v-49h-225v49h26q14 0 21.5 1t13 6.5t5.5 15.5q0 9 -11 42l-37 106h-263l-39 -110q-9 -18 -9 -36q0 -25 41 -25h28v-49h-210v49h18q25 0 37.5 10.5t24.5 43.5zM328 591l-109 -311h220l-109 311h-2zM245 829
q18 0 31 -12.5t13 -31.5q0 -18 -13 -31t-31 -13t-31 12.5t-13 31.5t13 31.5t31 12.5zM432 829q18 0 31 -12.5t13 -31.5q0 -18 -13 -31t-31 -13t-31 12.5t-13 31.5t13 31.5t31 12.5z" />
    <glyph glyph-name="Aring" unicode="&#xc5;" horiz-adv-x="677" 
d="M298 695h82l204 -581q15 -44 27.5 -54.5t37.5 -10.5h19v-49h-225v49h26q14 0 21.5 1t13 6.5t5.5 15.5q0 9 -11 42l-37 106h-263l-39 -110q-9 -18 -9 -36q0 -25 41 -25h28v-49h-210v49h18q25 0 37.5 10.5t24.5 43.5zM328 591l-109 -311h220l-109 311h-2zM248 831
q0 37 26.5 63.5t64.5 26.5q37 0 63.5 -26.5t26.5 -63.5t-26.5 -63.5t-63.5 -26.5q-38 0 -64.5 26.5t-26.5 63.5zM338 885q-22 0 -38 -16t-16 -38q0 -23 16 -38.5t38 -15.5t38 15.5t16 38.5t-16 38.5t-38 15.5z" />
    <glyph glyph-name="AE" unicode="&#xc6;" horiz-adv-x="948" 
d="M312 686h583v-155h-63v50q0 25 -9 33.5t-43 8.5h-233v-241h176q28 0 37.5 6.5t9.5 35.5v25h56v-197h-56v28q0 28 -9 35t-38 7h-176v-262h246q33 0 42 8t9 34v49h64v-151h-515v49h24q32 0 40 9t8 35v127h-238l-66 -115q-15 -26 -15 -36q0 -9 5.5 -14t11 -5.5t17.5 -0.5h27
v-49h-208v49h14q26 0 38.5 7.5t28.5 36.5l280 488q14 22 14 35q0 20 -33 20h-29v50zM463 631l-202 -351h204v351h-2z" />
    <glyph glyph-name="Ccedilla" unicode="&#xc7;" horiz-adv-x="667" 
d="M615 648v-155h-72q-2 81 -12 98q-12 19 -54.5 34.5t-92.5 15.5q-111 0 -176 -80.5t-65 -215.5q0 -75 22 -133t58 -91t76.5 -49.5t83.5 -16.5q49 0 112.5 19t119.5 68v-84q-88 -68 -236 -76l-6 -21q77 -7 77 -71q0 -35 -27.5 -59.5t-79.5 -24.5q-48 0 -92 20v49
q53 -21 81 -21q20 0 36.5 8.5t16.5 27.5q0 13 -7 20.5t-18 10t-24.5 3.5t-27.5 0l17 61q-56 9 -101 32t-72.5 50.5t-48 65t-30 66.5t-15 63t-6 48t-0.5 28q0 99 37 180.5t115 133.5t184 52q131 0 227 -56z" />
    <glyph glyph-name="Egrave" unicode="&#xc8;" horiz-adv-x="604" 
d="M48 686h502v-154h-64v50q0 29 -10 34.5t-52 7.5h-223v-241h176q31 0 39 8.5t8 35.5v23h57v-197h-57v31q0 26 -10.5 32.5t-41.5 6.5h-171v-262h253q30 0 37 9.5t7 38.5v43h63v-152h-513v49h24q30 0 36.5 9.5t6.5 38.5v496q0 25 -7.5 34t-35.5 9h-24v50zM193 870h97
l65 -129h-55z" />
    <glyph glyph-name="Eacute" unicode="&#xc9;" horiz-adv-x="604" 
d="M48 686h502v-154h-64v50q0 29 -10 34.5t-52 7.5h-223v-241h176q31 0 39 8.5t8 35.5v23h57v-197h-57v31q0 26 -10.5 32.5t-41.5 6.5h-171v-262h253q30 0 37 9.5t7 38.5v43h63v-152h-513v49h24q30 0 36.5 9.5t6.5 38.5v496q0 25 -7.5 34t-35.5 9h-24v50zM315 870h97
l-107 -129h-55z" />
    <glyph glyph-name="Ecircumflex" unicode="&#xca;" horiz-adv-x="604" 
d="M48 686h502v-154h-64v50q0 29 -10 34.5t-52 7.5h-223v-241h176q31 0 39 8.5t8 35.5v23h57v-197h-57v31q0 26 -10.5 32.5t-41.5 6.5h-171v-262h253q30 0 37 9.5t7 38.5v43h63v-152h-513v49h24q30 0 36.5 9.5t6.5 38.5v496q0 25 -7.5 34t-35.5 9h-24v50zM263 870h80
l95 -129h-70l-67 88l-67 -88h-67z" />
    <glyph glyph-name="Edieresis" unicode="&#xcb;" horiz-adv-x="604" 
d="M48 686h502v-154h-64v50q0 29 -10 34.5t-52 7.5h-223v-241h176q31 0 39 8.5t8 35.5v23h57v-197h-57v31q0 26 -10.5 32.5t-41.5 6.5h-171v-262h253q30 0 37 9.5t7 38.5v43h63v-152h-513v49h24q30 0 36.5 9.5t6.5 38.5v496q0 25 -7.5 34t-35.5 9h-24v50zM209 829
q18 0 31 -12.5t13 -31.5q0 -18 -13 -31t-31 -13t-31 12.5t-13 31.5t13 31.5t31 12.5zM396 829q18 0 31 -12.5t13 -31.5q0 -18 -13 -31t-31 -13t-31 12.5t-13 31.5t13 31.5t31 12.5z" />
    <glyph glyph-name="Igrave" unicode="&#xcc;" 
d="M56 686h221v-51h-17q-36 0 -43 -9.5t-7 -47.5v-470q0 -40 7 -49.5t43 -9.5h17v-49h-221v49h20q34 0 40.5 9t6.5 45v483q0 31 -7 40t-40 9h-20v51zM57 870h97l65 -129h-55z" />
    <glyph glyph-name="Iacute" unicode="&#xcd;" 
d="M56 686h221v-51h-17q-36 0 -43 -9.5t-7 -47.5v-470q0 -40 7 -49.5t43 -9.5h17v-49h-221v49h20q34 0 40.5 9t6.5 45v483q0 31 -7 40t-40 9h-20v51zM179 870h97l-107 -129h-55z" />
    <glyph glyph-name="Icircumflex" unicode="&#xce;" 
d="M56 686h221v-51h-17q-36 0 -43 -9.5t-7 -47.5v-470q0 -40 7 -49.5t43 -9.5h17v-49h-221v49h20q34 0 40.5 9t6.5 45v483q0 31 -7 40t-40 9h-20v51zM127 870h80l95 -129h-70l-67 88l-67 -88h-67z" />
    <glyph glyph-name="Idieresis" unicode="&#xcf;" 
d="M56 686h221v-51h-17q-36 0 -43 -9.5t-7 -47.5v-470q0 -40 7 -49.5t43 -9.5h17v-49h-221v49h20q34 0 40.5 9t6.5 45v483q0 31 -7 40t-40 9h-20v51zM73 829q18 0 31 -12.5t13 -31.5q0 -18 -13 -31t-31 -13t-31 12.5t-13 31.5t13 31.5t31 12.5zM260 829q18 0 31 -12.5
t13 -31.5q0 -18 -13 -31t-31 -13t-31 12.5t-13 31.5t13 31.5t31 12.5z" />
    <glyph glyph-name="Eth" unicode="&#xd0;" horiz-adv-x="729" 
d="M45 686h293q123 0 190 -36q68 -36 109.5 -113t41.5 -190q0 -120 -44.5 -196t-103.5 -112q-66 -39 -170 -39h-316v49h23q31 0 37.5 9.5t6.5 44.5v207h-66v63h66v214q0 30 -6.5 39.5t-37.5 9.5h-23v50zM198 623v-250h184v-63h-184v-250h139q92 2 133 26q116 67 116 257
q0 58 -11.5 103.5t-28 74.5t-43 49.5t-48 30.5t-52 15.5t-45 6t-37.5 0.5h-123z" />
    <glyph glyph-name="Ntilde" unicode="&#xd1;" horiz-adv-x="719" 
d="M45 686h197l310 -556h2v455q0 32 -7.5 41.5t-43.5 9.5h-17v50h204v-50h-22q-32 0 -39 -9.5t-7 -41.5v-594h-89l-350 628h-2v-519q0 -32 7 -41.5t40 -9.5h20v-49h-203v49h24q30 0 36.5 10.5t6.5 45.5v487q0 14 -1 20.5t-5 13.5t-13.5 8.5t-26.5 1.5h-21v50zM265 741h-55
q8 94 92 94q29 0 62 -17q42 -22 56 -22q29 0 35 39h54q-1 -43 -25.5 -69t-57.5 -26q-29 0 -70 19l-33 15q-15 6 -24 6q-27 0 -34 -39z" />
    <glyph glyph-name="Ograve" unicode="&#xd2;" horiz-adv-x="760" 
d="M382 704q81 0 144.5 -29t103 -79.5t59.5 -114t20 -135.5q0 -162 -92.5 -263t-240.5 -101q-143 0 -234 96t-91 257q0 169 91.5 269t239.5 100zM381 638q-69 0 -118.5 -28t-73.5 -74.5t-34.5 -94t-10.5 -99.5q0 -60 13 -111t39.5 -93t74 -66t110.5 -24q109 0 171.5 80
t62.5 225q0 144 -66 214.5t-168 70.5zM271 870h97l65 -129h-55z" />
    <glyph glyph-name="Oacute" unicode="&#xd3;" horiz-adv-x="760" 
d="M382 704q81 0 144.5 -29t103 -79.5t59.5 -114t20 -135.5q0 -162 -92.5 -263t-240.5 -101q-143 0 -234 96t-91 257q0 169 91.5 269t239.5 100zM381 638q-69 0 -118.5 -28t-73.5 -74.5t-34.5 -94t-10.5 -99.5q0 -60 13 -111t39.5 -93t74 -66t110.5 -24q109 0 171.5 80
t62.5 225q0 144 -66 214.5t-168 70.5zM393 870h97l-107 -129h-55z" />
    <glyph glyph-name="Ocircumflex" unicode="&#xd4;" horiz-adv-x="760" 
d="M382 704q81 0 144.5 -29t103 -79.5t59.5 -114t20 -135.5q0 -162 -92.5 -263t-240.5 -101q-143 0 -234 96t-91 257q0 169 91.5 269t239.5 100zM381 638q-69 0 -118.5 -28t-73.5 -74.5t-34.5 -94t-10.5 -99.5q0 -60 13 -111t39.5 -93t74 -66t110.5 -24q109 0 171.5 80
t62.5 225q0 144 -66 214.5t-168 70.5zM341 870h80l95 -129h-70l-67 88l-67 -88h-67z" />
    <glyph glyph-name="Otilde" unicode="&#xd5;" horiz-adv-x="760" 
d="M382 704q81 0 144.5 -29t103 -79.5t59.5 -114t20 -135.5q0 -162 -92.5 -263t-240.5 -101q-143 0 -234 96t-91 257q0 169 91.5 269t239.5 100zM381 638q-69 0 -118.5 -28t-73.5 -74.5t-34.5 -94t-10.5 -99.5q0 -60 13 -111t39.5 -93t74 -66t110.5 -24q109 0 171.5 80
t62.5 225q0 144 -66 214.5t-168 70.5zM286 741h-55q8 94 92 94q29 0 62 -17q42 -22 56 -22q29 0 35 39h54q-1 -43 -25.5 -69t-57.5 -26q-29 0 -70 19l-33 15q-15 6 -24 6q-27 0 -34 -39z" />
    <glyph glyph-name="Odieresis" unicode="&#xd6;" horiz-adv-x="760" 
d="M382 704q81 0 144.5 -29t103 -79.5t59.5 -114t20 -135.5q0 -162 -92.5 -263t-240.5 -101q-143 0 -234 96t-91 257q0 169 91.5 269t239.5 100zM381 638q-69 0 -118.5 -28t-73.5 -74.5t-34.5 -94t-10.5 -99.5q0 -60 13 -111t39.5 -93t74 -66t110.5 -24q109 0 171.5 80
t62.5 225q0 144 -66 214.5t-168 70.5zM287 829q18 0 31 -12.5t13 -31.5q0 -18 -13 -31t-31 -13t-31 12.5t-13 31.5t13 31.5t31 12.5zM474 829q18 0 31 -12.5t13 -31.5q0 -18 -13 -31t-31 -13t-31 12.5t-13 31.5t13 31.5t31 12.5z" />
    <glyph glyph-name="multiply" unicode="&#xd7;" horiz-adv-x="667" 
d="M86 519l54 54l194 -194l194 194l54 -54l-194 -194l193 -193l-54 -54l-193 193l-193 -193l-54 54l193 193z" />
    <glyph glyph-name="Oslash" unicode="&#xd8;" horiz-adv-x="760" 
d="M680 714l46 -43l-84 -92q68 -103 67 -232q1 -165 -92 -265t-240 -100q-121 0 -214 76l-80 -87l-47 42l84 91q-69 96 -69 236q0 160 90 262t239 102q133 0 220 -77zM584 516l-369 -401q70 -67 167 -67q114 3 173 85t60 219q-3 97 -31 164zM178 168l369 402
q-18 18 -33 29.5t-52 25t-81 13.5q-113 0 -174.5 -78.5t-61.5 -213.5q0 -116 33 -178z" />
    <glyph glyph-name="Ugrave" unicode="&#xd9;" horiz-adv-x="719" 
d="M30 686h224v-50h-24q-31 0 -37.5 -10t-6.5 -46v-334q0 -28 2 -48.5t12 -51t28 -50.5t53.5 -34.5t85.5 -14.5q51 0 87.5 15.5t54 35t27 50t11 47.5t1.5 41v344q0 36 -6.5 46t-38.5 10h-22v50h208v-50h-25q-16 0 -24.5 -2t-12 -10t-4 -14t-0.5 -23v-346q0 -259 -259 -259
q-266 0 -266 254v351q0 21 -2 29.5t-13 14t-35 5.5h-18v50zM250 870h97l65 -129h-55z" />
    <glyph glyph-name="Uacute" unicode="&#xda;" horiz-adv-x="719" 
d="M30 686h224v-50h-24q-31 0 -37.5 -10t-6.5 -46v-334q0 -28 2 -48.5t12 -51t28 -50.5t53.5 -34.5t85.5 -14.5q51 0 87.5 15.5t54 35t27 50t11 47.5t1.5 41v344q0 36 -6.5 46t-38.5 10h-22v50h208v-50h-25q-16 0 -24.5 -2t-12 -10t-4 -14t-0.5 -23v-346q0 -259 -259 -259
q-266 0 -266 254v351q0 21 -2 29.5t-13 14t-35 5.5h-18v50zM372 870h97l-107 -129h-55z" />
    <glyph glyph-name="Ucircumflex" unicode="&#xdb;" horiz-adv-x="719" 
d="M30 686h224v-50h-24q-31 0 -37.5 -10t-6.5 -46v-334q0 -28 2 -48.5t12 -51t28 -50.5t53.5 -34.5t85.5 -14.5q51 0 87.5 15.5t54 35t27 50t11 47.5t1.5 41v344q0 36 -6.5 46t-38.5 10h-22v50h208v-50h-25q-16 0 -24.5 -2t-12 -10t-4 -14t-0.5 -23v-346q0 -259 -259 -259
q-266 0 -266 254v351q0 21 -2 29.5t-13 14t-35 5.5h-18v50zM320 870h80l95 -129h-70l-67 88l-67 -88h-67z" />
    <glyph glyph-name="Udieresis" unicode="&#xdc;" horiz-adv-x="719" 
d="M30 686h224v-50h-24q-31 0 -37.5 -10t-6.5 -46v-334q0 -28 2 -48.5t12 -51t28 -50.5t53.5 -34.5t85.5 -14.5q51 0 87.5 15.5t54 35t27 50t11 47.5t1.5 41v344q0 36 -6.5 46t-38.5 10h-22v50h208v-50h-25q-16 0 -24.5 -2t-12 -10t-4 -14t-0.5 -23v-346q0 -259 -259 -259
q-266 0 -266 254v351q0 21 -2 29.5t-13 14t-35 5.5h-18v50zM266 829q18 0 31 -12.5t13 -31.5q0 -18 -13 -31t-31 -13t-31 12.5t-13 31.5t13 31.5t31 12.5zM453 829q18 0 31 -12.5t13 -31.5q0 -18 -13 -31t-31 -13t-31 12.5t-13 31.5t13 31.5t31 12.5z" />
    <glyph glyph-name="Yacute" unicode="&#xdd;" horiz-adv-x="656" 
d="M7 686h229v-50h-20q-36 0 -36 -18q0 -7 17 -35l141 -238l144 228q21 33 21 44q0 13 -9.5 16t-29.5 3h-28v50h213v-50q-19 0 -28 -1t-21.5 -8.5t-22.5 -23.5q-4 -4 -9 -14l-199 -314v-176q0 -33 7.5 -41.5t45.5 -8.5h19v-49h-229v49h24q33 0 40 10t7 40v171l-189 313
q-19 32 -33.5 42.5t-38.5 10.5h-15v50zM341 870h97l-107 -129h-55z" />
    <glyph glyph-name="Thorn" unicode="&#xde;" horiz-adv-x="594" 
d="M43 686h222v-50h-26q-28 0 -35.5 -8t-7.5 -29v-70h135q15 0 26 -0.5t35 -4t42 -10t40.5 -20t37.5 -32.5t25 -49.5t10 -68.5q0 -39 -10.5 -70.5t-26 -51t-38.5 -33.5t-42 -21t-43.5 -10.5t-35.5 -4t-26 -0.5h-129v-59q0 -13 0.5 -19.5t6 -14t15.5 -8.5q2 0 11 -1.5
t10 -1.5h33v-49h-229v49h28q27 2 33.5 10t6.5 32v503q0 3 -1 12t-1.5 11t-2.5 7.5t-6 6.5t-11 3t-18 2h-28v50zM196 470v-259h97q168 0 168 129q0 88 -71 118q-27 12 -97 12h-97z" />
    <glyph glyph-name="germandbls" unicode="&#xdf;" horiz-adv-x="542" 
d="M157 481v-481h-143v45h23q27 0 33.5 9t6.5 39v391q0 20 0.5 33t4.5 38.5t11 43t21.5 39t35 34.5t53.5 22.5t74 9.5q95 0 142 -48t47 -120q0 -111 -104 -153v-2q136 -24 136 -173q0 -96 -50 -155.5t-138 -59.5q-51 0 -93 20v95h53q0 -17 1.5 -27t13 -20.5t32.5 -10.5
q51 0 75 44.5t24 103.5q0 42 -13 71.5t-29 44t-42.5 22t-41 8.5t-38.5 1v66q18 1 28.5 1.5t33 7.5t36 18.5t25 35.5t11.5 58t-11.5 58t-30 35.5t-36 16.5t-35.5 5q-33 0 -56.5 -13t-34.5 -29.5t-17 -43.5t-7 -42t-1 -38z" />
    <glyph glyph-name="agrave" unicode="&#xe0;" horiz-adv-x="490" 
d="M79 336v100q73 52 167 52q105 0 146 -64q18 -30 18 -115v-196q0 -37 6 -50.5t19 -13.5q19 0 43 14v-49q-3 -3 -6 -3q-46 -23 -78 -23q-19 0 -31.5 7.5t-19 23t-8 22.5t-3.5 22q-18 -22 -30.5 -34t-44 -26.5t-70.5 -14.5q-22 0 -44 5t-47 18.5t-40.5 42t-15.5 69.5
q0 26 7.5 47.5t17 37t32.5 30t40.5 23t56 20t62.5 17.5l76 19q0 20 -0.5 32t-5.5 31t-14.5 29.5t-28 19t-45.5 8.5q-96 0 -96 -80v-21h-63zM332 265l-8 -2q-46 -13 -64 -18t-49 -15.5t-42 -18t-25.5 -20t-19 -26.5t-4.5 -33q0 -39 25 -60.5t59 -21.5q56 0 97 39
q31 31 31 106v70zM136 671h97l65 -129h-55z" />
    <glyph glyph-name="aacute" unicode="&#xe1;" horiz-adv-x="490" 
d="M79 336v100q73 52 167 52q105 0 146 -64q18 -30 18 -115v-196q0 -37 6 -50.5t19 -13.5q19 0 43 14v-49q-3 -3 -6 -3q-46 -23 -78 -23q-19 0 -31.5 7.5t-19 23t-8 22.5t-3.5 22q-18 -22 -30.5 -34t-44 -26.5t-70.5 -14.5q-22 0 -44 5t-47 18.5t-40.5 42t-15.5 69.5
q0 26 7.5 47.5t17 37t32.5 30t40.5 23t56 20t62.5 17.5l76 19q0 20 -0.5 32t-5.5 31t-14.5 29.5t-28 19t-45.5 8.5q-96 0 -96 -80v-21h-63zM332 265l-8 -2q-46 -13 -64 -18t-49 -15.5t-42 -18t-25.5 -20t-19 -26.5t-4.5 -33q0 -39 25 -60.5t59 -21.5q56 0 97 39
q31 31 31 106v70zM258 671h97l-107 -129h-55z" />
    <glyph glyph-name="acircumflex" unicode="&#xe2;" horiz-adv-x="490" 
d="M79 336v100q73 52 167 52q105 0 146 -64q18 -30 18 -115v-196q0 -37 6 -50.5t19 -13.5q19 0 43 14v-49q-3 -3 -6 -3q-46 -23 -78 -23q-19 0 -31.5 7.5t-19 23t-8 22.5t-3.5 22q-18 -22 -30.5 -34t-44 -26.5t-70.5 -14.5q-22 0 -44 5t-47 18.5t-40.5 42t-15.5 69.5
q0 26 7.5 47.5t17 37t32.5 30t40.5 23t56 20t62.5 17.5l76 19q0 20 -0.5 32t-5.5 31t-14.5 29.5t-28 19t-45.5 8.5q-96 0 -96 -80v-21h-63zM332 265l-8 -2q-46 -13 -64 -18t-49 -15.5t-42 -18t-25.5 -20t-19 -26.5t-4.5 -33q0 -39 25 -60.5t59 -21.5q56 0 97 39
q31 31 31 106v70zM206 671h80l95 -129h-70l-67 88l-67 -88h-67z" />
    <glyph glyph-name="atilde" unicode="&#xe3;" horiz-adv-x="490" 
d="M79 336v100q73 52 167 52q105 0 146 -64q18 -30 18 -115v-196q0 -37 6 -50.5t19 -13.5q19 0 43 14v-49q-3 -3 -6 -3q-46 -23 -78 -23q-19 0 -31.5 7.5t-19 23t-8 22.5t-3.5 22q-18 -22 -30.5 -34t-44 -26.5t-70.5 -14.5q-22 0 -44 5t-47 18.5t-40.5 42t-15.5 69.5
q0 26 7.5 47.5t17 37t32.5 30t40.5 23t56 20t62.5 17.5l76 19q0 20 -0.5 32t-5.5 31t-14.5 29.5t-28 19t-45.5 8.5q-96 0 -96 -80v-21h-63zM332 265l-8 -2q-46 -13 -64 -18t-49 -15.5t-42 -18t-25.5 -20t-19 -26.5t-4.5 -33q0 -39 25 -60.5t59 -21.5q56 0 97 39
q31 31 31 106v70zM151 542h-55q8 94 92 94q29 0 62 -17q42 -22 56 -22q29 0 35 39h54q-1 -43 -25.5 -69t-57.5 -26q-29 0 -70 19l-33 15q-15 6 -24 6q-27 0 -34 -39z" />
    <glyph glyph-name="adieresis" unicode="&#xe4;" horiz-adv-x="490" 
d="M79 336v100q73 52 167 52q105 0 146 -64q18 -30 18 -115v-196q0 -37 6 -50.5t19 -13.5q19 0 43 14v-49q-3 -3 -6 -3q-46 -23 -78 -23q-19 0 -31.5 7.5t-19 23t-8 22.5t-3.5 22q-18 -22 -30.5 -34t-44 -26.5t-70.5 -14.5q-22 0 -44 5t-47 18.5t-40.5 42t-15.5 69.5
q0 26 7.5 47.5t17 37t32.5 30t40.5 23t56 20t62.5 17.5l76 19q0 20 -0.5 32t-5.5 31t-14.5 29.5t-28 19t-45.5 8.5q-96 0 -96 -80v-21h-63zM332 265l-8 -2q-46 -13 -64 -18t-49 -15.5t-42 -18t-25.5 -20t-19 -26.5t-4.5 -33q0 -39 25 -60.5t59 -21.5q56 0 97 39
q31 31 31 106v70zM152 630q18 0 31 -12.5t13 -31.5q0 -18 -13 -31t-31 -13t-31 12.5t-13 31.5t13 31.5t31 12.5zM339 630q18 0 31 -12.5t13 -31.5q0 -18 -13 -31t-31 -13t-31 12.5t-13 31.5t13 31.5t31 12.5z" />
    <glyph glyph-name="aring" unicode="&#xe5;" horiz-adv-x="490" 
d="M79 336v100q73 52 167 52q105 0 146 -64q18 -30 18 -115v-196q0 -37 6 -50.5t19 -13.5q19 0 43 14v-49q-3 -3 -6 -3q-46 -23 -78 -23q-19 0 -31.5 7.5t-19 23t-8 22.5t-3.5 22q-18 -22 -30.5 -34t-44 -26.5t-70.5 -14.5q-22 0 -44 5t-47 18.5t-40.5 42t-15.5 69.5
q0 26 7.5 47.5t17 37t32.5 30t40.5 23t56 20t62.5 17.5l76 19q0 20 -0.5 32t-5.5 31t-14.5 29.5t-28 19t-45.5 8.5q-96 0 -96 -80v-21h-63zM332 265l-8 -2q-46 -13 -64 -18t-49 -15.5t-42 -18t-25.5 -20t-19 -26.5t-4.5 -33q0 -39 25 -60.5t59 -21.5q56 0 97 39
q31 31 31 106v70zM155 632q0 37 26.5 63.5t64.5 26.5q37 0 63.5 -26.5t26.5 -63.5t-26.5 -63.5t-63.5 -26.5q-38 0 -64.5 26.5t-26.5 63.5zM245 686q-22 0 -38 -16t-16 -38t15.5 -38t38.5 -16t38.5 16t15.5 38t-15.5 38t-38.5 16z" />
    <glyph glyph-name="ae" unicode="&#xe6;" horiz-adv-x="773" 
d="M77 336v101q73 51 170 51q109 0 138 -68q54 68 147 68q195 0 195 -244h-326q0 -52 13 -90.5t30 -57.5t40 -29.5t36 -12.5t26 -2q80 0 171 75v-72q-84 -70 -183 -70q-115 0 -173 95q-30 -47 -64 -68q-41 -27 -102 -27q-77 0 -117.5 34.5t-40.5 98.5q0 35 12 62.5t28 44
t45.5 30.5t49.5 20t56 15l102 26q0 24 -2 39.5t-10 37.5t-28.5 33.5t-53.5 11.5q-11 0 -21.5 -1.5t-30.5 -7.5t-32.5 -23.5t-12.5 -43.5v-26h-62zM406 299h239q-2 36 -13 63t-23.5 40t-30 20.5t-28 9t-20.5 1.5q-102 0 -124 -134zM330 264l-84 -20q-129 -32 -129 -114
q0 -40 24.5 -62.5t63.5 -22.5q35 0 60.5 13.5t37.5 30t18.5 41t7.5 36.5t1 26v72z" />
    <glyph glyph-name="ccedilla" unicode="&#xe7;" horiz-adv-x="479" 
d="M432 445v-139h-67v43q0 36 -17.5 58.5t-71.5 22.5q-66 0 -106 -50t-40 -140q0 -50 13 -87t30 -55t40 -28.5t35.5 -12.5t24.5 -2q75 0 159 66v-73q-72 -57 -155 -62l-7 -25q44 -4 61 -24.5t17 -46.5q0 -35 -28 -59.5t-80 -24.5q-48 0 -92 20v49q53 -21 82 -21q20 0 36 8.5
t16 27.5q0 13 -7 20.5t-18 10t-25 3.5t-27 0l19 64q-51 8 -88 34.5t-55 63.5t-26 72t-8 71q0 128 70 192t163 64q79 0 152 -40z" />
    <glyph glyph-name="egrave" unicode="&#xe8;" horiz-adv-x="499" 
d="M454 244h-327q1 -88 38 -139.5t112 -51.5q82 0 166 75v-73q-78 -70 -181 -70q-108 0 -163.5 70.5t-55.5 173.5q0 116 60 187.5t159 71.5q107 0 157 -80q35 -56 35 -164zM132 299h240q-4 61 -32 98t-83 37q-9 0 -17.5 -1t-27 -8t-32.5 -20t-28 -40.5t-20 -65.5zM136 671
h97l65 -129h-55z" />
    <glyph glyph-name="eacute" unicode="&#xe9;" horiz-adv-x="499" 
d="M454 244h-327q1 -88 38 -139.5t112 -51.5q82 0 166 75v-73q-78 -70 -181 -70q-108 0 -163.5 70.5t-55.5 173.5q0 116 60 187.5t159 71.5q107 0 157 -80q35 -56 35 -164zM132 299h240q-4 61 -32 98t-83 37q-9 0 -17.5 -1t-27 -8t-32.5 -20t-28 -40.5t-20 -65.5zM258 671
h97l-107 -129h-55z" />
    <glyph glyph-name="ecircumflex" unicode="&#xea;" horiz-adv-x="499" 
d="M454 244h-327q1 -88 38 -139.5t112 -51.5q82 0 166 75v-73q-78 -70 -181 -70q-108 0 -163.5 70.5t-55.5 173.5q0 116 60 187.5t159 71.5q107 0 157 -80q35 -56 35 -164zM132 299h240q-4 61 -32 98t-83 37q-9 0 -17.5 -1t-27 -8t-32.5 -20t-28 -40.5t-20 -65.5zM206 671
h80l95 -129h-70l-67 88l-67 -88h-67z" />
    <glyph glyph-name="edieresis" unicode="&#xeb;" horiz-adv-x="499" 
d="M454 244h-327q1 -88 38 -139.5t112 -51.5q82 0 166 75v-73q-78 -70 -181 -70q-108 0 -163.5 70.5t-55.5 173.5q0 116 60 187.5t159 71.5q107 0 157 -80q35 -56 35 -164zM132 299h240q-4 61 -32 98t-83 37q-9 0 -17.5 -1t-27 -8t-32.5 -20t-28 -40.5t-20 -65.5zM152 630
q18 0 31 -12.5t13 -31.5q0 -18 -13 -31t-31 -13t-31 12.5t-13 31.5t13 31.5t31 12.5zM339 630q18 0 31 -12.5t13 -31.5q0 -18 -13 -31t-31 -13t-31 12.5t-13 31.5t13 31.5t31 12.5z" />
    <glyph glyph-name="igrave" unicode="&#xec;" horiz-adv-x="250" 
d="M19 467l146 13v-390q0 -30 4.5 -37.5t28.5 -7.5h23v-45h-193v45h23q23 0 29.5 7.5t6.5 41.5v275q0 36 -6.5 44t-36.5 8h-25v46zM16 671h97l65 -129h-55z" />
    <glyph glyph-name="iacute" unicode="&#xed;" horiz-adv-x="250" 
d="M19 467l146 13v-390q0 -30 4.5 -37.5t28.5 -7.5h23v-45h-193v45h23q23 0 29.5 7.5t6.5 41.5v275q0 36 -6.5 44t-36.5 8h-25v46zM138 671h97l-107 -129h-55z" />
    <glyph glyph-name="icircumflex" unicode="&#xee;" horiz-adv-x="250" 
d="M19 467l146 13v-390q0 -30 4.5 -37.5t28.5 -7.5h23v-45h-193v45h23q23 0 29.5 7.5t6.5 41.5v275q0 36 -6.5 44t-36.5 8h-25v46zM86 671h80l95 -129h-70l-67 88l-67 -88h-67z" />
    <glyph glyph-name="idieresis" unicode="&#xef;" horiz-adv-x="250" 
d="M19 467l146 13v-390q0 -30 4.5 -37.5t28.5 -7.5h23v-45h-193v45h23q23 0 29.5 7.5t6.5 41.5v275q0 36 -6.5 44t-36.5 8h-25v46zM32 630q18 0 31 -12.5t13 -31.5q0 -18 -13 -31t-31 -13t-31 12.5t-13 31.5t13 31.5t31 12.5zM219 630q18 0 31 -12.5t13 -31.5q0 -18 -13 -31
t-31 -13t-31 12.5t-13 31.5t13 31.5t31 12.5z" />
    <glyph glyph-name="eth" unicode="&#xf0;" horiz-adv-x="547" 
d="M143 654l30 50q50 -25 103 -64l111 62l23 -45l-91 -50q76 -60 130.5 -153t54.5 -204q0 -115 -62 -190.5t-180 -75.5q-108 0 -163.5 69t-55.5 168q0 111 59.5 180t158.5 69q49 0 99 -22l2 2q-49 77 -102 124l-118 -65l-23 44l99 55q-41 30 -75 46zM273 414q-68 0 -107 -52
t-39 -141q0 -88 43 -134t103 -46q67 0 106 52t39 137q0 25 -4 48.5t-16.5 58t-44.5 56t-80 21.5z" />
    <glyph glyph-name="ntilde" unicode="&#xf1;" horiz-adv-x="542" 
d="M19 462l136 13q5 -17 6 -31l3 -38q9 14 17 23t26 24.5t45 23.5t61 8q43 0 73.5 -14.5t45 -32.5t22.5 -47t9 -44t1 -38v-226q0 -26 5 -32t32 -6h19v-45h-194v45h16q29 0 34.5 7.5t5.5 45.5v204q0 22 -2 37t-10 36.5t-28.5 33t-52.5 11.5q-33 0 -63.5 -16.5t-45.5 -49.5
q-16 -34 -16 -95v-169q0 -31 6 -38t32 -7h20v-45h-193v45h19q27 0 32.5 9t5.5 39v277q0 30 -4 39t-23 9q-23 0 -40 -1v45zM177 542h-55q8 94 92 94q29 0 62 -17q42 -22 56 -22q29 0 35 39h54q-1 -43 -25.5 -69t-57.5 -26q-29 0 -70 19l-33 15q-15 6 -24 6q-27 0 -34 -39z
" />
    <glyph glyph-name="ograve" unicode="&#xf2;" horiz-adv-x="542" 
d="M278 485q103 0 162.5 -63.5t59.5 -178.5q0 -95 -47 -165q-63 -93 -189 -93q-61 0 -106.5 22t-69.5 59t-35 77t-11 85q0 106 59.5 181.5t176.5 75.5zM272 427q-72 0 -109.5 -55t-37.5 -139q0 -48 14 -89.5t48.5 -71t84.5 -29.5q80 0 119 74q25 48 25 121q0 58 -14.5 98
t-38.5 58.5t-45.5 25.5t-45.5 7zM162 671h97l65 -129h-55z" />
    <glyph glyph-name="oacute" unicode="&#xf3;" horiz-adv-x="542" 
d="M278 485q103 0 162.5 -63.5t59.5 -178.5q0 -95 -47 -165q-63 -93 -189 -93q-61 0 -106.5 22t-69.5 59t-35 77t-11 85q0 106 59.5 181.5t176.5 75.5zM272 427q-72 0 -109.5 -55t-37.5 -139q0 -48 14 -89.5t48.5 -71t84.5 -29.5q80 0 119 74q25 48 25 121q0 58 -14.5 98
t-38.5 58.5t-45.5 25.5t-45.5 7zM284 671h97l-107 -129h-55z" />
    <glyph glyph-name="ocircumflex" unicode="&#xf4;" horiz-adv-x="542" 
d="M278 485q103 0 162.5 -63.5t59.5 -178.5q0 -95 -47 -165q-63 -93 -189 -93q-61 0 -106.5 22t-69.5 59t-35 77t-11 85q0 106 59.5 181.5t176.5 75.5zM272 427q-72 0 -109.5 -55t-37.5 -139q0 -48 14 -89.5t48.5 -71t84.5 -29.5q80 0 119 74q25 48 25 121q0 58 -14.5 98
t-38.5 58.5t-45.5 25.5t-45.5 7zM232 671h80l95 -129h-70l-67 88l-67 -88h-67z" />
    <glyph glyph-name="otilde" unicode="&#xf5;" horiz-adv-x="542" 
d="M278 485q103 0 162.5 -63.5t59.5 -178.5q0 -95 -47 -165q-63 -93 -189 -93q-61 0 -106.5 22t-69.5 59t-35 77t-11 85q0 106 59.5 181.5t176.5 75.5zM272 427q-72 0 -109.5 -55t-37.5 -139q0 -48 14 -89.5t48.5 -71t84.5 -29.5q80 0 119 74q25 48 25 121q0 58 -14.5 98
t-38.5 58.5t-45.5 25.5t-45.5 7zM177 542h-55q8 94 92 94q29 0 62 -17q42 -22 56 -22q29 0 35 39h54q-1 -43 -25.5 -69t-57.5 -26q-29 0 -70 19l-33 15q-15 6 -24 6q-27 0 -34 -39z" />
    <glyph glyph-name="odieresis" unicode="&#xf6;" horiz-adv-x="542" 
d="M278 485q103 0 162.5 -63.5t59.5 -178.5q0 -95 -47 -165q-63 -93 -189 -93q-61 0 -106.5 22t-69.5 59t-35 77t-11 85q0 106 59.5 181.5t176.5 75.5zM272 427q-72 0 -109.5 -55t-37.5 -139q0 -48 14 -89.5t48.5 -71t84.5 -29.5q80 0 119 74q25 48 25 121q0 58 -14.5 98
t-38.5 58.5t-45.5 25.5t-45.5 7zM178 630q18 0 31 -12.5t13 -31.5q0 -18 -13 -31t-31 -13t-31 12.5t-13 31.5t13 31.5t31 12.5zM365 630q18 0 31 -12.5t13 -31.5q0 -18 -13 -31t-31 -13t-31 12.5t-13 31.5t13 31.5t31 12.5z" />
    <glyph glyph-name="divide" unicode="&#xf7;" horiz-adv-x="667" 
d="M284 124q0 19 14 33t34 14t34 -14t14 -33q0 -20 -14 -34t-34 -14t-34 14t-14 34zM284 528q0 19 14 33t34 14t34 -14t14 -33q0 -20 -14 -34t-34 -14t-34 14t-14 34zM66 364h535v-77h-535v77z" />
    <glyph glyph-name="oslash" unicode="&#xf8;" horiz-adv-x="542" 
d="M477 501l40 -37l-59 -64q42 -64 42 -155q0 -46 -12.5 -89t-38.5 -83t-74 -64t-111 -24q-86 0 -143 46l-56 -61l-41 37l60 66q-42 60 -42 155q0 107 59.5 183t176.5 75q44 -2 76 -11.5t41 -15.5t26 -19zM401 337l-230 -251q43 -43 102 -43q72 0 107.5 56t35.5 139
q0 56 -15 99zM142 136l230 250q-44 44 -101 42q-70 1 -108 -54t-38 -141q0 -52 17 -97z" />
    <glyph glyph-name="ugrave" unicode="&#xf9;" horiz-adv-x="531" 
d="M8 470l149 10v-302q0 -20 0.5 -31.5t5 -30.5t13.5 -30t27 -19.5t43 -8.5q62 0 95.5 39.5t33.5 110.5v177q0 30 -10 35.5t-59 4.5v45l147 10v-376q0 -19 1 -26.5t6.5 -13.5t18.5 -6h40v-43l-135 -15q-9 37 -9 73h-2q-45 -85 -147 -85q-151 0 -151 172v225q0 30 -9.5 35.5
t-57.5 4.5v45zM156 671h97l65 -129h-55z" />
    <glyph glyph-name="uacute" unicode="&#xfa;" horiz-adv-x="531" 
d="M8 470l149 10v-302q0 -20 0.5 -31.5t5 -30.5t13.5 -30t27 -19.5t43 -8.5q62 0 95.5 39.5t33.5 110.5v177q0 30 -10 35.5t-59 4.5v45l147 10v-376q0 -19 1 -26.5t6.5 -13.5t18.5 -6h40v-43l-135 -15q-9 37 -9 73h-2q-45 -85 -147 -85q-151 0 -151 172v225q0 30 -9.5 35.5
t-57.5 4.5v45zM278 671h97l-107 -129h-55z" />
    <glyph glyph-name="ucircumflex" unicode="&#xfb;" horiz-adv-x="531" 
d="M8 470l149 10v-302q0 -20 0.5 -31.5t5 -30.5t13.5 -30t27 -19.5t43 -8.5q62 0 95.5 39.5t33.5 110.5v177q0 30 -10 35.5t-59 4.5v45l147 10v-376q0 -19 1 -26.5t6.5 -13.5t18.5 -6h40v-43l-135 -15q-9 37 -9 73h-2q-45 -85 -147 -85q-151 0 -151 172v225q0 30 -9.5 35.5
t-57.5 4.5v45zM226 671h80l95 -129h-70l-67 88l-67 -88h-67z" />
    <glyph glyph-name="udieresis" unicode="&#xfc;" horiz-adv-x="531" 
d="M8 470l149 10v-302q0 -20 0.5 -31.5t5 -30.5t13.5 -30t27 -19.5t43 -8.5q62 0 95.5 39.5t33.5 110.5v177q0 30 -10 35.5t-59 4.5v45l147 10v-376q0 -19 1 -26.5t6.5 -13.5t18.5 -6h40v-43l-135 -15q-9 37 -9 73h-2q-45 -85 -147 -85q-151 0 -151 172v225q0 30 -9.5 35.5
t-57.5 4.5v45zM172 630q18 0 31 -12.5t13 -31.5q0 -18 -13 -31t-31 -13t-31 12.5t-13 31.5t13 31.5t31 12.5zM359 630q18 0 31 -12.5t13 -31.5q0 -18 -13 -31t-31 -13t-31 12.5t-13 31.5t13 31.5t31 12.5z" />
    <glyph glyph-name="yacute" unicode="&#xfd;" horiz-adv-x="510" 
d="M3 474h205v-46h-24q-29 0 -29 -18q0 -11 7 -26l107 -284l97 260q12 36 12 48q0 20 -32 20h-18v46h179v-46q-32 0 -42 -7.5t-24 -43.5l-176 -450q-32 -82 -65 -115.5t-92 -33.5q-41 0 -81 18v94h56v-16q0 -42 34 -42q30 0 50 32q36 59 57 136l-141 360q-19 47 -32.5 57.5
t-47.5 10.5v46zM268 671h97l-107 -129h-55z" />
    <glyph glyph-name="thorn" unicode="&#xfe;" horiz-adv-x="542" 
d="M11 688l143 16v-300h2q53 81 146 81q94 0 146 -68.5t52 -168.5q0 -46 -12 -90.5t-36 -84t-66 -64t-96 -24.5q-37 0 -66.5 12t-41 22t-28.5 29v-164q0 -35 5.5 -41.5t33.5 -6.5h26v-46h-201v46h18q29 0 34.5 7.5t5.5 43.5v708q0 33 -6 41t-34 8h-25v44zM283 420
q-61 0 -98.5 -51.5t-37.5 -133.5q0 -57 15 -97t39 -58t44.5 -25t40.5 -7q38 0 65 18.5t40 48.5t18.5 59t5.5 60q0 35 -6.5 66t-20.5 59t-41 44.5t-64 16.5z" />
    <glyph glyph-name="ydieresis" unicode="&#xff;" horiz-adv-x="510" 
d="M3 474h205v-46h-24q-29 0 -29 -18q0 -11 7 -26l107 -284l97 260q12 36 12 48q0 20 -32 20h-18v46h179v-46q-32 0 -42 -7.5t-24 -43.5l-176 -450q-32 -82 -65 -115.5t-92 -33.5q-41 0 -81 18v94h56v-16q0 -42 34 -42q30 0 50 32q36 59 57 136l-141 360q-19 47 -32.5 57.5
t-47.5 10.5v46zM162 630q18 0 31 -12.5t13 -31.5q0 -18 -13 -31t-31 -13t-31 12.5t-13 31.5t13 31.5t31 12.5zM349 630q18 0 31 -12.5t13 -31.5q0 -18 -13 -31t-31 -13t-31 12.5t-13 31.5t13 31.5t31 12.5z" />
    <glyph glyph-name="Amacron" unicode="&#x100;" horiz-adv-x="677" 
d="M298 695h82l204 -581q15 -44 27.5 -54.5t37.5 -10.5h19v-49h-225v49h26q14 0 21.5 1t13 6.5t5.5 15.5q0 9 -11 42l-37 106h-263l-39 -110q-9 -18 -9 -36q0 -25 41 -25h28v-49h-210v49h18q25 0 37.5 10.5t24.5 43.5zM328 591l-109 -311h220l-109 311h-2zM188 793h295v-54
h-295v54z" />
    <glyph glyph-name="amacron" unicode="&#x101;" horiz-adv-x="490" 
d="M79 336v100q73 52 167 52q105 0 146 -64q18 -30 18 -115v-196q0 -37 6 -50.5t19 -13.5q19 0 43 14v-49q-3 -3 -6 -3q-46 -23 -78 -23q-19 0 -31.5 7.5t-19 23t-8 22.5t-3.5 22q-18 -22 -30.5 -34t-44 -26.5t-70.5 -14.5q-22 0 -44 5t-47 18.5t-40.5 42t-15.5 69.5
q0 26 7.5 47.5t17 37t32.5 30t40.5 23t56 20t62.5 17.5l76 19q0 20 -0.5 32t-5.5 31t-14.5 29.5t-28 19t-45.5 8.5q-96 0 -96 -80v-21h-63zM332 265l-8 -2q-46 -13 -64 -18t-49 -15.5t-42 -18t-25.5 -20t-19 -26.5t-4.5 -33q0 -39 25 -60.5t59 -21.5q56 0 97 39
q31 31 31 106v70zM98 596h295v-54h-295v54z" />
    <glyph glyph-name="Abreve" unicode="&#x102;" horiz-adv-x="677" 
d="M298 695h82l204 -581q15 -44 27.5 -54.5t37.5 -10.5h19v-49h-225v49h26q14 0 21.5 1t13 6.5t5.5 15.5q0 9 -11 42l-37 106h-263l-39 -110q-9 -18 -9 -36q0 -25 41 -25h28v-49h-210v49h18q25 0 37.5 10.5t24.5 43.5zM328 591l-109 -311h220l-109 311h-2zM220 863h53
q4 -37 26 -55q18 -15 44 -15q57 0 68 70h52q2 -49 -30 -85q-34 -39 -91 -39q-48 0 -83.5 30.5t-38.5 93.5z" />
    <glyph glyph-name="abreve" unicode="&#x103;" horiz-adv-x="490" 
d="M79 336v100q73 52 167 52q105 0 146 -64q18 -30 18 -115v-196q0 -37 6 -50.5t19 -13.5q19 0 43 14v-49q-3 -3 -6 -3q-46 -23 -78 -23q-19 0 -31.5 7.5t-19 23t-8 22.5t-3.5 22q-18 -22 -30.5 -34t-44 -26.5t-70.5 -14.5q-22 0 -44 5t-47 18.5t-40.5 42t-15.5 69.5
q0 26 7.5 47.5t17 37t32.5 30t40.5 23t56 20t62.5 17.5l76 19q0 20 -0.5 32t-5.5 31t-14.5 29.5t-28 19t-45.5 8.5q-96 0 -96 -80v-21h-63zM332 265l-8 -2q-46 -13 -64 -18t-49 -15.5t-42 -18t-25.5 -20t-19 -26.5t-4.5 -33q0 -39 25 -60.5t59 -21.5q56 0 97 39
q31 31 31 106v70zM123 666h53q4 -37 26 -55q18 -15 44 -15q57 0 68 70h52q2 -49 -30 -85q-34 -39 -91 -39q-48 0 -83.5 30.5t-38.5 93.5z" />
    <glyph glyph-name="Aogonek" unicode="&#x104;" horiz-adv-x="677" 
d="M298 695h82l204 -581q16 -44 28 -54.5t37 -10.5h19v-49h-37q-63 -44 -63 -89q0 -27 18 -39t39 -12q13 0 43 6v-47q-30 -8 -55 -8q-50 0 -78 25t-28 65q0 56 56 99h-120v49h26q15 0 21.5 1t12.5 6t6 16q0 9 -11 42l-37 106h-263l-39 -110q-9 -18 -9 -36q0 -25 41 -25h28
v-49h-210v49h18q25 0 37.5 10.5t24.5 43.5zM328 591l-109 -311h220l-109 311h-2z" />
    <glyph glyph-name="aogonek" unicode="&#x105;" horiz-adv-x="490" 
d="M79 336v100q73 52 167 52q105 0 146 -64q18 -30 18 -115v-196q0 -37 6 -50.5t19 -13.5q22 0 46 14l-3 -49q-3 -3 -6 -3q-13 -7 -38 -16q-56 -42 -56 -84q0 -27 18 -39t39 -12q13 0 43 6v-47q-30 -8 -55 -8q-50 0 -78 25t-28 65q0 51 49 93q-28 15 -34 69
q-18 -22 -30.5 -34t-44 -26.5t-70.5 -14.5q-22 0 -44 5t-47 18.5t-40.5 42t-15.5 69.5q0 26 7.5 47.5t17 37t32.5 30t40.5 23t56 20t62.5 17.5l76 19q0 20 -0.5 32t-5.5 31t-14.5 29.5t-28 19t-45.5 8.5q-96 0 -96 -80v-21h-63zM332 265l-8 -2q-46 -13 -64 -18t-49 -15.5
t-42 -18t-25.5 -20t-19 -26.5t-4.5 -33q0 -39 25 -60.5t59 -21.5q56 0 97 39q31 31 31 106v70z" />
    <glyph glyph-name="Cacute" unicode="&#x106;" horiz-adv-x="667" 
d="M615 648v-155h-72q-2 81 -12 98q-12 19 -54.5 34.5t-92.5 15.5q-111 0 -176 -80.5t-65 -215.5q0 -75 22 -133t58 -91t76.5 -49.5t83.5 -16.5q49 0 112.5 19t119.5 68v-84q-96 -76 -242 -76q-149 0 -235 101t-86 255q0 99 37 181t115 133.5t184 51.5q131 0 227 -56z
M407 868h97l-107 -129h-55z" />
    <glyph glyph-name="cacute" unicode="&#x107;" horiz-adv-x="479" 
d="M432 445v-139h-67v43q0 36 -17.5 58.5t-71.5 22.5q-66 0 -106 -50t-40 -140q0 -50 13 -87t30 -55t40 -28.5t35.5 -12.5t24.5 -2q75 0 159 66v-73q-77 -63 -173 -63q-55 0 -97.5 21t-66.5 57t-36 78t-12 88q0 128 70 192t163 64q79 0 152 -40zM291 671h97l-107 -129h-55z
" />
    <glyph glyph-name="Ccircumflex" unicode="&#x108;" horiz-adv-x="667" 
d="M615 648v-155h-72q-2 81 -12 98q-12 19 -54.5 34.5t-92.5 15.5q-111 0 -176 -80.5t-65 -215.5q0 -75 22 -133t58 -91t76.5 -49.5t83.5 -16.5q49 0 112.5 19t119.5 68v-84q-96 -76 -242 -76q-149 0 -235 101t-86 255q0 99 37 181t115 133.5t184 51.5q131 0 227 -56z
M351 868h80l95 -129h-70l-67 88l-67 -88h-67z" />
    <glyph glyph-name="ccircumflex" unicode="&#x109;" horiz-adv-x="479" 
d="M432 445v-139h-67v43q0 36 -17.5 58.5t-71.5 22.5q-66 0 -106 -50t-40 -140q0 -50 13 -87t30 -55t40 -28.5t35.5 -12.5t24.5 -2q75 0 159 66v-73q-77 -63 -173 -63q-55 0 -97.5 21t-66.5 57t-36 78t-12 88q0 128 70 192t163 64q79 0 152 -40zM238 671h80l95 -129h-70
l-67 88l-67 -88h-67z" />
    <glyph glyph-name="Cdotaccent" unicode="&#x10a;" horiz-adv-x="667" 
d="M615 648v-155h-72q-2 81 -12 98q-12 19 -54.5 34.5t-92.5 15.5q-111 0 -176 -80.5t-65 -215.5q0 -75 22 -133t58 -91t76.5 -49.5t83.5 -16.5q49 0 112.5 19t119.5 68v-84q-96 -76 -242 -76q-149 0 -235 101t-86 255q0 99 37 181t115 133.5t184 51.5q131 0 227 -56z
M345 783q0 19 13.5 31.5t31.5 12.5t31 -12.5t13 -31.5q0 -18 -13 -31t-31 -13t-31.5 13t-13.5 31z" />
    <glyph glyph-name="cdotaccent" unicode="&#x10b;" horiz-adv-x="479" 
d="M432 445v-139h-67v43q0 36 -17.5 58.5t-71.5 22.5q-66 0 -106 -50t-40 -140q0 -50 13 -87t30 -55t40 -28.5t35.5 -12.5t24.5 -2q75 0 159 66v-73q-77 -63 -173 -63q-55 0 -97.5 21t-66.5 57t-36 78t-12 88q0 128 70 192t163 64q79 0 152 -40zM237 586q0 19 13.5 31.5
t31.5 12.5t31 -12.5t13 -31.5q0 -18 -13 -31t-31 -13t-31.5 13t-13.5 31z" />
    <glyph glyph-name="Ccaron" unicode="&#x10c;" horiz-adv-x="667" 
d="M615 648v-155h-72q-2 81 -12 98q-12 19 -54.5 34.5t-92.5 15.5q-111 0 -176 -80.5t-65 -215.5q0 -75 22 -133t58 -91t76.5 -49.5t83.5 -16.5q49 0 112.5 19t119.5 68v-84q-96 -76 -242 -76q-149 0 -235 101t-86 255q0 99 37 181t115 133.5t184 51.5q131 0 227 -56z
M253 868h70l67 -88l67 88h67l-96 -129h-80z" />
    <glyph glyph-name="ccaron" unicode="&#x10d;" horiz-adv-x="479" 
d="M432 445v-139h-67v43q0 36 -17.5 58.5t-71.5 22.5q-66 0 -106 -50t-40 -140q0 -50 13 -87t30 -55t40 -28.5t35.5 -12.5t24.5 -2q75 0 159 66v-73q-77 -63 -173 -63q-55 0 -97.5 21t-66.5 57t-36 78t-12 88q0 128 70 192t163 64q79 0 152 -40zM145 671h70l67 -88l67 88h67
l-96 -129h-80z" />
    <glyph glyph-name="Dcaron" unicode="&#x10e;" horiz-adv-x="729" 
d="M45 686h293q123 0 190 -36q68 -36 109.5 -113t41.5 -190q0 -120 -44.5 -196t-103.5 -112q-66 -39 -170 -39h-316v49h23q31 0 37.5 9.5t6.5 44.5v484q0 30 -6.5 39.5t-37.5 9.5h-23v50zM198 623v-563h139q92 2 133 26q116 67 116 257q0 58 -11.5 103.5t-28 74.5t-43 49.5
t-48 30.5t-52 15.5t-45 6t-37.5 0.5h-123zM219 868h70l67 -88l67 88h67l-96 -129h-80z" />
    <glyph glyph-name="dcaron" unicode="&#x10f;" horiz-adv-x="573" 
d="M316 689l149 15v-601q0 -21 1.5 -29.5t9 -14t25.5 -5.5q11 0 31 2v-44l-138 -12q-6 30 -7 70h-2q-47 -82 -146 -82q-55 0 -95.5 23t-61.5 60t-30.5 76t-9.5 80q0 107 55 184t157 77q84 0 130 -64h2v181q0 19 -1.5 26t-10 11.5t-27.5 4.5h-31v42zM256 424
q-34 0 -59.5 -15.5t-38 -37t-20.5 -50t-9.5 -47t-1.5 -36.5q0 -97 41 -145q35 -40 91 -40q58 0 95.5 48t37.5 141q0 87 -35.5 134.5t-100.5 47.5zM506 469v39q37 19 51 38t19 49q-35 -1 -49 18t-14 38q0 22 15.5 37.5t37.5 15.5q31 0 48 -24.5t17 -59.5q0 -13 -3 -27
t-13.5 -39t-38.5 -48t-70 -37z" />
    <glyph glyph-name="Dcroat" unicode="&#x110;" horiz-adv-x="729" 
d="M45 686h293q123 0 190 -36q68 -36 109.5 -113t41.5 -190q0 -120 -44.5 -196t-103.5 -112q-66 -39 -170 -39h-316v49h23q31 0 37.5 9.5t6.5 44.5v207h-66v63h66v214q0 30 -6.5 39.5t-37.5 9.5h-23v50zM198 623v-250h184v-63h-184v-250h139q92 2 133 26q116 67 116 257
q0 58 -11.5 103.5t-28 74.5t-43 49.5t-48 30.5t-52 15.5t-45 6t-37.5 0.5h-123z" />
    <glyph glyph-name="dcroat" unicode="&#x111;" horiz-adv-x="560" 
d="M211 588h175v17q0 19 -1.5 26t-10 11.5t-27.5 4.5h-31v42l149 15v-116h68v-54h-68v-431q0 -21 1.5 -29.5t9 -14t25.5 -5.5q11 0 31 2v-44l-138 -12q-6 30 -7 70h-2q-47 -82 -146 -82q-55 0 -95.5 23t-61.5 60t-30.5 76t-9.5 80q0 107 55 184t157 77q84 0 130 -64h2v110
h-175v54zM256 424q-34 0 -59.5 -15.5t-38 -37t-20.5 -50t-9.5 -47t-1.5 -36.5q0 -97 41 -145q35 -40 91 -40q58 0 95.5 48t37.5 141q0 87 -35.5 134.5t-100.5 47.5z" />
    <glyph glyph-name="Emacron" unicode="&#x112;" horiz-adv-x="604" 
d="M48 686h502v-154h-64v50q0 29 -10 34.5t-52 7.5h-223v-241h176q31 0 39 8.5t8 35.5v23h57v-197h-57v31q0 26 -10.5 32.5t-41.5 6.5h-171v-262h253q30 0 37 9.5t7 38.5v43h63v-152h-513v49h24q30 0 36.5 9.5t6.5 38.5v496q0 25 -7.5 34t-35.5 9h-24v50zM155 793h295v-54
h-295v54z" />
    <glyph glyph-name="emacron" unicode="&#x113;" horiz-adv-x="499" 
d="M454 244h-327q1 -88 38 -139.5t112 -51.5q82 0 166 75v-73q-78 -70 -181 -70q-108 0 -163.5 70.5t-55.5 173.5q0 116 60 187.5t159 71.5q107 0 157 -80q35 -56 35 -164zM132 299h240q-4 61 -32 98t-83 37q-9 0 -17.5 -1t-27 -8t-32.5 -20t-28 -40.5t-20 -65.5zM115 596
h295v-54h-295v54z" />
    <glyph glyph-name="Ebreve" unicode="&#x114;" horiz-adv-x="604" 
d="M48 686h502v-154h-64v50q0 29 -10 34.5t-52 7.5h-223v-241h176q31 0 39 8.5t8 35.5v23h57v-197h-57v31q0 26 -10.5 32.5t-41.5 6.5h-171v-262h253q30 0 37 9.5t7 38.5v43h63v-152h-513v49h24q30 0 36.5 9.5t6.5 38.5v496q0 25 -7.5 34t-35.5 9h-24v50zM190 863h53
q4 -37 26 -55q18 -15 44 -15q57 0 68 70h52q2 -49 -30 -85q-34 -39 -91 -39q-48 0 -83.5 30.5t-38.5 93.5z" />
    <glyph glyph-name="ebreve" unicode="&#x115;" horiz-adv-x="499" 
d="M454 244h-327q1 -88 38 -139.5t112 -51.5q82 0 166 75v-73q-78 -70 -181 -70q-108 0 -163.5 70.5t-55.5 173.5q0 116 60 187.5t159 71.5q107 0 157 -80q35 -56 35 -164zM132 299h240q-4 61 -32 98t-83 37q-9 0 -17.5 -1t-27 -8t-32.5 -20t-28 -40.5t-20 -65.5zM143 666
h53q4 -37 26 -55q18 -15 44 -15q57 0 68 70h52q2 -49 -30 -85q-34 -39 -91 -39q-48 0 -83.5 30.5t-38.5 93.5z" />
    <glyph glyph-name="Edotaccent" unicode="&#x116;" horiz-adv-x="604" 
d="M48 686h502v-154h-64v50q0 29 -10 34.5t-52 7.5h-223v-241h176q31 0 39 8.5t8 35.5v23h57v-197h-57v31q0 26 -10.5 32.5t-41.5 6.5h-171v-262h253q30 0 37 9.5t7 38.5v43h63v-152h-513v49h24q30 0 36.5 9.5t6.5 38.5v496q0 25 -7.5 34t-35.5 9h-24v50zM278 783
q0 19 13.5 31.5t31.5 12.5t31 -12.5t13 -31.5q0 -18 -13 -31t-31 -13t-31.5 13t-13.5 31z" />
    <glyph glyph-name="edotaccent" unicode="&#x117;" horiz-adv-x="499" 
d="M454 244h-327q1 -88 38 -139.5t112 -51.5q82 0 166 75v-73q-78 -70 -181 -70q-108 0 -163.5 70.5t-55.5 173.5q0 116 60 187.5t159 71.5q107 0 157 -80q35 -56 35 -164zM132 299h240q-4 61 -32 98t-83 37q-9 0 -17.5 -1t-27 -8t-32.5 -20t-28 -40.5t-20 -65.5zM220 586
q0 19 13.5 31.5t31.5 12.5t31 -12.5t13 -31.5q0 -18 -13 -31t-31 -13t-31.5 13t-13.5 31z" />
    <glyph glyph-name="Eogonek" unicode="&#x118;" horiz-adv-x="604" 
d="M48 686h502v-154h-64v50q0 29 -10 34.5t-52 7.5h-223v-241h176q31 0 39 8.5t8 35.5v23h57v-197h-57v31q0 26 -10.5 32.5t-41.5 6.5h-171v-262h253q30 0 37 9.5t7 38.5v43h63v-152h-37q-63 -44 -63 -89q0 -27 18 -39t39 -12q13 0 43 6v-47q-30 -8 -55 -8q-50 0 -78 25
t-28 65q0 56 56 99h-408v49h24q30 0 36.5 9.5t6.5 38.5v496q0 25 -7.5 34t-35.5 9h-24v50z" />
    <glyph glyph-name="eogonek" unicode="&#x119;" horiz-adv-x="499" 
d="M454 244h-327q1 -88 38 -139.5t112 -51.5q82 0 166 75v-73q-38 -34 -75 -49q-72 -46 -72 -95q0 -27 18 -39t39 -12q13 0 43 6v-47q-30 -8 -55 -8q-50 0 -78 25t-28 65q0 49 39 84h-12q-108 0 -163.5 70.5t-55.5 173.5q0 116 60 187.5t159 71.5q107 0 157 -80
q35 -56 35 -164zM132 299h240q-4 61 -32 98t-83 37q-9 0 -17.5 -1t-27 -8t-32.5 -20t-28 -40.5t-20 -65.5z" />
    <glyph glyph-name="Ecaron" unicode="&#x11a;" horiz-adv-x="604" 
d="M48 686h502v-154h-64v50q0 29 -10 34.5t-52 7.5h-223v-241h176q31 0 39 8.5t8 35.5v23h57v-197h-57v31q0 26 -10.5 32.5t-41.5 6.5h-171v-262h253q30 0 37 9.5t7 38.5v43h63v-152h-513v49h24q30 0 36.5 9.5t6.5 38.5v496q0 25 -7.5 34t-35.5 9h-24v50zM179 868h70l67 -88
l67 88h67l-96 -129h-80z" />
    <glyph glyph-name="ecaron" unicode="&#x11b;" horiz-adv-x="499" 
d="M454 244h-327q1 -88 38 -139.5t112 -51.5q82 0 166 75v-73q-78 -70 -181 -70q-108 0 -163.5 70.5t-55.5 173.5q0 116 60 187.5t159 71.5q107 0 157 -80q35 -56 35 -164zM132 299h240q-4 61 -32 98t-83 37q-9 0 -17.5 -1t-27 -8t-32.5 -20t-28 -40.5t-20 -65.5zM126 671
h70l67 -88l67 88h67l-96 -129h-80z" />
    <glyph glyph-name="Gcircumflex" unicode="&#x11c;" horiz-adv-x="708" 
d="M617 650v-157h-71v34q0 50 -14 68q-14 17 -51.5 32t-89.5 15q-65 0 -114.5 -25.5t-78 -68.5t-43 -94.5t-14.5 -108.5q0 -135 68 -215.5t179 -80.5q66 0 143 34v139q0 35 -7 44.5t-40 9.5h-26v50h229v-50h-27q-30 0 -36.5 -10t-6.5 -44v-173q-57 -33 -110 -50t-124 -17
q-88 0 -155.5 32.5t-105 85.5t-56 113.5t-18.5 125.5q0 156 92.5 260.5t257.5 104.5q121 0 219 -54zM364 868h80l95 -129h-70l-67 88l-67 -88h-67z" />
    <glyph glyph-name="gcircumflex" unicode="&#x11d;" horiz-adv-x="523" 
d="M342 474h151v-59h-88q34 -45 34 -107q0 -58 -31 -105t-95 -61q-24 -5 -101 -9q-26 -1 -42.5 -12.5t-16.5 -26.5q0 -30 95 -36q112 -5 147 -10.5t60 -27.5q36 -31 36 -81q0 -75 -67 -119q-61 -41 -179 -41q-217 0 -217 116q0 87 109 111v2q-18 7 -28.5 13t-20.5 19t-10 31
q0 26 18.5 45.5t34.5 26t32 10.5v2q-48 18 -74 59.5t-26 95.5q0 32 10 62t31.5 57t60.5 43t90 16q47 0 87 -14zM252 440q-36 0 -60.5 -16t-34 -40.5t-12.5 -40.5t-3 -29q0 -39 11 -66t29.5 -40t36.5 -18.5t37 -5.5q45 0 75 31.5t30 93.5q0 65 -31 98t-78 33zM99 -90
q0 -25 17.5 -42t45.5 -24t48.5 -9.5t41.5 -2.5q88 0 125.5 26t37.5 60q0 21 -13.5 35.5t-38.5 21t-49.5 8.5t-58.5 2q-156 0 -156 -75zM216 671h80l95 -129h-70l-67 88l-67 -88h-67z" />
    <glyph glyph-name="Gbreve" unicode="&#x11e;" horiz-adv-x="708" 
d="M617 650v-157h-71v34q0 50 -14 68q-14 17 -51.5 32t-89.5 15q-65 0 -114.5 -25.5t-78 -68.5t-43 -94.5t-14.5 -108.5q0 -135 68 -215.5t179 -80.5q66 0 143 34v139q0 35 -7 44.5t-40 9.5h-26v50h229v-50h-27q-30 0 -36.5 -10t-6.5 -44v-173q-57 -33 -110 -50t-124 -17
q-88 0 -155.5 32.5t-105 85.5t-56 113.5t-18.5 125.5q0 156 92.5 260.5t257.5 104.5q121 0 219 -54zM275 863h53q4 -37 26 -55q18 -15 44 -15q57 0 68 70h52q2 -49 -30 -85q-34 -39 -91 -39q-48 0 -83.5 30.5t-38.5 93.5z" />
    <glyph glyph-name="gbreve" unicode="&#x11f;" horiz-adv-x="523" 
d="M342 474h151v-59h-88q34 -45 34 -107q0 -58 -31 -105t-95 -61q-24 -5 -101 -9q-26 -1 -42.5 -12.5t-16.5 -26.5q0 -30 95 -36q112 -5 147 -10.5t60 -27.5q36 -31 36 -81q0 -75 -67 -119q-61 -41 -179 -41q-217 0 -217 116q0 87 109 111v2q-18 7 -28.5 13t-20.5 19t-10 31
q0 26 18.5 45.5t34.5 26t32 10.5v2q-48 18 -74 59.5t-26 95.5q0 32 10 62t31.5 57t60.5 43t90 16q47 0 87 -14zM252 440q-36 0 -60.5 -16t-34 -40.5t-12.5 -40.5t-3 -29q0 -39 11 -66t29.5 -40t36.5 -18.5t37 -5.5q45 0 75 31.5t30 93.5q0 65 -31 98t-78 33zM99 -90
q0 -25 17.5 -42t45.5 -24t48.5 -9.5t41.5 -2.5q88 0 125.5 26t37.5 60q0 21 -13.5 35.5t-38.5 21t-49.5 8.5t-58.5 2q-156 0 -156 -75zM133 666h53q4 -37 26 -55q18 -15 44 -15q57 0 68 70h52q2 -49 -30 -85q-34 -39 -91 -39q-48 0 -83.5 30.5t-38.5 93.5z" />
    <glyph glyph-name="Gdotaccent" unicode="&#x120;" horiz-adv-x="708" 
d="M617 650v-157h-71v34q0 50 -14 68q-14 17 -51.5 32t-89.5 15q-65 0 -114.5 -25.5t-78 -68.5t-43 -94.5t-14.5 -108.5q0 -135 68 -215.5t179 -80.5q66 0 143 34v139q0 35 -7 44.5t-40 9.5h-26v50h229v-50h-27q-30 0 -36.5 -10t-6.5 -44v-173q-57 -33 -110 -50t-124 -17
q-88 0 -155.5 32.5t-105 85.5t-56 113.5t-18.5 125.5q0 156 92.5 260.5t257.5 104.5q121 0 219 -54zM353 783q0 19 13.5 31.5t31.5 12.5t31 -12.5t13 -31.5q0 -18 -13 -31t-31 -13t-31.5 13t-13.5 31z" />
    <glyph glyph-name="gdotaccent" unicode="&#x121;" horiz-adv-x="523" 
d="M342 474h151v-59h-88q34 -45 34 -107q0 -58 -31 -105t-95 -61q-24 -5 -101 -9q-26 -1 -42.5 -12.5t-16.5 -26.5q0 -30 95 -36q112 -5 147 -10.5t60 -27.5q36 -31 36 -81q0 -75 -67 -119q-61 -41 -179 -41q-217 0 -217 116q0 87 109 111v2q-18 7 -28.5 13t-20.5 19t-10 31
q0 26 18.5 45.5t34.5 26t32 10.5v2q-48 18 -74 59.5t-26 95.5q0 32 10 62t31.5 57t60.5 43t90 16q47 0 87 -14zM252 440q-36 0 -60.5 -16t-34 -40.5t-12.5 -40.5t-3 -29q0 -39 11 -66t29.5 -40t36.5 -18.5t37 -5.5q45 0 75 31.5t30 93.5q0 65 -31 98t-78 33zM99 -90
q0 -25 17.5 -42t45.5 -24t48.5 -9.5t41.5 -2.5q88 0 125.5 26t37.5 60q0 21 -13.5 35.5t-38.5 21t-49.5 8.5t-58.5 2q-156 0 -156 -75zM211 586q0 19 13.5 31.5t31.5 12.5t31 -12.5t13 -31.5q0 -18 -13 -31t-31 -13t-31.5 13t-13.5 31z" />
    <glyph glyph-name="Gcommaaccent" unicode="&#x122;" horiz-adv-x="708" 
d="M617 650v-157h-71v34q0 50 -14 68q-14 17 -51.5 32t-89.5 15q-65 0 -114.5 -25.5t-78 -68.5t-43 -94.5t-14.5 -108.5q0 -135 68 -215.5t179 -80.5q66 0 143 34v139q0 35 -7 44.5t-40 9.5h-26v50h229v-50h-27q-30 0 -36.5 -10t-6.5 -44v-173q-57 -33 -110 -50t-124 -17
q-88 0 -155.5 32.5t-105 85.5t-56 113.5t-18.5 125.5q0 156 92.5 260.5t257.5 104.5q121 0 219 -54zM391 -138h-7q-22 0 -37 14t-15 33q0 18 15 31.5t35 13.5q25 0 41.5 -19.5t16.5 -51.5q0 -40 -29 -67.5t-84 -37.5v33q31 6 46.5 17t17.5 34z" />
    <glyph glyph-name="gcommaaccent" unicode="&#x123;" horiz-adv-x="523" 
d="M342 474h151v-59h-88q34 -45 34 -107q0 -58 -31 -105t-95 -61q-24 -5 -101 -9q-26 -1 -42.5 -12.5t-16.5 -26.5q0 -30 95 -36q112 -5 147 -10.5t60 -27.5q36 -31 36 -81q0 -75 -67 -119q-61 -41 -179 -41q-217 0 -217 116q0 87 109 111v2q-18 7 -28.5 13t-20.5 19t-10 31
q0 26 18.5 45.5t34.5 26t32 10.5v2q-48 18 -74 59.5t-26 95.5q0 32 10 62t31.5 57t60.5 43t90 16q47 0 87 -14zM252 440q-36 0 -60.5 -16t-34 -40.5t-12.5 -40.5t-3 -29q0 -39 11 -66t29.5 -40t36.5 -18.5t37 -5.5q45 0 75 31.5t30 93.5q0 65 -31 98t-78 33zM99 -90
q0 -25 17.5 -42t45.5 -24t48.5 -9.5t41.5 -2.5q88 0 125.5 26t37.5 60q0 21 -13.5 35.5t-38.5 21t-49.5 8.5t-58.5 2q-156 0 -156 -75zM315 747v-39q-56 -18 -70 -63q35 1 49 -18t14 -38q0 -22 -15.5 -37.5t-37.5 -15.5q-65 0 -65 84q0 12 5 27t16.5 35t38.5 37.5t65 27.5z
" />
    <glyph glyph-name="Hcircumflex" unicode="&#x124;" horiz-adv-x="750" 
d="M45 686h221v-50h-21q-32 0 -39 -10t-7 -37v-192h353v192q0 30 -7.5 38.5t-41.5 8.5h-19v50h221v-50h-23q-31 0 -37.5 -9.5t-6.5 -43.5v-486q0 -29 7 -38.5t37 -9.5h23v-49h-221v49h19q33 0 41 8t8 40v237h-353v-237q0 -19 1.5 -27t12 -14.5t32.5 -6.5h21v-49h-221v49h25
q30 0 36.5 9.5t6.5 38.5v492q0 28 -7 37.5t-40 9.5h-21v50zM336 868h80l95 -129h-70l-67 88l-67 -88h-67z" />
    <glyph glyph-name="hcircumflex" unicode="&#x125;" horiz-adv-x="533" 
d="M10 688l148 16v-296h2q46 76 145 76q36 0 63.5 -9t43.5 -26.5t26 -34t13.5 -40.5t4.5 -36t1 -31v-224q0 -26 5 -32t32 -6h19v-45h-195v45h16q30 0 35.5 7.5t5.5 45.5v202q0 22 -2 36.5t-9.5 36.5t-28 34t-52.5 12q-35 0 -60.5 -15t-37.5 -33.5t-18.5 -45.5t-7.5 -40
t-1 -28v-168q0 -30 5.5 -37t31.5 -7h19v-45h-192v45h20q25 0 31 8.5t6 39.5v507q0 32 -6.5 38t-37.5 6h-25v44zM152 883h80l95 -129h-70l-67 88l-67 -88h-67z" />
    <glyph glyph-name="Hbar" unicode="&#x126;" horiz-adv-x="750" 
d="M45 686h221v-50h-21q-32 0 -39 -10t-7 -37v-65h353v65q0 30 -7.5 38.5t-41.5 8.5h-19v50h221v-50h-23q-31 0 -37.5 -9.5t-6.5 -43.5v-59h67v-54h-67v-373q0 -29 7 -38.5t37 -9.5h23v-49h-221v49h19q33 0 41 8t8 40v237h-353v-237q0 -19 1.5 -27t12 -14.5t32.5 -6.5h21
v-49h-221v49h25q30 0 36.5 9.5t6.5 38.5v373h-68v54h68v65q0 28 -7 37.5t-40 9.5h-21v50zM199 470v-73h353v73h-353z" />
    <glyph glyph-name="hbar" unicode="&#x127;" horiz-adv-x="533" 
d="M10 688l148 16v-117h148v-54h-148v-125h2q46 76 145 76q36 0 63.5 -9t43.5 -26.5t26 -34t13.5 -40.5t4.5 -36t1 -31v-224q0 -26 5 -32t32 -6h19v-45h-195v45h16q30 0 35.5 7.5t5.5 45.5v202q0 22 -2 36.5t-9.5 36.5t-28 34t-52.5 12q-35 0 -60.5 -15t-37.5 -33.5
t-18.5 -45.5t-7.5 -40t-1 -28v-168q0 -30 5.5 -37t31.5 -7h19v-45h-192v45h20q25 0 31 8.5t6 39.5v440h-70v54h70v13q0 32 -6.5 38t-37.5 6h-25v44z" />
    <glyph glyph-name="Itilde" unicode="&#x128;" 
d="M56 686h221v-51h-17q-36 0 -43 -9.5t-7 -47.5v-470q0 -40 7 -49.5t43 -9.5h17v-49h-221v49h20q34 0 40.5 9t6.5 45v483q0 31 -7 40t-40 9h-20v51zM72 739h-55q8 94 92 94q29 0 62 -17q42 -22 56 -22q29 0 35 39h54q-1 -43 -25.5 -69t-57.5 -26q-29 0 -70 19l-33 15
q-15 6 -24 6q-27 0 -34 -39z" />
    <glyph glyph-name="itilde" unicode="&#x129;" horiz-adv-x="250" 
d="M19 467l146 13v-390q0 -30 4.5 -37.5t28.5 -7.5h23v-45h-193v45h23q23 0 29.5 7.5t6.5 41.5v275q0 36 -6.5 44t-36.5 8h-25v46zM17 542h-55q8 94 92 94q29 0 62 -17q42 -22 56 -22q29 0 35 39h54q-1 -43 -25.5 -69t-57.5 -26q-29 0 -70 19l-33 15q-15 6 -24 6
q-27 0 -34 -39z" />
    <glyph glyph-name="Imacron" unicode="&#x12a;" 
d="M56 686h221v-51h-17q-36 0 -43 -9.5t-7 -47.5v-470q0 -40 7 -49.5t43 -9.5h17v-49h-221v49h20q34 0 40.5 9t6.5 45v483q0 31 -7 40t-40 9h-20v51zM19 793h295v-54h-295v54z" />
    <glyph glyph-name="imacron" unicode="&#x12b;" horiz-adv-x="250" 
d="M19 467l146 13v-390q0 -30 4.5 -37.5t28.5 -7.5h23v-45h-193v45h23q23 0 29.5 7.5t6.5 41.5v275q0 36 -6.5 44t-36.5 8h-25v46zM-23 596h295v-54h-295v54z" />
    <glyph glyph-name="Ibreve" unicode="&#x12c;" 
d="M56 686h221v-51h-17q-36 0 -43 -9.5t-7 -47.5v-470q0 -40 7 -49.5t43 -9.5h17v-49h-221v49h20q34 0 40.5 9t6.5 45v483q0 31 -7 40t-40 9h-20v51zM44 863h53q4 -37 26 -55q18 -15 44 -15q57 0 68 70h52q2 -49 -30 -85q-34 -39 -91 -39q-48 0 -83.5 30.5t-38.5 93.5z" />
    <glyph glyph-name="ibreve" unicode="&#x12d;" horiz-adv-x="250" 
d="M19 467l146 13v-390q0 -30 4.5 -37.5t28.5 -7.5h23v-45h-193v45h23q23 0 29.5 7.5t6.5 41.5v275q0 36 -6.5 44t-36.5 8h-25v46zM-7 666h53q4 -37 26 -55q18 -15 44 -15q57 0 68 70h52q2 -49 -30 -85q-34 -39 -91 -39q-48 0 -83.5 30.5t-38.5 93.5z" />
    <glyph glyph-name="Iogonek" unicode="&#x12e;" 
d="M56 686h221v-51h-17q-36 0 -43 -9.5t-7 -47.5v-470q0 -40 7 -49.5t43 -9.5h17v-49h-65q-63 -44 -63 -89q0 -27 18 -39t39 -12q13 0 43 6v-47q-30 -8 -55 -8q-50 0 -78 25t-28 65q0 56 56 99h-88v49h20q34 0 40.5 9t6.5 45v483q0 31 -7 40t-40 9h-20v51z" />
    <glyph glyph-name="iogonek" unicode="&#x12f;" horiz-adv-x="250" 
d="M19 467l146 13v-390q0 -30 4.5 -37.5t28.5 -7.5h23v-45h-37q-63 -44 -63 -89q0 -27 18 -39t39 -12q13 0 43 6v-47q-30 -8 -55 -8q-50 0 -78 25t-28 65q0 56 56 99h-88v45h23q23 0 29.5 7.5t6.5 41.5v275q0 36 -6.5 44t-36.5 8h-25v46zM118 697q22 0 38 -15.5t16 -38.5
t-15.5 -38.5t-38.5 -15.5q-22 0 -38 15.5t-16 38.5q0 22 16 38t38 16z" />
    <glyph glyph-name="Idotaccent" unicode="&#x130;" 
d="M56 686h221v-51h-17q-36 0 -43 -9.5t-7 -47.5v-470q0 -40 7 -49.5t43 -9.5h17v-49h-221v49h20q34 0 40.5 9t6.5 45v483q0 31 -7 40t-40 9h-20v51zM122 783q0 19 13.5 31.5t31.5 12.5t31 -12.5t13 -31.5q0 -18 -13 -31t-31 -13t-31.5 13t-13.5 31z" />
    <glyph glyph-name="dotlessi" unicode="&#x131;" horiz-adv-x="250" 
d="M19 467l146 13v-390q0 -30 4.5 -37.5t28.5 -7.5h23v-45h-193v45h23q23 0 29.5 7.5t6.5 41.5v275q0 36 -6.5 44t-36.5 8h-25v46z" />
    <glyph glyph-name="Jcircumflex" unicode="&#x134;" horiz-adv-x="479" 
d="M221 686h226v-50h-24q-31 0 -37.5 -9.5t-6.5 -39.5v-387q0 -106 -51.5 -162t-153.5 -56q-74 0 -142 34v133h64v-31q0 -78 86 -78q31 0 53 11t33 25.5t17 40.5t7 43.5t1 45.5v385q0 18 -1.5 25.5t-11.5 13.5t-32 6h-27v50zM294 870h80l95 -129h-70l-67 88l-67 -88h-67z
" />
    <glyph glyph-name="jcircumflex" unicode="&#x135;" horiz-adv-x="239" 
d="M22 467l149 13v-490q0 -32 -2.5 -57.5t-11 -56t-23.5 -50.5t-43.5 -34t-66.5 -14q-52 0 -90 15v95h53q0 -18 1.5 -29t12.5 -22.5t31 -11.5q37 0 47.5 31.5t10.5 117.5v406q0 24 -6.5 33t-29.5 9l-10 -1h-22v46zM74 671h80l95 -129h-70l-67 88l-67 -88h-67z" />
    <glyph glyph-name="Kcommaaccent" unicode="&#x136;" horiz-adv-x="671" 
d="M45 686h221v-50h-20q-33 0 -40 -9t-7 -40v-222l222 226q18 18 18 29q0 16 -38 16v50h220v-50q-41 0 -64 -9.5t-53 -39.5l-215 -222l246 -253q28 -29 51.5 -43.5t35.5 -16.5t34 -3v-49h-249v49h20q26 0 26 17q0 11 -15 27l-239 249v-237q0 -36 7 -46t40 -10h20v-49h-221
v49h25q43 0 43 30v508q0 19 -2 27.5t-11.5 15t-29.5 6.5h-25v50zM333 -138h-7q-22 0 -37 14t-15 33q0 18 15 31.5t35 13.5q25 0 41.5 -19.5t16.5 -51.5q0 -40 -29 -67.5t-84 -37.5v33q31 6 46.5 17t17.5 34z" />
    <glyph glyph-name="kcommaaccent" unicode="&#x137;" horiz-adv-x="519" 
d="M10 689l148 15v-434l146 117q21 16 21 28q0 9 -8.5 11t-29.5 2v46h200v-46q-28 1 -42.5 -5.5t-41.5 -29.5l-160 -123l178 -180q28 -28 46.5 -36t41.5 -9v-45h-201v45q31 0 31 13q0 11 -21 32l-160 159v-159q0 -30 5 -37.5t30 -7.5h22v-45h-192v45h18q27 0 32.5 8.5
t5.5 42.5v509q0 30 -6.5 35.5t-34.5 5.5h-28v43zM265 -138h-7q-22 0 -37 14t-15 33q0 18 15 31.5t35 13.5q25 0 41.5 -19.5t16.5 -51.5q0 -40 -29 -67.5t-84 -37.5v33q31 6 46.5 17t17.5 34z" />
    <glyph glyph-name="kgreenlandic" unicode="&#x138;" horiz-adv-x="519" 
d="M16 474h192v-45h-19q-24 0 -30.5 -6.5t-7.5 -27.5v-125l146 117q21 16 21 28q0 9 -8 11t-30 2v46h200v-46q-28 1 -42 -5.5t-42 -29.5l-160 -123l178 -180q28 -28 46.5 -36t41.5 -9v-45h-201v45q31 0 31 13q0 11 -21 32l-160 159v-159q0 -30 5 -37.5t30 -7.5h22v-45h-192
v45h18q27 0 32.5 8.5t5.5 42.5v316q-2 10 -9 13.5t-25 3.5h-22v45z" />
    <glyph glyph-name="Lacute" unicode="&#x139;" horiz-adv-x="573" 
d="M48 686h230v-50h-26q-36 0 -43 -8.5t-7 -44.5v-523h237q25 0 33.5 8t8.5 39v55h65v-162h-498v49h21q33 0 40 9.5t7 41.5v491q0 26 -7.5 35.5t-39.5 9.5h-21v50zM198 863h97l-107 -129h-55z" />
    <glyph glyph-name="lacute" unicode="&#x13a;" horiz-adv-x="244" 
d="M10 688l150 16v-611q0 -33 5.5 -40.5t34.5 -7.5h16v-45h-196v45h15q30 0 37.5 7t7.5 41v505q0 35 -9 41t-61 5v44zM138 881h97l-107 -129h-55z" />
    <glyph glyph-name="Lcommaaccent" unicode="&#x13b;" horiz-adv-x="573" 
d="M48 686h230v-50h-26q-36 0 -43 -8.5t-7 -44.5v-523h237q25 0 33.5 8t8.5 39v55h65v-162h-498v49h21q33 0 40 9.5t7 41.5v491q0 26 -7.5 35.5t-39.5 9.5h-21v50zM313 -138h-7q-22 0 -37 14t-15 33q0 18 15 31.5t35 13.5q25 0 41.5 -19.5t16.5 -51.5q0 -40 -29 -67.5
t-84 -37.5v33q31 6 46.5 17t17.5 34z" />
    <glyph glyph-name="lcommaaccent" unicode="&#x13c;" horiz-adv-x="244" 
d="M10 688l150 16v-611q0 -33 5.5 -40.5t34.5 -7.5h16v-45h-196v45h15q30 0 37.5 7t7.5 41v505q0 35 -9 41t-61 5v44zM125 -138h-7q-22 0 -37 14t-15 33q0 18 15 31.5t35 13.5q25 0 41.5 -19.5t16.5 -51.5q0 -40 -29 -67.5t-84 -37.5v33q31 6 46.5 17t17.5 34z" />
    <glyph glyph-name="Lcaron" unicode="&#x13d;" horiz-adv-x="573" 
d="M48 686h230v-50h-26q-36 0 -43 -8.5t-7 -44.5v-523h237q25 0 33.5 8t8.5 39v55h65v-162h-498v49h21q33 0 40 9.5t7 41.5v491q0 26 -7.5 35.5t-39.5 9.5h-21v50zM319 469v39q37 19 51 38t19 49q-35 -1 -49 18t-14 38q0 22 15.5 37.5t37.5 15.5q31 0 48 -24.5t17 -59.5
q0 -13 -3 -27t-13.5 -39t-38.5 -48t-70 -37z" />
    <glyph glyph-name="lcaron" unicode="&#x13e;" horiz-adv-x="244" 
d="M10 688l150 16v-611q0 -33 5.5 -40.5t34.5 -7.5h16v-45h-196v45h15q30 0 37.5 7t7.5 41v505q0 35 -9 41t-61 5v44zM201 469v39q37 19 51 38t19 49q-35 -1 -49 18t-14 38q0 22 15.5 37.5t37.5 15.5q31 0 48 -24.5t17 -59.5q0 -13 -3 -27t-13.5 -39t-38.5 -48t-70 -37z" />
    <glyph glyph-name="Ldot" unicode="&#x13f;" horiz-adv-x="573" 
d="M48 686h230v-50h-26q-36 0 -43 -8.5t-7 -44.5v-523h237q25 0 33.5 8t8.5 39v55h65v-162h-498v49h21q33 0 40 9.5t7 41.5v491q0 26 -7.5 35.5t-39.5 9.5h-21v50zM340 412q22 0 38 -16t16 -38t-16 -38t-38 -16t-38 16t-16 38t16 38t38 16z" />
    <glyph glyph-name="ldot" unicode="&#x140;" horiz-adv-x="279" 
d="M10 688l150 16v-611q0 -33 5.5 -40.5t34.5 -7.5h16v-45h-196v45h15q30 0 37.5 7t7.5 41v505q0 35 -9 41t-61 5v44zM262 430q22 0 38 -16t16 -38t-16 -38t-38 -16t-38 16t-16 38t16 38t38 16z" />
    <glyph glyph-name="Lslash" unicode="&#x141;" horiz-adv-x="573" 
d="M48 686h230v-50h-26q-36 0 -43 -8.5t-7 -44.5v-167l107 80v-75l-107 -81v-280h237q25 0 33.5 8t8.5 39v55h65v-162h-498v49h21q33 0 40 9.5t7 41.5v176l-68 -51v76l68 50v240q0 26 -7.5 35.5t-39.5 9.5h-21v50z" />
    <glyph glyph-name="lslash" unicode="&#x142;" horiz-adv-x="244" 
d="M10 688l150 16v-289l72 72v-70l-72 -72v-252q0 -33 5.5 -40.5t34.5 -7.5h16v-45h-196v45h15q30 0 37.5 7t7.5 41v175l-73 -74v70l73 74v260q0 35 -9 41t-61 5v44z" />
    <glyph glyph-name="Nacute" unicode="&#x143;" horiz-adv-x="719" 
d="M45 686h197l310 -556h2v455q0 32 -7.5 41.5t-43.5 9.5h-17v50h204v-50h-22q-32 0 -39 -9.5t-7 -41.5v-594h-89l-350 628h-2v-519q0 -32 7 -41.5t40 -9.5h20v-49h-203v49h24q30 0 36.5 10.5t6.5 45.5v487q0 14 -1 20.5t-5 13.5t-13.5 8.5t-26.5 1.5h-21v50zM399 868h97
l-107 -129h-55z" />
    <glyph glyph-name="nacute" unicode="&#x144;" horiz-adv-x="542" 
d="M19 462l136 13q5 -17 6 -31l3 -38q9 14 17 23t26 24.5t45 23.5t61 8q43 0 73.5 -14.5t45 -32.5t22.5 -47t9 -44t1 -38v-226q0 -26 5 -32t32 -6h19v-45h-194v45h16q29 0 34.5 7.5t5.5 45.5v204q0 22 -2 37t-10 36.5t-28.5 33t-52.5 11.5q-33 0 -63.5 -16.5t-45.5 -49.5
q-16 -34 -16 -95v-169q0 -31 6 -38t32 -7h20v-45h-193v45h19q27 0 32.5 9t5.5 39v277q0 30 -4 39t-23 9q-23 0 -40 -1v45zM290 671h97l-107 -129h-55z" />
    <glyph glyph-name="Ncommaaccent" unicode="&#x145;" horiz-adv-x="719" 
d="M45 686h197l310 -556h2v455q0 32 -7.5 41.5t-43.5 9.5h-17v50h204v-50h-22q-32 0 -39 -9.5t-7 -41.5v-594h-89l-350 628h-2v-519q0 -32 7 -41.5t40 -9.5h20v-49h-203v49h24q30 0 36.5 10.5t6.5 45.5v487q0 14 -1 20.5t-5 13.5t-13.5 8.5t-26.5 1.5h-21v50zM368 -138h-7
q-22 0 -37 14t-15 33q0 18 15 31.5t35 13.5q25 0 41.5 -19.5t16.5 -51.5q0 -40 -29 -67.5t-84 -37.5v33q31 6 46.5 17t17.5 34z" />
    <glyph glyph-name="ncommaaccent" unicode="&#x146;" horiz-adv-x="542" 
d="M19 462l136 13q5 -17 6 -31l3 -38q9 14 17 23t26 24.5t45 23.5t61 8q43 0 73.5 -14.5t45 -32.5t22.5 -47t9 -44t1 -38v-226q0 -26 5 -32t32 -6h19v-45h-194v45h16q29 0 34.5 7.5t5.5 45.5v204q0 22 -2 37t-10 36.5t-28.5 33t-52.5 11.5q-33 0 -63.5 -16.5t-45.5 -49.5
q-16 -34 -16 -95v-169q0 -31 6 -38t32 -7h20v-45h-193v45h19q27 0 32.5 9t5.5 39v277q0 30 -4 39t-23 9q-23 0 -40 -1v45zM279 -138h-7q-22 0 -37 14t-15 33q0 18 15 31.5t35 13.5q25 0 41.5 -19.5t16.5 -51.5q0 -40 -29 -67.5t-84 -37.5v33q31 6 46.5 17t17.5 34z" />
    <glyph glyph-name="Ncaron" unicode="&#x147;" horiz-adv-x="719" 
d="M45 686h197l310 -556h2v455q0 32 -7.5 41.5t-43.5 9.5h-17v50h204v-50h-22q-32 0 -39 -9.5t-7 -41.5v-594h-89l-350 628h-2v-519q0 -32 7 -41.5t40 -9.5h20v-49h-203v49h24q30 0 36.5 10.5t6.5 45.5v487q0 14 -1 20.5t-5 13.5t-13.5 8.5t-26.5 1.5h-21v50zM234 868h70
l67 -88l67 88h67l-96 -129h-80z" />
    <glyph glyph-name="ncaron" unicode="&#x148;" horiz-adv-x="542" 
d="M19 462l136 13q5 -17 6 -31l3 -38q9 14 17 23t26 24.5t45 23.5t61 8q43 0 73.5 -14.5t45 -32.5t22.5 -47t9 -44t1 -38v-226q0 -26 5 -32t32 -6h19v-45h-194v45h16q29 0 34.5 7.5t5.5 45.5v204q0 22 -2 37t-10 36.5t-28.5 33t-52.5 11.5q-33 0 -63.5 -16.5t-45.5 -49.5
q-16 -34 -16 -95v-169q0 -31 6 -38t32 -7h20v-45h-193v45h19q27 0 32.5 9t5.5 39v277q0 30 -4 39t-23 9q-23 0 -40 -1v45zM136 671h70l67 -88l67 88h67l-96 -129h-80z" />
    <glyph glyph-name="Eng" unicode="&#x14a;" horiz-adv-x="719" 
d="M45 686h197l310 -506h2v405q0 32 -7.5 41.5t-43.5 9.5h-17v50h204v-50h-22q-32 0 -39 -9.5t-7 -41.5v-585q0 -35 -2 -60.5t-11 -58t-25.5 -53.5t-47 -35.5t-73.5 -14.5q-61 0 -114 34v133h50v-31q0 -78 70 -78q21 0 36.5 4.5t24.5 18t14 23t7 34.5t2.5 38t0.5 46
l-371 619h-2v-519q0 -32 7 -41.5t40 -9.5h20v-49h-203v49h24q30 0 36.5 10.5t6.5 45.5v487q0 14 -1 20.5t-5 13.5t-13.5 8.5t-26.5 1.5h-21v50z" />
    <glyph glyph-name="eng" unicode="&#x14b;" horiz-adv-x="542" 
d="M19 462l136 13q5 -18 6 -31l3 -38q9 14 17 23t26 24.5t45 23.5t61 8q43 0 73.5 -14.5t45 -32.5t22.5 -47t9 -44t1 -38v-319q0 -32 -2.5 -57.5t-11 -56t-23.5 -50.5t-43.5 -34t-66.5 -14q-52 0 -90 15v95h53q0 -18 1.5 -29t12.5 -22.5t31 -11.5q37 0 47.5 31.5t10.5 117.5
l-1 328q0 22 -2 37t-10 36.5t-28.5 33t-52.5 11.5q-33 0 -63.5 -16.5t-45.5 -49.5q-16 -34 -16 -95v-169q0 -31 6 -38t32 -7h20v-45h-193v45h19q27 0 32.5 9t5.5 39v277q0 30 -4 39t-23 9q-23 0 -40 -1v45z" />
    <glyph glyph-name="Omacron" unicode="&#x14c;" horiz-adv-x="760" 
d="M382 704q81 0 144.5 -29t103 -79.5t59.5 -114t20 -135.5q0 -162 -92.5 -263t-240.5 -101q-143 0 -234 96t-91 257q0 169 91.5 269t239.5 100zM381 638q-69 0 -118.5 -28t-73.5 -74.5t-34.5 -94t-10.5 -99.5q0 -60 13 -111t39.5 -93t74 -66t110.5 -24q109 0 171.5 80
t62.5 225q0 144 -66 214.5t-168 70.5zM233 795h295v-54h-295v54z" />
    <glyph glyph-name="omacron" unicode="&#x14d;" horiz-adv-x="542" 
d="M278 485q103 0 162.5 -63.5t59.5 -178.5q0 -95 -47 -165q-63 -93 -189 -93q-61 0 -106.5 22t-69.5 59t-35 77t-11 85q0 106 59.5 181.5t176.5 75.5zM272 427q-72 0 -109.5 -55t-37.5 -139q0 -48 14 -89.5t48.5 -71t84.5 -29.5q80 0 119 74q25 48 25 121q0 58 -14.5 98
t-38.5 58.5t-45.5 25.5t-45.5 7zM124 596h295v-54h-295v54z" />
    <glyph glyph-name="Obreve" unicode="&#x14e;" horiz-adv-x="760" 
d="M382 704q81 0 144.5 -29t103 -79.5t59.5 -114t20 -135.5q0 -162 -92.5 -263t-240.5 -101q-143 0 -234 96t-91 257q0 169 91.5 269t239.5 100zM381 638q-69 0 -118.5 -28t-73.5 -74.5t-34.5 -94t-10.5 -99.5q0 -60 13 -111t39.5 -93t74 -66t110.5 -24q109 0 171.5 80
t62.5 225q0 144 -66 214.5t-168 70.5zM261 865h53q4 -37 26 -55q18 -15 44 -15q57 0 68 70h52q2 -49 -30 -85q-34 -39 -91 -39q-48 0 -83.5 30.5t-38.5 93.5z" />
    <glyph glyph-name="obreve" unicode="&#x14f;" horiz-adv-x="542" 
d="M278 485q103 0 162.5 -63.5t59.5 -178.5q0 -95 -47 -165q-63 -93 -189 -93q-61 0 -106.5 22t-69.5 59t-35 77t-11 85q0 106 59.5 181.5t176.5 75.5zM272 427q-72 0 -109.5 -55t-37.5 -139q0 -48 14 -89.5t48.5 -71t84.5 -29.5q80 0 119 74q25 48 25 121q0 58 -14.5 98
t-38.5 58.5t-45.5 25.5t-45.5 7zM149 666h53q4 -37 26 -55q18 -15 44 -15q57 0 68 70h52q2 -49 -30 -85q-34 -39 -91 -39q-48 0 -83.5 30.5t-38.5 93.5z" />
    <glyph glyph-name="Ohungarumlaut" unicode="&#x150;" horiz-adv-x="760" 
d="M382 704q81 0 144.5 -29t103 -79.5t59.5 -114t20 -135.5q0 -162 -92.5 -263t-240.5 -101q-143 0 -234 96t-91 257q0 169 91.5 269t239.5 100zM381 638q-69 0 -118.5 -28t-73.5 -74.5t-34.5 -94t-10.5 -99.5q0 -60 13 -111t39.5 -93t74 -66t110.5 -24q109 0 171.5 80
t62.5 225q0 144 -66 214.5t-168 70.5zM327 870h97l-107 -129h-55zM474 870h97l-107 -129h-55z" />
    <glyph glyph-name="ohungarumlaut" unicode="&#x151;" horiz-adv-x="542" 
d="M278 485q103 0 162.5 -63.5t59.5 -178.5q0 -95 -47 -165q-63 -93 -189 -93q-61 0 -106.5 22t-69.5 59t-35 77t-11 85q0 106 59.5 181.5t176.5 75.5zM272 427q-72 0 -109.5 -55t-37.5 -139q0 -48 14 -89.5t48.5 -71t84.5 -29.5q80 0 119 74q25 48 25 121q0 58 -14.5 98
t-38.5 58.5t-45.5 25.5t-45.5 7zM217 671h97l-107 -129h-55zM364 671h97l-107 -129h-55z" />
    <glyph glyph-name="OE" unicode="&#x152;" horiz-adv-x="1010" 
d="M512 686h445v-155h-64v50q0 11 -0.5 16.5t-4 12.5t-11.5 9.5t-22 2.5h-245v-240h172q34 0 42.5 8t8.5 34v25h56v-197h-56v31q0 24 -9 31t-42 7h-172v-261h241q32 0 43 4.5t12 26.5q0 2 0.5 7t0.5 6v47h63v-151h-413q-32 0 -62 -3q-22 0 -70 -2q-98 -3 -172 23.5
t-117 75.5t-64 110t-21 133q0 164 95 259q92 92 262 92q9 0 53 -1t51 -1zM524 102v473q0 23 -4 32t-28.5 16t-77.5 7q-126 0 -193 -65q-78 -75 -78 -222t84 -227q67 -63 212 -63q41 0 60 6.5t22 14.5t3 28z" />
    <glyph glyph-name="oe" unicode="&#x153;" horiz-adv-x="862" 
d="M817 243h-327q-1 -96 40.5 -144t104.5 -48q87 0 160 66l10 9v-72q-25 -20 -42.5 -31.5t-56 -24.5t-82.5 -13q-119 0 -175 99q-65 -99 -182 -99q-107 0 -165.5 65.5t-58.5 178.5q0 124 67.5 191.5t167.5 67.5q126 0 179 -97q54 97 167 97q193 0 193 -245zM494 297h240
q-2 64 -32.5 99.5t-80.5 35.5q-61 0 -98 -53q-20 -28 -29 -82zM271 430q-72 0 -108 -55t-36 -138q0 -60 16 -101.5t41.5 -60t46.5 -25.5t42 -7q64 0 104.5 50.5t40.5 146.5t-41 143t-106 47z" />
    <glyph glyph-name="Racute" unicode="&#x154;" horiz-adv-x="644" 
d="M43 686h281q19 0 33 -1t44 -5.5t52 -16.5t45 -31t35.5 -52.5t12.5 -77.5q0 -94 -65 -149q-25 -20 -69 -35l116 -205q19 -34 41 -49t57 -15h23v-49h-154l-171 308h-128v-213q0 -27 7.5 -36.5t39.5 -9.5h20v-49h-220v49h19q34 0 41 9.5t7 46.5v484q0 16 -1 22.5t-5 13.5
t-14 9t-28 2h-19v50zM196 626v-259h100q165 0 165 129q0 130 -152 130h-113zM297 868h97l-107 -129h-55z" />
    <glyph glyph-name="racute" unicode="&#x155;" horiz-adv-x="362" 
d="M22 460l132 14q9 -52 9 -87h2q50 93 137 93q26 0 50 -12v-99h-55v14q0 32 -29 32q-36 0 -70 -53.5t-34 -151.5v-131q0 -22 8 -28t26 -6h28v-45h-195v45h15q27 0 34.5 9t7.5 36v283q0 28 -6.5 35.5t-32.5 7.5h-27v44zM209 671h97l-107 -129h-55z" />
    <glyph glyph-name="Rcommaaccent" unicode="&#x156;" horiz-adv-x="644" 
d="M43 686h281q19 0 33 -1t44 -5.5t52 -16.5t45 -31t35.5 -52.5t12.5 -77.5q0 -94 -65 -149q-25 -20 -69 -35l116 -205q19 -34 41 -49t57 -15h23v-49h-154l-171 308h-128v-213q0 -27 7.5 -36.5t39.5 -9.5h20v-49h-220v49h19q34 0 41 9.5t7 46.5v484q0 16 -1 22.5t-5 13.5
t-14 9t-28 2h-19v50zM196 626v-259h100q165 0 165 129q0 130 -152 130h-113zM348 -138h-7q-22 0 -37 14t-15 33q0 18 15 31.5t35 13.5q25 0 41.5 -19.5t16.5 -51.5q0 -40 -29 -67.5t-84 -37.5v33q31 6 46.5 17t17.5 34z" />
    <glyph glyph-name="rcommaaccent" unicode="&#x157;" horiz-adv-x="362" 
d="M22 460l132 14q9 -52 9 -87h2q50 93 137 93q26 0 50 -12v-99h-55v14q0 32 -29 32q-36 0 -70 -53.5t-34 -151.5v-131q0 -22 8 -28t26 -6h28v-45h-195v45h15q27 0 34.5 9t7.5 36v283q0 28 -6.5 35.5t-32.5 7.5h-27v44zM142 -138h-7q-22 0 -37 14t-15 33q0 18 15 31.5
t35 13.5q25 0 41.5 -19.5t16.5 -51.5q0 -40 -29 -67.5t-84 -37.5v33q31 6 46.5 17t17.5 34z" />
    <glyph glyph-name="Rcaron" unicode="&#x158;" horiz-adv-x="644" 
d="M43 686h281q19 0 33 -1t44 -5.5t52 -16.5t45 -31t35.5 -52.5t12.5 -77.5q0 -94 -65 -149q-25 -20 -69 -35l116 -205q19 -34 41 -49t57 -15h23v-49h-154l-171 308h-128v-213q0 -27 7.5 -36.5t39.5 -9.5h20v-49h-220v49h19q34 0 41 9.5t7 46.5v484q0 16 -1 22.5t-5 13.5
t-14 9t-28 2h-19v50zM196 626v-259h100q165 0 165 129q0 130 -152 130h-113zM166 868h70l67 -88l67 88h67l-96 -129h-80z" />
    <glyph glyph-name="rcaron" unicode="&#x159;" horiz-adv-x="362" 
d="M22 460l132 14q9 -52 9 -87h2q50 93 137 93q26 0 50 -12v-99h-55v14q0 32 -29 32q-36 0 -70 -53.5t-34 -151.5v-131q0 -22 8 -28t26 -6h28v-45h-195v45h15q27 0 34.5 9t7.5 36v283q0 28 -6.5 35.5t-32.5 7.5h-27v44zM42 671h70l67 -88l67 88h67l-96 -129h-80z" />
    <glyph glyph-name="Sacute" unicode="&#x15a;" horiz-adv-x="531" 
d="M464 661v-151h-67v26q0 59 -17 74q-35 35 -109 35q-66 0 -94.5 -33t-28.5 -70q0 -22 8.5 -40.5t19 -31.5t36 -29.5t43.5 -26t57 -29.5q36 -18 54 -27.5t45.5 -29t41 -38t24.5 -47.5t11 -63q0 -29 -9.5 -59t-32 -63.5t-70.5 -54.5t-115 -21q-126 0 -215 40v172h72v-38
q0 -50 20 -72q37 -43 121 -43q60 0 100.5 32.5t40.5 88.5q0 54 -32 84t-107 68q-41 21 -61.5 32t-52 32.5t-47 40.5t-27.5 47.5t-12 61.5q0 67 54 121.5t162 54.5q101 0 187 -43zM285 868h97l-107 -129h-55z" />
    <glyph glyph-name="sacute" unicode="&#x15b;" horiz-adv-x="420" 
d="M41 151h65v-38q0 -16 3 -27t11.5 -23.5t29 -19.5t52.5 -7q28 0 48 8t29.5 17.5t15 22.5t6 19t0.5 12q0 48 -81 86l-48 22q-31 14 -45 21.5t-37 24.5t-33 38t-10 49q0 52 41 91t123 39q81 0 145 -30v-124h-60v35q0 13 -2 21.5t-9 21.5t-27 20.5t-51 7.5q-44 0 -64.5 -20
t-20.5 -48q0 -31 23.5 -49t87.5 -46q37 -16 55.5 -25.5t44 -27.5t36.5 -41.5t11 -53.5q0 -19 -6.5 -39.5t-23.5 -45.5t-55.5 -41t-93.5 -16q-82 0 -160 31v135zM228 671h97l-107 -129h-55z" />
    <glyph glyph-name="Scircumflex" unicode="&#x15c;" horiz-adv-x="531" 
d="M464 661v-151h-67v26q0 59 -17 74q-35 35 -109 35q-66 0 -94.5 -33t-28.5 -70q0 -22 8.5 -40.5t19 -31.5t36 -29.5t43.5 -26t57 -29.5q36 -18 54 -27.5t45.5 -29t41 -38t24.5 -47.5t11 -63q0 -29 -9.5 -59t-32 -63.5t-70.5 -54.5t-115 -21q-126 0 -215 40v172h72v-38
q0 -50 20 -72q37 -43 121 -43q60 0 100.5 32.5t40.5 88.5q0 54 -32 84t-107 68q-41 21 -61.5 32t-52 32.5t-47 40.5t-27.5 47.5t-12 61.5q0 67 54 121.5t162 54.5q101 0 187 -43zM239 868h80l95 -129h-70l-67 88l-67 -88h-67z" />
    <glyph glyph-name="scircumflex" unicode="&#x15d;" horiz-adv-x="420" 
d="M41 151h65v-38q0 -16 3 -27t11.5 -23.5t29 -19.5t52.5 -7q28 0 48 8t29.5 17.5t15 22.5t6 19t0.5 12q0 48 -81 86l-48 22q-31 14 -45 21.5t-37 24.5t-33 38t-10 49q0 52 41 91t123 39q81 0 145 -30v-124h-60v35q0 13 -2 21.5t-9 21.5t-27 20.5t-51 7.5q-44 0 -64.5 -20
t-20.5 -48q0 -31 23.5 -49t87.5 -46q37 -16 55.5 -25.5t44 -27.5t36.5 -41.5t11 -53.5q0 -19 -6.5 -39.5t-23.5 -45.5t-55.5 -41t-93.5 -16q-82 0 -160 31v135zM169 671h80l95 -129h-70l-67 88l-67 -88h-67z" />
    <glyph glyph-name="Scedilla" unicode="&#x15e;" horiz-adv-x="531" 
d="M464 661v-151h-67v26q0 59 -17 74q-35 35 -109 35q-66 0 -94.5 -33t-28.5 -70q0 -22 8.5 -40.5t19 -31.5t36 -29.5t43.5 -26t57 -29.5q36 -18 54 -27.5t45.5 -29t41 -38t24.5 -47.5t11 -63q0 -28 -8.5 -56.5t-28.5 -60.5t-63.5 -54t-103.5 -26l-7 -23q41 -2 60 -24.5
t19 -47.5q0 -31 -26 -57t-88 -26q-40 0 -86 13v46q41 -12 78 -12q57 0 57 36q0 18 -16 26.5t-36 8.5q-13 0 -25 -1l16 61q-108 5 -184 39v172h72v-38q0 -50 20 -72q37 -43 121 -43q60 0 100.5 32.5t40.5 88.5q0 54 -32 84t-107 68q-41 21 -61.5 32t-52 32.5t-47 40.5
t-27.5 47.5t-12 61.5q0 67 54 121.5t162 54.5q101 0 187 -43z" />
    <glyph glyph-name="scedilla" unicode="&#x15f;" horiz-adv-x="420" 
d="M41 151h65v-38q0 -16 3 -27t11.5 -23.5t29 -19.5t52.5 -7q28 0 48 8t29.5 17.5t15 22.5t6 19t0.5 12q0 48 -81 86l-46 22q-29 13 -45.5 21.5t-38.5 24.5t-32.5 37.5t-10.5 49.5q0 52 41 91t123 39q81 0 145 -30v-124h-60v35q0 13 -2 21.5t-9 21.5t-27 20.5t-51 7.5
q-44 0 -64.5 -20t-20.5 -48q0 -31 23.5 -49t87.5 -46q37 -16 55.5 -25.5t44 -27.5t36.5 -41.5t11 -53.5q0 -18 -5.5 -37t-20 -42.5t-46.5 -40.5t-78 -21l-8 -26q41 -2 60 -24.5t19 -47.5q0 -31 -26 -57t-88 -26q-41 0 -86 13v46q41 -12 78 -12q57 0 57 36q0 18 -16 26.5
t-36 8.5q-13 0 -25 -1l17 64q-74 6 -135 30v135z" />
    <glyph glyph-name="Scaron" unicode="&#x160;" horiz-adv-x="531" 
d="M464 661v-151h-67v26q0 59 -17 74q-35 35 -109 35q-66 0 -94.5 -33t-28.5 -70q0 -22 8.5 -40.5t19 -31.5t36 -29.5t43.5 -26t57 -29.5q36 -18 54 -27.5t45.5 -29t41 -38t24.5 -47.5t11 -63q0 -29 -9.5 -59t-32 -63.5t-70.5 -54.5t-115 -21q-126 0 -215 40v172h72v-38
q0 -50 20 -72q37 -43 121 -43q60 0 100.5 32.5t40.5 88.5q0 54 -32 84t-107 68q-41 21 -61.5 32t-52 32.5t-47 40.5t-27.5 47.5t-12 61.5q0 67 54 121.5t162 54.5q101 0 187 -43zM140 870h70l67 -88l67 88h67l-96 -129h-80z" />
    <glyph glyph-name="scaron" unicode="&#x161;" horiz-adv-x="420" 
d="M41 151h65v-38q0 -16 3 -27t11.5 -23.5t29 -19.5t52.5 -7q28 0 48 8t29.5 17.5t15 22.5t6 19t0.5 12q0 48 -81 86l-48 22q-31 14 -45 21.5t-37 24.5t-33 38t-10 49q0 52 41 91t123 39q81 0 145 -30v-124h-60v35q0 13 -2 21.5t-9 21.5t-27 20.5t-51 7.5q-44 0 -64.5 -20
t-20.5 -48q0 -31 23.5 -49t87.5 -46q37 -16 55.5 -25.5t44 -27.5t36.5 -41.5t11 -53.5q0 -19 -6.5 -39.5t-23.5 -45.5t-55.5 -41t-93.5 -16q-82 0 -160 31v135zM73 671h70l67 -88l67 88h67l-96 -129h-80z" />
    <glyph glyph-name="Tcommaaccent" unicode="&#x162;" horiz-adv-x="646" 
d="M24 686h598v-165h-64v62q0 14 -1 20t-5 12.5t-14 8.5t-28 2h-144v-523q0 -35 7.5 -44.5t43.5 -9.5h21v-49h-230v49h28q30 0 37 9t7 40v528h-140q-36 0 -44 -9t-8 -44v-52h-64v165zM331 -138h-7q-22 0 -37 14t-15 33q0 18 15 31.5t35 13.5q25 0 41.5 -19.5t16.5 -51.5
q0 -40 -29 -67.5t-84 -37.5v33q31 6 46.5 17t17.5 34z" />
    <glyph glyph-name="tcommaaccent" unicode="&#x163;" horiz-adv-x="313" 
d="M113 603h47v-129h126v-58h-126v-287q0 -78 50 -78q29 0 84 29v-58q-62 -34 -109 -34q-30 0 -51.5 10t-32 22t-16 32t-6 31t-0.5 28v305h-60v41q28 10 47 26.5t28 40.5t12.5 38.5t6.5 40.5zM193 -138h-7q-22 0 -37 14t-15 33q0 18 15 31.5t35 13.5q25 0 41.5 -19.5
t16.5 -51.5q0 -40 -29 -67.5t-84 -37.5v33q31 6 46.5 17t17.5 34z" />
    <glyph glyph-name="Tcaron" unicode="&#x164;" horiz-adv-x="646" 
d="M24 686h598v-165h-64v62q0 14 -1 20t-5 12.5t-14 8.5t-28 2h-144v-523q0 -35 7.5 -44.5t43.5 -9.5h21v-49h-230v49h28q30 0 37 9t7 40v528h-140q-36 0 -44 -9t-8 -44v-52h-64v165zM188 870h70l67 -88l67 88h67l-96 -129h-80z" />
    <glyph glyph-name="tcaron" unicode="&#x165;" horiz-adv-x="313" 
d="M113 603h47v-129h126v-58h-126v-287q0 -78 50 -78q31 0 84 29v-58q-62 -34 -109 -34q-30 0 -51.5 10t-32 22t-16 32t-6 31t-0.5 28v305h-60v41q28 10 47 26.5t28 40.5t12.5 38.5t6.5 40.5zM206 489v39q36 14 51.5 27t21.5 38q-37 1 -51.5 20t-14.5 38q0 22 15.5 37.5
t37.5 15.5q31 0 48 -24.5t17 -59.5q0 -8 -1.5 -18t-9 -27t-20 -31.5t-37 -30t-57.5 -24.5z" />
    <glyph glyph-name="Tbar" unicode="&#x166;" horiz-adv-x="646" 
d="M24 686h598v-165h-64v62q0 14 -1 20t-5 12.5t-14 8.5t-28 2h-144v-223h155v-54h-155v-246q0 -35 7.5 -44.5t43.5 -9.5h21v-49h-230v49h28q30 0 37 9t7 40v251h-154v54h154v223h-140q-36 0 -44 -9t-8 -44v-52h-64v165z" />
    <glyph glyph-name="tbar" unicode="&#x167;" horiz-adv-x="313" 
d="M113 603h47v-129h126v-58h-126v-90h120v-54h-120v-143q0 -78 50 -78q26 0 73 23l11 6v-58q-62 -34 -109 -34q-30 0 -51.5 10t-32 22t-16 32t-6 31t-0.5 28v161h-61v54h61v90h-60v41q28 10 47 26.5t28 40.5t12.5 38.5t6.5 40.5z" />
    <glyph glyph-name="Utilde" unicode="&#x168;" horiz-adv-x="719" 
d="M30 686h224v-50h-24q-31 0 -37.5 -10t-6.5 -46v-334q0 -28 2 -48.5t12 -51t28 -50.5t53.5 -34.5t85.5 -14.5q51 0 87.5 15.5t54 35t27 50t11 47.5t1.5 41v344q0 36 -6.5 46t-38.5 10h-22v50h208v-50h-25q-16 0 -24.5 -2t-12 -10t-4 -14t-0.5 -23v-346q0 -259 -259 -259
q-266 0 -266 254v351q0 21 -2 29.5t-13 14t-35 5.5h-18v50zM265 739h-55q8 94 92 94q29 0 62 -17q42 -22 56 -22q29 0 35 39h54q-1 -43 -25.5 -69t-57.5 -26q-29 0 -70 19l-33 15q-15 6 -24 6q-27 0 -34 -39z" />
    <glyph glyph-name="utilde" unicode="&#x169;" horiz-adv-x="531" 
d="M8 470l149 10v-302q0 -20 0.5 -31.5t5 -30.5t13.5 -30t27 -19.5t43 -8.5q62 0 95.5 39.5t33.5 110.5v177q0 30 -10 35.5t-59 4.5v45l147 10v-376q0 -19 1 -26.5t6.5 -13.5t18.5 -6h40v-43l-135 -15q-9 37 -9 73h-2q-45 -85 -147 -85q-151 0 -151 172v225q0 30 -9.5 35.5
t-57.5 4.5v45zM171 542h-55q8 94 92 94q29 0 62 -17q42 -22 56 -22q29 0 35 39h54q-1 -43 -25.5 -69t-57.5 -26q-29 0 -70 19l-33 15q-15 6 -24 6q-27 0 -34 -39z" />
    <glyph glyph-name="Umacron" unicode="&#x16a;" horiz-adv-x="719" 
d="M30 686h224v-50h-24q-31 0 -37.5 -10t-6.5 -46v-334q0 -28 2 -48.5t12 -51t28 -50.5t53.5 -34.5t85.5 -14.5q51 0 87.5 15.5t54 35t27 50t11 47.5t1.5 41v344q0 36 -6.5 46t-38.5 10h-22v50h208v-50h-25q-16 0 -24.5 -2t-12 -10t-4 -14t-0.5 -23v-346q0 -259 -259 -259
q-266 0 -266 254v351q0 21 -2 29.5t-13 14t-35 5.5h-18v50zM222 793h295v-54h-295v54z" />
    <glyph glyph-name="umacron" unicode="&#x16b;" horiz-adv-x="531" 
d="M8 470l149 10v-302q0 -20 0.5 -31.5t5 -30.5t13.5 -30t27 -19.5t43 -8.5q62 0 95.5 39.5t33.5 110.5v177q0 30 -10 35.5t-59 4.5v45l147 10v-376q0 -19 1 -26.5t6.5 -13.5t18.5 -6h40v-43l-135 -15q-9 37 -9 73h-2q-45 -85 -147 -85q-151 0 -151 172v225q0 30 -9.5 35.5
t-57.5 4.5v45zM118 596h295v-54h-295v54z" />
    <glyph glyph-name="Ubreve" unicode="&#x16c;" horiz-adv-x="719" 
d="M30 686h224v-50h-24q-31 0 -37.5 -10t-6.5 -46v-334q0 -28 2 -48.5t12 -51t28 -50.5t53.5 -34.5t85.5 -14.5q51 0 87.5 15.5t54 35t27 50t11 47.5t1.5 41v344q0 36 -6.5 46t-38.5 10h-22v50h208v-50h-25q-16 0 -24.5 -2t-12 -10t-4 -14t-0.5 -23v-346q0 -259 -259 -259
q-266 0 -266 254v351q0 21 -2 29.5t-13 14t-35 5.5h-18v50zM252 863h53q4 -37 26 -55q18 -15 44 -15q57 0 68 70h52q2 -49 -30 -85q-34 -39 -91 -39q-48 0 -83.5 30.5t-38.5 93.5z" />
    <glyph glyph-name="ubreve" unicode="&#x16d;" horiz-adv-x="531" 
d="M8 470l149 10v-302q0 -20 0.5 -31.5t5 -30.5t13.5 -30t27 -19.5t43 -8.5q62 0 95.5 39.5t33.5 110.5v177q0 30 -10 35.5t-59 4.5v45l147 10v-376q0 -19 1 -26.5t6.5 -13.5t18.5 -6h40v-43l-135 -15q-9 37 -9 73h-2q-45 -85 -147 -85q-151 0 -151 172v225q0 30 -9.5 35.5
t-57.5 4.5v45zM144 666h53q4 -37 26 -55q18 -15 44 -15q57 0 68 70h52q2 -49 -30 -85q-34 -39 -91 -39q-48 0 -83.5 30.5t-38.5 93.5z" />
    <glyph glyph-name="Uring" unicode="&#x16e;" horiz-adv-x="719" 
d="M30 686h224v-50h-24q-31 0 -37.5 -10t-6.5 -46v-334q0 -28 2 -48.5t12 -51t28 -50.5t53.5 -34.5t85.5 -14.5q51 0 87.5 15.5t54 35t27 50t11 47.5t1.5 41v344q0 36 -6.5 46t-38.5 10h-22v50h208v-50h-25q-16 0 -24.5 -2t-12 -10t-4 -14t-0.5 -23v-346q0 -259 -259 -259
q-266 0 -266 254v351q0 21 -2 29.5t-13 14t-35 5.5h-18v50zM283 829q0 37 26.5 63.5t64.5 26.5q37 0 63.5 -26.5t26.5 -63.5t-26.5 -63.5t-63.5 -26.5q-38 0 -64.5 26.5t-26.5 63.5zM373 883q-22 0 -38 -16t-16 -38q0 -23 15.5 -38.5t38.5 -15.5t38.5 15.5t15.5 38.5
t-15.5 38.5t-38.5 15.5z" />
    <glyph glyph-name="uring" unicode="&#x16f;" horiz-adv-x="531" 
d="M8 470l149 10v-302q0 -20 0.5 -31.5t5 -30.5t13.5 -30t27 -19.5t43 -8.5q62 0 95.5 39.5t33.5 110.5v177q0 30 -10 35.5t-59 4.5v45l147 10v-376q0 -19 1 -26.5t6.5 -13.5t18.5 -6h40v-43l-135 -15q-9 37 -9 73h-2q-45 -85 -147 -85q-151 0 -151 172v225q0 30 -9.5 35.5
t-57.5 4.5v45zM175 632q0 37 26.5 63.5t64.5 26.5q37 0 63.5 -26.5t26.5 -63.5t-26.5 -63.5t-63.5 -26.5q-38 0 -64.5 26.5t-26.5 63.5zM265 686q-22 0 -38 -16t-16 -38t15.5 -38t38.5 -16t38.5 16t15.5 38t-15.5 38t-38.5 16z" />
    <glyph glyph-name="Uhungarumlaut" unicode="&#x170;" horiz-adv-x="719" 
d="M30 686h224v-50h-24q-31 0 -37.5 -10t-6.5 -46v-334q0 -28 2 -48.5t12 -51t28 -50.5t53.5 -34.5t85.5 -14.5q51 0 87.5 15.5t54 35t27 50t11 47.5t1.5 41v344q0 36 -6.5 46t-38.5 10h-22v50h208v-50h-25q-16 0 -24.5 -2t-12 -10t-4 -14t-0.5 -23v-346q0 -259 -259 -259
q-266 0 -266 254v351q0 21 -2 29.5t-13 14t-35 5.5h-18v50zM325 868h97l-107 -129h-55zM472 868h97l-107 -129h-55z" />
    <glyph glyph-name="uhungarumlaut" unicode="&#x171;" horiz-adv-x="531" 
d="M8 470l149 10v-302q0 -20 0.5 -31.5t5 -30.5t13.5 -30t27 -19.5t43 -8.5q62 0 95.5 39.5t33.5 110.5v177q0 30 -10 35.5t-59 4.5v45l147 10v-376q0 -19 1 -26.5t6.5 -13.5t18.5 -6h40v-43l-135 -15q-9 37 -9 73h-2q-45 -85 -147 -85q-151 0 -151 172v225q0 30 -9.5 35.5
t-57.5 4.5v45zM211 671h97l-107 -129h-55zM358 671h97l-107 -129h-55z" />
    <glyph glyph-name="Uogonek" unicode="&#x172;" horiz-adv-x="719" 
d="M30 686h224v-50h-24q-31 0 -37.5 -10t-6.5 -46v-334q0 -28 2 -48.5t12 -51t28 -50.5t53.5 -34.5t85.5 -14.5q51 0 87.5 15.5t54 35t27 50t11 47.5t1.5 41v344q0 36 -6.5 46t-38.5 10h-22v50h208v-50h-25q-29 0 -35.5 -9.5t-5.5 -39.5v-346q0 -187 -137 -240
q-66 -43 -66 -90q0 -27 18 -39t39 -12q13 0 43 6v-47q-30 -8 -55 -8q-50 0 -78 25t-28 65q0 46 37 83q-20 -2 -32 -2q-266 0 -266 254v351q0 21 -2 29.5t-13 14t-35 5.5h-18v50z" />
    <glyph glyph-name="uogonek" unicode="&#x173;" horiz-adv-x="531" 
d="M8 470l149 10v-302q0 -20 0.5 -31.5t5 -30.5t13.5 -30t27 -19.5t43 -8.5q62 0 95.5 39.5t33.5 110.5v177q0 30 -10 35.5t-59 4.5v45l147 10v-376q0 -19 1 -26.5t6.5 -13.5t18.5 -6h40v-43l-54 -8v1q-75 -49 -75 -97q0 -27 18 -39t39 -12q13 0 43 6v-47q-30 -8 -55 -8
q-50 0 -78 25t-28 65q0 55 57 99h-2q-9 37 -9 73h-2q-45 -85 -147 -85q-151 0 -151 172v225q0 30 -9.5 35.5t-57.5 4.5v45z" />
    <glyph glyph-name="Wcircumflex" unicode="&#x174;" horiz-adv-x="958" 
d="M9 686h224v-50h-30q-35 0 -35 -22q0 -5 1 -12t3 -14.5t2 -8.5l123 -454h2l148 561h81l146 -561h2l120 441q8 28 8 43q0 13 -8 19t-15.5 7t-21.5 1h-21v50h211v-50h-14q-28 0 -43.5 -12.5t-25.5 -48.5l-160 -584h-82l-145 561h-2l-148 -561h-84l-152 575q-12 45 -25 57.5
t-41 12.5h-18v50zM445 868h80l95 -129h-70l-67 88l-67 -88h-67z" />
    <glyph glyph-name="wcircumflex" unicode="&#x175;" horiz-adv-x="740" 
d="M2 474h204v-46h-18q-35 0 -35 -20q0 -6 10 -38l80 -262h2l105 366h64l112 -366h2l76 266q6 23 6 30q0 24 -34 24h-17v46h178v-46q-33 0 -44.5 -9t-23.5 -49l-123 -379h-60l-113 361h-2l-107 -361h-58l-123 361q-18 51 -32.5 63.5t-48.5 12.5v46zM341 671h80l95 -129h-70
l-67 88l-67 -88h-67z" />
    <glyph glyph-name="Ycircumflex" unicode="&#x176;" horiz-adv-x="656" 
d="M7 686h229v-50h-20q-36 0 -36 -18q0 -7 17 -35l141 -238l144 228q21 33 21 44q0 13 -9.5 16t-29.5 3h-28v50h213v-50q-19 0 -28 -1t-21.5 -8.5t-22.5 -23.5q-4 -4 -9 -14l-199 -314v-176q0 -33 7.5 -41.5t45.5 -8.5h19v-49h-229v49h24q33 0 40 10t7 40v171l-189 313
q-19 32 -33.5 42.5t-38.5 10.5h-15v50zM299 868h80l95 -129h-70l-67 88l-67 -88h-67z" />
    <glyph glyph-name="ycircumflex" unicode="&#x177;" horiz-adv-x="510" 
d="M3 474h205v-46h-24q-29 0 -29 -18q0 -11 7 -26l107 -284l97 260q12 36 12 48q0 20 -32 20h-18v46h179v-46q-32 0 -42 -7.5t-24 -43.5l-176 -450q-32 -82 -65 -115.5t-92 -33.5q-41 0 -81 18v94h56v-16q0 -42 34 -42q30 0 50 32q36 59 57 136l-141 360q-19 47 -32.5 57.5
t-47.5 10.5v46zM222 671h80l95 -129h-70l-67 88l-67 -88h-67z" />
    <glyph glyph-name="Ydieresis" unicode="&#x178;" horiz-adv-x="656" 
d="M7 686h229v-50h-20q-36 0 -36 -18q0 -7 17 -35l141 -238l144 228q21 33 21 44q0 13 -9.5 16t-29.5 3h-28v50h213v-50q-19 0 -28 -1t-21.5 -8.5t-22.5 -23.5q-4 -4 -9 -14l-199 -314v-176q0 -33 7.5 -41.5t45.5 -8.5h19v-49h-229v49h24q33 0 40 10t7 40v171l-189 313
q-19 32 -33.5 42.5t-38.5 10.5h-15v50zM235 829q18 0 31 -12.5t13 -31.5q0 -18 -13 -31t-31 -13t-31 12.5t-13 31.5t13 31.5t31 12.5zM422 829q18 0 31 -12.5t13 -31.5q0 -18 -13 -31t-31 -13t-31 12.5t-13 31.5t13 31.5t31 12.5z" />
    <glyph glyph-name="Zacute" unicode="&#x179;" horiz-adv-x="626" 
d="M57 686h503v-64l-414 -558h311q38 0 46 9t8 47v55h63v-175h-531v64l414 558h-268q-48 0 -58.5 -6.5t-10.5 -42.5v-56h-63v169zM327 868h97l-107 -129h-55z" />
    <glyph glyph-name="zacute" unicode="&#x17a;" horiz-adv-x="438" 
d="M34 474h371v-56l-286 -362h188q30 0 37 5.5t7 30.5v49h63v-141h-390v56l286 362h-175q-25 0 -31.5 -5t-6.5 -30v-41h-63v132zM238 671h97l-107 -129h-55z" />
    <glyph glyph-name="Zdotaccent" unicode="&#x17b;" horiz-adv-x="626" 
d="M57 686h503v-64l-414 -558h311q38 0 46 9t8 47v55h63v-175h-531v64l414 558h-268q-48 0 -58.5 -6.5t-10.5 -42.5v-56h-63v169zM263 783q0 19 13.5 31.5t31.5 12.5t31 -12.5t13 -31.5q0 -18 -13 -31t-31 -13t-31.5 13t-13.5 31z" />
    <glyph glyph-name="zdotaccent" unicode="&#x17c;" horiz-adv-x="438" 
d="M34 474h371v-56l-286 -362h188q30 0 37 5.5t7 30.5v49h63v-141h-390v56l286 362h-175q-25 0 -31.5 -5t-6.5 -30v-41h-63v132zM175 586q0 19 13.5 31.5t31.5 12.5t31 -12.5t13 -31.5q0 -18 -13 -31t-31 -13t-31.5 13t-13.5 31z" />
    <glyph glyph-name="Zcaron" unicode="&#x17d;" horiz-adv-x="626" 
d="M57 686h503v-64l-414 -558h311q38 0 46 9t8 47v55h63v-175h-531v64l414 558h-268q-48 0 -58.5 -6.5t-10.5 -42.5v-56h-63v169zM172 870h70l67 -88l67 88h67l-96 -129h-80z" />
    <glyph glyph-name="zcaron" unicode="&#x17e;" horiz-adv-x="438" 
d="M34 474h371v-56l-286 -362h188q30 0 37 5.5t7 30.5v49h63v-141h-390v56l286 362h-175q-25 0 -31.5 -5t-6.5 -30v-41h-63v132zM84 671h70l67 -88l67 88h67l-96 -129h-80z" />
    <glyph glyph-name="florin" unicode="&#x192;" horiz-adv-x="521" 
d="M159 463h71q5 28 9 46t13.5 51t23.5 54t34 44t50 34.5t67 11.5q46 0 97 -23l-25 -87h-47q0 2 1.5 13t1.5 13q0 7 -2 14t-11.5 14.5t-25.5 7.5q-22 0 -39 -12.5t-27.5 -31t-18.5 -46.5t-11.5 -50.5t-7.5 -52.5h81l-11 -55h-75l-44 -361q-33 -266 -191 -266q-36 0 -72 17
l13 82h48q-2 -6 -2 -20q0 -30 28 -30q48 0 69 76q19 62 32 183l36 319h-77z" />
    <glyph glyph-name="Aringacute" unicode="&#x1fa;" horiz-adv-x="677" 
d="M251 704q0 37 26.5 63.5t64.5 26.5q37 0 63.5 -26.5t26.5 -63.5q0 -55 -49 -80l201 -510q15 -44 27.5 -54.5t37.5 -10.5h19v-49h-225v49h26q14 0 21.5 1t13 6.5t5.5 15.5q0 9 -11 42l-42 106h-253l-44 -110q-9 -18 -9 -36q0 -25 41 -25h28v-49h-210v49h18q25 0 37.5 10.5
t24.5 43.5l207 523q-45 25 -45 78zM329 543l-102 -263h205l-101 263h-2zM341 758q-22 0 -38 -16t-16 -38t15.5 -38t38.5 -16t38.5 16t15.5 38t-15.5 38t-38.5 16zM366 921h97l-107 -112h-55z" />
    <glyph glyph-name="aringacute" unicode="&#x1fb;" horiz-adv-x="490" 
d="M79 336v100q73 52 167 52q105 0 146 -64q18 -30 18 -115v-196q0 -37 6 -50.5t19 -13.5q19 0 43 14v-49q-3 -3 -6 -3q-46 -23 -78 -23q-19 0 -31.5 7.5t-19 23t-8 22.5t-3.5 22q-18 -22 -30.5 -34t-44 -26.5t-70.5 -14.5q-22 0 -44 5t-47 18.5t-40.5 42t-15.5 69.5
q0 26 7.5 47.5t17 37t32.5 30t40.5 23t56 20t62.5 17.5l76 19q0 20 -0.5 32t-5.5 31t-14.5 29.5t-28 19t-45.5 8.5q-96 0 -96 -80v-21h-63zM332 265l-8 -2q-46 -13 -64 -18t-49 -15.5t-42 -18t-25.5 -20t-19 -26.5t-4.5 -33q0 -39 25 -60.5t59 -21.5q56 0 97 39
q31 31 31 106v70zM154 632q0 37 26.5 63.5t64.5 26.5q37 0 63.5 -26.5t26.5 -63.5t-26.5 -63.5t-63.5 -26.5q-38 0 -64.5 26.5t-26.5 63.5zM244 686q-22 0 -38 -16t-16 -38t16 -38t38 -16t38 16t16 38t-16 38t-38 16zM271 889h97l-107 -129h-55z" />
    <glyph glyph-name="AEacute" unicode="&#x1fc;" horiz-adv-x="948" 
d="M312 686h583v-155h-63v50q0 25 -9 33.5t-43 8.5h-233v-241h176q28 0 37.5 6.5t9.5 35.5v25h56v-197h-56v28q0 28 -9 35t-38 7h-176v-262h246q33 0 42 8t9 34v49h64v-151h-515v49h24q32 0 40 9t8 35v127h-238l-66 -115q-15 -26 -15 -36q0 -9 5.5 -14t11 -5.5t17.5 -0.5h27
v-49h-208v49h14q26 0 38.5 7.5t28.5 36.5l280 488q14 22 14 35q0 20 -33 20h-29v50zM463 631l-202 -351h204v351h-2zM633 868h97l-107 -129h-55z" />
    <glyph glyph-name="aeacute" unicode="&#x1fd;" horiz-adv-x="773" 
d="M77 336v101q73 51 170 51q109 0 138 -68q54 68 147 68q195 0 195 -244h-326q0 -52 13 -90.5t30 -57.5t40 -29.5t36 -12.5t26 -2q80 0 171 75v-72q-84 -70 -183 -70q-115 0 -173 95q-30 -47 -64 -68q-41 -27 -102 -27q-77 0 -117.5 34.5t-40.5 98.5q0 35 12 62.5t28 44
t45.5 30.5t49.5 20t56 15l102 26q0 24 -2 39.5t-10 37.5t-28.5 33.5t-53.5 11.5q-11 0 -21.5 -1.5t-30.5 -7.5t-32.5 -23.5t-12.5 -43.5v-26h-62zM406 299h239q-2 36 -13 63t-23.5 40t-30 20.5t-28 9t-20.5 1.5q-102 0 -124 -134zM330 264l-84 -20q-129 -32 -129 -114
q0 -40 24.5 -62.5t63.5 -22.5q35 0 60.5 13.5t37.5 30t18.5 41t7.5 36.5t1 26v72zM419 671h97l-107 -129h-55z" />
    <glyph glyph-name="Oslashacute" unicode="&#x1fe;" horiz-adv-x="760" 
d="M680 714l46 -43l-84 -92q68 -103 67 -232q1 -165 -92 -265t-240 -100q-121 0 -214 76l-80 -87l-47 42l84 91q-69 96 -69 236q0 160 90 262t239 102q133 0 220 -77zM584 516l-369 -401q70 -67 167 -67q114 3 173 85t60 219q-3 97 -31 164zM178 168l369 402
q-18 18 -33 29.5t-52 25t-81 13.5q-113 0 -174.5 -78.5t-61.5 -213.5q0 -116 33 -178zM393 870h97l-107 -129h-55z" />
    <glyph glyph-name="oslashacute" unicode="&#x1ff;" horiz-adv-x="542" 
d="M477 501l40 -37l-59 -64q42 -64 42 -155q0 -46 -12.5 -89t-38.5 -83t-74 -64t-111 -24q-86 0 -143 46l-56 -61l-41 37l60 66q-42 60 -42 155q0 107 59.5 183t176.5 75q44 -2 76 -11.5t41 -15.5t26 -19zM401 337l-230 -251q43 -43 102 -43q72 0 107.5 56t35.5 139
q0 56 -15 99zM142 136l230 250q-44 44 -101 42q-70 1 -108 -54t-38 -141q0 -52 17 -97zM284 671h97l-107 -129h-55z" />
    <glyph glyph-name="Scommaaccent" unicode="&#x218;" horiz-adv-x="531" 
d="M464 661v-151h-67v26q0 59 -17 74q-35 35 -109 35q-66 0 -94.5 -33t-28.5 -70q0 -22 8.5 -40.5t19 -31.5t36 -29.5t43.5 -26t57 -29.5q36 -18 54 -27.5t45.5 -29t41 -38t24.5 -47.5t11 -63q0 -29 -9.5 -59t-32 -63.5t-70.5 -54.5t-115 -21q-126 0 -215 40v172h72v-38
q0 -50 20 -72q37 -43 121 -43q60 0 100.5 32.5t40.5 88.5q0 54 -32 84t-107 68q-41 21 -61.5 32t-52 32.5t-47 40.5t-27.5 47.5t-12 61.5q0 67 54 121.5t162 54.5q101 0 187 -43zM269 -138h-7q-22 0 -37 14t-15 33q0 18 15 31.5t35 13.5q25 0 41.5 -19.5t16.5 -51.5
q0 -40 -29 -67.5t-84 -37.5v33q31 6 46.5 17t17.5 34z" />
    <glyph glyph-name="scommaaccent" unicode="&#x219;" horiz-adv-x="420" 
d="M41 151h65v-38q0 -16 3 -27t11.5 -23.5t29 -19.5t52.5 -7q28 0 48 8t29.5 17.5t15 22.5t6 19t0.5 12q0 48 -81 86l-48 22q-31 14 -45 21.5t-37 24.5t-33 38t-10 49q0 52 41 91t123 39q81 0 145 -30v-124h-60v35q0 13 -2 21.5t-9 21.5t-27 20.5t-51 7.5q-44 0 -64.5 -20
t-20.5 -48q0 -31 23.5 -49t87.5 -46q37 -16 55.5 -25.5t44 -27.5t36.5 -41.5t11 -53.5q0 -19 -6.5 -39.5t-23.5 -45.5t-55.5 -41t-93.5 -16q-82 0 -160 31v135zM216 -138h-7q-22 0 -37 14t-15 33q0 18 15 31.5t35 13.5q25 0 41.5 -19.5t16.5 -51.5q0 -40 -29 -67.5
t-84 -37.5v33q31 6 46.5 17t17.5 34z" />
    <glyph glyph-name="uni021A" unicode="&#x21a;" horiz-adv-x="646" 
d="M24 686h598v-165h-64v62q0 14 -1 20t-5 12.5t-14 8.5t-28 2h-144v-523q0 -35 7.5 -44.5t43.5 -9.5h21v-49h-230v49h28q30 0 37 9t7 40v528h-140q-36 0 -44 -9t-8 -44v-52h-64v165zM331 -138h-7q-22 0 -37 14t-15 33q0 18 15 31.5t35 13.5q25 0 41.5 -19.5t16.5 -51.5
q0 -40 -29 -67.5t-84 -37.5v33q31 6 46.5 17t17.5 34z" />
    <glyph glyph-name="uni021B" unicode="&#x21b;" horiz-adv-x="313" 
d="M113 603h47v-129h126v-58h-126v-287q0 -78 50 -78q29 0 84 29v-58q-62 -34 -109 -34q-30 0 -51.5 10t-32 22t-16 32t-6 31t-0.5 28v305h-60v41q28 10 47 26.5t28 40.5t12.5 38.5t6.5 40.5zM193 -138h-7q-22 0 -37 14t-15 33q0 18 15 31.5t35 13.5q25 0 41.5 -19.5
t16.5 -51.5q0 -40 -29 -67.5t-84 -37.5v33q31 6 46.5 17t17.5 34z" />
    <glyph glyph-name="dotlessj" unicode="&#x237;" horiz-adv-x="250" 
d="M22 467l149 13v-490q0 -32 -2.5 -57.5t-11 -56t-23.5 -50.5t-43.5 -34t-66.5 -14q-52 0 -90 15v95h53q0 -18 1.5 -29t12.5 -22.5t31 -11.5q37 0 47.5 31.5t10.5 117.5v406q0 24 -6.5 33t-29.5 9l-10 -1h-22v46z" />
    <glyph glyph-name="circumflex" unicode="&#x2c6;" 
d="M127 671h80l95 -129h-70l-67 88l-67 -88h-67z" />
    <glyph glyph-name="caron" unicode="&#x2c7;" 
d="M31 671h70l67 -88l67 88h67l-96 -129h-80z" />
    <glyph glyph-name="uni02C9" unicode="&#x2c9;" 
d="M19 596h295v-54h-295v54z" />
    <glyph glyph-name="breve" unicode="&#x2d8;" 
d="M45 666h53q4 -37 26 -55q18 -15 44 -15q57 0 68 70h52q2 -49 -30 -85q-34 -39 -91 -39q-48 0 -83.5 30.5t-38.5 93.5z" />
    <glyph glyph-name="dotaccent" unicode="&#x2d9;" 
d="M122 586q0 19 13.5 31.5t31.5 12.5t31 -12.5t13 -31.5q0 -18 -13 -31t-31 -13t-31.5 13t-13.5 31z" />
    <glyph glyph-name="ring" unicode="&#x2da;" 
d="M76 632q0 37 26.5 63.5t64.5 26.5q37 0 63.5 -26.5t26.5 -63.5t-26.5 -63.5t-63.5 -26.5q-38 0 -64.5 26.5t-26.5 63.5zM166 686q-22 0 -38 -16t-16 -38t16 -38t38 -16t38 16t16 38t-16 38t-38 16z" />
    <glyph glyph-name="ogonek" unicode="&#x2db;" 
d="M151 7h69q-74 -48 -74 -96q0 -27 18 -39t39 -12q13 0 43 6v-47q-30 -8 -55 -8q-50 0 -78 25t-28 65q0 57 66 106z" />
    <glyph glyph-name="tilde" unicode="&#x2dc;" 
d="M72 542h-55q8 94 92 94q29 0 62 -17q42 -22 56 -22q29 0 35 39h54q-1 -43 -25.5 -69t-57.5 -26q-29 0 -70 19l-33 15q-15 6 -24 6q-27 0 -34 -39z" />
    <glyph glyph-name="hungarumlaut" unicode="&#x2dd;" 
d="M128 671h97l-107 -129h-55zM275 671h97l-107 -129h-55z" />
    <glyph glyph-name="uni0374" unicode="&#x374;" horiz-adv-x="300" 
d="M149 715h103l-108 -174h-51z" />
    <glyph glyph-name="uni0375" unicode="&#x375;" horiz-adv-x="300" 
d="M139 -233h-103l108 184h51z" />
    <glyph glyph-name="uni037E" unicode="&#x37e;" horiz-adv-x="240" 
d="M58 -135v39q37 19 51 38t19 49q-35 -1 -49 18t-14 38q0 22 15.5 37.5t37.5 15.5q31 0 48 -24.5t17 -59.5q0 -13 -3 -27t-13.5 -39t-38.5 -48t-70 -37zM120 488q22 0 38 -16t16 -38t-16 -38t-38 -16t-38 16t-16 38t16 38t38 16z" />
    <glyph glyph-name="tonos" unicode="&#x384;" 
d="M161 714h87l-79 -172h-55z" />
    <glyph glyph-name="dieresistonos" unicode="&#x385;" 
d="M59 630q18 0 31 -12.5t13 -31.5q0 -18 -13 -31t-31 -13t-31 12.5t-13 31.5t13 31.5t31 12.5zM274 630q18 0 31 -12.5t13 -31.5q0 -18 -13 -31t-31 -13t-31 12.5t-13 31.5t13 31.5t31 12.5zM175 734h77l-79 -172h-45z" />
    <glyph glyph-name="Alphatonos" unicode="&#x386;" horiz-adv-x="677" 
d="M298 695h82l204 -581q15 -44 27.5 -54.5t37.5 -10.5h19v-49h-225v49h26q14 0 21.5 1t13 6.5t5.5 15.5q0 9 -11 42l-37 106h-263l-39 -110q-9 -18 -9 -36q0 -25 41 -25h28v-49h-210v49h18q25 0 37.5 10.5t24.5 43.5zM328 591l-109 -311h220l-109 311h-2zM29 714h87
l-79 -172h-55z" />
    <glyph glyph-name="anoteleia" unicode="&#x387;" horiz-adv-x="240" 
d="M120 398q22 0 38 -16t16 -38t-16 -38t-38 -16t-38 16t-16 38t16 38t38 16z" />
    <glyph glyph-name="Epsilontonos" unicode="&#x388;" horiz-adv-x="704" 
d="M29 714h87l-79 -172h-55zM148 686h502v-154h-64v50q0 29 -10 34.5t-52 7.5h-223v-241h176q31 0 39 8.5t8 35.5v23h57v-197h-57v31q0 26 -10.5 32.5t-41.5 6.5h-171v-262h253q30 0 37 9.5t7 38.5v43h63v-152h-513v49h24q30 0 36.5 9.5t6.5 38.5v496q0 25 -7.5 34t-35.5 9
h-24v50z" />
    <glyph glyph-name="Etatonos" unicode="&#x389;" horiz-adv-x="850" 
d="M145 686h221v-50h-21q-32 0 -39 -10t-7 -37v-192h353v192q0 30 -7.5 38.5t-41.5 8.5h-19v50h221v-50h-23q-31 0 -37.5 -9.5t-6.5 -43.5v-486q0 -29 7 -38.5t37 -9.5h23v-49h-221v49h19q33 0 41 8t8 40v237h-353v-237q0 -19 1.5 -27t12 -14.5t32.5 -6.5h21v-49h-221v49h25
q30 0 36.5 9.5t6.5 38.5v492q0 28 -7 37.5t-40 9.5h-21v50zM29 714h87l-79 -172h-55z" />
    <glyph glyph-name="Iotatonos" unicode="&#x38a;" horiz-adv-x="433" 
d="M29 714h87l-79 -172h-55zM156 686h221v-51h-17q-36 0 -43 -9.5t-7 -47.5v-470q0 -40 7 -49.5t43 -9.5h17v-49h-221v49h20q34 0 40.5 9t6.5 45v483q0 31 -7 40t-40 9h-20v51z" />
    <glyph glyph-name="Omicrontonos" unicode="&#x38c;" horiz-adv-x="784" 
d="M29 714h87l-79 -172h-55zM406 704q81 0 144.5 -29t103 -79.5t59.5 -114t20 -135.5q0 -162 -92.5 -263t-240.5 -101q-143 0 -234 96t-91 257q0 169 91.5 269t239.5 100zM405 638q-69 0 -118.5 -28t-73.5 -74.5t-34.5 -94t-10.5 -99.5q0 -60 13 -111t39.5 -93t74 -66
t110.5 -24q109 0 171.5 80t62.5 225q0 144 -66 214.5t-168 70.5z" />
    <glyph glyph-name="Upsilontonos" unicode="&#x38e;" horiz-adv-x="791" 
d="M29 714h87l-79 -172h-55zM142 686h229v-50h-20q-36 0 -36 -18q0 -7 17 -35l141 -238l144 228q21 33 21 44q0 13 -9.5 16t-29.5 3h-28v50h213v-50q-19 0 -28 -1t-21.5 -8.5t-22.5 -23.5q-4 -4 -9 -14l-199 -314v-176q0 -33 7.5 -41.5t45.5 -8.5h19v-49h-229v49h24
q33 0 40 10t7 40v171l-189 313q-19 32 -33.5 42.5t-38.5 10.5h-15v50z" />
    <glyph glyph-name="Omegatonos" unicode="&#x38f;" horiz-adv-x="773" 
d="M744 0h-295v80q75 51 120 123.5t45 189.5q0 119 -58 182t-156 63q-89 0 -152 -62.5t-63 -186.5q0 -207 166 -309v-80h-296v149h63v-14q0 -38 8 -47t46 -9h86v4q-74 50 -120.5 130t-46.5 175q0 102 45.5 175.5t115 107t152.5 33.5q142 0 223 -87t81 -217
q0 -102 -49 -182.5t-118 -134.5v-4h86q38 0 46 9t8 47v14h63v-149zM29 714h87l-79 -172h-55z" />
    <glyph glyph-name="iotadieresistonos" unicode="&#x390;" horiz-adv-x="250" 
d="M15 470l150 10v-375q0 -54 40 -54q21 0 39 9v-61q-28 -14 -67 -14q-43 0 -68.5 26.5t-25.5 72.5v297q0 30 -12 37.5t-56 6.5v45zM19 630q18 0 31 -12.5t13 -31.5q0 -18 -13 -31t-31 -13t-31 12.5t-13 31.5t13 31.5t31 12.5zM234 630q18 0 31 -12.5t13 -31.5
q0 -18 -13 -31t-31 -13t-31 12.5t-13 31.5t13 31.5t31 12.5zM135 734h77l-79 -172h-45z" />
    <glyph glyph-name="Alpha" unicode="&#x391;" horiz-adv-x="677" 
d="M298 695h82l204 -581q15 -44 27.5 -54.5t37.5 -10.5h19v-49h-225v49h26q14 0 21.5 1t13 6.5t5.5 15.5q0 9 -11 42l-37 106h-263l-39 -110q-9 -18 -9 -36q0 -25 41 -25h28v-49h-210v49h18q25 0 37.5 10.5t24.5 43.5zM328 591l-109 -311h220l-109 311h-2z" />
    <glyph glyph-name="Beta" unicode="&#x392;" horiz-adv-x="614" 
d="M41 687l247 -1q100 0 145 -17q101 -39 101 -153q0 -107 -95 -148v-2q140 -30 140 -171q0 -65 -32 -110.5t-81 -66.5q-43 -18 -135 -18l-290 1v49h24q32 0 38.5 9.5t6.5 43.5v488q0 19 -1.5 27t-11.5 13.5t-32 5.5h-24v50zM196 625v-239h95q158 0 158 125q0 114 -143 114
h-110zM196 326v-266h142q151 0 151 129q0 39 -14 66.5t-31 41t-46 20.5t-45 8t-42 1h-115z" />
    <glyph glyph-name="Gamma" unicode="&#x393;" horiz-adv-x="583" 
d="M202 623v-524q0 -31 7 -40.5t40 -9.5h29v-49h-230v49h21q33 0 40 11t7 48v479q0 31 -8 40t-42 9h-18v50h507v-153h-63v40q0 33 -8 41.5t-48 8.5h-234z" />
    <glyph glyph-name="Delta" unicode="&#x394;" horiz-adv-x="579" 
d="M253 695h82l235 -635v-60h-561v51zM289 606h-2q-5 -27 -16 -56l-175 -478h377l-170 477q-10 31 -14 57z" />
    <glyph glyph-name="Epsilon" unicode="&#x395;" horiz-adv-x="604" 
d="M48 686h502v-154h-64v50q0 29 -10 34.5t-52 7.5h-223v-241h176q31 0 39 8.5t8 35.5v23h57v-197h-57v31q0 26 -10.5 32.5t-41.5 6.5h-171v-262h253q30 0 37 9.5t7 38.5v43h63v-152h-513v49h24q30 0 36.5 9.5t6.5 38.5v496q0 25 -7.5 34t-35.5 9h-24v50z" />
    <glyph glyph-name="Zeta" unicode="&#x396;" horiz-adv-x="626" 
d="M57 686h503v-64l-414 -558h311q38 0 46 9t8 47v55h63v-175h-531v64l414 558h-268q-48 0 -58.5 -6.5t-10.5 -42.5v-56h-63v169z" />
    <glyph glyph-name="Eta" unicode="&#x397;" horiz-adv-x="750" 
d="M45 686h221v-50h-21q-32 0 -39 -10t-7 -37v-192h353v192q0 30 -7.5 38.5t-41.5 8.5h-19v50h221v-50h-23q-31 0 -37.5 -9.5t-6.5 -43.5v-486q0 -29 7 -38.5t37 -9.5h23v-49h-221v49h19q33 0 41 8t8 40v237h-353v-237q0 -19 1.5 -27t12 -14.5t32.5 -6.5h21v-49h-221v49h25
q30 0 36.5 9.5t6.5 38.5v492q0 28 -7 37.5t-40 9.5h-21v50z" />
    <glyph glyph-name="Theta" unicode="&#x398;" horiz-adv-x="760" 
d="M382 704q81 0 144.5 -29t103 -79.5t59.5 -114t20 -135.5q0 -162 -92.5 -263t-240.5 -101q-143 0 -234 96t-91 257q0 169 91.5 269t239.5 100zM381 638q-69 0 -118.5 -28t-73.5 -74.5t-34.5 -94t-10.5 -99.5q0 -60 13 -111t39.5 -93t74 -66t110.5 -24q109 0 171.5 80
t62.5 225q0 144 -66 214.5t-168 70.5zM240 384h281v-77h-281v77z" />
    <glyph glyph-name="Iota" unicode="&#x399;" 
d="M56 686h221v-51h-17q-36 0 -43 -9.5t-7 -47.5v-470q0 -40 7 -49.5t43 -9.5h17v-49h-221v49h20q34 0 40.5 9t6.5 45v483q0 31 -7 40t-40 9h-20v51z" />
    <glyph glyph-name="Kappa" unicode="&#x39a;" horiz-adv-x="671" 
d="M45 686h221v-50h-20q-33 0 -40 -9t-7 -40v-222l222 226q18 18 18 29q0 16 -38 16v50h220v-50q-41 0 -64 -9.5t-53 -39.5l-215 -222l246 -253q28 -29 51.5 -43.5t35.5 -16.5t34 -3v-49h-249v49h20q26 0 26 17q0 11 -15 27l-239 249v-237q0 -36 7 -46t40 -10h20v-49h-221
v49h25q43 0 43 30v508q0 19 -2 27.5t-11.5 15t-29.5 6.5h-25v50z" />
    <glyph glyph-name="Lambda" unicode="&#x39b;" horiz-adv-x="677" 
d="M668 0h-230v50h23q14 0 21 0.5t14 6t7 15.5q0 12 -9 36l-164 468h-2l-163 -458q-10 -29 -10 -40q0 -28 44 -28h22v-50h-212v50h20q39 0 53 41l216 604h81l205 -580q16 -45 26.5 -55t37.5 -10h20v-50z" />
    <glyph glyph-name="Mu" unicode="&#x39c;" horiz-adv-x="885" 
d="M47 686h199l196 -590h2l197 590h197v-50h-20q-33 0 -40 -9.5t-7 -41.5v-489q0 -29 7 -38t40 -9h20v-49h-216v49h19q35 0 41.5 9.5t6.5 48.5v529h-2l-212 -636h-82l-212 633h-2v-537q0 -14 1 -21t5 -14t13.5 -9.5t26.5 -2.5h21v-49h-199v49h22q32 0 39 10t7 42v484
q0 23 -2 31.5t-11.5 14t-32.5 5.5h-22v50z" />
    <glyph glyph-name="Nu" unicode="&#x39d;" horiz-adv-x="719" 
d="M45 686h197l310 -556h2v455q0 32 -7.5 41.5t-43.5 9.5h-17v50h204v-50h-22q-32 0 -39 -9.5t-7 -41.5v-594h-89l-350 628h-2v-519q0 -32 7 -41.5t40 -9.5h20v-49h-203v49h24q30 0 36.5 10.5t6.5 45.5v487q0 14 -1 20.5t-5 13.5t-13.5 8.5t-26.5 1.5h-21v50z" />
    <glyph glyph-name="Xi" unicode="&#x39e;" horiz-adv-x="604" 
d="M451 435v-190h-57v21q0 26 -10.5 32.5t-41.5 6.5h-92q-31 0 -41.5 -6.5t-10.5 -32.5v-21h-57v190h57v-13q0 -27 8 -35.5t39 -8.5h102q31 0 39 8.5t8 35.5v13h57zM41 0v155h63v-33q0 -29 7 -38.5t37 -9.5h306q30 0 37 9.5t7 38.5v33h63v-155h-520zM52 686h498v-156h-64v37
q0 30 -11 37.5t-51 7.5h-246q-41 0 -51.5 -7.5t-10.5 -36.5v-38h-64v156z" />
    <glyph glyph-name="Omicron" unicode="&#x39f;" horiz-adv-x="760" 
d="M382 704q81 0 144.5 -29t103 -79.5t59.5 -114t20 -135.5q0 -162 -92.5 -263t-240.5 -101q-143 0 -234 96t-91 257q0 169 91.5 269t239.5 100zM381 638q-69 0 -118.5 -28t-73.5 -74.5t-34.5 -94t-10.5 -99.5q0 -60 13 -111t39.5 -93t74 -66t110.5 -24q109 0 171.5 80
t62.5 225q0 144 -66 214.5t-168 70.5z" />
    <glyph glyph-name="Pi" unicode="&#x3a0;" horiz-adv-x="750" 
d="M685 686v-50h-23q-31 0 -37.5 -9.5t-6.5 -43.5v-486q0 -29 7 -38.5t37 -9.5h23v-49h-221v49h19q33 0 41 8t8 40v529h-333v-529q0 -19 1.5 -27t12 -14.5t32.5 -6.5h21v-49h-221v49h25q30 0 36.5 9.5t6.5 38.5v492q0 28 -7 37.5t-40 9.5h-21v50h640z" />
    <glyph glyph-name="Rho" unicode="&#x3a1;" horiz-adv-x="594" 
d="M43 686h279q19 0 31.5 -0.5t38 -4t44 -10t41 -20.5t36.5 -33.5t24 -50t10 -69.5q0 -70 -30 -110.5t-64 -56.5q-20 -10 -62 -16.5t-69 -6.5h-125v-216q0 -27 9 -35t46 -8h21v-49h-230v49h17q36 0 43.5 9.5t7.5 40.5v491q0 15 -1 21.5t-5.5 13.5t-15 9t-29.5 2h-17v50z
M197 625v-258h98q167 0 167 127q0 131 -149 131h-116z" />
    <glyph glyph-name="Sigma" unicode="&#x3a3;" horiz-adv-x="617" 
d="M301 350l-237 268v68h490v-169h-63v56q0 36 -10.5 42.5t-58.5 6.5h-257l231 -256v-12l-269 -280h321q38 0 46 9t8 47v49h63v-179h-525v77z" />
    <glyph glyph-name="Tau" unicode="&#x3a4;" horiz-adv-x="646" 
d="M24 686h598v-165h-64v62q0 14 -1 20t-5 12.5t-14 8.5t-28 2h-144v-523q0 -35 7.5 -44.5t43.5 -9.5h21v-49h-230v49h28q30 0 37 9t7 40v528h-140q-36 0 -44 -9t-8 -44v-52h-64v165z" />
    <glyph glyph-name="Upsilon" unicode="&#x3a5;" horiz-adv-x="656" 
d="M7 686h229v-50h-20q-36 0 -36 -18q0 -7 17 -35l141 -238l144 228q21 33 21 44q0 13 -9.5 16t-29.5 3h-28v50h213v-50q-19 0 -28 -1t-21.5 -8.5t-22.5 -23.5q-4 -4 -9 -14l-199 -314v-176q0 -33 7.5 -41.5t45.5 -8.5h19v-49h-229v49h24q33 0 40 10t7 40v171l-189 313
q-19 32 -33.5 42.5t-38.5 10.5h-15v50z" />
    <glyph glyph-name="Phi" unicode="&#x3a6;" horiz-adv-x="759" 
d="M423 585v-10q141 -7 216.5 -65t75.5 -165q0 -218 -292 -230v-14q0 -35 7 -43.5t43 -8.5h17v-49h-221v49h20q34 0 40.5 9t6.5 45v12q-292 12 -292 230q0 107 75.5 165t216.5 65v11q0 31 -7 40t-40 9h-20v51h221v-51h-17q-35 0 -42.5 -8.5t-7.5 -41.5zM138 347
q0 -84 47 -127t151 -47v341q-198 -7 -198 -167zM621 347q0 160 -198 167v-341q104 4 151 47t47 127z" />
    <glyph glyph-name="Chi" unicode="&#x3a7;" horiz-adv-x="667" 
d="M36 686h234v-50h-13q-35 0 -35 -21q0 -5 4.5 -14.5t9.5 -17.5l4 -8l102 -156l103 148q24 35 24 52t-29 17h-21v50h215v-50q-25 0 -37.5 -2.5t-33 -19.5t-45.5 -53l-139 -200l150 -229q20 -30 34.5 -47.5t29 -25t24.5 -9t28 -1.5v-49h-235v49h20q31 0 31 16q0 10 -16 37
l-118 182l-129 -185q-16 -25 -16 -33q0 -17 31 -17h21v-49h-212v49h14q18 0 28.5 2.5t29.5 20t44 52.5l151 220l-146 223q-17 26 -30 40.5t-27 20.5t-23 7t-27 1v50z" />
    <glyph glyph-name="Psi" unicode="&#x3a8;" horiz-adv-x="847" 
d="M746 585v-148q0 -115 -68 -182t-211 -73v-81q0 -35 7 -43.5t43 -8.5h17v-49h-221v49h20q34 0 40.5 9t6.5 45v79q-279 15 -279 255v149q0 30 -8 39.5t-42 9.5h-17v51h221v-51h-15q-36 0 -44 -9t-8 -41v-148q0 -187 192 -194v343q0 30 -8 39.5t-42 9.5h-17v51h221v-51h-15
q-36 0 -44 -9t-8 -41v-342q192 6 192 194v149q0 30 -8 39.5t-42 9.5h-17v51h221v-51h-15q-36 0 -44 -9t-8 -41z" />
    <glyph glyph-name="Omega" unicode="&#x3a9;" horiz-adv-x="747" 
d="M718 0h-295v80q75 51 120 123.5t45 189.5q0 119 -58 182t-156 63q-89 0 -152 -62.5t-63 -186.5q0 -207 166 -309v-80h-296v149h63v-14q0 -38 8 -47t46 -9h86v4q-74 50 -120.5 130t-46.5 175q0 102 45.5 175.5t115 107t152.5 33.5q142 0 223 -87t81 -217
q0 -102 -49 -182.5t-118 -134.5v-4h86q38 0 46 9t8 47v14h63v-149z" />
    <glyph glyph-name="Iotadieresis" unicode="&#x3aa;" 
d="M56 686h221v-51h-17q-36 0 -43 -9.5t-7 -47.5v-470q0 -40 7 -49.5t43 -9.5h17v-49h-221v49h20q34 0 40.5 9t6.5 45v483q0 31 -7 40t-40 9h-20v51zM73 842q18 0 31 -12.5t13 -31.5q0 -18 -13 -31t-31 -13t-31 12.5t-13 31.5t13 31.5t31 12.5zM260 842q18 0 31 -12.5
t13 -31.5q0 -18 -13 -31t-31 -13t-31 12.5t-13 31.5t13 31.5t31 12.5z" />
    <glyph glyph-name="Upsilondieresis" unicode="&#x3ab;" horiz-adv-x="656" 
d="M7 686h229v-50h-20q-36 0 -36 -18q0 -7 17 -35l141 -238l144 228q21 33 21 44q0 13 -9.5 16t-29.5 3h-28v50h213v-50q-19 0 -28 -1t-21.5 -8.5t-22.5 -23.5q-4 -4 -9 -14l-199 -314v-176q0 -33 7.5 -41.5t45.5 -8.5h19v-49h-229v49h24q33 0 40 10t7 40v171l-189 313
q-19 32 -33.5 42.5t-38.5 10.5h-15v50zM234 842q18 0 31 -12.5t13 -31.5q0 -18 -13 -31t-31 -13t-31 12.5t-13 31.5t13 31.5t31 12.5zM421 842q18 0 31 -12.5t13 -31.5q0 -18 -13 -31t-31 -13t-31 12.5t-13 31.5t13 31.5t31 12.5z" />
    <glyph glyph-name="alphatonos" unicode="&#x3ac;" horiz-adv-x="560" 
d="M392 367h3q18 72 36 107h85q-65 -106 -65 -238q0 -184 64 -184q19 0 37 11v-57q-28 -21 -59 -21q-44 0 -70.5 30.5t-35.5 100.5h-2q-42 -131 -161 -131q-87 0 -134.5 65t-47.5 177q0 120 54 190.5t147 70.5q62 0 95.5 -33.5t53.5 -87.5zM249 424q-57 0 -90 -48t-33 -141
q0 -187 111 -187q57 0 90.5 58t33.5 131q0 84 -31 135.5t-81 51.5zM268 714h87l-79 -172h-55z" />
    <glyph glyph-name="epsilontonos" unicode="&#x3ad;" horiz-adv-x="460" 
d="M429 115v-71q-78 -59 -194 -59q-97 0 -146 35.5t-49 96.5q0 55 37 89t104 46v1q-57 10 -84.5 39.5t-27.5 65.5q0 54 43 92t145 38q93 0 159 -27v-106h-60v20q0 62 -101 62t-101 -78q0 -41 35.5 -58.5t120.5 -17.5v-59q-89 0 -137 -20t-48 -69q0 -87 124 -87q99 0 180 67z
M261 714h87l-79 -172h-55z" />
    <glyph glyph-name="etatonos" unicode="&#x3ae;" horiz-adv-x="529" 
d="M160 401q49 87 148 87q155 0 155 -176v-503h-82v482q0 66 -22 99t-75 33q-60 0 -88.5 -40t-28.5 -107v-276h-82v362q0 65 -44 65q-17 0 -35 -9v56q28 14 65 14q40 0 62 -24t27 -63zM280 714h87l-79 -172h-55z" />
    <glyph glyph-name="iotatonos" unicode="&#x3af;" horiz-adv-x="250" 
d="M15 470l150 10v-375q0 -54 40 -54q21 0 39 9v-61q-28 -14 -67 -14q-43 0 -68.5 26.5t-25.5 72.5v297q0 30 -12 37.5t-56 6.5v45zM126 714h87l-79 -172h-55z" />
    <glyph glyph-name="upsilondieresistonos" unicode="&#x3b0;" horiz-adv-x="521" 
d="M304 470l128 10q41 -99 41 -222q0 -120 -53 -195t-154 -75q-184 0 -184 211v186q0 30 -9.5 35.5t-57.5 4.5v45l149 10v-272q0 -73 25 -112.5t85 -39.5q127 0 127 187q0 91 -22 142q-12 26 -26.5 33.5t-48.5 6.5v45zM153 630q18 0 31 -12.5t13 -31.5q0 -18 -13 -31
t-31 -13t-31 12.5t-13 31.5t13 31.5t31 12.5zM368 630q18 0 31 -12.5t13 -31.5q0 -18 -13 -31t-31 -13t-31 12.5t-13 31.5t13 31.5t31 12.5zM269 734h77l-79 -172h-45z" />
    <glyph glyph-name="alpha" unicode="&#x3b1;" horiz-adv-x="560" 
d="M392 367h3q18 72 36 107h85q-65 -106 -65 -238q0 -184 64 -184q19 0 37 11v-57q-28 -21 -59 -21q-44 0 -70.5 30.5t-35.5 100.5h-2q-42 -131 -161 -131q-87 0 -134.5 65t-47.5 177q0 120 54 190.5t147 70.5q62 0 95.5 -33.5t53.5 -87.5zM249 424q-57 0 -90 -48t-33 -141
q0 -187 111 -187q57 0 90.5 58t33.5 131q0 84 -31 135.5t-81 51.5z" />
    <glyph glyph-name="beta" unicode="&#x3b2;" horiz-adv-x="519" 
d="M63 -191v682q0 98 46 155.5t147 57.5q85 0 131 -45.5t46 -116.5q0 -57 -29 -97t-77 -57v-2q79 -11 118 -63t39 -129q0 -95 -54.5 -152t-144.5 -57q-98 0 -142 63v-239h-80zM143 487v-281q0 -77 35.5 -117.5t98.5 -40.5q60 0 92.5 40.5t32.5 103.5q0 85 -46 119t-130 34
v66q16 1 26 1.5t32 7.5t35 19t24 37t11 60q0 54 -29 82.5t-70 28.5q-62 0 -87 -41t-25 -119z" />
    <glyph glyph-name="gamma" unicode="&#x3b3;" horiz-adv-x="482" 
d="M2 474h111q43 -56 85.5 -164t59.5 -209q4 7 20.5 38.5t22 43.5t19 39.5t19.5 43t13.5 37.5t10.5 40t3 34q0 29 -12 39.5t-42 11.5v46h141q0 -66 -21.5 -137t-46.5 -118.5t-62.5 -112.5t-52.5 -98v-199h-93l17 198q-13 121 -52 225t-75 155q-15 21 -28.5 30t-36.5 11v46z
" />
    <glyph glyph-name="delta" unicode="&#x3b4;" horiz-adv-x="532" 
d="M269 356q-62 0 -104 -42t-42 -117t41 -114.5t102 -39.5q62 0 102 41.5t40 112.5t-42 115t-97 44zM310 435q35 -18 55 -29t48 -32.5t42.5 -44t25.5 -56.5t11 -76q0 -92 -60.5 -152t-172.5 -60q-106 0 -162.5 59.5t-56.5 147.5q0 84 48 135t126 69q-127 61 -127 152
q0 65 49 101t139 36q19 0 36.5 -1.5t34 -5t28 -6t27 -8t21.5 -8t20.5 -8.5t16.5 -7v-114h-60q-1 48 -28.5 76t-98.5 28q-105 0 -105 -69q0 -36 30.5 -60.5t112.5 -66.5z" />
    <glyph glyph-name="epsilon" unicode="&#x3b5;" horiz-adv-x="460" 
d="M429 115v-71q-78 -59 -194 -59q-97 0 -146 35.5t-49 96.5q0 55 37 89t104 46v1q-57 10 -84.5 39.5t-27.5 65.5q0 54 43 92t145 38q93 0 159 -27v-106h-60v20q0 62 -101 62t-101 -78q0 -41 35.5 -58.5t120.5 -17.5v-59q-89 0 -137 -20t-48 -69q0 -87 124 -87q99 0 180 67z
" />
    <glyph glyph-name="zeta" unicode="&#x3b6;" horiz-adv-x="377" 
d="M49 686h320v-64q-42 -37 -82.5 -81t-82.5 -100.5t-68 -118.5t-26 -117q0 -56 30.5 -84t90.5 -40q70 -14 104 -37.5t34 -71.5q0 -69 -91 -151h-85q37 31 67 68t30 66q0 26 -19 37.5t-74 22.5q-83 18 -127.5 59t-44.5 117q0 61 26 125.5t69 121t85.5 101t89.5 83.5h-246v64
z" />
    <glyph glyph-name="eta" unicode="&#x3b7;" horiz-adv-x="529" 
d="M160 401q49 87 148 87q155 0 155 -176v-503h-82v482q0 66 -22 99t-75 33q-60 0 -88.5 -40t-28.5 -107v-276h-82v362q0 65 -44 65q-17 0 -35 -9v56q28 14 65 14q40 0 62 -24t27 -63z" />
    <glyph glyph-name="theta" unicode="&#x3b8;" horiz-adv-x="501" 
d="M254 672q57 0 96 -25.5t60 -73t30 -104.5t9 -131q0 -353 -202 -353q-195 0 -195 344q0 24 0.5 44t5 57.5t12 67t22.5 63.5t35.5 57t53.5 38.5t73 15.5zM252 46q34 0 57.5 21t34.5 61.5t15.5 81.5t5.5 97h-230q2 -261 117 -261zM253 611q-111 0 -118 -250h230
q-3 250 -112 250z" />
    <glyph glyph-name="iota" unicode="&#x3b9;" horiz-adv-x="250" 
d="M15 470l150 10v-375q0 -54 40 -54q21 0 39 9v-61q-28 -14 -67 -14q-43 0 -68.5 26.5t-25.5 72.5v297q0 30 -12 37.5t-56 6.5v45z" />
    <glyph glyph-name="kappa" unicode="&#x3ba;" horiz-adv-x="489" 
d="M251 253l134 -159q35 -41 69 -41q11 0 25 4v-55q-22 -11 -51 -11q-41 0 -68.5 17.5t-60.5 56.5l-138 169v-234h-82v374q0 31 -7 40t-34 9h-28v43l151 15v-235l199 228h115v-46q-37 1 -58.5 -9t-50.5 -41z" />
    <glyph glyph-name="lambda" unicode="&#x3bb;" horiz-adv-x="507" 
d="M263 374l-153 -374h-95l213 485l-13 43q-33 111 -92 111q-25 0 -34 -14.5t-9 -30.5v-16h-56v100q40 18 96 18q61 0 100 -37t65 -126l120 -405q11 -40 25.5 -57t37.5 -17q19 0 35 8v-63q-30 -11 -55 -11q-39 0 -62 21t-39 75z" />
    <glyph glyph-name="mu" unicode="&#x3bc;" horiz-adv-x="538" 
d="M157 38v-229h-82v665h82v-274q0 -64 25 -100.5t72 -36.5q56 0 86.5 40t30.5 111v260h82v-366q0 -57 40 -57q21 0 39 9v-61q-28 -14 -65 -14q-40 0 -66.5 23.5t-29.5 64.5h-2q-25 -48 -54 -66.5t-70 -18.5q-59 0 -88 50z" />
    <glyph glyph-name="nu" unicode="&#x3bd;" horiz-adv-x="480" 
d="M125 474l128 -379q45 58 81 131t36 134q0 38 -12.5 52.5t-48.5 15.5v46h132q8 -36 8 -77q0 -98 -60 -206.5t-138 -199.5h-51l-132 376q-13 37 -26.5 47.5t-39.5 13.5v46h123z" />
    <glyph glyph-name="xi" unicode="&#x3be;" horiz-adv-x="373" 
d="M112 196q0 -50 31 -76.5t90 -38.5q70 -14 104 -38t34 -73q0 -66 -90 -149h-85q36 30 66 67.5t30 66.5q0 26 -18.5 37t-74.5 23q-172 37 -172 166q0 148 173 175v1q-65 10 -99.5 40t-34.5 76q0 52 38.5 88.5t132.5 64.5q-56 -4 -87 -4h-100v64h314v-56
q-122 -30 -167.5 -64.5t-45.5 -83.5q0 -99 177 -99v-58q-66 0 -111 -11t-66.5 -30.5t-30 -40t-8.5 -47.5z" />
    <glyph glyph-name="omicron" unicode="&#x3bf;" horiz-adv-x="542" 
d="M278 485q103 0 162.5 -63.5t59.5 -178.5q0 -95 -47 -165q-63 -93 -189 -93q-61 0 -106.5 22t-69.5 59t-35 77t-11 85q0 106 59.5 181.5t176.5 75.5zM272 427q-72 0 -109.5 -55t-37.5 -139q0 -48 14 -89.5t48.5 -71t84.5 -29.5q80 0 119 74q25 48 25 121q0 58 -14.5 98
t-38.5 58.5t-45.5 25.5t-45.5 7z" />
    <glyph glyph-name="pi" unicode="&#x3c0;" horiz-adv-x="598" 
d="M125 474h449v-68h-119v-288q0 -66 51 -66q27 0 68 18v-61q-45 -21 -91 -21q-105 0 -105 113v305h-177v-406h-73v406h-9q-71 0 -107 -27v70q31 25 113 25z" />
    <glyph glyph-name="rho" unicode="&#x3c1;" horiz-adv-x="531" 
d="M138 -191h-78v428q0 116 57.5 183.5t156.5 67.5q102 0 158.5 -64t56.5 -173q0 -107 -56 -186.5t-157 -79.5q-80 0 -138 63v-239zM269 423q-60 0 -95.5 -48.5t-35.5 -136.5t34 -139t100 -51q61 0 96.5 53t35.5 136q0 48 -11.5 87.5t-43.5 69t-80 29.5z" />
    <glyph glyph-name="sigma1" unicode="&#x3c2;" horiz-adv-x="451" 
d="M42 247q0 113 64 177t167 64q73 0 148 -29v-150h-67v41q0 83 -89 83q-64 0 -102 -47t-38 -127q0 -81 38 -120t101 -54q77 -19 109 -44.5t32 -70.5q0 -67 -82 -149h-77q86 81 86 129q0 25 -19 40t-77 28q-84 18 -139 72.5t-55 156.5z" />
    <glyph glyph-name="sigma" unicode="&#x3c3;" horiz-adv-x="556" 
d="M296 474h243v-68h-136q79 -62 79 -186q0 -107 -65 -171t-157 -64q-109 0 -163.5 66t-54.5 174q0 109 65 179t189 70zM272 404q-62 0 -104.5 -46t-42.5 -130q0 -95 38 -140t99 -45q60 0 98 47t38 136q0 82 -32 130t-94 48z" />
    <glyph glyph-name="tau" unicode="&#x3c4;" horiz-adv-x="402" 
d="M384 406h-155v-288q0 -67 53 -67q32 0 84 31v-62q-51 -32 -106 -32q-56 0 -82 31t-26 82v305h-39q-71 0 -107 -27v70q31 25 113 25h265v-68z" />
    <glyph glyph-name="upsilon" unicode="&#x3c5;" horiz-adv-x="521" 
d="M304 470l128 10q41 -99 41 -222q0 -120 -53 -195t-154 -75q-184 0 -184 211v186q0 30 -9.5 35.5t-57.5 4.5v45l149 10v-272q0 -73 25 -112.5t85 -39.5q127 0 127 187q0 91 -22 142q-12 26 -26.5 33.5t-48.5 6.5v45z" />
    <glyph glyph-name="phi" unicode="&#x3c6;" horiz-adv-x="657" 
d="M292 -191v189q-117 5 -184.5 67t-67.5 165q0 105 69 170t183 74v193h72v-192q122 -6 187.5 -68.5t65.5 -161.5q0 -96 -66.5 -166t-186.5 -79v-191h-72zM123 235q0 -80 46 -125t123 -52v358q-76 -6 -122.5 -51t-46.5 -130zM533 240q0 76 -45.5 122.5t-123.5 52.5v-357
q78 6 123.5 55.5t45.5 126.5z" />
    <glyph glyph-name="chi" unicode="&#x3c7;" horiz-adv-x="452" 
d="M431 474l-174 -311l91 -201q16 -35 31 -48t38 -13q11 0 29 6v-62q-28 -10 -51 -10q-35 0 -57.5 20.5t-45.5 72.5l-76 174l-134 -256h-83l181 332l-71 167q-16 38 -28.5 54.5t-32.5 16.5q-17 0 -33 -7v64q23 9 47 9q42 0 63.5 -23.5t42.5 -83.5l52 -135l121 234h90z" />
    <glyph glyph-name="psi" unicode="&#x3c8;" horiz-adv-x="655" 
d="M377 667v-609q161 23 161 218q0 64 -15 109q-8 25 -22.5 33t-41.5 7v45l118 10q33 -103 33 -200q0 -112 -58.5 -193t-174.5 -96v-182h-72v180q-109 8 -167.5 69.5t-58.5 160.5v166q0 30 -9.5 35.5t-57.5 4.5v45l149 10v-252q0 -150 144 -170v609h72z" />
    <glyph glyph-name="omega" unicode="&#x3c9;" horiz-adv-x="716" 
d="M317 386h82v-198q0 -70 26 -102.5t63 -32.5q42 0 71 38t29 131q0 136 -101 252h73q113 -106 113 -262q0 -112 -47 -168t-125 -56q-108 0 -143 103q-35 -103 -143 -103q-78 0 -125 56t-47 168q0 156 113 262h73q-101 -116 -101 -252q0 -93 29 -131t71 -38q37 0 63 33
t26 102v198z" />
    <glyph glyph-name="iotadieresis" unicode="&#x3ca;" horiz-adv-x="250" 
d="M15 470l150 10v-375q0 -54 40 -54q21 0 39 9v-61q-28 -14 -67 -14q-43 0 -68.5 26.5t-25.5 72.5v297q0 30 -12 37.5t-56 6.5v45zM30 630q18 0 31 -12.5t13 -31.5q0 -18 -13 -31t-31 -13t-31 12.5t-13 31.5t13 31.5t31 12.5zM217 630q18 0 31 -12.5t13 -31.5
q0 -18 -13 -31t-31 -13t-31 12.5t-13 31.5t13 31.5t31 12.5z" />
    <glyph glyph-name="upsilondieresis" unicode="&#x3cb;" horiz-adv-x="521" 
d="M304 470l128 10q41 -99 41 -222q0 -120 -53 -195t-154 -75q-184 0 -184 211v186q0 30 -9.5 35.5t-57.5 4.5v45l149 10v-272q0 -73 25 -112.5t85 -39.5q127 0 127 187q0 91 -22 142q-12 26 -26.5 33.5t-48.5 6.5v45zM155 630q18 0 31 -12.5t13 -31.5q0 -18 -13 -31
t-31 -13t-31 12.5t-13 31.5t13 31.5t31 12.5zM342 630q18 0 31 -12.5t13 -31.5q0 -18 -13 -31t-31 -13t-31 12.5t-13 31.5t13 31.5t31 12.5z" />
    <glyph glyph-name="omicrontonos" unicode="&#x3cc;" horiz-adv-x="542" 
d="M278 485q103 0 162.5 -63.5t59.5 -178.5q0 -95 -47 -165q-63 -93 -189 -93q-61 0 -106.5 22t-69.5 59t-35 77t-11 85q0 106 59.5 181.5t176.5 75.5zM272 427q-72 0 -109.5 -55t-37.5 -139q0 -48 14 -89.5t48.5 -71t84.5 -29.5q80 0 119 74q25 48 25 121q0 58 -14.5 98
t-38.5 58.5t-45.5 25.5t-45.5 7zM288 714h87l-79 -172h-55z" />
    <glyph glyph-name="upsilontonos" unicode="&#x3cd;" horiz-adv-x="521" 
d="M304 470l128 10q41 -99 41 -222q0 -120 -53 -195t-154 -75q-184 0 -184 211v186q0 30 -9.5 35.5t-57.5 4.5v45l149 10v-272q0 -73 25 -112.5t85 -39.5q127 0 127 187q0 91 -22 142q-12 26 -26.5 33.5t-48.5 6.5v45zM276 714h87l-79 -172h-55z" />
    <glyph glyph-name="omegatonos" unicode="&#x3ce;" horiz-adv-x="716" 
d="M317 386h82v-198q0 -70 26 -102.5t63 -32.5q42 0 71 38t29 131q0 136 -101 252h73q113 -106 113 -262q0 -112 -47 -168t-125 -56q-108 0 -143 103q-35 -103 -143 -103q-78 0 -125 56t-47 168q0 156 113 262h73q-101 -116 -101 -252q0 -93 29 -131t71 -38q37 0 63 33
t26 102v198zM375 714h87l-79 -172h-55z" />
    <glyph glyph-name="uni0400" unicode="&#x400;" horiz-adv-x="604" 
d="M48 686h502v-154h-64v50q0 29 -10 34.5t-52 7.5h-223v-241h176q31 0 39 8.5t8 35.5v23h57v-197h-57v31q0 26 -10.5 32.5t-41.5 6.5h-171v-262h253q30 0 37 9.5t7 38.5v43h63v-152h-513v49h24q30 0 36.5 9.5t6.5 38.5v496q0 25 -7.5 34t-35.5 9h-24v50zM193 870h97
l65 -129h-55z" />
    <glyph glyph-name="c.Io" unicode="&#x401;" horiz-adv-x="604" 
d="M48 686h502v-154h-64v50q0 29 -10 34.5t-52 7.5h-223v-241h176q31 0 39 8.5t8 35.5v23h57v-197h-57v31q0 26 -10.5 32.5t-41.5 6.5h-171v-262h253q30 0 37 9.5t7 38.5v43h63v-152h-513v49h24q30 0 36.5 9.5t6.5 38.5v496q0 25 -7.5 34t-35.5 9h-24v50zM215 829
q18 0 31 -12.5t13 -31.5q0 -18 -13 -31t-31 -13t-31 12.5t-13 31.5t13 31.5t31 12.5zM402 829q18 0 31 -12.5t13 -31.5q0 -18 -13 -31t-31 -13t-31 12.5t-13 31.5t13 31.5t31 12.5z" />
    <glyph glyph-name="c.Dje" unicode="&#x402;" horiz-adv-x="783" 
d="M24 686h598v-165h-64v62q0 14 -1 20t-5 12.5t-14 8.5t-28 2h-144v-263q25 23 70 40t97 17q93 0 150.5 -57t57.5 -158q0 -107 -48 -163.5t-123 -56.5q-25 0 -48 5v59q15 -4 30 -4q48 0 71.5 41t23.5 106q0 162 -136 162q-81 0 -145 -67v-184q0 -35 7.5 -44.5t43.5 -9.5h21
v-49h-230v49h28q30 0 37 9t7 40v528h-140q-36 0 -44 -9t-8 -44v-52h-64v165z" />
    <glyph glyph-name="c.Gje" unicode="&#x403;" horiz-adv-x="573" 
d="M48 686h498v-153h-63v40q0 33 -8 41.5t-48 8.5h-225v-524q0 -31 7 -40.5t40 -9.5h29v-49h-230v49h21q33 0 40 11t7 48v479q0 31 -8 40t-42 9h-18v50zM317 870h97l-107 -129h-55z" />
    <glyph glyph-name="c.IeUkr" unicode="&#x404;" horiz-adv-x="667" 
d="M615 648v-155h-72q-2 81 -12 98q-12 19 -54.5 34.5t-92.5 15.5q-103 0 -166.5 -69.5t-73.5 -188.5h304v-60h-305q3 -69 26 -122.5t58.5 -84t75 -46t80.5 -15.5q49 0 112.5 19t119.5 68v-84q-96 -76 -242 -76q-149 0 -235 101t-86 255q0 99 37 181t115 133.5t184 51.5
q131 0 227 -56z" />
    <glyph glyph-name="c.Dze" unicode="&#x405;" horiz-adv-x="531" 
d="M464 661v-151h-67v26q0 59 -17 74q-35 35 -109 35q-66 0 -94.5 -33t-28.5 -70q0 -22 8.5 -40.5t19 -31.5t36 -29.5t43.5 -26t57 -29.5q36 -18 54 -27.5t45.5 -29t41 -38t24.5 -47.5t11 -63q0 -29 -9.5 -59t-32 -63.5t-70.5 -54.5t-115 -21q-126 0 -215 40v172h72v-38
q0 -50 20 -72q37 -43 121 -43q60 0 100.5 32.5t40.5 88.5q0 54 -32 84t-107 68q-41 21 -61.5 32t-52 32.5t-47 40.5t-27.5 47.5t-12 61.5q0 67 54 121.5t162 54.5q101 0 187 -43z" />
    <glyph glyph-name="c.IUkr" unicode="&#x406;" 
d="M56 686h221v-51h-17q-36 0 -43 -9.5t-7 -47.5v-470q0 -40 7 -49.5t43 -9.5h17v-49h-221v49h20q34 0 40.5 9t6.5 45v483q0 31 -7 40t-40 9h-20v51z" />
    <glyph glyph-name="c.Yi" unicode="&#x407;" 
d="M56 686h221v-51h-17q-36 0 -43 -9.5t-7 -47.5v-470q0 -40 7 -49.5t43 -9.5h17v-49h-221v49h20q34 0 40.5 9t6.5 45v483q0 31 -7 40t-40 9h-20v51zM73 829q18 0 31 -12.5t13 -31.5q0 -18 -13 -31t-31 -13t-31 12.5t-13 31.5t13 31.5t31 12.5zM260 829q18 0 31 -12.5
t13 -31.5q0 -18 -13 -31t-31 -13t-31 12.5t-13 31.5t13 31.5t31 12.5z" />
    <glyph glyph-name="c.Je" unicode="&#x408;" horiz-adv-x="479" 
d="M221 686h226v-50h-24q-31 0 -37.5 -9.5t-6.5 -39.5v-387q0 -106 -51.5 -162t-153.5 -56q-74 0 -142 34v133h64v-31q0 -78 86 -78q31 0 53 11t33 25.5t17 40.5t7 43.5t1 45.5v385q0 18 -1.5 25.5t-11.5 13.5t-32 6h-27v50z" />
    <glyph glyph-name="c.Lje" unicode="&#x409;" horiz-adv-x="994" 
d="M608 326v-266h103q151 0 151 129q0 71 -40.5 104t-137.5 33h-76zM675 686v-51h-17q-36 0 -43 -9.5t-7 -47.5v-192h110q234 0 234 -191q0 -65 -32 -110.5t-81 -66.5q-43 -18 -135 -18h-250v49h20q34 0 40.5 9t6.5 45v523h-179q-16 -286 -57 -468q-22 -96 -57 -134
t-100 -38q-49 0 -96 30v111h64v-20q0 -61 42 -61q46 0 72 104q24 99 40.5 233.5t16.5 209.5q0 28 -7.5 35.5t-35.5 7.5h-24v50h475z" />
    <glyph glyph-name="c.Nje" unicode="&#x40a;" horiz-adv-x="1004" 
d="M464 686h221v-51h-17q-29 0 -39.5 -9.5t-10.5 -42.5v-186h110q234 0 234 -191q0 -104 -61.5 -155t-155.5 -51h-281v49h20q30 0 38.5 8.5t8.5 45.5v231h-332v-237q0 -19 1.5 -27t12 -14.5t32.5 -6.5h21v-49h-221v49h25q30 0 36.5 9.5t6.5 38.5v492q0 28 -7 37.5t-40 9.5
h-21v50h221v-50h-21q-32 0 -39 -10t-7 -37v-192h332v189q0 31 -7 40t-40 9h-20v51zM618 334v-274h103q151 0 151 140q0 70 -40.5 102t-137.5 32h-76z" />
    <glyph glyph-name="c.Tshe" unicode="&#x40b;" horiz-adv-x="822" 
d="M720 216v-113q0 -35 7.5 -44.5t43.5 -9.5h21v-49h-230v49h28q30 0 37 9t7 40v105q0 151 -123 151q-40 0 -78.5 -18t-66.5 -49v-184q0 -35 7.5 -44.5t43.5 -9.5h21v-49h-230v49h28q30 0 37 9t7 40v528h-140q-36 0 -44 -9t-8 -44v-52h-64v165h598v-165h-64v62q0 14 -1 20
t-5 12.5t-14 8.5t-28 2h-144v-263q24 23 71 40t96 17q86 0 136.5 -54t50.5 -150z" />
    <glyph glyph-name="c.Kje" unicode="&#x40c;" horiz-adv-x="639" 
d="M45 686h221v-51h-17q-36 0 -43 -9.5t-7 -47.5v-181h28q49 0 71.5 17t51.5 71l63 120q24 46 51.5 66t71.5 20q33 0 54 -6v-61q-18 6 -41 6q-25 0 -42.5 -19.5t-47.5 -72.5l-62 -110q-12 -22 -35.5 -39t-46.5 -20v-2q67 -16 116 -100l85 -151q21 -39 37.5 -53t47.5 -14h5
v-49h-40q-53 0 -77 14.5t-50 59.5l-107 191q-27 44 -46.5 58t-66.5 14h-20v-229q0 -40 7 -49.5t43 -9.5h17v-49h-221v49h20q34 0 40.5 9t6.5 45v483q0 31 -7 40t-40 9h-20v51zM337 870h97l-107 -129h-55z" />
    <glyph glyph-name="uni040D" unicode="&#x40d;" horiz-adv-x="752" 
d="M486 686h221v-51h-17q-36 0 -43 -9.5t-7 -47.5v-470q0 -40 7 -49.5t43 -9.5h17v-49h-221v49h20q34 0 40.5 9t6.5 45v382l-354 -378q0 -39 7 -48.5t43 -9.5h17v-49h-221v49h20q34 0 40.5 9t6.5 45v483q0 31 -7 40t-40 9h-20v51h221v-51h-17q-36 0 -43 -9.5t-7 -47.5v-375
l354 378v5q0 31 -7 40t-40 9h-20v51zM275 870h97l65 -129h-55z" />
    <glyph glyph-name="c.Yushort" unicode="&#x40e;" horiz-adv-x="677" 
d="M9 686h241v-50h-23q-14 0 -21 -0.5t-14 -6t-7 -15.5q0 -12 14 -40l162 -344h2l144 334q15 36 15 44q0 28 -44 28h-22v50h212v-50h-20q-34 0 -54 -44l-187 -428q-17 -39 -27.5 -61t-28.5 -48t-36.5 -38.5t-46 -21.5t-62.5 -9q-68 0 -128 30v133h64v-31q0 -72 65 -72
q73 0 110 83l-214 443q-21 43 -33.5 53.5t-40.5 10.5h-20v50zM177 865h87q0 -38 26 -54t59 -16q32 0 58 16t26 54h87q0 -48 -45.5 -86t-126.5 -38q-78 0 -124.5 37.5t-46.5 86.5z" />
    <glyph glyph-name="c.Dzhe" unicode="&#x40f;" horiz-adv-x="730" 
d="M685 0h-246q-25 0 -33.5 -8t-8.5 -39v-103h-65v103q0 29 -7 38t-26 9h-254v50h23q31 0 37.5 9.5t6.5 43.5v486q0 29 -7 38.5t-37 9.5h-23v49h221v-49h-19q-33 0 -41 -8t-8 -40v-526h333v526q0 19 -1.5 27t-12 14.5t-32.5 6.5h-21v49h221v-49h-25q-30 0 -36.5 -9.5
t-6.5 -38.5v-492q0 -28 7 -37.5t40 -9.5h21v-50z" />
    <glyph glyph-name="c.A" unicode="&#x410;" horiz-adv-x="677" 
d="M298 695h82l204 -581q15 -44 27.5 -54.5t37.5 -10.5h19v-49h-225v49h26q14 0 21.5 1t13 6.5t5.5 15.5q0 9 -11 42l-37 106h-263l-39 -110q-9 -18 -9 -36q0 -25 41 -25h28v-49h-210v49h18q25 0 37.5 10.5t24.5 43.5zM328 591l-109 -311h220l-109 311h-2z" />
    <glyph glyph-name="c.Be" unicode="&#x411;" horiz-adv-x="630" 
d="M48 0v49h24q30 0 36.5 9.5t6.5 38.5v496q0 25 -7.5 34t-35.5 9h-24v50h483v-154h-64v50q0 29 -10 34.5t-52 7.5h-204v-238h160q234 0 234 -191q0 -65 -32 -110.5t-81 -66.5q-43 -18 -135 -18h-299zM201 326v-266h153q151 0 151 129q0 71 -40.5 104t-137.5 33h-126z" />
    <glyph glyph-name="c.Ve" unicode="&#x412;" horiz-adv-x="614" 
d="M41 687l247 -1q100 0 145 -17q101 -39 101 -153q0 -107 -95 -148v-2q140 -30 140 -171q0 -65 -32 -110.5t-81 -66.5q-43 -18 -135 -18l-290 1v49h24q32 0 38.5 9.5t6.5 43.5v488q0 19 -1.5 27t-11.5 13.5t-32 5.5h-24v50zM196 625v-239h95q158 0 158 125q0 114 -143 114
h-110zM196 326v-266h142q151 0 151 129q0 39 -14 66.5t-31 41t-46 20.5t-45 8t-42 1h-115z" />
    <glyph glyph-name="c.Ghe" unicode="&#x413;" horiz-adv-x="573" 
d="M48 686h498v-153h-63v40q0 33 -8 41.5t-48 8.5h-225v-524q0 -31 7 -40.5t40 -9.5h29v-49h-230v49h21q33 0 40 11t7 48v479q0 31 -8 40t-42 9h-18v50z" />
    <glyph glyph-name="c.De" unicode="&#x414;" horiz-adv-x="709" 
d="M505 0h-304q-40 0 -61 -3t-31.5 -17t-12 -27.5t-1.5 -47.5v-57h-63v213h25q30 0 45.5 10.5t29.5 34.5q51 87 83 225t32 262q0 25 -7.5 34t-35.5 9h-24v50h473v-51h-17q-36 0 -43 -9.5t-7 -47.5v-458q0 -38 5.5 -48t33.5 -11h48v-213h-63v58q0 23 -0.5 33.5t-3.5 24t-9 18
t-18 10t-29.5 7t-44.5 1.5zM322 626q-5 -175 -42 -324t-92 -241h311v565h-177z" />
    <glyph glyph-name="c.Ie" unicode="&#x415;" horiz-adv-x="604" 
d="M48 686h502v-154h-64v50q0 29 -10 34.5t-52 7.5h-223v-241h176q31 0 39 8.5t8 35.5v23h57v-197h-57v31q0 26 -10.5 32.5t-41.5 6.5h-171v-262h253q30 0 37 9.5t7 38.5v43h63v-152h-513v49h24q30 0 36.5 9.5t6.5 38.5v496q0 25 -7.5 34t-35.5 9h-24v50z" />
    <glyph glyph-name="c.Zhe" unicode="&#x416;" horiz-adv-x="964" 
d="M926 49h5v-49h-40q-53 0 -77 14.5t-50 59.5l-107 191q-27 44 -46.5 58t-66.5 14h-20v-229q0 -40 7 -49.5t43 -9.5h17v-49h-221v49h20q34 0 40.5 9t6.5 45v234h-15q-52 0 -72.5 -16.5t-53.5 -75.5l-96 -171q-25 -45 -51.5 -59.5t-75.5 -14.5h-40v49h5q7 0 14 1.5t12.5 3
t11.5 6t10 7t9.5 9.5t8 9.5t8 11t6.5 11t6.5 12t6.5 10.5q13 23 39.5 70t35.5 63q47 82 114 102v2q-48 14 -89 86l-56 99q-31 55 -44 66q-16 13 -38 13t-39 -5v59q16 6 57 6q40 0 67 -20t52 -67l61 -114q33 -61 52 -77t70 -16h24v189q0 31 -7 40t-40 9h-20v51h221v-51h-17
q-36 0 -43 -9.5t-7 -47.5v-181h28q49 0 71.5 17t51.5 71l63 120q24 46 51.5 66t71.5 20q33 0 54 -6v-61q-18 6 -41 6q-25 0 -42.5 -19.5t-47.5 -72.5l-62 -110q-12 -22 -35.5 -39t-46.5 -20v-2q67 -16 116 -100l85 -151q21 -39 37.5 -53t47.5 -14z" />
    <glyph glyph-name="c.Ze" unicode="&#x417;" horiz-adv-x="562" 
d="M86 533v119q101 46 190 46q222 0 222 -174q0 -58 -41 -104t-129 -56v-2q90 -4 135.5 -49t45.5 -121q0 -102 -64.5 -154t-177.5 -52q-106 0 -194 46v138h64v-40q0 -78 133 -78q78 0 113.5 38.5t35.5 97.5q0 70 -49.5 103.5t-175.5 33.5v66q218 4 218 128q0 113 -139 113
q-51 0 -89 -16.5t-38 -57.5v-25h-60z" />
    <glyph glyph-name="c.I" unicode="&#x418;" horiz-adv-x="752" 
d="M486 686h221v-51h-17q-36 0 -43 -9.5t-7 -47.5v-470q0 -40 7 -49.5t43 -9.5h17v-49h-221v49h20q34 0 40.5 9t6.5 45v382l-354 -378q0 -39 7 -48.5t43 -9.5h17v-49h-221v49h20q34 0 40.5 9t6.5 45v483q0 31 -7 40t-40 9h-20v51h221v-51h-17q-36 0 -43 -9.5t-7 -47.5v-375
l354 378v5q0 31 -7 40t-40 9h-20v51z" />
    <glyph glyph-name="c.Ishort" unicode="&#x419;" horiz-adv-x="752" 
d="M486 686h221v-51h-17q-36 0 -43 -9.5t-7 -47.5v-470q0 -40 7 -49.5t43 -9.5h17v-49h-221v49h20q34 0 40.5 9t6.5 45v382l-354 -378q0 -39 7 -48.5t43 -9.5h17v-49h-221v49h20q34 0 40.5 9t6.5 45v483q0 31 -7 40t-40 9h-20v51h221v-51h-17q-36 0 -43 -9.5t-7 -47.5v-375
l354 378v5q0 31 -7 40t-40 9h-20v51zM205 865h87q0 -38 26 -54t59 -16q32 0 58 16t26 54h87q0 -48 -45.5 -86t-126.5 -38q-78 0 -124.5 37.5t-46.5 86.5z" />
    <glyph glyph-name="c.Ka" unicode="&#x41a;" horiz-adv-x="639" 
d="M45 686h221v-51h-17q-36 0 -43 -9.5t-7 -47.5v-181h28q49 0 71.5 17t51.5 71l63 120q24 46 51.5 66t71.5 20q33 0 54 -6v-61q-18 6 -41 6q-25 0 -42.5 -19.5t-47.5 -72.5l-62 -110q-12 -22 -35.5 -39t-46.5 -20v-2q67 -16 116 -100l85 -151q21 -39 37.5 -53t47.5 -14h5
v-49h-40q-53 0 -77 14.5t-50 59.5l-107 191q-27 44 -46.5 58t-66.5 14h-20v-229q0 -40 7 -49.5t43 -9.5h17v-49h-221v49h20q34 0 40.5 9t6.5 45v483q0 31 -7 40t-40 9h-20v51z" />
    <glyph glyph-name="c.El" unicode="&#x41b;" horiz-adv-x="720" 
d="M285 158q-22 -96 -57 -134t-100 -38q-49 0 -96 30v111h64v-20q0 -61 42 -61q46 0 72 104q24 99 40.5 233.5t16.5 209.5q0 28 -7.5 35.5t-35.5 7.5h-24v50h475v-51h-17q-36 0 -43 -9.5t-7 -47.5v-470q0 -40 7 -49.5t43 -9.5h17v-49h-221v49h20q34 0 40.5 9t6.5 45v523
h-179q-16 -286 -57 -468z" />
    <glyph glyph-name="c.Em" unicode="&#x41c;" horiz-adv-x="885" 
d="M47 686h199l196 -590h2l197 590h197v-50h-20q-33 0 -40 -9.5t-7 -41.5v-489q0 -29 7 -38t40 -9h20v-49h-216v49h19q35 0 41.5 9.5t6.5 48.5v529h-2l-212 -636h-82l-212 633h-2v-537q0 -14 1 -21t5 -14t13.5 -9.5t26.5 -2.5h21v-49h-199v49h22q32 0 39 10t7 42v484
q0 23 -2 31.5t-11.5 14t-32.5 5.5h-22v50z" />
    <glyph glyph-name="c.En" unicode="&#x41d;" horiz-adv-x="750" 
d="M45 686h221v-50h-21q-32 0 -39 -10t-7 -37v-192h353v192q0 30 -7.5 38.5t-41.5 8.5h-19v50h221v-50h-23q-31 0 -37.5 -9.5t-6.5 -43.5v-486q0 -29 7 -38.5t37 -9.5h23v-49h-221v49h19q33 0 41 8t8 40v237h-353v-237q0 -19 1.5 -27t12 -14.5t32.5 -6.5h21v-49h-221v49h25
q30 0 36.5 9.5t6.5 38.5v492q0 28 -7 37.5t-40 9.5h-21v50z" />
    <glyph glyph-name="c.O" unicode="&#x41e;" horiz-adv-x="760" 
d="M382 704q81 0 144.5 -29t103 -79.5t59.5 -114t20 -135.5q0 -162 -92.5 -263t-240.5 -101q-143 0 -234 96t-91 257q0 169 91.5 269t239.5 100zM381 638q-69 0 -118.5 -28t-73.5 -74.5t-34.5 -94t-10.5 -99.5q0 -60 13 -111t39.5 -93t74 -66t110.5 -24q109 0 171.5 80
t62.5 225q0 144 -66 214.5t-168 70.5z" />
    <glyph glyph-name="c.Pe" unicode="&#x41f;" horiz-adv-x="730" 
d="M45 686h640v-50h-23q-31 0 -37.5 -9.5t-6.5 -43.5v-486q0 -29 7 -38.5t37 -9.5h23v-49h-221v49h19q33 0 41 8t8 40v526h-333v-526q0 -19 1.5 -27t12 -14.5t32.5 -6.5h21v-49h-221v49h25q30 0 36.5 9.5t6.5 38.5v492q0 28 -7 37.5t-40 9.5h-21v50z" />
    <glyph glyph-name="c.Er" unicode="&#x420;" horiz-adv-x="594" 
d="M43 686h279q19 0 31.5 -0.5t38 -4t44 -10t41 -20.5t36.5 -33.5t24 -50t10 -69.5q0 -70 -30 -110.5t-64 -56.5q-20 -10 -62 -16.5t-69 -6.5h-125v-216q0 -27 9 -35t46 -8h21v-49h-230v49h17q36 0 43.5 9.5t7.5 40.5v491q0 15 -1 21.5t-5.5 13.5t-15 9t-29.5 2h-17v50z
M197 625v-258h98q167 0 167 127q0 131 -149 131h-116z" />
    <glyph glyph-name="c.Es" unicode="&#x421;" horiz-adv-x="667" 
d="M615 648v-155h-72q-2 81 -12 98q-12 19 -54.5 34.5t-92.5 15.5q-111 0 -176 -80.5t-65 -215.5q0 -75 22 -133t58 -91t76.5 -49.5t83.5 -16.5q49 0 112.5 19t119.5 68v-84q-96 -76 -242 -76q-149 0 -235 101t-86 255q0 99 37 181t115 133.5t184 51.5q131 0 227 -56z" />
    <glyph glyph-name="c.Te" unicode="&#x422;" horiz-adv-x="646" 
d="M24 686h598v-165h-64v62q0 14 -1 20t-5 12.5t-14 8.5t-28 2h-144v-523q0 -35 7.5 -44.5t43.5 -9.5h21v-49h-230v49h28q30 0 37 9t7 40v528h-140q-36 0 -44 -9t-8 -44v-52h-64v165z" />
    <glyph glyph-name="c.U" unicode="&#x423;" horiz-adv-x="677" 
d="M9 686h241v-50h-23q-14 0 -21 -0.5t-14 -6t-7 -15.5q0 -12 14 -40l162 -344h2l144 334q15 36 15 44q0 28 -44 28h-22v50h212v-50h-20q-34 0 -54 -44l-187 -428q-17 -39 -27.5 -61t-28.5 -48t-36.5 -38.5t-46 -21.5t-62.5 -9q-68 0 -128 30v133h64v-31q0 -72 65 -72
q73 0 110 83l-214 443q-21 43 -33.5 53.5t-40.5 10.5h-20v50z" />
    <glyph glyph-name="c.Ef" unicode="&#x424;" horiz-adv-x="781" 
d="M280 686h221v-51h-17q-36 0 -43 -9.5t-7 -47.5v-6q299 -11 299 -226q0 -211 -299 -226v-12q0 -40 7 -49.5t43 -9.5h17v-49h-221v49h20q34 0 40.5 9t6.5 45v16q-66 2 -115.5 13t-93.5 35.5t-67 69t-23 108.5q0 104 76.5 161.5t222.5 65.5v14q0 31 -7 40t-40 9h-20v51z
M142 345q0 -47 15.5 -80t45 -51t64 -25.5t80.5 -9.5v332q-101 -5 -153 -47t-52 -119zM639 346q0 82 -50.5 121.5t-154.5 43.5v-331q99 5 152 46.5t53 119.5z" />
    <glyph glyph-name="c.Ha" unicode="&#x425;" horiz-adv-x="667" 
d="M36 686h234v-50h-13q-35 0 -35 -21q0 -5 4.5 -14.5t9.5 -17.5l4 -8l102 -156l103 148q24 35 24 52t-29 17h-21v50h215v-50q-25 0 -37.5 -2.5t-33 -19.5t-45.5 -53l-139 -200l150 -229q20 -30 34.5 -47.5t29 -25t24.5 -9t28 -1.5v-49h-235v49h20q31 0 31 16q0 10 -16 37
l-118 182l-129 -185q-16 -25 -16 -33q0 -17 31 -17h21v-49h-212v49h14q18 0 28.5 2.5t29.5 20t44 52.5l151 220l-146 223q-17 26 -30 40.5t-27 20.5t-23 7t-27 1v50z" />
    <glyph glyph-name="c.Tse" unicode="&#x426;" horiz-adv-x="740" 
d="M617 589v-467q0 -38 5.5 -48.5t33.5 -10.5h48v-215h-63v57q0 34 -1.5 47.5t-12 27.5t-31.5 17t-61 3h-490v50h23q31 0 37.5 9.5t6.5 43.5v486q0 29 -7 38.5t-37 9.5h-23v49h221v-49h-19q-33 0 -41 -8t-8 -40v-526h333v526q0 19 -1.5 27t-12 14.5t-32.5 6.5h-21v49h221
v-49h-25q-30 0 -36.5 -9.5t-6.5 -38.5z" />
    <glyph glyph-name="c.Che" unicode="&#x427;" horiz-adv-x="718" 
d="M113 468v121q0 28 -7 37.5t-40 9.5h-21v50h221v-50h-21q-32 0 -39 -10t-7 -37v-117q0 -79 36 -112t104 -33q51 0 99.5 19.5t81.5 51.5v191q0 30 -7.5 38.5t-41.5 8.5h-19v50h221v-50h-23q-31 0 -37.5 -9.5t-6.5 -43.5v-486q0 -29 7 -38.5t37 -9.5h23v-49h-221v49h19
q33 0 41 8t8 40v225q-32 -24 -87 -42.5t-113 -18.5q-207 0 -207 207z" />
    <glyph glyph-name="c.Sha" unicode="&#x428;" horiz-adv-x="964" 
d="M371 686h221v-51h-17q-36 0 -43 -9.5t-7 -47.5v-515h240v526q0 19 -1.5 27t-12 14.5t-32.5 6.5h-21v49h221v-49h-25q-30 0 -36.5 -9.5t-6.5 -38.5v-492q0 -28 7 -37.5t40 -9.5h21v-50h-874v50h23q31 0 37.5 9.5t6.5 43.5v486q0 29 -7 38.5t-37 9.5h-23v49h221v-49h-19
q-33 0 -41 -8t-8 -40v-526h240v523q0 31 -7 40t-40 9h-20v51z" />
    <glyph glyph-name="c.Shcha" unicode="&#x429;" horiz-adv-x="974" 
d="M45 0v50h23q31 0 37.5 9.5t6.5 43.5v486q0 29 -7 38.5t-37 9.5h-23v49h221v-49h-19q-33 0 -41 -8t-8 -40v-526h240v523q0 31 -7 40t-40 9h-20v51h221v-51h-17q-36 0 -43 -9.5t-7 -47.5v-515h240v526q0 19 -1.5 27t-12 14.5t-32.5 6.5h-21v49h221v-49h-25
q-30 0 -36.5 -9.5t-6.5 -38.5v-467q0 -38 5.5 -48.5t33.5 -10.5h48v-215h-63v57q0 34 -1.5 47.5t-12 27.5t-31.5 17t-61 3h-724z" />
    <glyph glyph-name="c.Hard" unicode="&#x42a;" horiz-adv-x="775" 
d="M463 686v-51h-17q-36 0 -43 -9.5t-7 -47.5v-192h110q234 0 234 -191q0 -65 -32 -110.5t-81 -66.5q-43 -18 -135 -18h-254v49h28q30 0 37 9t7 40v528h-170q-36 0 -44 -9t-8 -44v-52h-64v165h439zM396 326v-266h103q151 0 151 129q0 71 -40.5 104t-137.5 33h-76z" />
    <glyph glyph-name="c.Yeru" unicode="&#x42b;" horiz-adv-x="880" 
d="M45 686h221v-51h-17q-32 0 -41 -7.5t-9 -31.5v-210h110q234 0 234 -191q0 -65 -32 -110.5t-81 -66.5q-43 -18 -135 -18h-250v49h20q34 0 40.5 9t6.5 45v483q0 31 -7 40t-40 9h-20v51zM199 326v-266h103q151 0 151 129q0 71 -40.5 104t-137.5 33h-76zM614 686h221v-51h-17
q-36 0 -43 -9.5t-7 -47.5v-470q0 -40 7 -49.5t43 -9.5h17v-49h-221v49h20q34 0 40.5 9t6.5 45v483q0 31 -7 40t-40 9h-20v51z" />
    <glyph glyph-name="c.Soft" unicode="&#x42c;" horiz-adv-x="578" 
d="M45 686h221v-51h-17q-32 0 -41 -7.5t-9 -31.5v-210h110q234 0 234 -191q0 -65 -32 -110.5t-81 -66.5q-43 -18 -135 -18h-250v49h20q34 0 40.5 9t6.5 45v483q0 31 -7 40t-40 9h-20v51zM199 326v-266h103q151 0 151 129q0 71 -40.5 104t-137.5 33h-76z" />
    <glyph glyph-name="c.E" unicode="&#x42d;" horiz-adv-x="667" 
d="M52 493v155q96 56 236 56q165 0 246 -100.5t81 -257.5q0 -160 -90 -262t-231 -102q-146 0 -242 76v84q56 -49 119.5 -68t112.5 -19q46 0 86 15t74 45.5t55.5 84t24.5 123.5h-305v60h304q-7 114 -65 186t-172 72q-52 0 -95 -15.5t-55 -34.5q-10 -17 -12 -98h-72z" />
    <glyph glyph-name="c.Yu" unicode="&#x42e;" horiz-adv-x="1016" 
d="M666 704q145 0 222 -103t77 -255q0 -162 -84.5 -263t-219.5 -101q-131 0 -214 95.5t-83 256.5h-165v-237q0 -19 1.5 -27t12 -14.5t32.5 -6.5h21v-49h-221v49h25q30 0 36.5 9.5t6.5 38.5v492q0 28 -7 37.5t-40 9.5h-21v50h221v-50h-21q-32 0 -39 -10t-7 -37v-192h168
q15 142 96 224.5t203 82.5zM665 638q-61 0 -104 -28t-64.5 -74.5t-30.5 -94t-9 -99.5q0 -82 19 -145.5t67.5 -106t121.5 -42.5q96 0 151 80t55 225q0 144 -58 214.5t-148 70.5z" />
    <glyph glyph-name="c.Ya" unicode="&#x42f;" horiz-adv-x="646" 
d="M448 308h-72q-86 0 -125 -92l-59 -142q-20 -47 -46.5 -60.5t-85.5 -13.5h-50v49h22q21 0 36.5 6t26.5 21t15.5 24t13.5 30l36 87q34 82 101 102v2q-65 0 -114.5 45.5t-49.5 130.5q0 189 255 189h249v-50h-19q-33 0 -40.5 -9t-7.5 -38v-484q0 -37 7 -46.5t41 -9.5h19v-49
h-220v49h20q32 0 39.5 9.5t7.5 36.5v213zM448 367v259h-92q-173 0 -173 -134q0 -125 165 -125h100z" />
    <glyph glyph-name="c.a" unicode="&#x430;" horiz-adv-x="490" 
d="M79 336v100q73 52 167 52q105 0 146 -64q18 -30 18 -115v-196q0 -37 6 -50.5t19 -13.5q19 0 43 14v-49q-3 -3 -6 -3q-46 -23 -78 -23q-19 0 -31.5 7.5t-19 23t-8 22.5t-3.5 22q-18 -22 -30.5 -34t-44 -26.5t-70.5 -14.5q-22 0 -44 5t-47 18.5t-40.5 42t-15.5 69.5
q0 26 7.5 47.5t17 37t32.5 30t40.5 23t56 20t62.5 17.5l76 19q0 20 -0.5 32t-5.5 31t-14.5 29.5t-28 19t-45.5 8.5q-96 0 -96 -80v-21h-63zM332 265l-8 -2q-46 -13 -64 -18t-49 -15.5t-42 -18t-25.5 -20t-19 -26.5t-4.5 -33q0 -39 25 -60.5t59 -21.5q56 0 97 39
q31 31 31 106v70z" />
    <glyph glyph-name="c.be" unicode="&#x431;" horiz-adv-x="536" 
d="M279 585q-85 -12 -121.5 -69t-40.5 -165h4q45 134 175 134q43 0 78 -15t57 -38.5t36.5 -55.5t20.5 -63.5t6 -63.5q0 -110 -57 -187t-155 -77q-118 0 -174 80t-56 251q0 176 54 250q30 40 66 59t116 32q141 23 169 36v-65q-31 -21 -178 -43zM279 421q-40 0 -68.5 -18
t-42.5 -48.5t-19.5 -61t-5.5 -65.5q0 -89 41 -133.5t96 -44.5q59 0 94 51.5t35 137.5q0 85 -33.5 133.5t-96.5 48.5z" />
    <glyph glyph-name="c.ve" unicode="&#x432;" horiz-adv-x="494" 
d="M30 474h230q69 0 103 -13q32 -13 51.5 -41t19.5 -63q0 -69 -75 -104q105 -19 105 -118q0 -67 -50 -107q-38 -28 -137 -28h-247v45h23q19 0 26 8t7 32v303q0 26 -6 33t-27 7h-23v46zM164 419v-143h78q70 0 91 22t21 51q0 28 -18 47q-20 23 -87 23h-85zM164 222v-167h87
q84 0 108 25q23 25 23 58q0 35 -21 58q-24 26 -94 26h-103z" />
    <glyph glyph-name="c.ghe" unicode="&#x433;" horiz-adv-x="425" 
d="M28 474h380v-148h-55v40q0 33 -8 41.5t-48 8.5h-132v-326q0 -30 4.5 -37.5t28.5 -7.5h23v-45h-193v45h23q23 0 29.5 7.5t6.5 41.5v283q0 36 -6.5 44t-36.5 8h-16v45z" />
    <glyph glyph-name="c.de" unicode="&#x434;" horiz-adv-x="573" 
d="M132 474h401v-45h-23q-24 0 -28.5 -7.5t-4.5 -37.5v-281q0 -28 3.5 -36.5t20.5 -8.5h52v-198h-55v55q0 54 -12 69.5t-70 15.5h-253q-57 -1 -69 -16.5t-12 -68.5v-55h-55v198h35q23 0 38.5 11t30.5 41q32 63 46 146.5t14 137.5q0 12 -1.5 18t-10 11.5t-24.5 5.5h-23v45z
M399 416h-143q-11 -245 -79 -358h222v358z" />
    <glyph glyph-name="c.ie" unicode="&#x435;" horiz-adv-x="499" 
d="M454 244h-327q1 -88 38 -139.5t112 -51.5q82 0 166 75v-73q-78 -70 -181 -70q-108 0 -163.5 70.5t-55.5 173.5q0 116 60 187.5t159 71.5q107 0 157 -80q35 -56 35 -164zM132 299h240q-4 61 -32 98t-83 37q-9 0 -17.5 -1t-27 -8t-32.5 -20t-28 -40.5t-20 -65.5z" />
    <glyph glyph-name="c.zhe" unicode="&#x436;" horiz-adv-x="722" 
d="M693 44h6v-44h-38q-39 0 -57 10t-37 41l-78 127q-18 29 -33.5 39.5t-48.5 10.5h-7v-134q0 -34 6.5 -41.5t29.5 -7.5h23v-45h-196v45h23q23 0 29.5 7.5t6.5 41.5v134h-7q-33 0 -49 -10.5t-33 -39.5l-78 -127q-19 -31 -37 -41t-57 -10h-38v44h6q18 0 29 9.5t28 36.5l62 101
q31 51 86 63v1q-43 5 -68 46l-38 61q-17 27 -23.5 36.5t-19 18.5t-27.5 9q-12 0 -24 -4v52q20 4 42 4q35 0 57 -13.5t40 -44.5l45 -78q22 -38 40.5 -50t51.5 -12h12v100q0 34 -6.5 41.5t-29.5 7.5h-23v45h196v-45h-23q-23 0 -29.5 -7.5t-6.5 -41.5v-100h12q33 0 51.5 12
t40.5 50l45 78q18 31 40 44.5t57 13.5q22 0 42 -4v-52q-12 4 -24 4q-21 0 -34 -13.5t-36 -50.5l-38 -61q-25 -41 -68 -46v-1q55 -12 86 -63l62 -101q16 -27 27 -36.5t30 -9.5z" />
    <glyph glyph-name="c.ze" unicode="&#x437;" horiz-adv-x="477" 
d="M72 362v95q78 32 154 32q92 0 141.5 -27t49.5 -94q0 -39 -26.5 -72t-86.5 -42v-1q131 -9 131 -115q0 -74 -55 -113t-153 -39q-85 0 -160 32v109h58v-31q0 -55 104 -55q58 0 91 26.5t33 67.5q0 48 -39.5 67.5t-146.5 19.5v54q54 0 90 8t51.5 23t21 28t5.5 29q0 70 -114 70
q-94 0 -94 -52v-20h-55z" />
    <glyph glyph-name="c.i" unicode="&#x438;" horiz-adv-x="562" 
d="M398 94v217l-234 -217v-4q0 -30 4.5 -37.5t28.5 -7.5h23v-45h-193v45h23q23 0 29.5 7.5t6.5 41.5v286q0 34 -6.5 41.5t-29.5 7.5h-23v45h193v-45h-23q-24 0 -28.5 -7.5t-4.5 -37.5v-215l234 218q-1 28 -7.5 35t-28.5 7h-23v45h193v-45h-23q-24 0 -28.5 -7.5t-4.5 -37.5
v-294q0 -30 4.5 -37.5t28.5 -7.5h23v-45h-193v45h23q23 0 29.5 7.5t6.5 41.5z" />
    <glyph glyph-name="c.ishort" unicode="&#x439;" horiz-adv-x="562" 
d="M398 94v217l-234 -217v-4q0 -30 4.5 -37.5t28.5 -7.5h23v-45h-193v45h23q23 0 29.5 7.5t6.5 41.5v286q0 34 -6.5 41.5t-29.5 7.5h-23v45h193v-45h-23q-24 0 -28.5 -7.5t-4.5 -37.5v-215l234 218q-1 28 -7.5 35t-28.5 7h-23v45h193v-45h-23q-24 0 -28.5 -7.5t-4.5 -37.5
v-294q0 -30 4.5 -37.5t28.5 -7.5h23v-45h-193v45h23q23 0 29.5 7.5t6.5 41.5zM110 666h87q0 -38 26 -54t59 -16q32 0 58 16t26 54h87q0 -48 -45.5 -86t-126.5 -38q-78 0 -124.5 37.5t-46.5 86.5z" />
    <glyph glyph-name="c.ka" unicode="&#x43a;" horiz-adv-x="531" 
d="M86 94v286q0 34 -6.5 41.5t-29.5 7.5h-23v45h193v-45h-23q-24 0 -28.5 -7.5t-4.5 -37.5v-104h27q33 0 53 13.5t44 48.5l55 78q23 32 45.5 45t58.5 13q26 0 48 -4v-52q-20 4 -27 4q-20 0 -34 -11.5t-46 -52.5l-49 -63q-31 -39 -72 -44v-1q54 -11 93 -64l72 -97
q20 -27 35 -38t37 -11h4v-44h-42q-39 0 -59.5 11t-42.5 43l-87 124q-21 31 -39 40.5t-58 9.5h-16v-138q0 -30 4.5 -37.5t28.5 -7.5h23v-45h-193v45h23q23 0 29.5 7.5t6.5 41.5z" />
    <glyph glyph-name="c.el" unicode="&#x43b;" horiz-adv-x="583" 
d="M171 133q14 46 27 127.5t13 133.5q0 12 -1.5 18t-10 11.5t-24.5 5.5h-23v45h401v-45h-23q-24 0 -28.5 -7.5t-4.5 -37.5v-294q0 -30 4.5 -37.5t28.5 -7.5h23v-45h-193v45h23q23 0 29.5 7.5t6.5 41.5v322h-143q-11 -179 -36 -275q-19 -77 -48 -116.5t-87 -39.5
q-38 0 -78 18v94h56v-17q0 -41 28 -41q32 0 60 94z" />
    <glyph glyph-name="c.em" unicode="&#x43c;" horiz-adv-x="677" 
d="M29 474h183l128 -388l128 388h180v-46h-23q-21 0 -27.5 -8.5t-6.5 -35.5v-295q0 -27 6.5 -35.5t27.5 -8.5h23v-45h-192v45h23q20 0 27 8.5t7 35.5v339l-145 -428h-76l-147 428v-339q0 -27 6.5 -35.5t27.5 -8.5h23v-45h-173v45h23q20 0 27 8.5t7 35.5v295q0 29 -6.5 36.5
t-27.5 7.5h-23v46z" />
    <glyph glyph-name="c.en" unicode="&#x43d;" horiz-adv-x="590" 
d="M29 474h192v-46h-23q-21 0 -27.5 -8.5t-6.5 -35.5v-101h262v101q0 28 -6.5 36t-27.5 8h-23v46h192v-46h-23q-21 0 -27.5 -8.5t-6.5 -35.5v-295q0 -27 6.5 -35.5t27.5 -8.5h23v-45h-192v45h23q20 0 27 8.5t7 35.5v137h-262v-137q0 -27 6.5 -35.5t27.5 -8.5h23v-45h-192v45
h23q20 0 27 8.5t7 35.5v295q0 29 -6.5 36.5t-27.5 7.5h-23v46z" />
    <glyph glyph-name="c.o" unicode="&#x43e;" horiz-adv-x="542" 
d="M278 485q103 0 162.5 -63.5t59.5 -178.5q0 -95 -47 -165q-63 -93 -189 -93q-61 0 -106.5 22t-69.5 59t-35 77t-11 85q0 106 59.5 181.5t176.5 75.5zM272 427q-72 0 -109.5 -55t-37.5 -139q0 -48 14 -89.5t48.5 -71t84.5 -29.5q80 0 119 74q25 48 25 121q0 58 -14.5 98
t-38.5 58.5t-45.5 25.5t-45.5 7z" />
    <glyph glyph-name="c.pe" unicode="&#x43f;" horiz-adv-x="560" 
d="M29 474h502v-46h-23q-21 0 -27.5 -8.5t-6.5 -35.5v-295q0 -27 6.5 -35.5t27.5 -8.5h23v-45h-192v45h23q20 0 27 8.5t7 35.5v328h-232v-328q0 -27 6.5 -35.5t27.5 -8.5h23v-45h-192v45h23q20 0 27 8.5t7 35.5v295q0 29 -6.5 36.5t-27.5 7.5h-23v46z" />
    <glyph glyph-name="c.er" unicode="&#x440;" horiz-adv-x="542" 
d="M11 461l136 13q6 -37 6 -70h2q15 21 28 35t45.5 30t73.5 16q94 0 146 -68.5t52 -168.5q0 -46 -12 -90.5t-36 -84t-66 -64t-96 -24.5q-37 0 -66.5 12t-41 22t-28.5 29v-164q0 -35 5.5 -41.5t33.5 -6.5h26v-46h-201v46h18q29 0 34.5 7.5t5.5 43.5v482q0 33 -6 40.5t-34 7.5
h-25v44zM283 420q-61 0 -98.5 -51.5t-37.5 -133.5q0 -57 15 -97t39 -58t44.5 -25t40.5 -7q38 0 65 18.5t40 48.5t18.5 59t5.5 60q0 35 -6.5 66t-20.5 59t-41 44.5t-64 16.5z" />
    <glyph glyph-name="c.es" unicode="&#x441;" horiz-adv-x="479" 
d="M432 445v-139h-67v43q0 36 -17.5 58.5t-71.5 22.5q-66 0 -106 -50t-40 -140q0 -50 13 -87t30 -55t40 -28.5t35.5 -12.5t24.5 -2q75 0 159 66v-73q-77 -63 -173 -63q-55 0 -97.5 21t-66.5 57t-36 78t-12 88q0 128 70 192t163 64q79 0 152 -40z" />
    <glyph glyph-name="c.te" unicode="&#x442;" horiz-adv-x="531" 
d="M27 474h477v-135h-59v38q0 31 -6 35q-6 6 -40 6h-94v-329q0 -27 6.5 -35.5t27.5 -8.5h23v-45h-192v45h23q19 0 26.5 9t7.5 35v329h-96q-33 0 -40 -7q-6 -6 -6 -34v-38h-58v135z" />
    <glyph glyph-name="c.u" unicode="&#x443;" horiz-adv-x="510" 
d="M3 474h205v-46h-24q-29 0 -29 -18q0 -11 7 -26l107 -284l97 260q12 36 12 48q0 20 -32 20h-18v46h179v-46q-32 0 -42 -7.5t-24 -43.5l-176 -450q-32 -82 -65 -115.5t-92 -33.5q-41 0 -81 18v94h56v-16q0 -42 34 -42q30 0 50 32q36 59 57 136l-141 360q-19 47 -32.5 57.5
t-47.5 10.5v46z" />
    <glyph glyph-name="c.ef" unicode="&#x444;" horiz-adv-x="698" 
d="M240 688l148 16v-220q125 -5 196.5 -67t71.5 -177q0 -116 -75 -176t-193 -64v-117q0 -33 5.5 -40.5t34.5 -7.5h16v-45h-194v45h15q30 0 37.5 7t7.5 41v117q-268 9 -268 241q0 112 77 174.5t191 68.5v114q0 35 -9 41t-61 5v44zM573 244q0 95 -53.5 140.5t-131.5 46.5v-377
q85 2 135 51t50 139zM125 240q0 -86 47 -134.5t138 -52.5v376q-79 -3 -132 -49t-53 -140z" />
    <glyph glyph-name="c.ha" unicode="&#x445;" horiz-adv-x="510" 
d="M26 474h201v-46h-21q-24 0 -24 -13q0 -9 19 -35l62 -87l72 92q18 23 18 30q0 13 -41 13v46h176v-46q-27 1 -44 -9t-41 -39l-108 -132l102 -140q25 -35 43.5 -48.5t53.5 -14.5v-45h-199v45h17q26 0 26 13q0 5 -19 32l-71 99l-83 -103q-17 -20 -17 -28q0 -13 26 -13h14v-45
h-172v45q18 1 27.5 3.5t25 13.5t33.5 34l113 139l-97 135q-27 37 -45 47t-47 11v46z" />
    <glyph glyph-name="c.tse" unicode="&#x446;" horiz-adv-x="560" 
d="M29 0v46h23q21 0 27.5 8.5t6.5 35.5v295q0 27 -6.5 35.5t-27.5 8.5h-23v45h192v-45h-23q-20 0 -27 -8.5t-7 -35.5v-327h222v327q0 27 -6.5 35.5t-27.5 8.5h-23v45h192v-45h-23q-20 0 -27 -8.5t-7 -35.5v-283q0 -27 6.5 -35.5t27.5 -8.5h42v-198h-55v55q0 54 -12 69.5
t-70 15.5h-374z" />
    <glyph glyph-name="c.che" unicode="&#x447;" horiz-adv-x="546" 
d="M25 474h192v-46h-23q-21 0 -27.5 -8.5t-6.5 -35.5v-65q0 -104 93 -104q69 0 129 53v116q0 28 -6.5 36t-27.5 8h-23v46h192v-46h-23q-21 0 -27.5 -8.5t-6.5 -35.5v-295q0 -27 6.5 -35.5t27.5 -8.5h23v-45h-182v45h21q19 0 25.5 8.5t6.5 35.5v117q-74 -48 -157 -48
q-82 0 -115.5 43t-33.5 122v61q0 29 -6.5 36.5t-27.5 7.5h-23v46z" />
    <glyph glyph-name="c.sha" unicode="&#x448;" horiz-adv-x="810" 
d="M781 0h-752v46h23q21 0 27.5 8.5t6.5 35.5v295q0 27 -6.5 35.5t-27.5 8.5h-23v45h192v-45h-23q-20 0 -27 -8.5t-7 -35.5v-328h202v328q0 27 -6.5 35.5t-27.5 8.5h-23v45h192v-45h-23q-20 0 -27 -8.5t-7 -35.5v-328h202v328q0 27 -6.5 35.5t-27.5 8.5h-23v45h192v-45h-23
q-20 0 -27 -8.5t-7 -35.5v-295q0 -29 6.5 -36.5t27.5 -7.5h23v-46z" />
    <glyph glyph-name="c.shcha" unicode="&#x449;" horiz-adv-x="820" 
d="M724 385v-283q0 -27 6.5 -35.5t27.5 -8.5h42v-198h-55v55q0 29 -1 40.5t-7.5 24.5t-21.5 16.5t-41 3.5h-645v46h23q21 0 27.5 8.5t6.5 35.5v295q0 27 -6.5 35.5t-27.5 8.5h-23v45h192v-45h-23q-20 0 -27 -8.5t-7 -35.5v-328h202v328q0 27 -6.5 35.5t-27.5 8.5h-23v45h192
v-45h-23q-20 0 -27 -8.5t-7 -35.5v-328h202v328q0 27 -6.5 35.5t-27.5 8.5h-23v45h192v-45h-23q-20 0 -27 -8.5t-7 -35.5z" />
    <glyph glyph-name="c.hard" unicode="&#x44a;" horiz-adv-x="611" 
d="M28 474h337v-45h-16q-30 0 -36.5 -8t-6.5 -44v-100h87q173 0 173 -138q0 -69 -46.5 -104t-122.5 -35h-226v45h23q22 0 28 9.5t6 35.5v326h-89q-40 0 -48 -8.5t-8 -41.5v-40h-55v148zM369 222h-63v-167h47q84 0 108 25q23 25 23 58q0 35 -21 58q-24 26 -94 26z" />
    <glyph glyph-name="c.yeru" unicode="&#x44b;" horiz-adv-x="683" 
d="M597 384v-295q0 -27 6.5 -35.5t27.5 -8.5h23v-45h-192v45h23q20 0 27 8.5t7 35.5v295q0 29 -6.5 36.5t-27.5 7.5h-23v46h192v-46h-23q-21 0 -27.5 -8.5t-6.5 -35.5zM164 384v-107h87q173 0 173 -138q0 -69 -46 -104t-123 -35h-226v45h23q20 0 27 8.5t7 35.5v295
q0 29 -6.5 36.5t-27.5 7.5h-23v46h192v-46h-23q-21 0 -27.5 -8.5t-6.5 -35.5zM227 222h-63v-167h47q84 0 108 25q23 25 23 58q0 35 -21 58q-24 26 -94 26z" />
    <glyph glyph-name="c.soft" unicode="&#x44c;" horiz-adv-x="469" 
d="M164 384v-107h87q173 0 173 -138q0 -69 -46 -104t-123 -35h-226v45h23q20 0 27 8.5t7 35.5v295q0 29 -6.5 36.5t-27.5 7.5h-23v46h192v-46h-23q-21 0 -27.5 -8.5t-6.5 -35.5zM227 222h-63v-167h47q84 0 108 25q23 25 23 58q0 35 -21 58q-24 26 -94 26z" />
    <glyph glyph-name="c.e" unicode="&#x44d;" horiz-adv-x="475" 
d="M47 337v108q73 40 168 40q103 0 160.5 -64.5t57.5 -180.5q0 -69 -20.5 -124t-73.5 -93t-133 -38q-90 0 -159 63v73q25 -20 40 -30t48 -23t67 -13q12 0 25 1.5t35 11t39 25.5t30.5 49t16.5 77h-177v57h176q-7 75 -42 114.5t-94 39.5q-97 0 -97 -81v-12h-67z" />
    <glyph glyph-name="c.yu" unicode="&#x44e;" horiz-adv-x="762" 
d="M512 485q96 0 152 -63.5t56 -178.5q0 -112 -58.5 -185t-163.5 -73q-57 0 -99.5 21.5t-65 58t-33 77t-10.5 84.5h-126v-137q0 -27 6.5 -35.5t27.5 -8.5h23v-45h-192v45h23q20 0 27 8.5t7 35.5v295q0 29 -6.5 36.5t-27.5 7.5h-23v46h192v-46h-23q-21 0 -27.5 -8.5
t-6.5 -35.5v-101h130q14 88 68.5 145t149.5 57zM506 427q-65 0 -99 -54.5t-34 -139.5q0 -48 12.5 -89.5t44 -71t76.5 -29.5q64 0 97 55.5t33 139.5q0 58 -13 98t-34.5 58.5t-41 25.5t-41.5 7z" />
    <glyph glyph-name="c.ya" unicode="&#x44f;" horiz-adv-x="495" 
d="M331 258v161h-79q-108 0 -108 -80q0 -43 26 -62t80 -19h81zM205 217v1q-64 0 -101.5 31.5t-37.5 87.5q0 137 178 137h221v-46h-23q-21 0 -27 -7t-6 -33v-299q0 -27 6.5 -35.5t27.5 -8.5h23v-45h-193v45h23q21 0 28 9t7 36v113h-41q-27 0 -42 -6t-20.5 -14t-15.5 -29
l-43 -90q-15 -33 -36.5 -48.5t-65.5 -15.5h-50v45h19q22 0 34.5 11t26.5 38l30 60q14 28 30.5 42.5t47.5 20.5z" />
    <glyph glyph-name="uni0450" unicode="&#x450;" horiz-adv-x="499" 
d="M454 244h-327q1 -88 38 -139.5t112 -51.5q82 0 166 75v-73q-78 -70 -181 -70q-108 0 -163.5 70.5t-55.5 173.5q0 116 60 187.5t159 71.5q107 0 157 -80q35 -56 35 -164zM132 299h240q-4 61 -32 98t-83 37q-9 0 -17.5 -1t-27 -8t-32.5 -20t-28 -40.5t-20 -65.5zM136 671
h97l65 -129h-55z" />
    <glyph glyph-name="c.io" unicode="&#x451;" horiz-adv-x="499" 
d="M454 244h-327q1 -88 38 -139.5t112 -51.5q82 0 166 75v-73q-78 -70 -181 -70q-108 0 -163.5 70.5t-55.5 173.5q0 116 60 187.5t159 71.5q107 0 157 -80q35 -56 35 -164zM132 299h240q-4 61 -32 98t-83 37q-9 0 -17.5 -1t-27 -8t-32.5 -20t-28 -40.5t-20 -65.5zM159 630
q18 0 31 -12.5t13 -31.5q0 -18 -13 -31t-31 -13t-31 12.5t-13 31.5t13 31.5t31 12.5zM346 630q18 0 31 -12.5t13 -31.5q0 -18 -13 -31t-31 -13t-31 12.5t-13 31.5t13 31.5t31 12.5z" />
    <glyph glyph-name="c.dje" unicode="&#x452;" horiz-adv-x="525" 
d="M457 307v-317q0 -32 -2.5 -57.5t-11 -56t-23.5 -50.5t-43.5 -34t-66.5 -14q-52 0 -90 15v95h53q0 -18 1.5 -29t12.5 -22.5t31 -11.5q37 0 47.5 31.5t10.5 117.5v326q0 21 -2 36.5t-10 37t-28.5 33.5t-52.5 12q-35 0 -60.5 -15t-37.5 -33.5t-18.5 -45.5t-7.5 -40t-1 -28
v-168q0 -30 5.5 -37t31.5 -7h19v-45h-192v45h20q25 0 31 8.5t6 39.5v439h-61v55h61v13q0 32 -6.5 38t-37.5 6h-25v44l148 16v-117h153v-55h-153v-124h2q46 76 145 76q36 0 63.5 -9t43.5 -26.5t26 -34t13.5 -40.5t4.5 -36t1 -31z" />
    <glyph glyph-name="c.gje" unicode="&#x453;" horiz-adv-x="425" 
d="M28 474h380v-148h-55v40q0 33 -8 41.5t-48 8.5h-132v-326q0 -30 4.5 -37.5t28.5 -7.5h23v-45h-193v45h23q23 0 29.5 7.5t6.5 41.5v283q0 36 -6.5 44t-36.5 8h-16v45zM260 671h97l-107 -129h-55z" />
    <glyph glyph-name="c.ieUkr" unicode="&#x454;" horiz-adv-x="479" 
d="M432 445v-108h-67v12q0 36 -17.5 58.5t-71.5 22.5q-63 0 -99.5 -41.5t-44.5 -112.5h177v-57h-178q3 -44 16.5 -77t30.5 -49t38.5 -25.5t33.5 -11t23 -1.5q72 0 160 66v-73q-81 -63 -173 -63q-73 0 -123 37.5t-70 90.5t-20 116q0 66 20.5 117.5t55 80.5t74 43.5t82.5 14.5
q80 0 153 -40z" />
    <glyph glyph-name="c.dze" unicode="&#x455;" horiz-adv-x="420" 
d="M41 151h65v-38q0 -16 3 -27t11.5 -23.5t29 -19.5t52.5 -7q28 0 48 8t29.5 17.5t15 22.5t6 19t0.5 12q0 48 -81 86l-48 22q-31 14 -45 21.5t-37 24.5t-33 38t-10 49q0 52 41 91t123 39q81 0 145 -30v-124h-60v35q0 13 -2 21.5t-9 21.5t-27 20.5t-51 7.5q-44 0 -64.5 -20
t-20.5 -48q0 -31 23.5 -49t87.5 -46q37 -16 55.5 -25.5t44 -27.5t36.5 -41.5t11 -53.5q0 -19 -6.5 -39.5t-23.5 -45.5t-55.5 -41t-93.5 -16q-82 0 -160 31v135z" />
    <glyph glyph-name="c.iUkr" unicode="&#x456;" horiz-adv-x="250" 
d="M19 467l146 13v-390q0 -30 4.5 -37.5t28.5 -7.5h23v-45h-193v45h23q23 0 29.5 7.5t6.5 41.5v275q0 36 -6.5 44t-36.5 8h-25v46zM118 697q22 0 38 -15.5t16 -38.5t-15.5 -38.5t-38.5 -15.5q-22 0 -38 15.5t-16 38.5q0 22 16 38t38 16z" />
    <glyph glyph-name="c.yi" unicode="&#x457;" horiz-adv-x="250" 
d="M19 467l146 13v-390q0 -30 4.5 -37.5t28.5 -7.5h23v-45h-193v45h23q23 0 29.5 7.5t6.5 41.5v275q0 36 -6.5 44t-36.5 8h-25v46zM32 630q18 0 31 -12.5t13 -31.5q0 -18 -13 -31t-31 -13t-31 12.5t-13 31.5t13 31.5t31 12.5zM219 630q18 0 31 -12.5t13 -31.5q0 -18 -13 -31
t-31 -13t-31 12.5t-13 31.5t13 31.5t31 12.5z" />
    <glyph glyph-name="c.je" unicode="&#x458;" horiz-adv-x="239" 
d="M22 467l149 13v-490q0 -32 -2.5 -57.5t-11 -56t-23.5 -50.5t-43.5 -34t-66.5 -14q-52 0 -90 15v95h53q0 -18 1.5 -29t12.5 -22.5t31 -11.5q37 0 47.5 31.5t10.5 117.5v406q0 24 -6.5 33t-29.5 9l-10 -1h-22v46zM125 696q23 0 38.5 -16t15.5 -38q0 -23 -16 -39t-38 -16
t-38 16t-16 39q0 22 16 38t38 16z" />
    <glyph glyph-name="c.lje" unicode="&#x459;" horiz-adv-x="802" 
d="M419 416h-143q-11 -179 -36 -275q-19 -77 -48 -116.5t-87 -39.5q-38 0 -78 18v94h56v-17q0 -41 28 -41q32 0 60 94q14 46 27 127.5t13 133.5q0 12 -1.5 18t-10 11.5t-24.5 5.5h-23v45h401v-45h-23q-23 0 -28 -7t-5 -38v-107h87q173 0 173 -138q0 -69 -46.5 -104
t-122.5 -35h-228v45h28q20 0 25.5 9t5.5 40v322zM560 222h-63v-167h47q84 0 108 25q23 25 23 58q0 35 -21 58q-24 26 -94 26z" />
    <glyph glyph-name="c.nje" unicode="&#x45a;" horiz-adv-x="769" 
d="M29 474h192v-46h-23q-21 0 -27.5 -8.5t-6.5 -35.5v-101h222v101q0 28 -6.5 36t-27.5 8h-23v46h192v-46h-23q-21 0 -27.5 -8.5t-6.5 -35.5v-101h87q97 0 135 -38.5t38 -102.5q0 -71 -46.5 -106.5t-122.5 -35.5h-226v45h23q34 0 34 36v145h-222v-137q0 -27 6.5 -35.5
t27.5 -8.5h23v-45h-192v45h23q20 0 27 8.5t7 35.5v295q0 29 -6.5 36.5t-27.5 7.5h-23v46zM527 226h-63v-171h47q84 0 108 25q23 25 23 62q0 35 -21 58q-24 26 -94 26z" />
    <glyph glyph-name="c.tshe" unicode="&#x45b;" horiz-adv-x="533" 
d="M457 307v-224q0 -26 5 -32t32 -6h19v-45h-195v45h16q30 0 35.5 7.5t5.5 45.5v202q0 22 -2 36.5t-9.5 36.5t-28 34t-52.5 12q-35 0 -60.5 -15t-37.5 -33.5t-18.5 -45.5t-7.5 -40t-1 -28v-168q0 -30 5.5 -37t31.5 -7h19v-45h-192v45h20q25 0 31 8.5t6 39.5v439h-61v55h61
v13q0 32 -6.5 38t-37.5 6h-25v44l148 16v-117h153v-55h-153v-124h2q46 76 145 76q36 0 63.5 -9t43.5 -26.5t26 -34t13.5 -40.5t4.5 -36t1 -31z" />
    <glyph glyph-name="c.kje" unicode="&#x45c;" horiz-adv-x="531" 
d="M86 94v286q0 34 -6.5 41.5t-29.5 7.5h-23v45h193v-45h-23q-24 0 -28.5 -7.5t-4.5 -37.5v-104h27q33 0 53 13.5t44 48.5l55 78q23 32 45.5 45t58.5 13q26 0 48 -4v-52q-20 4 -27 4q-20 0 -34 -11.5t-46 -52.5l-49 -63q-31 -39 -72 -44v-1q54 -11 93 -64l72 -97
q20 -27 35 -38t37 -11h4v-44h-42q-39 0 -59.5 11t-42.5 43l-87 124q-21 31 -39 40.5t-58 9.5h-16v-138q0 -30 4.5 -37.5t28.5 -7.5h23v-45h-193v45h23q23 0 29.5 7.5t6.5 41.5zM288 671h97l-107 -129h-55z" />
    <glyph glyph-name="uni045D" unicode="&#x45d;" horiz-adv-x="562" 
d="M391 94v217l-234 -217v-4q0 -30 4.5 -37.5t28.5 -7.5h23v-45h-193v45h23q23 0 29.5 7.5t6.5 41.5v286q0 34 -6.5 41.5t-29.5 7.5h-23v45h193v-45h-23q-24 0 -28.5 -7.5t-4.5 -37.5v-215l234 218q-1 28 -7.5 35t-28.5 7h-23v45h193v-45h-23q-24 0 -28.5 -7.5t-4.5 -37.5
v-294q0 -30 4.5 -37.5t28.5 -7.5h23v-45h-193v45h23q23 0 29.5 7.5t6.5 41.5zM158 671h97l65 -129h-55z" />
    <glyph glyph-name="c.yushort" unicode="&#x45e;" horiz-adv-x="510" 
d="M3 474h205v-46h-24q-29 0 -29 -18q0 -11 7 -26l107 -284l97 260q12 36 12 48q0 20 -32 20h-18v46h179v-46q-32 0 -42 -7.5t-24 -43.5l-176 -450q-32 -82 -65 -115.5t-92 -33.5q-41 0 -81 18v94h56v-16q0 -42 34 -42q30 0 50 32q36 59 57 136l-141 360q-19 47 -32.5 57.5
t-47.5 10.5v46zM89 666h87q0 -38 26 -54t59 -16q32 0 58 16t26 54h87q0 -48 -45.5 -86t-126.5 -38q-78 0 -124.5 37.5t-46.5 86.5z" />
    <glyph glyph-name="c.dzhe" unicode="&#x45f;" horiz-adv-x="550" 
d="M386 58v327q0 27 -7 35.5t-27 8.5h-23v45h192v-45h-23q-21 0 -27.5 -8.5t-6.5 -35.5v-295q0 -27 6.5 -35.5t27.5 -8.5h23v-46h-179q-21 0 -27.5 -8.5t-6.5 -35.5v-96h-67v96q0 27 -6.5 35.5t-27.5 8.5h-178v46h23q21 0 27.5 8.5t6.5 35.5v295q0 27 -6.5 35.5t-27.5 8.5
h-23v45h192v-45h-23q-20 0 -27 -8.5t-7 -35.5v-327h222z" />
    <glyph glyph-name="afii10146" unicode="&#x462;" horiz-adv-x="745" 
d="M366 626v-240h110q234 0 234 -191q0 -65 -32 -110.5t-81 -66.5q-43 -18 -135 -18h-250v49h20q34 0 40.5 9t6.5 45v523h-139q-36 0 -44 -9t-8 -44v-32h-64v145h598v-145h-64v42q0 14 -1 20t-5 12.5t-14 8.5t-28 2h-144zM366 326v-266h103q151 0 151 129q0 71 -40.5 104
t-137.5 33h-76z" />
    <glyph glyph-name="afii10194" unicode="&#x463;" horiz-adv-x="469" 
d="M29 417v57h57v140q0 29 -6.5 36.5t-27.5 7.5h-23v46h192v-46h-23q-21 0 -27.5 -8.5t-6.5 -35.5v-140h127v-57h-127v-140h87q173 0 173 -138q0 -69 -46 -104t-123 -35h-226v45h23q20 0 27 8.5t7 35.5v328h-57zM227 222h-63v-167h47q84 0 108 25q23 25 23 58q0 35 -21 58
q-24 26 -94 26z" />
    <glyph glyph-name="afii10147" unicode="&#x472;" horiz-adv-x="760" 
d="M382 704q81 0 144.5 -29t103 -79.5t59.5 -114t20 -135.5q0 -162 -92.5 -263t-240.5 -101q-143 0 -234 96t-91 257q0 169 91.5 269t239.5 100zM214 353q-11 0 -22.5 -2.5t-26.5 -7.5l-21 -7q1 -126 58.5 -207t178.5 -81q101 0 162.5 69t69.5 196q-59 -39 -114 -39
q-57 0 -109.5 20t-96.5 39.5t-79 19.5zM381 638q-63 0 -109 -22.5t-71.5 -61.5t-38.5 -80.5t-17 -90.5q65 37 111 37q57 0 106.5 -20t90.5 -39.5t76 -19.5q15 0 86 17q-1 141 -67 210.5t-167 69.5z" />
    <glyph glyph-name="afii10195" unicode="&#x473;" horiz-adv-x="542" 
d="M278 485q103 0 162.5 -63.5t59.5 -178.5q0 -95 -47 -165q-63 -93 -189 -93q-61 0 -106.5 22t-69.5 59t-35 77t-11 85q0 106 59.5 181.5t176.5 75.5zM319 188q-31 6 -72.5 27.5t-68.5 21.5q-35 0 -53 -8q1 -76 37.5 -131t109.5 -55q80 0 119 74q21 42 24 99
q-34 -30 -77 -30q-13 0 -19 2zM272 427q-65 0 -102.5 -46t-43.5 -119q38 29 77 29q7 0 21 -2q29 -5 70.5 -26.5t70.5 -21.5q33 0 51 8q-1 54 -16 92t-38.5 55.5t-45 24t-44.5 6.5z" />
    <glyph glyph-name="afii10148" unicode="&#x474;" horiz-adv-x="764" 
d="M9 686h230v-50h-23q-14 0 -21 -0.5t-14 -6t-7 -15.5q0 -12 9 -36l164 -468h2l157 441q29 81 68.5 117t99.5 36q50 0 90 -18v-109h-56v16q0 9 -2.5 18t-13 18t-27.5 9q-29 0 -48.5 -20t-44.5 -89l-193 -538h-81l-205 580q-16 45 -26.5 55t-37.5 10h-20v50z" />
    <glyph glyph-name="afii10196" unicode="&#x475;" horiz-adv-x="611" 
d="M418 317l-130 -326h-57l-154 382q-15 36 -27.5 44.5t-46.5 10.5v46h205v-46q-33 0 -43 -2.5t-10 -14.5q0 -6 6 -24l109 -280l81 215q33 89 71.5 126t97.5 37q51 0 91 -18v-100h-56v16q0 44 -43 44q-27 0 -47.5 -23.5t-46.5 -86.5z" />
    <glyph glyph-name="c.GheUkr" unicode="&#x490;" horiz-adv-x="573" 
d="M48 686h345q34 0 52 3.5t26.5 17.5t10 27t1.5 46v18h63v-175h-344v-524q0 -31 7 -40.5t40 -9.5h29v-49h-230v49h21q33 0 40 11t7 48v479q0 31 -8 40t-42 9h-18v50z" />
    <glyph glyph-name="c.gheUkr" unicode="&#x491;" horiz-adv-x="424" 
d="M27 474h254q26 0 41 3.5t21.5 16.5t7.5 24.5t1 40.5v25h55v-168h-243v-326q0 -30 4.5 -37.5t28.5 -7.5h23v-45h-193v45h23q23 0 29.5 7.5t6.5 41.5v283q0 36 -6.5 44t-36.5 8h-16v45z" />
    <glyph glyph-name="Wgrave" unicode="&#x1e80;" horiz-adv-x="958" 
d="M9 686h224v-50h-30q-35 0 -35 -22q0 -5 1 -12t3 -14.5t2 -8.5l123 -454h2l148 561h81l146 -561h2l120 441q8 28 8 43q0 13 -8 19t-15.5 7t-21.5 1h-21v50h211v-50h-14q-28 0 -43.5 -12.5t-25.5 -48.5l-160 -584h-82l-145 561h-2l-148 -561h-84l-152 575q-12 45 -25 57.5
t-41 12.5h-18v50zM363 868h97l65 -129h-55z" />
    <glyph glyph-name="wgrave" unicode="&#x1e81;" horiz-adv-x="740" 
d="M2 474h204v-46h-18q-35 0 -35 -20q0 -6 10 -38l80 -262h2l105 366h64l112 -366h2l76 266q6 23 6 30q0 24 -34 24h-17v46h178v-46q-33 0 -44.5 -9t-23.5 -49l-123 -379h-60l-113 361h-2l-107 -361h-58l-123 361q-18 51 -32.5 63.5t-48.5 12.5v46zM254 671h97l65 -129h-55z
" />
    <glyph glyph-name="Wacute" unicode="&#x1e82;" horiz-adv-x="958" 
d="M9 686h224v-50h-30q-35 0 -35 -22q0 -5 1 -12t3 -14.5t2 -8.5l123 -454h2l148 561h81l146 -561h2l120 441q8 28 8 43q0 13 -8 19t-15.5 7t-21.5 1h-21v50h211v-50h-14q-28 0 -43.5 -12.5t-25.5 -48.5l-160 -584h-82l-145 561h-2l-148 -561h-84l-152 575q-12 45 -25 57.5
t-41 12.5h-18v50zM498 868h97l-107 -129h-55z" />
    <glyph glyph-name="wacute" unicode="&#x1e83;" horiz-adv-x="740" 
d="M2 474h204v-46h-18q-35 0 -35 -20q0 -6 10 -38l80 -262h2l105 366h64l112 -366h2l76 266q6 23 6 30q0 24 -34 24h-17v46h178v-46q-33 0 -44.5 -9t-23.5 -49l-123 -379h-60l-113 361h-2l-107 -361h-58l-123 361q-18 51 -32.5 63.5t-48.5 12.5v46zM389 671h97l-107 -129
h-55z" />
    <glyph glyph-name="Wdieresis" unicode="&#x1e84;" horiz-adv-x="958" 
d="M9 686h224v-50h-30q-35 0 -35 -22q0 -5 1 -12t3 -14.5t2 -8.5l123 -454h2l148 561h81l146 -561h2l120 441q8 28 8 43q0 13 -8 19t-15.5 7t-21.5 1h-21v50h211v-50h-14q-28 0 -43.5 -12.5t-25.5 -48.5l-160 -584h-82l-145 561h-2l-148 -561h-84l-152 575q-12 45 -25 57.5
t-41 12.5h-18v50zM392 827q18 0 31 -12.5t13 -31.5q0 -18 -13 -31t-31 -13t-31 12.5t-13 31.5t13 31.5t31 12.5zM579 827q18 0 31 -12.5t13 -31.5q0 -18 -13 -31t-31 -13t-31 12.5t-13 31.5t13 31.5t31 12.5z" />
    <glyph glyph-name="wdieresis" unicode="&#x1e85;" horiz-adv-x="740" 
d="M2 474h204v-46h-18q-35 0 -35 -20q0 -6 10 -38l80 -262h2l105 366h64l112 -366h2l76 266q6 23 6 30q0 24 -34 24h-17v46h178v-46q-33 0 -44.5 -9t-23.5 -49l-123 -379h-60l-113 361h-2l-107 -361h-58l-123 361q-18 51 -32.5 63.5t-48.5 12.5v46zM287 630q18 0 31 -12.5
t13 -31.5q0 -18 -13 -31t-31 -13t-31 12.5t-13 31.5t13 31.5t31 12.5zM474 630q18 0 31 -12.5t13 -31.5q0 -18 -13 -31t-31 -13t-31 12.5t-13 31.5t13 31.5t31 12.5z" />
    <glyph glyph-name="Ygrave" unicode="&#x1ef2;" horiz-adv-x="656" 
d="M7 686h229v-50h-20q-36 0 -36 -18q0 -7 17 -35l141 -238l144 228q21 33 21 44q0 13 -9.5 16t-29.5 3h-28v50h213v-50q-19 0 -28 -1t-21.5 -8.5t-22.5 -23.5q-4 -4 -9 -14l-199 -314v-176q0 -33 7.5 -41.5t45.5 -8.5h19v-49h-229v49h24q33 0 40 10t7 40v171l-189 313
q-19 32 -33.5 42.5t-38.5 10.5h-15v50zM222 868h97l65 -129h-55z" />
    <glyph glyph-name="ygrave" unicode="&#x1ef3;" horiz-adv-x="510" 
d="M3 474h205v-46h-24q-29 0 -29 -18q0 -11 7 -26l107 -284l97 260q12 36 12 48q0 20 -32 20h-18v46h179v-46q-32 0 -42 -7.5t-24 -43.5l-176 -450q-32 -82 -65 -115.5t-92 -33.5q-41 0 -81 18v94h56v-16q0 -42 34 -42q30 0 50 32q36 59 57 136l-141 360q-19 47 -32.5 57.5
t-47.5 10.5v46zM139 671h97l65 -129h-55z" />
    <glyph glyph-name="uni2010" unicode="&#x2010;" horiz-adv-x="323" 
d="M31 273h261v-77h-261v77z" />
    <glyph glyph-name="endash" unicode="&#x2013;" horiz-adv-x="500" 
d="M-6 282h512v-64h-512v64z" />
    <glyph glyph-name="emdash" unicode="&#x2014;" horiz-adv-x="1000" 
d="M-6 282h1012v-64h-1012v64z" />
    <glyph glyph-name="afii00208" unicode="&#x2015;" horiz-adv-x="1000" 
d="M-6 282h1012v-64h-1012v64z" />
    <glyph glyph-name="quoteleft" unicode="&#x2018;" horiz-adv-x="240" 
d="M182 704v-39q-37 -19 -51 -38t-19 -49q35 1 49 -18t14 -38q0 -22 -15.5 -37.5t-37.5 -15.5q-31 0 -48 24.5t-17 59.5q0 13 3 27t13.5 39t38.5 48t70 37z" />
    <glyph glyph-name="quoteright" unicode="&#x2019;" horiz-adv-x="240" 
d="M58 469v39q37 19 51 38t19 49q-35 -1 -49 18t-14 38q0 22 15.5 37.5t37.5 15.5q31 0 48 -24.5t17 -59.5q0 -13 -3 -27t-13.5 -39t-38.5 -48t-70 -37z" />
    <glyph glyph-name="quotesinglbase" unicode="&#x201a;" horiz-adv-x="240" 
d="M58 -135v39q37 19 51 38t19 49q-35 -1 -49 18t-14 38q0 22 15.5 37.5t37.5 15.5q31 0 48 -24.5t17 -59.5q0 -13 -3 -27t-13.5 -39t-38.5 -48t-70 -37z" />
    <glyph glyph-name="quotedblleft" unicode="&#x201c;" horiz-adv-x="417" 
d="M184 704v-39q-37 -19 -51 -38t-19 -49q35 1 49 -18t14 -38q0 -22 -15.5 -37.5t-37.5 -15.5q-31 0 -48 24.5t-17 59.5q0 13 3 27t13.5 39t38.5 48t70 37zM359 704v-39q-37 -19 -51 -38t-19 -49q35 1 49 -18t14 -38q0 -22 -15.5 -37.5t-37.5 -15.5q-31 0 -48 24.5t-17 59.5
q0 13 3 27t13.5 39t38.5 48t70 37z" />
    </font>
</defs>
</svg>
