<?xml version="1.0" standalone="no"?>
<!DOCTYPE svg PUBLIC "-//W3C//DTD SVG 1.1//EN" "http://www.w3.org/Graphics/SVG/1.1/DTD/svg11.dtd" >
<svg>
<metadata>
Created by FontForge 20110222 at Wed Apr 17 07:27:48 2013
 By Orthosie Webmaster
Font software Copyright 1990 Adobe Systems Incorporated. Typeface designs Copyright 1990, 2011 The Monotype Corporation. All rights reserved.
</metadata>
<defs>
<font id="AmasisMTW1GItalic" horiz-adv-x="333" >
  <font-face 
    font-family="AmasisMTW1GItalic"
    font-weight="400"
    font-style="italic"
    font-stretch="normal"
    units-per-em="1000"
    panose-1="2 4 5 4 5 0 5 9 3 4"
    ascent="722"
    descent="-278"
    x-height="455"
    cap-height="672"
    bbox="-155 -325 1103 936"
    underline-thickness="50"
    underline-position="-75"
    slope="-16"
    unicode-range="U+000D-FB04"
  />
<missing-glyph horiz-adv-x="500" 
d="M12 0v665h475v-665h-475zM88 618l162 -243l161 243h-323zM60 575v-484l161 242zM440 575l-162 -242l162 -243v485zM411 48l-161 242l-162 -242h323z" />
    <glyph glyph-name="IJ" unicode="IJ" horiz-adv-x="771" 
d="M193 672h225l-13 -47h-19q-26 0 -38 -8t-20 -38l-135 -483q-6 -24 -6 -27q0 -22 34 -22h30l-13 -47h-226l13 47h29q24 0 33 8t17 35l138 483q5 19 5 31q0 21 -36 21h-31zM646 672h230l-13 -47h-26q-26 0 -35 -10t-16 -35l-112 -393q0 -2 -2 -6q-29 -104 -78.5 -151.5
t-133.5 -47.5q-88 0 -154 52l34 122h62l-8 -40q-4 -12 -4 -32q0 -24 23.5 -35.5t48.5 -11.5q45 0 75 36t59 137q2 12 4 16l101 354q5 12 5 25q0 20 -42 20h-32z" />
    <glyph glyph-name="ij" unicode="ij" horiz-adv-x="514" 
d="M97 444l151 23l-106 -377q-5 -17 -5 -24q0 -9 6 -13.5t12 -4.5q17 0 54 27l-13 -59q-52 -31 -87 -31q-26 0 -39.5 15t-13.5 33q0 23 7 45l79 279q7 23 7 31q0 17 -16 17l-27 -3l-22 -3zM238 658q22 0 37 -15t15 -37q0 -21 -15 -36.5t-37 -15.5q-21 0 -36.5 15t-15.5 37
t15.5 37t36.5 15zM362 440l152 23l-138 -479q-9 -31 -15 -48.5t-22 -51t-33 -52.5t-46.5 -35t-64.5 -16q-37 0 -71 17l13 87h45v-21q-1 -30 28 -30q25 0 43 22.5t38 92.5l114 399q8 30 8 37q0 16 -17 16q-4 0 -11.5 -1t-9.5 -1l-26 -4zM503 658q21 0 36.5 -15t15.5 -37
q0 -21 -15 -36.5t-37 -15.5t-37 15t-15 37t15.5 37t36.5 15z" />
    <glyph glyph-name="napostrophe" unicode="&#x22;n" horiz-adv-x="500" 
d="M101 438l138 21q-3 -16 -6 -31t-5 -24l-3 -10l-1 -4q-2 -5 -2 -6l-12 -39l2 -2q89 124 174 124q38 0 62.5 -21t24.5 -61q0 -31 -22 -100l-57 -182q-8 -27 -8 -35q0 -19 16 -19q15 0 54 27l-14 -58q-51 -31 -90 -31q-20 0 -36 13.5t-16 38.5q0 11 3 24l71 232q18 56 18 80
q0 14 -8.5 23.5t-23.5 9.5q-49 0 -112 -86.5t-85 -153.5q-27 -86 -50 -168h-72l99 345q8 29 8 36q0 17 -19 17q-13 0 -42 -5zM51 474l7 44q62 26 75 81q-18 5 -29.5 19t-11.5 32q0 22 15 38t38 16t39 -17.5t16 -47.5q0 -47 -39.5 -95.5t-109.5 -69.5z" />
    <glyph glyph-name="f_f" unicode="ff" horiz-adv-x="531" 
d="M234 456h193l7 33q19 92 72 154q52 61 136 61q44 0 97 -24l-24 -84h-47q2 14 2 22q0 40 -40 40q-33 0 -63 -34t-54 -135l-7 -33h82l-15 -54h-78l-71 -348q-31 -159 -88 -216q-56 -57 -116 -57q-42 0 -78 17l13 83h47q0 -8 -1 -10q-1 -5 -1 -13q0 -12 8.5 -20t20.5 -8
q37 0 63 45q26 44 58 198l66 329h-193l-71 -348q-31 -159 -88 -216q-55 -57 -116 -57q-42 0 -78 17l14 83h46q0 -8 -1 -10v-13q0 -12 8.5 -20t20.5 -8q36 0 62 45q26 44 58 198l67 329h-79l15 54h74l7 33q19 92 72 154q52 61 136 61q46 0 98 -24l-24 -84h-48q2 14 2 22
q0 40 -39 40q-34 0 -64 -34q-31 -35 -53 -135z" />
    <glyph glyph-name="fi" unicode="fi" horiz-adv-x="490" 
d="M527 669l-24 -90h-53q3 15 3 29q0 46 -63 46q-30 0 -55 -14.5t-40 -32.5t-28.5 -49t-18.5 -47.5t-12 -44.5q-3 -3 -3 -11h255l-104 -363l-3 -8q-4 -16 -4 -20q0 -18 20 -18q14 0 53 28l-15 -61q-54 -28 -86 -28q-26 0 -39.5 14.5t-13.5 31.5q0 21 7 43l81 283l2 5
q4 15 4 24q0 16 -32 16h-135l-71 -350q-10 -52 -23.5 -92t-37.5 -84.5t-63 -69.5t-90 -25q-37 0 -69 17l13 82h47q0 -3 -0.5 -10.5t-0.5 -11.5q0 -14 8.5 -21.5t19.5 -7.5q15 0 27 6.5t27 25.5t30 62.5t29 109.5l75 369h-79l16 53h72q7 31 14 54.5t26.5 63t43.5 65.5t66 46
t94 20q67 0 130 -35z" />
    <glyph glyph-name="fl" unicode="fl" horiz-adv-x="510" 
d="M575 704l-172 -611q-6 -24 -6 -31q0 -15 17 -15q12 0 45 21q1 0 5 2l4 3l-14 -59q-54 -29 -87 -29q-25 0 -39 15t-14 36q0 13 4 25q0 8 4 12l93 329h-192l-68 -329q-7 -36 -12.5 -58.5t-17.5 -62t-27.5 -65t-37 -52.5t-52 -40.5t-66.5 -13.5q-32 0 -73 17l14 85l46 -3
q-2 -16 -2 -19q0 -13 7.5 -20.5t13 -9t9.5 -1.5q52 0 82 94q16 45 33 126l72 352h-78l15 53h74q16 69 34 108.5t53 73.5q69 67 160 67q44 0 98 -23zM234 455h196l31 110q8 32 8 45q0 20 -21 32.5t-51 12.5q-33 0 -59.5 -15t-42.5 -34t-29.5 -51t-19 -50.5t-12.5 -49.5z" />
    <glyph glyph-name="f_f_i" unicode="ffi" horiz-adv-x="760" 
d="M233 456h192q31 136 96 192t148 56q68 0 131 -36l-25 -89h-52q2 22 2 28q0 46 -62 46q-111 0 -158 -197h255l-104 -364q-7 -21 -7 -29q0 -17 19 -17q15 0 55 28l-15 -61q-52 -28 -86 -28q-24 0 -39 14t-15 33q0 20 7 42l82 283q6 19 6 30q0 15 -33 15h-134l-72 -350
q-29 -142 -81 -206.5t-133 -64.5q-38 0 -69 16l13 82h48q-2 -14 -2 -21q0 -28 28 -28q41 0 67 51t46 152l75 369h-194l-71 -348q-31 -159 -88 -216q-56 -57 -116 -57q-42 0 -78 17l14 83h46q0 -8 -1 -10v-13q0 -12 8.5 -20t20.5 -8q37 0 62 45q26 44 58 198l67 329h-79
l15 54h74l7 33q19 92 72 154q52 61 136 61q45 0 98 -24l-24 -84h-48q2 14 2 22q0 40 -39 40q-34 0 -64 -34q-31 -35 -53 -135z" />
    <glyph glyph-name="f_f_l" unicode="ffl" horiz-adv-x="781" 
d="M233 456h195q28 136 99 192t145 56q48 0 89 -22l75 22l-172 -611q-6 -24 -6 -31q0 -16 17 -16q11 0 54 27l-15 -59q-50 -29 -87 -29q-23 0 -37.5 14.5t-14.5 35.5q0 11 8 38l92 329h-180l-67 -329q-38 -179 -91 -235q-54 -57 -123 -57q-34 0 -73 17l14 85l47 -3
q-2 -16 -2 -19q0 -14 9.5 -22.5t20.5 -8.5q37 0 62 46q27 49 52 174l73 352h-195l-71 -348q-31 -159 -88 -216q-56 -57 -116 -57q-42 0 -78 17l14 83h46q0 -8 -1 -10v-13q0 -12 8.5 -20t20.5 -8q37 0 62 45q26 44 58 198l67 329h-79l15 54h74l7 33q19 92 72 154
q52 61 136 61q45 0 98 -24l-24 -84h-48q2 14 2 22q0 40 -39 40q-34 0 -64 -34q-31 -35 -53 -135zM506 456h185l31 108q8 34 8 46q0 19 -18.5 32t-46.5 13q-45 0 -88 -39q-42 -38 -71 -160z" />
    <glyph glyph-name=".notdef" horiz-adv-x="500" 
d="M12 0v665h475v-665h-475zM88 618l162 -243l161 243h-323zM60 575v-484l161 242zM440 575l-162 -242l162 -243v485zM411 48l-161 242l-162 -242h323z" />
    <glyph glyph-name=".null" horiz-adv-x="0" 
 />
    <glyph glyph-name="nonmarkingreturn" 
 />
    <glyph glyph-name="CR" unicode="&#xd;" horiz-adv-x="240" 
 />
    <glyph glyph-name="space" unicode=" " horiz-adv-x="240" 
 />
    <glyph glyph-name="exclam" unicode="!" horiz-adv-x="260" 
d="M177 167h-61l121 465l17 57h77l-15 -57zM112 87q21 0 36 -14.5t15 -36.5q0 -21 -15 -36t-36 -15t-36 15t-15 36q0 22 15 36.5t36 14.5z" />
    <glyph glyph-name="quotedbl" unicode="&#x22;" horiz-adv-x="354" 
d="M315 406l11 156q1 18 2 28.5t5 25.5t10 23t17.5 14t27.5 6q48 0 48 -48q0 -27 -26 -96l-10 -28l-30 -81h-55zM155 406l11 156q1 18 2 28.5t5 25.5t10 23t17.5 14t27.5 6q48 0 48 -48q0 -27 -26 -96l-10 -28l-30 -81h-55z" />
    <glyph glyph-name="numbersign" unicode="#" horiz-adv-x="667" 
d="M89 482h156l42 194h70l-42 -194h195l41 194h70l-41 -194h92v-70h-106l-35 -171h141v-70h-155l-41 -193h-70l42 193h-197l-40 -193h-71l41 193h-92v70h107l35 171h-142v70zM497 412h-196l-36 -170h196z" />
    <glyph glyph-name="dollar" unicode="$" horiz-adv-x="458" 
d="M517 595l-31 -132h-58q11 51 11 73q0 32 -55 48l-67 -233q62 -54 87 -95.5t25 -86.5q0 -28 -10.5 -57t-33 -59t-67 -49t-104.5 -18l-25 -88h-55l25 92q-81 17 -136 54l40 151h59q-1 -1 -2 -7.5t-1 -7.5q-10 -60 -10 -71q0 -47 67 -65l74 264q-54 49 -79.5 85.5
t-25.5 85.5q0 69 54.5 115t145.5 47l12 41h54l-13 -45q65 -10 119 -42zM273 392l58 197q-54 -3 -81.5 -33.5t-27.5 -65.5q0 -29 10.5 -47t40.5 -51zM294 268l-64 -227q41 3 67.5 19t36 39t12 35t2.5 24q0 33 -13 56t-41 54z" />
    <glyph glyph-name="percent" unicode="%" horiz-adv-x="844" 
d="M183 410q0 -49 39 -49q47 0 84 95t37 149q0 49 -39 49q-28 0 -52 -31t-38.5 -74t-22.5 -81t-8 -58zM204 -19l494 709h64l-494 -709h-64zM631 65q0 -48 39 -48q47 0 84 94.5t37 148.5q0 49 -39 49q-28 0 -52 -31t-38.5 -74t-22.5 -81t-8 -58zM117 417q0 41 16.5 92
t31.5 81q46 100 141 100q45 0 73.5 -23.5t28.5 -65.5q0 -41 -17.5 -93.5t-33.5 -85.5q-21 -43 -58.5 -69.5t-81.5 -26.5q-43 0 -71.5 23t-28.5 68zM565 72q0 41 16.5 92t31.5 81q46 100 141 100q45 0 73.5 -23.5t28.5 -65.5q0 -41 -17.5 -93.5t-33.5 -85.5
q-21 -43 -58.5 -69.5t-81.5 -26.5q-43 0 -71.5 23t-28.5 68z" />
    <glyph glyph-name="ampersand" unicode="&#x26;" horiz-adv-x="646" 
d="M475 353h196l-12 -45q-36 0 -51 -5.5t-30 -30.5q-50 -83 -68 -108.5t-45 -52.5q18 -37 38.5 -55t53.5 -18q16 0 31 4l-13 -52q-32 -8 -55 -8q-70 0 -110 76q-93 -76 -196 -76q-39 0 -69 11t-47.5 28t-28.5 39t-14.5 41t-3.5 37q0 39 15 74t33.5 57t50.5 45t49 32.5
t46 23.5l16 7q-31 75 -31 120q0 64 47 115.5t127 51.5q64 0 95.5 -35.5t31.5 -79.5q0 -33 -17.5 -63.5t-47 -53.5t-57.5 -38.5t-59 -28.5q4 -8 12.5 -29t17.5 -41t18 -38q39 -83 43 -93q72 91 72 122q0 22 -35 22h-16zM331 410q62 28 97 66.5t35 76.5q0 28 -19.5 44
t-47.5 16q-38 0 -65 -28t-27 -74q0 -36 27 -101zM291 309l-8 21q-86 -42 -120 -84.5t-34 -91.5q0 -58 33 -83.5t71 -25.5q71 0 152 62q-14 24 -51 107z" />
    <glyph glyph-name="quotesingle" unicode="'" horiz-adv-x="188" 
d="M148 406l11 156q1 18 2 28.5t5 25.5t10 23t17.5 14t27.5 6q48 0 48 -48q0 -27 -26 -96l-10 -28l-30 -81h-55z" />
    <glyph glyph-name="parenleft" unicode="(" horiz-adv-x="301" 
d="M327 692h74q-285 -340 -285 -692q0 -103 29 -219h-62q-43 120 -43 261q0 213 112 408q79 138 175 242z" />
    <glyph glyph-name="parenright" unicode=")" horiz-adv-x="301" 
d="M5 -219h-74q285 340 285 692q0 103 -29 219h62q43 -120 43 -261q0 -213 -112 -408q-79 -138 -175 -242z" />
    <glyph glyph-name="asterisk" unicode="*" horiz-adv-x="458" 
d="M163 606l29 -10l122 -46l-5 130l1 30h64l-7 -159l123 43l29 9l19 -60l-155 -42l80 -103l18 -25l-52 -38l-18 26l-71 111l-71 -112l-18 -25l-52 38l18 24l82 104l-126 34l-30 9z" />
    <glyph glyph-name="plus" unicode="+" horiz-adv-x="667" 
d="M119 364h228v229h77v-229h230v-77h-230v-228h-77v228h-228v77z" />
    <glyph glyph-name="comma" unicode="," horiz-adv-x="250" 
d="M22 -138l7 44q62 26 75 81q-18 5 -29.5 19t-11.5 32q0 22 15 38t38 16t39 -17.5t16 -47.5q0 -47 -39.5 -95.5t-109.5 -69.5z" />
    <glyph glyph-name="hyphen" unicode="-" horiz-adv-x="281" 
d="M64 262h221l-21 -72h-221z" />
    <glyph glyph-name="period" unicode="." horiz-adv-x="250" 
d="M114 87q21 0 36 -14.5t15 -36.5q0 -21 -15 -36t-36 -15t-36 15t-15 36q0 22 15 36.5t36 14.5z" />
    <glyph glyph-name="slash" unicode="/" horiz-adv-x="552" 
d="M473 672h81l-357 -714h-81z" />
    <glyph glyph-name="zero" unicode="0" horiz-adv-x="480" 
d="M68 153q0 124 74 317q74 189 219 189q71 0 110.5 -46t39.5 -118q0 -77 -28 -173.5t-52 -153.5q-77 -182 -216 -182q-67 0 -107 44t-40 123zM145 138q0 -45 21 -71t57 -26q42 0 76.5 36.5t67.5 128.5q68 192 68 301q0 45 -20 71t-58 26q-84 0 -136 -135q-76 -201 -76 -331
z" />
    <glyph glyph-name="one" unicode="1" horiz-adv-x="480" 
d="M215 524l12 42q102 19 152 93h46l-161 -568q0 -3 -2 -7q-3 -15 -3 -17q0 -13 10 -17t34 -4h35l-13 -46h-247l14 46h37q33 0 42 8t20 46l111 382q5 22 5 29q0 18 -22 18q-10 0 -70 -5z" />
    <glyph glyph-name="two" unicode="2" horiz-adv-x="480" 
d="M425 148l-43 -148h-367l17 60q11 8 47.5 39t93 81.5t93.5 87.5q157 157 157 251q0 43 -27.5 63.5t-60.5 20.5q-28 0 -48 -9t-32.5 -28t-18 -32.5t-13.5 -38.5h-59l30 108q73 56 158 56q74 0 112 -39.5t38 -91.5t-30.5 -111.5t-123.5 -153.5q-91 -91 -216 -196h152
q39 0 50 6.5t17 25.5q0 2 1 5q2 5 2 6l11 38h60z" />
    <glyph glyph-name="three" unicode="3" horiz-adv-x="480" 
d="M74 169h59l-11 -41q-4 -16 -4 -36q0 -21 20 -36.5t62 -15.5q69 0 109.5 55t40.5 116q0 29 -10.5 49.5t-23 30.5t-34 16t-33.5 7t-31 1l14 57q75 3 132 46t57 109q0 32 -21.5 55.5t-65.5 23.5q-26 0 -44.5 -8.5t-29.5 -26.5t-16 -30t-12 -35h-57l31 115q35 15 51.5 21.5
t40 11.5t49.5 5q77 0 111.5 -37t34.5 -91q0 -60 -41 -112t-114 -73v-2q91 -29 91 -124q0 -35 -12.5 -72.5t-37.5 -75.5t-72.5 -62t-109.5 -24q-90 0 -161 51z" />
    <glyph glyph-name="four" unicode="4" horiz-adv-x="480" 
d="M442 659h66l-124 -437h72l-14 -57h-74l-22 -77q-5 -18 -5 -25q0 -21 43 -21h19l-11 -42h-218l11 42h41q34 0 42 21q6 13 8 21l24 81h-260l19 70zM412 546l-291 -324h194l42 137l20 69q14 45 37 116z" />
    <glyph glyph-name="five" unicode="5" horiz-adv-x="480" 
d="M226 645h299l-18 -65h-235l-58 -172q40 20 85 20q63 0 103.5 -38.5t40.5 -107.5q0 -39 -12.5 -85.5t-38.5 -96t-77.5 -82t-118.5 -32.5q-88 0 -156 50l37 129h60l-10 -37q-7 -26 -7 -37q0 -15 8.5 -26t19 -16.5t24 -8t19 -3t9.5 -0.5q70 0 117 71.5t47 155.5q0 55 -25 81
t-66 26q-49 0 -92 -45h-60z" />
    <glyph glyph-name="six" unicode="6" horiz-adv-x="480" 
d="M541 623l-31 -124h-58l9 37q2 18 2 30q0 40 -60 40q-34 0 -65 -17t-51.5 -39.5t-41 -59.5t-31 -61.5t-24.5 -61.5l2 -2q59 61 136 61q63 0 104 -42t41 -113q0 -41 -13 -87.5t-39 -92t-74 -75.5t-109 -30q-80 0 -121.5 49t-41.5 130q0 46 10.5 105.5t36.5 128.5t63 126.5
t96 95.5t129 38t131 -36zM394 262q0 49 -25 77.5t-69 28.5q-42 0 -73.5 -25t-47 -63t-23 -72t-7.5 -61q0 -53 27 -80t66 -27q68 0 110 69.5t42 152.5z" />
    <glyph glyph-name="seven" unicode="7" horiz-adv-x="480" 
d="M185 645h369l-19 -69q-67 -70 -123.5 -150.5t-89.5 -146t-58 -130t-34.5 -100t-13.5 -57.5h-72q30 156 121 319q73 126 191 265h-175q-23 0 -32.5 -1.5t-18.5 -10t-14 -27.5l-14 -46h-58z" />
    <glyph glyph-name="eight" unicode="8" horiz-adv-x="480" 
d="M208 344q-61 44 -61 108q0 29 11 62t34 67t66.5 56t99.5 22q79 0 117.5 -38t38.5 -95q0 -85 -59 -147q-25 -27 -77 -50q19 -13 30.5 -23t25 -36t13.5 -58q0 -36 -14 -74.5t-40.5 -73t-72.5 -56.5t-102 -22q-81 0 -124 42.5t-43 105.5q0 62 31 115.5t79 78.5q20 10 47 16z
M354 606q-64 0 -99 -52t-35 -107q0 -31 21 -56t68 -25q46 0 77.5 29.5t42.5 63t11 64.5q0 36 -22 59.5t-64 23.5zM273 308q-47 0 -81.5 -30.5t-48.5 -68t-14 -72.5q0 -45 29 -70.5t72 -25.5q64 0 101.5 56t37.5 117q0 14 -3.5 28t-12.5 30t-30 26t-50 10z" />
    <glyph glyph-name="nine" unicode="9" horiz-adv-x="480" 
d="M38 20l31 125h57l-8 -38q-3 -13 -3 -29q0 -41 61 -41q130 0 213 240l-2 2q-58 -61 -136 -61q-64 0 -104.5 42t-40.5 113q0 42 13 88.5t39 92t74 75.5t109 30q73 0 118 -44t45 -141q0 -42 -10.5 -99.5t-36 -126.5t-62.5 -126.5t-96 -96.5t-130 -39q-73 0 -131 34zM185 381
q0 -50 25.5 -78t68.5 -28q41 0 72.5 25t47.5 63t23.5 72t7.5 61q0 54 -27.5 80.5t-66.5 26.5q-67 0 -109 -68.5t-42 -153.5z" />
    <glyph glyph-name="colon" unicode=":" horiz-adv-x="250" 
d="M221 470q21 0 36 -14.5t15 -36.5q0 -21 -15 -36t-36 -15t-36 15t-15 36q0 22 15 36.5t36 14.5zM114 87q21 0 36 -14.5t15 -36.5q0 -21 -15 -36t-36 -15t-36 15t-15 36q0 22 15 36.5t36 14.5z" />
    <glyph glyph-name="semicolon" unicode=";" horiz-adv-x="250" 
d="M22 -138l7 44q62 26 75 81q-18 5 -30 19t-12 32q0 22 15.5 38t38.5 16t39 -17.5t16 -47.5q0 -47 -39.5 -95.5t-109.5 -69.5zM221 470q21 0 36 -14.5t15 -36.5q0 -21 -15 -36t-36 -15t-36 15t-15 36q0 22 15 36.5t36 14.5z" />
    <glyph glyph-name="less" unicode="&#x3c;" horiz-adv-x="667" 
d="M642 67l-535 224v70l535 224v-83l-431 -176l431 -176v-83z" />
    <glyph glyph-name="equal" unicode="=" horiz-adv-x="667" 
d="M119 481h535v-77h-535v77zM119 250h535v-77h-535v77z" />
    <glyph glyph-name="greater" unicode="&#x3e;" horiz-adv-x="667" 
d="M125 585l535 -225v-69l-535 -224v83l431 175l-431 176v84z" />
    <glyph glyph-name="question" unicode="?" horiz-adv-x="406" 
d="M137 543l34 122q78 39 152 39q69 0 109 -37t40 -92q0 -32 -8.5 -58.5t-29.5 -53.5t-37.5 -43.5t-51.5 -48.5q-67 -62 -95 -105.5t-47 -105.5h-59q25 92 61 143.5t136 151.5q51 51 51 112q0 35 -23 58t-63 23q-86 0 -108 -105h-61zM156 87q21 0 36 -14.5t15 -36.5
q0 -21 -15 -36t-36 -15t-36 15t-15 36q0 22 15 36.5t36 14.5z" />
    <glyph glyph-name="at" unicode="@" horiz-adv-x="1010" 
d="M657 515h89l-71 -328l-5 -22q-11 -48 -11 -58q0 -11 6.5 -20t23.5 -9q23 0 54.5 19t63 52t53.5 87t22 116q0 141 -103.5 224.5t-249.5 83.5q-120 0 -213.5 -58.5t-141.5 -155t-48 -212.5q0 -72 24.5 -143.5t73.5 -118.5q118 -112 327 -112q76 0 137.5 15t103 42.5t61 46
t42.5 45.5h84q-16 -27 -25 -40t-32 -37t-53 -46q-133 -96 -321 -96q-129 0 -227 37t-155 100t-85.5 139.5t-28.5 163.5q0 66 15.5 132t52.5 133t90.5 118.5t137 83.5t185.5 32q105 0 188.5 -34t133 -90t75 -121t25.5 -134q0 -139 -92.5 -244.5t-200.5 -105.5q-31 0 -51 7
t-28.5 21t-11 24t-4.5 28q-75 -80 -150 -80q-76 0 -126.5 64.5t-50.5 154.5q0 68 31 138.5t91 121t131 50.5q40 0 73.5 -18t46 -32.5t29.5 -38.5zM331 210q0 -63 30 -100.5t71 -37.5q73 0 127 74.5t54 173.5q0 59 -31 97.5t-82 38.5q-50 0 -90 -41t-59.5 -96.5t-19.5 -108.5
z" />
    <glyph glyph-name="A" unicode="A" horiz-adv-x="646" 
d="M429 679h78l29 -584q2 -30 12 -39t34 -9h28l-14 -47h-220l14 47h19q34 0 43 11t7 44l-6 112h-237l-64 -105q-19 -32 -19 -41q0 -21 35 -21h33l-13 -47h-222l13 47q40 0 57 8.5t41 46.5zM434 572l-183 -301h199l-14 301h-2z" />
    <glyph glyph-name="B" unicode="B" horiz-adv-x="604" 
d="M189 672h225q75 0 110 -13q42 -16 63 -52t21 -77q0 -65 -34.5 -113.5t-96.5 -71.5q82 -35 82 -131q0 -61 -33 -112.5t-82 -77.5q-48 -24 -144 -24h-293l14 47h29q26 0 34 8t17 38l137 480q6 27 6 32q0 20 -35 20h-34zM329 614l-68 -237h102q66 0 94 16q29 16 49.5 50
t20.5 80q0 25 -8.5 43.5t-20 27.5t-29.5 13.5t-30 5.5t-30 1h-80zM333 321h-87l-76 -267h114q74 0 107 15q38 18 60.5 59.5t22.5 86.5q0 106 -141 106z" />
    <glyph glyph-name="C" unicode="C" horiz-adv-x="642" 
d="M687 629l-41 -162h-70l13 57q6 27 6 40q0 21 -15.5 35.5t-39 20.5t-39 8t-27.5 2q-87 0 -155 -57.5t-102 -142t-34 -175.5q0 -100 53 -151.5t130 -51.5q101 0 206 64l-23 -84q-93 -50 -191 -50q-66 0 -116.5 21t-77.5 51t-44 70t-21.5 69.5t-4.5 57.5q0 57 14.5 116.5
t45.5 117.5t74.5 103.5t108 73.5t140.5 28q120 0 210 -61z" />
    <glyph glyph-name="D" unicode="D" horiz-adv-x="688" 
d="M184 672h245q97 0 155 -34q110 -66 110 -226q0 -33 -5.5 -69.5t-20 -85t-47.5 -97.5t-80 -87q-26 -21 -51 -34.5t-78 -26t-122 -12.5h-287l14 47h15q21 0 30 1.5t18.5 11t15.5 30.5l138 486v2q1 3 1 5q4 12 4 19q0 11 -8.5 16t-16.5 6t-23 1h-21zM329 611l-159 -555h92
q142 0 214 58q65 51 98 135t33 166q0 40 -9 72t-22 52.5t-35 35t-39.5 21.5t-44.5 10.5t-41 4t-37 0.5h-50z" />
    <glyph glyph-name="E" unicode="E" horiz-adv-x="594" 
d="M184 672h473l-41 -146h-61l13 45q4 15 4 21q0 10 -6 15t-13 5.5t-21 0.5h-203l-68 -237h143q31 0 41.5 7t18.5 34l7 20h55l-55 -189h-53l7 26q4 15 4 22q0 10 -7 15t-14 5.5t-21 0.5h-143l-74 -260h207q38 0 51 6.5t20 30.5l16 52h63l-42 -146h-482l13 47h28q23 0 34 8.5
t19 38.5l134 472q7 28 7 38q0 21 -38 21h-30z" />
    <glyph glyph-name="F" unicode="F" horiz-adv-x="552" 
d="M188 672h478l-40 -146h-61l12 45q4 18 4 21q0 9 -6.5 14t-13.5 5.5t-20 0.5h-209l-67 -234h130q35 0 44.5 7.5t18.5 35.5l6 18h54l-54 -189h-55l8 28q3 8 3 20q0 10 -6.5 15t-13.5 5.5t-22 0.5h-129l-64 -225q-6 -22 -6 -26q0 -21 38 -21h38l-13 -47h-235l13 47h29
q24 0 33.5 9t18.5 41l137 484q5 19 5 22q0 10 -6 15.5t-11.5 6t-16.5 0.5h-34z" />
    <glyph glyph-name="G" unicode="G" horiz-adv-x="678" 
d="M703 622l-41 -155h-70l13 58q6 22 6 41q0 30 -41 48t-92 18q-59 0 -110 -25.5t-84.5 -66.5t-57.5 -92t-34.5 -101.5t-10.5 -96.5q0 -34 10 -67.5t30.5 -64.5t59.5 -50t90 -19q46 0 94 16l35 125l2 6q6 20 6 31q0 22 -43 22h-29l12 45h235l-14 -45h-29q-27 0 -36 -9.5
t-17 -39.5l-51 -182q-98 -36 -179 -36q-74 0 -128.5 25.5t-83 68.5t-41 88.5t-12.5 94.5q0 70 24 143t69.5 139t122.5 107.5t173 41.5q133 0 222 -68z" />
    <glyph glyph-name="H" unicode="H" horiz-adv-x="734" 
d="M193 672h224l-11 -47h-22q-31 0 -40 -10t-21 -53l-50 -174h321l50 191q6 20 6 27q0 13 -9 16t-29 3h-28l10 47h228l-13 -47h-21q-30 0 -38.5 -9.5t-20.5 -50.5l-135 -463q-6 -22 -6 -31q0 -17 10 -20.5t57 -3.5l-13 -47h-225l13 47q48 2 59 8t21 41l66 234h-319l-64 -223
q-8 -30 -8 -37q0 -11 6.5 -16t13 -6t20.5 -1h27l-12 -47h-227l14 47h23q29 0 38.5 8.5t18.5 40.5l133 475q8 22 8 35q0 19 -42 19h-25z" />
    <glyph glyph-name="I" unicode="I" 
d="M193 672h225l-13 -47h-19q-26 0 -38 -8t-20 -38l-135 -483q-6 -24 -6 -27q0 -22 34 -22h30l-13 -47h-226l13 47h29q24 0 33 8t17 35l138 483q5 19 5 31q0 21 -36 21h-31z" />
    <glyph glyph-name="J" unicode="J" horiz-adv-x="490" 
d="M365 672h230l-13 -47h-26q-26 0 -35 -10t-16 -35l-112 -393q0 -2 -2 -6q-29 -104 -78.5 -151.5t-133.5 -47.5q-88 0 -154 52l34 122h62l-8 -40q-4 -12 -4 -32q0 -24 23.5 -35.5t48.5 -11.5q45 0 75 36t59 137q2 12 4 16l101 354q5 12 5 25q0 20 -42 20h-32z" />
    <glyph glyph-name="K" unicode="K" horiz-adv-x="632" 
d="M187 672h223l-14 -47h-24q-26 0 -35.5 -9t-17.5 -37l-61 -216l2 -2l258 218q23 18 23 32t-23 14h-19l12 47h221l-12 -47q-19 0 -30.5 -1.5t-32.5 -10.5t-41 -27l-8 -7l-271 -228l162 -252q33 -52 87 -52h17l-13 -47h-224l13 47q27 0 36.5 2t9.5 12q0 11 -11 29l-163 250
l-68 -237q0 -2 -2 -10q-5 -15 -5 -25q0 -21 36 -21h31l-13 -47h-223l13 47h31q14 0 20.5 1.5t14 11t13.5 30.5l138 489q5 13 5 25q0 21 -36 21h-33z" />
    <glyph glyph-name="L" unicode="L" horiz-adv-x="531" 
d="M186 672h234l-13 -47h-34q-15 0 -22 -1.5t-16 -11t-14 -28.5l-3 -12l-147 -516h202q35 0 46 9t18 36l14 45h61l-42 -146h-465l13 47h30q21 0 30 6.5t17 32.5l140 490q5 20 5 27q0 22 -38 22h-29z" />
    <glyph glyph-name="M" unicode="M" horiz-adv-x="844" 
d="M187 672h199l13 -568h2l338 568h197l-14 -47h-24q-38 0 -49 -36q0 -1 -1.5 -6.5t-2.5 -6.5l-138 -486q0 -3 -2 -7q-3 -15 -3 -16q0 -20 43 -20h24l-13 -47h-222l13 47h22q29 0 39 8.5t20 43.5l150 524l-2 2l-370 -625h-79l-14 625h-2l-149 -531q-5 -18 -5 -24
q0 -23 34 -23h32l-14 -47h-204l13 47h31q22 0 31 7.5t18 39.5l137 477q6 27 6 34q0 12 -7.5 16t-24.5 4h-36z" />
    <glyph glyph-name="N" unicode="N" horiz-adv-x="698" 
d="M188 672h197l128 -550h2l129 454q5 17 5 28q0 21 -30 21h-38l14 47h207l-13 -47h-21q-29 0 -39 -10t-17 -35l-169 -590h-82l-146 620h-2l-144 -513q-6 -23 -6 -28q0 -22 33 -22h34l-13 -47h-211l13 47h28q24 0 33.5 6.5t17.5 35.5l138 487q5 20 5 28q0 21 -32 21h-35z
" />
    <glyph glyph-name="O" unicode="O" horiz-adv-x="708" 
d="M91 249q0 58 15 118.5t46 118t74 103t104.5 73.5t132.5 28q122 0 190 -73.5t68 -182.5q0 -56 -13.5 -116t-43.5 -120.5t-72 -108t-105 -77.5t-137 -30q-71 0 -124 26.5t-81 68.5t-41 85.5t-13 86.5zM176 244q0 -83 48 -141.5t133 -58.5q62 0 112 31.5t80 78t50.5 103
t28 103t7.5 81.5q0 74 -43.5 131.5t-134.5 57.5q-71 0 -127.5 -40t-88.5 -101.5t-48.5 -125t-16.5 -119.5z" />
    <glyph glyph-name="P" unicode="P" horiz-adv-x="563" 
d="M185 672h226q77 0 119 -19q31 -14 50.5 -40t25 -47.5t5.5 -42.5q0 -16 -3.5 -36t-12.5 -48.5t-31 -57t-54 -47.5q-55 -32 -145 -32h-129l-59 -212q-4 -12 -4 -22q0 -21 37 -21h39l-13 -47h-232l14 47h24q25 0 36 8t19 35l139 486q5 15 5 30q0 19 -35 19h-34zM326 615
l-73 -257h114q60 3 86 16q34 18 54.5 55.5t20.5 80.5q0 34 -11 56.5t-31.5 32t-39 13t-44.5 3.5h-76z" />
    <glyph glyph-name="Q" unicode="Q" horiz-adv-x="708" 
d="M589 -72l-14 -51q-2 0 -18.5 -1t-25.5 -1q-181 0 -253 115q-78 22 -121 72q-66 78 -66 186q0 58 15 119t46 119t74 103.5t104.5 73t132.5 27.5q122 0 190 -73.5t68 -182.5q0 -76 -27.5 -166.5t-88.5 -163.5q-29 -34 -59 -57.5t-60.5 -36t-47 -17t-41.5 -8.5
q25 -34 71 -45t121 -12zM176 244q0 -79 46.5 -139.5t134.5 -60.5q62 0 112 31.5t80 78t50.5 103t28 103t7.5 81.5q0 33 -9 64.5t-28.5 60.5t-56 46.5t-84.5 17.5q-71 0 -128 -40.5t-88.5 -102t-48 -125t-16.5 -118.5z" />
    <glyph glyph-name="R" unicode="R" horiz-adv-x="594" 
d="M184 672h228q74 0 113 -16q41 -18 63 -53.5t22 -78.5q0 -30 -8 -61t-26.5 -63.5t-55.5 -57.5t-87 -33l43 -183q12 -51 28 -65t54 -14h25l-13 -47h-146l-68 303h-121l-60 -213q-3 -17 -3 -22q0 -21 38 -21h29l-13 -47h-223l13 47h33q11 0 17 1t14 8.5t12 22.5q3 6 3 11
l140 492q3 10 3 24q0 19 -34 19h-34zM326 616l-74 -258h96q9 0 70 8q44 5 76.5 47.5t32.5 99.5q0 48 -27.5 75.5t-83.5 27.5h-90z" />
    <glyph glyph-name="S" unicode="S" horiz-adv-x="531" 
d="M587 640l-36 -150h-67l11 50q4 16 4 39q0 25 -33 40.5t-71 15.5q-57 0 -93 -33t-36 -80q0 -35 20 -61.5t92 -93.5q38 -36 56.5 -57t36 -57.5t17.5 -75.5q0 -30 -11.5 -61.5t-36 -62.5t-72.5 -51t-113 -20q-114 0 -206 60l47 174h68l-15 -73q-3 -12 -3 -34q0 -36 37.5 -53
t82.5 -17q65 0 100.5 41t35.5 88q0 30 -15.5 59t-35 49t-64.5 62q-33 30 -51.5 51t-35.5 55t-17 69q0 73 58 125t159 52q107 0 187 -50z" />
    <glyph glyph-name="T" unicode="T" horiz-adv-x="604" 
d="M165 672h555l-47 -160h-61l15 54q5 22 5 30q0 9 -7 14t-14 5.5t-23 0.5h-119l-148 -517q-6 -19 -6 -32q0 -20 36 -20h34l-12 -47h-237l14 47h26q19 0 27 1.5t17 11.5t15 31l150 525h-119q-35 0 -47 -6.5t-21 -38.5l-17 -59h-62z" />
    <glyph glyph-name="U" unicode="U" horiz-adv-x="698" 
d="M176 672h228l-14 -47h-26q-24 0 -34 -9t-19 -41l-95 -333q-16 -55 -16 -98q0 -49 38.5 -76.5t100.5 -27.5q70 0 118 34t76 133q0 5 3 11l103 365q4 10 4 19q0 11 -6.5 16t-13 6t-19.5 1h-29l13 47h215l-14 -47h-24q-25 0 -35 -10.5t-18 -39.5l-105 -364q-3 -10 -3 -12
q-16 -59 -42 -101t-52 -64t-60 -34.5t-57 -15t-53 -2.5q-112 0 -167 43q-59 47 -59 117q0 45 18 106l92 327q6 15 6 32q0 18 -38 18h-29z" />
    <glyph glyph-name="V" unicode="V" horiz-adv-x="646" 
d="M151 672h224l-14 -47h-29q-26 0 -33 -12.5t-6 -40.5l22 -460h2l276 454q16 24 16 39q0 20 -34 20h-28l13 47h215l-13 -47h-14q-28 0 -41.5 -11t-29.5 -38l-361 -585h-77l-29 585q-2 29 -10 39t-37 10h-26z" />
    <glyph glyph-name="W" unicode="W" horiz-adv-x="906" 
d="M148 672h220l-14 -47h-19q-16 0 -26.5 -3t-15 -10t-6 -13.5t-1.5 -17.5l-10 -457l2 -2l291 550h77l-13 -538l2 -2l230 440q12 24 12 32q0 21 -35 21h-29l14 47h210l-13 -47h-13q-21 0 -38 -11t-24.5 -22t-18.5 -32l-302 -569h-78l15 546l-2 2l-287 -548h-79l10 569
q1 25 -1 36.5t-12 20t-31 8.5h-30z" />
    <glyph glyph-name="X" unicode="X" horiz-adv-x="625" 
d="M168 672h213l-12 -47h-15q-37 0 -37 -22q0 -10 7 -31l57 -160l147 164q19 19 19 33q0 16 -29 16h-23l13 47h211l-12 -47q-54 0 -87 -37l-217 -241l88 -250q11 -32 22 -41t34 -9h25l-14 -47h-213l13 47q17 0 25.5 1t17 6t8.5 16q0 5 -6 23l-63 184l-169 -190
q-14 -14 -14 -24q0 -16 32 -16h19l-12 -47h-211l13 47q23 2 34.5 4.5t28.5 13t36 32.5l221 245l-81 230l-2 7q-7 21 -18.5 32t-19.5 12.5t-21 1.5h-21z" />
    <glyph glyph-name="Y" unicode="Y" horiz-adv-x="625" 
d="M147 672h226l-15 -47h-30q-33 0 -33 -26q0 -7 5 -27l58 -232l200 228q23 26 23 37q0 20 -32 20h-21l13 47h215l-13 -47q-52 1 -91 -43l-271 -311l-53 -183q-5 -18 -5 -21q0 -20 41 -20h31l-14 -47h-234l14 47h29q25 0 35 8t17 33l50 174l-74 294q-10 42 -23.5 55.5
t-41.5 13.5h-19z" />
    <glyph glyph-name="Z" unicode="Z" horiz-adv-x="583" 
d="M199 672h465l-16 -60l-526 -552h275q32 0 45 6.5t20 31.5l14 52h63l-43 -150h-494l18 60l527 552h-257q-31 0 -40.5 -7.5t-16.5 -32.5l-15 -50h-61z" />
    <glyph glyph-name="bracketleft" unicode="[" horiz-adv-x="290" 
d="M197 672h178l-15 -53h-107l-222 -779h107l-15 -50h-176z" />
    <glyph glyph-name="backslash" unicode="\" horiz-adv-x="552" 
d="M104 672h81l357 -714h-81z" />
    <glyph glyph-name="bracketright" unicode="]" horiz-adv-x="290" 
d="M125 -210h-178l15 53h107l222 779h-107l15 50h176z" />
    <glyph glyph-name="asciicircum" unicode="^" horiz-adv-x="469" 
d="M169 281h-90l173 391h71l173 -391h-89l-120 292z" />
    <glyph glyph-name="underscore" unicode="_" horiz-adv-x="500" 
d="M-6 -125v50h512v-50h-512z" />
    <glyph glyph-name="grave" unicode="`" 
d="M162 654h85l47 -130h-47z" />
    <glyph glyph-name="a" unicode="a" horiz-adv-x="521" 
d="M432 456l83 11l-101 -357q-9 -32 -9 -42q0 -16 14 -16q12 0 59 28l-14 -59q-48 -33 -90 -33q-24 0 -36 15t-12 34t7 38l-2 2q-77 -89 -159 -89q-55 0 -89 40t-34 109q0 74 35 150t97.5 128t132.5 52q72 0 108 -52zM133 143q0 -37 18.5 -64t50.5 -27q48 0 95 46
t74.5 110.5t27.5 119.5q0 34 -22 60t-57 26q-72 0 -129.5 -87t-57.5 -184z" />
    <glyph glyph-name="b" unicode="b" horiz-adv-x="479" 
d="M142 678l145 26l-90 -316l2 -2q26 40 66.5 62t80.5 22t67.5 -15.5t39.5 -41t16.5 -47.5t4.5 -46q0 -74 -32 -150t-95.5 -130.5t-140.5 -54.5q-60 0 -104.5 35.5t-44.5 89.5q0 47 15 96l113 397q5 15 5 21q0 17 -30 14l-31 -3zM319 408q-49 0 -94.5 -49.5t-70.5 -114.5
t-25 -117q0 -33 21 -59t63 -26q49 0 91 45.5t64 107.5t22 120q0 11 -1.5 21.5t-7 29.5t-21.5 30.5t-41 11.5z" />
    <glyph glyph-name="c" unicode="c" horiz-adv-x="432" 
d="M423 323h-58l1 10q5 23 5 41q0 17 -12.5 29.5t-40.5 12.5q-75 0 -128.5 -84t-53.5 -171q0 -52 29.5 -81.5t70.5 -29.5q49 0 117 44q1 1 4.5 3t7.5 4.5t5 3.5l-16 -73q-76 -47 -145 -47q-77 0 -115.5 49.5t-38.5 122.5q0 40 11.5 83t35 84t55.5 73.5t78 52.5t99 20
q56 0 118 -31z" />
    <glyph glyph-name="d" unicode="d" horiz-adv-x="521" 
d="M437 679l145 25l-170 -601q0 -1 -1 -3t-1 -3q-6 -19 -6 -28q0 -6 4.5 -11.5t11.5 -5.5q15 0 58 26l-16 -58q-47 -32 -86 -32q-21 0 -36 13.5t-15 34.5q0 14 8 40l-2 2q-70 -90 -162 -90q-51 0 -85.5 39.5t-34.5 107.5q0 77 34.5 153.5t97.5 129t135 52.5q68 0 109 -57
l53 185q6 19 6 26q0 12 -10.5 14.5t-20.5 -0.5l-28 -5zM132 136q0 -30 17 -58t55 -28q67 0 131 93t64 180q0 8 -1.5 18.5t-8 29.5t-24 31.5t-44.5 12.5q-75 0 -132 -90t-57 -189z" />
    <glyph glyph-name="e" unicode="e" horiz-adv-x="417" 
d="M360 113l-17 -74q-78 -54 -150 -54q-71 0 -109 45.5t-38 110.5q0 122 85.5 225.5t198.5 103.5q29 0 50 -9t31.5 -20.5t16.5 -26.5t7 -23t1 -14q0 -77 -78 -127t-178 -50q-20 0 -48 2q-6 -24 -6 -50q0 -53 26 -77t59 -24q25 0 49.5 8t40.5 17t49 30zM142 253
q66 -5 113.5 8t67.5 36t28 41t8 33q0 21 -13 33.5t-34 12.5q-12 0 -28 -5.5t-41.5 -20t-52.5 -50.5t-48 -88z" />
    <glyph glyph-name="f" unicode="f" horiz-adv-x="260" 
d="M67 402l14 53h75l7 34q14 72 52 128q59 87 156 87q42 0 97 -24l-24 -84h-47q2 12 2 22q0 40 -40 40q-78 0 -115 -161l-10 -42h83l-15 -53h-79l-70 -348q-21 -101 -50 -160q-23 -47 -64.5 -80t-89.5 -33q-44 0 -78 17l13 83h47q-2 -8 -2 -23q0 -12 9 -20t20 -8
q37 0 63.5 46.5t53.5 180.5q3 6 3 16l67 329h-78z" />
    <glyph glyph-name="g" unicode="g" horiz-adv-x="469" 
d="M502 455l-14 -54h-72q24 -44 24 -86q0 -68 -43 -120q-25 -29 -58 -45t-87 -23q-89 -10 -89 -45q0 -13 19.5 -21t78.5 -20q70 -15 106 -43.5t36 -77.5q0 -67 -62 -104q-57 -35 -155 -35q-210 0 -210 111q0 95 143 120q-32 20 -32 46q0 27 19 47t35.5 27t33.5 11v2
q-87 36 -87 123q0 73 50.5 137.5t142.5 64.5q42 0 81 -15h140zM162 267q0 -44 26.5 -67t62.5 -23q56 0 87 47.5t31 107.5q0 95 -90 95q-42 0 -70.5 -29.5t-37.5 -63.5t-9 -67zM178 -11q-132 -21 -132 -84q0 -24 19 -40.5t48 -22.5t46.5 -7.5t31.5 -1.5q64 0 102 20t38 54
q0 28 -27 45t-89 29q-26 4 -37 8z" />
    <glyph glyph-name="h" unicode="h" horiz-adv-x="490" 
d="M305 704l-101 -356l2 -2q30 48 75 84.5t98 36.5q35 0 60 -20.5t25 -64.5q0 -27 -10 -57l-70 -228q-6 -19 -6 -27q0 -19 15 -19t37 15q5 2 19 11l-15 -58q-46 -31 -91 -31q-22 0 -36.5 15t-14.5 38t9 50l69 218q0 5 3 11q11 35 11 53q0 35 -34 35q-52 0 -121 -99.5
t-91 -192.5l-33 -116h-75l170 591q7 28 7 33q0 17 -18 17q-13 0 -25 -2l-17 -2l12 43z" />
    <glyph glyph-name="i" unicode="i" horiz-adv-x="250" 
d="M97 444l151 23l-106 -377q-5 -17 -5 -24q0 -9 6 -13.5t12 -4.5q17 0 54 27l-13 -59q-52 -31 -87 -31q-26 0 -39.5 15t-13.5 33q0 23 7 45l79 279q7 23 7 31q0 17 -16 17l-27 -3l-22 -3zM238 658q22 0 37 -15t15 -37q0 -21 -15 -36.5t-37 -15.5q-21 0 -36.5 15t-15.5 37
t15.5 37t36.5 15z" />
    <glyph glyph-name="j" unicode="j" horiz-adv-x="250" 
d="M98 440l152 23l-138 -479q-9 -31 -15 -48.5t-22 -51t-33 -52.5t-46.5 -35t-64.5 -16q-37 0 -71 17l13 87h45v-21q-1 -30 28 -30q25 0 43 22.5t38 92.5l114 399q8 30 8 37q0 16 -17 16q-4 0 -11.5 -1t-9.5 -1l-26 -4zM239 658q21 0 36.5 -15t15.5 -37q0 -21 -15 -36.5
t-37 -15.5t-37 15t-15 37t15.5 37t36.5 15z" />
    <glyph glyph-name="k" unicode="k" horiz-adv-x="491" 
d="M158 680l145 24l-126 -450l2 -2l146 120q21 16 21 26q0 5 -2.5 8.5t-9.5 4.5t-13 1.5t-18 0.5l10 42h213l-11 -42q-59 -4 -106 -41l-124 -102l70 -178q15 -38 34 -38t63 34l-11 -62q-50 -38 -88 -38q-20 0 -35 12t-20.5 23t-13.5 34l-61 164l-71 -59l-46 -162h-76
l170 602q5 16 5 23q0 14 -18 14q-6 0 -20 -2l-21 -3z" />
    <glyph glyph-name="l" unicode="l" horiz-adv-x="240" 
d="M158 680l147 24l-174 -616q-5 -22 -5 -23q0 -17 17 -17q20 0 57 28l-15 -61q-48 -30 -90 -30q-19 0 -35 13t-16 36q0 14 5 34l151 533l2 5q3 14 3 20q0 13 -17 13q-14 0 -22 -1l-20 -4z" />
    <glyph glyph-name="m" unicode="m" horiz-adv-x="740" 
d="M97 440l138 19q-6 -40 -22 -91l-7 -22l2 -2q22 30 36 47t36.5 37t47.5 29.5t55 9.5q34 0 57.5 -20t23.5 -60q0 -14 -5 -32l2 -2q80 114 169 114q87 0 87 -83q0 -30 -13 -69l-62 -195q-11 -29 -11 -49q0 -18 14 -18q21 0 35 14l13 8q3 3 8 5l-15 -58q-49 -34 -87 -34
q-15 0 -26.5 5.5t-16.5 12t-8 15t-3.5 12t-0.5 5.5q0 24 11 54l69 223q12 41 12 58q0 36 -33 36q-43 0 -110 -85q-71 -90 -112 -231l-27 -93h-70l90 315q11 38 11 59q0 17 -9 25.5t-20 8.5q-52 0 -117 -89.5t-98 -206.5l-32 -112h-71l102 357q6 23 6 26q0 17 -21 17
q-4 0 -23 -2q-4 0 -10 -0.5t-7 -0.5z" />
    <glyph glyph-name="n" unicode="n" horiz-adv-x="500" 
d="M101 438l138 21q-3 -16 -6 -31t-5 -24l-3 -10l-1 -4q-2 -5 -2 -6l-12 -39l2 -2q89 124 174 124q38 0 62.5 -21t24.5 -61q0 -31 -22 -100l-57 -182q-8 -27 -8 -35q0 -19 16 -19q15 0 54 27l-14 -58q-51 -31 -90 -31q-20 0 -36 13.5t-16 38.5q0 11 3 24l71 232q18 56 18 80
q0 14 -8.5 23.5t-23.5 9.5q-49 0 -112 -86.5t-85 -153.5q-27 -86 -50 -168h-72l99 345q8 29 8 36q0 17 -19 17q-13 0 -42 -5z" />
    <glyph glyph-name="o" unicode="o" horiz-adv-x="500" 
d="M58 165q0 123 70 214t182 91q74 0 126.5 -44t52.5 -128q0 -42 -13 -91.5t-40 -101.5t-78.5 -86t-119.5 -34q-43 0 -76 13t-52 32.5t-31.5 45.5t-16.5 47.5t-4 41.5zM138 162q0 -55 29 -88.5t77 -33.5q41 0 74.5 28.5t52 71.5t28.5 86.5t10 78.5q0 51 -28 81t-72 30
q-52 0 -92 -38.5t-59.5 -95.5t-19.5 -120z" />
    <glyph glyph-name="p" unicode="p" horiz-adv-x="510" 
d="M96 437l141 20q-4 -34 -16 -74l2 -2q65 86 149 86q68 0 99 -44.5t31 -112.5q0 -119 -78.5 -222t-179.5 -103q-80 0 -115 63l-46 -159q-9 -31 -9 -36q0 -21 37 -21h28l-14 -42h-197l13 42h17q23 0 31.5 8t15.5 33q0 8 4 16l130 458q0 1 1.5 4.5t1.5 5.5q5 16 5 24
q0 14 -17 14q-12 0 -47 -3zM155 132q0 -41 23.5 -66t59.5 -25q52 0 95 46.5t64.5 106.5t21.5 113q0 11 -2 23.5t-8 31.5t-22 31t-40 12q-44 0 -89.5 -43t-74 -107t-28.5 -123z" />
    <glyph glyph-name="q" unicode="q" horiz-adv-x="500" 
d="M436 455l82 12l-169 -592q-5 -20 -5 -23q0 -20 35 -20h20l-12 -42h-197l13 42h22q23 0 32.5 9t19.5 45l51 177l-2 2q-72 -80 -154 -80q-49 0 -85.5 36.5t-36.5 116.5q0 76 37 152t100 126.5t131 50.5q72 0 106 -54zM134 132q0 -43 21.5 -64t46.5 -21q73 0 135.5 93.5
t62.5 188.5q0 35 -21.5 59t-54.5 24q-72 0 -131 -84.5t-59 -195.5z" />
    <glyph glyph-name="r" unicode="r" 
d="M92 435l135 20l-27 -110l2 -2q43 57 79 88t79 31q26 0 48 -13l-26 -92h-45q0 27 -19 27q-31 0 -65 -45q-39 -46 -57 -83.5t-42 -108.5l-5 -16l-33 -131h-68l87 352q5 22 5 27q0 15 -20 15q-24 0 -41 -5z" />
    <glyph glyph-name="s" unicode="s" horiz-adv-x="360" 
d="M377 439l-28 -108h-55l5 22q5 15 5 26q0 18 -16 30t-42 12q-38 0 -55.5 -20.5t-17.5 -44.5q0 -23 14 -41.5t59 -62.5q71 -68 71 -130q0 -58 -41.5 -97.5t-120.5 -39.5q-81 0 -144 39l29 115h58l-6 -24q-5 -15 -5 -29q0 -25 22 -37t50 -12q38 0 58 22.5t20 50.5
q0 22 -13.5 43.5t-55.5 62.5q-25 24 -37.5 38.5t-24.5 38.5t-12 49q0 46 38.5 87t114.5 41q67 0 130 -31z" />
    <glyph glyph-name="t" unicode="t" horiz-adv-x="271" 
d="M235 577h43l-35 -122h81l-14 -53h-82l-80 -284q-9 -31 -9 -43q0 -11 7.5 -18t17.5 -7q18 0 85 31l-10 -56q-65 -37 -112 -37q-31 0 -49.5 17t-18.5 48q0 11 7 46q0 1 1.5 5.5t2.5 5.5l83 292h-76l10 36q49 18 83 48t65 91z" />
    <glyph glyph-name="u" unicode="u" horiz-adv-x="500" 
d="M99 439l155 20l-102 -323q-11 -30 -11 -51q0 -16 8.5 -25.5t21.5 -9.5q35 0 74.5 40t69.5 89q46 73 75 172l30 105l77 3l-104 -358q-6 -18 -6 -31q0 -17 13 -17q17 0 57 26l-14 -60q-56 -31 -85 -31q-19 0 -35 11t-16 36q0 23 18 79l-2 2q-25 -37 -46 -60.5t-57 -45.5
t-75 -22q-37 0 -60.5 22.5t-23.5 58.5q0 29 9 57l72 232q5 15 5 25q0 18 -30 15l-30 -3z" />
    <glyph glyph-name="v" unicode="v" horiz-adv-x="438" 
d="M52 447l128 23q19 -35 24 -83q4 -20 4 -47l5 -256q60 67 118 157.5t58 136.5q0 9 -6.5 18t-21.5 9q-13 0 -29 -4v38l92 31q36 -31 36 -76q0 -73 -94 -207q-69 -98 -165 -202h-59l-12 307q-2 56 -9 81t-19 30.5t-40 3.5l-22 -1z" />
    <glyph glyph-name="w" unicode="w" horiz-adv-x="688" 
d="M39 446l132 24q27 -53 29 -140l3 -212h2l184 337h60l9 -367q171 209 171 289q0 29 -28 29q-11 0 -27 -2v36l91 30q36 -34 36 -79q0 -48 -41 -121q-50 -87 -138 -193l-67 -78q-6 -7 -11 -14h-60l-9 328h-2l-179 -328h-61l-5 183q-4 175 -17 213q-7 29 -37 29q-5 0 -21 -2
l-23 -4z" />
    <glyph glyph-name="x" unicode="x" horiz-adv-x="448" 
d="M74 442l120 25q19 -24 33 -60q2 -5 17 -55t17 -57q3 5 16 25.5t24.5 39.5t15.5 24q35 46 64 64.5t63 18.5q29 0 47 -10l-21 -88h-38q-9 20 -23 20q-22 0 -64 -60l-61 -99l-5 -9q11 -47 32 -106q8 -21 12.5 -31.5t14.5 -20t23 -9.5q22 0 62 31l-14 -64q-39 -33 -85 -33
q-32 0 -54.5 36t-41.5 115q-46 -69 -90 -110t-97 -41q-28 0 -49 15l26 91h42q0 -31 18 -31q17 0 38.5 19t41.5 48t30.5 47t18.5 33l-33 122q-13 42 -23.5 56t-38.5 14q-10 0 -46 -6z" />
    <glyph glyph-name="y" unicode="y" horiz-adv-x="458" 
d="M345 439l93 31q34 -29 34 -76q0 -60 -52.5 -158t-185.5 -269q-102 -127 -152 -162q-34 -24 -75 -24q-28 0 -54 15l16 87h45v-20t4.5 -14t14.5 -5q41 0 153 152l-34 281q0 11 -2 15q-6 59 -17 90q-10 26 -35 26q-12 0 -36 -4l-5 -1q-5 -1 -6 -1l11 43l124 25
q18 -29 27 -59.5t15 -89.5l23 -237h2q8 14 9 15l32 46q25 34 66 109t41 116q0 35 -31 35q-12 0 -25 -3v37z" />
    <glyph glyph-name="z" unicode="z" horiz-adv-x="417" 
d="M120 455h326l-15 -54l-315 -339h146q28 0 37.5 7t16.5 32l8 32h59l-37 -133h-341l15 52l317 342h-127q-34 0 -42.5 -6t-16.5 -30l-8 -23h-57z" />
    <glyph glyph-name="braceleft" unicode="{" 
d="M336 672h26v-72h-14q-48 0 -63.5 -17t-15.5 -78q0 -46 -0.5 -66.5t-2 -52t-5 -46t-10 -34.5t-17.5 -31t-25.5 -22.5t-35.5 -21.5q56 -24 76 -71.5t20 -135.5q0 -114 10.5 -138t68.5 -24h14v-72h-26q-24 0 -39 1.5t-37.5 11.5t-36.5 29q-21 28 -26 63.5t-6 120.5
q0 36 -0.5 54t-5.5 46t-14.5 41.5t-28 24.5t-46.5 12v75q28 1 46.5 11.5t28 24t14.5 41t5.5 46t0.5 54.5q1 60 2 84.5t8 52.5t22 48q14 19 36.5 28.5t37.5 11t39 1.5z" />
    <glyph glyph-name="bar" unicode="|" horiz-adv-x="542" 
d="M267 672h78v-831h-78v831z" />
    <glyph glyph-name="braceright" unicode="}" 
d="M109 -210h-26v72h14q48 0 63.5 17t15.5 78q0 46 0.5 66.5t2 52t5 46t10 34.5t17.5 31t25.5 22.5t35.5 21.5q-56 24 -76 71.5t-20 135.5q0 114 -10.5 138t-68.5 24h-14v72h26q24 0 39 -1.5t37.5 -11.5t36.5 -29q21 -28 26 -63.5t6 -120.5q0 -36 0.5 -54t5.5 -46
t14.5 -41.5t28 -24.5t46.5 -12v-75q-28 -1 -46.5 -11.5t-28 -24t-14.5 -41t-5.5 -46t-0.5 -54.5q-1 -60 -2 -84.5t-8 -52.5t-22 -48q-14 -19 -36.5 -28.5t-37.5 -11t-39 -1.5z" />
    <glyph glyph-name="asciitilde" unicode="~" horiz-adv-x="656" 
d="M115 284v82q76 63 148 63q45 0 142 -46q64 -32 100 -32q64 0 142 70v-83q-75 -64 -142 -64q-31 0 -61 10t-91 39q-61 30 -94 30q-66 0 -144 -69z" />
    <glyph glyph-name="uni00A0" unicode="&#xa0;" horiz-adv-x="240" 
 />
    <glyph glyph-name="exclamdown" unicode="&#xa1;" horiz-adv-x="260" 
d="M135 288h61l-121 -465l-17 -57h-77l15 57zM201 368q-21 0 -36 14.5t-15 36.5q0 21 15 36t36 15t36 -15t15 -36q0 -22 -15 -36.5t-36 -14.5z" />
    <glyph glyph-name="cent" unicode="&#xa2;" horiz-adv-x="406" 
d="M471 534l-28 -117h-59q1 1 1.5 5t0.5 6q4 36 4 40q0 17 -10 27.5t-18.5 12.5t-15.5 2l-104 -364q54 -7 131 43l16 10l-15 -73q-79 -47 -150 -46l-28 -96h-57l30 105q-45 17 -69.5 60.5t-24.5 102.5q0 98 61.5 192t167.5 116l28 99h56l-27 -94q54 -2 110 -31zM192 168
l95 331q-59 -28 -95.5 -102t-36.5 -141q0 -58 37 -88z" />
    <glyph glyph-name="sterling" unicode="&#xa3;" horiz-adv-x="480" 
d="M555 624l-36 -126h-56q13 41 13 67q0 44 -73 44q-79 0 -111 -71q-11 -25 -13.5 -62.5t-2.5 -125.5h165l-16 -57h-149q-7 -75 -36.5 -123.5t-88.5 -90.5l2 -2q28 4 42 4q29 0 97 -23q30 -10 49 -10q35 0 90 29l-15 -59q-47 -32 -94 -32q-27 0 -81 17q-55 20 -83 20
q-58 0 -154 -37l13 60q37 19 59 33t55 43.5t51.5 72.5t21.5 98h-76l16 57h60q-2 34 -2 65q0 67 13 107t41 71q60 66 161 66q74 0 138 -35z" />
    <glyph glyph-name="currency" unicode="&#xa4;" horiz-adv-x="688" 
d="M529 507l63 63l51 -52l-63 -63q42 -60 42 -130q0 -67 -42 -129l63 -62l-51 -52l-63 62q-63 -42 -129 -42q-69 0 -131 42l-62 -62l-52 52l62 62q-41 63 -41 130q0 66 41 130l-62 62l51 52l63 -63q64 42 130 42q63 0 130 -42zM549 326q0 62 -44 106t-106 44t-106 -44
t-44 -106t44 -106.5t106 -44.5t106 44.5t44 106.5z" />
    <glyph glyph-name="yen" unicode="&#xa5;" horiz-adv-x="625" 
d="M271 356l-45 178q-10 40 -23 53t-39 13h-19l13 45h216l-14 -45h-29q-31 0 -31 -25q0 -6 4 -26l56 -222l193 218q21 25 21 36q0 19 -30 19h-20l12 45h206l-12 -45q-52 0 -88 -41l-176 -203h130l-14 -52h-162l-38 -44l-15 -52h187l-15 -52h-187l-21 -71q-4 -19 -4 -21
q0 -19 39 -19h29l-13 -45h-224l13 45h28q24 0 33.5 7.5t16.5 32.5l21 71h-187l15 52h187l12 43l-13 53h-159l14 52h132z" />
    <glyph glyph-name="brokenbar" unicode="&#xa6;" horiz-adv-x="542" 
d="M267 195h78v-354h-78v354zM267 672h78v-354h-78v354z" />
    <glyph glyph-name="section" unicode="&#xa7;" horiz-adv-x="438" 
d="M501 672l-31 -105h-57l2 10q7 28 7 39q0 16 -16.5 27.5t-42.5 11.5q-43 0 -65.5 -27.5t-22.5 -62.5q0 -21 9.5 -42t22 -38.5t47.5 -61.5q71 -89 71 -158q0 -44 -19 -81.5t-53.5 -64t-56 -39t-52.5 -27.5q46 -61 46 -114q0 -21 -8 -45t-26 -51t-56 -44.5t-90 -17.5
q-58 0 -123 30l31 108h56q-8 -35 -8 -45q0 -16 14 -30t42 -14q40 0 65 26t25 65q0 44 -36 89q-12 17 -43 53q-42 53 -56 87t-14 69q0 137 181 212q-47 63 -47 116q0 57 45.5 107t131.5 50q65 0 127 -32zM273 392q-130 -57 -130 -155q0 -26 11.5 -53t23 -43.5t37.5 -48.5
l12 7q118 59 118 151q0 60 -72 142z" />
    <glyph glyph-name="dieresis" unicode="&#xa8;" 
d="M167 613q18 0 31 -13t13 -32t-13 -31.5t-31 -12.5t-31 13t-13 31q0 19 13 32t31 13zM355 613q18 0 31 -13t13 -32t-13 -31.5t-31 -12.5t-31 13t-13 31q0 19 13 32t31 13z" />
    <glyph glyph-name="copyright" unicode="&#xa9;" horiz-adv-x="792" 
d="M573 300l60 -18q-16 -65 -65.5 -99.5t-111.5 -34.5q-86 0 -140 56.5t-54 154.5q0 96 52.5 151.5t144.5 55.5q60 0 105 -28.5t62 -86.5l-58 -14q-29 75 -111 75q-65 0 -96.5 -46t-31.5 -109q0 -74 34.5 -112.5t88.5 -38.5q13 0 27.5 3t34 12t36 29.5t23.5 49.5zM455 728
q152 0 260 -107.5t108 -260.5t-107.5 -261t-260.5 -108t-261 108t-108 261t108.5 260.5t260.5 107.5zM455 667q-127 0 -217 -89.5t-90 -217.5t90 -218t217 -90t217 90t90 218t-90 217.5t-217 89.5z" />
    <glyph glyph-name="ordfeminine" unicode="&#xaa;" 
d="M350 681l66 9l-68 -217l-2 -9q-2 -4 -2 -9q0 -10 10 -10q13 0 39 21l-12 -45q-33 -21 -63 -21q-40 0 -36 40q-47 -40 -93 -40q-41 0 -63 25t-22 63q0 74 53 137.5t121 63.5q41 0 67 -23zM170 495q0 -19 9.5 -35t28.5 -16q43 0 81.5 54t38.5 106q0 18 -12.5 32.5
t-31.5 14.5q-44 0 -79 -50.5t-35 -105.5z" />
    <glyph glyph-name="guillemotleft" unicode="&#xab;" horiz-adv-x="438" 
d="M202 410h69l-146 -183l58 -185h-64l-70 194zM383 410h69l-146 -183l58 -185h-64l-70 194z" />
    <glyph glyph-name="logicalnot" unicode="&#xac;" horiz-adv-x="667" 
d="M119 481h535v-307h-77v230h-458v77z" />
    <glyph glyph-name="uni00AD" unicode="&#xad;" horiz-adv-x="281" 
d="M64 262h221l-21 -72h-221z" />
    <glyph glyph-name="registered" unicode="&#xae;" horiz-adv-x="792" 
d="M293 156v396h137q98 0 131 -28q38 -31 38 -79q0 -39 -28.5 -73.5t-84.5 -37.5v-2q20 -7 39 -26t53 -73l48 -77h-78l-35 62q-37 66 -58.5 86t-59.5 20h-38v-168h-64zM357 498v-119h78q96 0 96 60q0 17 -7.5 29t-16.5 17.5t-25 8.5t-25.5 3.5t-26.5 0.5h-73zM455 728
q152 0 260 -107.5t108 -260.5t-107.5 -261t-260.5 -108t-261 108t-108 261t108.5 260.5t260.5 107.5zM455 667q-127 0 -217 -89.5t-90 -217.5t90 -218t217 -90t217 90t90 218t-90 217.5t-217 89.5z" />
    <glyph glyph-name="macron" unicode="&#xaf;" 
d="M133 601h279l-15 -54h-280z" />
    <glyph glyph-name="degree" unicode="&#xb0;" horiz-adv-x="396" 
d="M169 524q0 56 39.5 95.5t95.5 39.5t96 -39.5t40 -95.5q0 -57 -40 -96.5t-96 -39.5t-95.5 39.5t-39.5 96.5zM222 524q0 -34 24 -58.5t58 -24.5t58.5 24.5t24.5 58.5t-24.5 58t-58.5 24t-58 -24t-24 -58z" />
    <glyph glyph-name="plusminus" unicode="&#xb1;" horiz-adv-x="667" 
d="M119 447h228v230h77v-230h230v-77h-230v-228h-77v228h-228v77zM119 77h535v-77h-535v77z" />
    <glyph glyph-name="twosuperior" unicode="&#xb2;" 
d="M358 418l-28 -85h-244l11 35q32 21 108 80q50 37 91.5 83t41.5 80q0 42 -47 42q-20 0 -33.5 -10.5t-18 -20.5t-9.5 -26h-53l20 61q60 32 106 32q49 0 75.5 -22.5t26.5 -49.5q0 -53 -68 -116q-69 -66 -152 -120v-2h80q20 0 24.5 3t10.5 20l6 16h52z" />
    <glyph glyph-name="threesuperior" unicode="&#xb3;" 
d="M124 429h53l-9 -27q-2 -12 -2 -14q0 -27 41 -27q44 0 65 29t21 57q0 15 -5 25.5t-11 16t-19 8t-21.5 3.5t-25.5 1l10 36q51 1 83 23t32 56q0 39 -42 39q-15 0 -25 -4t-16.5 -13t-9.5 -16t-7 -20h-52l20 65q55 23 97 23q50 0 74.5 -20.5t24.5 -49.5q0 -66 -92 -101
q52 -19 52 -66q0 -18 -8 -38.5t-24 -41t-47.5 -34t-73.5 -13.5q-56 0 -107 30z" />
    <glyph glyph-name="acute" unicode="&#xb4;" 
d="M291 654h95l-113 -130h-49z" />
    <glyph glyph-name="uni00B5" unicode="&#xb5;" horiz-adv-x="513" 
d="M101 439l162 20l-96 -283q-15 -48 -15 -79q0 -19 10 -33t30 -14q29 0 70.5 41t68.5 85q44 70 75 175l30 105l79 3l-101 -340q-10 -34 -10 -52q0 -14 13 -14q16 0 56 26l-14 -60q-57 -31 -88 -31q-22 0 -34 12t-12 31q0 30 17 83l-2 2q-88 -128 -169 -128q-43 0 -58 31
l-59 -211h-81l161 518q12 38 12 52q0 25 -36 20l-21 -3z" />
    <glyph glyph-name="paragraph" unicode="&#xb6;" horiz-adv-x="594" 
d="M307 -199v510q-97 6 -147.5 62.5t-50.5 136.5q0 60 27.5 110t80.5 73t123 23h309v-80h-70v-835h-83v835h-109v-835h-80z" />
    <glyph glyph-name="periodcentered" unicode="&#xb7;" horiz-adv-x="250" 
d="M180 374q21 0 36 -14.5t15 -36.5q0 -21 -15 -36t-36 -15t-36 15t-15 36q0 22 15 36.5t36 14.5z" />
    <glyph glyph-name="cedilla" unicode="&#xb8;" 
d="M114 9h51l-24 -47q15 -3 23.5 -6t19.5 -17t11 -35q0 -44 -41 -67.5t-106 -23.5q-25 0 -49 4l14 41q10 -2 31 -2q88 0 88 42q0 32 -61 28z" />
    <glyph glyph-name="onesuperior" unicode="&#xb9;" 
d="M209 611l9 29q62 11 99 50h38l-101 -310q-3 -9 -3 -12q0 -6 18 -6h36l-10 -29h-170l9 29h32q19 0 24 13q0 1 1.5 5t2.5 5v3l1 2l71 213q5 13 -8 13q-9 0 -49 -5z" />
    <glyph glyph-name="ordmasculine" unicode="&#xba;" horiz-adv-x="323" 
d="M117 509q0 40 16 79.5t56 70.5t96 31q55 0 87.5 -29.5t32.5 -72.5q0 -22 -7.5 -50t-24.5 -61.5t-52.5 -56t-84.5 -22.5q-29 0 -51.5 8.5t-34.5 21t-20 28.5t-10.5 28.5t-2.5 24.5zM180 506q0 -28 14.5 -48.5t44.5 -20.5q35 0 59.5 29.5t33.5 62t9 59.5q0 28 -16 46
t-43 18q-44 0 -73 -45.5t-29 -100.5z" />
    <glyph glyph-name="guillemotright" unicode="&#xbb;" horiz-adv-x="438" 
d="M268 42h-69l146 183l-58 185h64l70 -194zM87 42h-69l146 183l-58 185h64l70 -194z" />
    <glyph glyph-name="onequarter" unicode="&#xbc;" horiz-adv-x="854" 
d="M219 611l10 29q61 8 99 50h38l-102 -310q-3 -9 -3 -12q0 -6 19 -6h36l-10 -29h-170l9 29h32q14 0 18.5 4.5t10.5 23.5l69 206q4 12 4 14q0 6 -10 6h-5q-6 -1 -18.5 -2.5t-26.5 -2.5zM702 690h64l-494 -709h-64zM537 127l239 229h57l-76 -231h44l-11 -38h-45l-13 -40
q-3 -8 -3 -11q0 -7 17 -7h20l-9 -29h-141l9 29h29q10 0 13.5 3t8.5 18l12 37h-163zM751 277l-157 -152h106z" />
    <glyph glyph-name="onehalf" unicode="&#xbd;" horiz-adv-x="854" 
d="M219 611l10 29q61 8 99 50h38l-102 -310q-3 -9 -3 -12q0 -6 19 -6h36l-10 -29h-170l9 29h32q14 0 18.5 4.5t10.5 23.5l69 206q4 12 4 14q0 6 -10 6h-5q-6 -1 -18.5 -2.5t-26.5 -2.5zM702 690h64l-494 -709h-64zM737 85h53l-28 -85h-244l11 35q240 169 240 243
q0 42 -46 42t-61 -57h-53l20 61q53 31 105 31q46 0 74 -21t28 -50q0 -39 -40 -88q-38 -49 -179 -150h80q22 0 25 3q4 5 15 36z" />
    <glyph glyph-name="threequarters" unicode="&#xbe;" horiz-adv-x="854" 
d="M702 690h64l-494 -709h-64zM537 127l239 229h57l-76 -231h44l-11 -38h-45l-13 -40q-3 -8 -3 -11q0 -7 17 -7h20l-9 -29h-141l9 29h29q10 0 13.5 3t8.5 18l12 37h-163zM751 277l-157 -152h106zM110 355l25 74h52l-9 -28q-2 -10 -2 -13q0 -27 41 -27q36 0 61 25t25 61
q0 31 -17.5 42t-64.5 11l11 37q47 0 80.5 22.5t33.5 56.5q0 39 -42 39q-44 0 -58 -53h-51l20 65q52 23 97 23q47 0 72.5 -19.5t25.5 -50.5q0 -65 -92 -100q52 -19 52 -67t-40 -88q-40 -39 -112 -39q-58 0 -108 29z" />
    <glyph glyph-name="questiondown" unicode="&#xbf;" horiz-adv-x="406" 
d="M316 -88l-34 -122q-78 -39 -152 -39q-69 0 -109 37t-40 92q0 32 8.5 58.5t29.5 53.5t37.5 43.5t51.5 48.5q67 62 95 105.5t47 105.5h59q-25 -92 -61 -143.5t-136 -151.5q-51 -51 -51 -112q0 -35 23 -58t63 -23q86 0 108 105h61zM297 368q-21 0 -36 14.5t-15 36.5
q0 21 15 36t36 15t36 -15t15 -36q0 -22 -15 -36.5t-36 -14.5z" />
    <glyph glyph-name="Agrave" unicode="&#xc0;" horiz-adv-x="646" 
d="M429 679h78l29 -584q2 -30 12 -39t34 -9h28l-14 -47h-220l14 47h19q34 0 43 11t7 44l-6 112h-237l-64 -105q-19 -32 -19 -41q0 -21 35 -21h33l-13 -47h-222l13 47q40 0 57 8.5t41 46.5zM434 572l-183 -301h199l-14 301h-2zM384 859h85l47 -130h-47z" />
    <glyph glyph-name="Aacute" unicode="&#xc1;" horiz-adv-x="646" 
d="M429 679h78l29 -584q2 -30 12 -39t34 -9h28l-14 -47h-220l14 47h19q34 0 43 11t7 44l-6 112h-237l-64 -105q-19 -32 -19 -41q0 -21 35 -21h33l-13 -47h-222l13 47q40 0 57 8.5t41 46.5zM434 572l-183 -301h199l-14 301h-2zM513 859h95l-113 -130h-49z" />
    <glyph glyph-name="Acircumflex" unicode="&#xc2;" horiz-adv-x="646" 
d="M429 679h78l29 -584q2 -30 12 -39t34 -9h28l-14 -47h-220l14 47h19q34 0 43 11t7 44l-6 112h-237l-64 -105q-19 -32 -19 -41q0 -21 35 -21h33l-13 -47h-222l13 47q40 0 57 8.5t41 46.5zM434 572l-183 -301h199l-14 301h-2zM482 860h73l51 -131h-57l-40 84l-88 -84h-65z
" />
    <glyph glyph-name="Atilde" unicode="&#xc3;" horiz-adv-x="646" 
d="M429 679h78l29 -584q2 -30 12 -39t34 -9h28l-14 -47h-220l14 47h19q34 0 43 11t7 44l-6 112h-237l-64 -105q-19 -32 -19 -41q0 -21 35 -21h33l-13 -47h-222l13 47q40 0 57 8.5t41 46.5zM434 572l-183 -301h199l-14 301h-2zM590 823h48q-3 -49 -32 -71.5t-63 -22.5
q-29 0 -58 18q-42 25 -55 25q-28 0 -39 -43h-52q7 48 35.5 72t62.5 24q24 0 55 -20q38 -24 56 -24q31 0 42 42z" />
    <glyph glyph-name="Adieresis" unicode="&#xc4;" horiz-adv-x="646" 
d="M429 679h78l29 -584q2 -30 12 -39t34 -9h28l-14 -47h-220l14 47h19q34 0 43 11t7 44l-6 112h-237l-64 -105q-19 -32 -19 -41q0 -21 35 -21h33l-13 -47h-222l13 47q40 0 57 8.5t41 46.5zM434 572l-183 -301h199l-14 301h-2zM389 818q18 0 31 -13t13 -32t-13 -31.5
t-31 -12.5t-31 13t-13 31q0 19 13 32t31 13zM577 818q18 0 31 -13t13 -32t-13 -31.5t-31 -12.5t-31 13t-13 31q0 19 13 32t31 13z" />
    <glyph glyph-name="Aring" unicode="&#xc5;" horiz-adv-x="646" 
d="M429 679h78l29 -584q2 -30 12 -39t34 -9h28l-14 -47h-220l14 47h19q34 0 43 11t7 44l-6 112h-237l-64 -105q-19 -32 -19 -41q0 -21 35 -21h33l-13 -47h-222l13 47q40 0 57 8.5t41 46.5zM434 572l-183 -301h199l-14 301h-2zM495 909q37 0 63.5 -26t26.5 -64
q0 -37 -26.5 -63.5t-63.5 -26.5t-63.5 26.5t-26.5 63.5q0 38 26.5 64t63.5 26zM494 873q-22 0 -38 -16t-16 -38t16 -38t38 -16q23 0 39 16t16 38t-16 38t-39 16z" />
    <glyph glyph-name="AE" unicode="&#xc6;" horiz-adv-x="906" 
d="M424 672h543l-41 -147h-61l12 40q0 1 2.5 12t2.5 17q0 18 -38 18h-204l-67 -237h140q32 0 43.5 7t20.5 37l6 17h54l-54 -189h-55l8 28q4 19 4 21q0 13 -9 17t-30 4h-145l-75 -261h213q27 0 40.5 5.5t17.5 12.5t10 25l13 46h63l-43 -145h-477l13 47h27q22 0 31.5 6.5
t15.5 20.5q7 22 8 25l35 120h-216l-98 -120q-20 -24 -20 -36q0 -16 36 -16h25l-14 -47h-211l14 47q18 0 28 1.5t23.5 9t26.5 22.5l402 496q19 22 19 32q0 18 -33 18h-20zM561 626l-283 -351h186l99 349z" />
    <glyph glyph-name="Ccedilla" unicode="&#xc7;" horiz-adv-x="642" 
d="M333 -17l-10 -21q10 -2 16.5 -4.5t16.5 -8t15 -17t5 -28.5q0 -44 -41 -67.5t-105 -23.5q-24 0 -50 4l14 41q11 -2 31 -2q88 0 88 42q0 32 -61 28l33 63q-42 10 -75.5 29.5t-53.5 45t-33 51.5t-19 55t-8 48t-2 38q0 67 23 139.5t67 140t120.5 111t172.5 43.5
q120 0 210 -61l-41 -162h-70l13 57q6 27 6 40q0 21 -15.5 35.5t-39 20.5t-39 8t-27.5 2q-87 0 -155 -57.5t-102 -142t-34 -175.5q0 -100 53 -151.5t130 -51.5q101 0 206 64l-23 -84q-106 -58 -216 -49z" />
    <glyph glyph-name="Egrave" unicode="&#xc8;" horiz-adv-x="594" 
d="M184 672h473l-41 -146h-61l13 45q4 15 4 21q0 10 -6 15t-13 5.5t-21 0.5h-203l-68 -237h143q31 0 41.5 7t18.5 34l7 20h55l-55 -189h-53l7 26q4 15 4 22q0 10 -7 15t-14 5.5t-21 0.5h-143l-74 -260h207q38 0 51 6.5t20 30.5l16 52h63l-42 -146h-482l13 47h28q23 0 34 8.5
t19 38.5l134 472q7 28 7 38q0 21 -38 21h-30zM358 859h85l47 -130h-47z" />
    <glyph glyph-name="Eacute" unicode="&#xc9;" horiz-adv-x="594" 
d="M184 672h473l-41 -146h-61l13 45q4 15 4 21q0 10 -6 15t-13 5.5t-21 0.5h-203l-68 -237h143q31 0 41.5 7t18.5 34l7 20h55l-55 -189h-53l7 26q4 15 4 22q0 10 -7 15t-14 5.5t-21 0.5h-143l-74 -260h207q38 0 51 6.5t20 30.5l16 52h63l-42 -146h-482l13 47h28q23 0 34 8.5
t19 38.5l134 472q7 28 7 38q0 21 -38 21h-30zM487 859h95l-113 -130h-49z" />
    <glyph glyph-name="Ecircumflex" unicode="&#xca;" horiz-adv-x="594" 
d="M184 672h473l-41 -146h-61l13 45q4 15 4 21q0 10 -6 15t-13 5.5t-21 0.5h-203l-68 -237h143q31 0 41.5 7t18.5 34l7 20h55l-55 -189h-53l7 26q4 15 4 22q0 10 -7 15t-14 5.5t-21 0.5h-143l-74 -260h207q38 0 51 6.5t20 30.5l16 52h63l-42 -146h-482l13 47h28q23 0 34 8.5
t19 38.5l134 472q7 28 7 38q0 21 -38 21h-30zM456 860h73l51 -131h-57l-40 84l-88 -84h-65z" />
    <glyph glyph-name="Edieresis" unicode="&#xcb;" horiz-adv-x="594" 
d="M184 672h473l-41 -146h-61l13 45q4 15 4 21q0 10 -6 15t-13 5.5t-21 0.5h-203l-68 -237h143q31 0 41.5 7t18.5 34l7 20h55l-55 -189h-53l7 26q4 15 4 22q0 10 -7 15t-14 5.5t-21 0.5h-143l-74 -260h207q38 0 51 6.5t20 30.5l16 52h63l-42 -146h-482l13 47h28q23 0 34 8.5
t19 38.5l134 472q7 28 7 38q0 21 -38 21h-30zM363 818q18 0 31 -13t13 -32t-13 -31.5t-31 -12.5t-31 13t-13 31q0 19 13 32t31 13zM551 818q18 0 31 -13t13 -32t-13 -31.5t-31 -12.5t-31 13t-13 31q0 19 13 32t31 13z" />
    <glyph glyph-name="Igrave" unicode="&#xcc;" 
d="M193 672h225l-13 -47h-19q-26 0 -38 -8t-20 -38l-135 -483q-6 -24 -6 -27q0 -22 34 -22h30l-13 -47h-226l13 47h29q24 0 33 8t17 35l138 483q5 19 5 31q0 21 -36 21h-31zM262 859h85l47 -130h-47z" />
    <glyph glyph-name="Iacute" unicode="&#xcd;" 
d="M193 672h225l-13 -47h-19q-26 0 -38 -8t-20 -38l-135 -483q-6 -24 -6 -27q0 -22 34 -22h30l-13 -47h-226l13 47h29q24 0 33 8t17 35l138 483q5 19 5 31q0 21 -36 21h-31zM356 859h95l-113 -130h-49z" />
    <glyph glyph-name="Icircumflex" unicode="&#xce;" 
d="M193 672h225l-13 -47h-19q-26 0 -38 -8t-20 -38l-135 -483q-6 -24 -6 -27q0 -22 34 -22h30l-13 -47h-226l13 47h29q24 0 33 8t17 35l138 483q5 19 5 31q0 21 -36 21h-31zM325 860h73l51 -131h-57l-40 84l-88 -84h-65z" />
    <glyph glyph-name="Idieresis" unicode="&#xcf;" 
d="M193 672h225l-13 -47h-19q-26 0 -38 -8t-20 -38l-135 -483q-6 -24 -6 -27q0 -22 34 -22h30l-13 -47h-226l13 47h29q24 0 33 8t17 35l138 483q5 19 5 31q0 21 -36 21h-31zM232 818q18 0 31 -13t13 -32t-13 -31.5t-31 -12.5t-31 13t-13 31q0 19 13 32t31 13zM420 818
q18 0 31 -13t13 -32t-13 -31.5t-31 -12.5t-31 13t-13 31q0 19 13 32t31 13z" />
    <glyph glyph-name="Eth" unicode="&#xd0;" horiz-adv-x="688" 
d="M156 304h-69l17 61h69l61 211v2q1 3 1 5q4 12 4 19q0 11 -8.5 16t-16.5 6t-23 1h-21l14 47h245q97 0 155 -34q110 -66 110 -226q0 -33 -5.5 -69.5t-20 -85t-47.5 -97.5t-80 -87q-26 -21 -51 -34.5t-78 -26t-122 -12.5h-287l14 47h15q21 0 30 1.5t18.5 11t15.5 30.5z
M408 304h-167l-71 -248h92q142 0 214 58q65 51 98 135t33 166q0 40 -9 72t-22 52.5t-35 35t-39.5 21.5t-44.5 10.5t-41 4t-37 0.5h-50l-71 -246h167z" />
    <glyph glyph-name="Ntilde" unicode="&#xd1;" horiz-adv-x="698" 
d="M188 672h197l128 -550h2l129 454q5 17 5 28q0 21 -30 21h-38l14 47h207l-13 -47h-21q-29 0 -39 -10t-17 -35l-169 -590h-82l-146 620h-2l-144 -513q-6 -23 -6 -28q0 -22 33 -22h34l-13 -47h-211l13 47h28q24 0 33.5 6.5t17.5 35.5l138 487q5 20 5 28q0 21 -32 21h-35z
M616 823h48q-3 -49 -32 -71.5t-63 -22.5q-29 0 -58 18q-42 25 -55 25q-28 0 -39 -43h-52q7 48 35.5 72t62.5 24q24 0 55 -20q38 -24 56 -24q31 0 42 42z" />
    <glyph glyph-name="Ograve" unicode="&#xd2;" horiz-adv-x="708" 
d="M91 249q0 58 15 118.5t46 118t74 103t104.5 73.5t132.5 28q122 0 190 -73.5t68 -182.5q0 -56 -13.5 -116t-43.5 -120.5t-72 -108t-105 -77.5t-137 -30q-71 0 -124 26.5t-81 68.5t-41 85.5t-13 86.5zM176 244q0 -83 48 -141.5t133 -58.5q62 0 112 31.5t80 78t50.5 103
t28 103t7.5 81.5q0 74 -43.5 131.5t-134.5 57.5q-71 0 -127.5 -40t-88.5 -101.5t-48.5 -125t-16.5 -119.5zM450 859h85l47 -130h-47z" />
    <glyph glyph-name="Oacute" unicode="&#xd3;" horiz-adv-x="708" 
d="M91 249q0 58 15 118.5t46 118t74 103t104.5 73.5t132.5 28q122 0 190 -73.5t68 -182.5q0 -56 -13.5 -116t-43.5 -120.5t-72 -108t-105 -77.5t-137 -30q-71 0 -124 26.5t-81 68.5t-41 85.5t-13 86.5zM176 244q0 -83 48 -141.5t133 -58.5q62 0 112 31.5t80 78t50.5 103
t28 103t7.5 81.5q0 74 -43.5 131.5t-134.5 57.5q-71 0 -127.5 -40t-88.5 -101.5t-48.5 -125t-16.5 -119.5zM544 859h95l-113 -130h-49z" />
    <glyph glyph-name="Ocircumflex" unicode="&#xd4;" horiz-adv-x="708" 
d="M91 249q0 58 15 118.5t46 118t74 103t104.5 73.5t132.5 28q122 0 190 -73.5t68 -182.5q0 -56 -13.5 -116t-43.5 -120.5t-72 -108t-105 -77.5t-137 -30q-71 0 -124 26.5t-81 68.5t-41 85.5t-13 86.5zM176 244q0 -83 48 -141.5t133 -58.5q62 0 112 31.5t80 78t50.5 103
t28 103t7.5 81.5q0 74 -43.5 131.5t-134.5 57.5q-71 0 -127.5 -40t-88.5 -101.5t-48.5 -125t-16.5 -119.5zM514 860h73l51 -131h-57l-40 84l-88 -84h-65z" />
    <glyph glyph-name="Otilde" unicode="&#xd5;" horiz-adv-x="708" 
d="M91 249q0 58 15 118.5t46 118t74 103t104.5 73.5t132.5 28q122 0 190 -73.5t68 -182.5q0 -56 -13.5 -116t-43.5 -120.5t-72 -108t-105 -77.5t-137 -30q-71 0 -124 26.5t-81 68.5t-41 85.5t-13 86.5zM176 244q0 -83 48 -141.5t133 -58.5q62 0 112 31.5t80 78t50.5 103
t28 103t7.5 81.5q0 74 -43.5 131.5t-134.5 57.5q-71 0 -127.5 -40t-88.5 -101.5t-48.5 -125t-16.5 -119.5zM621 823h48q-3 -49 -32 -71.5t-63 -22.5q-29 0 -58 18q-42 25 -55 25q-28 0 -39 -43h-52q7 48 35.5 72t62.5 24q24 0 55 -20q38 -24 56 -24q31 0 42 42z" />
    <glyph glyph-name="Odieresis" unicode="&#xd6;" horiz-adv-x="708" 
d="M91 249q0 58 15 118.5t46 118t74 103t104.5 73.5t132.5 28q122 0 190 -73.5t68 -182.5q0 -56 -13.5 -116t-43.5 -120.5t-72 -108t-105 -77.5t-137 -30q-71 0 -124 26.5t-81 68.5t-41 85.5t-13 86.5zM176 244q0 -83 48 -141.5t133 -58.5q62 0 112 31.5t80 78t50.5 103
t28 103t7.5 81.5q0 74 -43.5 131.5t-134.5 57.5q-71 0 -127.5 -40t-88.5 -101.5t-48.5 -125t-16.5 -119.5zM420 818q18 0 31 -13t13 -32t-13 -31.5t-31 -12.5t-31 13t-13 31q0 19 13 32t31 13zM608 818q18 0 31 -13t13 -32t-13 -31.5t-31 -12.5t-31 13t-13 31q0 19 13 32
t31 13z" />
    <glyph glyph-name="multiply" unicode="&#xd7;" horiz-adv-x="667" 
d="M138 519l54 54l194 -194l195 194l54 -54l-194 -194l192 -193l-54 -54l-192 193l-194 -193l-54 54l193 193z" />
    <glyph glyph-name="Oslash" unicode="&#xd8;" horiz-adv-x="708" 
d="M159 59l-84 -80l-40 43l90 86q-34 61 -34 146q0 68 23.5 141.5t67.5 140.5t118 110.5t163 43.5q124 0 192 -75l77 73l40 -44l-82 -78q31 -58 31 -132q0 -56 -13.5 -116t-43.5 -120.5t-72 -108t-105 -77.5t-137 -30q-117 0 -191 77zM626 505l-410 -392q49 -69 141 -69
q61 0 111.5 31.5t80 78t50 103t28.5 103t8 81.5q0 28 -9 64zM188 168l412 394q-48 68 -143 68q-59 0 -108.5 -28.5t-80.5 -71.5t-52.5 -96t-30.5 -99.5t-9 -83.5q0 -41 12 -83z" />
    <glyph glyph-name="Ugrave" unicode="&#xd9;" horiz-adv-x="698" 
d="M176 672h228l-14 -47h-26q-24 0 -34 -9t-19 -41l-95 -333q-16 -55 -16 -98q0 -49 38.5 -76.5t100.5 -27.5q70 0 118 34t76 133q0 5 3 11l103 365q4 10 4 19q0 11 -6.5 16t-13 6t-19.5 1h-29l13 47h215l-14 -47h-24q-25 0 -35 -10.5t-18 -39.5l-105 -364q-3 -10 -3 -12
q-16 -59 -42 -101t-52 -64t-60 -34.5t-57 -15t-53 -2.5q-112 0 -167 43q-59 47 -59 117q0 45 18 106l92 327q6 15 6 32q0 18 -38 18h-29zM410 859h85l47 -130h-47z" />
    <glyph glyph-name="Uacute" unicode="&#xda;" horiz-adv-x="698" 
d="M176 672h228l-14 -47h-26q-24 0 -34 -9t-19 -41l-95 -333q-16 -55 -16 -98q0 -49 38.5 -76.5t100.5 -27.5q70 0 118 34t76 133q0 5 3 11l103 365q4 10 4 19q0 11 -6.5 16t-13 6t-19.5 1h-29l13 47h215l-14 -47h-24q-25 0 -35 -10.5t-18 -39.5l-105 -364q-3 -10 -3 -12
q-16 -59 -42 -101t-52 -64t-60 -34.5t-57 -15t-53 -2.5q-112 0 -167 43q-59 47 -59 117q0 45 18 106l92 327q6 15 6 32q0 18 -38 18h-29zM539 859h95l-113 -130h-49z" />
    <glyph glyph-name="Ucircumflex" unicode="&#xdb;" horiz-adv-x="698" 
d="M176 672h228l-14 -47h-26q-24 0 -34 -9t-19 -41l-95 -333q-16 -55 -16 -98q0 -49 38.5 -76.5t100.5 -27.5q70 0 118 34t76 133q0 5 3 11l103 365q4 10 4 19q0 11 -6.5 16t-13 6t-19.5 1h-29l13 47h215l-14 -47h-24q-25 0 -35 -10.5t-18 -39.5l-105 -364q-3 -10 -3 -12
q-16 -59 -42 -101t-52 -64t-60 -34.5t-57 -15t-53 -2.5q-112 0 -167 43q-59 47 -59 117q0 45 18 106l92 327q6 15 6 32q0 18 -38 18h-29zM508 860h73l51 -131h-57l-40 84l-88 -84h-65z" />
    <glyph glyph-name="Udieresis" unicode="&#xdc;" horiz-adv-x="698" 
d="M176 672h228l-14 -47h-26q-24 0 -34 -9t-19 -41l-95 -333q-16 -55 -16 -98q0 -49 38.5 -76.5t100.5 -27.5q70 0 118 34t76 133q0 5 3 11l103 365q4 10 4 19q0 11 -6.5 16t-13 6t-19.5 1h-29l13 47h215l-14 -47h-24q-25 0 -35 -10.5t-18 -39.5l-105 -364q-3 -10 -3 -12
q-16 -59 -42 -101t-52 -64t-60 -34.5t-57 -15t-53 -2.5q-112 0 -167 43q-59 47 -59 117q0 45 18 106l92 327q6 15 6 32q0 18 -38 18h-29zM415 818q18 0 31 -13t13 -32t-13 -31.5t-31 -12.5t-31 13t-13 31q0 19 13 32t31 13zM603 818q18 0 31 -13t13 -32t-13 -31.5t-31 -12.5
t-31 13t-13 31q0 19 13 32t31 13z" />
    <glyph glyph-name="Yacute" unicode="&#xdd;" horiz-adv-x="625" 
d="M147 672h226l-15 -47h-30q-33 0 -33 -26q0 -7 5 -27l58 -232l200 228q23 26 23 37q0 20 -32 20h-21l13 47h215l-13 -47q-52 1 -91 -43l-271 -311l-53 -183q-5 -18 -5 -21q0 -20 41 -20h31l-14 -47h-234l14 47h29q25 0 35 8t17 33l50 174l-74 294q-10 42 -23.5 55.5
t-41.5 13.5h-19zM502 859h95l-113 -130h-49z" />
    <glyph glyph-name="Thorn" unicode="&#xde;" horiz-adv-x="563" 
d="M185 672h222l-14 -47h-26q-27 0 -35.5 -9.5t-17.5 -41.5l-15 -55h68q201 0 201 -153q0 -80 -47 -137.5t-107 -68.5q-55 -11 -107 -11h-113l-17 -54q-6 -24 -6 -27q0 -21 38 -21h39l-12 -47h-232l13 47h25q29 0 38 9t18 39l135 475q0 2 2 6q5 19 5 27q0 22 -38 22h-31z
M282 464l-73 -259h66q80 0 115 10q48 15 72 57.5t24 86.5q0 30 -11 51t-24 31.5t-35 16t-33.5 6t-29.5 0.5h-71z" />
    <glyph glyph-name="germandbls" unicode="&#xdf;" horiz-adv-x="490" 
d="M-155 -202l16 84h46q-2 -8 -2 -27q0 -13 8.5 -18.5t16.5 -5.5q32 0 55 37.5t44 120.5l110 453q10 43 18.5 69.5t28 67.5t43 65t63.5 42t91 18q47 0 78.5 -15.5t44.5 -40.5t17 -43t4 -36q0 -41 -14.5 -74t-41.5 -55.5t-44 -32.5t-43 -23q83 -28 83 -123q0 -62 -26 -124
t-80 -107t-122 -45q-40 0 -82 18l22 85h46q-3 -12 -3 -23q0 -30 33 -30q55 0 93 72t38 155q0 29 -10 49.5t-21.5 30t-31.5 14.5t-28 5.5t-24 0.5l15 53q48 3 83 20t52 42t24.5 48t7.5 45q0 38 -23 60t-60 22q-60 0 -94 -49.5t-59 -149.5l-106 -442q-57 -230 -197 -230
q-29 0 -69 17z" />
    <glyph glyph-name="agrave" unicode="&#xe0;" horiz-adv-x="521" 
d="M432 456l83 11l-101 -357q-9 -32 -9 -42q0 -16 14 -16q12 0 59 28l-14 -59q-48 -33 -90 -33q-24 0 -36 15t-12 34t7 38l-2 2q-77 -89 -159 -89q-55 0 -89 40t-34 109q0 74 35 150t97.5 128t132.5 52q72 0 108 -52zM133 143q0 -37 18.5 -64t50.5 -27q48 0 95 46
t74.5 110.5t27.5 119.5q0 34 -22 60t-57 26q-72 0 -129.5 -87t-57.5 -184zM256 654h85l47 -130h-47z" />
    <glyph glyph-name="aacute" unicode="&#xe1;" horiz-adv-x="521" 
d="M432 456l83 11l-101 -357q-9 -32 -9 -42q0 -16 14 -16q12 0 59 28l-14 -59q-48 -33 -90 -33q-24 0 -36 15t-12 34t7 38l-2 2q-77 -89 -159 -89q-55 0 -89 40t-34 109q0 74 35 150t97.5 128t132.5 52q72 0 108 -52zM133 143q0 -37 18.5 -64t50.5 -27q48 0 95 46
t74.5 110.5t27.5 119.5q0 34 -22 60t-57 26q-72 0 -129.5 -87t-57.5 -184zM385 654h95l-113 -130h-49z" />
    <glyph glyph-name="acircumflex" unicode="&#xe2;" horiz-adv-x="521" 
d="M432 456l83 11l-101 -357q-9 -32 -9 -42q0 -16 14 -16q12 0 59 28l-14 -59q-48 -33 -90 -33q-24 0 -36 15t-12 34t7 38l-2 2q-77 -89 -159 -89q-55 0 -89 40t-34 109q0 74 35 150t97.5 128t132.5 52q72 0 108 -52zM133 143q0 -37 18.5 -64t50.5 -27q48 0 95 46
t74.5 110.5t27.5 119.5q0 34 -22 60t-57 26q-72 0 -129.5 -87t-57.5 -184zM354 655h73l51 -131h-57l-40 84l-88 -84h-65z" />
    <glyph glyph-name="atilde" unicode="&#xe3;" horiz-adv-x="521" 
d="M432 456l83 11l-101 -357q-9 -32 -9 -42q0 -16 14 -16q12 0 59 28l-14 -59q-48 -33 -90 -33q-24 0 -36 15t-12 34t7 38l-2 2q-77 -89 -159 -89q-55 0 -89 40t-34 109q0 74 35 150t97.5 128t132.5 52q72 0 108 -52zM133 143q0 -37 18.5 -64t50.5 -27q48 0 95 46
t74.5 110.5t27.5 119.5q0 34 -22 60t-57 26q-72 0 -129.5 -87t-57.5 -184zM462 618h48q-3 -49 -32 -71.5t-63 -22.5q-29 0 -58 18q-42 25 -55 25q-28 0 -39 -43h-52q7 48 35.5 72t62.5 24q24 0 55 -20q38 -24 56 -24q31 0 42 42z" />
    <glyph glyph-name="adieresis" unicode="&#xe4;" horiz-adv-x="521" 
d="M432 456l83 11l-101 -357q-9 -32 -9 -42q0 -16 14 -16q12 0 59 28l-14 -59q-48 -33 -90 -33q-24 0 -36 15t-12 34t7 38l-2 2q-77 -89 -159 -89q-55 0 -89 40t-34 109q0 74 35 150t97.5 128t132.5 52q72 0 108 -52zM133 143q0 -37 18.5 -64t50.5 -27q48 0 95 46
t74.5 110.5t27.5 119.5q0 34 -22 60t-57 26q-72 0 -129.5 -87t-57.5 -184zM261 613q18 0 31 -13t13 -32t-13 -31.5t-31 -12.5t-31 13t-13 31q0 19 13 32t31 13zM449 613q18 0 31 -13t13 -32t-13 -31.5t-31 -12.5t-31 13t-13 31q0 19 13 32t31 13z" />
    <glyph glyph-name="aring" unicode="&#xe5;" horiz-adv-x="521" 
d="M432 456l83 11l-101 -357q-9 -32 -9 -42q0 -16 14 -16q12 0 59 28l-14 -59q-48 -33 -90 -33q-24 0 -36 15t-12 34t7 38l-2 2q-77 -89 -159 -89q-55 0 -89 40t-34 109q0 74 35 150t97.5 128t132.5 52q72 0 108 -52zM133 143q0 -37 18.5 -64t50.5 -27q48 0 95 46
t74.5 110.5t27.5 119.5q0 34 -22 60t-57 26q-72 0 -129.5 -87t-57.5 -184zM367 704q37 0 63.5 -26t26.5 -64q0 -37 -26.5 -63.5t-63.5 -26.5t-63.5 26.5t-26.5 63.5q0 38 26.5 64t63.5 26zM366 668q-22 0 -38 -16t-16 -38t16 -38t38 -16q23 0 39 16t16 38t-16 38t-39 16z
" />
    <glyph glyph-name="ae" unicode="&#xe6;" horiz-adv-x="729" 
d="M432 456l76 11l-17 -65l2 -2q60 67 146 67q35 0 59 -11t33.5 -28t12.5 -29t3 -22q0 -71 -68 -124t-198 -53q-15 0 -37 2q-6 -26 -6 -46q0 -49 27 -75t62 -26q23 0 46.5 8.5t39.5 17.5t60 36l-16 -72q-76 -57 -152 -57q-54 0 -91 29t-49 87q-87 -116 -187 -116
q-37 0 -63.5 15t-38.5 33t-19 43t-8 36t-1 20q0 75 35 151t99 128.5t136 52.5q31 0 54.5 -11t31 -19t18.5 -23zM132 145q0 -37 19 -65t50 -28q74 0 135.5 93.5t61.5 180.5q0 40 -22.5 63.5t-53.5 23.5q-52 0 -97 -44.5t-69 -106t-24 -117.5zM454 254q10 -2 41 -2
q90 0 132.5 38t42.5 80q0 19 -12.5 32.5t-32.5 13.5q-42 0 -90.5 -40t-80.5 -122z" />
    <glyph glyph-name="ccedilla" unicode="&#xe7;" horiz-adv-x="432" 
d="M207 -15l-11 -23q10 -2 16.5 -4.5t16.5 -8t15 -17t5 -28.5q0 -44 -41 -67.5t-105 -23.5q-26 0 -50 4l14 41q11 -2 31 -2q88 0 88 42q0 32 -61 28l34 66q-48 14 -76 57t-28 108q0 40 11.5 83t35 84t55.5 73.5t78 52.5t99 20q56 0 118 -31l-29 -116h-58l1 10q5 23 5 41
q0 17 -12.5 29.5t-40.5 12.5q-75 0 -128.5 -84t-53.5 -171q0 -52 29.5 -81.5t70.5 -29.5q49 0 117 44q1 1 4.5 3t7.5 4.5t5 3.5l-16 -73q-73 -47 -147 -47z" />
    <glyph glyph-name="egrave" unicode="&#xe8;" horiz-adv-x="417" 
d="M360 113l-17 -74q-78 -54 -150 -54q-71 0 -109 45.5t-38 110.5q0 122 85.5 225.5t198.5 103.5q29 0 50 -9t31.5 -20.5t16.5 -26.5t7 -23t1 -14q0 -77 -78 -127t-178 -50q-20 0 -48 2q-6 -24 -6 -50q0 -53 26 -77t59 -24q25 0 49.5 8t40.5 17t49 30zM142 253
q66 -5 113.5 8t67.5 36t28 41t8 33q0 21 -13 33.5t-34 12.5q-12 0 -28 -5.5t-41.5 -20t-52.5 -50.5t-48 -88zM204 654h85l47 -130h-47z" />
    <glyph glyph-name="eacute" unicode="&#xe9;" horiz-adv-x="417" 
d="M360 113l-17 -74q-78 -54 -150 -54q-71 0 -109 45.5t-38 110.5q0 122 85.5 225.5t198.5 103.5q29 0 50 -9t31.5 -20.5t16.5 -26.5t7 -23t1 -14q0 -77 -78 -127t-178 -50q-20 0 -48 2q-6 -24 -6 -50q0 -53 26 -77t59 -24q25 0 49.5 8t40.5 17t49 30zM142 253
q66 -5 113.5 8t67.5 36t28 41t8 33q0 21 -13 33.5t-34 12.5q-12 0 -28 -5.5t-41.5 -20t-52.5 -50.5t-48 -88zM333 654h95l-113 -130h-49z" />
    <glyph glyph-name="ecircumflex" unicode="&#xea;" horiz-adv-x="417" 
d="M360 113l-17 -74q-78 -54 -150 -54q-71 0 -109 45.5t-38 110.5q0 122 85.5 225.5t198.5 103.5q29 0 50 -9t31.5 -20.5t16.5 -26.5t7 -23t1 -14q0 -77 -78 -127t-178 -50q-20 0 -48 2q-6 -24 -6 -50q0 -53 26 -77t59 -24q25 0 49.5 8t40.5 17t49 30zM142 253
q66 -5 113.5 8t67.5 36t28 41t8 33q0 21 -13 33.5t-34 12.5q-12 0 -28 -5.5t-41.5 -20t-52.5 -50.5t-48 -88zM302 655h73l51 -131h-57l-40 84l-88 -84h-65z" />
    <glyph glyph-name="edieresis" unicode="&#xeb;" horiz-adv-x="417" 
d="M360 113l-17 -74q-78 -54 -150 -54q-71 0 -109 45.5t-38 110.5q0 122 85.5 225.5t198.5 103.5q29 0 50 -9t31.5 -20.5t16.5 -26.5t7 -23t1 -14q0 -77 -78 -127t-178 -50q-20 0 -48 2q-6 -24 -6 -50q0 -53 26 -77t59 -24q25 0 49.5 8t40.5 17t49 30zM142 253
q66 -5 113.5 8t67.5 36t28 41t8 33q0 21 -13 33.5t-34 12.5q-12 0 -28 -5.5t-41.5 -20t-52.5 -50.5t-48 -88zM209 613q18 0 31 -13t13 -32t-13 -31.5t-31 -12.5t-31 13t-13 31q0 19 13 32t31 13zM397 613q18 0 31 -13t13 -32t-13 -31.5t-31 -12.5t-31 13t-13 31q0 19 13 32
t31 13z" />
    <glyph glyph-name="igrave" unicode="&#xec;" horiz-adv-x="250" 
d="M97 444l151 23l-106 -377q-5 -17 -5 -24q0 -9 6 -13.5t12 -4.5q17 0 54 27l-13 -59q-52 -31 -87 -31q-26 0 -39.5 15t-13.5 33q0 23 7 45l79 279q7 23 7 31q0 17 -16 17l-27 -3l-22 -3zM121 654h85l47 -130h-47z" />
    <glyph glyph-name="iacute" unicode="&#xed;" horiz-adv-x="250" 
d="M97 444l151 23l-106 -377q-5 -17 -5 -24q0 -9 6 -13.5t12 -4.5q17 0 54 27l-13 -59q-52 -31 -87 -31q-26 0 -39.5 15t-13.5 33q0 23 7 45l79 279q7 23 7 31q0 17 -16 17l-27 -3l-22 -3zM250 654h95l-113 -130h-49z" />
    <glyph glyph-name="icircumflex" unicode="&#xee;" horiz-adv-x="250" 
d="M97 444l151 23l-106 -377q-5 -17 -5 -24q0 -9 6 -13.5t12 -4.5q17 0 54 27l-13 -59q-52 -31 -87 -31q-26 0 -39.5 15t-13.5 33q0 23 7 45l79 279q7 23 7 31q0 17 -16 17l-27 -3l-22 -3zM219 655h73l51 -131h-57l-40 84l-88 -84h-65z" />
    <glyph glyph-name="idieresis" unicode="&#xef;" horiz-adv-x="250" 
d="M97 444l151 23l-106 -377q-5 -17 -5 -24q0 -9 6 -13.5t12 -4.5q17 0 54 27l-13 -59q-52 -31 -87 -31q-26 0 -39.5 15t-13.5 33q0 23 7 45l79 279q7 23 7 31q0 17 -16 17l-27 -3l-22 -3zM126 613q18 0 31 -13t13 -32t-13 -31.5t-31 -12.5t-31 13t-13 31q0 19 13 32t31 13z
M314 613q18 0 31 -13t13 -32t-13 -31.5t-31 -12.5t-31 13t-13 31q0 19 13 32t31 13z" />
    <glyph glyph-name="eth" unicode="&#xf0;" horiz-adv-x="500" 
d="M295 669l40 35q28 -25 58 -67l115 63l25 -45l-110 -61q20 -35 31.5 -58.5t26 -80t14.5 -115.5q0 -41 -7 -85t-25.5 -93.5t-46.5 -88t-75.5 -63.5t-106.5 -25q-89 0 -134 53.5t-45 122.5q0 44 14 92t41.5 95t76.5 77t111 30t114 -42q-16 93 -47 150l-107 -59l-24 46
l106 58q-18 28 -45 61zM136 158q0 -50 28 -83t76 -33q43 0 77 26.5t51.5 66t26.5 77.5t9 69q0 10 -0.5 19.5t-6 29.5t-15 34t-30.5 25.5t-49 11.5q-45 0 -80 -26t-52.5 -66t-26 -78.5t-8.5 -72.5z" />
    <glyph glyph-name="ntilde" unicode="&#xf1;" horiz-adv-x="500" 
d="M101 438l138 21q-3 -16 -6 -31t-5 -24l-3 -10l-1 -4q-2 -5 -2 -6l-12 -39l2 -2q89 124 174 124q38 0 62.5 -21t24.5 -61q0 -31 -22 -100l-57 -182q-8 -27 -8 -35q0 -19 16 -19q15 0 54 27l-14 -58q-51 -31 -90 -31q-20 0 -36 13.5t-16 38.5q0 11 3 24l71 232q18 56 18 80
q0 14 -8.5 23.5t-23.5 9.5q-49 0 -112 -86.5t-85 -153.5q-27 -86 -50 -168h-72l99 345q8 29 8 36q0 17 -19 17q-13 0 -42 -5zM452 618h48q-3 -49 -32 -71.5t-63 -22.5q-29 0 -58 18q-42 25 -55 25q-28 0 -39 -43h-52q7 48 35.5 72t62.5 24q24 0 55 -20q38 -24 56 -24
q31 0 42 42z" />
    <glyph glyph-name="ograve" unicode="&#xf2;" horiz-adv-x="500" 
d="M58 165q0 123 70 214t182 91q74 0 126.5 -44t52.5 -128q0 -42 -13 -91.5t-40 -101.5t-78.5 -86t-119.5 -34q-43 0 -76 13t-52 32.5t-31.5 45.5t-16.5 47.5t-4 41.5zM138 162q0 -55 29 -88.5t77 -33.5q41 0 74.5 28.5t52 71.5t28.5 86.5t10 78.5q0 51 -28 81t-72 30
q-52 0 -92 -38.5t-59.5 -95.5t-19.5 -120zM246 654h85l47 -130h-47z" />
    <glyph glyph-name="oacute" unicode="&#xf3;" horiz-adv-x="500" 
d="M58 165q0 123 70 214t182 91q74 0 126.5 -44t52.5 -128q0 -42 -13 -91.5t-40 -101.5t-78.5 -86t-119.5 -34q-43 0 -76 13t-52 32.5t-31.5 45.5t-16.5 47.5t-4 41.5zM138 162q0 -55 29 -88.5t77 -33.5q41 0 74.5 28.5t52 71.5t28.5 86.5t10 78.5q0 51 -28 81t-72 30
q-52 0 -92 -38.5t-59.5 -95.5t-19.5 -120zM375 654h95l-113 -130h-49z" />
    <glyph glyph-name="ocircumflex" unicode="&#xf4;" horiz-adv-x="500" 
d="M58 165q0 123 70 214t182 91q74 0 126.5 -44t52.5 -128q0 -42 -13 -91.5t-40 -101.5t-78.5 -86t-119.5 -34q-43 0 -76 13t-52 32.5t-31.5 45.5t-16.5 47.5t-4 41.5zM138 162q0 -55 29 -88.5t77 -33.5q41 0 74.5 28.5t52 71.5t28.5 86.5t10 78.5q0 51 -28 81t-72 30
q-52 0 -92 -38.5t-59.5 -95.5t-19.5 -120zM344 655h73l51 -131h-57l-40 84l-88 -84h-65z" />
    <glyph glyph-name="otilde" unicode="&#xf5;" horiz-adv-x="500" 
d="M58 165q0 123 70 214t182 91q74 0 126.5 -44t52.5 -128q0 -42 -13 -91.5t-40 -101.5t-78.5 -86t-119.5 -34q-43 0 -76 13t-52 32.5t-31.5 45.5t-16.5 47.5t-4 41.5zM138 162q0 -55 29 -88.5t77 -33.5q41 0 74.5 28.5t52 71.5t28.5 86.5t10 78.5q0 51 -28 81t-72 30
q-52 0 -92 -38.5t-59.5 -95.5t-19.5 -120zM452 618h48q-3 -49 -32 -71.5t-63 -22.5q-29 0 -58 18q-42 25 -55 25q-28 0 -39 -43h-52q7 48 35.5 72t62.5 24q24 0 55 -20q38 -24 56 -24q31 0 42 42z" />
    <glyph glyph-name="odieresis" unicode="&#xf6;" horiz-adv-x="500" 
d="M58 165q0 123 70 214t182 91q74 0 126.5 -44t52.5 -128q0 -42 -13 -91.5t-40 -101.5t-78.5 -86t-119.5 -34q-43 0 -76 13t-52 32.5t-31.5 45.5t-16.5 47.5t-4 41.5zM138 162q0 -55 29 -88.5t77 -33.5q41 0 74.5 28.5t52 71.5t28.5 86.5t10 78.5q0 51 -28 81t-72 30
q-52 0 -92 -38.5t-59.5 -95.5t-19.5 -120zM251 613q18 0 31 -13t13 -32t-13 -31.5t-31 -12.5t-31 13t-13 31q0 19 13 32t31 13zM439 613q18 0 31 -13t13 -32t-13 -31.5t-31 -12.5t-31 13t-13 31q0 19 13 32t31 13z" />
    <glyph glyph-name="divide" unicode="&#xf7;" horiz-adv-x="667" 
d="M337 124q0 19 14 33t34 14t34 -14t14 -33q0 -20 -14 -34t-34 -14t-34 14t-14 34zM337 528q0 19 14 33t34 14t34 -14t14 -33q0 -20 -14 -34t-34 -14t-34 14t-14 34zM119 364h535v-77h-535v77z" />
    <glyph glyph-name="oslash" unicode="&#xf8;" horiz-adv-x="500" 
d="M110 31l-59 -59l-36 36l65 65q-22 40 -22 97q0 51 16 103t46.5 96.5t80 72.5t109.5 28q76 0 127 -45l60 60l36 -36l-64 -64q20 -38 20 -88q0 -41 -13 -90.5t-40 -101t-78.5 -86t-119.5 -34.5q-78 0 -128 46zM407 324l-246 -243q31 -41 83 -41q45 0 80.5 34t53 82
t25.5 93.5t4 74.5zM141 133l247 244q-28 39 -79 39q-54 0 -94.5 -41.5t-58.5 -97t-18 -110.5q0 -10 3 -34z" />
    <glyph glyph-name="ugrave" unicode="&#xf9;" horiz-adv-x="500" 
d="M99 439l155 20l-102 -323q-11 -30 -11 -51q0 -16 8.5 -25.5t21.5 -9.5q35 0 74.5 40t69.5 89q46 73 75 172l30 105l77 3l-104 -358q-6 -18 -6 -31q0 -17 13 -17q17 0 57 26l-14 -60q-56 -31 -85 -31q-19 0 -35 11t-16 36q0 23 18 79l-2 2q-25 -37 -46 -60.5t-57 -45.5
t-75 -22q-37 0 -60.5 22.5t-23.5 58.5q0 29 9 57l72 232q5 15 5 25q0 18 -30 15l-30 -3zM246 654h85l47 -130h-47z" />
    <glyph glyph-name="uacute" unicode="&#xfa;" horiz-adv-x="500" 
d="M99 439l155 20l-102 -323q-11 -30 -11 -51q0 -16 8.5 -25.5t21.5 -9.5q35 0 74.5 40t69.5 89q46 73 75 172l30 105l77 3l-104 -358q-6 -18 -6 -31q0 -17 13 -17q17 0 57 26l-14 -60q-56 -31 -85 -31q-19 0 -35 11t-16 36q0 23 18 79l-2 2q-25 -37 -46 -60.5t-57 -45.5
t-75 -22q-37 0 -60.5 22.5t-23.5 58.5q0 29 9 57l72 232q5 15 5 25q0 18 -30 15l-30 -3zM375 654h95l-113 -130h-49z" />
    <glyph glyph-name="ucircumflex" unicode="&#xfb;" horiz-adv-x="500" 
d="M99 439l155 20l-102 -323q-11 -30 -11 -51q0 -16 8.5 -25.5t21.5 -9.5q35 0 74.5 40t69.5 89q46 73 75 172l30 105l77 3l-104 -358q-6 -18 -6 -31q0 -17 13 -17q17 0 57 26l-14 -60q-56 -31 -85 -31q-19 0 -35 11t-16 36q0 23 18 79l-2 2q-25 -37 -46 -60.5t-57 -45.5
t-75 -22q-37 0 -60.5 22.5t-23.5 58.5q0 29 9 57l72 232q5 15 5 25q0 18 -30 15l-30 -3zM344 655h73l51 -131h-57l-40 84l-88 -84h-65z" />
    <glyph glyph-name="udieresis" unicode="&#xfc;" horiz-adv-x="500" 
d="M99 439l155 20l-102 -323q-11 -30 -11 -51q0 -16 8.5 -25.5t21.5 -9.5q35 0 74.5 40t69.5 89q46 73 75 172l30 105l77 3l-104 -358q-6 -18 -6 -31q0 -17 13 -17q17 0 57 26l-14 -60q-56 -31 -85 -31q-19 0 -35 11t-16 36q0 23 18 79l-2 2q-25 -37 -46 -60.5t-57 -45.5
t-75 -22q-37 0 -60.5 22.5t-23.5 58.5q0 29 9 57l72 232q5 15 5 25q0 18 -30 15l-30 -3zM251 613q18 0 31 -13t13 -32t-13 -31.5t-31 -12.5t-31 13t-13 31q0 19 13 32t31 13zM439 613q18 0 31 -13t13 -32t-13 -31.5t-31 -12.5t-31 13t-13 31q0 19 13 32t31 13z" />
    <glyph glyph-name="yacute" unicode="&#xfd;" horiz-adv-x="458" 
d="M345 439l93 31q34 -29 34 -76q0 -60 -52.5 -158t-185.5 -269q-102 -127 -152 -162q-34 -24 -75 -24q-28 0 -54 15l16 87h45v-20t4.5 -14t14.5 -5q41 0 153 152l-34 281q0 11 -2 15q-6 59 -17 90q-10 26 -35 26q-12 0 -36 -4l-5 -1q-5 -1 -6 -1l11 43l124 25
q18 -29 27 -59.5t15 -89.5l23 -237h2q8 14 9 15l32 46q25 34 66 109t41 116q0 35 -31 35q-12 0 -25 -3v37zM354 654h95l-113 -130h-49z" />
    <glyph glyph-name="thorn" unicode="&#xfe;" horiz-adv-x="510" 
d="M310 704l-90 -316l2 -2q26 35 64 58t81 23q68 0 99 -44.5t31 -112.5q0 -76 -35 -151t-95.5 -124.5t-127.5 -49.5q-83 0 -115 63l-46 -159q-9 -27 -9 -36q0 -21 37 -21h27l-13 -42h-197l12 42h18q22 0 30.5 8t15.5 33l5 16l123 434h-1l78 268q8 28 8 33q0 17 -18 17
q-13 0 -25 -2l-17 -2l12 43zM150 132q0 -41 23.5 -66t59.5 -25q52 0 95.5 46.5t64.5 106.5t21 113q-6 98 -72 98q-44 0 -89.5 -43t-74 -107t-28.5 -123z" />
    <glyph glyph-name="ydieresis" unicode="&#xff;" horiz-adv-x="458" 
d="M345 439l93 31q34 -29 34 -76q0 -60 -52.5 -158t-185.5 -269q-102 -127 -152 -162q-34 -24 -75 -24q-28 0 -54 15l16 87h45v-20t4.5 -14t14.5 -5q41 0 153 152l-34 281q0 11 -2 15q-6 59 -17 90q-10 26 -35 26q-12 0 -36 -4l-5 -1q-5 -1 -6 -1l11 43l124 25
q18 -29 27 -59.5t15 -89.5l23 -237h2q8 14 9 15l32 46q25 34 66 109t41 116q0 35 -31 35q-12 0 -25 -3v37zM230 613q18 0 31 -13t13 -32t-13 -31.5t-31 -12.5t-31 13t-13 31q0 19 13 32t31 13zM418 613q18 0 31 -13t13 -32t-13 -31.5t-31 -12.5t-31 13t-13 31q0 19 13 32
t31 13z" />
    <glyph glyph-name="Amacron" unicode="&#x100;" horiz-adv-x="646" 
d="M429 679h78l29 -584q2 -30 12 -39t34 -9h28l-14 -47h-220l14 47h19q34 0 43 11t7 44l-6 112h-237l-64 -105q-19 -32 -19 -41q0 -21 35 -21h33l-13 -47h-222l13 47q40 0 57 8.5t41 46.5zM434 572l-183 -301h199l-14 301h-2zM326 806h279l-15 -54h-280z" />
    <glyph glyph-name="amacron" unicode="&#x101;" horiz-adv-x="521" 
d="M432 456l83 11l-101 -357q-9 -32 -9 -42q0 -16 14 -16q12 0 59 28l-14 -59q-48 -33 -90 -33q-24 0 -36 15t-12 34t7 38l-2 2q-77 -89 -159 -89q-55 0 -89 40t-34 109q0 74 35 150t97.5 128t132.5 52q72 0 108 -52zM133 143q0 -37 18.5 -64t50.5 -27q48 0 95 46
t74.5 110.5t27.5 119.5q0 34 -22 60t-57 26q-72 0 -129.5 -87t-57.5 -184zM220 601h279l-15 -54h-280z" />
    <glyph glyph-name="Abreve" unicode="&#x102;" horiz-adv-x="646" 
d="M429 679h78l29 -584q2 -30 12 -39t34 -9h28l-14 -47h-220l14 47h19q34 0 43 11t7 44l-6 112h-237l-64 -105q-19 -32 -19 -41q0 -21 35 -21h33l-13 -47h-222l13 47q40 0 57 8.5t41 46.5zM434 572l-183 -301h199l-14 301h-2zM386 853h47q0 -2 -1.5 -14t-1.5 -13
q0 -18 12.5 -32.5t35.5 -14.5q55 0 81 74h50q-11 -48 -46 -86t-94 -38q-30 0 -50 9.5t-28 25t-10 25.5t-2 20q0 14 7 44z" />
    <glyph glyph-name="abreve" unicode="&#x103;" horiz-adv-x="521" 
d="M432 456l83 11l-101 -357q-9 -32 -9 -42q0 -16 14 -16q12 0 59 28l-14 -59q-48 -33 -90 -33q-24 0 -36 15t-12 34t7 38l-2 2q-77 -89 -159 -89q-55 0 -89 40t-34 109q0 74 35 150t97.5 128t132.5 52q72 0 108 -52zM133 143q0 -37 18.5 -64t50.5 -27q48 0 95 46
t74.5 110.5t27.5 119.5q0 34 -22 60t-57 26q-72 0 -129.5 -87t-57.5 -184zM272 648h47q0 -2 -1.5 -14t-1.5 -13q0 -18 12.5 -32.5t35.5 -14.5q55 0 81 74h50q-11 -48 -46 -86t-94 -38q-30 0 -50 9.5t-28 25t-10 25.5t-2 20q0 14 7 44z" />
    <glyph glyph-name="Aogonek" unicode="&#x104;" horiz-adv-x="646" 
d="M429 679h78l29 -584q2 -30 12 -39t34 -9h28l-14 -47h-51q-67 -46 -67 -90q0 -17 12 -30.5t36 -13.5q30 0 57 16l-14 -49q-37 -14 -62 -14q-42 0 -66.5 23t-24.5 59q0 52 62 99h-102l14 47h19q34 0 43 11t7 44l-6 112h-237l-64 -105q-19 -32 -19 -41q0 -21 35 -21h33
l-13 -47h-222l13 47q40 0 57 8.5t41 46.5zM434 572l-183 -301h199l-14 301h-2z" />
    <glyph glyph-name="aogonek" unicode="&#x105;" horiz-adv-x="521" 
d="M432 456l83 11l-101 -357q-9 -32 -9 -42q0 -16 14 -16q12 0 59 28l-14 -59q-32 -23 -67 -30q-54 -43 -54 -81q0 -17 12 -30.5t36 -13.5q30 0 57 16l-14 -49q-37 -14 -62 -14q-42 0 -66.5 23t-24.5 59q0 52 61 98q-16 15 -16 38q0 19 7 38l-2 2q-77 -89 -159 -89
q-55 0 -89 40t-34 109q0 74 35 150t97.5 128t132.5 52q72 0 108 -52zM133 143q0 -37 18.5 -64t50.5 -27q48 0 95 46t74.5 110.5t27.5 119.5q0 34 -22 60t-57 26q-72 0 -129.5 -87t-57.5 -184z" />
    <glyph glyph-name="Cacute" unicode="&#x106;" horiz-adv-x="642" 
d="M687 629l-41 -162h-70l13 57q6 27 6 40q0 21 -15.5 35.5t-39 20.5t-39 8t-27.5 2q-87 0 -155 -57.5t-102 -142t-34 -175.5q0 -100 53 -151.5t130 -51.5q101 0 206 64l-23 -84q-93 -50 -191 -50q-66 0 -116.5 21t-77.5 51t-44 70t-21.5 69.5t-4.5 57.5q0 57 14.5 116.5
t45.5 117.5t74.5 103.5t108 73.5t140.5 28q120 0 210 -61zM502 859h95l-113 -130h-49z" />
    <glyph glyph-name="cacute" unicode="&#x107;" horiz-adv-x="432" 
d="M423 323h-58l1 10q5 23 5 41q0 17 -12.5 29.5t-40.5 12.5q-75 0 -128.5 -84t-53.5 -171q0 -52 29.5 -81.5t70.5 -29.5q49 0 117 44q1 1 4.5 3t7.5 4.5t5 3.5l-16 -73q-76 -47 -145 -47q-77 0 -115.5 49.5t-38.5 122.5q0 40 11.5 83t35 84t55.5 73.5t78 52.5t99 20
q56 0 118 -31zM358 654h95l-113 -130h-49z" />
    <glyph glyph-name="Ccircumflex" unicode="&#x108;" horiz-adv-x="642" 
d="M687 629l-41 -162h-70l13 57q6 27 6 40q0 21 -15.5 35.5t-39 20.5t-39 8t-27.5 2q-87 0 -155 -57.5t-102 -142t-34 -175.5q0 -100 53 -151.5t130 -51.5q101 0 206 64l-23 -84q-93 -50 -191 -50q-66 0 -116.5 21t-77.5 51t-44 70t-21.5 69.5t-4.5 57.5q0 57 14.5 116.5
t45.5 117.5t74.5 103.5t108 73.5t140.5 28q120 0 210 -61zM469 860h73l51 -131h-57l-40 84l-88 -84h-65z" />
    <glyph glyph-name="ccircumflex" unicode="&#x109;" horiz-adv-x="432" 
d="M423 323h-58l1 10q5 23 5 41q0 17 -12.5 29.5t-40.5 12.5q-75 0 -128.5 -84t-53.5 -171q0 -52 29.5 -81.5t70.5 -29.5q49 0 117 44q1 1 4.5 3t7.5 4.5t5 3.5l-16 -73q-76 -47 -145 -47q-77 0 -115.5 49.5t-38.5 122.5q0 40 11.5 83t35 84t55.5 73.5t78 52.5t99 20
q56 0 118 -31zM326 655h73l51 -131h-57l-40 84l-88 -84h-65z" />
    <glyph glyph-name="Cdotaccent" unicode="&#x10a;" horiz-adv-x="642" 
d="M687 629l-41 -162h-70l13 57q6 27 6 40q0 21 -15.5 35.5t-39 20.5t-39 8t-27.5 2q-87 0 -155 -57.5t-102 -142t-34 -175.5q0 -100 53 -151.5t130 -51.5q101 0 206 64l-23 -84q-93 -50 -191 -50q-66 0 -116.5 21t-77.5 51t-44 70t-21.5 69.5t-4.5 57.5q0 57 14.5 116.5
t45.5 117.5t74.5 103.5t108 73.5t140.5 28q120 0 210 -61zM484 818q18 0 31 -13t13 -32t-13 -31.5t-31 -12.5t-31 13t-13 31q0 19 13 32t31 13z" />
    <glyph glyph-name="cdotaccent" unicode="&#x10b;" horiz-adv-x="432" 
d="M423 323h-58l1 10q5 23 5 41q0 17 -12.5 29.5t-40.5 12.5q-75 0 -128.5 -84t-53.5 -171q0 -52 29.5 -81.5t70.5 -29.5q49 0 117 44q1 1 4.5 3t7.5 4.5t5 3.5l-16 -73q-76 -47 -145 -47q-77 0 -115.5 49.5t-38.5 122.5q0 40 11.5 83t35 84t55.5 73.5t78 52.5t99 20
q56 0 118 -31zM340 613q18 0 31 -13t13 -32t-13 -31.5t-31 -12.5t-31 13t-13 31q0 19 13 32t31 13z" />
    <glyph glyph-name="Ccaron" unicode="&#x10c;" horiz-adv-x="642" 
d="M687 629l-41 -162h-70l13 57q6 27 6 40q0 21 -15.5 35.5t-39 20.5t-39 8t-27.5 2q-87 0 -155 -57.5t-102 -142t-34 -175.5q0 -100 53 -151.5t130 -51.5q101 0 206 64l-23 -84q-93 -50 -191 -50q-66 0 -116.5 21t-77.5 51t-44 70t-21.5 69.5t-4.5 57.5q0 57 14.5 116.5
t45.5 117.5t74.5 103.5t108 73.5t140.5 28q120 0 210 -61zM516 729h-73l-51 131h57l40 -84l88 84h65z" />
    <glyph glyph-name="ccaron" unicode="&#x10d;" horiz-adv-x="432" 
d="M423 323h-58l1 10q5 23 5 41q0 17 -12.5 29.5t-40.5 12.5q-75 0 -128.5 -84t-53.5 -171q0 -52 29.5 -81.5t70.5 -29.5q49 0 117 44q1 1 4.5 3t7.5 4.5t5 3.5l-16 -73q-76 -47 -145 -47q-77 0 -115.5 49.5t-38.5 122.5q0 40 11.5 83t35 84t55.5 73.5t78 52.5t99 20
q56 0 118 -31zM369 524h-73l-51 131h57l40 -84l88 84h65z" />
    <glyph glyph-name="Dcaron" unicode="&#x10e;" horiz-adv-x="688" 
d="M184 672h245q97 0 155 -34q110 -66 110 -226q0 -33 -5.5 -69.5t-20 -85t-47.5 -97.5t-80 -87q-26 -21 -51 -34.5t-78 -26t-122 -12.5h-287l14 47h15q21 0 30 1.5t18.5 11t15.5 30.5l138 486v2q1 3 1 5q4 12 4 19q0 11 -8.5 16t-16.5 6t-23 1h-21zM329 611l-159 -555h92
q142 0 214 58q65 51 98 135t33 166q0 40 -9 72t-22 52.5t-35 35t-39.5 21.5t-44.5 10.5t-41 4t-37 0.5h-50zM433 729h-73l-51 131h57l40 -84l88 84h65z" />
    <glyph glyph-name="dcaron" unicode="&#x10f;" horiz-adv-x="521" 
d="M437 679l145 25l-170 -601q0 -1 -1 -3t-1 -3q-6 -19 -6 -28q0 -6 4.5 -11.5t11.5 -5.5q15 0 58 26l-16 -58q-47 -32 -86 -32q-21 0 -36 13.5t-15 34.5q0 14 8 40l-2 2q-70 -90 -162 -90q-51 0 -85.5 39.5t-34.5 107.5q0 77 34.5 153.5t97.5 129t135 52.5q68 0 109 -57
l53 185q6 19 6 26q0 12 -10.5 14.5t-20.5 -0.5l-28 -5zM132 136q0 -30 17 -58t55 -28q67 0 131 93t64 180q0 8 -1.5 18.5t-8 29.5t-24 31.5t-44.5 12.5q-75 0 -132 -90t-57 -189zM573 474l7 44q62 26 75 81q-18 5 -29.5 19t-11.5 32q0 22 15 38t38 16t39 -17.5t16 -47.5
q0 -47 -39.5 -95.5t-109.5 -69.5z" />
    <glyph glyph-name="Dcroat" unicode="&#x110;" horiz-adv-x="688" 
d="M156 304h-69l17 61h69l61 211v2q1 3 1 5q4 12 4 19q0 11 -8.5 16t-16.5 6t-23 1h-21l14 47h245q97 0 155 -34q110 -66 110 -226q0 -33 -5.5 -69.5t-20 -85t-47.5 -97.5t-80 -87q-26 -21 -51 -34.5t-78 -26t-122 -12.5h-287l14 47h15q21 0 30 1.5t18.5 11t15.5 30.5z
M408 304h-167l-71 -248h92q142 0 214 58q65 51 98 135t33 166q0 40 -9 72t-22 52.5t-35 35t-39.5 21.5t-44.5 10.5t-41 4t-37 0.5h-50l-71 -246h167z" />
    <glyph glyph-name="dcroat" unicode="&#x111;" horiz-adv-x="521" 
d="M279 575h192l7 23q6 19 6 26q0 12 -10.5 14.5t-20.5 -0.5l-28 -5l12 46l145 25l-37 -129h55l-14 -56h-57l-117 -416q0 -1 -1 -3t-1 -3q-6 -19 -6 -28q0 -6 4.5 -11.5t11.5 -5.5q15 0 58 26l-16 -58q-47 -32 -86 -32q-21 0 -36 13.5t-15 34.5q0 14 8 40l-2 2
q-70 -90 -162 -90q-51 0 -85.5 39.5t-34.5 107.5q0 77 34.5 153.5t97.5 129t135 52.5q68 0 109 -57l30 106h-190zM132 136q0 -30 17 -58t55 -28q67 0 131 93t64 180q0 8 -1.5 18.5t-8 29.5t-24 31.5t-44.5 12.5q-75 0 -132 -90t-57 -189z" />
    <glyph glyph-name="Emacron" unicode="&#x112;" horiz-adv-x="594" 
d="M184 672h473l-41 -146h-61l13 45q4 15 4 21q0 10 -6 15t-13 5.5t-21 0.5h-203l-68 -237h143q31 0 41.5 7t18.5 34l7 20h55l-55 -189h-53l7 26q4 15 4 22q0 10 -7 15t-14 5.5t-21 0.5h-143l-74 -260h207q38 0 51 6.5t20 30.5l16 52h63l-42 -146h-482l13 47h28q23 0 34 8.5
t19 38.5l134 472q7 28 7 38q0 21 -38 21h-30zM320 806h279l-15 -54h-280z" />
    <glyph glyph-name="emacron" unicode="&#x113;" horiz-adv-x="417" 
d="M360 113l-17 -74q-78 -54 -150 -54q-71 0 -109 45.5t-38 110.5q0 122 85.5 225.5t198.5 103.5q29 0 50 -9t31.5 -20.5t16.5 -26.5t7 -23t1 -14q0 -77 -78 -127t-178 -50q-20 0 -48 2q-6 -24 -6 -50q0 -53 26 -77t59 -24q25 0 49.5 8t40.5 17t49 30zM142 253
q66 -5 113.5 8t67.5 36t28 41t8 33q0 21 -13 33.5t-34 12.5q-12 0 -28 -5.5t-41.5 -20t-52.5 -50.5t-48 -88zM199 601h279l-15 -54h-280z" />
    <glyph glyph-name="Ebreve" unicode="&#x114;" horiz-adv-x="594" 
d="M184 672h473l-41 -146h-61l13 45q4 15 4 21q0 10 -6 15t-13 5.5t-21 0.5h-203l-68 -237h143q31 0 41.5 7t18.5 34l7 20h55l-55 -189h-53l7 26q4 15 4 22q0 10 -7 15t-14 5.5t-21 0.5h-143l-74 -260h207q38 0 51 6.5t20 30.5l16 52h63l-42 -146h-482l13 47h28q23 0 34 8.5
t19 38.5l134 472q7 28 7 38q0 21 -38 21h-30zM357 853h47q0 -2 -1.5 -14t-1.5 -13q0 -18 12.5 -32.5t35.5 -14.5q55 0 81 74h50q-11 -48 -46 -86t-94 -38q-30 0 -50 9.5t-28 25t-10 25.5t-2 20q0 14 7 44z" />
    <glyph glyph-name="ebreve" unicode="&#x115;" horiz-adv-x="417" 
d="M360 113l-17 -74q-78 -54 -150 -54q-71 0 -109 45.5t-38 110.5q0 122 85.5 225.5t198.5 103.5q29 0 50 -9t31.5 -20.5t16.5 -26.5t7 -23t1 -14q0 -77 -78 -127t-178 -50q-20 0 -48 2q-6 -24 -6 -50q0 -53 26 -77t59 -24q25 0 49.5 8t40.5 17t49 30zM142 253
q66 -5 113.5 8t67.5 36t28 41t8 33q0 21 -13 33.5t-34 12.5q-12 0 -28 -5.5t-41.5 -20t-52.5 -50.5t-48 -88zM250 648h47q0 -2 -1.5 -14t-1.5 -13q0 -18 12.5 -32.5t35.5 -14.5q55 0 81 74h50q-11 -48 -46 -86t-94 -38q-30 0 -50 9.5t-28 25t-10 25.5t-2 20q0 14 7 44z" />
    <glyph glyph-name="Edotaccent" unicode="&#x116;" horiz-adv-x="594" 
d="M184 672h473l-41 -146h-61l13 45q4 15 4 21q0 10 -6 15t-13 5.5t-21 0.5h-203l-68 -237h143q31 0 41.5 7t18.5 34l7 20h55l-55 -189h-53l7 26q4 15 4 22q0 10 -7 15t-14 5.5t-21 0.5h-143l-74 -260h207q38 0 51 6.5t20 30.5l16 52h63l-42 -146h-482l13 47h28q23 0 34 8.5
t19 38.5l134 472q7 28 7 38q0 21 -38 21h-30zM446 818q18 0 31 -13t13 -32t-13 -31.5t-31 -12.5t-31 13t-13 31q0 19 13 32t31 13z" />
    <glyph glyph-name="edotaccent" unicode="&#x117;" horiz-adv-x="417" 
d="M360 113l-17 -74q-78 -54 -150 -54q-71 0 -109 45.5t-38 110.5q0 122 85.5 225.5t198.5 103.5q29 0 50 -9t31.5 -20.5t16.5 -26.5t7 -23t1 -14q0 -77 -78 -127t-178 -50q-20 0 -48 2q-6 -24 -6 -50q0 -53 26 -77t59 -24q25 0 49.5 8t40.5 17t49 30zM142 253
q66 -5 113.5 8t67.5 36t28 41t8 33q0 21 -13 33.5t-34 12.5q-12 0 -28 -5.5t-41.5 -20t-52.5 -50.5t-48 -88zM338 613q18 0 31 -13t13 -32t-13 -31.5t-31 -12.5t-31 13t-13 31q0 19 13 32t31 13z" />
    <glyph glyph-name="Eogonek" unicode="&#x118;" horiz-adv-x="594" 
d="M184 672h473l-41 -146h-61l13 45q4 15 4 21q0 10 -6 15t-13 5.5t-21 0.5h-203l-68 -237h143q31 0 41.5 7t18.5 34l7 20h55l-55 -189h-53l7 26q4 15 4 22q0 10 -7 15t-14 5.5t-21 0.5h-143l-74 -260h207q38 0 51 6.5t20 30.5l16 52h63l-42 -146h-53q-67 -46 -67 -90
q0 -17 12 -30.5t36 -13.5q30 0 57 16l-14 -49q-37 -14 -62 -14q-42 0 -66.5 23t-24.5 59q0 52 62 99h-362l13 47h28q23 0 34 8.5t19 38.5l134 472q7 28 7 38q0 21 -38 21h-30z" />
    <glyph glyph-name="eogonek" unicode="&#x119;" horiz-adv-x="417" 
d="M360 113l-17 -74q-34 -23 -53 -31h1q-79 -54 -79 -98q0 -17 12 -30.5t36 -13.5q30 0 57 16l-14 -49q-37 -14 -62 -14q-42 0 -66.5 23t-24.5 59q0 45 44 84h-1q-71 0 -109 45.5t-38 110.5q0 122 85.5 225.5t198.5 103.5q29 0 50 -9t31.5 -20.5t16.5 -26.5t7 -23t1 -14
q0 -77 -78 -127t-178 -50q-20 0 -48 2q-6 -24 -6 -50q0 -53 26 -77t59 -24q25 0 49.5 8t40.5 17t49 30zM142 253q66 -5 113.5 8t67.5 36t28 41t8 33q0 21 -13 33.5t-34 12.5q-12 0 -28 -5.5t-41.5 -20t-52.5 -50.5t-48 -88z" />
    <glyph glyph-name="Ecaron" unicode="&#x11a;" horiz-adv-x="594" 
d="M184 672h473l-41 -146h-61l13 45q4 15 4 21q0 10 -6 15t-13 5.5t-21 0.5h-203l-68 -237h143q31 0 41.5 7t18.5 34l7 20h55l-55 -189h-53l7 26q4 15 4 22q0 10 -7 15t-14 5.5t-21 0.5h-143l-74 -260h207q38 0 51 6.5t20 30.5l16 52h63l-42 -146h-482l13 47h28q23 0 34 8.5
t19 38.5l134 472q7 28 7 38q0 21 -38 21h-30zM478 729h-73l-51 131h57l40 -84l88 84h65z" />
    <glyph glyph-name="ecaron" unicode="&#x11b;" horiz-adv-x="417" 
d="M360 113l-17 -74q-78 -54 -150 -54q-71 0 -109 45.5t-38 110.5q0 122 85.5 225.5t198.5 103.5q29 0 50 -9t31.5 -20.5t16.5 -26.5t7 -23t1 -14q0 -77 -78 -127t-178 -50q-20 0 -48 2q-6 -24 -6 -50q0 -53 26 -77t59 -24q25 0 49.5 8t40.5 17t49 30zM142 253
q66 -5 113.5 8t67.5 36t28 41t8 33q0 21 -13 33.5t-34 12.5q-12 0 -28 -5.5t-41.5 -20t-52.5 -50.5t-48 -88zM367 524h-73l-51 131h57l40 -84l88 84h65z" />
    <glyph glyph-name="Gcircumflex" unicode="&#x11c;" horiz-adv-x="678" 
d="M703 622l-41 -155h-70l13 58q6 22 6 41q0 30 -41 48t-92 18q-59 0 -110 -25.5t-84.5 -66.5t-57.5 -92t-34.5 -101.5t-10.5 -96.5q0 -34 10 -67.5t30.5 -64.5t59.5 -50t90 -19q46 0 94 16l35 125l2 6q6 20 6 31q0 22 -43 22h-29l12 45h235l-14 -45h-29q-27 0 -36 -9.5
t-17 -39.5l-51 -182q-98 -36 -179 -36q-74 0 -128.5 25.5t-83 68.5t-41 88.5t-12.5 94.5q0 70 24 143t69.5 139t122.5 107.5t173 41.5q133 0 222 -68zM471 860h73l51 -131h-57l-40 84l-88 -84h-65z" />
    <glyph glyph-name="gcircumflex" unicode="&#x11d;" horiz-adv-x="469" 
d="M502 455l-14 -54h-72q24 -44 24 -86q0 -68 -43 -120q-25 -29 -58 -45t-87 -23q-89 -10 -89 -45q0 -13 19.5 -21t78.5 -20q70 -15 106 -43.5t36 -77.5q0 -67 -62 -104q-57 -35 -155 -35q-210 0 -210 111q0 95 143 120q-32 20 -32 46q0 27 19 47t35.5 27t33.5 11v2
q-87 36 -87 123q0 73 50.5 137.5t142.5 64.5q42 0 81 -15h140zM162 267q0 -44 26.5 -67t62.5 -23q56 0 87 47.5t31 107.5q0 95 -90 95q-42 0 -70.5 -29.5t-37.5 -63.5t-9 -67zM178 -11q-132 -21 -132 -84q0 -24 19 -40.5t48 -22.5t46.5 -7.5t31.5 -1.5q64 0 102 20t38 54
q0 28 -27 45t-89 29q-26 4 -37 8zM287 655h73l51 -131h-57l-40 84l-88 -84h-65z" />
    <glyph glyph-name="Gbreve" unicode="&#x11e;" horiz-adv-x="678" 
d="M703 622l-41 -155h-70l13 58q6 22 6 41q0 30 -41 48t-92 18q-59 0 -110 -25.5t-84.5 -66.5t-57.5 -92t-34.5 -101.5t-10.5 -96.5q0 -34 10 -67.5t30.5 -64.5t59.5 -50t90 -19q46 0 94 16l35 125l2 6q6 20 6 31q0 22 -43 22h-29l12 45h235l-14 -45h-29q-27 0 -36 -9.5
t-17 -39.5l-51 -182q-98 -36 -179 -36q-74 0 -128.5 25.5t-83 68.5t-41 88.5t-12.5 94.5q0 70 24 143t69.5 139t122.5 107.5t173 41.5q133 0 222 -68zM406 853h47q0 -2 -1.5 -14t-1.5 -13q0 -18 12.5 -32.5t35.5 -14.5q55 0 81 74h50q-11 -48 -46 -86t-94 -38q-30 0 -50 9.5
t-28 25t-10 25.5t-2 20q0 14 7 44z" />
    <glyph glyph-name="gbreve" unicode="&#x11f;" horiz-adv-x="469" 
d="M502 455l-14 -54h-72q24 -44 24 -86q0 -68 -43 -120q-25 -29 -58 -45t-87 -23q-89 -10 -89 -45q0 -13 19.5 -21t78.5 -20q70 -15 106 -43.5t36 -77.5q0 -67 -62 -104q-57 -35 -155 -35q-210 0 -210 111q0 95 143 120q-32 20 -32 46q0 27 19 47t35.5 27t33.5 11v2
q-87 36 -87 123q0 73 50.5 137.5t142.5 64.5q42 0 81 -15h140zM162 267q0 -44 26.5 -67t62.5 -23q56 0 87 47.5t31 107.5q0 95 -90 95q-42 0 -70.5 -29.5t-37.5 -63.5t-9 -67zM178 -11q-132 -21 -132 -84q0 -24 19 -40.5t48 -22.5t46.5 -7.5t31.5 -1.5q64 0 102 20t38 54
q0 28 -27 45t-89 29q-26 4 -37 8zM201 648h47q0 -2 -1.5 -14t-1.5 -13q0 -18 12.5 -32.5t35.5 -14.5q55 0 81 74h50q-11 -48 -46 -86t-94 -38q-30 0 -50 9.5t-28 25t-10 25.5t-2 20q0 14 7 44z" />
    <glyph glyph-name="Gdotaccent" unicode="&#x120;" horiz-adv-x="678" 
d="M703 622l-41 -155h-70l13 58q6 22 6 41q0 30 -41 48t-92 18q-59 0 -110 -25.5t-84.5 -66.5t-57.5 -92t-34.5 -101.5t-10.5 -96.5q0 -34 10 -67.5t30.5 -64.5t59.5 -50t90 -19q46 0 94 16l35 125l2 6q6 20 6 31q0 22 -43 22h-29l12 45h235l-14 -45h-29q-27 0 -36 -9.5
t-17 -39.5l-51 -182q-98 -36 -179 -36q-74 0 -128.5 25.5t-83 68.5t-41 88.5t-12.5 94.5q0 70 24 143t69.5 139t122.5 107.5t173 41.5q133 0 222 -68zM488 818q18 0 31 -13t13 -32t-13 -31.5t-31 -12.5t-31 13t-13 31q0 19 13 32t31 13z" />
    <glyph glyph-name="gdotaccent" unicode="&#x121;" horiz-adv-x="469" 
d="M502 455l-14 -54h-72q24 -44 24 -86q0 -68 -43 -120q-25 -29 -58 -45t-87 -23q-89 -10 -89 -45q0 -13 19.5 -21t78.5 -20q70 -15 106 -43.5t36 -77.5q0 -67 -62 -104q-57 -35 -155 -35q-210 0 -210 111q0 95 143 120q-32 20 -32 46q0 27 19 47t35.5 27t33.5 11v2
q-87 36 -87 123q0 73 50.5 137.5t142.5 64.5q42 0 81 -15h140zM162 267q0 -44 26.5 -67t62.5 -23q56 0 87 47.5t31 107.5q0 95 -90 95q-42 0 -70.5 -29.5t-37.5 -63.5t-9 -67zM178 -11q-132 -21 -132 -84q0 -24 19 -40.5t48 -22.5t46.5 -7.5t31.5 -1.5q64 0 102 20t38 54
q0 28 -27 45t-89 29q-26 4 -37 8zM290 613q18 0 31 -13t13 -32t-13 -31.5t-31 -12.5t-31 13t-13 31q0 19 13 32t31 13z" />
    <glyph glyph-name="Gcommaaccent" unicode="&#x122;" horiz-adv-x="678" 
d="M703 622l-41 -155h-70l13 58q6 22 6 41q0 30 -41 48t-92 18q-59 0 -110 -25.5t-84.5 -66.5t-57.5 -92t-34.5 -101.5t-10.5 -96.5q0 -34 10 -67.5t30.5 -64.5t59.5 -50t90 -19q46 0 94 16l35 125l2 6q6 20 6 31q0 22 -43 22h-29l12 45h235l-14 -45h-29q-27 0 -36 -9.5
t-17 -39.5l-51 -182q-98 -36 -179 -36q-74 0 -128.5 25.5t-83 68.5t-41 88.5t-12.5 94.5q0 70 24 143t69.5 139t122.5 107.5t173 41.5q133 0 222 -68zM268 -219l7 33q47 9 58 42q-42 11 -42 50q0 18 15 33t36 15q26 0 38.5 -17t12.5 -39q0 -86 -125 -117z" />
    <glyph glyph-name="gcommaaccent" unicode="&#x123;" horiz-adv-x="469" 
d="M383 719l-7 -44q-55 -18 -61 -53q18 -5 29.5 -19t11.5 -32q0 -22 -15 -38t-38 -16t-39 17.5t-16 47.5q0 96 135 137zM502 455l-14 -54h-72q24 -44 24 -86q0 -68 -43 -120q-25 -29 -58 -45t-87 -23q-89 -10 -89 -45q0 -13 19.5 -21t78.5 -20q70 -15 106 -43.5t36 -77.5
q0 -67 -62 -104q-57 -35 -155 -35q-210 0 -210 111q0 95 143 120q-32 20 -32 46q0 27 19 47t35.5 27t33.5 11v2q-87 36 -87 123q0 73 50.5 137.5t142.5 64.5q42 0 81 -15h140zM162 267q0 -44 26.5 -67t62.5 -23q56 0 87 47.5t31 107.5q0 95 -90 95q-42 0 -70.5 -29.5
t-37.5 -63.5t-9 -67zM178 -11q-132 -21 -132 -84q0 -24 19 -40.5t48 -22.5t46.5 -7.5t31.5 -1.5q64 0 102 20t38 54q0 28 -27 45t-89 29q-26 4 -37 8z" />
    <glyph glyph-name="Hcircumflex" unicode="&#x124;" horiz-adv-x="734" 
d="M193 672h224l-11 -47h-22q-31 0 -40 -10t-21 -53l-50 -174h321l50 191q6 20 6 27q0 13 -9 16t-29 3h-28l10 47h228l-13 -47h-21q-30 0 -38.5 -9.5t-20.5 -50.5l-135 -463q-6 -22 -6 -31q0 -17 10 -20.5t57 -3.5l-13 -47h-225l13 47q48 2 59 8t21 41l66 234h-319l-64 -223
q-8 -30 -8 -37q0 -11 6.5 -16t13 -6t20.5 -1h27l-12 -47h-227l14 47h23q29 0 38.5 8.5t18.5 40.5l133 475q8 22 8 35q0 19 -42 19h-25zM510 860h73l51 -131h-57l-40 84l-88 -84h-65z" />
    <glyph glyph-name="hcircumflex" unicode="&#x125;" horiz-adv-x="490" 
d="M305 704l-101 -356l2 -2q30 48 75 84.5t98 36.5q35 0 60 -20.5t25 -64.5q0 -27 -10 -57l-70 -228q-6 -19 -6 -27q0 -19 15 -19t37 15q5 2 19 11l-15 -58q-46 -31 -91 -31q-22 0 -36.5 15t-14.5 38t9 50l69 218q0 5 3 11q11 35 11 53q0 35 -34 35q-52 0 -121 -99.5
t-91 -192.5l-33 -116h-75l170 591q7 28 7 33q0 17 -18 17q-13 0 -25 -2l-17 -2l12 43zM331 885h73l51 -131h-57l-40 84l-88 -84h-65z" />
    <glyph glyph-name="Hbar" unicode="&#x126;" horiz-adv-x="734" 
d="M165 524h62l14 47q8 22 8 35q0 19 -42 19h-25l12 47h224l-11 -47h-22q-31 0 -40 -10t-21 -53l-11 -38h317l15 55q6 20 6 27q0 13 -8.5 16t-29.5 3h-28l10 47h228l-13 -47h-21q-30 0 -38.5 -9.5t-20.5 -50.5l-12 -41h68l-13 -54h-71l-107 -368q-6 -22 -6 -31
q0 -17 10 -20.5t57 -3.5l-13 -47h-225l13 47q48 2 59 8t21 41l66 234h-319l-64 -223q-8 -30 -8 -37q0 -11 6.5 -16t13 -6t20.5 -1h27l-12 -47h-227l14 47h23q29 0 38.5 8.5t18.5 40.5l104 374h-63zM274 388h321l21 82h-319z" />
    <glyph glyph-name="hbar" unicode="&#x127;" horiz-adv-x="490" 
d="M134 567h59l7 24q7 28 7 33q0 17 -18 17q-13 0 -25 -2l-17 -2l12 43l146 24l-39 -137h167l-15 -55h-168l-46 -164l2 -2q30 48 75 84.5t98 36.5q35 0 60 -20.5t25 -64.5q0 -27 -10 -57l-70 -228q-6 -19 -6 -27q0 -19 15 -19t37 15q5 2 19 11l-15 -58q-46 -31 -91 -31
q-22 0 -36.5 15t-14.5 38q0 32 9 50q4 8 4 11l65 207q0 5 3 11q11 35 11 53q0 35 -34 35q-52 0 -121 -99.5t-91 -192.5l-33 -116h-75l147 512h-59z" />
    <glyph glyph-name="Itilde" unicode="&#x128;" 
d="M193 672h225l-13 -47h-19q-26 0 -38 -8t-20 -38l-135 -483q-6 -24 -6 -27q0 -22 34 -22h30l-13 -47h-226l13 47h29q24 0 33 8t17 35l138 483q5 19 5 31q0 21 -36 21h-31zM415 823h48q-3 -49 -32 -71.5t-63 -22.5q-29 0 -58 18q-42 25 -55 25q-28 0 -39 -43h-52
q7 48 35.5 72t62.5 24q24 0 55 -20q38 -24 56 -24q31 0 42 42z" />
    <glyph glyph-name="itilde" unicode="&#x129;" horiz-adv-x="250" 
d="M97 444l151 23l-106 -377q-5 -17 -5 -24q0 -9 6 -13.5t12 -4.5q17 0 54 27l-13 -59q-52 -31 -87 -31q-26 0 -39.5 15t-13.5 33q0 23 7 45l79 279q7 23 7 31q0 17 -16 17l-27 -3l-22 -3zM296 618h48q-3 -49 -32 -71.5t-63 -22.5q-29 0 -58 18q-42 25 -55 25q-28 0 -39 -43
h-52q7 48 35.5 72t62.5 24q24 0 55 -20q38 -24 56 -24q31 0 42 42z" />
    <glyph glyph-name="Imacron" unicode="&#x12a;" 
d="M193 672h225l-13 -47h-19q-26 0 -38 -8t-20 -38l-135 -483q-6 -24 -6 -27q0 -22 34 -22h30l-13 -47h-226l13 47h29q24 0 33 8t17 35l138 483q5 19 5 31q0 21 -36 21h-31zM195 806h279l-15 -54h-280z" />
    <glyph glyph-name="imacron" unicode="&#x12b;" horiz-adv-x="250" 
d="M97 444l151 23l-106 -377q-5 -17 -5 -24q0 -9 6 -13.5t12 -4.5q17 0 54 27l-13 -59q-52 -31 -87 -31q-26 0 -39.5 15t-13.5 33q0 23 7 45l79 279q7 23 7 31q0 17 -16 17l-27 -3l-22 -3zM59 601h279l-15 -54h-280z" />
    <glyph glyph-name="Ibreve" unicode="&#x12c;" 
d="M193 672h225l-13 -47h-19q-26 0 -38 -8t-20 -38l-135 -483q-6 -24 -6 -27q0 -22 34 -22h30l-13 -47h-226l13 47h29q24 0 33 8t17 35l138 483q5 19 5 31q0 21 -36 21h-31zM234 853h47q0 -2 -1.5 -14t-1.5 -13q0 -18 12.5 -32.5t35.5 -14.5q55 0 81 74h50q-11 -48 -46 -86
t-94 -38q-30 0 -50 9.5t-28 25t-10 25.5t-2 20q0 14 7 44z" />
    <glyph glyph-name="ibreve" unicode="&#x12d;" horiz-adv-x="250" 
d="M97 444l151 23l-106 -377q-5 -17 -5 -24q0 -9 6 -13.5t12 -4.5q17 0 54 27l-13 -59q-52 -31 -87 -31q-26 0 -39.5 15t-13.5 33q0 23 7 45l79 279q7 23 7 31q0 17 -16 17l-27 -3l-22 -3zM117 648h47q0 -2 -1.5 -14t-1.5 -13q0 -18 12.5 -32.5t35.5 -14.5q55 0 81 74h50
q-11 -48 -46 -86t-94 -38q-30 0 -50 9.5t-28 25t-10 25.5t-2 20q0 14 7 44z" />
    <glyph glyph-name="Iogonek" unicode="&#x12e;" 
d="M193 672h225l-13 -47h-19q-26 0 -38 -8t-20 -38l-135 -483q-6 -24 -6 -27q0 -22 34 -22h30l-13 -47h-64q-67 -46 -67 -90q0 -17 12 -30.5t36 -13.5q30 0 57 16l-14 -49q-37 -14 -62 -14q-42 0 -66.5 23t-24.5 59q0 52 62 99h-95l13 47h29q24 0 33 8t17 35l138 483
q5 19 5 31q0 21 -36 21h-31z" />
    <glyph glyph-name="iogonek" unicode="&#x12f;" horiz-adv-x="250" 
d="M97 444l151 23l-106 -377q-5 -17 -5 -24q0 -9 6 -13.5t12 -4.5q17 0 54 27l-13 -59l-17 -10q-76 -51 -76 -96q0 -17 12 -30.5t36 -13.5q30 0 57 16l-14 -49q-37 -14 -62 -14q-42 0 -66.5 23t-24.5 59q0 45 47 87q-32 11 -32 45q0 23 7 45l79 279l5 21q4 4 1.5 15.5
t-15.5 11.5q-10 0 -24 -3l-25 -3zM238 658q22 0 37 -15t15 -37q0 -21 -15 -36.5t-37 -15.5q-21 0 -36.5 15t-15.5 37t15.5 37t36.5 15z" />
    <glyph glyph-name="Idotaccent" unicode="&#x130;" 
d="M193 672h225l-13 -47h-19q-26 0 -38 -8t-20 -38l-135 -483q-6 -24 -6 -27q0 -22 34 -22h30l-13 -47h-226l13 47h29q24 0 33 8t17 35l138 483q5 19 5 31q0 21 -36 21h-31zM319 818q18 0 31 -13t13 -32t-13 -31.5t-31 -12.5t-31 13t-13 31q0 19 13 32t31 13z" />
    <glyph glyph-name="dotlessi" unicode="&#x131;" horiz-adv-x="250" 
d="M97 444l151 23l-106 -377q-5 -17 -5 -24q0 -9 6 -13.5t12 -4.5q17 0 54 27l-13 -59q-52 -31 -87 -31q-26 0 -39.5 15t-13.5 33q0 23 7 45l79 279q7 23 7 31q0 17 -16 17l-27 -3l-22 -3z" />
    <glyph glyph-name="Jcircumflex" unicode="&#x134;" horiz-adv-x="490" 
d="M365 672h230l-13 -47h-26q-26 0 -35 -10t-16 -35l-112 -393q0 -2 -2 -6q-29 -104 -78.5 -151.5t-133.5 -47.5q-88 0 -154 52l34 122h62l-8 -40q-4 -12 -4 -32q0 -24 23.5 -35.5t48.5 -11.5q45 0 75 36t59 137q2 12 4 16l101 354q5 12 5 25q0 20 -42 20h-32zM484 860h73
l51 -131h-57l-40 84l-88 -84h-65z" />
    <glyph glyph-name="jcircumflex" unicode="&#x135;" horiz-adv-x="250" 
d="M98 440l152 23l-138 -479q-9 -31 -15 -48.5t-22 -51t-33 -52.5t-46.5 -35t-64.5 -16q-37 0 -71 17l13 87h45v-21q-1 -30 28 -30q25 0 43 22.5t38 92.5l114 399q8 30 8 37q0 16 -17 16q-4 0 -11.5 -1t-9.5 -1l-26 -4zM176 655h73l51 -131h-57l-40 84l-88 -84h-65z" />
    <glyph glyph-name="Kcommaaccent" unicode="&#x136;" horiz-adv-x="632" 
d="M187 672h223l-14 -47h-24q-26 0 -35.5 -9t-17.5 -37l-61 -216l2 -2l258 218q23 18 23 32t-23 14h-19l12 47h221l-12 -47q-19 0 -30.5 -1.5t-32.5 -10.5t-41 -27l-8 -7l-271 -228l162 -252q33 -52 87 -52h17l-13 -47h-224l13 47q27 0 36.5 2t9.5 12q0 11 -11 29l-163 250
l-68 -237q0 -2 -2 -10q-5 -15 -5 -25q0 -21 36 -21h31l-13 -47h-223l13 47h31q14 0 20.5 1.5t14 11t13.5 30.5l138 489q5 13 5 25q0 21 -36 21h-33zM218 -219l7 33q47 9 58 42q-42 11 -42 50q0 18 15 33t36 15q26 0 38.5 -17t12.5 -39q0 -86 -125 -117z" />
    <glyph glyph-name="kcommaaccent" unicode="&#x137;" horiz-adv-x="491" 
d="M158 680l145 24l-126 -450l2 -2l146 120q21 16 21 26q0 5 -2.5 8.5t-9.5 4.5t-13 1.5t-18 0.5l10 42h213l-11 -42q-59 -4 -106 -41l-124 -102l70 -178q15 -38 34 -38t63 34l-11 -62q-50 -38 -88 -38q-20 0 -35 12t-20.5 23t-13.5 34l-61 164l-71 -59l-46 -162h-76
l170 602q5 16 5 23q0 14 -18 14q-6 0 -20 -2l-21 -3zM119 -219l7 33q47 9 58 42q-42 11 -42 50q0 18 15 33t36 15q26 0 38.5 -17t12.5 -39q0 -86 -125 -117z" />
    <glyph glyph-name="kgreenlandic" unicode="&#x138;" horiz-adv-x="491" 
d="M89 435l145 24l-57 -205l2 -2l146 120q21 16 21 26q0 5 -2.5 8.5t-9.5 4.5t-13 1.5t-18 0.5l10 42h213l-11 -42q-62 -5 -106 -41l-124 -102l70 -178q15 -38 34 -38t63 34l-11 -62q-50 -38 -88 -38q-20 0 -35 12t-20.5 23t-13.5 34l-61 164l-71 -59l-46 -162h-76l101 357
q5 20 5 23q0 14 -18 14q-1 0 -41 -5z" />
    <glyph glyph-name="Lacute" unicode="&#x139;" horiz-adv-x="531" 
d="M186 672h234l-13 -47h-34q-15 0 -22 -1.5t-16 -11t-14 -28.5l-3 -12l-147 -516h202q35 0 46 9t18 36l14 45h61l-42 -146h-465l13 47h30q21 0 30 6.5t17 32.5l140 490q5 20 5 27q0 22 -38 22h-29zM338 859h95l-113 -130h-49z" />
    <glyph glyph-name="lacute" unicode="&#x13a;" horiz-adv-x="240" 
d="M158 680l147 24l-174 -616q-5 -22 -5 -23q0 -17 17 -17q20 0 57 28l-15 -61q-48 -30 -90 -30q-19 0 -35 13t-16 36q0 14 5 34l151 533l2 5q3 14 3 20q0 13 -17 13q-14 0 -22 -1l-20 -4zM271 883h95l-113 -130h-49z" />
    <glyph glyph-name="Lcommaaccent" unicode="&#x13b;" horiz-adv-x="531" 
d="M186 672h234l-13 -47h-34q-15 0 -22 -1.5t-16 -11t-14 -28.5l-3 -12l-147 -516h202q35 0 46 9t18 36l14 45h61l-42 -146h-465l13 47h30q21 0 30 6.5t17 32.5l140 490q5 20 5 27q0 22 -38 22h-29zM183 -219l7 33q47 9 58 42q-42 11 -42 50q0 18 15 33t36 15q26 0 38.5 -17
t12.5 -39q0 -86 -125 -117z" />
    <glyph glyph-name="lcommaaccent" unicode="&#x13c;" horiz-adv-x="240" 
d="M158 680l147 24l-174 -616q-5 -22 -5 -23q0 -17 17 -17q20 0 57 28l-15 -61q-48 -30 -90 -30q-19 0 -35 13t-16 36q0 14 5 34l151 533l2 5q3 14 3 20q0 13 -17 13q-14 0 -22 -1l-20 -4zM12 -219l7 33q47 9 58 42q-42 11 -42 50q0 18 15 33t36 15q26 0 38.5 -17t12.5 -39
q0 -86 -125 -117z" />
    <glyph glyph-name="Lcaron" unicode="&#x13d;" horiz-adv-x="531" 
d="M186 672h234l-13 -47h-34q-15 0 -22 -1.5t-16 -11t-14 -28.5l-3 -12l-147 -516h202q35 0 46 9t18 36l14 45h61l-42 -146h-465l13 47h30q21 0 30 6.5t17 32.5l140 490q5 20 5 27q0 22 -38 22h-29zM417 474l7 44q62 26 75 81q-18 5 -29.5 19t-11.5 32q0 22 15 38t38 16
t39 -17.5t16 -47.5q0 -47 -39.5 -95.5t-109.5 -69.5z" />
    <glyph glyph-name="lcaron" unicode="&#x13e;" horiz-adv-x="240" 
d="M158 680l147 24l-174 -616q-5 -22 -5 -23q0 -17 17 -17q20 0 57 28l-15 -61q-48 -30 -90 -30q-19 0 -35 13t-16 36q0 14 5 34l151 533l2 5q3 14 3 20q0 13 -17 13q-14 0 -22 -1l-20 -4zM300 474l7 44q62 26 75 81q-18 5 -29.5 19t-11.5 32q0 22 15 38t38 16t39 -17.5
t16 -47.5q0 -47 -39.5 -95.5t-109.5 -69.5z" />
    <glyph glyph-name="Ldot" unicode="&#x13f;" horiz-adv-x="531" 
d="M186 672h234l-13 -47h-34q-15 0 -22 -1.5t-16 -11t-14 -28.5l-3 -12l-147 -516h202q35 0 46 9t18 36l14 45h61l-42 -146h-465l13 47h30q21 0 30 6.5t17 32.5l140 490q5 20 5 27q0 22 -38 22h-29zM359 381q21 0 36 -14.5t15 -36.5q0 -21 -15 -36t-36 -15t-36 15t-15 36
q0 22 15 36.5t36 14.5z" />
    <glyph glyph-name="ldot" unicode="&#x140;" horiz-adv-x="299" 
d="M158 680l147 24l-174 -616q-5 -22 -5 -23q0 -17 17 -17q20 0 57 28l-15 -61q-48 -30 -90 -30q-19 0 -35 13t-16 36q0 14 5 34l151 533l2 5q3 14 3 20q0 13 -17 13q-14 0 -22 -1l-20 -4zM300 374q21 0 36 -14.5t15 -36.5q0 -21 -15 -36t-36 -15t-36 15t-15 36
q0 22 15 36.5t36 14.5z" />
    <glyph glyph-name="Lslash" unicode="&#x141;" horiz-adv-x="531" 
d="M170 350l65 226q5 15 5 27q0 22 -38 22h-29l13 47h234l-13 -47h-34q-13 0 -20.5 -1.5t-17 -11t-14.5 -28.5q0 -6 -3 -12l-49 -172l127 65l-21 -74l-127 -65l-77 -270h202q35 0 46 9t18 36l14 45h61l-42 -146h-465l13 47h30q21 0 30 6.5t17 32.5l54 189l-83 -42l22 75z
" />
    <glyph glyph-name="lslash" unicode="&#x142;" horiz-adv-x="240" 
d="M129 351l71 250q1 3 1 5q4 12 4 20q0 13 -17 13q-14 0 -22 -1l-20 -4l12 46l147 24l-86 -307l90 46l-20 -69l-90 -46l-68 -240q-5 -22 -5 -23q0 -17 17 -17q20 0 57 28l-15 -61q-48 -30 -90 -30q-19 0 -35 13t-16 36q0 14 5 34l61 214l-89 -45l19 68z" />
    <glyph glyph-name="Nacute" unicode="&#x143;" horiz-adv-x="698" 
d="M188 672h197l128 -550h2l129 454q5 17 5 28q0 21 -30 21h-38l14 47h207l-13 -47h-21q-29 0 -39 -10t-17 -35l-169 -590h-82l-146 620h-2l-144 -513q-6 -23 -6 -28q0 -22 33 -22h34l-13 -47h-211l13 47h28q24 0 33.5 6.5t17.5 35.5l138 487q5 20 5 28q0 21 -32 21h-35z
M530 859h95l-113 -130h-49z" />
    <glyph glyph-name="nacute" unicode="&#x144;" horiz-adv-x="500" 
d="M101 438l138 21q-3 -16 -6 -31t-5 -24l-3 -10l-1 -4q-2 -5 -2 -6l-12 -39l2 -2q89 124 174 124q38 0 62.5 -21t24.5 -61q0 -31 -22 -100l-57 -182q-8 -27 -8 -35q0 -19 16 -19q15 0 54 27l-14 -58q-51 -31 -90 -31q-20 0 -36 13.5t-16 38.5q0 11 3 24l71 232q18 56 18 80
q0 14 -8.5 23.5t-23.5 9.5q-49 0 -112 -86.5t-85 -153.5q-27 -86 -50 -168h-72l99 345q8 29 8 36q0 17 -19 17q-13 0 -42 -5zM354 654h95l-113 -130h-49z" />
    <glyph glyph-name="Ncommaaccent" unicode="&#x145;" horiz-adv-x="698" 
d="M188 672h197l128 -550h2l129 454q5 17 5 28q0 21 -30 21h-38l14 47h207l-13 -47h-21q-29 0 -39 -10t-17 -35l-169 -590h-82l-146 620h-2l-144 -513q-6 -23 -6 -28q0 -22 33 -22h34l-13 -47h-211l13 47h28q24 0 33.5 6.5t17.5 35.5l138 487q5 20 5 28q0 21 -32 21h-35z
M239 -219l7 33q47 9 58 42q-42 11 -42 50q0 18 15 33t36 15q26 0 38.5 -17t12.5 -39q0 -86 -125 -117z" />
    <glyph glyph-name="ncommaaccent" unicode="&#x146;" horiz-adv-x="500" 
d="M101 438l138 21q-3 -16 -6 -31t-5 -24l-3 -10l-1 -4q-2 -5 -2 -6l-12 -39l2 -2q89 124 174 124q38 0 62.5 -21t24.5 -61q0 -31 -22 -100l-57 -182q-8 -27 -8 -35q0 -19 16 -19q15 0 54 27l-14 -58q-51 -31 -90 -31q-20 0 -36 13.5t-16 38.5q0 11 3 24l71 232q18 56 18 80
q0 14 -8.5 23.5t-23.5 9.5q-49 0 -112 -86.5t-85 -153.5q-27 -86 -50 -168h-72l99 345q8 29 8 36q0 17 -19 17q-13 0 -42 -5zM128 -219l7 33q47 9 58 42q-42 11 -42 50q0 18 15 33t36 15q26 0 38.5 -17t12.5 -39q0 -86 -125 -117z" />
    <glyph glyph-name="Ncaron" unicode="&#x147;" horiz-adv-x="698" 
d="M188 672h197l128 -550h2l129 454q5 17 5 28q0 21 -30 21h-38l14 47h207l-13 -47h-21q-29 0 -39 -10t-17 -35l-169 -590h-82l-146 620h-2l-144 -513q-6 -23 -6 -28q0 -22 33 -22h34l-13 -47h-211l13 47h28q24 0 33.5 6.5t17.5 35.5l138 487q5 20 5 28q0 21 -32 21h-35z
M522 729h-73l-51 131h57l40 -84l88 84h65z" />
    <glyph glyph-name="ncaron" unicode="&#x148;" horiz-adv-x="500" 
d="M101 438l138 21q-3 -16 -6 -31t-5 -24l-3 -10l-1 -4q-2 -5 -2 -6l-12 -39l2 -2q89 124 174 124q38 0 62.5 -21t24.5 -61q0 -31 -22 -100l-57 -182q-8 -27 -8 -35q0 -19 16 -19q15 0 54 27l-14 -58q-51 -31 -90 -31q-20 0 -36 13.5t-16 38.5q0 11 3 24l71 232q18 56 18 80
q0 14 -8.5 23.5t-23.5 9.5q-49 0 -112 -86.5t-85 -153.5q-27 -86 -50 -168h-72l99 345q8 29 8 36q0 17 -19 17q-13 0 -42 -5zM365 524h-73l-51 131h57l40 -84l88 84h65z" />
    <glyph glyph-name="Eng" unicode="&#x14a;" horiz-adv-x="698" 
d="M712 580l-164 -580q-28 -106 -56 -148q-45 -71 -122 -71q-70 0 -121 52l34 122h50l-9 -40q-3 -9 -5 -32q-1 -24 17 -35.5t38 -11.5q35 0 58.5 34t46.5 130l-164 610h-2l-144 -513q-6 -23 -6 -28q0 -22 33 -22h34l-13 -47h-211l13 47h28q24 0 33.5 6.5t17.5 35.5l138 487
q5 20 5 28q0 21 -32 21h-35l14 47h197l139 -515l120 419q5 17 5 28q0 21 -30 21h-38l14 47h207l-13 -47h-21q-29 0 -39 -10t-17 -35z" />
    <glyph glyph-name="eng" unicode="&#x14b;" horiz-adv-x="500" 
d="M101 438l138 21q-3 -16 -6 -31t-5 -24l-3 -10l-1 -4q-2 -5 -2 -6l-12 -39l2 -2q89 124 174 124q38 0 62.5 -21t24.5 -61q0 -31 -22 -100l-95 -301q-62 -203 -194 -203q-35 0 -68 17l17 87h45l-1 -21q-3 -30 27 -30q25 0 44 22.5t41 92.5l107 346q18 56 18 80
q0 14 -8.5 23.5t-23.5 9.5q-49 0 -112 -86.5t-85 -153.5l-17 -56q-4 -8 -4 -12l-29 -100h-72l99 345q8 29 8 36q0 17 -19 17q-13 0 -42 -5z" />
    <glyph glyph-name="Omacron" unicode="&#x14c;" horiz-adv-x="708" 
d="M91 249q0 58 15 118.5t46 118t74 103t104.5 73.5t132.5 28q122 0 190 -73.5t68 -182.5q0 -56 -13.5 -116t-43.5 -120.5t-72 -108t-105 -77.5t-137 -30q-71 0 -124 26.5t-81 68.5t-41 85.5t-13 86.5zM176 244q0 -83 48 -141.5t133 -58.5q62 0 112 31.5t80 78t50.5 103
t28 103t7.5 81.5q0 74 -43.5 131.5t-134.5 57.5q-71 0 -127.5 -40t-88.5 -101.5t-48.5 -125t-16.5 -119.5zM343 806h279l-15 -54h-280z" />
    <glyph glyph-name="omacron" unicode="&#x14d;" horiz-adv-x="500" 
d="M58 165q0 123 70 214t182 91q74 0 126.5 -44t52.5 -128q0 -42 -13 -91.5t-40 -101.5t-78.5 -86t-119.5 -34q-43 0 -76 13t-52 32.5t-31.5 45.5t-16.5 47.5t-4 41.5zM138 162q0 -55 29 -88.5t77 -33.5q41 0 74.5 28.5t52 71.5t28.5 86.5t10 78.5q0 51 -28 81t-72 30
q-52 0 -92 -38.5t-59.5 -95.5t-19.5 -120zM191 601h279l-15 -54h-280z" />
    <glyph glyph-name="Obreve" unicode="&#x14e;" horiz-adv-x="708" 
d="M91 249q0 58 15 118.5t46 118t74 103t104.5 73.5t132.5 28q122 0 190 -73.5t68 -182.5q0 -56 -13.5 -116t-43.5 -120.5t-72 -108t-105 -77.5t-137 -30q-71 0 -124 26.5t-81 68.5t-41 85.5t-13 86.5zM176 244q0 -83 48 -141.5t133 -58.5q62 0 112 31.5t80 78t50.5 103
t28 103t7.5 81.5q0 74 -43.5 131.5t-134.5 57.5q-71 0 -127.5 -40t-88.5 -101.5t-48.5 -125t-16.5 -119.5zM390 853h47q0 -2 -1.5 -14t-1.5 -13q0 -18 12.5 -32.5t35.5 -14.5q55 0 81 74h50q-11 -48 -46 -86t-94 -38q-30 0 -50 9.5t-28 25t-10 25.5t-2 20q0 14 7 44z" />
    <glyph glyph-name="obreve" unicode="&#x14f;" horiz-adv-x="500" 
d="M58 165q0 123 70 214t182 91q74 0 126.5 -44t52.5 -128q0 -42 -13 -91.5t-40 -101.5t-78.5 -86t-119.5 -34q-43 0 -76 13t-52 32.5t-31.5 45.5t-16.5 47.5t-4 41.5zM138 162q0 -55 29 -88.5t77 -33.5q41 0 74.5 28.5t52 71.5t28.5 86.5t10 78.5q0 51 -28 81t-72 30
q-52 0 -92 -38.5t-59.5 -95.5t-19.5 -120zM234 648h47q0 -2 -1.5 -14t-1.5 -13q0 -18 12.5 -32.5t35.5 -14.5q55 0 81 74h50q-11 -48 -46 -86t-94 -38q-30 0 -50 9.5t-28 25t-10 25.5t-2 20q0 14 7 44z" />
    <glyph glyph-name="Ohungarumlaut" unicode="&#x150;" horiz-adv-x="708" 
d="M91 249q0 58 15 118.5t46 118t74 103t104.5 73.5t132.5 28q122 0 190 -73.5t68 -182.5q0 -56 -13.5 -116t-43.5 -120.5t-72 -108t-105 -77.5t-137 -30q-71 0 -124 26.5t-81 68.5t-41 85.5t-13 86.5zM176 244q0 -83 48 -141.5t133 -58.5q62 0 112 31.5t80 78t50.5 103
t28 103t7.5 81.5q0 74 -43.5 131.5t-134.5 57.5q-71 0 -127.5 -40t-88.5 -101.5t-48.5 -125t-16.5 -119.5zM423 859h95l-113 -130h-49zM568 859h95l-113 -130h-49z" />
    <glyph glyph-name="ohungarumlaut" unicode="&#x151;" horiz-adv-x="500" 
d="M58 165q0 123 70 214t182 91q74 0 126.5 -44t52.5 -128q0 -42 -13 -91.5t-40 -101.5t-78.5 -86t-119.5 -34q-43 0 -76 13t-52 32.5t-31.5 45.5t-16.5 47.5t-4 41.5zM138 162q0 -55 29 -88.5t77 -33.5q41 0 74.5 28.5t52 71.5t28.5 86.5t10 78.5q0 51 -28 81t-72 30
q-52 0 -92 -38.5t-59.5 -95.5t-19.5 -120zM278 654h95l-113 -130h-49zM423 654h95l-113 -130h-49z" />
    <glyph glyph-name="OE" unicode="&#x152;" horiz-adv-x="969" 
d="M1029 672l-40 -147h-63l13 43q5 16 5 24q0 16 -16 18q-18 2 -24 2h-203l-67 -236h141q32 0 42.5 7t19.5 33l7 20h54l-54 -189h-54l8 29q4 15 4 20q0 21 -36 21h-149l-75 -261h216q32 0 44 7.5t20 33.5l14 48h63l-43 -145h-379q-13 0 -45 -2t-45 -2q-90 0 -138 17t-84 56
q-70 77 -70 189q0 83 31.5 167t91.5 148q57 59 123 80.5t158 21.5q8 0 49 -1.5t48 -1.5h433zM473 111l126 443q6 22 6 29q0 13 -17 21.5t-42.5 11t-38 3.5t-21.5 1q-115 0 -180 -62q-54 -51 -88.5 -131.5t-34.5 -167.5q0 -97 55 -156q49 -53 158 -53q42 0 54.5 12t22.5 49z
" />
    <glyph glyph-name="oe" unicode="&#x153;" horiz-adv-x="750" 
d="M691 119l-17 -74q-73 -57 -152 -57q-91 0 -122 83q-12 -15 -21.5 -24.5t-30.5 -25.5t-49.5 -24.5t-63.5 -8.5q-88 0 -132 55.5t-44 127.5q0 51 16 102t46 95t79 71.5t108 27.5q33 0 59.5 -8.5t42 -18.5t28.5 -27t17.5 -26.5t10.5 -23.5q83 104 191 104q60 0 84.5 -28.5
t24.5 -66.5q0 -75 -75.5 -123.5t-180.5 -48.5q-29 0 -47 3q-6 -30 -6 -53q0 -40 25 -66.5t62 -26.5q60 0 147 62zM139 167q0 -46 24.5 -83t77.5 -37q45 0 80 29t52.5 71.5t26.5 81.5t9 68q0 48 -27.5 82.5t-75.5 34.5q-70 0 -118.5 -73t-48.5 -174zM473 253q1 0 16 -0.5
t23 -0.5q91 0 134 36.5t43 80.5q0 21 -13 34t-32 13q-15 0 -33.5 -6.5t-43 -22.5t-50 -51t-44.5 -83z" />
    <glyph glyph-name="Racute" unicode="&#x154;" horiz-adv-x="594" 
d="M184 672h228q74 0 113 -16q41 -18 63 -53.5t22 -78.5q0 -30 -8 -61t-26.5 -63.5t-55.5 -57.5t-87 -33l43 -183q12 -51 28 -65t54 -14h25l-13 -47h-146l-68 303h-121l-60 -213q-3 -17 -3 -22q0 -21 38 -21h29l-13 -47h-223l13 47h33q11 0 17 1t14 8.5t12 22.5q3 6 3 11
l140 492q3 10 3 24q0 19 -34 19h-34zM326 616l-74 -258h96q9 0 70 8q44 5 76.5 47.5t32.5 99.5q0 48 -27.5 75.5t-83.5 27.5h-90zM434 859h95l-113 -130h-49z" />
    <glyph glyph-name="racute" unicode="&#x155;" 
d="M92 435l135 20l-27 -110l2 -2q43 57 79 88t79 31q26 0 48 -13l-26 -92h-45q0 27 -19 27q-31 0 -65 -45q-39 -46 -57 -83.5t-42 -108.5l-5 -16l-33 -131h-68l87 352q5 22 5 27q0 15 -20 15q-24 0 -41 -5zM304 654h95l-113 -130h-49z" />
    <glyph glyph-name="Rcommaaccent" unicode="&#x156;" horiz-adv-x="594" 
d="M184 672h228q74 0 113 -16q41 -18 63 -53.5t22 -78.5q0 -30 -8 -61t-26.5 -63.5t-55.5 -57.5t-87 -33l43 -183q12 -51 28 -65t54 -14h25l-13 -47h-146l-68 303h-121l-60 -213q-3 -17 -3 -22q0 -21 38 -21h29l-13 -47h-223l13 47h33q11 0 17 1t14 8.5t12 22.5q3 6 3 11
l140 492q3 10 3 24q0 19 -34 19h-34zM326 616l-74 -258h96q9 0 70 8q44 5 76.5 47.5t32.5 99.5q0 48 -27.5 75.5t-83.5 27.5h-90zM244 -219l7 33q47 9 58 42q-42 11 -42 50q0 18 15 33t36 15q26 0 38.5 -17t12.5 -39q0 -86 -125 -117z" />
    <glyph glyph-name="rcommaaccent" unicode="&#x157;" 
d="M92 435l135 20l-27 -110l2 -2q43 57 79 88t79 31q26 0 48 -13l-26 -92h-45q0 27 -19 27q-31 0 -65 -45q-39 -46 -57 -83.5t-42 -108.5l-5 -16l-33 -131h-68l87 352q5 22 5 27q0 15 -20 15q-24 0 -41 -5zM12 -219l7 33q47 9 58 42q-42 11 -42 50q0 18 15 33t36 15
q26 0 38.5 -17t12.5 -39q0 -86 -125 -117z" />
    <glyph glyph-name="Rcaron" unicode="&#x158;" horiz-adv-x="594" 
d="M184 672h228q74 0 113 -16q41 -18 63 -53.5t22 -78.5q0 -30 -8 -61t-26.5 -63.5t-55.5 -57.5t-87 -33l43 -183q12 -51 28 -65t54 -14h25l-13 -47h-146l-68 303h-121l-60 -213q-3 -17 -3 -22q0 -21 38 -21h29l-13 -47h-223l13 47h33q11 0 17 1t14 8.5t12 22.5q3 6 3 11
l140 492q3 10 3 24q0 19 -34 19h-34zM326 616l-74 -258h96q9 0 70 8q44 5 76.5 47.5t32.5 99.5q0 48 -27.5 75.5t-83.5 27.5h-90zM418 729h-73l-51 131h57l40 -84l88 84h65z" />
    <glyph glyph-name="rcaron" unicode="&#x159;" 
d="M92 435l135 20l-27 -110l2 -2q43 57 79 88t79 31q26 0 48 -13l-26 -92h-45q0 27 -19 27q-31 0 -65 -45q-39 -46 -57 -83.5t-42 -108.5l-5 -16l-33 -131h-68l87 352q5 22 5 27q0 15 -20 15q-24 0 -41 -5zM285 524h-73l-51 131h57l40 -84l88 84h65z" />
    <glyph glyph-name="Sacute" unicode="&#x15a;" horiz-adv-x="531" 
d="M587 640l-36 -150h-67l11 50q4 16 4 39q0 25 -33 40.5t-71 15.5q-57 0 -93 -33t-36 -80q0 -35 20 -61.5t92 -93.5q38 -36 56.5 -57t36 -57.5t17.5 -75.5q0 -30 -11.5 -61.5t-36 -62.5t-72.5 -51t-113 -20q-114 0 -206 60l47 174h68l-15 -73q-3 -12 -3 -34q0 -36 37.5 -53
t82.5 -17q65 0 100.5 41t35.5 88q0 30 -15.5 59t-35 49t-64.5 62q-33 30 -51.5 51t-35.5 55t-17 69q0 73 58 125t159 52q107 0 187 -50zM426 859h95l-113 -130h-49z" />
    <glyph glyph-name="sacute" unicode="&#x15b;" horiz-adv-x="360" 
d="M377 439l-28 -108h-55l5 22q5 15 5 26q0 18 -16 30t-42 12q-38 0 -55.5 -20.5t-17.5 -44.5q0 -23 14 -41.5t59 -62.5q71 -68 71 -130q0 -58 -41.5 -97.5t-120.5 -39.5q-81 0 -144 39l29 115h58l-6 -24q-5 -15 -5 -29q0 -25 22 -37t50 -12q38 0 58 22.5t20 50.5
q0 22 -13.5 43.5t-55.5 62.5q-25 24 -37.5 38.5t-24.5 38.5t-12 49q0 46 38.5 87t114.5 41q67 0 130 -31zM274 654h95l-113 -130h-49z" />
    <glyph glyph-name="Scircumflex" unicode="&#x15c;" horiz-adv-x="531" 
d="M587 640l-36 -150h-67l11 50q4 16 4 39q0 25 -33 40.5t-71 15.5q-57 0 -93 -33t-36 -80q0 -35 20 -61.5t92 -93.5q38 -36 56.5 -57t36 -57.5t17.5 -75.5q0 -30 -11.5 -61.5t-36 -62.5t-72.5 -51t-113 -20q-114 0 -206 60l47 174h68l-15 -73q-3 -12 -3 -34q0 -36 37.5 -53
t82.5 -17q65 0 100.5 41t35.5 88q0 30 -15.5 59t-35 49t-64.5 62q-33 30 -51.5 51t-35.5 55t-17 69q0 73 58 125t159 52q107 0 187 -50zM399 860h73l51 -131h-57l-40 84l-88 -84h-65z" />
    <glyph glyph-name="scircumflex" unicode="&#x15d;" horiz-adv-x="360" 
d="M377 439l-28 -108h-55l5 22q5 15 5 26q0 18 -16 30t-42 12q-38 0 -55.5 -20.5t-17.5 -44.5q0 -23 14 -41.5t59 -62.5q71 -68 71 -130q0 -58 -41.5 -97.5t-120.5 -39.5q-81 0 -144 39l29 115h58l-6 -24q-5 -15 -5 -29q0 -25 22 -37t50 -12q38 0 58 22.5t20 50.5
q0 22 -13.5 43.5t-55.5 62.5q-25 24 -37.5 38.5t-24.5 38.5t-12 49q0 46 38.5 87t114.5 41q67 0 130 -31zM243 655h73l51 -131h-57l-40 84l-88 -84h-65z" />
    <glyph glyph-name="Scedilla" unicode="&#x15e;" horiz-adv-x="531" 
d="M587 640l-36 -150h-67l11 50q4 16 4 39q0 25 -33 40.5t-71 15.5q-57 0 -93 -33t-36 -80q0 -35 20 -61.5t92 -93.5q38 -36 56.5 -57t36 -57.5t17.5 -75.5q0 -29 -10.5 -58.5t-32.5 -59.5t-65 -51t-100 -25l-10 -21q15 -3 23.5 -6t19.5 -17t11 -35q0 -44 -41 -67.5
t-106 -23.5q-25 0 -49 4l14 41q10 -2 31 -2q88 0 88 42q0 32 -61 28l29 57q-103 5 -180 59l47 174h68l-15 -73q-3 -12 -3 -34q0 -36 37.5 -53t82.5 -17q65 0 100.5 41t35.5 88q0 30 -15.5 59t-35 49t-64.5 62q-33 30 -51.5 51t-35.5 55t-17 69q0 73 58 125t159 52
q107 0 187 -50z" />
    <glyph glyph-name="scedilla" unicode="&#x15f;" horiz-adv-x="360" 
d="M377 439l-28 -108h-55l5 22q5 15 5 26q0 18 -16 30t-42 12q-38 0 -55.5 -20.5t-17.5 -44.5q0 -23 14 -41.5t59 -62.5q71 -68 71 -130q0 -53 -35.5 -91.5t-103.5 -44.5l-12 -24q15 -3 23.5 -6t19.5 -17t11 -35q0 -44 -41 -67.5t-106 -23.5q-25 0 -49 4l14 41q10 -2 31 -2
q88 0 88 42q0 32 -61 28l31 61q-65 5 -116 37l29 115h58l-6 -24q-5 -15 -5 -29q0 -25 22 -37t50 -12q38 0 58 22.5t20 50.5q0 22 -13.5 43.5t-55.5 62.5q-25 24 -37.5 38.5t-24.5 38.5t-12 49q0 46 38.5 87t114.5 41q67 0 130 -31z" />
    <glyph glyph-name="Scaron" unicode="&#x160;" horiz-adv-x="531" 
d="M587 640l-36 -150h-67l11 50q4 16 4 39q0 25 -33 40.5t-71 15.5q-57 0 -93 -33t-36 -80q0 -35 20 -61.5t92 -93.5q38 -36 56.5 -57t36 -57.5t17.5 -75.5q0 -30 -11.5 -61.5t-36 -62.5t-72.5 -51t-113 -20q-114 0 -206 60l47 174h68l-15 -73q-3 -12 -3 -34q0 -36 37.5 -53
t82.5 -17q65 0 100.5 41t35.5 88q0 30 -15.5 59t-35 49t-64.5 62q-33 30 -51.5 51t-35.5 55t-17 69q0 73 58 125t159 52q107 0 187 -50zM436 729h-73l-51 131h57l40 -84l88 84h65z" />
    <glyph glyph-name="scaron" unicode="&#x161;" horiz-adv-x="360" 
d="M377 439l-28 -108h-55l5 22q5 15 5 26q0 18 -16 30t-42 12q-38 0 -55.5 -20.5t-17.5 -44.5q0 -23 14 -41.5t59 -62.5q71 -68 71 -130q0 -58 -41.5 -97.5t-120.5 -39.5q-81 0 -144 39l29 115h58l-6 -24q-5 -15 -5 -29q0 -25 22 -37t50 -12q38 0 58 22.5t20 50.5
q0 22 -13.5 43.5t-55.5 62.5q-25 24 -37.5 38.5t-24.5 38.5t-12 49q0 46 38.5 87t114.5 41q67 0 130 -31zM291 524h-73l-51 131h57l40 -84l88 84h65z" />
    <glyph glyph-name="Tcommaaccent" unicode="&#x162;" horiz-adv-x="604" 
d="M165 672h555l-47 -160h-61l15 54q5 22 5 30q0 9 -7 14t-14 5.5t-23 0.5h-119l-148 -517q-6 -19 -6 -32q0 -20 36 -20h34l-12 -47h-237l14 47h26q19 0 27 1.5t17 11.5t15 31l150 525h-119q-35 0 -47 -6.5t-21 -38.5l-17 -59h-62zM170 -219l7 33q47 9 58 42q-42 11 -42 50
q0 18 15 33t36 15q26 0 38.5 -17t12.5 -39q0 -86 -125 -117z" />
    <glyph glyph-name="tcommaaccent" unicode="&#x163;" horiz-adv-x="271" 
d="M235 577h43l-35 -122h81l-14 -53h-82l-80 -284q-9 -31 -9 -43q0 -11 7.5 -18t17.5 -7q18 0 85 31l-10 -56q-65 -37 -112 -37q-31 0 -49.5 17t-18.5 48q0 11 7 46q0 1 1.5 5.5t2.5 5.5l83 292h-76l10 36q49 18 83 48t65 91zM43 -219l7 33q47 9 58 42q-42 11 -42 50
q0 18 15 33t36 15q26 0 38.5 -17t12.5 -39q0 -86 -125 -117z" />
    <glyph glyph-name="Tcaron" unicode="&#x164;" horiz-adv-x="604" 
d="M165 672h555l-47 -160h-61l15 54q5 22 5 30q0 9 -7 14t-14 5.5t-23 0.5h-119l-148 -517q-6 -19 -6 -32q0 -20 36 -20h34l-12 -47h-237l14 47h26q19 0 27 1.5t17 11.5t15 31l150 525h-119q-35 0 -47 -6.5t-21 -38.5l-17 -59h-62zM479 729h-73l-51 131h57l40 -84l88 84h65z
" />
    <glyph glyph-name="tcaron" unicode="&#x165;" horiz-adv-x="317" 
d="M235 577h43l-35 -122h81l-14 -53h-82l-80 -284q-9 -31 -9 -43q0 -11 7.5 -18t17.5 -7q18 0 85 31l-10 -56q-65 -37 -112 -37q-31 0 -49.5 17t-18.5 48q0 11 7 46q0 1 1.5 5.5t2.5 5.5l83 292h-76l10 36q49 18 83 48t65 91zM305 485l7 44q51 21 62 70q-18 5 -29.5 19
t-11.5 32q0 22 15 38t38 16t39 -17.5t16 -47.5q0 -48 -33 -90.5t-103 -63.5z" />
    <glyph glyph-name="Tbar" unicode="&#x166;" horiz-adv-x="604" 
d="M170 393h151l64 223h-119q-35 0 -47 -6.5t-21 -38.5l-17 -59h-62l46 160h555l-47 -160h-61l15 54q5 22 5 30q0 9 -7 14t-14 5.5t-23 0.5h-119l-64 -223h149l-15 -54h-150l-68 -240q-6 -19 -6 -32q0 -20 36 -20h34l-12 -47h-237l14 47h26q19 0 27 1.5t17 11.5t15 31
l71 248h-152z" />
    <glyph glyph-name="tbar" unicode="&#x167;" horiz-adv-x="271" 
d="M62 318h67l24 84h-76l10 36q49 18 83 48t65 91h43l-35 -122h81l-14 -53h-82l-24 -84h87l-11 -53h-91l-41 -147q-9 -31 -9 -43q0 -11 7.5 -18t17.5 -7q18 0 85 31l-10 -56q-65 -37 -112 -37q-31 0 -49.5 17t-18.5 48q0 11 7 46q0 1 1.5 5.5t2.5 5.5l44 155h-64z" />
    <glyph glyph-name="Utilde" unicode="&#x168;" horiz-adv-x="698" 
d="M176 672h228l-14 -47h-26q-24 0 -34 -9t-19 -41l-95 -333q-16 -55 -16 -98q0 -49 38.5 -76.5t100.5 -27.5q70 0 118 34t76 133q0 5 3 11l103 365q4 10 4 19q0 11 -6.5 16t-13 6t-19.5 1h-29l13 47h215l-14 -47h-24q-25 0 -35 -10.5t-18 -39.5l-105 -364q-3 -10 -3 -12
q-16 -59 -42 -101t-52 -64t-60 -34.5t-57 -15t-53 -2.5q-112 0 -167 43q-59 47 -59 117q0 45 18 106l92 327q6 15 6 32q0 18 -38 18h-29zM612 823h48q-3 -49 -32 -71.5t-63 -22.5q-29 0 -58 18q-42 25 -55 25q-28 0 -39 -43h-52q7 48 35.5 72t62.5 24q24 0 55 -20
q38 -24 56 -24q31 0 42 42z" />
    <glyph glyph-name="utilde" unicode="&#x169;" horiz-adv-x="500" 
d="M99 439l155 20l-102 -323q-11 -30 -11 -51q0 -16 8.5 -25.5t21.5 -9.5q35 0 74.5 40t69.5 89q46 73 75 172l30 105l77 3l-104 -358q-6 -18 -6 -31q0 -17 13 -17q17 0 57 26l-14 -60q-56 -31 -85 -31q-19 0 -35 11t-16 36q0 23 18 79l-2 2q-25 -37 -46 -60.5t-57 -45.5
t-75 -22q-37 0 -60.5 22.5t-23.5 58.5q0 29 9 57l72 232q5 15 5 25q0 18 -30 15l-30 -3zM438 618h48q-3 -49 -32 -71.5t-63 -22.5q-29 0 -58 18q-42 25 -55 25q-28 0 -39 -43h-52q7 48 35.5 72t62.5 24q24 0 55 -20q38 -24 56 -24q31 0 42 42z" />
    <glyph glyph-name="Umacron" unicode="&#x16a;" horiz-adv-x="698" 
d="M176 672h228l-14 -47h-26q-24 0 -34 -9t-19 -41l-95 -333q-16 -55 -16 -98q0 -49 38.5 -76.5t100.5 -27.5q70 0 118 34t76 133q0 5 3 11l103 365q4 10 4 19q0 11 -6.5 16t-13 6t-19.5 1h-29l13 47h215l-14 -47h-24q-25 0 -35 -10.5t-18 -39.5l-105 -364q-3 -10 -3 -12
q-16 -59 -42 -101t-52 -64t-60 -34.5t-57 -15t-53 -2.5q-112 0 -167 43q-59 47 -59 117q0 45 18 106l92 327q6 15 6 32q0 18 -38 18h-29zM375 806h279l-15 -54h-280z" />
    <glyph glyph-name="umacron" unicode="&#x16b;" horiz-adv-x="500" 
d="M99 439l155 20l-102 -323q-11 -30 -11 -51q0 -16 8.5 -25.5t21.5 -9.5q35 0 74.5 40t69.5 89q46 73 75 172l30 105l77 3l-104 -358q-6 -18 -6 -31q0 -17 13 -17q17 0 57 26l-14 -60q-56 -31 -85 -31q-19 0 -35 11t-16 36q0 23 18 79l-2 2q-25 -37 -46 -60.5t-57 -45.5
t-75 -22q-37 0 -60.5 22.5t-23.5 58.5q0 29 9 57l72 232q5 15 5 25q0 18 -30 15l-30 -3zM203 601h279l-15 -54h-280z" />
    <glyph glyph-name="Ubreve" unicode="&#x16c;" horiz-adv-x="698" 
d="M176 672h228l-14 -47h-26q-24 0 -34 -9t-19 -41l-95 -333q-16 -55 -16 -98q0 -49 38.5 -76.5t100.5 -27.5q70 0 118 34t76 133q0 5 3 11l103 365q4 10 4 19q0 11 -6.5 16t-13 6t-19.5 1h-29l13 47h215l-14 -47h-24q-25 0 -35 -10.5t-18 -39.5l-105 -364q-3 -10 -3 -12
q-16 -59 -42 -101t-52 -64t-60 -34.5t-57 -15t-53 -2.5q-112 0 -167 43q-59 47 -59 117q0 45 18 106l92 327q6 15 6 32q0 18 -38 18h-29zM421 853h47q0 -2 -1.5 -14t-1.5 -13q0 -18 12.5 -32.5t35.5 -14.5q55 0 81 74h50q-11 -48 -46 -86t-94 -38q-30 0 -50 9.5t-28 25
t-10 25.5t-2 20q0 14 7 44z" />
    <glyph glyph-name="ubreve" unicode="&#x16d;" horiz-adv-x="500" 
d="M99 439l155 20l-102 -323q-11 -30 -11 -51q0 -16 8.5 -25.5t21.5 -9.5q35 0 74.5 40t69.5 89q46 73 75 172l30 105l77 3l-104 -358q-6 -18 -6 -31q0 -17 13 -17q17 0 57 26l-14 -60q-56 -31 -85 -31q-19 0 -35 11t-16 36q0 23 18 79l-2 2q-25 -37 -46 -60.5t-57 -45.5
t-75 -22q-37 0 -60.5 22.5t-23.5 58.5q0 29 9 57l72 232q5 15 5 25q0 18 -30 15l-30 -3zM256 648h47q0 -2 -1.5 -14t-1.5 -13q0 -18 12.5 -32.5t35.5 -14.5q55 0 81 74h50q-11 -48 -46 -86t-94 -38q-30 0 -50 9.5t-28 25t-10 25.5t-2 20q0 14 7 44z" />
    <glyph glyph-name="Uring" unicode="&#x16e;" horiz-adv-x="698" 
d="M176 672h228l-14 -47h-26q-24 0 -34 -9t-19 -41l-95 -333q-16 -55 -16 -98q0 -49 38.5 -76.5t100.5 -27.5q70 0 118 34t76 133q0 5 3 11l103 365q4 10 4 19q0 11 -6.5 16t-13 6t-19.5 1h-29l13 47h215l-14 -47h-24q-25 0 -35 -10.5t-18 -39.5l-105 -364q-3 -10 -3 -12
q-16 -59 -42 -101t-52 -64t-60 -34.5t-57 -15t-53 -2.5q-112 0 -167 43q-59 47 -59 117q0 45 18 106l92 327q6 15 6 32q0 18 -38 18h-29zM514 909q37 0 63.5 -26t26.5 -64q0 -37 -26.5 -63.5t-63.5 -26.5t-63.5 26.5t-26.5 63.5q0 38 26.5 64t63.5 26zM513 873
q-22 0 -38 -16t-16 -38t16 -38t38 -16q23 0 39 16t16 38t-16 38t-39 16z" />
    <glyph glyph-name="uring" unicode="&#x16f;" horiz-adv-x="500" 
d="M99 439l155 20l-102 -323q-11 -30 -11 -51q0 -16 8.5 -25.5t21.5 -9.5q35 0 74.5 40t69.5 89q46 73 75 172l30 105l77 3l-104 -358q-6 -18 -6 -31q0 -17 13 -17q17 0 57 26l-14 -60q-56 -31 -85 -31q-19 0 -35 11t-16 36q0 23 18 79l-2 2q-25 -37 -46 -60.5t-57 -45.5
t-75 -22q-37 0 -60.5 22.5t-23.5 58.5q0 29 9 57l72 232q5 15 5 25q0 18 -30 15l-30 -3zM346 704q37 0 63.5 -26t26.5 -64q0 -37 -26.5 -63.5t-63.5 -26.5t-63.5 26.5t-26.5 63.5q0 38 26.5 64t63.5 26zM345 668q-22 0 -38 -16t-16 -38t16 -38t38 -16q23 0 39 16t16 38
t-16 38t-39 16z" />
    <glyph glyph-name="Uhungarumlaut" unicode="&#x170;" horiz-adv-x="698" 
d="M176 672h228l-14 -47h-26q-24 0 -34 -9t-19 -41l-95 -333q-16 -55 -16 -98q0 -49 38.5 -76.5t100.5 -27.5q70 0 118 34t76 133q0 5 3 11l103 365q4 10 4 19q0 11 -6.5 16t-13 6t-19.5 1h-29l13 47h215l-14 -47h-24q-25 0 -35 -10.5t-18 -39.5l-105 -364q-3 -10 -3 -12
q-16 -59 -42 -101t-52 -64t-60 -34.5t-57 -15t-53 -2.5q-112 0 -167 43q-59 47 -59 117q0 45 18 106l92 327q6 15 6 32q0 18 -38 18h-29zM468 859h95l-113 -130h-49zM613 859h95l-113 -130h-49z" />
    <glyph glyph-name="uhungarumlaut" unicode="&#x171;" horiz-adv-x="500" 
d="M99 439l155 20l-102 -323q-11 -30 -11 -51q0 -16 8.5 -25.5t21.5 -9.5q35 0 74.5 40t69.5 89q46 73 75 172l30 105l77 3l-104 -358q-6 -18 -6 -31q0 -17 13 -17q17 0 57 26l-14 -60q-56 -31 -85 -31q-19 0 -35 11t-16 36q0 23 18 79l-2 2q-25 -37 -46 -60.5t-57 -45.5
t-75 -22q-37 0 -60.5 22.5t-23.5 58.5q0 29 9 57l72 232q5 15 5 25q0 18 -30 15l-30 -3zM303 654h95l-113 -130h-49zM448 654h95l-113 -130h-49z" />
    <glyph glyph-name="Uogonek" unicode="&#x172;" horiz-adv-x="698" 
d="M176 672h228l-14 -47h-26q-24 0 -34 -9t-19 -41l-95 -333q-16 -55 -16 -98q0 -49 38.5 -76.5t100.5 -27.5q70 0 118 34t76 133q0 5 3 11l103 365q4 10 4 19q0 11 -6.5 16t-13 6t-19.5 1h-29l13 47h215l-14 -47h-24q-25 0 -35 -10.5t-18 -39.5l-105 -364q-3 -10 -3 -12
q-39 -143 -134 -191h1q-79 -54 -79 -98q0 -17 12 -30.5t36 -13.5q30 0 57 16l-14 -49q-37 -14 -62 -14q-42 0 -66.5 23t-24.5 59q0 44 42 82q-11 -1 -32 -1q-112 0 -167 43q-59 47 -59 117q0 45 18 106l92 327q6 15 6 32q0 18 -38 18h-29z" />
    <glyph glyph-name="uogonek" unicode="&#x173;" horiz-adv-x="500" 
d="M99 439l155 20l-102 -323q-11 -30 -11 -51q0 -16 8.5 -25.5t21.5 -9.5q35 0 74.5 40t69.5 89q46 73 75 172l30 105l77 3l-104 -358l-1 -4q-1 -4 -1 -6q-4 -14 -4 -21q0 -17 13 -17q5 0 14 3t15 6t7 4q10 5 15 10l6 3l-14 -60q-1 0 -9 -4q-17 -9 -23 -12q-71 -51 -71 -93
q0 -17 12 -30.5t36 -13.5q30 0 57 16l-14 -49q-37 -14 -62 -14q-42 0 -66.5 23t-24.5 59q0 49 54 93q-25 11 -25 41q0 23 18 79l-2 2q-25 -37 -46 -60.5t-57 -45.5t-75 -22q-37 0 -60.5 22.5t-23.5 58.5q0 29 9 57l72 232q5 15 5 25q0 18 -30 15l-30 -3z" />
    <glyph glyph-name="Wcircumflex" unicode="&#x174;" horiz-adv-x="906" 
d="M148 672h220l-14 -47h-19q-16 0 -26.5 -3t-15 -10t-6 -13.5t-1.5 -17.5l-10 -457l2 -2l291 550h77l-13 -538l2 -2l230 440q12 24 12 32q0 21 -35 21h-29l14 47h210l-13 -47h-13q-21 0 -38 -11t-24.5 -22t-18.5 -32l-302 -569h-78l15 546l-2 2l-287 -548h-79l10 569
q1 25 -1 36.5t-12 20t-31 8.5h-30zM594 860h73l51 -131h-57l-40 84l-88 -84h-65z" />
    <glyph glyph-name="wcircumflex" unicode="&#x175;" horiz-adv-x="688" 
d="M39 446l132 24q27 -53 29 -140l3 -212h2l184 337h60l9 -367q171 209 171 289q0 29 -28 29q-11 0 -27 -2v36l91 30q36 -34 36 -79q0 -48 -41 -121q-50 -87 -138 -193l-67 -78q-6 -7 -11 -14h-60l-9 328h-2l-179 -328h-61l-5 183q-4 175 -17 213q-7 29 -37 29q-5 0 -21 -2
l-23 -4zM405 655h73l51 -131h-57l-40 84l-88 -84h-65z" />
    <glyph glyph-name="Ycircumflex" unicode="&#x176;" horiz-adv-x="625" 
d="M147 672h226l-15 -47h-30q-33 0 -33 -26q0 -7 5 -27l58 -232l200 228q23 26 23 37q0 20 -32 20h-21l13 47h215l-13 -47q-52 1 -91 -43l-271 -311l-53 -183q-5 -18 -5 -21q0 -20 41 -20h31l-14 -47h-234l14 47h29q25 0 35 8t17 33l50 174l-74 294q-10 42 -23.5 55.5
t-41.5 13.5h-19zM444 860h73l51 -131h-57l-40 84l-88 -84h-65z" />
    <glyph glyph-name="ycircumflex" unicode="&#x177;" horiz-adv-x="458" 
d="M345 439l93 31q34 -29 34 -76q0 -60 -52.5 -158t-185.5 -269q-102 -127 -152 -162q-34 -24 -75 -24q-28 0 -54 15l16 87h45v-20t4.5 -14t14.5 -5q41 0 153 152l-34 281q0 11 -2 15q-6 59 -17 90q-10 26 -35 26q-12 0 -36 -4l-5 -1q-5 -1 -6 -1l11 43l124 25
q18 -29 27 -59.5t15 -89.5l23 -237h2q8 14 9 15l32 46q25 34 66 109t41 116q0 35 -31 35q-12 0 -25 -3v37zM290 655h73l51 -131h-57l-40 84l-88 -84h-65z" />
    <glyph glyph-name="Ydieresis" unicode="&#x178;" horiz-adv-x="625" 
d="M147 672h226l-15 -47h-30q-33 0 -33 -26q0 -7 5 -27l58 -232l200 228q23 26 23 37q0 20 -32 20h-21l13 47h215l-13 -47q-52 1 -91 -43l-271 -311l-53 -183q-5 -18 -5 -21q0 -20 41 -20h31l-14 -47h-234l14 47h29q25 0 35 8t17 33l50 174l-74 294q-10 42 -23.5 55.5
t-41.5 13.5h-19zM378 818q18 0 31 -13t13 -32t-13 -31.5t-31 -12.5t-31 13t-13 31q0 19 13 32t31 13zM566 818q18 0 31 -13t13 -32t-13 -31.5t-31 -12.5t-31 13t-13 31q0 19 13 32t31 13z" />
    <glyph glyph-name="Zacute" unicode="&#x179;" horiz-adv-x="583" 
d="M199 672h465l-16 -60l-526 -552h275q32 0 45 6.5t20 31.5l14 52h63l-43 -150h-494l18 60l527 552h-257q-31 0 -40.5 -7.5t-16.5 -32.5l-15 -50h-61zM464 859h95l-113 -130h-49z" />
    <glyph glyph-name="zacute" unicode="&#x17a;" horiz-adv-x="417" 
d="M120 455h326l-15 -54l-315 -339h146q28 0 37.5 7t16.5 32l8 32h59l-37 -133h-341l15 52l317 342h-127q-34 0 -42.5 -6t-16.5 -30l-8 -23h-57zM313 654h95l-113 -130h-49z" />
    <glyph glyph-name="Zdotaccent" unicode="&#x17b;" horiz-adv-x="583" 
d="M199 672h465l-16 -60l-526 -552h275q32 0 45 6.5t20 31.5l14 52h63l-43 -150h-494l18 60l527 552h-257q-31 0 -40.5 -7.5t-16.5 -32.5l-15 -50h-61zM435 818q18 0 31 -13t13 -32t-13 -31.5t-31 -12.5t-31 13t-13 31q0 19 13 32t31 13z" />
    <glyph glyph-name="zdotaccent" unicode="&#x17c;" horiz-adv-x="417" 
d="M120 455h326l-15 -54l-315 -339h146q28 0 37.5 7t16.5 32l8 32h59l-37 -133h-341l15 52l317 342h-127q-34 0 -42.5 -6t-16.5 -30l-8 -23h-57zM288 613q18 0 31 -13t13 -32t-13 -31.5t-31 -12.5t-31 13t-13 31q0 19 13 32t31 13z" />
    <glyph glyph-name="Zcaron" unicode="&#x17d;" horiz-adv-x="583" 
d="M199 672h465l-16 -60l-526 -552h275q32 0 45 6.5t20 31.5l14 52h63l-43 -150h-494l18 60l527 552h-257q-31 0 -40.5 -7.5t-16.5 -32.5l-15 -50h-61zM473 729h-73l-51 131h57l40 -84l88 84h65z" />
    <glyph glyph-name="zcaron" unicode="&#x17e;" horiz-adv-x="417" 
d="M120 455h326l-15 -54l-315 -339h146q28 0 37.5 7t16.5 32l8 32h59l-37 -133h-341l15 52l317 342h-127q-34 0 -42.5 -6t-16.5 -30l-8 -23h-57zM319 524h-73l-51 131h57l40 -84l88 84h65z" />
    <glyph glyph-name="florin" unicode="&#x192;" horiz-adv-x="480" 
d="M550 681l-25 -87h-47q0 2 1.5 13t1.5 13q0 7 -2 14t-11.5 14.5t-25.5 7.5q-22 0 -39 -12.5t-27.5 -31t-18.5 -46.5t-11.5 -50.5t-7.5 -52.5h81l-11 -55h-75l-44 -361q-33 -266 -191 -266q-36 0 -72 17l13 82h48q-2 -6 -2 -20q0 -30 28 -30q48 0 69 76q19 62 32 183
l36 319h-77l12 55h71q5 28 9 46t13.5 51t23.5 54t34 44t50 34.5t67 11.5q46 0 97 -23z" />
    <glyph glyph-name="Aringacute" unicode="&#x1fa;" horiz-adv-x="646" 
d="M472 781q37 0 63.5 -26t26.5 -64q0 -55 -51 -81l25 -515q2 -30 12 -39t34 -9h28l-14 -47h-220l14 47h19q34 0 43 11t7 44l-5 99h-241l-61 -92q-19 -32 -19 -41q0 -21 35 -21h33l-13 -47h-222l13 47q39 0 56 8.5t42 46.5l341 516q-36 28 -36 73q0 38 26.5 64t63.5 26z
M436 538l-188 -283h204l-14 283h-2zM471 745q-22 0 -38 -16t-16 -38t16 -38t38 -16q23 0 39 16t16 38t-16 38t-39 16zM535 936h95l-113 -130h-49z" />
    <glyph glyph-name="aringacute" unicode="&#x1fb;" horiz-adv-x="521" 
d="M432 456l83 11l-101 -357q-9 -32 -9 -42q0 -16 14 -16q12 0 59 28l-14 -59q-48 -33 -90 -33q-24 0 -36 15t-12 34t7 38l-2 2q-77 -89 -159 -89q-55 0 -89 40t-34 109q0 74 35 150t97.5 128t132.5 52q72 0 108 -52zM133 143q0 -37 18.5 -64t50.5 -27q48 0 95 46
t74.5 110.5t27.5 119.5q0 34 -22 60t-57 26q-72 0 -129.5 -87t-57.5 -184zM367 704q37 0 63.5 -26t26.5 -64q0 -37 -26.5 -63.5t-63.5 -26.5t-63.5 26.5t-26.5 63.5q0 38 26.5 64t63.5 26zM366 668q-22 0 -38 -16t-16 -38t16 -38t38 -16q23 0 39 16t16 38t-16 38t-39 16z
M440 882h95l-113 -130h-49z" />
    <glyph glyph-name="AEacute" unicode="&#x1fc;" horiz-adv-x="906" 
d="M424 672h543l-41 -147h-61l12 40q0 1 2.5 12t2.5 17q0 18 -38 18h-204l-67 -237h140q32 0 43.5 7t20.5 37l6 17h54l-54 -189h-55l8 28q4 19 4 21q0 13 -9 17t-30 4h-145l-75 -261h213q27 0 40.5 5.5t17.5 12.5t10 25l13 46h63l-43 -145h-477l13 47h27q22 0 31.5 6.5
t15.5 20.5q7 22 8 25l35 120h-216l-98 -120q-20 -24 -20 -36q0 -16 36 -16h25l-14 -47h-211l14 47q18 0 28 1.5t23.5 9t26.5 22.5l402 496q19 22 19 32q0 18 -33 18h-20zM561 626l-283 -351h186l99 349zM754 859h95l-113 -130h-49z" />
    <glyph glyph-name="aeacute" unicode="&#x1fd;" horiz-adv-x="729" 
d="M432 456l76 11l-17 -65l2 -2q60 67 146 67q35 0 59 -11t33.5 -28t12.5 -29t3 -22q0 -71 -68 -124t-198 -53q-15 0 -37 2q-6 -26 -6 -46q0 -49 27 -75t62 -26q23 0 46.5 8.5t39.5 17.5t60 36l-16 -72q-76 -57 -152 -57q-54 0 -91 29t-49 87q-87 -116 -187 -116
q-37 0 -63.5 15t-38.5 33t-19 43t-8 36t-1 20q0 75 35 151t99 128.5t136 52.5q31 0 54.5 -11t31 -19t18.5 -23zM132 145q0 -37 19 -65t50 -28q74 0 135.5 93.5t61.5 180.5q0 40 -22.5 63.5t-53.5 23.5q-52 0 -97 -44.5t-69 -106t-24 -117.5zM454 254q10 -2 41 -2
q90 0 132.5 38t42.5 80q0 19 -12.5 32.5t-32.5 13.5q-42 0 -90.5 -40t-80.5 -122zM495 654h95l-113 -130h-49z" />
    <glyph glyph-name="Oslashacute" unicode="&#x1fe;" horiz-adv-x="708" 
d="M159 59l-84 -80l-40 43l90 86q-34 61 -34 146q0 68 23.5 141.5t67.5 140.5t118 110.5t163 43.5q124 0 192 -75l77 73l40 -44l-82 -78q31 -58 31 -132q0 -56 -13.5 -116t-43.5 -120.5t-72 -108t-105 -77.5t-137 -30q-117 0 -191 77zM626 505l-410 -392q49 -69 141 -69
q61 0 111.5 31.5t80 78t50 103t28.5 103t8 81.5q0 28 -9 64zM188 168l412 394q-48 68 -143 68q-59 0 -108.5 -28.5t-80.5 -71.5t-52.5 -96t-30.5 -99.5t-9 -83.5q0 -41 12 -83zM544 859h95l-113 -130h-49z" />
    <glyph glyph-name="oslashacute" unicode="&#x1ff;" horiz-adv-x="500" 
d="M110 31l-59 -59l-36 36l65 65q-22 40 -22 97q0 51 16 103t46.5 96.5t80 72.5t109.5 28q76 0 127 -45l60 60l36 -36l-64 -64q20 -38 20 -88q0 -41 -13 -90.5t-40 -101t-78.5 -86t-119.5 -34.5q-78 0 -128 46zM407 324l-246 -243q31 -41 83 -41q45 0 80.5 34t53 82
t25.5 93.5t4 74.5zM141 133l247 244q-28 39 -79 39q-54 0 -94.5 -41.5t-58.5 -97t-18 -110.5q0 -10 3 -34zM375 654h95l-113 -130h-49z" />
    <glyph glyph-name="Scommaaccent" unicode="&#x218;" horiz-adv-x="531" 
d="M587 640l-36 -150h-67l11 50q4 16 4 39q0 25 -33 40.5t-71 15.5q-57 0 -93 -33t-36 -80q0 -35 20 -61.5t92 -93.5q38 -36 56.5 -57t36 -57.5t17.5 -75.5q0 -30 -11.5 -61.5t-36 -62.5t-72.5 -51t-113 -20q-114 0 -206 60l47 174h68l-15 -73q-3 -12 -3 -34q0 -36 37.5 -53
t82.5 -17q65 0 100.5 41t35.5 88q0 30 -15.5 59t-35 49t-64.5 62q-33 30 -51.5 51t-35.5 55t-17 69q0 73 58 125t159 52q107 0 187 -50zM163 -219l7 33q47 9 58 42q-42 11 -42 50q0 18 15 33t36 15q26 0 38.5 -17t12.5 -39q0 -86 -125 -117z" />
    <glyph glyph-name="scommaaccent" unicode="&#x219;" horiz-adv-x="360" 
d="M377 439l-28 -108h-55l5 22q5 15 5 26q0 18 -16 30t-42 12q-38 0 -55.5 -20.5t-17.5 -44.5q0 -23 14 -41.5t59 -62.5q71 -68 71 -130q0 -58 -41.5 -97.5t-120.5 -39.5q-81 0 -144 39l29 115h58l-6 -24q-5 -15 -5 -29q0 -25 22 -37t50 -12q38 0 58 22.5t20 50.5
q0 22 -13.5 43.5t-55.5 62.5q-25 24 -37.5 38.5t-24.5 38.5t-12 49q0 46 38.5 87t114.5 41q67 0 130 -31zM65 -219l7 33q47 9 58 42q-42 11 -42 50q0 18 15 33t36 15q26 0 38.5 -17t12.5 -39q0 -86 -125 -117z" />
    <glyph glyph-name="uni021A" unicode="&#x21a;" horiz-adv-x="604" 
d="M165 672h555l-47 -160h-61l15 54q5 22 5 30q0 9 -7 14t-14 5.5t-23 0.5h-119l-148 -517q-6 -19 -6 -32q0 -20 36 -20h34l-12 -47h-237l14 47h26q19 0 27 1.5t17 11.5t15 31l150 525h-119q-35 0 -47 -6.5t-21 -38.5l-17 -59h-62zM170 -219l7 33q47 9 58 42q-42 11 -42 50
q0 18 15 33t36 15q26 0 38.5 -17t12.5 -39q0 -86 -125 -117z" />
    <glyph glyph-name="uni021B" unicode="&#x21b;" horiz-adv-x="271" 
d="M235 577h43l-35 -122h81l-14 -53h-82l-80 -284q-9 -31 -9 -43q0 -11 7.5 -18t17.5 -7q18 0 85 31l-10 -56q-65 -37 -112 -37q-31 0 -49.5 17t-18.5 48q0 11 7 46q0 1 1.5 5.5t2.5 5.5l83 292h-76l10 36q49 18 83 48t65 91zM43 -219l7 33q47 9 58 42q-42 11 -42 50
q0 18 15 33t36 15q26 0 38.5 -17t12.5 -39q0 -86 -125 -117z" />
    <glyph glyph-name="dotlessj" unicode="&#x237;" horiz-adv-x="250" 
d="M98 440l152 23l-138 -479q-9 -31 -15 -48.5t-22 -51t-33 -52.5t-46.5 -35t-64.5 -16q-37 0 -71 17l13 87h45v-21q-1 -30 28 -30q25 0 43 22.5t38 92.5l114 399q8 30 8 37q0 16 -17 16q-4 0 -11.5 -1t-9.5 -1l-26 -4z" />
    <glyph glyph-name="circumflex" unicode="&#x2c6;" 
d="M260 655h73l51 -131h-57l-40 84l-88 -84h-65z" />
    <glyph glyph-name="caron" unicode="&#x2c7;" 
d="M293 524h-73l-51 131h57l40 -84l88 84h65z" />
    <glyph glyph-name="uni02C9" unicode="&#x2c9;" 
d="M133 601h279l-15 -54h-280z" />
    <glyph glyph-name="breve" unicode="&#x2d8;" 
d="M177 648h47q0 -2 -1.5 -14t-1.5 -13q0 -18 12.5 -32.5t35.5 -14.5q55 0 81 74h50q-11 -48 -46 -86t-94 -38q-30 0 -50 9.5t-28 25t-10 25.5t-2 20q0 14 7 44z" />
    <glyph glyph-name="dotaccent" unicode="&#x2d9;" 
d="M261 613q18 0 31 -13t13 -32t-13 -31.5t-31 -12.5t-31 13t-13 31q0 19 13 32t31 13z" />
    <glyph glyph-name="ring" unicode="&#x2da;" 
d="M273 704q37 0 63.5 -26t26.5 -64q0 -37 -26.5 -63.5t-63.5 -26.5t-63.5 26.5t-26.5 63.5q0 38 26.5 64t63.5 26zM272 668q-22 0 -38 -16t-16 -38t16 -38t38 -16q23 0 39 16t16 38t-16 38t-39 16z" />
    <glyph glyph-name="ogonek" unicode="&#x2db;" 
d="M129 8h68q-79 -54 -79 -98q0 -17 12 -30.5t36 -13.5q30 0 57 16l-14 -49q-37 -14 -62 -14q-42 0 -66.5 23t-24.5 59q0 55 73 107z" />
    <glyph glyph-name="tilde" unicode="&#x2dc;" 
d="M368 618h48q-3 -49 -32 -71.5t-63 -22.5q-29 0 -58 18q-42 25 -55 25q-28 0 -39 -43h-52q7 48 35.5 72t62.5 24q24 0 55 -20q38 -24 56 -24q31 0 42 42z" />
    <glyph glyph-name="hungarumlaut" unicode="&#x2dd;" 
d="M219 654h95l-113 -130h-49zM364 654h95l-113 -130h-49z" />
    <glyph glyph-name="uni0374" unicode="&#x374;" horiz-adv-x="300" 
d="M282 715h103l-155 -174h-51z" />
    <glyph glyph-name="uni0375" unicode="&#x375;" horiz-adv-x="300" 
d="M44 -233h-102l156 184h51z" />
    <glyph glyph-name="uni037E" unicode="&#x37e;" horiz-adv-x="250" 
d="M22 -138l7 44q62 26 75 81q-18 5 -30 19t-12 32q0 22 15.5 38t38.5 16t39 -17.5t16 -47.5q0 -47 -39.5 -95.5t-109.5 -69.5zM221 470q21 0 36 -14.5t15 -36.5q0 -21 -15 -36t-36 -15t-36 15t-15 36q0 22 15 36.5t36 14.5z" />
    <glyph glyph-name="tonos" unicode="&#x384;" 
d="M184 714h87l-102 -172h-59z" />
    <glyph glyph-name="dieresistonos" unicode="&#x385;" 
d="M54 630q18 0 31 -12.5t13 -31.5q0 -18 -13 -31t-31 -13t-31 12.5t-13 31.5t13 31.5t31 12.5zM289 630q18 0 31 -12.5t13 -31.5q0 -18 -13 -31t-31 -13t-31 12.5t-13 31.5t13 31.5t31 12.5zM190 714h87l-105 -152h-41z" />
    <glyph glyph-name="Alphatonos" unicode="&#x386;" horiz-adv-x="646" 
d="M429 679h78l29 -584q2 -30 12 -39t34 -9h28l-14 -47h-220l14 47h19q34 0 43 11t7 44l-6 112h-237l-64 -105q-19 -32 -19 -41q0 -21 35 -21h33l-13 -47h-222l13 47q40 0 57 8.5t41 46.5zM434 572l-183 -301h199l-14 301h-2zM184 714h87l-102 -172h-59z" />
    <glyph glyph-name="anoteleia" unicode="&#x387;" horiz-adv-x="250" 
d="M180 374q21 0 36 -14.5t15 -36.5q0 -21 -15 -36t-36 -15t-36 15t-15 36q0 22 15 36.5t36 14.5z" />
    <glyph glyph-name="Epsilontonos" unicode="&#x388;" horiz-adv-x="714" 
d="M304 672h473l-41 -146h-61l13 45q4 15 4 21q0 10 -6 15t-13 5.5t-21 0.5h-203l-68 -237h143q31 0 41.5 7t18.5 34l7 20h55l-55 -189h-53l7 26q4 15 4 22q0 10 -7 15t-14 5.5t-21 0.5h-143l-74 -260h207q38 0 51 6.5t20 30.5l16 52h63l-42 -146h-482l13 47h28q23 0 34 8.5
t19 38.5l134 472q7 28 7 38q0 21 -38 21h-30zM184 714h87l-102 -172h-59z" />
    <glyph glyph-name="Etatonos" unicode="&#x389;" horiz-adv-x="856" 
d="M313 672h224l-11 -47h-22q-31 0 -40 -10t-21 -53l-50 -174h321l50 191q6 20 6 27q0 13 -9 16t-29 3h-28l10 47h228l-13 -47h-21q-30 0 -38.5 -9.5t-20.5 -50.5l-135 -463q-6 -22 -6 -31q0 -17 10 -20.5t57 -3.5l-13 -47h-225l13 47q48 2 59 8t21 41l66 234h-319l-64 -223
q-8 -30 -8 -37q0 -11 6.5 -16t13 -6t20.5 -1h27l-12 -47h-227l14 47h23q29 0 38.5 8.5t18.5 40.5l133 475q8 22 8 35q0 19 -42 19h-25zM184 714h87l-102 -172h-59z" />
    <glyph glyph-name="Iotatonos" unicode="&#x38a;" horiz-adv-x="453" 
d="M313 672h225l-13 -47h-19q-26 0 -38 -8t-20 -38l-135 -483q-6 -24 -6 -27q0 -22 34 -22h30l-13 -47h-226l13 47h29q24 0 33 8t17 35l138 483q5 19 5 31q0 21 -36 21h-31zM184 714h87l-102 -172h-59z" />
    <glyph glyph-name="Omicrontonos" unicode="&#x38c;" horiz-adv-x="772" 
d="M155 249q0 58 15 118.5t46 118t74 103t104.5 73.5t132.5 28q122 0 190 -73.5t68 -182.5q0 -56 -13.5 -116t-43.5 -120.5t-72 -108t-105 -77.5t-137 -30q-71 0 -124 26.5t-81 68.5t-41 85.5t-13 86.5zM240 244q0 -83 48 -141.5t133 -58.5q62 0 112 31.5t80 78t50.5 103
t28 103t7.5 81.5q0 74 -43.5 131.5t-134.5 57.5q-71 0 -127.5 -40t-88.5 -101.5t-48.5 -125t-16.5 -119.5zM184 714h87l-102 -172h-59z" />
    <glyph glyph-name="Upsilontonos" unicode="&#x38e;" horiz-adv-x="766" 
d="M288 672h226l-15 -47h-30q-33 0 -33 -26q0 -7 5 -27l58 -232l200 228q23 26 23 37q0 20 -32 20h-21l13 47h215l-13 -47q-52 1 -91 -43l-271 -311l-53 -183q-5 -18 -5 -21q0 -20 41 -20h31l-14 -47h-234l14 47h29q25 0 35 8t17 33l50 174l-74 294q-10 42 -23.5 55.5
t-41.5 13.5h-19zM184 714h87l-102 -172h-59z" />
    <glyph glyph-name="Omegatonos" unicode="&#x38f;" horiz-adv-x="805" 
d="M735 0h-311l21 75q107 44 186 147t79 233q0 71 -40.5 123t-129.5 52q-70 0 -127 -32.5t-91.5 -84.5t-52.5 -113t-18 -122q0 -131 96 -203l-21 -75h-282l41 144h63l-4 -14q-8 -27 -8 -37q0 -12 9.5 -15.5t36.5 -3.5h82l1 4q-99 83 -99 230q0 49 15 101.5t46 102.5t75 89.5
t107.5 64t136.5 24.5q123 0 186.5 -67.5t63.5 -174.5q0 -117 -69.5 -214.5t-179.5 -155.5l-1 -4h94q38 0 48 9t21 47l4 14h63zM184 714h87l-102 -172h-59z" />
    <glyph glyph-name="iotadieresistonos" unicode="&#x390;" horiz-adv-x="250" 
d="M97 444l151 23l-103 -367q-7 -25 -7 -35q0 -17 16 -17q18 0 55 27l-13 -59q-52 -31 -90 -31q-25 0 -37.5 14.5t-12.5 36.5q0 20 12 60l71 251q8 27 8 42q0 16 -15 16q-12 0 -36 -4l-12 -2zM108 630q18 0 31 -12.5t13 -31.5q0 -18 -13 -31t-31 -13t-31 12.5t-13 31.5
t13 31.5t31 12.5zM343 630q18 0 31 -12.5t13 -31.5q0 -18 -13 -31t-31 -13t-31 12.5t-13 31.5t13 31.5t31 12.5zM244 714h87l-105 -152h-41z" />
    <glyph glyph-name="Alpha" unicode="&#x391;" horiz-adv-x="646" 
d="M429 679h78l29 -584q2 -30 12 -39t34 -9h28l-14 -47h-220l14 47h19q34 0 43 11t7 44l-6 112h-237l-64 -105q-19 -32 -19 -41q0 -21 35 -21h33l-13 -47h-222l13 47q40 0 57 8.5t41 46.5zM434 572l-183 -301h199l-14 301h-2z" />
    <glyph glyph-name="Beta" unicode="&#x392;" horiz-adv-x="604" 
d="M189 672h225q75 0 110 -13q42 -16 63 -52t21 -77q0 -65 -34.5 -113.5t-96.5 -71.5q82 -35 82 -131q0 -61 -33 -112.5t-82 -77.5q-48 -24 -144 -24h-293l14 47h29q26 0 34 8t17 38l137 480q6 27 6 32q0 20 -35 20h-34zM329 614l-68 -237h102q66 0 94 16q29 16 49.5 50
t20.5 80q0 25 -8.5 43.5t-20 27.5t-29.5 13.5t-30 5.5t-30 1h-80zM333 321h-87l-76 -267h114q74 0 107 15q38 18 60.5 59.5t22.5 86.5q0 106 -141 106z" />
    <glyph glyph-name="Gamma" unicode="&#x393;" horiz-adv-x="552" 
d="M332 612l-147 -518q-6 -22 -6 -26q0 -21 38 -21h38l-13 -47h-235l13 47h29q24 0 33.5 9t18.5 41l137 484q5 19 5 22q0 10 -6 15.5t-11.5 6t-16.5 0.5h-34l13 47h478l-40 -146h-61l12 45q4 18 4 21q0 9 -6.5 14t-13.5 5.5t-20 0.5h-209z" />
    <glyph glyph-name="Delta" unicode="&#x394;" horiz-adv-x="585" 
d="M397 679h77l46 -619l-15 -60h-521l12 51zM412 590h-2q-14 -33 -30 -58l-291 -462h351l-28 461q-2 37 0 59z" />
    <glyph glyph-name="Epsilon" unicode="&#x395;" horiz-adv-x="594" 
d="M184 672h473l-41 -146h-61l13 45q4 15 4 21q0 10 -6 15t-13 5.5t-21 0.5h-203l-68 -237h143q31 0 41.5 7t18.5 34l7 20h55l-55 -189h-53l7 26q4 15 4 22q0 10 -7 15t-14 5.5t-21 0.5h-143l-74 -260h207q38 0 51 6.5t20 30.5l16 52h63l-42 -146h-482l13 47h28q23 0 34 8.5
t19 38.5l134 472q7 28 7 38q0 21 -38 21h-30z" />
    <glyph glyph-name="Zeta" unicode="&#x396;" horiz-adv-x="583" 
d="M199 672h465l-16 -60l-526 -552h275q32 0 45 6.5t20 31.5l14 52h63l-43 -150h-494l18 60l527 552h-257q-31 0 -40.5 -7.5t-16.5 -32.5l-15 -50h-61z" />
    <glyph glyph-name="Eta" unicode="&#x397;" horiz-adv-x="736" 
d="M193 672h224l-11 -47h-22q-31 0 -40 -10t-21 -53l-50 -174h321l50 191q6 20 6 27q0 13 -9 16t-29 3h-28l10 47h228l-13 -47h-21q-30 0 -38.5 -9.5t-20.5 -50.5l-135 -463q-6 -22 -6 -31q0 -17 10 -20.5t57 -3.5l-13 -47h-225l13 47q48 2 59 8t21 41l66 234h-319l-64 -223
q-8 -30 -8 -37q0 -11 6.5 -16t13 -6t20.5 -1h27l-12 -47h-227l14 47h23q29 0 38.5 8.5t18.5 40.5l133 475q8 22 8 35q0 19 -42 19h-25z" />
    <glyph glyph-name="Theta" unicode="&#x398;" horiz-adv-x="708" 
d="M91 249q0 58 15 118.5t46 118t74 103t104.5 73.5t132.5 28q122 0 190 -73.5t68 -182.5q0 -56 -13.5 -116t-43.5 -120.5t-72 -108t-105 -77.5t-137 -30q-71 0 -124 26.5t-81 68.5t-41 85.5t-13 86.5zM176 244q0 -83 48 -141.5t133 -58.5q62 0 112 31.5t80 78t50.5 103
t28 103t7.5 81.5q0 74 -43.5 131.5t-134.5 57.5q-71 0 -127.5 -40t-88.5 -101.5t-48.5 -125t-16.5 -119.5zM288 385h262l-26 -78h-262z" />
    <glyph glyph-name="Iota" unicode="&#x399;" 
d="M193 672h225l-13 -47h-19q-26 0 -38 -8t-20 -38l-135 -483q-6 -24 -6 -27q0 -22 34 -22h30l-13 -47h-226l13 47h29q24 0 33 8t17 35l138 483q5 19 5 31q0 21 -36 21h-31z" />
    <glyph glyph-name="Kappa" unicode="&#x39a;" horiz-adv-x="632" 
d="M187 672h223l-14 -47h-24q-26 0 -35.5 -9t-17.5 -37l-61 -216l2 -2l258 218q23 18 23 32t-23 14h-19l12 47h221l-12 -47q-19 0 -30.5 -1.5t-32.5 -10.5t-41 -27l-8 -7l-271 -228l162 -252q33 -52 87 -52h17l-13 -47h-224l13 47q27 0 36.5 2t9.5 12q0 11 -11 29l-163 250
l-68 -237q0 -2 -2 -10q-5 -15 -5 -25q0 -21 36 -21h31l-13 -47h-223l13 47h31q14 0 20.5 1.5t14 11t13.5 30.5l138 489q5 13 5 25q0 21 -36 21h-33z" />
    <glyph glyph-name="Lambda" unicode="&#x39b;" horiz-adv-x="641" 
d="M590 0h-224l14 47h29q26 0 33 12.5t6 40.5l-22 460h-2l-276 -454q-16 -24 -16 -39q0 -20 34 -20h28l-13 -47h-215l13 47h14q28 0 41.5 11t29.5 38l361 585h77l29 -585q2 -29 10 -39t37 -10h26z" />
    <glyph glyph-name="Mu" unicode="&#x39c;" horiz-adv-x="844" 
d="M187 672h199l13 -568h2l338 568h197l-14 -47h-24q-38 0 -49 -36q0 -1 -1.5 -6.5t-2.5 -6.5l-138 -486q0 -3 -2 -7q-3 -15 -3 -16q0 -20 43 -20h24l-13 -47h-222l13 47h22q29 0 39 8.5t20 43.5l150 524l-2 2l-370 -625h-79l-14 625h-2l-149 -531q-5 -18 -5 -24
q0 -23 34 -23h32l-14 -47h-204l13 47h31q22 0 31 7.5t18 39.5l137 477q6 27 6 34q0 12 -7.5 16t-24.5 4h-36z" />
    <glyph glyph-name="Nu" unicode="&#x39d;" horiz-adv-x="698" 
d="M188 672h197l128 -550h2l129 454q5 17 5 28q0 21 -30 21h-38l14 47h207l-13 -47h-21q-29 0 -39 -10t-17 -35l-169 -590h-82l-146 620h-2l-144 -513q-6 -23 -6 -28q0 -22 33 -22h34l-13 -47h-211l13 47h28q24 0 33.5 6.5t17.5 35.5l138 487q5 20 5 28q0 21 -32 21h-35z
" />
    <glyph glyph-name="Xi" unicode="&#x39e;" horiz-adv-x="638" 
d="M553 430l-54 -183h-57l6 21q7 26 -1.5 32.5t-39.5 6.5h-92q-31 0 -43.5 -6.5t-19.5 -32.5l-6 -21h-57l54 183h57l-3 -13q-9 -26 -3 -35t37 -9h102q31 0 41 8t19 36l3 13h57zM14 0l43 156h63l-10 -33q-9 -25 -4 -38.5t35 -13.5h306q30 0 39.5 11t17.5 41l10 33h63
l-43 -156h-520zM217 672h498l-45 -153h-64l11 37q9 30 0 39.5t-49 9.5h-246q-39 0 -52.5 -9t-22.5 -39l-11 -38l-64 -1z" />
    <glyph glyph-name="Omicron" unicode="&#x39f;" horiz-adv-x="708" 
d="M91 249q0 58 15 118.5t46 118t74 103t104.5 73.5t132.5 28q122 0 190 -73.5t68 -182.5q0 -56 -13.5 -116t-43.5 -120.5t-72 -108t-105 -77.5t-137 -30q-71 0 -124 26.5t-81 68.5t-41 85.5t-13 86.5zM176 244q0 -83 48 -141.5t133 -58.5q62 0 112 31.5t80 78t50.5 103
t28 103t7.5 81.5q0 74 -43.5 131.5t-134.5 57.5q-71 0 -127.5 -40t-88.5 -101.5t-48.5 -125t-16.5 -119.5z" />
    <glyph glyph-name="Pi" unicode="&#x3a0;" horiz-adv-x="721" 
d="M803 672l-13 -47h-21q-30 0 -38.5 -9.5t-20.5 -50.5l-135 -463q-6 -22 -6 -31q0 -17 10 -20.5t57 -3.5l-13 -47h-225l13 47q48 2 59 8t21 41l147 518h-309l-145 -507q-8 -30 -8 -37q0 -11 6.5 -16t13 -6t20.5 -1h27l-12 -47h-227l14 47h23q29 0 38.5 8.5t18.5 40.5
l133 472q8 28 8 38q0 19 -42 19h-25l12 47h619z" />
    <glyph glyph-name="Rho" unicode="&#x3a1;" horiz-adv-x="563" 
d="M185 672h226q77 0 119 -19q31 -14 50.5 -40t25 -47.5t5.5 -42.5q0 -16 -3.5 -36t-12.5 -48.5t-31 -57t-54 -47.5q-55 -32 -145 -32h-129l-59 -212q-4 -12 -4 -22q0 -21 37 -21h39l-13 -47h-232l14 47h24q25 0 36 8t19 35l139 486q5 15 5 30q0 19 -35 19h-34zM326 615
l-73 -257h114q60 3 86 16q34 18 54.5 55.5t20.5 80.5q0 34 -11 56.5t-31.5 32t-39 13t-44.5 3.5h-76z" />
    <glyph glyph-name="Sigma" unicode="&#x3a3;" horiz-adv-x="583" 
d="M198 672h453l-41 -146h-61l13 45q4 15 4 21q0 10 -6 15t-13 5.5t-21 0.5h-256l143 -245l-6 -24l-288 -272h278q32 0 45 6.5t20 31.5l14 58h63l-43 -168h-504l18 60l316 298l-148 256z" />
    <glyph glyph-name="Tau" unicode="&#x3a4;" horiz-adv-x="604" 
d="M165 672h555l-47 -160h-61l15 54q5 22 5 30q0 9 -7 14t-14 5.5t-23 0.5h-119l-148 -517q-6 -19 -6 -32q0 -20 36 -20h34l-12 -47h-237l14 47h26q19 0 27 1.5t17 11.5t15 31l150 525h-119q-35 0 -47 -6.5t-21 -38.5l-17 -59h-62z" />
    <glyph glyph-name="Upsilon" unicode="&#x3a5;" horiz-adv-x="625" 
d="M147 672h226l-15 -47h-30q-33 0 -33 -26q0 -7 5 -27l58 -232l200 228q23 26 23 37q0 20 -32 20h-21l13 47h215l-13 -47q-52 1 -91 -43l-271 -311l-53 -183q-5 -18 -5 -21q0 -20 41 -20h31l-14 -47h-234l14 47h29q25 0 35 8t17 33l50 174l-74 294q-10 42 -23.5 55.5
t-41.5 13.5h-19z" />
    <glyph glyph-name="Phi" unicode="&#x3a6;" horiz-adv-x="703" 
d="M151 311q0 -125 150 -140l93 330q-126 -1 -184.5 -52.5t-58.5 -137.5zM497 572l-5 -18q107 -10 164 -59t57 -130q0 -120 -89.5 -183t-252.5 -63l-4 -14q-4 -14 -4 -34q0 -24 33 -24h28l-13 -47h-224l13 47h24q24 0 36 10t19 36l7 25q-107 10 -163.5 59t-56.5 130
q0 120 90 183t253 63l5 17q5 20 5 33q0 22 -36 22h-30l13 47h222l-13 -47h-14q-29 0 -42 -10.5t-22 -42.5zM628 361q0 125 -150 140l-92 -330q126 1 184 52.5t58 137.5z" />
    <glyph glyph-name="Chi" unicode="&#x3a7;" horiz-adv-x="625" 
d="M168 672h213l-12 -47h-15q-37 0 -37 -22q0 -10 7 -31l57 -160l147 164q19 19 19 33q0 16 -29 16h-23l13 47h211l-12 -47q-54 0 -87 -37l-217 -241l88 -250q11 -32 22 -41t34 -9h25l-14 -47h-213l13 47q17 0 25.5 1t17 6t8.5 16q0 5 -6 23l-63 184l-169 -190
q-14 -14 -14 -24q0 -16 32 -16h19l-12 -47h-211l13 47q23 2 34.5 4.5t28.5 13t36 32.5l221 245l-81 230l-2 7q-7 21 -18.5 32t-19.5 12.5t-21 1.5h-21z" />
    <glyph glyph-name="Psi" unicode="&#x3a8;" horiz-adv-x="809" 
d="M825 575l-39 -138q-34 -121 -117 -186t-235 -69l-25 -83q-7 -26 -7 -34q0 -11 9 -14.5t34 -3.5h17l-13 -47h-221l13 47h20q33 0 42.5 9t19.5 45l24 81q-103 8 -157.5 56.5t-54.5 131.5q0 46 20 117l26 89q6 18 6 29t-9 15.5t-33 4.5h-17l13 47h221l-13 -47h-15
q-36 0 -46.5 -9t-20.5 -41l-31 -108q-16 -55 -16 -96q0 -55 34.5 -90t109.5 -38l96 333q6 24 6 29q0 11 -9 15.5t-33 4.5h-17l13 47h221l-13 -47h-15q-36 0 -46.5 -9t-20.5 -41l-95 -332q193 4 248 194l40 139q6 24 6 29q0 11 -9 15.5t-33 4.5h-17l13 47h221l-13 -47h-15
q-36 0 -46.5 -9t-20.5 -41z" />
    <glyph glyph-name="Omega" unicode="&#x3a9;" horiz-adv-x="750" 
d="M680 0h-311l21 75q107 44 186 147t79 233q0 71 -40.5 123t-129.5 52q-70 0 -127 -32.5t-91.5 -84.5t-52.5 -113t-18 -122q0 -131 96 -203l-21 -75h-282l41 144h63l-4 -14q-8 -27 -8 -37q0 -12 9.5 -15.5t36.5 -3.5h82l1 4q-99 83 -99 230q0 49 15 101.5t46 102.5t75 89.5
t107.5 64t136.5 24.5q123 0 186.5 -67.5t63.5 -174.5q0 -117 -69.5 -214.5t-179.5 -155.5l-1 -4h94q38 0 48 9t21 47l4 14h63z" />
    <glyph glyph-name="Iotadieresis" unicode="&#x3aa;" 
d="M193 672h225l-13 -47h-19q-26 0 -38 -8t-20 -38l-135 -483q-6 -24 -6 -27q0 -22 34 -22h30l-13 -47h-226l13 47h29q24 0 33 8t17 35l138 483q5 19 5 31q0 21 -36 21h-31zM228 843q18 0 31 -13t13 -32t-13 -31.5t-31 -12.5t-31 13t-13 31q0 19 13 32t31 13zM416 843
q18 0 31 -13t13 -32t-13 -31.5t-31 -12.5t-31 13t-13 31q0 19 13 32t31 13z" />
    <glyph glyph-name="Upsilondieresis" unicode="&#x3ab;" horiz-adv-x="625" 
d="M147 672h226l-15 -47h-30q-33 0 -33 -26q0 -7 5 -27l58 -232l200 228q23 26 23 37q0 20 -32 20h-21l13 47h215l-13 -47q-52 1 -91 -43l-271 -311l-53 -183q-5 -18 -5 -21q0 -20 41 -20h31l-14 -47h-234l14 47h29q25 0 35 8t17 33l50 174l-74 294q-10 42 -23.5 55.5
t-41.5 13.5h-19zM380 843q18 0 31 -13t13 -32t-13 -31.5t-31 -12.5t-31 13t-13 31q0 19 13 32t31 13zM568 843q18 0 31 -13t13 -32t-13 -31.5t-31 -12.5t-31 13t-13 31q0 19 13 32t31 13z" />
    <glyph glyph-name="alphatonos" unicode="&#x3ac;" horiz-adv-x="551" 
d="M487 470h88q-36 -45 -72.5 -111t-52.5 -125q-17 -63 -17 -133q0 -46 26 -46q22 0 59 24l-14 -62q-42 -29 -82 -29q-24 0 -38.5 15.5t-17.5 29.5t-3 30q0 26 2 52l-2 2q-40 -63 -84.5 -96t-109.5 -33q-55 0 -89 40t-34 109q0 73 33 148.5t95.5 128.5t136.5 53
q55 0 84 -32.5t32 -76.5q5 16 25.5 55t34.5 57zM130 143q0 -44 19.5 -67.5t49.5 -23.5q51 0 94.5 47t65 107.5t21.5 111.5q0 40 -18 68t-51 28q-70 0 -125.5 -89t-55.5 -182zM380 714h87l-102 -172h-59z" />
    <glyph glyph-name="epsilontonos" unicode="&#x3ad;" horiz-adv-x="441" 
d="M294 279h45l-17 -60h-49q-151 0 -151 -90q0 -36 25.5 -57t75.5 -21q80 0 171 57l-17 -74q-82 -49 -171 -49q-80 0 -122 37t-42 95q0 57 42 93t120 46q-83 19 -83 91q0 53 48.5 88t134.5 35q78 0 146 -32l-28 -107h-55l4 14q5 20 5 31q0 20 -19 32.5t-59 12.5
q-44 0 -71.5 -18t-27.5 -56q0 -29 22.5 -48.5t72.5 -19.5zM338 714h87l-102 -172h-59z" />
    <glyph glyph-name="etatonos" unicode="&#x3ae;" horiz-adv-x="513" 
d="M219 342h2q89 125 185 125q41 0 65.5 -23.5t24.5 -69.5q0 -39 -23 -112l-142 -453l-80 -1l145 461q20 64 20 92q0 47 -36 47q-54 0 -119.5 -86t-87.5 -154l-54 -168h-75l93 294q16 49 16 77q0 29 -26 29q-22 0 -59 -24l14 62q42 29 82 29q31 0 45 -21.5t14 -51.5
q0 -16 -4 -52zM381 714h87l-102 -172h-59z" />
    <glyph glyph-name="iotatonos" unicode="&#x3af;" horiz-adv-x="250" 
d="M97 444l151 23l-103 -367q-7 -25 -7 -35q0 -17 16 -17q18 0 55 27l-13 -59q-52 -31 -90 -31q-25 0 -37.5 14.5t-12.5 36.5q0 20 12 60l71 251q8 27 8 42q0 16 -15 16q-12 0 -36 -4l-12 -2zM266 714h87l-102 -172h-59z" />
    <glyph glyph-name="upsilondieresistonos" unicode="&#x3b0;" horiz-adv-x="504" 
d="M355 441l134 18q3 -22 3 -60q0 -98 -38 -192t-107 -156.5t-150 -62.5q-58 0 -88 31t-30 86q0 50 20 112l37 121q10 34 10 43q0 17 -21 17q-10 0 -42 -2l13 43l157 21l-77 -251q-16 -52 -16 -91q0 -65 57 -65q52 0 100 51.5t74.5 120.5t26.5 127q0 48 -42 48q-16 0 -34 -2
zM224 630q18 0 31 -12.5t13 -31.5q0 -18 -13 -31t-31 -13t-31 12.5t-13 31.5t13 31.5t31 12.5zM459 630q18 0 31 -12.5t13 -31.5q0 -18 -13 -31t-31 -13t-31 12.5t-13 31.5t13 31.5t31 12.5zM360 714h87l-105 -152h-41z" />
    <glyph glyph-name="alpha" unicode="&#x3b1;" horiz-adv-x="551" 
d="M487 470h88q-36 -45 -72.5 -111t-52.5 -125q-17 -63 -17 -133q0 -46 26 -46q22 0 59 24l-14 -62q-42 -29 -82 -29q-24 0 -38.5 15.5t-17.5 29.5t-3 30q0 26 2 52l-2 2q-40 -63 -84.5 -96t-109.5 -33q-55 0 -89 40t-34 109q0 73 33 148.5t95.5 128.5t136.5 53
q55 0 84 -32.5t32 -76.5q5 16 25.5 55t34.5 57zM130 143q0 -44 19.5 -67.5t49.5 -23.5q51 0 94.5 47t65 107.5t21.5 111.5q0 40 -18 68t-51 28q-70 0 -125.5 -89t-55.5 -182z" />
    <glyph glyph-name="beta" unicode="&#x3b2;" horiz-adv-x="485" 
d="M99 319q61 205 122 295t158 90q64 0 92.5 -31t28.5 -73q0 -71 -49 -117.5t-138 -81.5q61 0 106.5 -37.5t45.5 -119.5q0 -37 -13.5 -79t-41 -84t-78 -69t-114.5 -27q-148 0 -150 152q0 79 31 182zM381 243q0 32 -9.5 56t-31 40.5t-62 16t-96.5 -19.5l-2 -7
q-34 -114 -34 -190q0 -47 22.5 -74t59.5 -27q71 0 112 67.5t41 137.5zM200 395q121 49 172 92.5t51 104.5q0 25 -13.5 42.5t-40.5 17.5q-40 0 -85.5 -64.5t-83.5 -192.5z" />
    <glyph glyph-name="gamma" unicode="&#x3b3;" horiz-adv-x="459" 
d="M50 445l123 25q32 -37 45.5 -145t9.5 -238q8 10 36.5 42.5t48 57.5t43 59t36 68.5t12.5 66.5q0 9 -6.5 18t-21.5 9q-13 0 -29 -4v38l92 31q36 -31 36 -76q0 -55 -30 -116.5t-64.5 -103t-85 -97.5t-67.5 -77l-57 -194h-91l71 191q18 169 -16 326q-10 45 -22 64t-37 20
q-16 0 -36 -5z" />
    <glyph glyph-name="delta" unicode="&#x3b4;" horiz-adv-x="487" 
d="M52 153q0 106 65.5 183.5t172.5 77.5q8 0 12 -1q-7 6 -26.5 22t-28 23t-22.5 21.5t-20 25t-11.5 26t-5.5 31.5q0 54 43.5 88.5t125.5 34.5q88 0 166 -41l-28 -108h-55q10 39 10 48q0 19 -27.5 35.5t-67.5 16.5q-41 0 -64.5 -18t-23.5 -47q0 -22 20.5 -45t49.5 -46.5
t57.5 -52t49 -72.5t20.5 -96q0 -40 -12.5 -83.5t-38.5 -88t-75 -73.5t-114 -29q-50 0 -86.5 17t-53.5 45t-24.5 54t-7.5 52zM129 153q0 -53 27 -83t74 -30q53 0 91 40.5t52.5 88.5t14.5 91q0 51 -25.5 78.5t-69.5 27.5q-74 0 -119 -66t-45 -147z" />
    <glyph glyph-name="epsilon" unicode="&#x3b5;" horiz-adv-x="441" 
d="M294 279h45l-17 -60h-49q-151 0 -151 -90q0 -36 25.5 -57t75.5 -21q80 0 171 57l-17 -74q-82 -49 -171 -49q-80 0 -122 37t-42 95q0 57 42 93t120 46q-83 19 -83 91q0 53 48.5 88t134.5 35q78 0 146 -32l-28 -107h-55l4 14q5 20 5 31q0 20 -19 32.5t-59 12.5
q-44 0 -71.5 -18t-27.5 -56q0 -29 22.5 -48.5t72.5 -19.5z" />
    <glyph glyph-name="zeta" unicode="&#x3b6;" horiz-adv-x="395" 
d="M221 686h320l-18 -64q-193 -138 -289 -242t-96 -199q0 -41 23.5 -61t72.5 -36q55 -19 81.5 -42t26.5 -62q0 -40 -26.5 -76.5t-99.5 -82.5h-103q82 53 115 84.5t33 55.5q0 22 -16.5 35t-70.5 31q-61 20 -91 52.5t-30 91.5q0 60 33 123.5t91 122t122 108.5t139 97h-235z
" />
    <glyph glyph-name="eta" unicode="&#x3b7;" horiz-adv-x="513" 
d="M219 342h2q89 125 185 125q41 0 65.5 -23.5t24.5 -69.5q0 -39 -23 -112l-142 -453l-80 -1l145 461q20 64 20 92q0 47 -36 47q-54 0 -119.5 -86t-87.5 -154l-54 -168h-75l93 294q16 49 16 77q0 29 -26 29q-22 0 -59 -24l14 62q42 29 82 29q31 0 45 -21.5t14 -51.5
q0 -16 -4 -52z" />
    <glyph glyph-name="theta" unicode="&#x3b8;" horiz-adv-x="487" 
d="M72 151q0 86 33 205t79 195q66 108 171 108q137 0 137 -160q0 -91 -33 -206.5t-82 -198.5q-63 -108 -168 -108q-66 0 -101.5 41.5t-35.5 123.5zM150 127q0 -40 16.5 -63t47.5 -23q53 0 90 62q47 80 78 202h-209q-23 -90 -23 -178zM254 534q-33 -61 -68 -176h209
q21 86 21 152q0 94 -68 94q-56 0 -94 -70z" />
    <glyph glyph-name="iota" unicode="&#x3b9;" horiz-adv-x="250" 
d="M97 444l151 23l-103 -367q-7 -25 -7 -35q0 -17 16 -17q18 0 55 27l-13 -59q-52 -31 -90 -31q-25 0 -37.5 14.5t-12.5 36.5q0 20 12 60l71 251q8 27 8 42q0 16 -15 16q-12 0 -36 -4l-12 -2z" />
    <glyph glyph-name="kappa" unicode="&#x3ba;" horiz-adv-x="494" 
d="M94 438l139 21q-1 -33 -26 -114l-34 -108l109 111q39 41 61.5 61t56 37.5t67.5 17.5q41 0 71 -14l-28 -103h-47q2 12 2 22q0 29 -22 29q-32 0 -109 -76l-49 -48l70 -182q15 -38 34 -38t63 34l-11 -62q-47 -38 -88 -38q-20 0 -35 12t-20.5 23t-13.5 34l-60 166l-73 -70
l-43 -153h-79l97 318q15 48 15 63q0 17 -19 17q-13 0 -42 -5z" />
    <glyph glyph-name="lambda" unicode="&#x3bb;" horiz-adv-x="481" 
d="M311 370l-237 -370h-97l334 491v42q0 50 -16.5 74.5t-44.5 24.5q-39 0 -52 -41l-5 -16h-56l30 103q43 18 89 18q120 0 121 -162l2 -425q0 -55 33 -55q17 0 64 21l-18 -63q-53 -25 -79 -25q-68 0 -68 88v295z" />
    <glyph glyph-name="mu" unicode="&#x3bc;" horiz-adv-x="530" 
d="M107 439l162 20l-96 -283q-15 -48 -15 -79q0 -19 10 -33t30 -14q29 0 70.5 41t68.5 85q44 70 75 175l30 105l79 3l-101 -340q-10 -34 -10 -52q0 -14 13 -14q16 0 56 26l-14 -60q-57 -31 -88 -31q-22 0 -34 12t-12 31q0 30 17 83l-2 2q-88 -128 -169 -128q-43 0 -58 31
l-59 -211h-81l161 518q12 38 12 52q0 25 -36 20l-21 -3z" />
    <glyph glyph-name="nu" unicode="&#x3bd;" horiz-adv-x="450" 
d="M52 445l128 26q28 -53 28 -131l7 -259q84 67 132 152t48 136q0 36 -28 36q-13 0 -29 -4v38l96 33q32 -28 32 -78q0 -173 -273 -409h-51l-12 307q-2 66 -15.5 90.5t-43.5 24.5q-14 0 -31 -3z" />
    <glyph glyph-name="xi" unicode="&#x3be;" horiz-adv-x="386" 
d="M126 176q0 -35 21.5 -58.5t69.5 -39.5q101 -34 101 -105q0 -40 -30.5 -74.5t-93.5 -77.5h-97q138 93 138 140q0 18 -13 30t-48 25q-64 23 -99 56.5t-35 91.5q0 81 62.5 130.5t160.5 66.5v1q-49 8 -76 33t-27 67q0 114 202 164q-58 -4 -87 -4h-81l18 64h304l-16 -56
q-103 -24 -159 -50t-73.5 -51t-17.5 -63q0 -83 147 -83l-16 -58q-121 0 -188 -40.5t-67 -108.5z" />
    <glyph glyph-name="omicron" unicode="&#x3bf;" horiz-adv-x="500" 
d="M58 165q0 123 70 214t182 91q74 0 126.5 -44t52.5 -128q0 -42 -13 -91.5t-40 -101.5t-78.5 -86t-119.5 -34q-43 0 -76 13t-52 32.5t-31.5 45.5t-16.5 47.5t-4 41.5zM138 162q0 -55 29 -88.5t77 -33.5q41 0 74.5 28.5t52 71.5t28.5 86.5t10 78.5q0 51 -28 81t-72 30
q-52 0 -92 -38.5t-59.5 -95.5t-19.5 -120z" />
    <glyph glyph-name="pi" unicode="&#x3c0;" horiz-adv-x="583" 
d="M409 390h-141l-122 -390h-77l122 390h-13q-75 0 -121 -27l18 69q40 23 109 23h434l-17 -65h-117l-68 -233q-16 -53 -16 -77q0 -31 31 -31q30 0 99 33l-14 -58q-62 -36 -118 -36q-35 0 -56.5 21.5t-21.5 55.5q0 27 20 96z" />
    <glyph glyph-name="rho" unicode="&#x3c1;" horiz-adv-x="519" 
d="M-36 -210l131 439q35 118 94.5 178t154.5 60q76 0 120 -44.5t44 -127.5q0 -46 -16 -97.5t-45.5 -100t-81 -80.5t-113.5 -32q-52 0 -86.5 23.5t-43.5 49.5l-81 -268h-77zM160 141q0 -41 26 -68.5t67 -27.5q53 0 94 46.5t58.5 102.5t17.5 102q0 52 -22 82.5t-65 30.5
q-37 0 -68.5 -22.5t-50.5 -55.5t-32.5 -71.5t-19 -69t-5.5 -49.5z" />
    <glyph glyph-name="sigma1" unicode="&#x3c2;" horiz-adv-x="417" 
d="M54 185q0 49 18.5 99t51.5 91.5t85 68t113 26.5q70 0 130 -31l-29 -116h-58l2 9q4 14 4 34q0 50 -58 50q-71 0 -121.5 -73t-50.5 -146q0 -47 20.5 -71.5t70.5 -46.5t75 -44.5t25 -58.5q0 -40 -31 -76.5t-93 -78.5h-97q95 64 120 98q16 21 16 38q0 19 -12.5 32.5
t-46.5 26.5q-66 26 -100 61.5t-34 107.5z" />
    <glyph glyph-name="sigma" unicode="&#x3c3;" horiz-adv-x="526" 
d="M137 163q0 -60 27 -91t72 -31q51 0 89.5 39.5t55 91t16.5 102.5q0 116 -86 116q-80 0 -127 -68t-47 -159zM559 390h-132q50 -46 50 -135q0 -27 -7 -60t-25.5 -71t-45.5 -68t-71 -50.5t-98 -20.5q-86 0 -129.5 49.5t-43.5 128.5q0 39 8.5 77t29.5 77.5t52.5 69.5t83.5 49
t117 19h228z" />
    <glyph glyph-name="tau" unicode="&#x3c4;" horiz-adv-x="382" 
d="M186 391h-18q-78 0 -124 -27l18 68q40 23 112 23h257l-17 -64h-153l-66 -237q-14 -51 -14 -74q0 -31 31 -31q10 0 22.5 2.5t26 7.5t23.5 9t23 10t15 7l-14 -58q-71 -39 -129 -39q-35 0 -56.5 21.5t-21.5 55.5q0 32 18 94z" />
    <glyph glyph-name="upsilon" unicode="&#x3c5;" horiz-adv-x="504" 
d="M355 441l134 18q3 -22 3 -60q0 -98 -38 -192t-107 -156.5t-150 -62.5q-58 0 -88 31t-30 86q0 50 20 112l37 121q10 34 10 43q0 17 -21 17q-10 0 -42 -2l13 43l157 21l-77 -251q-16 -52 -16 -91q0 -65 57 -65q52 0 100 51.5t74.5 120.5t26.5 127q0 48 -42 48q-16 0 -34 -2
z" />
    <glyph glyph-name="phi" unicode="&#x3c6;" horiz-adv-x="623" 
d="M612 259q0 -119 -82.5 -196t-233.5 -78l-50 -176h-62l52 181q-89 14 -133.5 69.5t-44.5 136.5q0 118 82.5 195.5t233.5 78.5l55 193h62l-57 -198q89 -14 133.5 -70t44.5 -136zM138 198q0 -129 113 -155l108 375q-62 -1 -107.5 -21.5t-69 -54.5t-34 -69.5t-10.5 -74.5z
M532 257q0 129 -113 155l-108 -375q62 1 107.5 21.5t69 54.5t34 69.5t10.5 74.5z" />
    <glyph glyph-name="chi" unicode="&#x3c7;" horiz-adv-x="463" 
d="M529 455l-266 -308l29 -178q6 -41 14.5 -53.5t22.5 -12.5q12 0 54 18l-17 -65q-29 -21 -66 -21q-31 0 -46.5 21t-23.5 71l-26 170l-209 -251h-98l292 337l-23 140q-6 39 -15 58t-29 19q-21 0 -50 -13l21 62q32 14 56 14q39 0 53.5 -23t23.5 -82l19 -127l183 224h101z" />
    <glyph glyph-name="psi" unicode="&#x3c8;" horiz-adv-x="651" 
d="M79 155q0 47 19 106l25 77q10 34 10 43q0 17 -21 17q-10 0 -42 -2l13 43l157 21l-64 -209q-17 -54 -17 -94q0 -49 29.5 -75.5t72.5 -28.5l175 610h62l-175 -610q58 4 105 34.5t75 74.5t42.5 93.5t14.5 96.5q0 48 -39 48q-11 0 -25 -2l13 43l127 18q3 -22 3 -60
q0 -105 -36.5 -193.5t-113 -146.5t-181.5 -63l-55 -187h-62l55 189q-77 2 -122 43.5t-45 113.5z" />
    <glyph glyph-name="omega" unicode="&#x3c9;" horiz-adv-x="714" 
d="M381 368h82l-47 -168q-11 -39 -11 -70q0 -77 71 -77q58 0 102 68.5t44 169.5q0 74 -46 164h70q52 -66 52 -175q0 -111 -63.5 -201.5t-168.5 -90.5q-53 0 -83.5 30.5t-33.5 72.5q-60 -103 -158 -103q-64 0 -101.5 39.5t-37.5 112.5q0 94 49.5 178.5t129.5 136.5h85
q-84 -58 -133.5 -139t-49.5 -169q0 -47 20 -70.5t52 -23.5q36 0 71 33t54 102z" />
    <glyph glyph-name="iotadieresis" unicode="&#x3ca;" horiz-adv-x="250" 
d="M97 444l151 23l-103 -367q-7 -25 -7 -35q0 -17 16 -17q18 0 55 27l-13 -59q-52 -31 -90 -31q-25 0 -37.5 14.5t-12.5 36.5q0 20 12 60l71 251q8 27 8 42q0 16 -15 16q-12 0 -36 -4l-12 -2zM139 613q18 0 31 -13t13 -32t-13 -31.5t-31 -12.5t-31 13t-13 31q0 19 13 32
t31 13zM327 613q18 0 31 -13t13 -32t-13 -31.5t-31 -12.5t-31 13t-13 31q0 19 13 32t31 13z" />
    <glyph glyph-name="upsilondieresis" unicode="&#x3cb;" horiz-adv-x="504" 
d="M355 441l134 18q3 -22 3 -60q0 -98 -38 -192t-107 -156.5t-150 -62.5q-58 0 -88 31t-30 86q0 50 20 112l37 121q10 34 10 43q0 17 -21 17q-10 0 -42 -2l13 43l157 21l-77 -251q-16 -52 -16 -91q0 -65 57 -65q52 0 100 51.5t74.5 120.5t26.5 127q0 48 -42 48q-16 0 -34 -2
zM230 613q18 0 31 -13t13 -32t-13 -31.5t-31 -12.5t-31 13t-13 31q0 19 13 32t31 13zM418 613q18 0 31 -13t13 -32t-13 -31.5t-31 -12.5t-31 13t-13 31q0 19 13 32t31 13z" />
    <glyph glyph-name="omicrontonos" unicode="&#x3cc;" horiz-adv-x="500" 
d="M58 165q0 123 70 214t182 91q74 0 126.5 -44t52.5 -128q0 -42 -13 -91.5t-40 -101.5t-78.5 -86t-119.5 -34q-43 0 -76 13t-52 32.5t-31.5 45.5t-16.5 47.5t-4 41.5zM138 162q0 -55 29 -88.5t77 -33.5q41 0 74.5 28.5t52 71.5t28.5 86.5t10 78.5q0 51 -28 81t-72 30
q-52 0 -92 -38.5t-59.5 -95.5t-19.5 -120zM382 714h87l-102 -172h-59z" />
    <glyph glyph-name="upsilontonos" unicode="&#x3cd;" horiz-adv-x="504" 
d="M355 441l134 18q3 -22 3 -60q0 -98 -38 -192t-107 -156.5t-150 -62.5q-58 0 -88 31t-30 86q0 50 20 112l37 121q10 34 10 43q0 17 -21 17q-10 0 -42 -2l13 43l157 21l-77 -251q-16 -52 -16 -91q0 -65 57 -65q52 0 100 51.5t74.5 120.5t26.5 127q0 48 -42 48q-16 0 -34 -2
zM381 714h87l-102 -172h-59z" />
    <glyph glyph-name="omegatonos" unicode="&#x3ce;" horiz-adv-x="714" 
d="M381 368h82l-47 -168q-11 -39 -11 -70q0 -77 71 -77q58 0 102 68.5t44 169.5q0 74 -46 164h70q52 -66 52 -175q0 -111 -63.5 -201.5t-168.5 -90.5q-53 0 -83.5 30.5t-33.5 72.5q-60 -103 -158 -103q-64 0 -101.5 39.5t-37.5 112.5q0 94 49.5 178.5t129.5 136.5h85
q-84 -58 -133.5 -139t-49.5 -169q0 -47 20 -70.5t52 -23.5q36 0 71 33t54 102zM507 714h87l-102 -172h-59z" />
    <glyph glyph-name="uni0400" unicode="&#x400;" horiz-adv-x="594" 
d="M184 672h473l-41 -146h-61l13 45q4 15 4 21q0 10 -6 15t-13 5.5t-21 0.5h-203l-68 -237h143q31 0 41.5 7t18.5 34l7 20h55l-55 -189h-53l7 26q4 15 4 22q0 10 -7 15t-14 5.5t-21 0.5h-143l-74 -260h207q38 0 51 6.5t20 30.5l16 52h63l-42 -146h-482l13 47h28q23 0 34 8.5
t19 38.5l134 472q7 28 7 38q0 21 -38 21h-30zM358 859h85l47 -130h-47z" />
    <glyph glyph-name="c.Io" unicode="&#x401;" horiz-adv-x="594" 
d="M184 672h473l-41 -146h-61l13 45q4 15 4 21q0 10 -6 15t-13 5.5t-21 0.5h-203l-68 -237h143q31 0 41.5 7t18.5 34l7 20h55l-55 -189h-53l7 26q4 15 4 22q0 10 -7 15t-14 5.5t-21 0.5h-143l-74 -260h207q38 0 51 6.5t20 30.5l16 52h63l-42 -146h-482l13 47h28q23 0 34 8.5
t19 38.5l134 472q7 28 7 38q0 21 -38 21h-30zM363 818q18 0 31 -13t13 -32t-13 -31.5t-31 -12.5t-31 13t-13 31q0 19 13 32t31 13zM551 818q18 0 31 -13t13 -32t-13 -31.5t-31 -12.5t-31 13t-13 31q0 19 13 32t31 13z" />
    <glyph glyph-name="c.Dje" unicode="&#x402;" horiz-adv-x="737" 
d="M165 672h555l-47 -160h-61l15 54q5 22 5 30q0 9 -7 14t-14 5.5t-23 0.5h-119l-74 -257q77 53 158 53q173 0 173 -167q0 -64 -26 -122.5t-79.5 -98t-122.5 -39.5q-34 0 -56 5l17 54q13 -4 38 -4q59 0 104 59t45 148q0 110 -106 110q-72 0 -166 -73l-53 -185q-6 -19 -6 -32
q0 -20 36 -20h34l-12 -47h-237l14 47h26q19 0 27 1.5t17 11.5t15 31l150 525h-119q-35 0 -47 -6.5t-21 -38.5l-17 -59h-62z" />
    <glyph glyph-name="c.Gje" unicode="&#x403;" horiz-adv-x="541" 
d="M196 672h461l-43 -150h-62l12 40q6 20 6 30q0 11 -10 15t-37 4h-194l-147 -514q-7 -23 -7 -30q0 -19 40 -19h38l-14 -48h-235l14 48h20q32 0 41.5 10.5t20.5 47.5l135 469q6 19 6 29q0 19 -41 19h-18zM472 853h95l-113 -130h-49z" />
    <glyph glyph-name="c.IeUkr" unicode="&#x404;" horiz-adv-x="642" 
d="M687 629l-41 -162h-70l13 57q6 27 6 40q0 21 -15.5 35.5t-39 20.5t-39 8t-27.5 2q-101 0 -173.5 -73t-101.5 -182h284l-17 -58h-279q-4 -28 -4 -62q0 -100 53 -151.5t130 -51.5q101 0 206 64l-23 -84q-93 -50 -191 -50q-66 0 -116.5 21t-77.5 51t-44 70t-21.5 69.5
t-4.5 57.5q0 57 14.5 116.5t45.5 117.5t74.5 103.5t108 73.5t140.5 28q120 0 210 -61z" />
    <glyph glyph-name="c.Dze" unicode="&#x405;" horiz-adv-x="531" 
d="M587 640l-36 -150h-67l11 50q4 16 4 39q0 25 -33 40.5t-71 15.5q-57 0 -93 -33t-36 -80q0 -35 20 -61.5t92 -93.5q38 -36 56.5 -57t36 -57.5t17.5 -75.5q0 -30 -11.5 -61.5t-36 -62.5t-72.5 -51t-113 -20q-114 0 -206 60l47 174h68l-15 -73q-3 -12 -3 -34q0 -36 37.5 -53
t82.5 -17q65 0 100.5 41t35.5 88q0 30 -15.5 59t-35 49t-64.5 62q-33 30 -51.5 51t-35.5 55t-17 69q0 73 58 125t159 52q107 0 187 -50z" />
    <glyph glyph-name="c.IUkr" unicode="&#x406;" 
d="M193 672h225l-13 -47h-19q-26 0 -38 -8t-20 -38l-135 -483q-6 -24 -6 -27q0 -22 34 -22h30l-13 -47h-226l13 47h29q24 0 33 8t17 35l138 483q5 19 5 31q0 21 -36 21h-31z" />
    <glyph glyph-name="c.Yi" unicode="&#x407;" 
d="M193 672h225l-13 -47h-19q-26 0 -38 -8t-20 -38l-135 -483q-6 -24 -6 -27q0 -22 34 -22h30l-13 -47h-226l13 47h29q24 0 33 8t17 35l138 483q5 19 5 31q0 21 -36 21h-31zM232 818q18 0 31 -13t13 -32t-13 -31.5t-31 -12.5t-31 13t-13 31q0 19 13 32t31 13zM420 818
q18 0 31 -13t13 -32t-13 -31.5t-31 -12.5t-31 13t-13 31q0 19 13 32t31 13z" />
    <glyph glyph-name="c.Je" unicode="&#x408;" horiz-adv-x="490" 
d="M365 672h230l-13 -47h-26q-26 0 -35 -10t-16 -35l-112 -393q0 -2 -2 -6q-29 -104 -78.5 -151.5t-133.5 -47.5q-88 0 -154 52l34 122h62l-8 -40q-4 -12 -4 -32q0 -24 23.5 -35.5t48.5 -11.5q45 0 75 36t59 137q2 12 4 16l101 354q5 12 5 25q0 20 -42 20h-32z" />
    <glyph glyph-name="c.Lje" unicode="&#x409;" horiz-adv-x="1001" 
d="M639 614h-171q-79 -246 -187 -466q-45 -93 -91 -127.5t-113 -34.5q-46 0 -85 30l32 108h62l-6 -19q-16 -60 25 -60q44 0 100 102q51 94 104.5 226t76.5 210q4 12 4 23q0 19 -35 19h-23l12 47h460l-13 -47h-19q-26 0 -38 -8t-20 -38l-58 -202h104q98 0 147 -44.5
t49 -114.5q0 -58 -27.5 -109t-86.5 -84q-46 -25 -145 -25h-299l13 47h29q24 0 33 8t17 35zM641 321l-76 -267h117q73 0 105 16q39 19 61.5 56.5t22.5 87.5t-32 78.5t-96 28.5h-102z" />
    <glyph glyph-name="c.Nje" unicode="&#x40a;" horiz-adv-x="980" 
d="M377 0l13 47h29q24 0 33 8t17 35l68 240h-289l-64 -223q-8 -30 -8 -37q0 -11 6.5 -16t13 -6t20.5 -1h27l-12 -47h-227l14 47h23q29 0 38.5 8.5t18.5 40.5l133 475q8 22 8 35q0 19 -42 19h-25l12 47h224l-11 -47h-22q-31 0 -40 -10t-21 -53l-50 -174h290l53 185q5 19 5 31
q0 21 -36 21h-31l13 47h225l-13 -47h-19q-26 0 -38 -8t-20 -38l-55 -191h101q98 0 147 -46t49 -118q0 -133 -114 -198q-45 -26 -145 -26h-299zM621 330l-77 -276h117q74 0 105 17q39 18 61.5 57t22.5 91t-32 81.5t-96 29.5h-101z" />
    <glyph glyph-name="c.Tshe" unicode="&#x40b;" horiz-adv-x="782" 
d="M691 182l-24 -83q-6 -19 -6 -32q0 -20 36 -20h34l-12 -47h-237l14 47h26q19 0 27 1.5t17 11.5t15 31l26 91q19 63 19 98q0 41 -19 59t-66 18q-83 0 -167 -73l-53 -185q-6 -19 -6 -32q0 -20 36 -20h34l-12 -47h-237l14 47h26q19 0 27 1.5t17 11.5t15 31l150 525h-119
q-35 0 -47 -6.5t-21 -38.5l-17 -59h-62l46 160h555l-47 -160h-61l15 54q5 22 5 30q0 9 -7 14t-14 5.5t-23 0.5h-119l-74 -258q93 54 179 54q68 0 102.5 -34t34.5 -89q0 -40 -20 -107z" />
    <glyph glyph-name="c.Kje" unicode="&#x40c;" horiz-adv-x="602" 
d="M319 579l-54 -190h8q47 0 75 19t75 77l72 91q44 55 81.5 78t81.5 23q30 0 50 -6l-17 -59q-17 5 -38 5q-43 0 -114 -90l-61 -77q-62 -80 -128 -88v-2q36 -9 60 -36.5t34 -61.5l45 -148q12 -39 24.5 -53t46.5 -14h4l-13 -47h-21q-56 0 -77 14t-35 59l-60 187
q-12 42 -29.5 56t-67.5 14h-13l-65 -227q0 -2 -2 -10q-5 -15 -5 -25q0 -21 36 -21h31l-13 -47h-223l13 47h31q14 0 20.5 1.5t14 11t13.5 30.5l138 489q5 13 5 25q0 21 -36 21h-33l14 47h223l-14 -47h-24q-26 0 -35.5 -9t-17.5 -37zM489 853h95l-113 -130h-49z" />
    <glyph glyph-name="uni040D" unicode="&#x40d;" horiz-adv-x="749" 
d="M609 672h225l-13 -47h-19q-26 0 -38 -8t-20 -38l-135 -483q-6 -24 -6 -27q0 -22 34 -22h30l-13 -47h-226l13 47h29q24 0 33 8t17 35l108 379l-428 -349l-7 -24q-6 -24 -6 -27q0 -22 34 -22h30l-13 -47h-226l13 47h29q24 0 33 8t17 35l138 483q5 19 5 31q0 21 -36 21h-31
l13 47h225l-13 -47h-19q-26 0 -38 -8t-20 -38l-103 -367l430 352l3 9q5 19 5 31q0 21 -36 21h-31zM424 859h85l47 -130h-47z" />
    <glyph glyph-name="c.Yushort" unicode="&#x40e;" horiz-adv-x="646" 
d="M288 115l-72 458q-4 20 -8 29.5t-14.5 16t-30.5 6.5h-26l14 47h224l-14 -47h-29q-50 0 -37 -61l54 -375h2l242 377q16 24 16 39q0 20 -34 20h-28l13 47h215l-13 -47h-14q-28 0 -41.5 -11t-29.5 -38l-276 -415q-64 -96 -115 -135.5t-133 -39.5q-66 0 -117 30l37 130h63
l-9 -30q-19 -71 44 -71q64 0 117 70zM314 823l76 21q7 -21 14 -33t27 -23t50 -11q32 0 70 18.5t62 51.5l45 -29q-29 -42 -78.5 -67.5t-109.5 -25.5q-124 0 -156 98z" />
    <glyph glyph-name="c.Dzhe" unicode="&#x40f;" horiz-adv-x="744" 
d="M184 672h224l-11 -47h-22q-31 0 -40 -10t-21 -53l-143 -504h291l146 521q6 20 6 27q0 13 -9 16t-29 3h-28l10 47h225l-13 -47h-21q-30 0 -38.5 -9.5t-20.5 -50.5l-132 -463q-6 -22 -6 -31q0 -17 10 -20.5t57 -3.5l-13 -47h-231q-25 0 -35.5 -8t-19.5 -38l-29 -101h-64
l30 101q8 28 4 37t-23 9h-234l14 47h23q29 0 38.5 8.5t18.5 40.5l133 475q8 22 8 35q0 19 -42 19h-25z" />
    <glyph glyph-name="c.A" unicode="&#x410;" horiz-adv-x="646" 
d="M429 679h78l29 -584q2 -30 12 -39t34 -9h28l-14 -47h-220l14 47h19q34 0 43 11t7 44l-6 112h-237l-64 -105q-19 -32 -19 -41q0 -21 35 -21h33l-13 -47h-222l13 47q40 0 57 8.5t41 46.5zM434 572l-183 -301h199l-14 301h-2z" />
    <glyph glyph-name="c.Be" unicode="&#x411;" horiz-adv-x="607" 
d="M98 101l136 473q7 23 7 30q0 19 -41 19h-18l14 49h441l-43 -150h-62l12 40q6 20 6 30q0 11 -10 15t-37 4h-174l-66 -234h103q98 0 147 -44.5t49 -114.5q0 -58 -27.5 -109t-86.5 -84q-46 -25 -145 -25h-299l14 48h19q33 0 42 9t19 44zM247 321l-76 -267h117q73 0 105 16
q39 19 61.5 56.5t22.5 87.5t-32 78.5t-96 28.5h-102z" />
    <glyph glyph-name="c.Ve" unicode="&#x412;" horiz-adv-x="604" 
d="M189 672h225q75 0 110 -13q42 -16 63 -52t21 -77q0 -65 -34.5 -113.5t-96.5 -71.5q82 -35 82 -131q0 -61 -33 -112.5t-82 -77.5q-48 -24 -144 -24h-293l14 47h29q26 0 34 8t17 38l137 480q6 27 6 32q0 20 -35 20h-34zM329 614l-68 -237h102q66 0 94 16q29 16 49.5 50
t20.5 80q0 25 -8.5 43.5t-20 27.5t-29.5 13.5t-30 5.5t-30 1h-80zM333 321h-87l-76 -267h114q74 0 107 15q38 18 60.5 59.5t22.5 86.5q0 106 -141 106z" />
    <glyph glyph-name="c.Ghe" unicode="&#x413;" horiz-adv-x="541" 
d="M196 672h461l-43 -150h-62l12 40q6 20 6 30q0 11 -10 15t-37 4h-194l-147 -514q-7 -23 -7 -30q0 -19 40 -19h38l-14 -48h-235l14 48h20q32 0 41.5 10.5t20.5 47.5l135 469q6 19 6 29q0 19 -41 19h-18z" />
    <glyph glyph-name="c.De" unicode="&#x414;" horiz-adv-x="744" 
d="M162 60h298l158 554h-170q-45 -167 -127 -321.5t-159 -232.5zM690 565l-130 -447q-9 -34 -9 -40q0 -18 31 -18h47l-60 -209h-61l16 57q12 43 12 57q0 20 -18.5 27.5t-69.5 7.5h-294q-40 0 -61.5 -3t-35.5 -16.5t-19.5 -27t-14.5 -46.5l-16 -56h-61l59 209h24q20 0 37 7.5
t26 15t24 23.5q72 75 147 217t103 260q4 18 4 23q0 19 -35 19h-23l12 47h459l-13 -47h-21q-30 0 -38.5 -9.5t-20.5 -50.5z" />
    <glyph glyph-name="c.Ie" unicode="&#x415;" horiz-adv-x="604" 
d="M184 672h473l-41 -146h-61l13 45q4 15 4 21q0 10 -6 15t-13 5.5t-21 0.5h-203l-68 -237h143q31 0 41.5 7t18.5 34l7 20h55l-55 -189h-53l7 26q4 15 4 22q0 10 -7 15t-14 5.5t-21 0.5h-143l-74 -260h207q38 0 51 6.5t20 30.5l16 52h63l-42 -146h-482l13 47h28q23 0 34 8.5
t19 38.5l134 472q7 28 7 38q0 21 -38 21h-30z" />
    <glyph glyph-name="c.Zhe" unicode="&#x416;" horiz-adv-x="860" 
d="M577 579l-54 -190h8q47 0 75 19t75 77l72 91q44 55 81.5 78t81.5 23q30 0 50 -6l-17 -59q-17 5 -38 5q-43 0 -114 -90l-61 -77q-62 -80 -128 -88v-2q36 -9 60 -36.5t34 -61.5l45 -148q12 -39 24.5 -53t46.5 -14h4l-13 -47h-21q-56 0 -77 14t-35 59l-60 187q-13 42 -30 56
t-67 14h-13l-65 -227q0 -2 -2 -10q-5 -15 -5 -25q0 -21 36 -21h31l-13 -47h-223l13 47h31q14 0 20.5 1.5t14 11t13.5 30.5l67 240q-51 -1 -81.5 -18t-66.5 -60l-151 -179q-38 -45 -67.5 -59t-77.5 -14h-37l14 48h5q14 0 26 4t24 14.5t18.5 16.5t20 23t17.5 21l110 131
q82 97 187 102v2q-38 8 -61.5 34.5t-38.5 75.5l-21 69q-1 4 -4 14t-4 13t-3.5 11t-3.5 10.5t-4 8t-5.5 7.5t-6.5 5.5t-8 4.5t-9 2t-11 1q-21 0 -39 -5l17 58q18 6 43 6q39 0 60 -19.5t32 -65.5l34 -112q11 -45 38.5 -68t64.5 -23h6l54 190q5 13 5 25q0 21 -36 21h-33l14 47
h223l-14 -47h-24q-26 0 -35.5 -9t-17.5 -37z" />
    <glyph glyph-name="c.Ze" unicode="&#x417;" horiz-adv-x="560" 
d="M188 522l33 117q3 1 18 7t19.5 8t18.5 7t21.5 7t21.5 5.5t25.5 5t27 2.5t31.5 1q91 0 134 -38.5t43 -105.5q0 -15 -4.5 -33.5t-18 -43t-34.5 -45t-59 -37.5t-87 -22l-1 -2q60 -4 99.5 -39t39.5 -99q0 -73 -40.5 -127t-100 -79t-127.5 -25q-134 0 -213 45l38 136h63
l-11 -40q-3 -10 -3 -20q0 -59 112 -59q91 0 141 48.5t50 119.5q0 54 -43 78t-146 24l19 65q123 2 180.5 47.5t57.5 103.5q0 88 -111 88q-103 0 -127 -75l-8 -25h-59z" />
    <glyph glyph-name="c.I" unicode="&#x418;" horiz-adv-x="749" 
d="M609 672h225l-13 -47h-19q-26 0 -38 -8t-20 -38l-135 -483q-6 -24 -6 -27q0 -22 34 -22h30l-13 -47h-226l13 47h29q24 0 33 8t17 35l108 379l-428 -349l-7 -24q-6 -24 -6 -27q0 -22 34 -22h30l-13 -47h-226l13 47h29q24 0 33 8t17 35l138 483q5 19 5 31q0 21 -36 21h-31
l13 47h225l-13 -47h-19q-26 0 -38 -8t-20 -38l-103 -367l430 352l3 9q5 19 5 31q0 21 -36 21h-31z" />
    <glyph glyph-name="c.Ishort" unicode="&#x419;" horiz-adv-x="749" 
d="M609 672h225l-13 -47h-19q-26 0 -38 -8t-20 -38l-135 -483q-6 -24 -6 -27q0 -22 34 -22h30l-13 -47h-226l13 47h29q24 0 33 8t17 35l108 379l-428 -349l-7 -24q-6 -24 -6 -27q0 -22 34 -22h30l-13 -47h-226l13 47h29q24 0 33 8t17 35l138 483q5 19 5 31q0 21 -36 21h-31
l13 47h225l-13 -47h-19q-26 0 -38 -8t-20 -38l-103 -367l430 352l3 9q5 19 5 31q0 21 -36 21h-31zM362 823l76 21q7 -21 14 -33t27 -23t50 -11q32 0 70 18.5t62 51.5l45 -29q-29 -42 -78.5 -67.5t-109.5 -25.5q-124 0 -156 98z" />
    <glyph glyph-name="c.Ka" unicode="&#x41a;" horiz-adv-x="602" 
d="M319 579l-54 -190h8q47 0 75 19t75 77l72 91q44 55 81.5 78t81.5 23q30 0 50 -6l-17 -59q-17 5 -38 5q-43 0 -114 -90l-61 -77q-62 -80 -128 -88v-2q36 -9 60 -36.5t34 -61.5l45 -148q12 -39 24.5 -53t46.5 -14h4l-13 -47h-21q-56 0 -77 14t-35 59l-60 187
q-12 42 -29.5 56t-67.5 14h-13l-65 -227q0 -2 -2 -10q-5 -15 -5 -25q0 -21 36 -21h31l-13 -47h-223l13 47h31q14 0 20.5 1.5t14 11t13.5 30.5l138 489q5 13 5 25q0 21 -36 21h-33l14 47h223l-14 -47h-24q-26 0 -35.5 -9t-17.5 -37z" />
    <glyph glyph-name="c.El" unicode="&#x41b;" horiz-adv-x="764" 
d="M710 565l-131 -469q-6 -24 -6 -27q0 -22 34 -22h30l-13 -47h-226l13 47h29q24 0 33 8t17 35l148 524h-170q-79 -246 -187 -466q-45 -93 -91 -127.5t-113 -34.5q-46 0 -85 30l32 108h62l-6 -19q-16 -60 25 -60q44 0 100 102q51 94 104.5 226t76.5 210q4 12 4 23
q0 19 -35 19h-23l12 47h459l-13 -47h-21q-30 0 -38.5 -9.5t-20.5 -50.5z" />
    <glyph glyph-name="c.Em" unicode="&#x41c;" horiz-adv-x="844" 
d="M187 672h199l13 -568h2l338 568h197l-14 -47h-24q-38 0 -49 -36q0 -1 -1.5 -6.5t-2.5 -6.5l-138 -486q0 -3 -2 -7q-3 -15 -3 -16q0 -20 43 -20h24l-13 -47h-222l13 47h22q29 0 39 8.5t20 43.5l150 524l-2 2l-370 -625h-79l-14 625h-2l-149 -531q-5 -18 -5 -24
q0 -23 34 -23h32l-14 -47h-204l13 47h31q22 0 31 7.5t18 39.5l137 477q6 27 6 34q0 12 -7.5 16t-24.5 4h-36z" />
    <glyph glyph-name="c.En" unicode="&#x41d;" horiz-adv-x="734" 
d="M193 672h224l-11 -47h-22q-31 0 -40 -10t-21 -53l-50 -174h321l50 191q6 20 6 27q0 13 -9 16t-29 3h-28l10 47h228l-13 -47h-21q-30 0 -38.5 -9.5t-20.5 -50.5l-135 -463q-6 -22 -6 -31q0 -17 10 -20.5t57 -3.5l-13 -47h-225l13 47q48 2 59 8t21 41l66 234h-319l-64 -223
q-8 -30 -8 -37q0 -11 6.5 -16t13 -6t20.5 -1h27l-12 -47h-227l14 47h23q29 0 38.5 8.5t18.5 40.5l133 475q8 22 8 35q0 19 -42 19h-25z" />
    <glyph glyph-name="c.O" unicode="&#x41e;" horiz-adv-x="708" 
d="M91 249q0 58 15 118.5t46 118t74 103t104.5 73.5t132.5 28q122 0 190 -73.5t68 -182.5q0 -56 -13.5 -116t-43.5 -120.5t-72 -108t-105 -77.5t-137 -30q-71 0 -124 26.5t-81 68.5t-41 85.5t-13 86.5zM176 244q0 -83 48 -141.5t133 -58.5q62 0 112 31.5t80 78t50.5 103
t28 103t7.5 81.5q0 74 -43.5 131.5t-134.5 57.5q-71 0 -127.5 -40t-88.5 -101.5t-48.5 -125t-16.5 -119.5z" />
    <glyph glyph-name="c.Pe" unicode="&#x41f;" horiz-adv-x="704" 
d="M193 672h599l-13 -47h-21q-30 0 -38.5 -9.5t-20.5 -50.5l-135 -463q-6 -22 -6 -31q0 -17 10 -20.5t57 -3.5l-13 -47h-225l13 47q48 2 59 8t21 41l147 518h-289l-145 -507q-8 -30 -8 -37q0 -11 6.5 -16t13 -6t20.5 -1h27l-12 -47h-227l14 47h23q29 0 38.5 8.5t18.5 40.5
l133 475q8 28 8 35q0 19 -42 19h-25z" />
    <glyph glyph-name="c.Er" unicode="&#x420;" horiz-adv-x="563" 
d="M185 672h226q77 0 119 -19q31 -14 50.5 -40t25 -47.5t5.5 -42.5q0 -16 -3.5 -36t-12.5 -48.5t-31 -57t-54 -47.5q-55 -32 -145 -32h-129l-59 -212q-4 -12 -4 -22q0 -21 37 -21h39l-13 -47h-232l14 47h24q25 0 36 8t19 35l139 486q5 15 5 30q0 19 -35 19h-34zM326 615
l-73 -257h114q60 3 86 16q34 18 54.5 55.5t20.5 80.5q0 34 -11 56.5t-31.5 32t-39 13t-44.5 3.5h-76z" />
    <glyph glyph-name="c.Es" unicode="&#x421;" horiz-adv-x="642" 
d="M687 629l-41 -162h-70l13 57q6 27 6 40q0 21 -15.5 35.5t-39 20.5t-39 8t-27.5 2q-87 0 -155 -57.5t-102 -142t-34 -175.5q0 -100 53 -151.5t130 -51.5q101 0 206 64l-23 -84q-93 -50 -191 -50q-66 0 -116.5 21t-77.5 51t-44 70t-21.5 69.5t-4.5 57.5q0 57 14.5 116.5
t45.5 117.5t74.5 103.5t108 73.5t140.5 28q120 0 210 -61z" />
    <glyph glyph-name="c.Te" unicode="&#x422;" horiz-adv-x="604" 
d="M165 672h555l-47 -160h-61l15 54q5 22 5 30q0 9 -7 14t-14 5.5t-23 0.5h-119l-148 -517q-6 -19 -6 -32q0 -20 36 -20h34l-12 -47h-237l14 47h26q19 0 27 1.5t17 11.5t15 31l150 525h-119q-35 0 -47 -6.5t-21 -38.5l-17 -59h-62z" />
    <glyph glyph-name="c.U" unicode="&#x423;" horiz-adv-x="646" 
d="M288 115l-72 458q-4 20 -8 29.5t-14.5 16t-30.5 6.5h-26l14 47h224l-14 -47h-29q-50 0 -37 -61l54 -375h2l242 377q16 24 16 39q0 20 -34 20h-28l13 47h215l-13 -47h-14q-28 0 -41.5 -11t-29.5 -38l-276 -415q-64 -96 -115 -135.5t-133 -39.5q-66 0 -117 30l37 130h63
l-9 -30q-19 -71 44 -71q64 0 117 70z" />
    <glyph glyph-name="c.Ef" unicode="&#x424;" horiz-adv-x="773" 
d="M95 310q0 120 91.5 181.5t265.5 61.5l6 20q5 19 5 31q0 21 -36 21h-31l13 47h225l-13 -47h-19q-26 0 -38 -8t-20 -38l-7 -25q113 -10 173.5 -61t60.5 -128q0 -118 -91 -182t-265 -64l-6 -23q-6 -24 -6 -27q0 -22 34 -22h30l-13 -47h-226l13 47h29q24 0 33 8t17 35l8 28
q-112 12 -172.5 62t-60.5 130zM180 318q0 -132 164 -147l94 330q-134 -2 -196 -52.5t-62 -130.5zM685 361q0 125 -163 140l-92 -330q134 1 194.5 54.5t60.5 135.5z" />
    <glyph glyph-name="c.Ha" unicode="&#x425;" horiz-adv-x="625" 
d="M168 672h213l-12 -47h-15q-37 0 -37 -22q0 -10 7 -31l57 -160l147 164q19 19 19 33q0 16 -29 16h-23l13 47h211l-12 -47q-54 0 -87 -37l-217 -241l88 -250q11 -32 22 -41t34 -9h25l-14 -47h-213l13 47q17 0 25.5 1t17 6t8.5 16q0 5 -6 23l-63 184l-169 -190
q-14 -14 -14 -24q0 -16 32 -16h19l-12 -47h-211l13 47q23 2 34.5 4.5t28.5 13t36 32.5l221 245l-81 230l-2 7q-7 21 -18.5 32t-19.5 12.5t-21 1.5h-21z" />
    <glyph glyph-name="c.Tse" unicode="&#x426;" horiz-adv-x="716" 
d="M13 0l14 47h23q29 0 38.5 8.5t18.5 40.5l133 475q8 28 8 35q0 19 -42 19h-25l12 47h224l-11 -47h-22q-31 0 -40 -10t-21 -53l-143 -504h291l146 521q6 20 6 27q0 13 -8.5 16t-29.5 3h-28l10 47h225l-13 -47h-21q-30 0 -38.5 -9.5t-20.5 -50.5l-128 -449q-9 -34 -9 -41
q0 -17 31 -17h47l-59 -207h-62l16 56q12 43 12 57q0 20 -19 28t-70 8h-445z" />
    <glyph glyph-name="c.Che" unicode="&#x427;" horiz-adv-x="678" 
d="M199 459l32 114q6 24 6 32q0 20 -36 20h-34l12 47h237l-14 -47h-33q-25 0 -35 -9.5t-17 -34.5l-33 -118q-12 -45 -12 -73q0 -43 21 -59t62 -16q43 0 95 21.5t88 53.5l53 187q6 24 6 28q0 10 -8.5 14t-31.5 4h-19l14 49h216l-13 -49h-23q-30 0 -39 -9t-19 -43l-137 -476
q-7 -21 -6 -28q0 -19 37 -19h22l-14 -48h-216l14 48h18q32 0 42 8t19 39l66 227q-34 -24 -87.5 -43t-103.5 -19q-68 0 -104.5 32t-36.5 95q0 31 12 72z" />
    <glyph glyph-name="c.Sha" unicode="&#x428;" horiz-adv-x="948" 
d="M193 672h224l-11 -47h-22q-31 0 -40 -10t-21 -53l-143 -504h224l144 513q8 28 8 35q0 19 -42 19h-25l12 47h224l-11 -47h-22q-31 0 -40 -10t-21 -53l-143 -504h224l146 521q6 20 6 27q0 13 -10 16t-32 3h-25l11 47h225l-11 -47h-22q-30 0 -39.5 -10.5t-21.5 -51.5
l-130 -461q-6 -22 -6 -31q0 -17 10 -20.5t57 -3.5l-13 -47h-844l14 47h23q29 0 38.5 8.5t18.5 40.5l133 475q8 28 8 35q0 19 -42 19h-25z" />
    <glyph glyph-name="c.Shcha" unicode="&#x429;" horiz-adv-x="948" 
d="M700 0h-687l14 47h23q29 0 38.5 8.5t18.5 40.5l133 475q8 28 8 35q0 19 -42 19h-25l12 47h224l-11 -47h-22q-31 0 -40 -10t-21 -53l-143 -504h224l144 513q8 28 8 35q0 19 -42 19h-25l12 47h224l-11 -47h-22q-31 0 -40 -10t-21 -53l-143 -504h224l146 521q6 20 6 27
q0 13 -10 16t-32 3h-25l11 47h225l-11 -47h-22q-30 0 -39.5 -10.5t-21.5 -51.5l-131 -465q-4 -13 -4 -23q0 -17 32 -17h47l-60 -207h-62l16 56q12 43 12 57q0 20 -19 28t-70 8z" />
    <glyph glyph-name="c.Hard" unicode="&#x42a;" horiz-adv-x="776" 
d="M415 616h-149q-35 0 -47 -6.5t-21 -38.5l-17 -59h-62l46 160h414l-13 -47h-19q-26 0 -38 -8t-20 -38l-58 -202h104q98 0 147 -44.5t49 -114.5q0 -58 -27.5 -109t-86.5 -84q-46 -25 -145 -25h-299l13 47h29q24 0 33 8t17 35zM416 321l-76 -267h117q73 0 105 16
q39 19 61.5 56.5t22.5 87.5t-32 78.5t-96 28.5h-102z" />
    <glyph glyph-name="c.Yeru" unicode="&#x42b;" horiz-adv-x="906" 
d="M12 0l13 47h29q24 0 33 8t17 35l138 483q5 19 5 31q0 21 -36 21h-31l13 47h225l-13 -47h-19q-26 0 -38 -8t-20 -38l-58 -202h104q98 0 147 -44.5t49 -114.5q0 -58 -27.5 -109t-86.5 -84q-46 -25 -145 -25h-299zM255 321l-76 -267h117q73 0 105 16q39 19 61.5 56.5
t22.5 87.5t-32 78.5t-96 28.5h-102zM766 672h225l-13 -47h-19q-26 0 -38 -8t-20 -38l-135 -483q-6 -24 -6 -27q0 -22 34 -22h30l-13 -47h-226l13 47h29q24 0 33 8t17 35l138 483q5 19 5 31q0 21 -36 21h-31z" />
    <glyph glyph-name="c.Soft" unicode="&#x42c;" horiz-adv-x="615" 
d="M12 0l13 47h29q24 0 33 8t17 35l138 483q5 19 5 31q0 21 -36 21h-31l13 47h225l-13 -47h-19q-26 0 -38 -8t-20 -38l-58 -202h104q98 0 147 -44.5t49 -114.5q0 -58 -27.5 -109t-86.5 -84q-46 -25 -145 -25h-299zM255 321l-76 -267h117q73 0 105 16q39 19 61.5 56.5
t22.5 87.5t-32 78.5t-96 28.5h-102z" />
    <glyph glyph-name="c.E" unicode="&#x42d;" horiz-adv-x="642" 
d="M187 483l43 152q98 55 199 55q107 0 166.5 -72t59.5 -184q0 -63 -11.5 -124.5t-37.5 -121t-63.5 -105t-94.5 -73.5t-126 -28q-156 0 -234 82l20 75q37 -50 91.5 -72.5t102.5 -22.5q90 0 156.5 69.5t95.5 203.5h-252l15 58h247q2 44 2 66q0 80 -37.5 134.5t-111.5 54.5
q-43 0 -79.5 -15.5t-51.5 -35.5q-14 -18 -33 -96h-66z" />
    <glyph glyph-name="c.Yu" unicode="&#x42e;" horiz-adv-x="954" 
d="M388 249q0 32 7 81h-147l-64 -223q-8 -30 -8 -37q0 -11 6.5 -16t13 -6t20.5 -1h27l-12 -47h-227l14 47h23q29 0 38.5 8.5t18.5 40.5l133 475q8 22 8 35q0 19 -42 19h-25l12 47h224l-11 -47h-22q-31 0 -40 -10t-21 -53l-50 -174h144q36 126 122.5 214t207.5 88
q108 0 168.5 -71.5t60.5 -184.5q0 -76 -23.5 -155t-65 -145.5t-108 -109t-143.5 -42.5q-69 0 -118.5 24.5t-74.5 65.5t-35.5 84.5t-10.5 92.5zM473 244q0 -94 40 -147.5t114 -53.5q55 0 100.5 31.5t73 78.5t46.5 103.5t26.5 103t7.5 81.5q0 46 -12 86t-46.5 71.5t-86.5 31.5
q-67 0 -120 -40t-83 -101.5t-45 -125t-15 -119.5z" />
    <glyph glyph-name="c.Ya" unicode="&#x42f;" horiz-adv-x="651" 
d="M482 302h-70q-88 -2 -149 -90l-97 -139q-33 -46 -62.5 -59.5t-87.5 -13.5h-73l13 48h22q21 0 37 5.5t32.5 22t21.5 22.5t22 29l64 87q27 37 68 67t79 42v2q-49 12 -84.5 49.5t-35.5 95.5q0 38 11.5 70t40.5 64t89 50t145 18h268l-13 -47h-19q-26 0 -38 -8t-20 -38
l-135 -483q-6 -24 -6 -27q0 -22 34 -22h30l-13 -47h-226l13 47h29q24 0 33 8t17 35zM499 360l72 253h-90q-213 0 -213 -150q0 -31 15 -53t38.5 -32t42.5 -14t37 -4h98z" />
    <glyph glyph-name="c.a" unicode="&#x430;" horiz-adv-x="521" 
d="M432 456l83 11l-101 -357q-9 -32 -9 -42q0 -16 14 -16q12 0 59 28l-14 -59q-48 -33 -90 -33q-24 0 -36 15t-12 34t7 38l-2 2q-77 -89 -159 -89q-55 0 -89 40t-34 109q0 74 35 150t97.5 128t132.5 52q72 0 108 -52zM133 143q0 -37 18.5 -64t50.5 -27q48 0 95 46
t74.5 110.5t27.5 119.5q0 34 -22 60t-57 26q-72 0 -129.5 -87t-57.5 -184z" />
    <glyph glyph-name="c.be" unicode="&#x431;" horiz-adv-x="516" 
d="M74 193q0 200 116 328q45 49 95.5 73t129.5 38q138 23 170 37l-20 -66q-30 -18 -176 -40q-87 -15 -145 -69t-78 -145h4q67 121 182 121q45 0 76.5 -15.5t47.5 -42t22.5 -54.5t6.5 -60q0 -42 -13 -91.5t-40 -101.5t-78.5 -86t-119.5 -34q-53 0 -91 19.5t-56 52.5t-25.5 66
t-7.5 70zM154 162q0 -55 29 -88.5t77 -33.5q41 0 74.5 28.5t52 71.5t28.5 86.5t10 78.5q0 51 -28 81t-72 30q-76 0 -123.5 -78.5t-47.5 -175.5z" />
    <glyph glyph-name="c.ve" unicode="&#x432;" horiz-adv-x="480" 
d="M334 470q69 0 100 -30t31 -76q0 -48 -37 -81.5t-93 -42.5q35 -9 57 -34t22 -59q0 -56 -57.5 -109t-149.5 -53q-74 0 -114.5 38t-40.5 92q0 89 31 168t97 133t154 54zM247 220h-104q-15 -64 -15 -96q0 -38 23 -61t64 -23q47 0 82.5 36.5t35.5 80.5q0 63 -86 63zM322 416
q-103 0 -163 -144h117q55 0 82 28t27 61q0 25 -15.5 40t-47.5 15z" />
    <glyph glyph-name="c.ghe" unicode="&#x433;" horiz-adv-x="352" 
d="M116 357l19 69q60 44 138 44q51 0 74 -26t23 -63q0 -24 -7 -45t-15 -35t-26.5 -29.5t-29.5 -22.5t-35.5 -21.5t-33.5 -20.5q-12 -8 -36 -22t-34 -21t-23.5 -19t-18.5 -25.5t-5 -31.5q0 -49 62 -49q43 0 140 54l-21 -66q-86 -42 -145 -42q-122 0 -122 100q0 46 31.5 82
t113.5 84q70 41 95 63.5t25 55.5q0 20 -12.5 33t-34.5 13q-29 0 -63 -17t-59 -42z" />
    <glyph glyph-name="c.de" unicode="&#x434;" horiz-adv-x="500" 
d="M314 467q74 0 108 -55q6 40 6 83q0 75 -31 118t-94 43q-40 0 -80 -12l14 51q33 8 79 8q94 0 141 -62t47 -164q0 -95 -18.5 -182t-54 -157t-92 -111.5t-127.5 -41.5q-74 0 -118 47t-44 120t32 144.5t94 121t138 49.5zM134 136q0 -50 25 -73t53 -23q52 0 97 51.5t68 117
t23 120.5q0 35 -21.5 59t-54.5 24q-76 0 -133 -87.5t-57 -188.5z" />
    <glyph glyph-name="c.ie" unicode="&#x435;" horiz-adv-x="417" 
d="M360 113l-17 -74q-78 -54 -150 -54q-71 0 -109 45.5t-38 110.5q0 122 85.5 225.5t198.5 103.5q29 0 50 -9t31.5 -20.5t16.5 -26.5t7 -23t1 -14q0 -77 -78 -127t-178 -50q-20 0 -48 2q-6 -24 -6 -50q0 -53 26 -77t59 -24q25 0 49.5 8t40.5 17t49 30zM142 253
q66 -5 113.5 8t67.5 36t28 41t8 33q0 21 -13 33.5t-34 12.5q-12 0 -28 -5.5t-41.5 -20t-52.5 -50.5t-48 -88z" />
    <glyph glyph-name="c.zhe" unicode="&#x436;" horiz-adv-x="867" 
d="M547 459l-54 -191h83q31 92 86.5 147t133.5 55q22 0 39 -4.5t26.5 -10t25.5 -16.5l-23 -93h-46l2 13q2 14 2 23v9.5t-1 8.5t-4 9t-8.5 4.5t-14.5 2.5q-48 0 -88.5 -47t-59.5 -104.5t-19 -103.5q0 -54 15 -82.5t57 -28.5q21 0 44 10.5t34 19t31 25.5l-16 -73
q-57 -47 -112 -47q-62 0 -93.5 41.5t-31.5 118.5q0 25 8 73h-84l-61 -218h-73l62 218h-73q-27 -103 -86 -168t-143 -65q-17 0 -29.5 1.5t-26 8.5t-16 8.5t-19.5 12.5l23 93h46l-2 -13q-2 -14 -2 -23v-9.5t1 -8.5t4 -9t8.5 -4.5t14.5 -2.5q47 0 87 45.5t60 103.5t20 106
q0 54 -15 82.5t-57 28.5q-21 0 -44 -10.5t-34 -19t-31 -25.5l16 73q60 47 112 47q66 0 95.5 -44.5t29.5 -115.5q0 -21 -3 -42h78l53 188z" />
    <glyph glyph-name="c.ze" unicode="&#x437;" horiz-adv-x="422" 
d="M113 348l26 92q3 1 14 5t15.5 5.5l15 5t16.5 5t17 3.5t20 3t21 2t24 1q71 0 104.5 -28t33.5 -75q0 -48 -37 -82t-104 -41l-1 -1q42 -3 69.5 -27.5t27.5 -68.5q0 -74 -56.5 -117t-145.5 -43q-86 0 -148 33l26 104h50l-6 -25q-3 -15 -3 -21q0 -37 87 -37q50 0 83 30t33 75
q0 35 -28.5 50.5t-106.5 15.5l13 55q83 1 126.5 26.5t43.5 70.5q0 52 -71 52q-89 0 -106 -51l-5 -17h-48z" />
    <glyph glyph-name="c.i" unicode="&#x438;" horiz-adv-x="500" 
d="M99 439l155 20l-102 -323q-11 -30 -11 -51q0 -16 8.5 -25.5t21.5 -9.5q35 0 74.5 40t69.5 89q46 73 75 172l30 105l77 3l-104 -358q-6 -18 -6 -31q0 -17 13 -17q17 0 57 26l-14 -60q-56 -31 -85 -31q-19 0 -35 11t-16 36q0 23 18 79l-2 2q-25 -37 -46 -60.5t-57 -45.5
t-75 -22q-37 0 -60.5 22.5t-23.5 58.5q0 29 9 57l72 232q5 15 5 25q0 18 -30 15l-30 -3z" />
    <glyph glyph-name="c.ishort" unicode="&#x439;" horiz-adv-x="500" 
d="M99 439l155 20l-102 -323q-11 -30 -11 -51q0 -16 8.5 -25.5t21.5 -9.5q35 0 74.5 40t69.5 89q46 73 75 172l30 105l77 3l-104 -358q-6 -18 -6 -31q0 -17 13 -17q17 0 57 26l-14 -60q-56 -31 -85 -31q-19 0 -35 11t-16 36q0 23 18 79l-2 2q-25 -37 -46 -60.5t-57 -45.5
t-75 -22q-37 0 -60.5 22.5t-23.5 58.5q0 29 9 57l72 232q5 15 5 25q0 18 -30 15l-30 -3zM195 618l76 21q7 -21 14 -33t27 -23t50 -11q32 0 70 18.5t62 51.5l45 -29q-29 -42 -78.5 -67.5t-109.5 -25.5q-124 0 -156 98z" />
    <glyph glyph-name="c.ka" unicode="&#x43a;" horiz-adv-x="480" 
d="M374 335l-39 -47q-32 -37 -76 -43l-1 -1q26 -6 40 -20.5t25 -41.5l36 -90q15 -38 34 -38t63 34l-11 -62q-50 -38 -88 -38q-20 0 -35 12t-20.5 23t-13.5 34l-42 114q-11 29 -24 38.5t-47 9.5l-62 -219h-72l99 345q8 29 8 36q0 17 -19 17q-13 0 -42 -5l14 45l138 21
q-7 -40 -17 -75l-33 -115h8q28 0 51 15t51 49l41 51q36 45 61.5 60.5t59.5 15.5q29 0 47 -10l-21 -88h-37q-10 20 -22 20q-15 0 -54 -47z" />
    <glyph glyph-name="c.el" unicode="&#x43b;" horiz-adv-x="534" 
d="M538 455l-108 -352q-7 -23 -7 -35q0 -19 15 -19q16 0 55 27l-14 -58q-48 -31 -90 -31q-23 0 -37.5 15t-14.5 37q0 11 10 51l96 309h-18q-33 0 -61 -16.5t-50 -48t-37.5 -64.5t-32.5 -78q-45 -122 -87.5 -164t-102.5 -42q-35 0 -62 17l29 101h46v-13q0 -27 19 -27
q51 0 109 156q49 132 105 183.5t160 51.5h78z" />
    <glyph glyph-name="c.em" unicode="&#x43c;" horiz-adv-x="684" 
d="M588 403l-242 -403h-65l-2 404h-4q-53 -222 -69 -269q-27 -80 -60.5 -114.5t-91.5 -34.5q-34 0 -61 17l21 91h46v-7q0 -25 23 -25q36 0 62 66q29 74 74 250q3 10 3 17q0 17 -25 17h-20l11 43h158l4 -364l221 365l117 3l-109 -356q-7 -28 -7 -35q0 -19 15 -19q16 0 55 27
l-19 -58q-51 -31 -85 -31q-23 0 -37.5 14.5t-14.5 37.5q0 11 10 51l96 313h-4z" />
    <glyph glyph-name="c.en" unicode="&#x43d;" horiz-adv-x="518" 
d="M175 219l-62 -219h-72l99 345q8 29 8 36q0 17 -19 17q-13 0 -42 -5l14 45l138 21q-3 -16 -6 -31t-5 -24l-3 -10q0 -4 -3 -10l-33 -115h196l49 187l77 3l-96 -356q-8 -32 -8 -35q0 -19 16 -19q15 0 54 27l-14 -58q-2 -1 -9.5 -6t-11.5 -7l-12 -6t-14.5 -6.5t-16 -4
t-18.5 -1.5q-20 0 -36 13.5t-16 38.5q0 11 3 24l40 156h-197z" />
    <glyph glyph-name="c.o" unicode="&#x43e;" horiz-adv-x="500" 
d="M58 165q0 123 70 214t182 91q74 0 126.5 -44t52.5 -128q0 -42 -13 -91.5t-40 -101.5t-78.5 -86t-119.5 -34q-43 0 -76 13t-52 32.5t-31.5 45.5t-16.5 47.5t-4 41.5zM138 162q0 -55 29 -88.5t77 -33.5q41 0 74.5 28.5t52 71.5t28.5 86.5t10 78.5q0 51 -28 81t-72 30
q-52 0 -92 -38.5t-59.5 -95.5t-19.5 -120z" />
    <glyph glyph-name="c.pe" unicode="&#x43f;" horiz-adv-x="500" 
d="M101 438l138 21q-3 -16 -6 -31t-5 -24l-3 -10l-1 -4q-2 -5 -2 -6l-12 -39l2 -2q89 124 174 124q38 0 62.5 -21t24.5 -61q0 -31 -22 -100l-57 -182q-8 -27 -8 -35q0 -19 16 -19q15 0 54 27l-14 -58q-51 -31 -90 -31q-20 0 -36 13.5t-16 38.5q0 11 3 24l71 232q18 56 18 80
q0 14 -8.5 23.5t-23.5 9.5q-49 0 -112 -86.5t-85 -153.5q-27 -86 -50 -168h-72l99 345q8 29 8 36q0 17 -19 17q-13 0 -42 -5z" />
    <glyph glyph-name="c.er" unicode="&#x440;" horiz-adv-x="510" 
d="M96 437l141 20q-4 -34 -16 -74l2 -2q65 86 149 86q68 0 99 -44.5t31 -112.5q0 -119 -78.5 -222t-179.5 -103q-80 0 -115 63l-46 -159q-9 -31 -9 -36q0 -21 37 -21h28l-14 -42h-197l13 42h17q23 0 31.5 8t15.5 33q0 8 4 16l130 458q0 1 1.5 4.5t1.5 5.5q5 16 5 24
q0 14 -17 14q-12 0 -47 -3zM155 132q0 -41 23.5 -66t59.5 -25q52 0 95 46.5t64.5 106.5t21.5 113q0 11 -2 23.5t-8 31.5t-22 31t-40 12q-44 0 -89.5 -43t-74 -107t-28.5 -123z" />
    <glyph glyph-name="c.es" unicode="&#x441;" horiz-adv-x="432" 
d="M423 323h-58l1 10q5 23 5 41q0 17 -12.5 29.5t-40.5 12.5q-75 0 -128.5 -84t-53.5 -171q0 -52 29.5 -81.5t70.5 -29.5q49 0 117 44q1 1 4.5 3t7.5 4.5t5 3.5l-16 -73q-76 -47 -145 -47q-77 0 -115.5 49.5t-38.5 122.5q0 40 11.5 83t35 84t55.5 73.5t78 52.5t99 20
q56 0 118 -31z" />
    <glyph glyph-name="c.te" unicode="&#x442;" horiz-adv-x="740" 
d="M97 440l138 19q-6 -40 -22 -91l-7 -22l2 -2q22 30 36 47t36.5 37t47.5 29.5t55 9.5q34 0 57.5 -20t23.5 -60q0 -14 -5 -32l2 -2q80 114 169 114q87 0 87 -83q0 -30 -13 -69l-62 -195q-11 -29 -11 -49q0 -18 14 -18q21 0 35 14l13 8q3 3 8 5l-15 -58q-49 -34 -87 -34
q-15 0 -26.5 5.5t-16.5 12t-8 15t-3.5 12t-0.5 5.5q0 24 11 54l69 223q12 41 12 58q0 36 -33 36q-43 0 -110 -85q-71 -90 -112 -231l-27 -93h-70l90 315q11 38 11 59q0 17 -9 25.5t-20 8.5q-52 0 -117 -89.5t-98 -206.5l-32 -112h-71l102 357q6 23 6 26q0 17 -21 17
q-4 0 -23 -2q-4 0 -10 -0.5t-7 -0.5z" />
    <glyph glyph-name="c.u" unicode="&#x443;" horiz-adv-x="458" 
d="M345 439l93 31q34 -29 34 -76q0 -60 -52.5 -158t-185.5 -269q-102 -127 -152 -162q-34 -24 -75 -24q-28 0 -54 15l16 87h45v-20t4.5 -14t14.5 -5q41 0 153 152l-34 281q0 11 -2 15q-6 59 -17 90q-10 26 -35 26q-12 0 -36 -4l-5 -1q-5 -1 -6 -1l11 43l124 25
q18 -29 27 -59.5t15 -89.5l23 -237h2q8 14 9 15l32 46q25 34 66 109t41 116q0 35 -31 35q-12 0 -25 -3v37z" />
    <glyph glyph-name="c.ef" unicode="&#x444;" horiz-adv-x="721" 
d="M368 336q0 37 -19.5 57.5t-48.5 20.5q-70 0 -114.5 -84.5t-44.5 -181.5q0 -48 20 -73t53 -25q41 0 78.5 55.5t56.5 120.5t19 110zM302 50l-2 2q-49 -64 -115 -64q-48 0 -87.5 39t-39.5 127q0 133 69.5 224.5t165.5 91.5q42 0 67.5 -20t33.5 -43l25 91q8 29 14.5 48
t22 51.5t33 52.5t47 35.5t64.5 15.5q37 0 71 -17l-13 -87h-45v21q1 30 -28 30q-28 0 -44.5 -25t-36.5 -90l-36 -128l2 -2q23 29 55 46.5t62 17.5q37 0 63 -14t39 -38.5t18.5 -49.5t5.5 -55q0 -134 -66 -229.5t-167 -95.5q-39 0 -66.5 17.5t-37.5 45.5l-18 -64
q-8 -29 -14.5 -48t-22 -51.5t-33 -52.5t-47 -35.5t-64.5 -15.5q-37 0 -71 17l13 87h45v-21q-1 -30 28 -30q27 0 43.5 23.5t37.5 91.5zM401 120q0 -35 18 -57.5t54 -22.5q50 0 88 47t55 106.5t17 113.5q0 42 -16.5 70t-46.5 28q-40 0 -74.5 -36t-54 -85.5t-30 -94
t-10.5 -69.5z" />
    <glyph glyph-name="c.ha" unicode="&#x445;" horiz-adv-x="448" 
d="M74 442l120 25q19 -24 33 -60q2 -5 17 -55t17 -57q3 5 16 25.5t24.5 39.5t15.5 24q35 46 64 64.5t63 18.5q29 0 47 -10l-21 -88h-38q-9 20 -23 20q-22 0 -64 -60l-61 -99l-5 -9q11 -47 32 -106q8 -21 12.5 -31.5t14.5 -20t23 -9.5q22 0 62 31l-14 -64q-39 -33 -85 -33
q-32 0 -54.5 36t-41.5 115q-46 -69 -90 -110t-97 -41q-28 0 -49 15l26 91h42q0 -31 18 -31q17 0 38.5 19t41.5 48t30.5 47t18.5 33l-33 122q-13 42 -23.5 56t-38.5 14q-10 0 -46 -6z" />
    <glyph glyph-name="c.tse" unicode="&#x446;" horiz-adv-x="500" 
d="M99 439l155 20l-102 -323q-11 -30 -11 -51q0 -16 8.5 -25.5t21.5 -9.5q35 0 74.5 40t69.5 89q46 73 75 172l30 105l77 3l-104 -358q-6 -18 -6 -31q0 -17 13 -17q17 0 57 26l-68 -238h-85l81 151q-11 -4 -27 -4q-19 0 -35 11t-16 36q0 23 18 79l-2 2q-25 -37 -46 -60.5
t-57 -45.5t-75 -22q-37 0 -60.5 22.5t-23.5 58.5q0 29 9 57l72 232q5 15 5 25q0 18 -30 15l-30 -3z" />
    <glyph glyph-name="c.che" unicode="&#x447;" horiz-adv-x="487" 
d="M194 150q-42 0 -65 24.5t-23 71.5q0 31 11 66l10 33q9 32 9 36q0 18 -19 18q-18 0 -41 -4l12 44l155 20l-47 -149q-11 -35 -11 -58q0 -40 36 -40q39 0 96.5 58t75.5 126l16 60l81 3l-108 -358q-6 -18 -6 -32q0 -16 16 -16t54 26l-14 -60q-56 -31 -93 -31q-19 0 -35 11.5
t-16 35.5q0 21 6 39l47 155h-5q-25 -33 -64 -56t-78 -23z" />
    <glyph glyph-name="c.sha" unicode="&#x448;" horiz-adv-x="751" 
d="M497 459l-94 -323q-11 -36 -11 -51q0 -16 8.5 -25.5t21.5 -9.5q35 0 74.5 40t69.5 89q46 73 75 172l30 105l77 3l-104 -358q-6 -18 -6 -31q0 -17 13 -17q17 0 57 26l-18 -62q-52 -29 -81 -29q-19 0 -35 11t-16 36q0 23 18 79l-2 2q-25 -37 -46 -60.5t-57 -45.5t-75 -22
q-37 0 -60.5 22.5t-23.5 58.5q0 18 6 44l-2 2q-16 -24 -29 -41t-35.5 -39.5t-49.5 -34.5t-57 -12q-37 0 -60.5 22.5t-23.5 58.5q0 29 9 57l72 232q5 15 5 25q0 18 -30 15l-30 -3l12 44l155 20l-102 -323q-11 -30 -11 -51q0 -35 30 -35q39 0 81.5 48.5t74.5 107.5
q37 69 66 162l27 88z" />
    <glyph glyph-name="c.shcha" unicode="&#x449;" horiz-adv-x="751" 
d="M640 -159h-85l82 151q-18 -4 -28 -4q-19 0 -35 11t-16 36q0 23 18 79l-2 2q-25 -37 -46 -60.5t-57 -45.5t-75 -22q-37 0 -60.5 22.5t-23.5 58.5q0 18 6 44l-2 2q-16 -24 -29 -41t-35.5 -39.5t-49.5 -34.5t-57 -12q-37 0 -60.5 22.5t-23.5 58.5q0 29 9 57l72 232
q5 15 5 25q0 16 -19 16h-3.5t-6 -0.5t-12 -1.5t-19.5 -2l12 44l155 20l-102 -323q-11 -30 -11 -51q0 -35 30 -35q39 0 81.5 48.5t74.5 107.5q37 69 66 162l27 88l77 3l-94 -323q-11 -36 -11 -51q0 -16 8.5 -25.5t21.5 -9.5q35 0 74.5 40t69.5 89q46 73 75 172l30 105l77 3
l-104 -358q-6 -18 -6 -31q0 -17 13 -17q17 0 57 26z" />
    <glyph glyph-name="c.hard" unicode="&#x44a;" horiz-adv-x="578" 
d="M222 226l50 174h-80q-34 0 -43.5 -8.5t-17.5 -39.5l-10 -39h-58l36 142h265l-55 -194q42 29 106 29q77 0 111.5 -35t34.5 -87q0 -72 -55.5 -127.5t-151.5 -55.5q-73 0 -113.5 37.5t-40.5 92.5q0 29 22 111zM481 162q0 36 -21 56t-62 20q-52 0 -87 -31t-35 -88
q0 -34 23.5 -56.5t68.5 -22.5q43 0 78 37t35 85z" />
    <glyph glyph-name="c.yeru" unicode="&#x44b;" horiz-adv-x="692" 
d="M611 455l77 4l-105 -369q-5 -17 -5 -24q0 -9 6 -13.5t12 -4.5q17 0 54 27l-13 -59q-52 -31 -87 -31q-26 0 -39.5 15t-13.5 33q0 23 7 45zM100 228l32 117q9 34 9 38q0 16 -20 16q-8 0 -40 -4l12 44l149 20l-56 -198q42 29 106 29q78 0 112 -35t34 -87q0 -72 -55.5 -127.5
t-151.5 -55.5q-73 0 -113.5 37.5t-40.5 92.5q0 31 23 113zM358 162q0 36 -21 56t-62 20q-52 0 -87 -31t-35 -88q0 -35 23 -57t69 -22q43 0 78 37t35 85z" />
    <glyph glyph-name="c.soft" unicode="&#x44c;" horiz-adv-x="463" 
d="M100 228l32 117q9 34 9 38q0 16 -20 16q-8 0 -40 -4l12 44l149 20l-56 -198q42 29 106 29q78 0 112 -35t34 -87q0 -72 -55.5 -127.5t-151.5 -55.5q-73 0 -113.5 37.5t-40.5 92.5q0 31 23 113zM358 162q0 36 -21 56t-62 20q-52 0 -87 -31t-35 -88q0 -35 23 -57t69 -22
q43 0 78 37t35 85z" />
    <glyph glyph-name="c.e" unicode="&#x44d;" horiz-adv-x="432" 
d="M131 216l15 53h190q0 4 0.5 12t0.5 13q0 111 -95 111q-64 0 -139 -55l16 73q76 47 145 47q45 0 77.5 -17.5t48 -45.5t22 -54.5t6.5 -54.5q0 -39 -8 -80t-27.5 -83.5t-48 -75t-73 -53.5t-99.5 -21q-52 0 -129 28l16 119h55v-30q0 -63 69 -63q57 0 96.5 49t58.5 128h-197z
" />
    <glyph glyph-name="c.yu" unicode="&#x44e;" horiz-adv-x="698" 
d="M175 219l-62 -219h-72l99 345q8 29 8 36q0 17 -19 17q-13 0 -42 -5l14 45l138 21q-3 -16 -6 -31t-5 -24l-3 -10q0 -4 -3 -10l-33 -115h121q25 88 84 144.5t136 56.5q82 0 119.5 -52t37.5 -120q0 -121 -64.5 -217t-165.5 -96q-82 0 -121.5 53t-39.5 127q0 30 4 54h-125z
M376 162q0 -53 21 -87.5t62 -34.5q55 0 101.5 80.5t46.5 175.5q0 55 -17.5 87t-63.5 32q-59 0 -104.5 -78t-45.5 -175z" />
    <glyph glyph-name="c.ya" unicode="&#x44f;" horiz-adv-x="527" 
d="M135 93l41 57q36 50 99 66v1q-45 0 -77 26t-32 70q0 62 46.5 102t138.5 40h179l-108 -352q-7 -23 -7 -35q0 -19 15 -19q16 0 55 27l-14 -58q-48 -31 -90 -31q-23 0 -37.5 15t-14.5 37q0 17 9 47l34 109h-21q-48 0 -79 -47l-57 -84q-26 -38 -64.5 -59t-82.5 -19
q-52 2 -76 17l26 104h53l-4 -19q-3 -15 -3 -20q0 -20 18 -20q21 0 53 45zM388 248l47 151h-54q-135 0 -135 -87q0 -27 22 -45.5t65 -18.5h55z" />
    <glyph glyph-name="uni0450" unicode="&#x450;" horiz-adv-x="417" 
d="M360 113l-17 -74q-78 -54 -150 -54q-71 0 -109 45.5t-38 110.5q0 122 85.5 225.5t198.5 103.5q29 0 50 -9t31.5 -20.5t16.5 -26.5t7 -23t1 -14q0 -77 -78 -127t-178 -50q-20 0 -48 2q-6 -24 -6 -50q0 -53 26 -77t59 -24q25 0 49.5 8t40.5 17t49 30zM142 253
q66 -5 113.5 8t67.5 36t28 41t8 33q0 21 -13 33.5t-34 12.5q-12 0 -28 -5.5t-41.5 -20t-52.5 -50.5t-48 -88zM204 654h85l47 -130h-47z" />
    </font>
</defs>
</svg>
